<svg xmlns="http://www.w3.org/2000/svg" width="123.792" height="91.743" viewBox="0 0 123.792 91.743">
  <g id="Group_266" data-name="Group 266" transform="translate(-256.699 -410.142)">
    <g id="Group_263" data-name="Group 263" transform="translate(258.449 411.892)">
      <g id="Group_251" data-name="Group 251" transform="translate(19.349)">
        <path id="Path_2379" data-name="Path 2379" d="M317.095,431.151H271.816V411.892h45.279Zm-42.963-2.316h40.646V414.208H274.132Z" transform="translate(-271.816 -411.892)" fill="#19323f" stroke="#19323f" stroke-width="3.5"/>
      </g>
      <g id="Group_252" data-name="Group 252" transform="translate(19.349 68.983)">
        <path id="Path_2380" data-name="Path 2380" d="M317.095,478.807H271.816V459.548h45.279Zm-42.963-2.316h40.646V461.864H274.132Z" transform="translate(-271.816 -459.548)" fill="#19323f" stroke="#19323f" stroke-width="3.5"/>
      </g>
      <g id="Group_253" data-name="Group 253" transform="translate(19.349 34.492)">
        <path id="Path_2381" data-name="Path 2381" d="M317.095,454.979H271.816V435.72h45.279Zm-42.963-2.316h40.646V438.036H274.132Z" transform="translate(-271.816 -435.72)" fill="#19323f" stroke="#19323f" stroke-width="3.5"/>
      </g>
      <g id="Group_254" data-name="Group 254" transform="translate(80.465 34.492)">
        <path id="Path_2382" data-name="Path 2382" d="M353.864,454.979H314.037V435.72h39.827Zm-37.511-2.316h35.2V438.036h-35.2Z" transform="translate(-314.037 -435.72)" fill="#19323f" stroke="#19323f" stroke-width="3.5"/>
      </g>
      <g id="Group_260" data-name="Group 260" transform="translate(0 43.979)">
        <g id="Group_255" data-name="Group 255" transform="translate(8.598)">
          <rect id="Rectangle_75" data-name="Rectangle 75" width="7.335" height="2.316" fill="#19323f" stroke="#19323f" stroke-width="3.5"/>
        </g>
        <g id="Group_256" data-name="Group 256">
          <path id="Path_2383" data-name="Path 2383" d="M260.765,445.773h-2.316v-3.5h3.5v2.316h-1.183Z" transform="translate(-258.449 -442.274)" fill="#19323f" stroke="#19323f" stroke-width="3.5"/>
        </g>
        <g id="Group_257" data-name="Group 257" transform="translate(0 7.885)">
          <path id="Path_2384" data-name="Path 2384" d="M260.765,466.728h-2.316v-7.31h2.316Zm0-11.7h-2.316v-7.311h2.316Z" transform="translate(-258.449 -447.721)" fill="#19323f" stroke="#19323f" stroke-width="3.5"/>
        </g>
        <g id="Group_258" data-name="Group 258" transform="translate(0 31.279)">
          <path id="Path_2385" data-name="Path 2385" d="M261.948,467.381h-3.5v-3.5h2.316v1.183h1.183Z" transform="translate(-258.449 -463.882)" fill="#19323f" stroke="#19323f" stroke-width="3.5"/>
        </g>
        <g id="Group_259" data-name="Group 259" transform="translate(8.598 32.462)">
          <rect id="Rectangle_76" data-name="Rectangle 76" width="7.335" height="2.316" fill="#19323f" stroke="#19323f" stroke-width="3.5"/>
        </g>
      </g>
      <g id="Group_261" data-name="Group 261" transform="translate(68.915 60.161)">
        <path id="Path_2386" data-name="Path 2386" d="M335.648,472.049h-5.385v-2.316h4.29l.3-.361v-4.424h2.316V470.2Zm-9.924,0h-7.563v-2.316h7.563Zm-12.1,0h-7.565v-2.316h7.565Zm23.544-11.638h-2.316v-6.958h2.316Z" transform="translate(-306.058 -453.453)" fill="#19323f" stroke="#19323f" stroke-width="3.5"/>
      </g>
      <g id="Group_262" data-name="Group 262" transform="translate(94.672 23.82)">
        <path id="Path_2387" data-name="Path 2387" d="M329.559,436.447l-5.707-5.707,1.638-1.638,4.07,4.07,4.07-4.07,1.637,1.638Z" transform="translate(-323.851 -429.102)" fill="#19323f" stroke="#19323f" stroke-width="3.5"/>
      </g>
    </g>
    <g id="Group_264" data-name="Group 264" transform="translate(299.279 433.624)">
      <rect id="Rectangle_77" data-name="Rectangle 77" width="2.316" height="10.287" fill="#19323f" stroke="#19323f" stroke-width="3.5"/>
    </g>
    <g id="Group_265" data-name="Group 265" transform="translate(327.365 420.364)">
      <path id="Path_2388" data-name="Path 2388" d="M338.68,434.968h-2.316V419.524H306.058v-1.779H338.68Z" transform="translate(-306.058 -417.745)" fill="#19323f" stroke="#19323f" stroke-width="3.5"/>
    </g>
  </g>
</svg>
