<svg xmlns="http://www.w3.org/2000/svg" width="120.216" height="120.216" viewBox="0 0 120.216 120.216">
  <g id="Group_425" data-name="Group 425" transform="translate(-114 -204)">
    <path id="Path_2511" data-name="Path 2511" d="M225.159,204h-102.1A9.066,9.066,0,0,0,114,213.056v73.812a9.067,9.067,0,0,0,9.057,9.056h33.382v7.1h-3.551a17.688,17.688,0,0,0-17.669,17.669,3.521,3.521,0,0,0,3.522,3.522h70.733A3.521,3.521,0,0,0,213,320.694a17.688,17.688,0,0,0-17.669-17.669h-3.551v-7.1h33.382a9.066,9.066,0,0,0,9.057-9.056V213.056A9.066,9.066,0,0,0,225.159,204Zm-104.115,9.056a2.014,2.014,0,0,1,2.013-2.012h102.1a2.014,2.014,0,0,1,2.013,2.012v61.677H121.044Zm84.308,104.116H142.864a10.643,10.643,0,0,1,10.024-7.1h42.439a10.643,10.643,0,0,1,10.024,7.1Zm-20.619-14.147H163.483v-7.1h21.249Zm42.439-16.158a2.014,2.014,0,0,1-2.013,2.012h-102.1a2.014,2.014,0,0,1-2.013-2.012v-5.091H227.172Zm0,0" fill="#19323f"/>
    <path id="Path_2512" data-name="Path 2512" d="M199.45,278.825a3.522,3.522,0,1,0,0-7.044,10.608,10.608,0,0,0-10.6,10.6,3.556,3.556,0,0,1-3.551,3.551,3.522,3.522,0,0,0,0,7.044,3.556,3.556,0,0,1,3.551,3.551,10.608,10.608,0,0,0,10.6,10.6,3.522,3.522,0,1,0,0-7.044,3.556,3.556,0,0,1-3.551-3.551,10.552,10.552,0,0,0-2.714-7.073,10.552,10.552,0,0,0,2.714-7.073,3.556,3.556,0,0,1,3.551-3.551Zm0,0" transform="translate(-57.561 -46.561)" fill="#19323f"/>
    <path id="Path_2513" data-name="Path 2513" d="M380.2,285.928a3.556,3.556,0,0,1-3.551-3.551,10.608,10.608,0,0,0-10.6-10.6,3.522,3.522,0,1,0,0,7.044,3.556,3.556,0,0,1,3.551,3.551,10.552,10.552,0,0,0,2.714,7.073,10.552,10.552,0,0,0-2.714,7.073,3.556,3.556,0,0,1-3.551,3.551,3.522,3.522,0,1,0,0,7.044,10.608,10.608,0,0,0,10.6-10.6,3.556,3.556,0,0,1,3.551-3.551,3.522,3.522,0,1,0,0-7.044Zm0,0" transform="translate(-159.725 -46.561)" fill="#19323f"/>
    <g id="Group_426" data-name="Group 426" transform="translate(154.466 255.596) rotate(-90)">
      <path id="Path_2517" data-name="Path 2517" d="M22.208,0h-19A3.212,3.212,0,0,0,0,3.208V36.076a3.212,3.212,0,0,0,3.208,3.208h19a3.212,3.212,0,0,0,3.208-3.208V3.208A3.212,3.212,0,0,0,22.208,0Zm-19,2.3h19a.907.907,0,0,1,.906.906V4.623H2.3V3.208A.907.907,0,0,1,3.208,2.3ZM23.114,32.36H20.953c1.191.027-.6-.095-1.049,0H15.261c-.635,0-2.892.027-1.552,0H12.491c.977-.013-2.134,0-2.77,0H5.567c-.636,0-2.321.027-1.264,0h-2V6.925H23.114Zm-4.463,0h0Zm-9.406,0h0Zm12.962,4.623h-19a.907.907,0,0,1-.906-.906V34.662H23.114v1.415a.907.907,0,0,1-.906.906Zm0,0" fill="#19323f"/>
      <circle id="Ellipse_8" data-name="Ellipse 8" cx="0.423" cy="0.423" r="0.423" transform="translate(12.265 35.476)" fill="#19323f"/>
    </g>
  </g>
</svg>
