<svg xmlns="http://www.w3.org/2000/svg" width="121.213" height="102.875" viewBox="0 0 121.213 102.875">
  <g id="Group_340" data-name="Group 340" transform="translate(-1498.267 -1358.435)">
    <g id="Group_338" data-name="Group 338" transform="translate(1498.764 1358.935)">
      <g id="Group_337" data-name="Group 337">
        <path id="Path_2453" data-name="Path 2453" d="M1518.057,1433.512a19.417,19.417,0,0,1-12.616-4.738,15.071,15.071,0,0,1-3.127-3.648c-.156-.23-.316-.464-.481-.7a5.751,5.751,0,0,1-.658-1.318,5.624,5.624,0,0,0-.239-.562,2.6,2.6,0,0,1-.239-.679c-.006-.023-.01-.047-.017-.07a22.113,22.113,0,0,1-1.85-7.92c-.99-14.64,9.194-19.9,17.538-22.491a26.854,26.854,0,0,1,6.526-20.6c6.371-7.42,16.39-11.851,26.8-11.851a31.222,31.222,0,0,1,21.744,8.609A30.222,30.222,0,0,1,1580.62,1386a22.511,22.511,0,0,1,12.217.224c8.139,2.259,13.807,9.4,14.793,18.638.126,1.179.176,1.734.189,2.264a15.138,15.138,0,0,1,7.83,4.673,1.426,1.426,0,0,1,.385.334,12.705,12.705,0,0,1,2.947,7.953c0,.318-.012.64-.038.984-.286,3.53-3.067,6.511-5.134,8.448-2.563,2.4-7.289,3.82-10.633,3.988l-.071,0Zm-14.6-12.234a8.575,8.575,0,0,1,.349.81,3.334,3.334,0,0,0,.337.716c.175.251.34.493.5.732a12.678,12.678,0,0,0,2.551,3.027,16.578,16.578,0,0,0,10.886,4.125l84.979-.009c2.8-.15,6.849-1.393,8.811-3.228,1.724-1.615,4.042-4.058,4.248-6.6.02-.266.03-.518.03-.765a9.882,9.882,0,0,0-2.1-5.891,1.407,1.407,0,0,1-.353-.314,12.562,12.562,0,0,0-7.547-4.219,1.413,1.413,0,0,1-1.172-1.422,17.072,17.072,0,0,0-.165-3.077c-.86-8.061-5.741-14.274-12.739-16.216a19.585,19.585,0,0,0-11.011-.144c-.172.045-.324.084-.455.116-.5.116-.776.192-.818.205a1.376,1.376,0,0,1-1.238-.158,1.407,1.407,0,0,1-.613-1.1,27.405,27.405,0,0,0-8.458-18.274,28.411,28.411,0,0,0-19.791-7.824c-9.6,0-18.817,4.062-24.658,10.866a24.054,24.054,0,0,0-5.718,19.554,1.412,1.412,0,0,1-1,1.571c-8.227,2.378-17.557,6.792-16.668,19.936a19.348,19.348,0,0,0,1.6,6.941,2.876,2.876,0,0,1,.195.592C1503.452,1421.239,1503.456,1421.259,1503.461,1421.278Zm-2.771.538,0,.009Zm2.74-.6.015.029Z" transform="translate(-1498.764 -1358.935)" fill="#19323f" stroke="#19323f" stroke-width="1"/>
      </g>
      <path id="Path_2454" data-name="Path 2454" d="M1615.159,1404.593a1.412,1.412,0,0,1-1.409-1.331,16.964,16.964,0,0,0-5.236-11.312,17.607,17.607,0,0,0-12.265-4.847c-6.912,0-13.514,3.445-16.819,8.775a1.412,1.412,0,0,1-2.4-1.489c3.808-6.142,11.353-10.111,19.22-10.111a20.419,20.419,0,0,1,14.219,5.631,19.778,19.778,0,0,1,6.1,13.19,1.412,1.412,0,0,1-1.329,1.491Z" transform="translate(-1545.32 -1374.051)" fill="#19323f" stroke="#19323f" stroke-width="1"/>
    </g>
    <g id="Group_339" data-name="Group 339" transform="translate(1543.019 1397.341)">
      <path id="Path_2455" data-name="Path 2455" d="M1636.466,1457.609l-24.535,9.917v24.594s1.448,17.126,24.535,26.634c23.086-9.509,24.534-26.634,24.534-26.634v-24.594Z" transform="translate(-1610.519 -1456.197)" fill="#fff"/>
      <path id="Path_2456" data-name="Path 2456" d="M1634.378,1518.078a1.417,1.417,0,0,1-.538-.106c-23.612-9.725-25.342-27.087-25.4-27.821,0-.04,0-.079,0-.119v-24.594a1.412,1.412,0,0,1,.883-1.309l24.535-9.917a1.414,1.414,0,0,1,1.059,0l24.534,9.917a1.412,1.412,0,0,1,.883,1.309v24.594c0,.04,0,.079,0,.119-.063.734-1.792,18.1-25.4,27.821A1.417,1.417,0,0,1,1634.378,1518.078Zm-23.122-28.119a24.817,24.817,0,0,0,3.5,9.244c2.815,4.685,8.5,11.218,19.625,15.932,20.936-8.866,23.011-24.195,23.122-25.174V1466.39l-23.122-9.345-23.122,9.345Z" transform="translate(-1608.431 -1454.109)" fill="#19323f"/>
    </g>
    <path id="Path_2457" data-name="Path 2457" d="M1672.473,1521.111l-1.076-2.612c16.879-6.953,18.534-18.925,18.646-19.957V1480l-18.637-7.533,1.059-2.619,19.52,7.89a1.413,1.413,0,0,1,.883,1.31v19.568c0,.04,0,.079-.005.119C1692.813,1499.324,1691.42,1513.307,1672.473,1521.111Z" transform="translate(-102.969 -66.154)" fill="#494f58"/>
  </g>
</svg>
