<svg xmlns="http://www.w3.org/2000/svg" width="120.581" height="111.028" viewBox="0 0 120.581 111.028">
  <g id="Group_316" data-name="Group 316" transform="translate(-665.358 -410.459)">
    <g id="Group_314" data-name="Group 314" transform="translate(665.858 410.959)">
      <g id="Group_312" data-name="Group 312">
        <g id="Group_299" data-name="Group 299" transform="translate(0 23.271)">
          <g id="Group_296" data-name="Group 296" transform="translate(81.226 25.598)">
            <path id="Path_2431" data-name="Path 2431" d="M730,485.9h-2.8V441.667h-12.16V485.9h-2.8V438.865H730Z" transform="translate(-712.24 -438.865)" fill="#19323f" stroke="#19323f" stroke-width="1"/>
          </g>
          <g id="Group_297" data-name="Group 297" transform="translate(101.532)">
            <path id="Path_2432" data-name="Path 2432" d="M741.6,496.879h-2.8V427.049h-12.16v69.829h-2.8V424.247H741.6Z" transform="translate(-723.835 -424.247)" fill="#19323f" stroke="#19323f" stroke-width="1"/>
          </g>
          <g id="Group_298" data-name="Group 298" transform="translate(0 32.7)">
            <path id="Path_2433" data-name="Path 2433" d="M683.624,481.45h-2.8V445.722H668.66V481.45h-2.8V442.92h17.765Z" transform="translate(-665.858 -442.92)" fill="#19323f" stroke="#19323f" stroke-width="1"/>
          </g>
        </g>
        <g id="Group_304" data-name="Group 304" transform="translate(35.873 53.229)">
          <g id="Group_300" data-name="Group 300" transform="translate(0 4.544)">
            <rect id="Rectangle_78" data-name="Rectangle 78" width="2.802" height="28.276" fill="#19323f" stroke="#19323f" stroke-width="1"/>
          </g>
          <g id="Group_301" data-name="Group 301" transform="translate(8.535 0)">
            <rect id="Rectangle_79" data-name="Rectangle 79" width="2.802" height="36.754" fill="#19323f" stroke="#19323f" stroke-width="1"/>
          </g>
          <g id="Group_302" data-name="Group 302" transform="translate(22.445 4.545)">
            <rect id="Rectangle_80" data-name="Rectangle 80" width="2.802" height="27.666" fill="#19323f" stroke="#19323f" stroke-width="1"/>
          </g>
          <g id="Group_303" data-name="Group 303" transform="translate(13.91)">
            <rect id="Rectangle_81" data-name="Rectangle 81" width="2.802" height="36.754" fill="#19323f" stroke="#19323f" stroke-width="1"/>
          </g>
        </g>
        <g id="Group_310" data-name="Group 310">
          <g id="Group_305" data-name="Group 305" transform="translate(60.919)">
            <path id="Path_2434" data-name="Path 2434" d="M718.408,506.862h-2.8v-93.1h-12.16v49.1h-2.8v-51.9h17.764Z" transform="translate(-700.645 -410.959)" fill="#19323f" stroke="#19323f" stroke-width="1"/>
          </g>
          <g id="Group_306" data-name="Group 306" transform="translate(0 94.419)">
            <path id="Path_2435" data-name="Path 2435" d="M678.269,473.554H665.858v-8.68h17.029v2.8H668.66v3.076h9.609Z" transform="translate(-665.858 -464.874)" fill="#19323f" stroke="#19323f" stroke-width="1"/>
          </g>
          <g id="Group_307" data-name="Group 307" transform="translate(25.947 94.419)">
            <path id="Path_2436" data-name="Path 2436" d="M774.309,473.554H680.675v-2.8h90.832v-3.076H685.422v-2.8h88.886Z" transform="translate(-680.675 -464.874)" fill="#19323f" stroke="#19323f" stroke-width="1"/>
          </g>
          <g id="Group_308" data-name="Group 308" transform="translate(40.613 36.734)">
            <path id="Path_2437" data-name="Path 2437" d="M706.814,444.366h-2.8v-9.629H691.851v9.055h-2.8V431.935h17.765Z" transform="translate(-689.049 -431.935)" fill="#19323f" stroke="#19323f" stroke-width="1"/>
          </g>
          <g id="Group_309" data-name="Group 309" transform="translate(20.307 18.617)">
            <path id="Path_2438" data-name="Path 2438" d="M680.253,472.866l-2.8-.087V421.59h17.764v32.392h-2.8v-29.59h-12.16v48.326h.005Z" transform="translate(-677.454 -421.59)" fill="#19323f" stroke="#19323f" stroke-width="1"/>
          </g>
        </g>
        <g id="Group_311" data-name="Group 311" transform="translate(10.072 46.147)">
          <path id="Path_2439" data-name="Path 2439" d="M678.89,501.19a7.276,7.276,0,0,1-5.147-12.423,7.131,7.131,0,0,1,1.123-.919l13.828-11.168a25.474,25.474,0,0,1,39.351-31.922v0a25.473,25.473,0,0,1-31.92,39.349l-11.169,13.828a7.257,7.257,0,0,1-6.065,3.254Zm31.144-61.078a22.672,22.672,0,0,0-18.318,36.015l.786,1.079-16.045,12.951a4.351,4.351,0,0,0-.73.588,4.476,4.476,0,1,0,6.327,6.334,4.329,4.329,0,0,0,.592-.732l.086-.117L695.6,480.3l1.077.788a22.669,22.669,0,1,0,13.359-40.976Zm0,42.407a19.728,19.728,0,1,1,13.971-5.777h0A19.706,19.706,0,0,1,710.034,482.519Zm0-36.7a16.93,16.93,0,1,0,11.989,4.958A16.84,16.84,0,0,0,710.034,445.821Z" transform="translate(-671.61 -437.31)" fill="#19323f" stroke="#19323f" stroke-width="1"/>
        </g>
      </g>
      <g id="Group_313" data-name="Group 313" transform="translate(20.307 69.806)">
        <rect id="Rectangle_82" data-name="Rectangle 82" width="2.802" height="21.911" fill="#19323f" stroke="#19323f" stroke-width="1"/>
      </g>
    </g>
    <g id="Group_315" data-name="Group 315" transform="translate(724.176 503.86)">
      <rect id="Rectangle_83" data-name="Rectangle 83" width="2.802" height="2.919" fill="#19323f" stroke="#19323f" stroke-width="1"/>
    </g>
  </g>
</svg>
