<svg xmlns="http://www.w3.org/2000/svg" width="120.216" height="95.884" viewBox="0 0 120.216 95.884">
  <g id="Group_423" data-name="Group 423" transform="translate(9342.014 11757.104)">
    <g id="Group_422" data-name="Group 422" transform="translate(-9329.757 -11687.257) rotate(-90)">
      <path id="Path_2517" data-name="Path 2517" d="M61.03,0H8.817A8.826,8.826,0,0,0,0,8.816V99.143a8.826,8.826,0,0,0,8.817,8.816H61.03a8.826,8.826,0,0,0,8.817-8.816V8.816A8.826,8.826,0,0,0,61.03,0ZM8.817,6.326H61.03a2.493,2.493,0,0,1,2.491,2.491V12.7H6.326V8.816A2.493,2.493,0,0,1,8.817,6.326Zm54.7,82.6H57.582c3.273.075-1.652-.261-2.883,0H41.939c-1.746,0-7.947.075-4.266,0H34.328c2.686-.037-5.864,0-7.612,0H15.3c-1.747,0-6.38.075-3.474,0h-5.5V19.03h57.2Zm-12.265,0h0Zm-25.848,0h0Zm35.622,12.7H8.817a2.493,2.493,0,0,1-2.491-2.491V95.255h57.2v3.888a2.493,2.493,0,0,1-2.491,2.491Zm0,0" fill="#19323f"/>
      <circle id="Ellipse_8" data-name="Ellipse 8" cx="1.162" cy="1.162" r="1.162" transform="translate(33.707 97.493)" fill="#19323f"/>
    </g>
    <g id="Group_421" data-name="Group 421" transform="translate(-9342.014 -11731.378)">
      <rect id="Rectangle_102" data-name="Rectangle 102" width="40.93" height="65.313" transform="translate(2.719 2.613)" fill="#fff"/>
      <path id="Path_2517-2" data-name="Path 2517" d="M220.661,204H186.73a5.736,5.736,0,0,0-5.73,5.729v58.7a5.736,5.736,0,0,0,5.73,5.729h33.931a5.736,5.736,0,0,0,5.73-5.729v-58.7a5.736,5.736,0,0,0-5.73-5.729Zm-33.931,4.111h33.931a1.62,1.62,0,0,1,1.619,1.619v2.527H185.111v-2.527a1.62,1.62,0,0,1,1.619-1.619Zm35.55,53.68h-3.86v-6.2a2.055,2.055,0,0,0-2.055-2.055h-8.827a2.055,2.055,0,0,0-2.055,2.055v6.2h-3.86v-6.2a2.055,2.055,0,0,0-2.055-2.055H190.74a2.055,2.055,0,0,0-2.055,2.055v6.2h-3.574V216.367h37.169Zm-7.97,0h-4.716v-4.145h4.716Zm-16.8,0H192.8v-4.145h4.716Zm23.149,8.256H186.73a1.62,1.62,0,0,1-1.619-1.619V265.9h37.169v2.527a1.62,1.62,0,0,1-1.619,1.619Zm0,0" transform="translate(-181 -204)" fill="#19323f"/>
      <path id="Path_2518" data-name="Path 2518" d="M225.118,306.742h8.827A2.055,2.055,0,0,0,236,304.686V296.43a2.055,2.055,0,0,0-2.055-2.055h-8.827a2.055,2.055,0,0,0-2.055,2.055v8.256a2.055,2.055,0,0,0,2.055,2.055Zm2.055-8.256h4.716v4.145h-4.716Zm0,0" transform="translate(-215.378 -277.863)" fill="#19323f"/>
      <path id="Path_2519" data-name="Path 2519" d="M317.055,306.742h8.827a2.055,2.055,0,0,0,2.055-2.055V296.43a2.055,2.055,0,0,0-2.055-2.055h-8.827A2.055,2.055,0,0,0,315,296.43v8.256a2.055,2.055,0,0,0,2.055,2.055Zm2.055-8.256h4.716v4.145h-4.716Zm0,0" transform="translate(-290.518 -277.863)" fill="#19323f"/>
      <path id="Path_2520" data-name="Path 2520" d="M225.118,397.117h8.827A2.055,2.055,0,0,0,236,395.061v-8.256a2.055,2.055,0,0,0-2.055-2.055h-8.827a2.055,2.055,0,0,0-2.055,2.055v8.256a2.055,2.055,0,0,0,2.055,2.055Zm2.055-8.256h4.716v4.145h-4.716Zm0,0" transform="translate(-215.378 -351.727)" fill="#19323f"/>
      <path id="Path_2521" data-name="Path 2521" d="M317.055,397.117h8.827a2.056,2.056,0,0,0,2.055-2.055v-8.256a2.055,2.055,0,0,0-2.055-2.055h-8.827A2.055,2.055,0,0,0,315,386.805v8.256a2.056,2.056,0,0,0,2.055,2.055Zm2.055-8.256h4.716v4.145h-4.716Zm0,0" transform="translate(-290.518 -351.727)" fill="#19323f"/>
    </g>
  </g>
</svg>
