<svg xmlns="http://www.w3.org/2000/svg" width="120.216" height="120.216" viewBox="0 0 120.216 120.216">
  <g id="Group_424" data-name="Group 424" transform="translate(-114 -204)">
    <path id="Path_2522" data-name="Path 2522" d="M230.694,288.879H220.069v-17.7a3.521,3.521,0,0,0-3.522-3.522h-17.7v-7.1h17.7a3.521,3.521,0,0,0,3.522-3.522V238.983a17.668,17.668,0,1,0-7.044,0v14.529H198.85v-3.551a3.521,3.521,0,0,0-3.522-3.522h-17.7v-7.456a17.669,17.669,0,1,0-7.044,0v7.456h-17.7a3.521,3.521,0,0,0-3.522,3.522v3.551H135.191V238.983a17.669,17.669,0,1,0-7.044,0v18.051a3.521,3.521,0,0,0,3.522,3.522h17.7v7.1h-17.7a3.521,3.521,0,0,0-3.522,3.522v17.7H117.522A3.521,3.521,0,0,0,114,292.4v28.293a3.521,3.521,0,0,0,3.522,3.522h28.293a3.521,3.521,0,0,0,3.522-3.522V292.4a3.521,3.521,0,0,0-3.522-3.522H135.191V274.7h14.176v3.551a3.521,3.521,0,0,0,3.522,3.522h17.7v7.1H159.961a3.521,3.521,0,0,0-3.522,3.522v28.293a3.521,3.521,0,0,0,3.522,3.522h28.293a3.521,3.521,0,0,0,3.522-3.522V292.4a3.521,3.521,0,0,0-3.522-3.522H177.63v-7.1h17.7a3.521,3.521,0,0,0,3.522-3.522V274.7h14.176v14.176H202.4a3.521,3.521,0,0,0-3.522,3.522v28.293a3.521,3.521,0,0,0,3.522,3.522h28.293a3.521,3.521,0,0,0,3.522-3.522V292.4a3.521,3.521,0,0,0-3.522-3.522Zm-24.771-67.21a10.625,10.625,0,1,1,10.624,10.624,10.636,10.636,0,0,1-10.624-10.624Zm-42.44,0a10.625,10.625,0,1,1,10.625,10.624,10.636,10.636,0,0,1-10.625-10.624Zm-42.439,0a10.625,10.625,0,1,1,10.625,10.624,10.636,10.636,0,0,1-10.625-10.624Zm21.249,95.5H121.044V295.923h21.249Zm42.44,0H163.483V295.923h21.249Zm7.073-42.439h-35.4V253.483h35.4Zm35.366,42.439H205.923V295.923h21.249Zm0,0" fill="#19323f"/>
    <path id="Path_2523" data-name="Path 2523" d="M275.678,391.794h14.147a3.522,3.522,0,0,0,0-7.044H275.678a3.522,3.522,0,1,0,0,7.044Zm0,0" transform="translate(-108.643 -124.164)" fill="#19323f"/>
  </g>
</svg>
