<svg xmlns="http://www.w3.org/2000/svg" width="120.216" height="120.216" viewBox="0 0 120.216 120.216">
  <g id="Group_420" data-name="Group 420" transform="translate(-114 -204)">
    <path id="Path_2511" data-name="Path 2511" d="M225.159,204h-102.1A9.066,9.066,0,0,0,114,213.056v73.812a9.067,9.067,0,0,0,9.057,9.056h33.382v7.1h-3.551a17.688,17.688,0,0,0-17.669,17.669,3.521,3.521,0,0,0,3.522,3.522h70.733A3.521,3.521,0,0,0,213,320.694a17.688,17.688,0,0,0-17.669-17.669h-3.551v-7.1h33.382a9.066,9.066,0,0,0,9.057-9.056V213.056A9.066,9.066,0,0,0,225.159,204Zm-104.115,9.056a2.014,2.014,0,0,1,2.013-2.012h102.1a2.014,2.014,0,0,1,2.013,2.012v61.677H121.044Zm84.308,104.116H142.864a10.643,10.643,0,0,1,10.024-7.1h42.439a10.643,10.643,0,0,1,10.024,7.1Zm-20.619-14.147H163.483v-7.1h21.249Zm42.439-16.158a2.014,2.014,0,0,1-2.013,2.012h-102.1a2.014,2.014,0,0,1-2.013-2.012v-5.091H227.172Zm0,0" fill="#19323f"/>
    <path id="Path_2512" data-name="Path 2512" d="M199.45,278.825a3.522,3.522,0,1,0,0-7.044,10.608,10.608,0,0,0-10.6,10.6,3.556,3.556,0,0,1-3.551,3.551,3.522,3.522,0,0,0,0,7.044,3.556,3.556,0,0,1,3.551,3.551,10.608,10.608,0,0,0,10.6,10.6,3.522,3.522,0,1,0,0-7.044,3.556,3.556,0,0,1-3.551-3.551,10.552,10.552,0,0,0-2.714-7.073,10.552,10.552,0,0,0,2.714-7.073,3.556,3.556,0,0,1,3.551-3.551Zm0,0" transform="translate(-46.561 -46.561)" fill="#19323f"/>
    <path id="Path_2513" data-name="Path 2513" d="M380.2,285.928a3.556,3.556,0,0,1-3.551-3.551,10.608,10.608,0,0,0-10.6-10.6,3.522,3.522,0,1,0,0,7.044,3.556,3.556,0,0,1,3.551,3.551,10.552,10.552,0,0,0,2.714,7.073,10.552,10.552,0,0,0-2.714,7.073,3.556,3.556,0,0,1-3.551,3.551,3.522,3.522,0,1,0,0,7.044,10.608,10.608,0,0,0,10.6-10.6,3.556,3.556,0,0,1,3.551-3.551,3.522,3.522,0,1,0,0-7.044Zm0,0" transform="translate(-170.725 -46.561)" fill="#19323f"/>
    <path id="Path_2514" data-name="Path 2514" d="M253.077,331.969a3.522,3.522,0,1,0,3.522,3.522,3.562,3.562,0,0,0-3.522-3.522Zm0,0" transform="translate(-93.116 -87.907)" fill="#19323f"/>
    <path id="Path_2515" data-name="Path 2515" d="M298.265,331.969a3.522,3.522,0,1,0,3.522,3.522,3.562,3.562,0,0,0-3.522-3.522Zm0,0" transform="translate(-124.157 -87.907)" fill="#19323f"/>
    <path id="Path_2516" data-name="Path 2516" d="M343.453,331.969a3.522,3.522,0,1,0,3.522,3.522,3.562,3.562,0,0,0-3.522-3.522Zm0,0" transform="translate(-155.199 -87.907)" fill="#19323f"/>
  </g>
</svg>
