<?xml version="1.0" encoding="utf-8"?>
<!-- Generator: Adobe Illustrator 26.1.0, SVG Export Plug-In . SVG Version: 6.00 Build 0)  -->
<svg version="1.1" id="svg2816" xmlns:svg="http://www.w3.org/2000/svg"
	 xmlns="http://www.w3.org/2000/svg" xmlns:xlink="http://www.w3.org/1999/xlink" x="0px" y="0px" viewBox="0 0 315 300"
	 style="enable-background:new 0 0 315 300;" xml:space="preserve">
<style type="text/css">
	.st0{fill:#264DE3;}
	.st1{fill:#2A65F0;}
	.st2{fill:#E9E9EA;}
	.st3{fill:#E5E6EA;}
	.st4{fill:#FEFEFE;}
</style>
<g>
	<path class="st0" d="M81.2,79.8c15.5,0,31.1,0,46.6,0c1.7,0,1.7,0,1.6,1.6c-0.9,10.1-1.8,20.2-2.7,30.2c-0.7,8-1.4,15.9-2.1,23.9
		c-0.8,8.9-1.6,17.8-2.4,26.7c-0.4,5-0.9,10-1.3,15c-0.1,0.9-0.3,1.3-1.2,1.6c-12.6,3.4-25.1,6.9-37.7,10.4c-0.6,0.2-1.1,0.2-1.7,0
		c-12.5-3.5-25-7-37.6-10.4c-0.9-0.2-1.2-0.6-1.3-1.5c-1.1-13.1-2.3-26.1-3.5-39.2c-1-11.8-2.1-23.6-3.1-35.4c-0.6-7-1.3-14-1.9-21
		c0-0.4,0-0.8-0.1-1.1c-0.1-0.6,0.1-0.9,0.7-0.8c0.3,0,0.7,0,1,0C50.1,79.8,65.6,79.8,81.2,79.8z M81.1,124.3c-0.5,0-1,0.1-1.5,0.1
		c-8.4,0-16.9,0-25.3,0c-1,0-1.4,0.2-1.3,1.3c0.4,3.2,0.7,6.4,0.9,9.6c0.1,1.2,0.5,1.3,1.5,1.3c6.1,0,12.3,0,18.4,0
		c2.4,0,4.8,0,7.3,0.1c0,6.4,0,12.8,0,19.1c-4.3-1.1-8.6-2.3-13-3.4c-0.5-0.1-0.6-0.5-0.6-0.9c-0.2-2.6-0.5-5.2-0.7-7.7
		c-0.1-1-0.4-1.1-1.3-1.1c-3.3,0-6.5,0.1-9.8,0c-1,0-1.2,0.3-1.1,1.2c0.5,5.4,1,10.9,1.4,16.3c0.1,1.2,0.5,1.6,1.6,1.9
		c7.8,2.1,15.6,4.3,23.4,6.5c0,3.8,0,7.5,0,11.3c0,0.9,0.1,1.2,1.2,0.9c5.1-1.5,10.2-2.8,15.3-4.2c4.9-1.3,9.7-2.7,14.6-4.1
		c0.9-0.2,1.2-0.7,1.2-1.6c0.1-2.2,0.3-4.4,0.5-6.6c0.3-3.5,0.7-6.9,1-10.4c0.2-2.2,0.4-4.5,0.6-6.7c0.3-3.3,0.6-6.7,1-10
		c0.2-2.2,0.3-4.5,0.5-6.7c0.3-3.5,0.6-7,1-10.5c0.2-2.1,0.4-4.2,0.5-6.3c0.3-3.4,0.6-6.8,1-10.2c0.2-2.2,0.4-4.5,0.6-6.7
		c0.2-2.5,0.4-5,0.7-7.6c0.1-1-0.3-1.2-1.2-1.2c-12.4,0-24.7,0-37.1,0c-0.9,0-1.2,0.3-1.2,1.2c0.1,3.6,0,7.2,0,10.8
		c-0.5,0-1,0.1-1.5,0.1c-9.2,0-18.5,0-27.7,0c-0.8,0-1.1,0.1-1,1.1c0.4,3.3,0.6,6.6,0.9,9.9c0.1,0.9,0.3,1.2,1.3,1.2
		c4.2-0.1,8.5,0,12.7,0c5.1,0,10.3,0,15.4,0.1C81.1,116.2,81.1,120.2,81.1,124.3z"/>
	<path d="M274.6,161.5c-6.9,0-13.7,0-20.6,0c-0.9,0-1.1-0.2-1.1-1.1c0-4.8,0-9.6,0-14.4c0-0.9,0.2-1.1,1.1-1.1
		c7.6,0,15.2,0,22.9,0.1c1.2,0,1.5-0.4,1.4-1.5c0-0.2,0-0.5,0-0.8c0.1-0.9-0.3-1-1.1-1c-2.6,0-5.1,0-7.7,0c-5.2,0-10.3,0-15.5,0
		c-0.9,0-1.1-0.2-1.1-1.1c0-11.1,0-22.3,0-33.4c0-0.9,0.3-1.1,1.1-1.1c13.7,0,27.5,0,41.2,0c0.9,0,1.2,0.1,1.2,1.1
		c-0.1,4.5-0.1,9,0,13.6c0,1-0.2,1.2-1.2,1.2c-7.6,0-15.2,0-22.9-0.1c-1.5,0-1.3,0.8-1.3,1.7c-0.1,1,0,1.5,1.3,1.5
		c7.6-0.1,15.2,0,22.7-0.1c0.9,0,1.3,0.2,1.3,1.2c0,11.3,0,22.7,0,34c0,1-0.3,1.1-1.2,1.1C288.4,161.4,281.5,161.5,274.6,161.5z"/>
	<path d="M222.4,161.5c-6.8,0-13.7,0-20.5,0c-0.9,0-1.1-0.2-1.1-1.1c0-4.8,0-9.6,0-14.4c0-0.9,0.2-1.1,1.1-1.1c7.7,0,15.3,0,23,0
		c1,0,1.3-0.3,1.2-1.2c0-0.3,0-0.6,0-0.9c0.1-0.9-0.3-1.1-1.1-1.1c-7.6,0-15.2,0-22.9,0c-1.1,0-1.3-0.3-1.3-1.3c0-11,0-22,0-33
		c0-1,0.2-1.2,1.2-1.2c13.7,0,27.4,0,41.1,0c0.9,0,1.2,0.2,1.2,1.1c-0.1,4.5-0.1,9,0,13.6c0,1-0.3,1.1-1.2,1.1c-7.6,0-15.2,0-22.7,0
		c-1.1,0-1.6,0.2-1.3,1.3c0,0.2,0,0.5,0,0.8c-0.1,0.9,0.2,1.1,1.1,1.1c6.9,0,13.8,0,20.7,0c1.1,0,2.5-0.5,3.3,0.2
		c0.6,0.7,0.2,2.1,0.2,3.2c0,10.6,0,21.2,0,31.8c0,0.9-0.2,1.2-1.1,1.2C236.2,161.4,229.3,161.5,222.4,161.5z"/>
	<path d="M148.7,133.4c0-8.6,0-17.2,0-25.8c0-1,0.1-1.3,1.3-1.3c13.7,0,27.4,0,41.1,0c0.9,0,1.2,0.1,1.2,1.1
		c-0.1,5.3-0.1,10.5,0,15.8c0,0.9-0.2,1.2-1.2,1.2c-7.6,0-15.2,0-22.9,0c-1,0-1.3,0.2-1.3,1.2c0.1,5.2,0.1,10.5,0,15.7
		c0,1,0.2,1.3,1.3,1.3c7.6,0,15.2,0,22.9,0c0.9,0,1.2,0.2,1.2,1.1c-0.1,5.3,0,10.6,0,15.9c0,0.9-0.2,1.1-1.1,1.1
		c-13.8,0-27.5,0-41.3,0c-0.9,0-1.1-0.3-1.1-1.1C148.7,150.9,148.7,142.1,148.7,133.4z"/>
	<path class="st1" d="M81.1,99.9c0-3.6,0-7.2,0-10.8c0-0.9,0.3-1.2,1.2-1.2c12.4,0,24.7,0,37.1,0c0.9,0,1.3,0.2,1.2,1.2
		c-0.3,2.5-0.5,5-0.7,7.6c-0.2,2.2-0.4,4.5-0.6,6.7c-0.3,3.4-0.6,6.8-1,10.2c-0.2,2.1-0.4,4.2-0.5,6.3c-0.3,3.5-0.7,7-1,10.5
		c-0.2,2.2-0.3,4.5-0.5,6.7c-0.3,3.3-0.6,6.7-1,10c-0.2,2.2-0.4,4.5-0.6,6.7c-0.3,3.5-0.7,6.9-1,10.4c-0.2,2.2-0.4,4.4-0.5,6.6
		c0,0.9-0.3,1.3-1.2,1.6c-4.9,1.3-9.7,2.7-14.6,4.1c-5.1,1.4-10.2,2.8-15.3,4.2c-1.1,0.3-1.2,0-1.2-0.9c0-3.8,0-7.5,0-11.3
		c0.1-0.1,0.2-0.1,0.3-0.2c8-2.2,15.9-4.4,23.9-6.6c0.5-0.1,0.6-0.5,0.6-0.9c0.9-10,1.8-20.1,2.7-30.1c0.9-9.9,1.7-19.9,2.7-29.8
		c0.1-0.8-0.1-1-0.9-1c-3.6,0-7.3,0-10.9,0c-6.2,0-12.3,0-18.5,0L81.1,99.9z"/>
	<path class="st2" d="M81.4,168.3c-0.1,0.1-0.2,0.1-0.3,0.2c-7.8-2.2-15.6-4.4-23.4-6.5c-1.1-0.3-1.5-0.7-1.6-1.9
		c-0.4-5.5-0.9-10.9-1.4-16.3c-0.1-0.9,0.1-1.2,1.1-1.2c3.3,0.1,6.5,0.1,9.8,0c0.9,0,1.2,0.1,1.3,1.1c0.1,2.6,0.5,5.2,0.7,7.7
		c0,0.4,0.1,0.8,0.6,0.9c4.3,1.1,8.6,2.2,13,3.4c0,0.1,0,0.1,0,0.2c0,3.7,0,7.3,0,11C81.1,167.4,80.9,167.9,81.4,168.3z"/>
	<path class="st2" d="M81.1,112.1c-5.1,0-10.3,0-15.4-0.1c-4.2,0-8.5,0-12.7,0c-0.9,0-1.2-0.3-1.3-1.2c-0.2-3.3-0.5-6.6-0.9-9.9
		c-0.1-1,0.2-1.1,1-1.1c9.2,0,18.5,0,27.7,0c0.5,0,1,0,1.5-0.1c0,0,0,0.1,0,0.1c0,4,0,8,0,12L81.1,112.1z"/>
	<path class="st3" d="M81.1,136.6c-2.4,0-4.8-0.1-7.3-0.1c-6.1,0-12.3,0-18.4,0c-1,0-1.4-0.1-1.5-1.3c-0.2-3.2-0.5-6.4-0.9-9.6
		c-0.1-1.1,0.2-1.3,1.3-1.3c8.4,0,16.9,0,25.3,0c0.5,0,1,0,1.5-0.1c0,0.1,0,0.1,0,0.2c0,4,0,8,0,12
		C81.1,136.5,81.1,136.6,81.1,136.6z"/>
	<path class="st1" d="M81.1,155.9c0-0.1,0-0.1,0-0.2c0-6.4,0-12.8,0-19.1c0,0,0-0.1,0-0.1c4.6,0,9.1,0.1,13.7,0c1,0,1.3,0.3,1.2,1.3
		c-0.4,4.3-0.9,8.6-1.2,13c-0.1,1.2-0.5,1.6-1.6,1.9C89.1,153.7,85.1,154.8,81.1,155.9z"/>
	<path class="st1" d="M81.1,124.3c0-4.1,0-8.2,0-12.2c0,0,0-0.1,0-0.1c0.5,0,0.9,0,1.4,0c4.9,0,9.8,0,14.7,0c0.8,0,1,0.2,1,1.1
		c-0.4,3.4-0.7,6.8-0.9,10.2c-0.1,0.9-0.3,1.1-1.2,1.1c-3.1,0-6.3,0-9.4,0c-1.8,0-3.7-0.1-5.5,0.1C81.1,124.4,81.1,124.4,81.1,124.3
		z"/>
	<path class="st4" d="M81.1,124.5c1.8-0.2,3.7-0.1,5.5-0.1c3.1,0,6.3,0,9.4,0c0.9,0,1.1-0.3,1.2-1.1c0.3-3.4,0.6-6.8,0.9-10.2
		c0.1-0.8-0.1-1.1-1-1.1c-4.9,0-9.8,0-14.7,0c-0.5,0-0.9,0-1.4,0c0-4,0-8,0-12c6.2,0,12.3,0,18.5,0c3.6,0,7.3,0,10.9,0
		c0.8,0,1,0.1,0.9,1c-0.9,9.9-1.8,19.9-2.7,29.8c-0.9,10-1.8,20.1-2.7,30.1c0,0.4-0.1,0.8-0.6,0.9c-8,2.2-16,4.4-23.9,6.6
		c-0.5-0.4-0.3-0.9-0.3-1.4c0-3.7,0-7.3,0-11c4-1.1,8-2.2,12.1-3.3c1.1-0.3,1.5-0.7,1.6-1.9c0.3-4.3,0.7-8.7,1.2-13
		c0.1-1-0.2-1.3-1.2-1.3c-4.6,0-9.1,0-13.7,0C81.1,132.5,81.1,128.5,81.1,124.5z"/>
</g>
</svg>
