<?xml version="1.0" encoding="utf-8"?>
<!-- Generator: Adobe Illustrator 26.1.0, SVG Export Plug-In . SVG Version: 6.00 Build 0)  -->
<svg version="1.1" id="svg2816" xmlns:svg="http://www.w3.org/2000/svg"
	 xmlns="http://www.w3.org/2000/svg" xmlns:xlink="http://www.w3.org/1999/xlink" x="0px" y="0px" viewBox="0 0 315 300"
	 style="enable-background:new 0 0 315 300;" xml:space="preserve">
<style type="text/css">
	.st0{fill:#00D8FF;}
</style>
<g>
	<g>
		
			<ellipse transform="matrix(0.1602 -0.9871 0.9871 0.1602 -15.5591 281.2481)" class="st0" cx="157.5" cy="149.8" rx="25.4" ry="25.4"/>
	</g>
	<g>
		<path class="st0" d="M157.5,208c-17.2,0-33.5-1-48.6-3c-15.8-2.1-29.9-5.2-41.8-9.2c-15.2-5.2-28-12.1-37.2-19.9
			c-9.7-8.3-14.9-17.4-14.9-26.2c0-8.5,4.9-17.2,14.1-25.1c8.6-7.3,20.8-13.9,35.3-18.9c12.4-4.3,26.8-7.7,42.7-10.1
			c16.1-2.4,33-3.6,50.3-3.6c33.9,0,66.5,4.8,91.7,13.5c14.7,5.1,27.2,11.6,36,19c9.6,8,14.6,16.8,14.6,25.3c0,8.9-5.3,18-15.5,26.4
			c-9.4,7.8-22.7,14.6-38.4,19.8c-11.9,3.9-25.7,7-41,9.1C190,207,174,208,157.5,208z M157.5,104.1c-32.8,0-65.2,4.8-89,13
			c-13.1,4.6-23.9,10.3-31.4,16.7c-6.4,5.5-9.9,11.1-9.9,15.9c0,5,3.8,11.1,10.6,16.9c8,6.9,19.5,13,33.2,17.6
			c22.1,7.6,52,11.6,86.4,11.6c32.2,0,62.3-4.1,84.7-11.5c14.3-4.7,26.2-10.8,34.5-17.6c7.1-5.9,11-11.9,11-17
			c0-4.8-3.6-10.5-10.3-16c-7.7-6.4-18.8-12.2-32.1-16.8C221.3,108.7,190.1,104.1,157.5,104.1z"/>
	</g>
	<g>
		<path class="st0" d="M99.7,276.6c-5.2,0-9.7-1.1-13.6-3.3c-7.4-4.3-12.5-12.8-14.7-24.8c-2.1-11.1-1.7-24.9,1.2-40
			c2.5-13,6.7-27.1,12.6-42c6-15.2,13.4-30.4,22-45.4h0c17-29.4,37.4-55.2,57.5-72.8c11.8-10.2,23.7-17.7,34.4-21.7
			c11.7-4.3,21.8-4.3,29.3,0c7.7,4.5,13,13.6,15.1,26.6c2,12,1.3,27-2,43.2c-2.5,12.3-6.8,25.8-12.6,40c-5.7,14-12.8,28.3-21.1,42.7
			c-8.6,14.9-17.6,28.6-26.8,40.6c-9.7,12.7-19.4,23.3-28.9,31.6c-12.1,10.6-24.5,18.3-35.8,22.3
			C110.3,275.5,104.7,276.6,99.7,276.6z M215.4,35.5c-3.5,0-7.5,0.8-12.1,2.5c-9.4,3.4-20,10.2-30.6,19.4
			c-19.1,16.6-38.7,41.4-54.9,69.7l0,0c-16.4,28.4-28.5,58.9-33.2,83.6c-2.6,13.6-3,25.9-1.2,35.5c1.5,8.2,4.7,14.1,8.8,16.5
			c4.4,2.5,11.5,2.3,20-0.8c9.9-3.5,21-10.4,31.9-20c17.6-15.4,36-39.3,53.2-69.1c16.1-27.9,27.6-56,32.3-79.1
			c3-14.8,3.7-28.1,1.9-38.7c-1.5-9.1-4.8-15.5-9.2-18C220.5,36,218.2,35.5,215.4,35.5z"/>
	</g>
	<g>
		<path class="st0" d="M215.3,276.7c-4.7,0-10-1-15.5-2.9c-10.6-3.7-22.4-11-34.1-21c-10-8.6-20.1-19.3-30.1-31.9
			c-10.2-12.7-19.7-26.8-28.3-41.7l0,0c-17-29.4-29.2-60-34.3-86.1c-3-15.3-3.5-29.4-1.6-40.7C73.5,40,78.5,31.2,86,26.9
			c7.7-4.5,18.3-4.4,30.6,0.2c11.4,4.3,24,12.3,36.4,23.3c9.4,8.3,18.9,18.7,28.4,31c9.3,11.9,18.1,25.3,26.4,39.6
			c8.6,14.9,15.9,29.5,21.8,43.5c6.1,14.7,10.5,28.4,12.9,40.8c3.1,15.7,3.6,30.3,1.4,42.2c-2.3,12.6-7.6,21.6-15.2,26
			C224.8,275.6,220.3,276.7,215.3,276.7z M117.8,173c16.4,28.4,36.8,54,55.9,70.5c10.5,9,20.9,15.5,30.2,18.8
			c7.9,2.8,14.6,3,18.7,0.6c4.4-2.5,7.7-8.8,9.3-17.7c1.9-10.4,1.4-23.4-1.4-37.6c-4.5-22.9-16-50.8-33.3-80.5
			c-16.2-27.9-34.7-51.9-52.4-67.5c-11.3-10-22.5-17.3-32.6-21c-8.6-3.2-15.8-3.6-20.2-1c-4.1,2.4-7.2,8.4-8.7,16.9
			c-1.7,9.8-1.2,22.4,1.6,36.3C89.8,115.5,101.5,144.8,117.8,173L117.8,173z"/>
	</g>
</g>
</svg>
