<?xml version="1.0" encoding="utf-8"?>
<!-- Generator: Adobe Illustrator 26.1.0, SVG Export Plug-In . SVG Version: 6.00 Build 0)  -->
<svg version="1.1" id="svg2816" xmlns:svg="http://www.w3.org/2000/svg"
	 xmlns="http://www.w3.org/2000/svg" xmlns:xlink="http://www.w3.org/1999/xlink" x="0px" y="0px" viewBox="0 0 315 300"
	 style="enable-background:new 0 0 315 300;" xml:space="preserve">
<style type="text/css">
	.st0{fill:#01BC82;}
	.st1{fill:#3F5568;}
	.st2{fill:#2C4255;}
	.st3{fill:#283F52;}
</style>
<g>
	<path class="st0" d="M108.5,86.9c8.4,0,16.8,0,25.9,0c-21.4,37-42.6,73.6-64.1,110.8C48.9,160.7,27.7,124,6.2,86.9
		c8.9,0,17.3,0,25.7,0c0.1,0.2,0.2,0.4,0.3,0.6c12.2,21.1,24.4,42.2,36.5,63.4c1.1,1.9,1.7,2.3,3,0.1c5.4-9.5,11-19,16.5-28.5
		c6.7-11.6,13.3-23.3,19.9-35C108.3,87.3,108.4,87.1,108.5,86.9z"/>
	<path class="st1" d="M108.2,87.5c-6.6,11.7-13.3,23.3-19.9,35c-5.5,9.5-11,19-16.5,28.5c-1.3,2.2-1.9,1.9-3-0.1
		c-12.1-21.1-24.3-42.3-36.5-63.4c0.5,0,0.9-0.1,1.1-0.6c7.2-0.3,14.4-0.3,21.6,0c0.2,0.2,0.5,0.4,0.7,0.6
		c4.8,8.1,9.6,16.1,14.3,24.2c1.2-0.1,1.3-1.1,1.7-1.8C75.8,103,79.9,96,83.9,89c0.7-1.2,1.1-2.4,2.9-2.3c6.9,0.1,13.9,0.2,20.8,0.2
		C107.8,87.1,108,87.3,108.2,87.5z"/>
	<path class="st2" d="M161.1,151.4c3.9-13.4,7.9-26.8,11.8-40.2c0.6-2.1,1.2-4,4.1-2.8c1.5,0.6,2.2,1.5,1.7,3.4
		c-4.8,15.4-9.5,30.8-14.2,46.2c-0.6,2.1-2.2,2.8-4.1,2.7c-1.9,0-3.1-1-3.6-2.9c-4.7-15.3-9.4-30.6-14.2-45.8
		c-0.6-1.8-0.2-3,1.8-3.6c2-0.6,3.1-0.1,3.7,2c3.7,12.7,7.5,25.3,11.3,38c0.3,1,0.6,2.1,1,3.1C160.7,151.4,160.9,151.4,161.1,151.4z
		"/>
	<path class="st2" d="M232.8,144.8c-2.1,0-4.3,0.2-6.4,0c-2.6-0.3-3.3,0.6-3.1,3.2c0.7,6.5,8.2,10.2,15.1,7.3
		c0.8-0.3,1.6-0.8,2.4-1.3c1.2-0.7,2.3-0.9,3.2,0.4c1,1.4,0.4,2.5-0.8,3.5c-1.9,1.5-4.1,2.2-6.5,2.6c-11.7,2-19.3-4.3-19.3-16.1
		c0-2.8-0.3-5.6,0.6-8.4c2-6.6,8.8-10.9,15.7-9.8c7.2,1.2,11.9,6.6,11.6,13.4c-0.1,3.7-1.5,5.1-5.1,5.2
		C237.7,144.9,235.2,144.9,232.8,144.8C232.8,144.9,232.8,144.9,232.8,144.8z M231,141.3C231,141.3,231,141.3,231,141.3
		c2.1,0,4.2,0,6.4-0.1c2.2,0,2.9-1.2,2.7-3.3c-0.5-4.1-3.9-7.3-8.2-7.4c-4.4-0.1-7.9,2.6-8.6,6.8c-0.7,3.6-0.4,4,3.4,4
		C228.1,141.3,229.6,141.3,231,141.3z"/>
	<path class="st2" d="M210.2,138.7c0,2.8,0.1,5.6,0,8.4c-0.2,7.5-6.3,13.6-13.8,13.8c-7.5,0.1-13.9-5.8-14.2-13.4
		c-0.2-5.9,0-11.9-0.1-17.8c0-1.9,0.7-3.1,2.7-3.1c2,0,3,1,3,3.1c0,5.6,0,11.2,0,16.8c0,5.3,3.5,9.1,8.2,9.2
		c4.8,0.1,8.5-3.9,8.6-9.3c0.1-5.5,0.1-11,0-16.5c0-2.2,0.6-3.5,3-3.5c2.3,0,2.7,1.5,2.6,3.4C210.1,132.9,210.2,135.8,210.2,138.7z"
		/>
	<path class="st2" d="M288.9,160.9c-3.2-0.3-6.7-0.6-9.6-2.8c-1.3-1-2.3-2.3-1.2-4c1.3-2,2.5-0.6,3.7,0.2c2.6,1.8,5.5,2.3,8.6,2
		c2.7-0.2,5.1-1,5.6-3.9c0.5-3-1.3-4.8-4-5.9c-2.1-0.8-4.2-1.4-6.4-2.2c-5.6-1.9-7.4-4.5-7.1-9.5c0.4-4.5,3.4-7.5,8.6-8.5
		c3.8-0.7,7.4-0.2,10.8,1.4c1.4,0.6,2.6,1.4,1.7,3.3c-0.8,1.8-2,1.8-3.6,1c-2.4-1.2-4.9-1.7-7.5-1.3c-2.7,0.4-4.7,1.7-5.1,4.5
		c-0.4,2.8,1.5,4,3.8,4.8c1.7,0.6,3.4,1,5.1,1.6c6.4,2,9.5,6,8.8,11C300.5,157.8,295.8,161,288.9,160.9z"/>
	<path class="st3" d="M270.7,147.7c0,5.9,0.1,11.9,0,17.8c-0.2,6.3-3,10.1-7.8,11.1c-1.8,0.4-3.8,0.7-4.5-1.6c-0.7-2.4,1-3,3.1-3.2
		c1.6-0.2,2.5-1.3,3-2.8c0.6-1.7,0.7-3.5,0.7-5.3c0-11.1,0-22.2,0-33.2c0-2.1,0.1-3.9,2.9-3.9c2.8,0.1,2.8,2,2.7,4
		C270.7,136.2,270.8,142,270.7,147.7C270.8,147.7,270.7,147.7,270.7,147.7z"/>
	<path class="st2" d="M258,157.1c-0.3,2.3-1.6,3.6-3.8,3.5c-2-0.1-3.3-1.4-3.3-3.5c0-2.3,1.4-3.6,3.5-3.6
		C256.7,153.6,257.8,155,258,157.1z"/>
	<path class="st2" d="M268,116.7c-2.1-0.1-3.5-1-3.4-3.2c0-2.2,1.5-3.1,3.5-3.1c1.9,0,3.2,1.1,3.3,3
		C271.4,115.6,270,116.6,268,116.7z"/>
	<path class="st2" d="M33.4,86.9c-0.2,0.5-0.7,0.6-1.1,0.6c-0.1-0.2-0.2-0.4-0.3-0.6C32.4,86.9,32.9,86.9,33.4,86.9z"/>
	<path class="st2" d="M55.7,87.6c-0.2-0.2-0.5-0.4-0.7-0.6C55.5,86.9,55.7,87.2,55.7,87.6z"/>
	<path class="st2" d="M108.2,87.5c-0.2-0.2-0.4-0.4-0.6-0.6c0.3,0,0.6,0,0.9,0C108.4,87.1,108.3,87.3,108.2,87.5z"/>
</g>
</svg>
