<svg xmlns="http://www.w3.org/2000/svg" width="83.835" height="50.067" viewBox="0 0 83.835 50.067">
  <g id="AWS" transform="translate(-45.916 -92.387)">
    <path id="Path_1944" data-name="Path 1944" d="M218.373,116.476c1.434-6.075,2.852-12.085,4.27-18.1.064-.274.145-.532.226-.79a1.1,1.1,0,0,1,1.031-.806,21.3,21.3,0,0,1,3.207,0,1.078,1.078,0,0,1,.983.854c.274.838.435,1.708.628,2.562q1.934,8.145,3.851,16.307a.229.229,0,0,0,.032.1c.161-.048.129-.209.145-.306q2.345-8.991,4.657-18c.338-1.305.645-1.547,1.982-1.547h2.159c.709,0,.918.226.838.935a10.75,10.75,0,0,1-.532,1.869q-3.19,10.272-6.413,20.545c-.387,1.209-.661,1.4-1.934,1.4-.773,0-1.547,0-2.32-.016a1.225,1.225,0,0,1-1.386-1.128c-.209-.822-.4-1.644-.6-2.465-1.241-5.124-2.465-10.264-3.706-15.388-.016-.081-.016-.161-.113-.209-.58,2.449-1.16,4.882-1.756,7.315-.838,3.48-1.66,6.977-2.514,10.458-.29,1.209-.58,1.418-1.8,1.418h-2.288a1.3,1.3,0,0,1-1.482-1.047c-.387-1.144-.725-2.3-1.08-3.464q-2.828-9.257-5.624-18.514a5.645,5.645,0,0,1-.209-.9.62.62,0,0,1,.661-.79c1.047,0,2.095-.032,3.142.016a1.1,1.1,0,0,1,1.015.709,18.893,18.893,0,0,1,.79,2.788q2.03,7.976,4.044,15.936C218.292,116.283,218.324,116.331,218.373,116.476Z" transform="translate(-136.478 -3.639)" fill="#27303f"/>
    <path id="Path_1945" data-name="Path 1945" d="M88.195,313.616a63.121,63.121,0,0,1-21.721-3.674A60.482,60.482,0,0,1,48.8,299.968c-.838-.677-1.644-1.37-2.449-2.079l-.1-.1a.757.757,0,1,1,.886-1.225c.935.5,1.869,1.047,2.8,1.547a81.514,81.514,0,0,0,17.789,6.832,85.515,85.515,0,0,0,9.426,1.869,81.87,81.87,0,0,0,13.326.79,78.163,78.163,0,0,0,8.895-.725,83.207,83.207,0,0,0,19.11-4.963c.628-.242,1.273-.516,1.9-.773a1.655,1.655,0,0,1,.967-.129,1.2,1.2,0,0,1,.951.79A1.111,1.111,0,0,1,122,303a6.421,6.421,0,0,1-1.241.935,51.865,51.865,0,0,1-13.584,6.558A64.479,64.479,0,0,1,95.4,313.133,57.377,57.377,0,0,1,88.195,313.616Z" transform="translate(0 -171.163)" fill="#f89a1e"/>
    <path id="Path_1946" data-name="Path 1946" d="M83.123,114.94A13.681,13.681,0,0,1,81.5,116.52a10.32,10.32,0,0,1-7.187,2.24,7.694,7.694,0,0,1-3.851-1.112,6.626,6.626,0,0,1-3.078-4.786,8.036,8.036,0,0,1,.564-4.721,7.668,7.668,0,0,1,4.866-4.093,13.141,13.141,0,0,1,5.011-.5,29.558,29.558,0,0,1,4.737.741c.1.016.274.145.274-.113a21.59,21.59,0,0,0-.177-3.819c-.419-2.336-1.6-3.3-3.964-3.642a15.354,15.354,0,0,0-7.783,1.208,7.411,7.411,0,0,1-1.192.4c-.435.081-.709-.048-.757-.5a8.554,8.554,0,0,1,.032-2.4c.064-.387.4-.58.725-.773a14.249,14.249,0,0,1,2.917-1.144,17.621,17.621,0,0,1,8.443-.419A7.119,7.119,0,0,1,86.1,96.346a9.616,9.616,0,0,1,1.225,4.044c.081.854.064,1.692.064,2.546,0,2.53-.016,5.076.016,7.606a11.218,11.218,0,0,0,.226,2.32,10.278,10.278,0,0,0,1,2.465,1.042,1.042,0,0,1-.387,1.6c-.532.371-1.08.725-1.627,1.08a1.165,1.165,0,0,1-1.724-.226,9.352,9.352,0,0,1-1.386-2.079C83.364,115.424,83.252,115.2,83.123,114.94Zm-.258-6.365c0-.209-.016-.532,0-.854.016-.193-.048-.29-.258-.338a22.642,22.642,0,0,0-4.286-.564,9.963,9.963,0,0,0-3.013.258,3.83,3.83,0,0,0-3,2.755,5.727,5.727,0,0,0-.1,2.159,3.24,3.24,0,0,0,2.626,2.949,7.289,7.289,0,0,0,6.091-1.45,4.516,4.516,0,0,0,1.676-2.578A10.477,10.477,0,0,0,82.865,108.576Z" transform="translate(-17.905 -0.315)" fill="#27303f"/>
    <path id="Path_1947" data-name="Path 1947" d="M438.906,118.558a18.622,18.622,0,0,1-6.7-1.273,5.86,5.86,0,0,1-1-.516,1.552,1.552,0,0,1-.741-1.354c0-.5-.016-1,0-1.482.016-.693.387-.967,1.047-.757.467.145.9.354,1.354.532a15.557,15.557,0,0,0,7.17,1.015,6.1,6.1,0,0,0,2.53-.725,3.076,3.076,0,0,0,1.547-3.593,2.819,2.819,0,0,0-1.466-1.74,16.634,16.634,0,0,0-3.013-1.16c-1.466-.467-2.981-.838-4.415-1.45a7,7,0,0,1-4.206-4.576,6.541,6.541,0,0,1,2.32-7.025,10.261,10.261,0,0,1,6.349-2.063,17.113,17.113,0,0,1,5.833.967c.193.064.387.161.58.242a2.014,2.014,0,0,1,1.386,2.191c-.048.387.032.773-.032,1.16-.1.532-.371.709-.9.58-.645-.177-1.241-.516-1.869-.709a12.931,12.931,0,0,0-6.784-.371,5.053,5.053,0,0,0-.9.322,2.858,2.858,0,0,0-.419,4.882,12.456,12.456,0,0,0,3.223,1.4c1.6.532,3.239.935,4.786,1.6a6.622,6.622,0,0,1,3.722,3.384,7.073,7.073,0,0,1-2.175,8.379,10.532,10.532,0,0,1-4.608,1.934A12.879,12.879,0,0,1,438.906,118.558Z" transform="translate(-322.577 0)" fill="#27303f"/>
    <path id="Path_1948" data-name="Path 1948" d="M478.429,286a17.587,17.587,0,0,1,4.463.516c1.305.371,1.611.725,1.611,2.095a18.125,18.125,0,0,1-1.579,6.945,14.855,14.855,0,0,1-3.738,5.43,2,2,0,0,1-.741.467c-.435.113-.741-.161-.628-.6a5.242,5.242,0,0,1,.242-.709,46.212,46.212,0,0,0,2.256-6.655,6.969,6.969,0,0,0,.242-2.643,1.326,1.326,0,0,0-.838-1.1,6.718,6.718,0,0,0-2.385-.435,38.172,38.172,0,0,0-5.914.29c-.628.064-1.241.145-1.869.21a.612.612,0,0,1-.677-.242.621.621,0,0,1,.161-.725,5.167,5.167,0,0,1,1.386-.951,15.846,15.846,0,0,1,6.155-1.772C477.253,286.048,477.946,286.032,478.429,286Z" transform="translate(-354.752 -162.415)" fill="#f89a1e"/>
  </g>
</svg>
