<svg id="C_" data-name="C#" xmlns="http://www.w3.org/2000/svg" width="54.518" height="61.655" viewBox="0 0 54.518 61.655">
  <path id="Path_1393" data-name="Path 1393" d="M209.5,141.3c.076,0,.113.038.189.038h0A.284.284,0,0,0,209.5,141.3Z" transform="translate(-162.548 -113.757)" fill="#9b5197"/>
  <path id="Path_1394" data-name="Path 1394" d="M140.992,182.3a29.962,29.962,0,0,1-4.464,2.724c-6.167,3.594-12.334,7.113-18.5,10.707a5.164,5.164,0,0,1-5.637-.038c-7.226-4.237-14.528-8.4-21.792-12.6a3.7,3.7,0,0,1-1.1-.795c1.967-1.4,4.086-2.5,6.129-3.746,1.74-1.059,3.519-2.043,5.259-3.065.038-.038.076-.038.113-.076l.038-.038.076-.076h0a.861.861,0,0,1,.3.34,17.9,17.9,0,0,0,10.669,7.34,20.611,20.611,0,0,0,5.9.227,15.01,15.01,0,0,0,7.264-2.459,17.053,17.053,0,0,0,5.108-4.767,9.887,9.887,0,0,1,2.043,1.173c1.778,1.022,3.556,2.081,5.3,3.14A25.376,25.376,0,0,1,140.992,182.3Z" transform="translate(-87.949 -134.893)" fill="#682d7a"/>
  <path id="Path_1395" data-name="Path 1395" d="M145.929,112.785c-1.4.832-2.762,1.665-4.124,2.5-.794.454-1.551.908-2.346,1.362-.341.189-.492,0-.681-.265a10.364,10.364,0,0,0-4.54-4.01,8.961,8.961,0,0,0-9.837,1.892,9.373,9.373,0,0,0-2.838,5.978,9.223,9.223,0,0,0,16.268,6.583,1.483,1.483,0,0,1,.908.227c1.967,1.211,3.935,2.421,5.94,3.632.151.113.378.151.378.416a17.511,17.511,0,0,1-5.108,4.767,14.755,14.755,0,0,1-7.264,2.459,20.561,20.561,0,0,1-5.9-.227,18.175,18.175,0,0,1-10.669-7.34.861.861,0,0,0-.3-.34,1.645,1.645,0,0,1-.151-.265,12290.183,12290.183,0,0,0-.3-.53h0a1.845,1.845,0,0,1-.114-.265c-.189-.34-.34-.719-.492-1.059-.038-.113-.076-.189-.113-.3-.265-.605-.492-1.173-.719-1.778a15.184,15.184,0,0,1-.681-7.794,17.608,17.608,0,0,1,12.334-14.49c5.826-1.7,11.085-.53,15.966,2.951a18.333,18.333,0,0,1,4.654,5.145C146.383,112.483,146.194,112.6,145.929,112.785Z" transform="translate(-102.571 -90.047)" fill="#fff"/>
  <path id="Path_1396" data-name="Path 1396" d="M154.828,158.139a9.121,9.121,0,0,1-7.983,3.254,8.968,8.968,0,0,1-6.545-3.859,19.639,19.639,0,0,1,3.064-1.892c1.022-.643,2.119-1.249,3.178-1.892a1.022,1.022,0,0,1,1.249,0c1.4.908,2.875,1.74,4.275,2.611C152.974,156.966,153.958,157.458,154.828,158.139Z" transform="translate(-119.529 -121.364)" fill="#682d7a"/>
  <path id="Path_1397" data-name="Path 1397" d="M198.645,146.945c-.189-.3-.719-.076-1.1-.114-.265,0-.378-.076-.34-.34.038-.643.038-1.249.038-1.892h0a2.948,2.948,0,0,1,1.4-.113,5.3,5.3,0,0,0,0-1.892l-.038.038-.038-.038c-.681.038-1.022.038-1.173-.114l-.038-.038c-.151-.189-.151-.53-.151-1.249h0c-.076,0-.114-.038-.189-.038s-.113-.038-.189-.038a3.616,3.616,0,0,0-1.551.076c.038,1.4.038,1.4-1.362,1.4h-.341c-.53.114-.719-.151-.643-.681a5.043,5.043,0,0,0,0-.757,7.311,7.311,0,0,0-1.286-.038c-.492-.076-.605.151-.605.605.038.946,0,.946-.984.984-.189,0-.568-.114-.568.151,0,.53-.227,1.135.151,1.627,1.4-.038,1.4-.038,1.4,1.324v.341c.076.567-.114.794-.681.643-.265.113-.719-.114-.795.227a3.081,3.081,0,0,0,.038,1.551c.114.341.605.114.908.151.265.038.53-.038.53.378.076,1.135.113,1.1,1.248,1.1h.605a.284.284,0,0,1,.038-.189c.076-.416-.227-1.1.189-1.211a4.456,4.456,0,0,1,2.119,0c.038,0,.038.114.038.189,0,.189.038.378.038.53-.076.568.113.719.681.719,1.1-.038,1.1,0,1.211-1.249-.038-.341.227-.265.416-.265.265,0,.53.038.832.038.076-.038.189-.038.265-.076v-.53C198.72,147.739,198.834,147.247,198.645,146.945Zm-3.708-.114h-.189c-1.93.038-1.93.038-1.778-1.93.038-.34.113-.454.454-.378h.454a5.584,5.584,0,0,1,.795.038h.341a.139.139,0,0,1,.113-.038h.076v.038l.038.038c0,.643.038,1.286.038,1.892C195.315,146.756,195.2,146.831,194.937,146.831Z" transform="translate(-150.066 -113.613)" fill="#fff"/>
  <path id="Path_1398" data-name="Path 1398" d="M137.459,82.044c-1.1-.568-2.157-1.249-3.254-1.892q-9.364-5.391-18.69-10.82a5.092,5.092,0,0,0-5.637.038q-10.783,6.3-21.6,12.485A5.244,5.244,0,0,0,85.4,86.811c.038,8.361.038,16.685,0,25.046a5.556,5.556,0,0,0,1.513,4.086c1.967-1.4,4.086-2.5,6.129-3.746,1.74-1.059,3.519-2.043,5.259-3.065.038-.038.076-.038.114-.076l.038-.038.076-.076a1.645,1.645,0,0,1-.151-.265,7562.79,7562.79,0,0,0-.3-.53h0a1.845,1.845,0,0,1-.114-.265c-.189-.34-.341-.719-.492-1.059-.038-.114-.076-.189-.114-.3-.265-.605-.492-1.173-.719-1.778a15.184,15.184,0,0,1-.681-7.794,17.608,17.608,0,0,1,12.334-14.49c5.826-1.7,11.085-.53,15.966,2.951a18.334,18.334,0,0,1,4.654,5.145c.227.378.076.492-.227.681-1.4.832-2.762,1.665-4.124,2.5-.795.454-1.551.908-2.346,1.362-.341.189-.492,0-.681-.265a10.364,10.364,0,0,0-4.54-4.01,8.961,8.961,0,0,0-9.837,1.892,9.374,9.374,0,0,0-2.838,5.978,9.184,9.184,0,0,0,1.74,5.978,19.64,19.64,0,0,1,3.065-1.892c1.022-.643,2.119-1.249,3.178-1.892a1.022,1.022,0,0,1,1.249,0c1.4.908,2.875,1.74,4.275,2.611a26.592,26.592,0,0,1,2.8,1.74,1.484,1.484,0,0,1,.908.227c1.967,1.211,3.935,2.421,5.94,3.632.151.114.378.151.378.416a9.886,9.886,0,0,1,2.043,1.173c1.778,1.022,3.556,2.081,5.3,3.14,1.059.681,2.194,1.211,3.216,2.005a4.588,4.588,0,0,0,1.513-2.308V85.184A4.235,4.235,0,0,0,137.459,82.044Zm-3.405,21v.53c-.076.038-.189.038-.265.076-.265,0-.53-.038-.832-.038-.189,0-.454-.076-.416.265-.113,1.249-.113,1.211-1.211,1.249-.568.038-.795-.151-.681-.719a1.214,1.214,0,0,0-.038-.53c0-.076,0-.189-.038-.189a4.455,4.455,0,0,0-2.119,0c-.416.114-.076.795-.189,1.211a1.638,1.638,0,0,1-.038.189h-.605c-1.135,0-1.135,0-1.249-1.1-.038-.416-.265-.378-.53-.378-.3-.038-.832.189-.908-.151a3.579,3.579,0,0,1-.038-1.551c.076-.34.53-.076.795-.227.568.151.795-.114.681-.643v-.34c0-1.362,0-1.362-1.4-1.324-.416-.492-.151-1.1-.151-1.627,0-.3.378-.151.567-.151.984-.038.984-.038.984-.984,0-.454.113-.681.605-.605a7.315,7.315,0,0,1,1.286.038,5.052,5.052,0,0,1,0,.757c-.076.53.113.757.643.681a1.029,1.029,0,0,1,.34,0c1.4,0,1.4,0,1.362-1.4A3.589,3.589,0,0,1,132.162,96c.076,0,.114.038.189.038s.113.038.189.038h0c0,.719,0,1.059.151,1.249l.038.038c.189.151.53.151,1.173.114l.038.038.038-.038a5.3,5.3,0,0,1,0,1.892c-.492.038-.946-.114-1.4.113h0c0,.643-.038,1.249-.038,1.892,0,.265.114.341.34.341.378,0,.908-.189,1.1.114S134.054,102.626,134.054,103.042Z" transform="translate(-85.4 -68.499)" fill="#9b5197"/>
  <path id="Path_1399" data-name="Path 1399" d="M201.049,152.121c0,.3-.113.378-.378.341h-.189c-1.93.038-1.93.038-1.778-1.93.038-.341.113-.454.454-.378h.114a2.792,2.792,0,0,1,.794,0c.113,0,.265.038.378.038a1.268,1.268,0,0,0,.378,0h.038c.038,0,.076-.038.113,0,.038,0,.038.038.076.076A15.137,15.137,0,0,0,201.049,152.121Z" transform="translate(-155.8 -119.243)" fill="#9b5197"/>
</svg>
