<svg xmlns="http://www.w3.org/2000/svg" width="147.866" height="38.031" viewBox="0 0 147.866 38.031">
  <g id="Docker" transform="translate(-57.2 -195.1)">
    <path id="Path_1957" data-name="Path 1957" d="M73.037,251.2a13.522,13.522,0,0,0-2.392-.35,18.024,18.024,0,0,1-6.387-2.042,12.948,12.948,0,0,1-5.454-6.8,24.644,24.644,0,0,1-1.6-9.041,1.705,1.705,0,0,1,1.692-1.75H93.51a11.329,11.329,0,0,0,3.675-.642c.408-.146.525-.262.292-.729a7.7,7.7,0,0,1-.2-6.737,12.367,12.367,0,0,1,1.079-2.042c.233-.379.437-.437.817-.2a8.32,8.32,0,0,1,4,5.366c.087.408.233.437.612.408a9.794,9.794,0,0,1,5.25.554c1.371.612,1.517.962.758,2.275a7.384,7.384,0,0,1-6.562,3.733,1.4,1.4,0,0,0-1.487,1.05,28.3,28.3,0,0,1-6.591,10.091,24.828,24.828,0,0,1-12.133,6.212,27.242,27.242,0,0,1-4.375.612.254.254,0,0,0-.262.117C76.566,251.2,74.786,251.2,73.037,251.2Z" transform="translate(0 -18.152)" fill="#4691ce"/>
    <path id="Path_1958" data-name="Path 1958" d="M535.441,258.335c-.729,1.079-1.079,1.2-2.362.787a4.994,4.994,0,0,0-6.591,5.075c.029,1.983,0,3.966,0,5.95a1.382,1.382,0,0,1-1.137,1.4,1.485,1.485,0,0,1-1.6-.758,1.909,1.909,0,0,1-.146-.9V257.635a1.486,1.486,0,0,1,1.4-1.692c.817-.029,1.371.525,1.517,1.487,0,.029.029.058.087.146a7.778,7.778,0,0,1,3.354-1.517,8.715,8.715,0,0,1,3.879.175,2.372,2.372,0,0,1,1.6,1.225Z" transform="translate(-330.375 -43.082)" fill="#4792ce"/>
    <path id="Path_1959" data-name="Path 1959" d="M259.408,241.325v-6.591A1.452,1.452,0,0,1,260.9,233.1a1.422,1.422,0,0,1,1.458,1.6c0,4.346.029,8.662,0,13.008a7.8,7.8,0,0,1-7.35,7.7,7.81,7.81,0,0,1-1.2-15.574,7.7,7.7,0,0,1,5.221,1.371l.262.175C259.321,241.354,259.35,241.354,259.408,241.325Zm0,6.27a4.9,4.9,0,0,0-4.871-4.9,4.992,4.992,0,0,0-4.958,4.958,4.915,4.915,0,0,0,9.829-.058Z" transform="translate(-134.195 -26.917)" fill="#4792ce"/>
    <path id="Path_1960" data-name="Path 1960" d="M473.155,265.343c-1.721,0-3.441.029-5.162,0-.612,0-.554.2-.379.612a4.953,4.953,0,0,0,7.67,1.662,1.6,1.6,0,0,1,1.4-.5,1.381,1.381,0,0,1,1.137.992,1.458,1.458,0,0,1-.467,1.6,7.645,7.645,0,0,1-3.616,1.837,7.808,7.808,0,1,1,6.241-8.312c.146,1.429-.5,2.158-1.9,2.1C476.422,265.285,474.789,265.343,473.155,265.343Zm-1.05-2.917h4.258c.292,0,.467,0,.321-.408a5.115,5.115,0,0,0-4.55-3.033,5.059,5.059,0,0,0-4.55,2.917c-.175.408-.088.525.35.525C469.305,262.4,470.705,262.427,472.105,262.427Z" transform="translate(-288.329 -43.207)" fill="#4792ce"/>
    <path id="Path_1961" data-name="Path 1961" d="M419.3,245.408c.9-.583,1.721-1.108,2.508-1.6,1.9-1.225,3.821-2.479,5.716-3.7a1.483,1.483,0,0,1,2.362,1.429,1.347,1.347,0,0,1-.729.992c-1.6,1.021-3.208,2.042-4.812,3.091-.9.583-1.05.35-.175,1.342l5.25,5.862a1.465,1.465,0,0,1-.729,2.537,1.484,1.484,0,0,1-1.517-.612c-1.837-2.071-3.7-4.141-5.571-6.241-.671-.729-.612-.7-1.487-.2a1.547,1.547,0,0,0-.875,1.6c.058,1.312.029,2.654,0,4a1.48,1.48,0,0,1-2.683.875,1.5,1.5,0,0,1-.262-.992V234.7a1.422,1.422,0,0,1,1.458-1.6,1.473,1.473,0,0,1,1.487,1.6v9.945A2.739,2.739,0,0,1,419.3,245.408Z" transform="translate(-254.369 -26.917)" fill="#4792ce"/>
    <path id="Path_1962" data-name="Path 1962" d="M321.49,263.745a7.845,7.845,0,1,1-7.875-7.845A7.848,7.848,0,0,1,321.49,263.745Zm-2.946,0a4.943,4.943,0,0,0-4.841-4.929,4.886,4.886,0,1,0-.058,9.77A4.861,4.861,0,0,0,318.545,263.745Z" transform="translate(-176.095 -43.068)" fill="#4792ce"/>
    <path id="Path_1963" data-name="Path 1963" d="M364.6,263.361a7.421,7.421,0,0,1,4.462-6.679,7.579,7.579,0,0,1,8.166.817,1.7,1.7,0,0,1,.875,1.575,1.47,1.47,0,0,1-2.421.962,5.43,5.43,0,0,0-2.537-1.137,4.888,4.888,0,0,0-1.692,9.624,4.789,4.789,0,0,0,4.083-.992,1.609,1.609,0,0,1,1.837-.2,1.48,1.48,0,0,1,.671,1.546,1.805,1.805,0,0,1-.875,1.137,7.861,7.861,0,0,1-10.091-.583A8.081,8.081,0,0,1,364.6,263.361Z" transform="translate(-217.747 -43.034)" fill="#4792ce"/>
    <path id="Path_1964" data-name="Path 1964" d="M75.2,241.187H73.042c-.467,0-.642-.2-.642-.612v-3.791c0-.408.233-.583.612-.583H77.3a.56.56,0,0,1,.642.642v3.733c0,.467-.2.671-.7.642C76.6,241.158,75.9,241.187,75.2,241.187Z" transform="translate(-10.767 -29.113)" fill="#4792ce"/>
    <path id="Path_1965" data-name="Path 1965" d="M119.8,241.116h-2.1c-.467,0-.7-.146-.7-.642v-3.733a.56.56,0,0,1,.642-.642h4.287a.533.533,0,0,1,.612.583v3.85c0,.408-.233.583-.642.554C121.229,241.087,120.529,241.116,119.8,241.116Z" transform="translate(-42.359 -29.042)" fill="#4792ce"/>
    <path id="Path_1966" data-name="Path 1966" d="M142.071,241.187h-2.158a.533.533,0,0,1-.612-.583v-3.791c0-.437.233-.612.642-.612h4.229c.467,0,.642.2.642.671q-.044,1.837,0,3.675c0,.525-.2.671-.7.671C143.471,241.158,142.771,241.187,142.071,241.187Z" transform="translate(-58.156 -29.113)" fill="#4792ce"/>
    <path id="Path_1967" data-name="Path 1967" d="M142.171,195.129h2.158c.408,0,.612.117.612.554v3.85c0,.408-.2.583-.612.583h-4.287a.571.571,0,0,1-.642-.642v-3.733c0-.437.175-.642.612-.642C140.742,195.158,141.442,195.129,142.171,195.129Z" transform="translate(-58.226)" fill="#4792ce"/>
    <path id="Path_1968" data-name="Path 1968" d="M97.429,241.116H95.271c-.467,0-.671-.175-.671-.642v-3.733a.56.56,0,0,1,.642-.642h4.287c.437,0,.612.2.612.642v3.733c0,.437-.175.642-.612.642Z" transform="translate(-26.492 -29.042)" fill="#4792ce"/>
    <path id="Path_1969" data-name="Path 1969" d="M164.471,241.187h-2.158c-.408,0-.612-.175-.612-.583v-3.791c0-.437.233-.612.642-.612h4.287c.408,0,.583.2.583.612V240.6c0,.467-.2.612-.642.612C165.9,241.158,165.2,241.187,164.471,241.187Z" transform="translate(-74.023 -29.113)" fill="#4792ce"/>
    <path id="Path_1970" data-name="Path 1970" d="M97.371,220.658H95.212c-.408,0-.612-.175-.612-.583v-3.791c0-.408.2-.583.612-.583h4.316c.437,0,.642.146.612.612-.029,1.254-.029,2.479,0,3.733,0,.467-.2.612-.642.612Z" transform="translate(-26.492 -14.592)" fill="#4691ce"/>
    <path id="Path_1971" data-name="Path 1971" d="M142.071,220.658c-.7,0-1.4-.029-2.1,0-.467.029-.671-.175-.671-.642v-3.675c0-.467.2-.642.671-.642,1.4.029,2.829.029,4.229,0,.437,0,.642.146.612.612-.029,1.254-.029,2.479,0,3.733,0,.467-.175.612-.642.612Z" transform="translate(-58.156 -14.592)" fill="#4691ce"/>
    <path id="Path_1972" data-name="Path 1972" d="M119.9,220.658h-2.158c-.437,0-.642-.175-.642-.612v-3.733c0-.437.2-.612.642-.612h4.287c.408,0,.583.175.583.583v3.791c0,.408-.175.583-.583.583Z" transform="translate(-42.43 -14.592)" fill="#4792ce"/>
  </g>
</svg>
