<svg xmlns="http://www.w3.org/2000/svg" width="147.398" height="52.531" viewBox="0 0 147.398 52.531">
  <g id="Drupal" transform="translate(-51.25 -271.2)">
    <path id="Path_1671" data-name="Path 1671" d="M54.539,314.678a2.853,2.853,0,0,1-.679-1.062,43.413,43.413,0,0,1-1.741-4.366,22.054,22.054,0,0,1-.531-2.419,23.684,23.684,0,0,1-.325-4.779,22.718,22.718,0,0,1,2.478-9.5,21.327,21.327,0,0,1,4.632-5.989,28.8,28.8,0,0,1,7.729-4.956,10.06,10.06,0,0,0,4.278-3.481,1.251,1.251,0,0,0,.147-.207c.059.03.059.089.059.147a8.8,8.8,0,0,1-1.859,2.183,13.061,13.061,0,0,1-3.275,1.918,28.371,28.371,0,0,0-4.691,2.684,19.441,19.441,0,0,0-5.34,5.635,5.045,5.045,0,0,0-.62,1.416,2.243,2.243,0,0,0-.325.974,1.174,1.174,0,0,0,1.239,1.445H55.9a6.4,6.4,0,0,0,2.242-.383,27.108,27.108,0,0,0,5.369-2.537,25.443,25.443,0,0,0,5.4-4.337,19.314,19.314,0,0,0,3.039-4.366,1.457,1.457,0,0,0,.147-.708,1.583,1.583,0,0,0-.383-.944c-.118-.148-.118-.206.03-.354a5.025,5.025,0,0,0,.767-1,5.809,5.809,0,0,0,.442-3.924c-.088-.561-.324-1.091-.472-1.652a.029.029,0,0,0,.03-.03c.089-.03.147.059.236.059,0,.029.03.029.059.059v.029h.029c0,.03.03.03.059.059v.03h.029a16.687,16.687,0,0,0,2.714,2.685,43.109,43.109,0,0,0,6.962,4.72c.679.384,1.416.678,2.095,1.062a22.348,22.348,0,0,1,4.6,3.334,24.441,24.441,0,0,1,2.626,2.891.739.739,0,0,1,.118.207c.029.413-.089.855-.089,1.268a13.905,13.905,0,0,1-.384,2.921,19.232,19.232,0,0,1-1.918,4.867,24.9,24.9,0,0,1-3.629,4.779c-.354.354-.738.708-1.092,1.033-.3.266-.561.531-.856.767-1.151.914-2.39,1.74-3.54,2.625-.206.177-.5.265-.649.531a16,16,0,0,1-1.888-1.239,25.982,25.982,0,0,0-3.039-2.036,9.325,9.325,0,0,0-3.481-1.357,13.077,13.077,0,0,0-3.717.029,7.46,7.46,0,0,0-4.514,2.508,7.579,7.579,0,0,0-2.065,4.75,8.03,8.03,0,0,0,.236,2.389,5.2,5.2,0,0,0,1.682,2.626,24.42,24.42,0,0,1-2.921.265,15.75,15.75,0,0,1-2.036-.147,9.543,9.543,0,0,1-3.363-1.062C54.627,314.648,54.568,314.619,54.539,314.678Z" transform="translate(0 -2.03)" fill="#078ece"/>
    <path id="Path_1672" data-name="Path 1672" d="M62.4,402.88c.029-.059.089-.03.147,0a9.736,9.736,0,0,0,3.363,1.062,15.751,15.751,0,0,0,2.036.147,16.29,16.29,0,0,0,2.921-.266.1.1,0,0,1,.059.03,7.7,7.7,0,0,0,6.549,1.062,23.951,23.951,0,0,0,4.16-1.652c1.239-.619,2.449-1.357,3.629-2.094a20.938,20.938,0,0,1,2.744-1.534,5.049,5.049,0,0,1,1.741-.442,2.806,2.806,0,0,1,1.918.59,16.979,16.979,0,0,1,2.213,1.888c.767.738,1.5,1.534,2.213,2.3a3.261,3.261,0,0,0,1.357.915,1.862,1.862,0,0,0,1.534-.118,6.725,6.725,0,0,0,2.3-2.065.21.21,0,0,1,.089.177h0a.324.324,0,0,0-.177.295v.03c-.03.03-.03.059-.059.089a20.95,20.95,0,0,1-3.186,4.012,22.744,22.744,0,0,1-35.489-4.219A.546.546,0,0,0,62.4,402.88Zm23.423,8.5a11.139,11.139,0,0,0,2.419-.265,17.739,17.739,0,0,0,4.189-1.328,3.162,3.162,0,0,0,1.033-.737,1.349,1.349,0,0,0,.354-.708.641.641,0,0,0-.236-.59.444.444,0,0,0-.531-.03c-.207.118-.413.206-.62.324A13.284,13.284,0,0,1,85,409.636a8.775,8.775,0,0,1-3.717-1.21,2.767,2.767,0,0,0-1.18-.472.786.786,0,0,0-.915,1.121,1.2,1.2,0,0,0,.561.649A10.647,10.647,0,0,0,85.823,411.376Zm3.127-9.027a4.416,4.416,0,0,0-1.5.207,7.08,7.08,0,0,0-3.127,2.095,1.264,1.264,0,0,0-.3.708.519.519,0,0,0,.207.62.58.58,0,0,0,.649.029,4.124,4.124,0,0,0,.767-.472c.383-.295.738-.561,1.092-.855a3.352,3.352,0,0,1,3.186-.531,1.457,1.457,0,0,1,1.15,1.091.736.736,0,0,0,.767.59.615.615,0,0,0,.738-.679,1.9,1.9,0,0,0-.148-.708,3.507,3.507,0,0,0-2.508-2.036C89.6,402.379,89.275,402.408,88.95,402.349Z" transform="translate(-7.861 -90.232)" fill="#146eaa"/>
    <path id="Path_1673" data-name="Path 1673" d="M228.859,334.8v-9.794c0-.3,0-.325.324-.325,1.888,0,3.776-.03,5.664.03a16.876,16.876,0,0,1,4.543.62,6.585,6.585,0,0,1,4.514,4.248,11.664,11.664,0,0,1,.649,3.009,19.992,19.992,0,0,1,.118,2.655,15.267,15.267,0,0,1-.62,4.16,7.006,7.006,0,0,1-5.1,4.956,17.232,17.232,0,0,1-3.275.531c-2.154.147-4.337.029-6.49.059-.383,0-.383,0-.383-.413C228.859,341.261,228.859,338.017,228.859,334.8Zm4.189,0v5.989c0,.56,0,.56.561.59h.088a15.027,15.027,0,0,0,3.452-.118,3.394,3.394,0,0,0,1.918-.885,4.034,4.034,0,0,0,1.121-1.977,14.886,14.886,0,0,0,.413-3.629c0-.531-.059-1.033-.059-1.564a9.119,9.119,0,0,0-.354-2.183,3.681,3.681,0,0,0-1.357-2.094,4.239,4.239,0,0,0-1.563-.62,24.955,24.955,0,0,0-3.924-.177c-.147,0-.236.059-.207.236v.325C233.048,330.759,233.048,332.795,233.048,334.8Z" transform="translate(-125.173 -37.7)" fill="#2ca9e0"/>
    <path id="Path_1674" data-name="Path 1674" d="M391.019,353.8c0-2.006-.03-4.042,0-6.048a8.2,8.2,0,0,1,7.051-7.847,7.993,7.993,0,0,1,6.018,1.534,8.157,8.157,0,0,1,1.033,12.184,8.144,8.144,0,0,1-3.363,2.154,4.94,4.94,0,0,1-6.166-2.537c0-.03-.03-.059-.03-.089-.059-.118-.088-.3-.266-.236-.147.029-.147.177-.147.324v7.2c0,.177-.059.265-.266.265h-3.629c-.177,0-.295-.059-.266-.265v-.3c.03-2.095.03-4.219.03-6.343Zm12.3-5.753a4.13,4.13,0,1,0-4.189,4.071A4.086,4.086,0,0,0,403.32,348.047Z" transform="translate(-239.513 -48.379)" fill="#2ca9e0"/>
    <path id="Path_1675" data-name="Path 1675" d="M468.269,351.462V355.3c0,.383,0,.383-.383.383h-3.422c-.383,0-.383,0-.383-.383v-1.888a1,1,0,0,0-.03-.3A.135.135,0,0,0,463.9,353a.225.225,0,0,0-.147.059l-.177.354a4.93,4.93,0,0,1-6.284,2.389,7.975,7.975,0,0,1-5.192-5.782,8.1,8.1,0,0,1,4.219-9.2,8.3,8.3,0,0,1,3.54-.915,8.256,8.256,0,0,1,8.378,8.378C468.269,349.308,468.269,350.37,468.269,351.462Zm-8.2-7.523a4.088,4.088,0,0,0-4.13,4.071,4.173,4.173,0,0,0,4.13,4.189,4.13,4.13,0,1,0,0-8.26Z" transform="translate(-282.424 -48.431)" fill="#2ca9e0"/>
    <path id="Path_1676" data-name="Path 1676" d="M335.9,345.225v-4.042c0-.383,0-.383.384-.383h3.363c.384,0,.384,0,.384.383v7.169a7.187,7.187,0,0,0,.236,1.947,2.892,2.892,0,0,0,1.918,2.183,3.048,3.048,0,0,0,3.334-.708,3.823,3.823,0,0,0,.914-1.977,9.269,9.269,0,0,0,.089-1.564v-7.11c0-.295,0-.324.3-.324h3.569c.3,0,.3,0,.3.354v4.661c0,1,.029,2.036,0,3.039a8.655,8.655,0,0,1-1.534,4.868,6.965,6.965,0,0,1-5.664,3.009,7.046,7.046,0,0,1-7.08-4.956,8.979,8.979,0,0,1-.5-2.95c0-1.21,0-2.39,0-3.6Z" transform="translate(-200.678 -49.068)" fill="#2ca9e0"/>
    <path id="Path_1677" data-name="Path 1677" d="M148.1,344.092a1.618,1.618,0,0,1,.649-.531c1.18-.885,2.39-1.711,3.54-2.626a10.564,10.564,0,0,0,.856-.767c.383-.354.767-.679,1.092-1.033a24.9,24.9,0,0,0,3.629-4.779,19.233,19.233,0,0,0,1.918-4.867,12.012,12.012,0,0,0,.383-2.921c0-.413.089-.826.089-1.268a15.889,15.889,0,0,1,1.652,2.33,20.633,20.633,0,0,1,2.921,8.142,22.629,22.629,0,0,1-2.154,13.393c-.029.029-.059.059-.059.089a.21.21,0,0,1-.089-.177c.03-.059.03-.118.059-.148a10.952,10.952,0,0,0,.708-5.162,5.244,5.244,0,0,0-.679-2.183,2.848,2.848,0,0,0-3.6-1.3,7.11,7.11,0,0,0-.973.443,32.808,32.808,0,0,0-4.189,2.714,8.094,8.094,0,0,1-2.626,1.3,2.707,2.707,0,0,1-1.74-.03A4.456,4.456,0,0,1,148.1,344.092Z" transform="translate(-68.279 -38.14)" fill="#146eaa"/>
    <path id="Path_1678" data-name="Path 1678" d="M301.114,345.356c-.118-.059-.206-.147-.324-.207a6.239,6.239,0,0,0-3.039-1.033,4.372,4.372,0,0,0-3.894,1.858,3.348,3.348,0,0,0-.443.678,1.9,1.9,0,0,0-.236.974v7.818c.029.207-.089.266-.266.266h-3.629c-.207,0-.325-.059-.295-.266V340.784c0-.561-.059-.5.5-.5h2.832c.354,0,.354,0,.443.384.118.678.207,1.357.324,2.035.029.148,0,.384.177.443.207.059.236-.177.324-.295a7.017,7.017,0,0,1,2.921-2.478,4.575,4.575,0,0,1,3.127-.206,9.322,9.322,0,0,1,1.269.472.383.383,0,0,1,.236.354v4.366C301.143,345.327,301.143,345.327,301.114,345.356Z" transform="translate(-167.603 -48.491)" fill="#2ca9e0"/>
    <path id="Path_1679" data-name="Path 1679" d="M513.1,334.818v-9.676c0-.472-.029-.442.442-.442h3.3c.413,0,.443,0,.443.442v19.411c0,.413,0,.413-.443.413H513.6c-.56,0-.472.03-.472-.5C513.1,341.278,513.1,338.033,513.1,334.818Z" transform="translate(-325.603 -37.717)" fill="#2ca9e0"/>
    <path id="Path_1680" data-name="Path 1680" d="M80.364,272.114c-.088,0-.147-.088-.236-.059-.029,0-.059-.059-.059-.03-.059.03-.029.059,0,.088a11.58,11.58,0,0,1,.472,1.652,5.989,5.989,0,0,1-.442,3.924,3.243,3.243,0,0,1-.767,1c-.147.148-.147.207-.029.354a1.512,1.512,0,0,1,.383.944,1.9,1.9,0,0,1-.147.708,20.306,20.306,0,0,1-3.039,4.366,24.049,24.049,0,0,1-5.4,4.337,28.762,28.762,0,0,1-5.369,2.537,5.886,5.886,0,0,1-2.242.384h-.177a1.186,1.186,0,0,1-1.239-1.446,1.748,1.748,0,0,1,.325-.974.782.782,0,0,0,.56.855,1.363,1.363,0,0,0,.767.118,7.319,7.319,0,0,0,1.593-.354c.944-.383,1.859-.8,2.773-1.268.944-.5,1.888-1,2.773-1.564a25.9,25.9,0,0,0,4.72-3.658c.384-.384.767-.738,1.121-1.15a16.392,16.392,0,0,0,1.623-2.331,1.064,1.064,0,0,0-.059-1.357c-.118-.147-.089-.236.03-.354a6.443,6.443,0,0,0,.619-.649,6.933,6.933,0,0,0,1.357-4.042c0-.324-.059-.649-.089-.974a6.523,6.523,0,0,0-.443-1.652c0,.3-.088.59-.118.885a2.686,2.686,0,0,1-.295,1.18l-.089-.088c.089-.472.177-.944.3-1.387.059-.295-.03-.59.207-.915A8.342,8.342,0,0,1,80.364,272.114Z" transform="translate(-7.623 0)" fill="#a1d7f0"/>
    <path id="Path_1681" data-name="Path 1681" d="M544.887,325.91c.089-.295.206-.62.295-.914a.492.492,0,0,1,.62-.266c.088.029.088.089.088.177v1.652a.156.156,0,0,1-.177.177c-.118,0-.236,0-.236-.148v-.324a1.258,1.258,0,0,0-.059-.561,2.578,2.578,0,0,0-.295.738c-.059.118-.059.295-.266.324-.236,0-.236-.177-.295-.324a1.893,1.893,0,0,0-.354-.738v.8c0,.147,0,.266-.206.295-.207,0-.207-.118-.207-.265v-1.446c0-.118-.029-.266.148-.3.236-.059.472,0,.531.177.088.266.177.531.265.767.03.088.059.148.089.236C544.828,325.91,544.857,325.91,544.887,325.91Z" transform="translate(-347.243 -37.718)" fill="#2ca9e0"/>
    <path id="Path_1682" data-name="Path 1682" d="M538.226,324.8h.62c.147,0,.177.088.177.207a.156.156,0,0,1-.177.177h-.089c-.354-.029-.325.089-.325.354v1.033c0,.118,0,.236-.147.236s-.266-.03-.266-.207v-1.033c0-.354,0-.354-.354-.384-.118,0-.266,0-.266-.177s.089-.207.236-.207Z" transform="translate(-342.735 -37.788)" fill="#2ca9e0"/>
    <path id="Path_1683" data-name="Path 1683" d="M117.662,279.2l.088.088a7.332,7.332,0,0,1-1.092,2.449c0-.059,0-.118-.059-.147.206-.472.5-.885.678-1.357C117.4,279.908,117.544,279.554,117.662,279.2Z" transform="translate(-46.072 -5.64)" fill="#2ca9e0"/>
    <path id="Path_1684" data-name="Path 1684" d="M195.126,406.1a.21.21,0,0,0,.088.177,5.574,5.574,0,0,1-.826,1.475c0-.059,0-.148-.089-.177C194.6,407.074,194.861,406.6,195.126,406.1Z" transform="translate(-100.85 -95.104)" fill="#078ece"/>
    <path id="Path_1685" data-name="Path 1685" d="M194.1,411.995a.324.324,0,0,1,.177-.295A.612.612,0,0,1,194.1,411.995Z" transform="translate(-100.709 -99.052)" fill="#078ece"/>
    <path id="Path_1686" data-name="Path 1686" d="M124.329,274.5H124.3Z" transform="translate(-51.5 -2.327)" fill="#a1d7f0"/>
    <path id="Path_1687" data-name="Path 1687" d="M124.53,274.829H124.5v-.03C124.53,274.8,124.53,274.8,124.53,274.829Z" transform="translate(-51.641 -2.538)" fill="#a1d7f0"/>
    <path id="Path_1688" data-name="Path 1688" d="M193.8,412.889c.03-.03.03-.059.059-.089C193.859,412.83,193.859,412.859,193.8,412.889Z" transform="translate(-100.498 -99.828)" fill="#078ece"/>
    <path id="Path_1689" data-name="Path 1689" d="M117.912,382.6c-.266.5-.531.974-.8,1.475a7.006,7.006,0,0,1-2.3,2.065,1.863,1.863,0,0,1-1.534.118,3.262,3.262,0,0,1-1.357-.915q-1.062-1.195-2.213-2.3a19.178,19.178,0,0,0-2.213-1.888,3.017,3.017,0,0,0-1.918-.59,5.048,5.048,0,0,0-1.741.443,19.192,19.192,0,0,0-2.744,1.534,34.053,34.053,0,0,1-3.629,2.095,18.824,18.824,0,0,1-4.16,1.652,7.7,7.7,0,0,1-6.549-1.062.091.091,0,0,0-.059-.029,5.2,5.2,0,0,1-1.682-2.626,8.227,8.227,0,0,1-.236-2.39,7.836,7.836,0,0,1,2.065-4.75,7.46,7.46,0,0,1,4.514-2.508,12.083,12.083,0,0,1,3.717-.029,9.135,9.135,0,0,1,3.481,1.357,25.993,25.993,0,0,1,3.039,2.036,11.571,11.571,0,0,0,1.888,1.239,6.693,6.693,0,0,0,1.387.678,2.706,2.706,0,0,0,1.741.03,9.485,9.485,0,0,0,2.626-1.3,35.019,35.019,0,0,1,4.189-2.714,7.1,7.1,0,0,1,.974-.443,2.9,2.9,0,0,1,3.6,1.3,5.714,5.714,0,0,1,.679,2.183,11.055,11.055,0,0,1-.708,5.162C117.941,382.479,117.941,382.538,117.912,382.6Z" transform="translate(-23.636 -71.601)" fill="#f1f1f1"/>
    <path id="Path_1690" data-name="Path 1690" d="M78.942,277.014a6.788,6.788,0,0,0,1.092-2.448,2.686,2.686,0,0,0,.295-1.18c.029-.3.118-.59.118-.885a4.746,4.746,0,0,1,.442,1.652,5.431,5.431,0,0,1,.089.973,6.8,6.8,0,0,1-1.357,4.042,6.445,6.445,0,0,1-.619.649c-.118.118-.147.206-.03.354a1.064,1.064,0,0,1,.059,1.357,15.694,15.694,0,0,1-1.623,2.331,13.694,13.694,0,0,1-1.121,1.151,22.73,22.73,0,0,1-4.72,3.658c-.915.561-1.829,1.092-2.773,1.564a29.516,29.516,0,0,1-2.773,1.268,7.319,7.319,0,0,1-1.593.354,2.309,2.309,0,0,1-.767-.118.823.823,0,0,1-.56-.855,5.044,5.044,0,0,1,.619-1.416,19.44,19.44,0,0,1,5.34-5.635,26.414,26.414,0,0,1,4.691-2.685,13.44,13.44,0,0,0,3.275-1.918A8.494,8.494,0,0,0,78.942,277.014Z" transform="translate(-8.355 -0.917)" fill="#f1f1f1"/>
    <path id="Path_1691" data-name="Path 1691" d="M125.714,431.582a10.71,10.71,0,0,1-6.107-1.652,1.5,1.5,0,0,1-.561-.649.8.8,0,0,1,.915-1.121,2.766,2.766,0,0,1,1.18.472,8.387,8.387,0,0,0,3.717,1.21,13.041,13.041,0,0,0,7.434-1.593c.206-.118.413-.207.619-.324a.444.444,0,0,1,.531.03.641.641,0,0,1,.236.59,1.349,1.349,0,0,1-.354.708,3.162,3.162,0,0,1-1.033.738,18.723,18.723,0,0,1-4.189,1.328A16.323,16.323,0,0,1,125.714,431.582Z" transform="translate(-47.752 -110.438)" fill="#f1f1f1"/>
    <path id="Path_1692" data-name="Path 1692" d="M140.6,409.9c.325.059.649.03.974.089a3.453,3.453,0,0,1,2.508,2.036,1.457,1.457,0,0,1,.147.708.626.626,0,0,1-.738.678.716.716,0,0,1-.767-.59,1.5,1.5,0,0,0-1.151-1.091,3.352,3.352,0,0,0-3.186.531c-.354.3-.738.561-1.092.856a4.128,4.128,0,0,1-.767.472.578.578,0,0,1-.649-.029.612.612,0,0,1-.206-.62,1.515,1.515,0,0,1,.295-.708,6.842,6.842,0,0,1,3.127-2.095A3.667,3.667,0,0,1,140.6,409.9Z" transform="translate(-59.514 -97.783)" fill="#f1f1f1"/>
    <path id="Path_1693" data-name="Path 1693" d="M123.119,273.989c-.029-.029-.059-.059,0-.089a.1.1,0,0,0,.059.03Z" transform="translate(-50.644 -1.904)" fill="#078ece"/>
  </g>
</svg>
