<svg xmlns="http://www.w3.org/2000/svg" width="82.054" height="36.76" viewBox="0 0 82.054 36.76">
  <g id="ICO" transform="translate(-99.166 -191.706)">
    <path id="Path_1558" data-name="Path 1558" d="M352.938,297.206a21.193,21.193,0,0,1-7.473-1.068,9.746,9.746,0,0,1-2.91-1.549,4.065,4.065,0,0,1-1.612-3.077,6.18,6.18,0,0,1,.774-3.454,13.553,13.553,0,0,1,2.721-3.349,21.837,21.837,0,0,1,8.583-4.836,27.171,27.171,0,0,1,9.608-1.151,17.831,17.831,0,0,1,6.05,1.319,7.712,7.712,0,0,1,1.465.816,5.051,5.051,0,0,1,1.926,5.945,8.985,8.985,0,0,1-1.528,2.679,19.035,19.035,0,0,1-5.4,4.522,24,24,0,0,1-8.834,2.972C355.116,297.1,353.9,297.164,352.938,297.206Zm7.745-17.374a8.464,8.464,0,0,0-1.716.147,8.219,8.219,0,0,0-4.208,2.261,18.981,18.981,0,0,0-2.051,2.449,19.835,19.835,0,0,0-3.035,5.966,9.38,9.38,0,0,0-.419,2.847,2.147,2.147,0,0,0,1.277,2.031,2.265,2.265,0,0,0,.628.23,6.787,6.787,0,0,0,5.254-.649,9.973,9.973,0,0,0,2.742-2.282,21.857,21.857,0,0,0,4.563-9.127,5.25,5.25,0,0,0,.167-1.4,2.261,2.261,0,0,0-1.842-2.3A4.813,4.813,0,0,0,360.684,279.832Z" transform="translate(-191.155 -68.764)" fill="#354483"/>
    <path id="Path_1559" data-name="Path 1559" d="M227.9,291.775a21.336,21.336,0,0,1-6.447,3.977,20.816,20.816,0,0,1-6.175,1.277,21.4,21.4,0,0,1-3.475-.021,13.544,13.544,0,0,1-5.694-1.633,7.041,7.041,0,0,1-1.716-1.34,4.3,4.3,0,0,1-1.026-4.417,10.314,10.314,0,0,1,2.072-3.6,19.973,19.973,0,0,1,6.238-4.815,24.545,24.545,0,0,1,7.829-2.449,23.531,23.531,0,0,1,5.819-.126,12.561,12.561,0,0,1,3.6.858,4.783,4.783,0,0,1,1.654,1.068,2.2,2.2,0,0,1,.607,1.926,1.788,1.788,0,0,1-.481.921,2.822,2.822,0,0,1-.858.649,6.54,6.54,0,0,1-5.422.251,3.254,3.254,0,0,1-1.109-.712,1.34,1.34,0,0,1-.167-1.842,4.561,4.561,0,0,1,.523-.586.671.671,0,0,0-.209-1.193,3.579,3.579,0,0,0-1.7-.188,7.593,7.593,0,0,0-4.228,1.842,15.53,15.53,0,0,0-3.789,4.626,13.407,13.407,0,0,0-1.444,3.5,3.876,3.876,0,0,0-.084,1.7,3.188,3.188,0,0,0,1.675,2.282,6.366,6.366,0,0,0,2.617.733,11.484,11.484,0,0,0,7.494-2.03c.607-.4,1.193-.816,1.737-1.256a.385.385,0,0,1,.419-.084A12.02,12.02,0,0,0,227.9,291.775Z" transform="translate(-82.211 -68.629)" fill="#354483"/>
    <path id="Path_1560" data-name="Path 1560" d="M114.831,278.7a1.223,1.223,0,0,1-.147.4q-3.266,6.782-6.531,13.544a2.613,2.613,0,0,0-.293,1.047c-.021.419.1.565.5.649a1.8,1.8,0,0,0,.586.063,5.238,5.238,0,0,0,1.926-.565,16.825,16.825,0,0,0,3.224-2.324.487.487,0,0,1,.586-.126c.4.147.816.272,1.235.4-.021.042-.021.084-.042.1-1.089.9-2.156,1.821-3.307,2.638a14.2,14.2,0,0,1-6.112,2.533,11.832,11.832,0,0,1-4.459-.042,5.323,5.323,0,0,1-1.486-.565,3.6,3.6,0,0,1-.67-.481,2.067,2.067,0,0,1-.607-2.093,5.208,5.208,0,0,1,.377-.942l4.773-9.671a3.988,3.988,0,0,0,.377-.984.849.849,0,0,0-.586-1.089,4.575,4.575,0,0,0-1.486-.293c-.586-.042-1.172-.084-1.758-.084-.188,0-.293-.042-.272-.251.021-.251-.084-.544.042-.733.147-.188.461-.1.712-.126,2.763-.272,5.526-.46,8.289-.67,1.612-.126,3.224-.23,4.836-.335Z" transform="translate(0 -68.783)" fill="#354483"/>
    <path id="Path_1561" data-name="Path 1561" d="M149.747,243.594a4.623,4.623,0,0,1-2.2-.5,3.4,3.4,0,0,1-1.089-.8,1.974,1.974,0,0,1-.167-2.575,3.447,3.447,0,0,1,1.528-1.214,5.243,5.243,0,0,1,4.166-.084,3.3,3.3,0,0,1,1.319.9,2.081,2.081,0,0,1,.042,2.868,4.244,4.244,0,0,1-2.386,1.319A7.053,7.053,0,0,1,149.747,243.594Z" transform="translate(-36.947 -36.629)" fill="#cb2248"/>
    <path id="Path_1562" data-name="Path 1562" d="M188.4,219.164a4.288,4.288,0,0,1-2.031-.5,2.849,2.849,0,0,1-.963-.837,1.666,1.666,0,0,1-.042-1.968,3.036,3.036,0,0,1,1.465-1.193,3.888,3.888,0,0,1,3.705.251,2.083,2.083,0,0,1,.67,2.931,3.4,3.4,0,0,1-2.282,1.3A3.871,3.871,0,0,0,188.4,219.164Z" transform="translate(-67.915 -17.872)" fill="#cb2248"/>
    <path id="Path_1563" data-name="Path 1563" d="M228.4,205.713a2.666,2.666,0,0,1-2.01-.8,1.411,1.411,0,0,1,.042-2.2,3.126,3.126,0,0,1,3.663-.4c.126.084.23.167.335.251a1.485,1.485,0,0,1,.1,2.24A2.87,2.87,0,0,1,228.4,205.713Z" transform="translate(-100.194 -8.063)" fill="#cc2349"/>
    <path id="Path_1564" data-name="Path 1564" d="M263.487,197.306a2.688,2.688,0,0,1-1.8-.565c-.8-.649-.837-1.4,0-2.01a3.212,3.212,0,0,1,3.391-.356,2.124,2.124,0,0,1,.565.4,1.064,1.064,0,0,1,.146,1.423,2.05,2.05,0,0,1-.879.754A2.716,2.716,0,0,1,263.487,197.306Z" transform="translate(-128.017 -1.855)" fill="#cc2349"/>
    <path id="Path_1565" data-name="Path 1565" d="M299.693,194.238a3.413,3.413,0,0,1-1.444-.272,1.892,1.892,0,0,1-.628-.44.707.707,0,0,1,.021-1.068,1.753,1.753,0,0,1,.607-.419,3.635,3.635,0,0,1,2.847-.084,1.609,1.609,0,0,1,.67.461.758.758,0,0,1,.063.963,1.687,1.687,0,0,1-.628.523A3.441,3.441,0,0,1,299.693,194.238Z" transform="translate(-156.728 0)" fill="#cc2549"/>
    <path id="Path_1566" data-name="Path 1566" d="M335.822,194.5a3.731,3.731,0,0,1,1.716.356c.293.147.565.335.586.67a.858.858,0,0,1-.544.754,3.3,3.3,0,0,1-2.177.4,2.862,2.862,0,0,1-.837-.188,1.464,1.464,0,0,1-.44-.23c-.5-.356-.523-.775-.042-1.13A3.106,3.106,0,0,1,335.822,194.5Z" transform="translate(-185.468 -2.209)" fill="#cc2549"/>
    <path id="Path_1567" data-name="Path 1567" d="M367.706,208.362a3.1,3.1,0,0,1-1.444-.314c-.293-.147-.565-.314-.565-.67-.021-.377.272-.565.544-.712a3.622,3.622,0,0,1,2.91-.23,1.361,1.361,0,0,1,.565.356.626.626,0,0,1,.021.879,1.557,1.557,0,0,1-.649.44A3.579,3.579,0,0,1,367.706,208.362Z" transform="translate(-210.737 -11.486)" fill="#cc2349"/>
    <path id="Path_1568" data-name="Path 1568" d="M391.937,222.585a2.86,2.86,0,0,1,1.193.188,2.729,2.729,0,0,1,.356.167.64.64,0,0,1,.063,1.151,2.48,2.48,0,0,1-1.13.481,3.413,3.413,0,0,1-1.884-.126,1.532,1.532,0,0,1-.628-.4.521.521,0,0,1-.021-.775,1.6,1.6,0,0,1,.565-.419A3.544,3.544,0,0,1,391.937,222.585Z" transform="translate(-229.735 -24.412)" fill="#cc2549"/>
    <path id="Path_1569" data-name="Path 1569" d="M408.263,245.071a2.671,2.671,0,0,1-1.109-.209,2.291,2.291,0,0,1-.314-.167c-.586-.377-.586-.816,0-1.151a3.177,3.177,0,0,1,2.91-.209c.293.126.607.272.628.628.021.377-.293.565-.565.733A3.033,3.033,0,0,1,408.263,245.071Z" transform="translate(-242.921 -40.618)" fill="#cc2549"/>
  </g>
</svg>
