<svg id="laravel" xmlns="http://www.w3.org/2000/svg" width="185.145" height="52.067" viewBox="0 0 185.145 52.067">
  <path id="Path_1470" data-name="Path 1470" d="M164.056,152.62v8.327c0,.435-.186.621-.559.621-1.119,0-2.175,0-3.293.062-.373,0-.435-.249-.435-.5v-1.056a.386.386,0,0,0-.249-.373c-.186-.062-.249.124-.373.186-1.8,2.051-4.039,2.486-6.587,2.113a8.563,8.563,0,0,1-6.276-4.163,9.577,9.577,0,0,1-.746-8.886,8.457,8.457,0,0,1,2.672-3.728,8.737,8.737,0,0,1,4.35-1.989,7.633,7.633,0,0,1,5.9,1.367,3.56,3.56,0,0,1,.684.684c.062.124.186.249.373.124a.62.62,0,0,0,.249-.311v-1.056c0-.373.124-.5.5-.5.932.062,1.926,0,2.858,0,.808,0,.932.186.932.932,0,2.734,0,5.468,0,8.14Zm-9.508,5.655a3.969,3.969,0,0,0,2.548-.684,5.647,5.647,0,0,0,2.486-3.666c.559-1.988-.5-5.282-2.672-6.4a5.367,5.367,0,0,0-6.525,1.181,6.154,6.154,0,0,0-1.181,5.282A5.154,5.154,0,0,0,154.549,158.275Z" transform="translate(-59.818 -121.681)" fill="#eb3b2f"/>
  <path id="Path_1471" data-name="Path 1471" d="M122.524,142.747V130.07c0-.87.062-.87.87-.87h3.169c.5,0,.5.373.5.684v21.811c0,.5.186.684.684.684h6.9c.746,0,.808.124.808.87v2.175c0,.808-.124.87-.932.87H123.27c-.87,0-.87-.062-.87-.932C122.524,151.2,122.524,146.972,122.524,142.747Z" transform="translate(-51.346 -116.406)" fill="#eb3b2f"/>
  <path id="Path_1472" data-name="Path 1472" d="M180.983,153.035c0-2.486-.062-4.971,0-7.457.062-1.989-.186-1.616,1.616-1.678h9.135c.746,0,.808.062.808.87v2.61c0,.621-.186.746-.746.684-1.926-.062-3.915-.062-5.841-.062-.435,0-.684.186-.684.746v11.682c0,1.491,0,1.491-1.429,1.429h-2.113c-.435,0-.621-.186-.621-.559s-.062-.746-.062-1.181c-.062-2.361-.062-4.723-.062-7.084Z" transform="translate(-73.514 -121.971)" fill="#eb3b2f"/>
  <path id="Path_1473" data-name="Path 1473" d="M57.361,119.417a.061.061,0,0,1-.062-.062c-2.8-1.616-5.655-3.107-8.327-4.909a1.55,1.55,0,0,0-1.554-.249l-5.593,3.169c-1.243.684-2.423,1.491-3.666,2.113a1.524,1.524,0,0,0-.994,1.74c.062,3.107,0,6.214,0,9.383a.832.832,0,0,1-.5.87c-.808.435-1.678.87-2.486,1.367-1.3.808-2.672,1.429-3.915,2.3-.746.5-.808.373-.808-.5V115.316a1.215,1.215,0,0,0-.746-1.243c-1.243-.684-2.486-1.367-3.666-2.051-1.8-1.056-3.666-2.113-5.468-3.169a1.437,1.437,0,0,0-1.491-.062c-1.678.932-3.356,1.864-4.971,2.858-1.3.746-2.61,1.616-3.915,2.3a1.891,1.891,0,0,0-1.119,1.864c0,1.678.062,3.356,0,4.971-.062,4.039,0,8.016,0,12.055v12.739a17.433,17.433,0,0,1,0,2.548,1.113,1.113,0,0,0,.559,1.243c1.616.87,3.169,1.864,4.785,2.734,1.926,1.119,3.915,2.3,5.841,3.418,1.74.994,3.542,2.051,5.282,3.045,1.119.621,2.237,1.243,3.293,1.926a1.128,1.128,0,0,0,1.243,0c1.119-.621,2.175-1.3,3.293-1.926,2.486-1.429,5.033-2.858,7.519-4.35,1.491-.808,2.921-1.678,4.412-2.486,1.119-.621,2.113-1.367,3.293-1.926a1.769,1.769,0,0,0,1.181-1.926c-.062-3.107,0-6.214,0-9.321a.992.992,0,0,1,.5-.87c.87-.559,1.864-.932,2.734-1.491,1.926-1.243,3.853-2.361,5.9-3.418a1.591,1.591,0,0,0,.621-.808,3.829,3.829,0,0,0,.062-1.678c0-2.858-.062-5.717.124-8.575A1.849,1.849,0,0,0,57.361,119.417Zm-48.9,19.574v0Zm37.906-14.727c-1.056-.684-2.175-1.181-3.169-1.8a17.5,17.5,0,0,0-2.361-1.3c-.435-.186-.435-.5,0-.684,1.616-.808,3.045-1.864,4.661-2.672a17.121,17.121,0,0,0,1.8-1.056,1.044,1.044,0,0,1,1.119-.062c.808.435,1.554.932,2.361,1.367a20.516,20.516,0,0,1,1.989,1.119c.684.435,1.367.808,2.051,1.181.124.062.373.062.373.311,0,.311-.249.373-.435.5l-2.61,1.491c-1.243.746-2.548,1.429-3.791,2.113a.747.747,0,0,1-.5.124C47.294,124.947,46.8,124.512,46.362,124.264ZM27.471,117.8v18.456a.752.752,0,0,1-.435.808c-2.051,1.119-3.915,2.361-5.966,3.418-.249.124-.559.124-.746.435-.124.124-.249.249-.435.186-.186-.124-.124-.311-.124-.435V122.648a1.5,1.5,0,0,1,.87-1.554c2.113-1.119,4.163-2.361,6.214-3.542C27.409,117.118,27.471,117.118,27.471,117.8Zm-15.908-2.921c2.051-1.181,4.039-2.361,6.09-3.48.373-.186.684-.559,1.119-.5a1.171,1.171,0,0,1,.5.124c2.175,1.243,4.35,2.548,6.525,3.791.684.435.684.435,0,.87-2.113,1.243-4.226,2.361-6.276,3.666a1.488,1.488,0,0,1-1.74-.124c-1.8-1.056-3.666-2.113-5.468-3.107a9.2,9.2,0,0,1-.808-.5C11.19,115.316,11.19,115.129,11.563,114.881Zm16.094,42.5c0,.684-.186.808-.746.435-3.231-1.864-6.463-3.791-9.694-5.655-2.237-1.3-4.536-2.61-6.773-3.853a.832.832,0,0,1-.5-.87V117.49c0-.186-.062-.5.124-.621.249-.186.435.062.684.186,2.3,1.3,4.6,2.672,6.9,3.977a.882.882,0,0,1,.435.87V132.28h0v10.067a1.633,1.633,0,0,0,.994,1.616c1.678.87,3.231,1.8,4.847,2.734,1.119.621,2.175,1.243,3.293,1.864a.964.964,0,0,1,.559.932C27.658,152.1,27.658,154.775,27.658,157.385ZM28.9,147.007a1.17,1.17,0,0,1-.5.124,5.038,5.038,0,0,1-1.3-.621c-1.74-.994-3.418-1.988-5.158-2.983-.311-.186-.87-.124-.87-.621,0-.435.559-.435.808-.559,2.051-1.181,4.1-2.361,6.214-3.542,1.243-.684,2.423-1.491,3.6-2.175,1.989-1.056,3.977-2.175,5.9-3.356a.747.747,0,0,1,.87,0l4.661,2.61A19.491,19.491,0,0,1,45.057,137c.435.311.373.559-.062.808-2.3,1.243-4.536,2.548-6.835,3.853-1.181.684-2.423,1.429-3.6,2.051-1.119.621-2.237,1.3-3.356,1.926C30.454,146.075,29.708,146.635,28.9,147.007Zm17.524,1.119-6.152,3.542c-1.74.994-3.418,1.989-5.158,2.921-1.678.932-3.356,1.926-5.033,2.921-.5.249-.621.249-.621-.373v-7.581c0-.746.621-.808.932-.994,2.486-1.491,5.033-2.858,7.457-4.35,1.678-.994,3.418-1.864,5.1-2.858,1.119-.621,2.175-1.3,3.293-1.926.559-.311.621-.249.621.311v3.791h0v3.728A.792.792,0,0,1,46.424,148.126Zm.621-16.9v3.915c0,.746-.124.808-.746.435-2.3-1.3-4.6-2.672-6.9-3.977a.788.788,0,0,1-.435-.808v-7.954c0-.746.124-.808.746-.435,2.237,1.3,4.474,2.672,6.773,3.915a1,1,0,0,1,.559.994C47.045,128.676,47.045,129.919,47.045,131.224Zm9.818-.5a.964.964,0,0,1-.559.932c-2.3,1.3-4.661,2.672-6.96,3.977-.559.311-.684.249-.684-.435v-7.83a.8.8,0,0,1,.5-.87c2.361-1.367,4.661-2.672,6.96-4.039.559-.311.808-.186.808.435C56.864,125.507,56.864,128.117,56.864,130.726Z" transform="translate(-8.056 -108.611)" fill="#eb3b2f"/>
  <path id="Path_1474" data-name="Path 1474" d="M276.848,153.969c-2.113-.062-4.412.062-6.711-.062a2.331,2.331,0,0,0-.684.062c-.311.124-.5.311-.373.808a6.56,6.56,0,0,0,1.988,3.107,4.864,4.864,0,0,0,2.051.994,7.125,7.125,0,0,0,3.791-.124,6.894,6.894,0,0,0,3.045-1.926.79.79,0,0,1,1.243-.124c.559.435,1.119.87,1.678,1.243.311.249.249.435,0,.684a13.189,13.189,0,0,1-4.661,3.045,9.554,9.554,0,0,1-3.728.373,10.193,10.193,0,0,1-5.033-1.367,8.493,8.493,0,0,1-3.977-5.344,12.447,12.447,0,0,1-.249-4.785,9.748,9.748,0,0,1,1.678-3.977,11.008,11.008,0,0,1,3.666-3.107,8.581,8.581,0,0,1,3.915-.87,8.8,8.8,0,0,1,5.282,1.554,8.274,8.274,0,0,1,2.672,2.983,11.794,11.794,0,0,1,1.429,4.474c.062.559-.062,1.119,0,1.74.062.435-.311.559-.684.559C281.2,153.969,279.147,153.969,276.848,153.969Zm-2.237-3.107h0c1.553,0,3.107-.062,4.661,0,.559,0,.746-.249.684-.746a5.462,5.462,0,0,0-.746-1.74c-1.367-2.361-3.915-2.8-6.4-2.113-1.926.5-2.858,2.051-3.48,3.728-.186.559.062.932.746.932C271.566,150.862,273.12,150.862,274.611,150.862Z" transform="translate(-105.374 -121.476)" fill="#eb3b2f"/>
  <path id="Path_1475" data-name="Path 1475" d="M244.147,161.988c-.621,0-1.3-.062-1.926,0a.877.877,0,0,1-1.056-.746c-.373-1.367-1.056-2.61-1.491-3.915-.621-1.8-1.429-3.6-2.113-5.406-.746-1.926-1.367-3.915-2.175-5.779a9.729,9.729,0,0,0-.746-1.864c-.249-.5,0-.684.435-.684h3.045a.467.467,0,0,1,.435.311c.373.994.808,1.926,1.181,2.921l1.3,3.356,1.864,4.847c.249.684.559,1.429.808,2.113.062.249.186.5.5.5.249,0,.373-.186.435-.435a41.149,41.149,0,0,1,1.491-3.853c.932-2.548,1.926-5.033,2.858-7.581.186-.5.373-1.056.559-1.554a.856.856,0,0,1,.994-.621c.808.062,1.678,0,2.486,0,.746,0,.808.186.559.808-.5,1.243-1.056,2.423-1.429,3.666-.559,1.616-1.181,3.231-1.8,4.785-.5,1.243-.994,2.424-1.429,3.666-.559,1.554-1.243,3.107-1.74,4.723a.906.906,0,0,1-1.056.746c-.684-.062-1.367,0-1.989,0Z" transform="translate(-93.801 -121.852)" fill="#eb3b2f"/>
  <path id="Path_1476" data-name="Path 1476" d="M219.661,152.345v7.892c0,1.367,0,1.367-1.429,1.367h-1.8c-.559,0-.808-.186-.808-.808v-.311c0-.373.124-.87-.311-.994-.373-.124-.684.311-.932.559a6.635,6.635,0,0,1-3.418,1.864,9.765,9.765,0,0,1-3.293,0,7.833,7.833,0,0,1-2.61-.994,9.126,9.126,0,0,1-4.226-4.909,9.633,9.633,0,0,1-.559-4.412,7.969,7.969,0,0,1,.808-3.169,9.075,9.075,0,0,1,8.762-5.531,6.421,6.421,0,0,1,4.909,2.237.6.6,0,0,0,.746.249c.249-.062.186-.373.186-.621,0-1.491,0-1.491,1.553-1.491h1.616c.621-.062.808.186.808.808v8.265Zm-10.067-5.717a4.687,4.687,0,0,0-3.666,1.616,6.274,6.274,0,0,0-1.367,6.028,5.44,5.44,0,0,0,8.2,3.293c2.3-1.491,2.921-3.728,2.548-6.4A5.39,5.39,0,0,0,209.594,146.628Z" transform="translate(-80.811 -121.593)" fill="#eb3b2f"/>
  <path id="Path_1477" data-name="Path 1477" d="M299.5,142.747V130.008c0-.621.186-.808.808-.808.87.062,1.678,0,2.548,0,.5,0,.684.124.684.621v25.726c0,.746-.124.87-.808.87h-2.486c-.559,0-.746-.186-.746-.746Z" transform="translate(-118.394 -116.406)" fill="#eb3b2f"/>
</svg>
