<svg xmlns="http://www.w3.org/2000/svg" width="147.398" height="38.756" viewBox="0 0 147.398 38.756">
  <g id="Mongo_DB" data-name="Mongo DB" transform="translate(-43.844 -103.3)">
    <path id="Path_1854" data-name="Path 1854" d="M51.919,137.419a4.654,4.654,0,0,1-1.076-.76,20.024,20.024,0,0,1-6.52-10.381,18.181,18.181,0,0,1-.38-6.14,24.133,24.133,0,0,1,1.519-6.647,20.2,20.2,0,0,1,5.634-7.976,2.633,2.633,0,0,0,1.266-2.215h.063c.063.063.063.19.127.253,0,.063-.063.063-.063.127a7.778,7.778,0,0,1,.127,1.709c.063,1.013.063,2.026.127,3.038.063,1.076,0,2.152.063,3.228.063,2.215,0,4.431.063,6.647.063,1.962,0,3.861.063,5.824.063,1.266,0,2.6-.063,3.861,0,.38-.063.76-.063,1.076,0,1.266-.19,2.469-.19,3.735-.127,0-.063.127-.063.19a18.155,18.155,0,0,1-.317,2.6A8.558,8.558,0,0,1,51.919,137.419Z" transform="translate(0)" fill="#10a950"/>
    <path id="Path_1855" data-name="Path 1855" d="M57.727,132.945c-.063-1.266.19-2.469.19-3.735a5.792,5.792,0,0,1,.063-1.076c.063-1.266.063-2.6.063-3.861-.063-1.962,0-3.861-.063-5.824-.063-2.215,0-4.431-.063-6.647-.063-1.076,0-2.152-.063-3.228-.063-1.013-.063-2.026-.127-3.038-.063-.57-.063-1.139-.127-1.709,0-.063,0-.063.063-.127.127.316.317.633.443.886a9.462,9.462,0,0,0,1.772,2.405,20.3,20.3,0,0,1,3.735,4.937,25.637,25.637,0,0,1,2.532,7.09,17.06,17.06,0,0,1,.127,5.381,18.2,18.2,0,0,1-3.861,9.558,14.709,14.709,0,0,1-3.165,3.1.2.2,0,0,1-.127.063,1.747,1.747,0,0,1-.76-1.013A7.254,7.254,0,0,1,57.727,132.945Z" transform="translate(-5.048 -0.147)" fill="#12924f"/>
    <path id="Path_1856" data-name="Path 1856" d="M216.734,123.5h3.608a9.881,9.881,0,0,1,4.684.95,7.551,7.551,0,0,1,4.3,5.7,9.262,9.262,0,0,1-.57,5.7,8.659,8.659,0,0,1-5.254,4.748,12.833,12.833,0,0,1-4.874.7c-2.279,0-4.494-.063-6.773-.063-.317,0-.317-.127-.253-.317,0-.127.063-.19.063-.316a.743.743,0,0,1,.633-.57c1.2-.127,1.456-.38,1.519-1.583.063-.886.063-1.772.063-2.659,0-3.165.063-6.267,0-9.432,0-.886-.316-1.2-1.139-1.456a10.736,10.736,0,0,0-1.393-.253c-.253,0-.316-.063-.19-.316.316-.823.38-.823,1.2-.76C213.822,123.563,215.278,123.627,216.734,123.5Zm-.063,8.356c0,1.9,0,3.988.063,6.077a1.689,1.689,0,0,0,1.2,1.646,6.286,6.286,0,0,0,3.735.19,5.679,5.679,0,0,0,4.178-3.735,9.535,9.535,0,0,0,.506-4.811,6.675,6.675,0,0,0-3.418-5.381,9.361,9.361,0,0,0-5.7-.95c-.443.063-.57.253-.57.7Z" transform="translate(-61.383 -7.413)" fill="#22323d"/>
    <path id="Path_1857" data-name="Path 1857" d="M253.4,131.259c.253.063.506.127.7.19a5.066,5.066,0,0,1,2.342,1.456,4.3,4.3,0,0,1,.57,4.811,5.937,5.937,0,0,1-2.912,2.659,10.344,10.344,0,0,1-4.558.95c-2.089,0-4.178-.063-6.267-.063h-.7c-.19,0-.253-.063-.19-.253a3.873,3.873,0,0,1,.316-.76.253.253,0,0,1,.253-.127,4.092,4.092,0,0,0,1.266-.253.743.743,0,0,0,.57-.633,6.976,6.976,0,0,0,.127-1.139c.063-3.925.063-7.786.063-11.711,0-1.139-.253-1.393-1.393-1.519a5.541,5.541,0,0,0-1.013-.127c-.19,0-.19-.127-.19-.253a3.872,3.872,0,0,1,.316-.76.329.329,0,0,1,.253-.127c2.722.19,5.507,0,8.229.063a7.281,7.281,0,0,1,2.6.506,3.5,3.5,0,0,1,2.279,3.038,3.608,3.608,0,0,1-1.582,3.418A3.451,3.451,0,0,1,253.4,131.259Zm-4.3,1.139h-1.013c-.19,0-.316.063-.316.316,0,1.836,0,3.671.063,5.507a1.647,1.647,0,0,0,1.456,1.646,8.96,8.96,0,0,0,1.836.127,3.347,3.347,0,0,0,3.418-3.1,3.519,3.519,0,0,0-2.469-4.115A9.373,9.373,0,0,0,249.1,132.4Zm-1.329-4.241h0c-.063.886-.063,1.772-.063,2.6,0,.19.063.316.316.316.95,0,1.9.063,2.849,0a2.382,2.382,0,0,0,2.342-1.9,3.734,3.734,0,0,0,.127-.886,2.939,2.939,0,0,0-2.405-3.228,6.868,6.868,0,0,0-2.532-.19c-.506,0-.633.19-.633.7Z" transform="translate(-72.856 -7.45)" fill="#22323d"/>
    <path id="Path_1858" data-name="Path 1858" d="M84.931,139.35v3.1c0,.7.19.95.886,1.076a1.753,1.753,0,0,0,.57.063c.316,0,.316.19.316.38,0,.57,0,.633-.633.57a43.928,43.928,0,0,0-5,0c-.253,0-.38-.127-.38-.316v-.38c0-.19.063-.316.316-.316l.95-.19a.744.744,0,0,0,.633-.7,16.588,16.588,0,0,0,.063-1.772v-5a.815.815,0,0,0-.506-.823,7.542,7.542,0,0,0-1.266-.506c-.19-.063-.38-.127-.38-.38s.253-.316.443-.38a15.018,15.018,0,0,0,2.912-.7,3.57,3.57,0,0,0,.76-.253c.19-.063.253,0,.253.127v.57a2.6,2.6,0,0,1-.063.7c0,.127,0,.19.127.253s.19,0,.316-.063a9.257,9.257,0,0,1,.823-.57,7.412,7.412,0,0,1,2.152-1.013,3.129,3.129,0,0,1,3.165.886,2.81,2.81,0,0,1,.506.7c.127.19.253.253.443.063a12.69,12.69,0,0,1,2.342-1.393,3.546,3.546,0,0,1,5.127,2.722,8.438,8.438,0,0,1,.19,1.772c0,1.583,0,3.165-.063,4.748a.782.782,0,0,0,.57.886,7.357,7.357,0,0,0,1.139.253h.127c.19.253,0,.506,0,.76,0,.19-.127.253-.253.19-.76-.063-1.519-.063-2.279-.063-1.013,0-2.026,0-3.038.063-.19,0-.253,0-.253-.19V144.1c-.063-.57-.063-.57.506-.7,1.013-.19,1.139-.38,1.139-1.393,0-1.519.063-3.038,0-4.558a4.386,4.386,0,0,0-.19-1.266A2.589,2.589,0,0,0,94.11,134.6a5.541,5.541,0,0,0-1.646.76c-.19.127-.253.253-.19.443a11.576,11.576,0,0,1,.127,2.089v4.431c0,.633.19.823.76.949.253.063.506.127.823.19a.232.232,0,0,1,.253.253v.127c0,.506-.063.57-.57.57-1.646-.063-3.355-.063-5,0-.253,0-.38-.127-.38-.316v-.38c0-.19.127-.253.316-.317.253-.063.57-.127.823-.19.443-.127.7-.317.7-.823a35,35,0,0,0,0-5.76,2.546,2.546,0,0,0-1.772-2.279,2.981,2.981,0,0,0-1.962.19,5.131,5.131,0,0,0-1.139.633.9.9,0,0,0-.38.76c0,1.329,0,2.342.063,3.418Z" transform="translate(-13.453 -10.794)" fill="#22323d"/>
    <path id="Path_1859" data-name="Path 1859" d="M176.837,133.034a1.471,1.471,0,0,1-1.646,2.089c-.19,0-.443-.19-.57-.063s0,.38.063.57a5.113,5.113,0,0,1,0,1.962,4.29,4.29,0,0,1-2.659,3.038,5.461,5.461,0,0,1-2.279.506,1.069,1.069,0,0,0-.633.19.687.687,0,0,0,.063,1.2,1.786,1.786,0,0,0,.95.253,32.329,32.329,0,0,1,3.482.316,3.76,3.76,0,0,1,1.646.443,3.023,3.023,0,0,1,1.393,3.545A4.781,4.781,0,0,1,174.495,150a7.783,7.783,0,0,1-6.836,1.266,3.758,3.758,0,0,1-2.722-2.6,1.879,1.879,0,0,1,.506-2.026A13.293,13.293,0,0,1,167.532,145c.063-.063.253-.127.19-.253,0-.127-.19-.127-.253-.19a2.3,2.3,0,0,1-1.393-1.266c-.19-.506-.19-.633.253-.886.506-.316,1.013-.57,1.519-.95.253-.19.253-.316-.063-.443a3.689,3.689,0,0,1-2.532-3.735,3.907,3.907,0,0,1,2.279-3.671,7.331,7.331,0,0,1,2.6-.823,6.3,6.3,0,0,1,3.038.506,4.074,4.074,0,0,0,1.519.316A2.3,2.3,0,0,0,176.837,133.034Zm-6.52,12.09h-.57a3.035,3.035,0,0,0-2.6,1.709,1.66,1.66,0,0,0-.127.949,2.387,2.387,0,0,0,1.266,1.836,4.335,4.335,0,0,0,2.785.633,3.857,3.857,0,0,0,2.342-.633,2.477,2.477,0,0,0,1.2-1.772,1.938,1.938,0,0,0-1.393-2.279A11.176,11.176,0,0,0,170.317,145.124Zm2.216-7.849a3.527,3.527,0,0,0-.7-2.342,2.411,2.411,0,0,0-2.6-.886,2.09,2.09,0,0,0-1.646,1.836,4.639,4.639,0,0,0,.38,2.912,2.471,2.471,0,0,0,1.266,1.266,2.065,2.065,0,0,0,2.975-1.393A3.12,3.12,0,0,0,172.532,137.275Z" transform="translate(-44.4 -10.807)" fill="#22323d"/>
    <path id="Path_1860" data-name="Path 1860" d="M144.43,139.149c0,1.456,0,2.469.063,3.481,0,.633.127.76.76.95.253.063.57.063.823.127a.168.168,0,0,1,.19.19v.127c0,.76-.063.823-.823.76-1.646-.063-3.355-.063-5,0-.253,0-.316-.063-.38-.316v-.253c0-.506,0-.57.57-.7.127,0,.253-.063.38-.063.7-.127.823-.317.886-1.013.127-2.152.063-4.368.063-6.52a.636.636,0,0,0-.38-.633,8.966,8.966,0,0,0-1.139-.506c-.127-.063-.253-.063-.38-.127a.374.374,0,0,1,0-.7.9.9,0,0,1,.38-.127,18.416,18.416,0,0,0,3.671-.949c.127-.063.19,0,.253.063a.938.938,0,0,1,.063.443c0,.38-.063.7-.063,1.076,0,.063-.063.19.063.19.063.063.127-.063.19-.063a9,9,0,0,1,2.089-1.329,3.585,3.585,0,0,1,5.254,2.785,9.582,9.582,0,0,1,.127,1.9v4.811a.609.609,0,0,0,.443.633,3.7,3.7,0,0,0,1.139.253.3.3,0,0,1,.317.316v.127c0,.633-.063.7-.7.7-1.709-.063-3.355-.063-5.064,0-.253,0-.316-.063-.316-.253V144.4c-.063-.633,0-.7.633-.76.95-.127,1.139-.316,1.139-1.266,0-1.646,0-3.292-.063-4.937a2.587,2.587,0,0,0-1.456-2.405,3.328,3.328,0,0,0-2.469,0,2.457,2.457,0,0,0-.7.38,1.175,1.175,0,0,0-.633,1.076C144.43,137.5,144.43,138.516,144.43,139.149Z" transform="translate(-35.225 -10.845)" fill="#22323d"/>
    <path id="Path_1861" data-name="Path 1861" d="M129.764,138.608a5.774,5.774,0,0,1-1.646,4.431,6.444,6.444,0,0,1-5.444,1.836,4.985,4.985,0,0,1-4.3-3.1,5.627,5.627,0,0,1-.506-1.962,6.546,6.546,0,0,1,.19-2.722,5.237,5.237,0,0,1,2.152-2.912,7.106,7.106,0,0,1,5.507-1.076,5.194,5.194,0,0,1,3.988,4.431A6.9,6.9,0,0,1,129.764,138.608Zm-9.432-.253a7.845,7.845,0,0,0,.443,2.469,4.319,4.319,0,0,0,2.279,2.659c1.583.633,3.418.253,3.925-1.772a7.548,7.548,0,0,0-.317-5,3.761,3.761,0,0,0-2.215-2.279,2.813,2.813,0,0,0-3.925,1.836A9.4,9.4,0,0,0,120.332,138.355Z" transform="translate(-27.142 -10.875)" fill="#22323d"/>
    <path id="Path_1862" data-name="Path 1862" d="M198.942,138.878a5.512,5.512,0,0,1-1.772,4.3,6.362,6.362,0,0,1-5.317,1.709,4.984,4.984,0,0,1-4.051-2.6,7.439,7.439,0,0,1-.76-2.279,6.07,6.07,0,0,1,.316-3.355,5.446,5.446,0,0,1,2.785-2.912,6.689,6.689,0,0,1,4.684-.57,5.189,5.189,0,0,1,3.988,4.494A3.332,3.332,0,0,1,198.942,138.878Zm-2.532.633a4.485,4.485,0,0,0-.063-.886,6.4,6.4,0,0,0-1.139-3.165,3.635,3.635,0,0,0-2.785-1.393,2.7,2.7,0,0,0-2.659,2.152,7.39,7.39,0,0,0,.57,5.317,3.515,3.515,0,0,0,2.026,1.9,2.739,2.739,0,0,0,3.861-1.962A8.964,8.964,0,0,0,196.41,139.511Z" transform="translate(-52.516 -10.891)" fill="#22323d"/>
    <path id="Path_1863" data-name="Path 1863" d="M57.36,149.9a9.733,9.733,0,0,0,.57,3.292,2.387,2.387,0,0,0,.76,1.013c-.127.633-.253,1.329-.38,1.962a19.206,19.206,0,0,0-.38,2.659c0,.253-.063.38-.38.317H57.3c-.19,0-.253-.063-.253-.253-.127-1.329-.253-2.659-.443-3.988v-.443c.127-.633.317-1.2.443-1.836.127-.886.19-1.709.317-2.6C57.3,150.09,57.233,149.963,57.36,149.9Z" transform="translate(-4.681 -17.102)" fill="#b7c3c1"/>
    <path id="Path_1864" data-name="Path 1864" d="M269.7,146.715a2.243,2.243,0,0,1,2.216-2.215,2.2,2.2,0,0,1,2.215,2.215,2.243,2.243,0,0,1-2.215,2.215A2.163,2.163,0,0,1,269.7,146.715Zm4.241,0a1.994,1.994,0,1,0-1.962,2.026A2.072,2.072,0,0,0,273.941,146.715Z" transform="translate(-82.889 -15.12)" fill="#22323d"/>
    <path id="Path_1865" data-name="Path 1865" d="M273.572,148.585a.4.4,0,0,1-.506-.19c-.127-.253-.253-.57-.38-.823-.063-.253-.253-.19-.443-.127-.19,0-.127.19-.127.253v.76c0,.127,0,.19-.127.19a.168.168,0,0,1-.19-.19V145.99c0-.127,0-.19.19-.19h.823a.575.575,0,0,1,.633.506c.063.443,0,.76-.38.886-.127.063-.127.127-.063.253C273.256,147.889,273.383,148.205,273.572,148.585Zm-1.393-2.026c0,.633-.063.506.316.506.57,0,.7-.127.7-.506s-.127-.443-.7-.506C272.053,146.053,272.243,146.37,272.18,146.56Z" transform="translate(-83.66 -15.597)" fill="#22323d"/>
  </g>
</svg>
