<svg xmlns="http://www.w3.org/2000/svg" xmlns:xlink="http://www.w3.org/1999/xlink" width="84.383" height="51.7" viewBox="0 0 84.383 51.7">
  <defs>
    <linearGradient id="linear-gradient" x1="0.681" y1="7.736" x2="0.279" y2="8.457" gradientUnits="objectBoundingBox">
      <stop offset="0" stop-color="#418640"/>
      <stop offset="0.329" stop-color="#428a41"/>
      <stop offset="0.635" stop-color="#419544"/>
      <stop offset="0.932" stop-color="#3fa848"/>
      <stop offset="1" stop-color="#40ad49"/>
    </linearGradient>
    <clipPath id="clip-path">
      <path id="Path_1488" data-name="Path 1488" d="M100.4,104.387a.932.932,0,0,0-.971,0l-8.044,4.644a.969.969,0,0,0-.486.85v9.288a1.006,1.006,0,0,0,.486.85l8.044,4.644a.932.932,0,0,0,.971,0l8.044-4.644a.969.969,0,0,0,.486-.85v-9.288a1.006,1.006,0,0,0-.486-.85Z" transform="translate(-90.9 -104.25)"/>
    </clipPath>
    <linearGradient id="linear-gradient-2" x1="0.433" y1="8.147" x2="1.592" y2="7.412" gradientUnits="objectBoundingBox">
      <stop offset="0.138" stop-color="#418640"/>
      <stop offset="0.403" stop-color="#529f45"/>
      <stop offset="0.714" stop-color="#66b647"/>
      <stop offset="0.908" stop-color="#6fbe4a"/>
    </linearGradient>
    <linearGradient id="linear-gradient-3" x1="-69.523" y1="2559.976" x2="83.529" y2="2559.976" gradientUnits="objectBoundingBox">
      <stop offset="0.092" stop-color="#6fbe4a"/>
      <stop offset="0.286" stop-color="#66b647"/>
      <stop offset="0.597" stop-color="#529f45"/>
      <stop offset="0.862" stop-color="#418640"/>
    </linearGradient>
    <linearGradient id="linear-gradient-4" x1="-0.043" y1="8.074" x2="1.016" y2="8.074" xlink:href="#linear-gradient-3"/>
    <linearGradient id="linear-gradient-5" x1="-305.048" y1="1280.349" x2="1.055" y2="1280.349" xlink:href="#linear-gradient-3"/>
    <linearGradient id="linear-gradient-6" x1="-1.037" y1="28.018" x2="1.01" y2="28.018" xlink:href="#linear-gradient-3"/>
    <linearGradient id="linear-gradient-7" x1="1.309" y1="25.395" x2="0.046" y2="29.536" xlink:href="#linear-gradient"/>
  </defs>
  <g id="node_js" data-name="node js" transform="translate(-0.001)">
    <g id="Group_195" data-name="Group 195" transform="translate(32.479 30.855)">
      <path id="Path_1478" data-name="Path 1478" d="M134.228,187.87a1.471,1.471,0,0,1-.789-.212l-2.55-1.518c-.395-.212-.182-.273-.061-.334a5.413,5.413,0,0,0,1.153-.516.194.194,0,0,1,.182,0l1.943,1.153a.335.335,0,0,0,.243,0l7.619-4.4a.255.255,0,0,0,.121-.212v-8.8a.307.307,0,0,0-.121-.212l-7.619-4.4a.332.332,0,0,0-.243,0l-7.619,4.4a.256.256,0,0,0-.121.212v8.8a.307.307,0,0,0,.121.212l2.094,1.214c1.123.577,1.821-.091,1.821-.759v-8.681a.207.207,0,0,1,.212-.212h.971a.207.207,0,0,1,.212.212V182.5a2.1,2.1,0,0,1-2.246,2.368,3.208,3.208,0,0,1-1.761-.486l-2-1.153a1.606,1.606,0,0,1-.789-1.4v-8.8a1.643,1.643,0,0,1,.789-1.4l7.619-4.4a1.681,1.681,0,0,1,1.609,0l7.619,4.4a1.606,1.606,0,0,1,.789,1.4v8.8a1.643,1.643,0,0,1-.789,1.4l-7.619,4.432A1.8,1.8,0,0,1,134.228,187.87Z" transform="translate(-125 -167.025)" fill="#699f63"/>
      <path id="Path_1479" data-name="Path 1479" d="M153.937,196.338c-3.339,0-4.037-1.518-4.037-2.823a.207.207,0,0,1,.212-.212h.971a.2.2,0,0,1,.212.182c.152,1,.607,1.518,2.61,1.518,1.609,0,2.277-.364,2.277-1.214,0-.486-.182-.85-2.7-1.093-2.094-.212-3.369-.668-3.369-2.337,0-1.548,1.305-2.459,3.46-2.459,2.428,0,3.642.85,3.794,2.671a.432.432,0,0,1-.061.182.232.232,0,0,1-.152.061h-1a.222.222,0,0,1-.213-.182c-.243-1.062-.82-1.4-2.368-1.4-1.761,0-1.943.607-1.943,1.062,0,.546.243.728,2.61,1.032,2.337.3,3.46.759,3.46,2.4C157.731,195.4,156.335,196.338,153.937,196.338Z" transform="translate(-142.342 -181.564)" fill="#699f63"/>
    </g>
    <g id="Group_196" data-name="Group 196" transform="translate(52.148 34.945)">
      <path id="Path_1480" data-name="Path 1480" d="M192.714,181.957a1.457,1.457,0,0,1-1.457,1.457,1.457,1.457,0,1,1,1.457-1.457Zm-2.7,0a1.225,1.225,0,0,0,1.214,1.245,1.25,1.25,0,0,0,1.244-1.245,1.229,1.229,0,0,0-2.459,0Zm.668-.82h.577c.182,0,.577,0,.577.425a.353.353,0,0,1-.3.395c.212.03.243.152.273.364.03.121.03.364.091.425h-.364c0-.091-.061-.486-.061-.516-.03-.091-.061-.152-.182-.152h-.273v.668h-.334v-1.609Zm.3.728h.243a.219.219,0,0,0,.243-.243c0-.212-.152-.212-.243-.212h-.273l.03.455Z" transform="translate(-189.8 -180.5)" fill="#699f63"/>
    </g>
    <path id="Path_1481" data-name="Path 1481" d="M36.121,109.415a.969.969,0,0,0-.486-.85l-8.074-4.644a.79.79,0,0,0-.455-.121h-.091a1.272,1.272,0,0,0-.455.121l-8.074,4.644a.969.969,0,0,0-.486.85l.03,12.506a.484.484,0,0,0,.243.425.466.466,0,0,0,.486,0l4.8-2.762a.969.969,0,0,0,.486-.85v-5.858a1.006,1.006,0,0,1,.486-.85l2.034-1.184a1.032,1.032,0,0,1,.971,0l2.034,1.184a.969.969,0,0,1,.486.85v5.858a1.006,1.006,0,0,0,.486.85l4.8,2.762a.466.466,0,0,0,.486,0,.484.484,0,0,0,.243-.425Z" transform="translate(-17.999 -92.137)"/>
    <path id="Path_1482" data-name="Path 1482" d="M176.379,65.443a.466.466,0,0,0-.486,0,.484.484,0,0,0-.243.425V78.253a.334.334,0,0,1-.182.3.329.329,0,0,1-.334,0l-2-1.153a.932.932,0,0,0-.971,0l-8.074,4.674a.969.969,0,0,0-.486.85v9.319a1.006,1.006,0,0,0,.486.85l8.074,4.674a.932.932,0,0,0,.971,0l8.074-4.674a.969.969,0,0,0,.486-.85V68.964a.969.969,0,0,0-.486-.85ZM175.65,89.18a.256.256,0,0,1-.121.212L172.767,91a.335.335,0,0,1-.243,0l-2.762-1.609a.256.256,0,0,1-.121-.212V85.962a.256.256,0,0,1,.121-.212l2.762-1.609a.335.335,0,0,1,.243,0l2.762,1.609a.255.255,0,0,1,.121.212V89.18Z" transform="translate(-119.404 -65.375)"/>
    <g id="Group_197" data-name="Group 197" transform="translate(66.324 11.739)">
      <path id="Path_1483" data-name="Path 1483" d="M254.075,112.807a.969.969,0,0,0,.486-.85v-2.246a1.006,1.006,0,0,0-.486-.85l-8.044-4.674a.932.932,0,0,0-.971,0l-8.074,4.674a.969.969,0,0,0-.486.85v9.319a.969.969,0,0,0,.486.85l8.044,4.583a.932.932,0,0,0,.971,0l4.857-2.7a.493.493,0,0,0,0-.85l-8.135-4.644a.484.484,0,0,1-.243-.425v-2.914a.484.484,0,0,1,.243-.425l2.519-1.457a.466.466,0,0,1,.486,0l2.519,1.457a.485.485,0,0,1,.243.425v2.307a.484.484,0,0,0,.243.425.466.466,0,0,0,.486,0Z" transform="translate(-236.5 -104.05)"/>
      <path id="Path_1484" data-name="Path 1484" d="M262.139,131.448a.193.193,0,0,1,.182,0l1.548.88a.167.167,0,0,1,.091.152v1.791a.167.167,0,0,1-.091.152l-1.548.88a.194.194,0,0,1-.182,0l-1.548-.88a.167.167,0,0,1-.091-.152v-1.76a.167.167,0,0,1,.091-.152Z" transform="translate(-253.215 -123.116)" fill="#699f63"/>
    </g>
    <g id="Group_205" data-name="Group 205" transform="translate(22.128 11.8)">
      <g id="Group_198" data-name="Group 198" transform="translate(0 0)">
        <path id="XMLID_143_" d="M100.4,104.387a.932.932,0,0,0-.971,0l-8.044,4.644a.969.969,0,0,0-.486.85v9.288a1.006,1.006,0,0,0,.486.85l8.044,4.644a.932.932,0,0,0,.971,0l8.044-4.644a.969.969,0,0,0,.486-.85v-9.288a1.006,1.006,0,0,0-.486-.85Z" transform="translate(-90.9 -104.25)" fill="url(#linear-gradient)"/>
      </g>
      <g id="Group_201" data-name="Group 201" transform="translate(0 0)">
        <g id="Group_200" data-name="Group 200">
          <g id="Group_199" data-name="Group 199" clip-path="url(#clip-path)">
            <path id="Path_1485" data-name="Path 1485" d="M99.29,104.421l-8.074,4.644a1,1,0,0,0-.516.85V119.2a.848.848,0,0,0,.243.607l9.045-15.48A.93.93,0,0,0,99.29,104.421Z" transform="translate(-90.761 -104.285)" fill="none"/>
            <path id="Path_1486" data-name="Path 1486" d="M121.5,136.041a1.48,1.48,0,0,0,.212-.091l8.044-4.644a1,1,0,0,0,.516-.85v-9.288a.975.975,0,0,0-.3-.668Z" transform="translate(-112.212 -115.567)" fill="none"/>
            <path id="Path_1487" data-name="Path 1487" d="M108.862,109.135l-8.074-4.644a.4.4,0,0,0-.243-.091L91.5,119.88a1.669,1.669,0,0,0,.273.212l8.074,4.644a1.09,1.09,0,0,0,.759.091l8.469-15.541A1.284,1.284,0,0,0,108.862,109.135Z" transform="translate(-91.318 -104.354)" fill="url(#linear-gradient-2)"/>
          </g>
        </g>
      </g>
      <g id="Group_204" data-name="Group 204" transform="translate(0 0)">
        <g id="Group_203" data-name="Group 203">
          <g id="Group_202" data-name="Group 202" clip-path="url(#clip-path)">
            <path id="Path_1489" data-name="Path 1489" d="M129.994,119.2v-9.288a1.037,1.037,0,0,0-.516-.85l-8.074-4.644a.909.909,0,0,0-.3-.121l8.833,15.086C129.994,119.355,129.994,119.264,129.994,119.2Z" transform="translate(-111.933 -104.285)" fill="none"/>
            <path id="Path_1490" data-name="Path 1490" d="M91.216,120a1,1,0,0,0-.516.85v9.288a1.037,1.037,0,0,0,.516.85l8.074,4.644a.854.854,0,0,0,.607.121L91.246,120Z" transform="translate(-90.761 -115.219)" fill="none"/>
            <path id="Path_1491" data-name="Path 1491" d="M117.891,99.1l-.091.061h.121Z" transform="translate(-109.635 -100.663)" fill="url(#linear-gradient-3)"/>
            <path id="Path_1492" data-name="Path 1492" d="M109.559,120.038a1.073,1.073,0,0,0,.486-.607l-8.833-15.086a.941.941,0,0,0-.7.121L92.5,109.081l8.651,15.754a1.712,1.712,0,0,0,.364-.121Z" transform="translate(-92.014 -104.3)" fill="url(#linear-gradient-4)"/>
            <path id="Path_1493" data-name="Path 1493" d="M151.061,155.391,151,155.3v.121Z" transform="translate(-132.757 -139.804)" fill="url(#linear-gradient-5)"/>
            <path id="Path_1494" data-name="Path 1494" d="M129.408,154.777l-8.044,4.644a1.712,1.712,0,0,1-.364.121l.152.3,8.924-5.16v-.121l-.212-.364A.845.845,0,0,1,129.408,154.777Z" transform="translate(-111.864 -139.038)" fill="url(#linear-gradient-6)"/>
            <path id="Path_1495" data-name="Path 1495" d="M129.408,154.777l-8.044,4.644a1.712,1.712,0,0,1-.364.121l.152.3,8.924-5.16v-.121l-.212-.364A.845.845,0,0,1,129.408,154.777Z" transform="translate(-111.864 -139.038)" fill="url(#linear-gradient-7)"/>
          </g>
        </g>
      </g>
    </g>
  </g>
</svg>
