<svg xmlns="http://www.w3.org/2000/svg" width="149.603" height="53.819" viewBox="0 0 149.603 53.819">
  <g id="Group_214" data-name="Group 214" transform="translate(-1078.474 -5240)">
    <g id="Group_212" data-name="Group 212" transform="translate(1139.757 5259.174)">
      <path id="Path_1726" data-name="Path 1726" d="M32.413,516.421v-5.527c0-.294,0-.294.293-.294H36.7a7.653,7.653,0,0,1,2.348.342,3.342,3.342,0,0,1,2.429,2.984,6.243,6.243,0,0,1-.049,1.908A3.284,3.284,0,0,1,39,518.524a6.753,6.753,0,0,1-1.891.31c-.8.016-1.582.016-2.381.016-.342,0-.342,0-.342.326v2.756c0,.359.016.342-.359.342H32.755c-.391,0-.359.033-.359-.375C32.413,520.073,32.413,518.247,32.413,516.421Zm1.973-1.712v1.875c0,.538-.082.473.457.473H36.6a7.271,7.271,0,0,0,1.027-.082,1.876,1.876,0,0,0,1.712-1.419,3.391,3.391,0,0,0,.1-1.4,1.745,1.745,0,0,0-1.255-1.533,3.88,3.88,0,0,0-.864-.179c-.913-.114-1.81-.033-2.723-.065-.2,0-.228.082-.228.245C34.4,513.339,34.386,514.024,34.386,514.709Z" transform="translate(-32.396 -509.896)" fill="#1e2a55"/>
      <path id="Path_1727" data-name="Path 1727" d="M520.067,534.52a.955.955,0,0,0-.033.424v3.685c0,.326,0,.326-.342.326h-1.3c-.2,0-.261-.065-.228-.245a1.065,1.065,0,0,0,0-.228V527.166c0-.326,0-.326.342-.342h1.3c.2,0,.245.065.245.245-.016.375,0,.766,0,1.141.13.049.147-.049.179-.114a3.583,3.583,0,0,1,4.745-.913,4.137,4.137,0,0,1,2.25,3.359,4.793,4.793,0,0,1-.62,3.212,4.031,4.031,0,0,1-3.995,2.054,3.741,3.741,0,0,1-2.2-1.06c-.081-.082-.163-.147-.261-.228Zm5.3-3.2a2.917,2.917,0,0,0-1.141-2.446,2.54,2.54,0,0,0-3.359.2,3.26,3.26,0,0,0-.391,3.929,2.592,2.592,0,0,0,3.734.668A2.754,2.754,0,0,0,525.366,531.324Z" transform="translate(-438.95 -523.348)" fill="#dc1e65"/>
      <path id="Path_1728" data-name="Path 1728" d="M339.332,521.094a7.193,7.193,0,0,1-4.7-1.679c-.245-.2-.245-.2-.033-.44.277-.342.554-.669.832-.995.2-.245.2-.245.44-.049a5.994,5.994,0,0,0,2.25,1.19,3.941,3.941,0,0,0,2.087.033,1.887,1.887,0,0,0,.652-.326,1.329,1.329,0,0,0-.114-2.185,6.016,6.016,0,0,0-1.533-.571c-.571-.147-1.141-.277-1.7-.456a5.039,5.039,0,0,1-1.565-.783,2.511,2.511,0,0,1-.978-1.549,3.925,3.925,0,0,1-.016-1.63,2.97,2.97,0,0,1,1.826-2.169,4.944,4.944,0,0,1,2.462-.44,6.662,6.662,0,0,1,3.489,1.125c.391.261.375.261.1.652-.212.31-.44.6-.636.913-.1.147-.179.163-.326.065a5.156,5.156,0,0,0-3.342-.913,2.263,2.263,0,0,0-.913.261,1.314,1.314,0,0,0-.081,2.25,5.2,5.2,0,0,0,1.207.489c.652.2,1.3.359,1.957.538a5.622,5.622,0,0,1,1.484.7,2.736,2.736,0,0,1,1.255,2.217,3.386,3.386,0,0,1-2.9,3.685C340.082,521.062,339.658,521.078,339.332,521.094Z" transform="translate(-285.199 -508.586)" fill="#dc1e65"/>
      <path id="Path_1729" data-name="Path 1729" d="M276.382,528.44v-1.109c0-.31,0-.31.326-.31h1.337c.163,0,.228.049.212.228v8.511c0,.114-.049.163-.163.163h-1.533c-.13,0-.179-.049-.179-.179v-.913c0-.065-.016-.13-.016-.179-.1-.049-.13.033-.163.065a3.865,3.865,0,0,1-5.8.065,4.219,4.219,0,0,1-1.19-2.527,5.194,5.194,0,0,1,.228-2.544,4.164,4.164,0,0,1,3.424-2.772,3.287,3.287,0,0,1,3.277,1.3,1.056,1.056,0,0,0,.13.147C276.284,528.391,276.284,528.391,276.382,528.44Zm.033,2.9a2.7,2.7,0,0,0-.163-.913,2.577,2.577,0,0,0-3.75-1.565,2.85,2.85,0,0,0-1.451,2.576,2.786,2.786,0,0,0,1.418,2.592,2.571,2.571,0,0,0,3.163-.44A3.132,3.132,0,0,0,276.414,531.342Z" transform="translate(-230.548 -523.53)" fill="#1e2a55"/>
      <path id="Path_1730" data-name="Path 1730" d="M399.466,511.209c.13-.016.147-.1.2-.163a3.306,3.306,0,0,1,3.016-1.4,3.4,3.4,0,0,1,1.37.342,3.046,3.046,0,0,1,1.647,2.266,5.762,5.762,0,0,1,.082.913v5.3c0,.114-.033.2-.179.2h-1.533c-.114,0-.163-.049-.163-.163v-4.516a4.782,4.782,0,0,0-.114-1.174,1.8,1.8,0,0,0-2.12-1.451,2.266,2.266,0,0,0-2.217,2.413c-.016,1.484,0,2.968,0,4.451v.261c0,.13-.049.179-.179.179h-1.533c-.114,0-.163-.049-.163-.163V506.53c-.033-.212.1-.261.277-.245h1.337c.261,0,.261.016.261.293v4.256A2.887,2.887,0,0,1,399.466,511.209Z" transform="translate(-338.029 -506.282)" fill="#dc1e65"/>
      <path id="Path_1731" data-name="Path 1731" d="M130.826,533.23a2.787,2.787,0,0,0,1.842,1.027,3.064,3.064,0,0,0,2.821-.962c.13-.147.212-.147.326,0,.261.31.522.587.8.88.1.114.147.179,0,.31a5.024,5.024,0,0,1-4.044,1.467,4.385,4.385,0,0,1-3.44-1.973,4.6,4.6,0,0,1,3.277-7.125,4.685,4.685,0,0,1,3.294.7,3.3,3.3,0,0,1,1.565,2.641c.016.293.033.293-.261.424-1.533.652-3.082,1.288-4.614,1.94C131.886,532.773,131.381,532.985,130.826,533.23Zm-.571-1.533c.114.049.2-.016.277-.049.9-.375,1.777-.766,2.674-1.141.587-.245,1.174-.505,1.761-.75.163-.065.179-.13.082-.277a1.935,1.935,0,0,0-.946-.75,3.041,3.041,0,0,0-3.408,1.109A2.515,2.515,0,0,0,130.256,531.7Z" transform="translate(-112.727 -523.46)" fill="#1e2a55"/>
      <path id="Path_1732" data-name="Path 1732" d="M458.642,536.013a4.572,4.572,0,0,1-1.076-9.049,4.644,4.644,0,0,1,5.071,2.1,4.572,4.572,0,0,1-2.919,6.832A6.361,6.361,0,0,1,458.642,536.013Zm2.772-4.565a2.8,2.8,0,0,0-5.527-.766,3.556,3.556,0,0,0-.049,1.174,2.79,2.79,0,0,0,4.239,2.087A2.659,2.659,0,0,0,461.414,531.448Z" transform="translate(-385.188 -523.504)" fill="#dc1e65"/>
      <path id="Path_1733" data-name="Path 1733" d="M186.658,533.2a7.283,7.283,0,0,0,1.533.88,3.9,3.9,0,0,0,1.728.277,1.272,1.272,0,0,0,.848-.375.743.743,0,0,0-.1-1.19,3.773,3.773,0,0,0-1.06-.522c-.457-.147-.929-.293-1.386-.457a4.017,4.017,0,0,1-1.011-.538,2.236,2.236,0,0,1-.31-3.391,3.321,3.321,0,0,1,1.908-.978,5.167,5.167,0,0,1,3.571.669c.261.147.261.147.13.408-.179.375-.375.75-.587,1.141a4.385,4.385,0,0,0-1.761-.669,3.088,3.088,0,0,0-1.337.049.981.981,0,0,0-.717.571.669.669,0,0,0,.31.88,2.972,2.972,0,0,0,.832.293,12.275,12.275,0,0,1,1.712.538,5.835,5.835,0,0,1,.783.391,2.15,2.15,0,0,1,1.092,2.2,2.68,2.68,0,0,1-2.2,2.478,5.236,5.236,0,0,1-2.462-.049,6.475,6.475,0,0,1-2.2-.962c-.326-.228-.277-.2-.1-.505A9.406,9.406,0,0,0,186.658,533.2Z" transform="translate(-160.733 -523.479)" fill="#1e2a55"/>
      <path id="Path_1736" data-name="Path 1736" d="M241.578,520.236c.228.391.457.766.685,1.158a.172.172,0,0,1-.049.261,3,3,0,0,1-3.114.571,2.676,2.676,0,0,1-1.794-2.462c-.016-.2-.016-.408-.016-.62v-8.332c-.016-.179.065-.212.228-.212.473,0,.946.016,1.419,0,.2,0,.245.065.228.245-.016.734,0,1.484,0,2.217,0,.31,0,.31.31.31h1.761c.261,0,.277,0,.277.277v.962c0,.277,0,.277-.277.277h-1.908c-.114,0-.163.065-.147.163v4.255a1.86,1.86,0,0,0,.033.424,1.234,1.234,0,0,0,1.891.848A5.521,5.521,0,0,0,241.578,520.236Z" transform="translate(-203.88 -509.896)" fill="#1e2a55"/>
      <path id="Path_1738" data-name="Path 1738" d="M98.189,528.687a5.63,5.63,0,0,1,1.223-1.19,3.139,3.139,0,0,1,1.419-.538c.2-.033.261.033.261.228,0,.473,0,.946.016,1.418,0,.212-.082.261-.277.261a2.325,2.325,0,0,0-.75.114,2.505,2.505,0,0,0-1.728,1.924,5.142,5.142,0,0,0-.163,1.321v3.457c0,.294,0,.294-.293.294h-1.3c-.277,0-.277,0-.293-.31V527.5c0-.505-.033-.424.424-.424h1.158c.293,0,.293-.033.293.293C98.189,527.807,98.189,528.247,98.189,528.687Z" transform="translate(-85.878 -523.581)" fill="#1e2a55"/>
    </g>
    <g id="Group_213" data-name="Group 213" transform="translate(1078.474 5240)">
      <path id="Path_1724" data-name="Path 1724" d="M147.333,195.377a2.613,2.613,0,0,1-.75-.571,28,28,0,0,1-2.527-2.674,27.67,27.67,0,0,1-2.609-3.815,26.129,26.129,0,0,1-2.217-5.087,24.015,24.015,0,0,1-.88-3.669c-.147-.995-.245-1.989-.326-3a20.406,20.406,0,0,1-.033-2.446c.016-.522.065-1.044.114-1.565.049-.571.13-1.141.2-1.712.082-.636.245-1.272.391-1.908a26.306,26.306,0,0,1,1.386-4.288,27.485,27.485,0,0,1,4.337-7.044,25.569,25.569,0,0,1,2.462-2.511,29.073,29.073,0,0,1,3.294-2.544,27.186,27.186,0,0,1,8.43-3.652,28.93,28.93,0,0,1,2.886-.522,27.761,27.761,0,0,1,4.19-.212c.571.016,1.141.065,1.712.13.473.049.929.1,1.4.163a19.684,19.684,0,0,1,2.919.587,26.186,26.186,0,0,1,4.663,1.712,25.314,25.314,0,0,1,3.424,1.94,28.222,28.222,0,0,1,2.739,2.087c.8.7,1.549,1.451,2.283,2.217a20.937,20.937,0,0,1,1.794,2.185,28.041,28.041,0,0,1,2.527,4.19,26.63,26.63,0,0,1,2.12,6.245c.163.832.277,1.679.391,2.527a28.792,28.792,0,0,1,.114,4.435,21.319,21.319,0,0,1-.342,3.033,29.551,29.551,0,0,1-1.158,4.435,26.569,26.569,0,0,1-3.783,7.06,32.78,32.78,0,0,1-3.571,3.946,1.629,1.629,0,0,1-.473.326c-.114-.114-.228-.228-.342-.359a23.211,23.211,0,0,0-2.234-2.152,20.81,20.81,0,0,0-2.772-1.973c.049-.1.163-.13.245-.179a30.668,30.668,0,0,0,7.223-5.022c.2-.179.457-.326.571-.6h-.016c.1.033.13-.049.163-.1.179-.1.163-.212.049-.375-.326-.44-.636-.9-.946-1.337-.505-.717-1.027-1.419-1.533-2.136a1.47,1.47,0,0,1,.049-.261,16.56,16.56,0,0,0,.6-2.511,16,16,0,0,0,.277-3.065c-.016-.6.016-1.19-.049-1.794-.065-.554-.13-1.109-.212-1.663a26.008,26.008,0,0,0-.734-2.951,21.539,21.539,0,0,0-1.239-2.8,18.912,18.912,0,0,0-18.914-9.767,17.918,17.918,0,0,0-5.511,1.549,18.739,18.739,0,0,0-9.832,10.419,18.318,18.318,0,0,0-1.174,5.022,18.815,18.815,0,0,0,.082,4.174,17.639,17.639,0,0,0,.652,3.033c.033.114.033.261.179.326a1.185,1.185,0,0,0,.065.408,20.429,20.429,0,0,0,1.6,3.424,18.464,18.464,0,0,0,4.7,5.315c.1.082.245.114.245.277a.388.388,0,0,1-.212.147,22.988,22.988,0,0,0-4.712,3.506C148.246,194.415,147.806,194.9,147.333,195.377Z" transform="translate(-137.969 -148.15)" fill="#b1e0ea"/>
      <path id="Path_1725" data-name="Path 1725" d="M255.153,446.214a15.674,15.674,0,0,1-2.348,1.011,25.12,25.12,0,0,1-5.446,1.353,27.916,27.916,0,0,1-5.478.2,26.891,26.891,0,0,1-9.555-2.413c-.114-.049-.293-.016-.326-.212a.157.157,0,0,0,.1-.147,16.718,16.718,0,0,0,.326-2.38c.016-.522.016-.522.538-.522h21.457c.326.016.326.016.342.31A16.352,16.352,0,0,0,255.153,446.214Z" transform="translate(-216.668 -395.009)" fill="#070505"/>
      <path id="Path_1734" data-name="Path 1734" d="M250.215,440.439a16.353,16.353,0,0,1-.391-2.8c-.016-.31-.016-.31-.342-.31H228.024c-.522,0-.522,0-.538.522a14.42,14.42,0,0,1-.326,2.38c-.016.065-.033.13-.1.147a3.07,3.07,0,0,1-.962-.457,9.587,9.587,0,0,0,.228-1.549c.049-.522.082-1.044.082-1.565a.565.565,0,0,1,.587-.587c.163-.016.326,0,.505-.016h22.827a.583.583,0,0,1,.587.62c.033.489.065.995.1,1.484a.359.359,0,0,1-.016.13.274.274,0,0,0,.049.245c.016.424.147.815.179,1.239A4.954,4.954,0,0,1,250.215,440.439Z" transform="translate(-211.731 -389.234)" fill="#937961"/>
      <path id="Path_1735" data-name="Path 1735" d="M201.708,411.51c-.163,0-.326,0-.505.016a.575.575,0,0,0-.587.587c0,.522-.049,1.044-.082,1.565-.147,0-.212.114-.31.2l-.9.8a.979.979,0,0,1-.408-.212,26.486,26.486,0,0,1-3.408-2.446c-.082-.065-.2-.13-.212-.261.457-.473.913-.962,1.386-1.419a22.554,22.554,0,0,1,4.712-3.506c.082-.049.163-.065.212-.147a.345.345,0,0,1,.277.1c.375.245.75.505,1.109.75-.2.016-.179.2-.228.31-.294.913-.571,1.842-.832,2.772A5.153,5.153,0,0,0,201.708,411.51Z" transform="translate(-185.952 -364.528)" fill="#575855"/>
      <path id="Path_1737" data-name="Path 1737" d="M367.585,416.643c-.033-.489-.065-.995-.1-1.484a.6.6,0,0,0-.587-.62c-.163-.016-.326,0-.505,0a.606.606,0,0,0-.033-.293c-.326-1.076-.652-2.136-.962-3.212.375-.13.734-.261,1.109-.391a6.748,6.748,0,0,1,.962-.342,20.8,20.8,0,0,1,2.772,1.973,23.209,23.209,0,0,1,2.234,2.152c.114.114.228.245.342.359-.016.114-.114.163-.179.228a26.542,26.542,0,0,1-3.929,2.756c.016-.114-.065-.179-.147-.261A8.409,8.409,0,0,0,367.585,416.643Z" transform="translate(-328.318 -367.557)" fill="#575855"/>
      <path id="Path_1739" data-name="Path 1739" d="M220.1,450.595l.9-.8c.1-.082.163-.2.31-.2a10.146,10.146,0,0,1-.228,1.549A4.108,4.108,0,0,1,220.1,450.595Z" transform="translate(-206.708 -400.449)" fill="#121211"/>
      <path id="Path_1740" data-name="Path 1740" d="M378.8,449.2a8.4,8.4,0,0,1,.995.864.352.352,0,0,1,.147.261,3.73,3.73,0,0,1-.913.473c-.049-.408-.163-.815-.179-1.239a.274.274,0,0,0-.049-.245Z" transform="translate(-339.533 -400.114)" fill="#121211"/>
      <path id="Path_1741" data-name="Path 1741" d="M201.589,330.2c-.375-.245-.75-.489-1.109-.75a.345.345,0,0,0-.277-.1c0-.163-.147-.2-.245-.277a17.611,17.611,0,0,1-2.234-2.022,18.643,18.643,0,0,1-2.462-3.294,20.429,20.429,0,0,1-1.6-3.424,1.919,1.919,0,0,1-.065-.408.452.452,0,0,1,.016-.147,19.505,19.505,0,0,1,1.435-4.109,6.961,6.961,0,0,1,.75-1.37,1.65,1.65,0,0,0,.489.033h6.815a2.616,2.616,0,0,1,.717.065.278.278,0,0,1,.114.016c1.728.424,3.44.848,5.169,1.255a15.309,15.309,0,0,0,1.712.391,1,1,0,0,1,.326.261,2.548,2.548,0,0,0,3.147.1,2.639,2.639,0,0,0,1.044-2.006,14.879,14.879,0,0,0,2.087-.065c0,.082-.016.147-.016.228a15.644,15.644,0,0,1-.995,3.294c-.554,1.337-1.223,2.609-1.777,3.946a4.5,4.5,0,0,0-.457,1.288h0c-.065,0-.065.033-.049.082-.277.505-.375,1.092-.62,1.647a28.372,28.372,0,0,1-5.756-3,1.307,1.307,0,0,0,.212.31c.342.375.669.75,1.011,1.092a23.555,23.555,0,0,0,3.929,3.277.515.515,0,0,1,.277.522,3.407,3.407,0,0,0,2.022,3.294,8.455,8.455,0,0,0,2.821.783,7.951,7.951,0,0,0,1.761,0h0a7.375,7.375,0,0,1-1.141.554l-1.174.44a9.822,9.822,0,0,0-.978.326.359.359,0,0,0-.228.033.06.06,0,0,0-.082.033c-.082.016-.147.016-.228.033a16.91,16.91,0,0,1-3.13.489,20.71,20.71,0,0,1-6.326-.6c-.734-.261-1.484-.522-2.217-.783C203.367,331.175,202.454,330.719,201.589,330.2Z" transform="translate(-184.529 -287.21)" fill="#fff"/>
      <path id="Path_1742" data-name="Path 1742" d="M190.607,216.555a8.031,8.031,0,0,0-.75,1.37,20.123,20.123,0,0,0-1.435,4.109.452.452,0,0,0-.016.147c-.147-.065-.13-.212-.179-.326a17.638,17.638,0,0,1-.652-3.033,18.8,18.8,0,0,1-.082-4.174,18.319,18.319,0,0,1,1.174-5.022,18.739,18.739,0,0,1,9.832-10.419,17.917,17.917,0,0,1,5.511-1.549,18.516,18.516,0,0,1,10.093,1.549,18.756,18.756,0,0,1,8.821,8.218,21.538,21.538,0,0,1,1.239,2.8,10.617,10.617,0,0,1-.832-.88c.065-.033.065-.1.033-.163a7,7,0,0,0-1.94-3.065,2.35,2.35,0,0,0-2.625-.489,3.179,3.179,0,0,0-1.158.864,6.717,6.717,0,0,0-.946,1.386,14.291,14.291,0,0,0-1.272,3.913.184.184,0,0,0,.049.179c-.049.114-.1.212-.147.326-.2-.179-.408-.342-.6-.522a12.739,12.739,0,0,0-2.152-1.565c-.016-.065-.13-.049-.114-.147a1.384,1.384,0,0,0-.179-.424,10.085,10.085,0,0,0-1.451-1.973,9.693,9.693,0,0,0-3.424-2.332,8.594,8.594,0,0,0-2.625-.636,12.041,12.041,0,0,0-2.3.049,9.371,9.371,0,0,0-3.6,1.288,9.989,9.989,0,0,0-2.723,2.446,8.875,8.875,0,0,0-1.5,2.821c-.033.082-.1.163.033.228-.016.016-.016.049-.033.065a17.3,17.3,0,0,0-3.277,3.62A10.586,10.586,0,0,0,190.607,216.555Z" transform="translate(-179.351 -189.465)" fill="#575855"/>
      <path id="Path_1743" data-name="Path 1743" d="M353.642,298.458c.505.717,1.027,1.419,1.533,2.136.31.44.62.9.946,1.337.114.147.13.277-.049.375-.082,0-.163,0-.163.1h.016c-.2-.049-.342.065-.505.13a16.436,16.436,0,0,1-1.565.62,22.172,22.172,0,0,1-3.245.88,20.253,20.253,0,0,1-3.7.408,24.09,24.09,0,0,1-2.87-.065c-.685-.065-1.37-.147-2.038-.245a6.576,6.576,0,0,1,.946-2.56A32.986,32.986,0,0,0,345,297.757a10.293,10.293,0,0,0,.88-4.631,7.188,7.188,0,0,0-.245-1.777,11.974,11.974,0,0,0-.571-2.12,8.868,8.868,0,0,1-.31-.929,34.146,34.146,0,0,1,3,2.951l1.223,1.321.049.049a.189.189,0,0,0,.082.114c1.043,1.255,2.087,2.527,3.082,3.848C352.68,297.219,353.169,297.838,353.642,298.458Z" transform="translate(-308.733 -265.449)" fill="#db1964"/>
      <path id="Path_1744" data-name="Path 1744" d="M341.708,376.568c.685.114,1.353.179,2.038.245a28.1,28.1,0,0,0,2.87.065,18.781,18.781,0,0,0,3.7-.408,20.777,20.777,0,0,0,3.245-.88c.522-.2,1.044-.391,1.565-.62.163-.065.31-.179.505-.13a2.511,2.511,0,0,1-.571.6,31.66,31.66,0,0,1-7.223,5.022c-.1.049-.2.065-.245.179a4.24,4.24,0,0,0-.962.342c-.375.114-.734.261-1.109.391-.62.13-1.223.245-1.842.375h0c-.016-.228-.212-.31-.342-.44A5.6,5.6,0,0,1,341.708,376.568Z" transform="translate(-308.441 -337.868)" fill="#a22353"/>
      <path id="Path_1745" data-name="Path 1745" d="M384.949,314.511l-.049-.049c.7-.049,1.419-.016,2.12-.016a2.9,2.9,0,0,0,.391,1.419.794.794,0,0,0,1.451,0,2.713,2.713,0,0,0,.2-.375,3.173,3.173,0,0,0,.13-.359,6.6,6.6,0,0,0,.571-.6c.245,0,.489-.016.734-.016a17.711,17.711,0,0,1-.277,3.065,22.484,22.484,0,0,1-.6,2.511,1.47,1.47,0,0,0-.049.261c-.473-.62-.962-1.255-1.435-1.875-.995-1.3-2.038-2.576-3.082-3.848A.173.173,0,0,0,384.949,314.511Z" transform="translate(-344.638 -287.322)" fill="#fbfbfc"/>
      <path id="Path_1746" data-name="Path 1746" d="M406.981,275.061c-.245,0-.489.016-.734.016a1.4,1.4,0,0,0-.554-.636c-.082-.2-.163-.391-.245-.6.016-.016.016-.016.016-.033.016-.033,0-.049-.033-.049-.033-.049-.049-.1-.082-.147.1-.065.065-.147.049-.228-.228-1.043-.44-2.1-.668-3.147a.477.477,0,0,0-.13-.31V267.3c.212.13.342.326.538.473a10.615,10.615,0,0,0,.832.88,22.948,22.948,0,0,1,.734,2.951c.082.554.147,1.109.212,1.663C406.981,273.871,406.964,274.458,406.981,275.061Z" transform="translate(-361.126 -247.873)" fill="#c6c5c5"/>
      <path id="Path_1747" data-name="Path 1747" d="M427.3,374.4c.016-.1.1-.1.163-.1C427.414,374.349,427.4,374.414,427.3,374.4Z" transform="translate(-380.125 -337.427)" fill="#a22353"/>
      <path id="Path_1748" data-name="Path 1748" d="M254.084,412.664c.62-.13,1.223-.245,1.842-.375.326,1.076.652,2.136.962,3.212a.607.607,0,0,1,.033.293H234.6a4.442,4.442,0,0,1,.245-.913c.261-.929.554-1.842.832-2.772.033-.114.016-.293.228-.31a27.672,27.672,0,0,0,2.674,1.386c-.082.587-.359,1.125-.457,1.728q.88-.318,1.712-.636a4.773,4.773,0,0,0,.962-.326,20.661,20.661,0,0,0,6.326.6,16.907,16.907,0,0,0,3.131-.489,1.1,1.1,0,0,1,.228-.033c.033.016.065.016.082-.033a.278.278,0,0,1,.228-.033c.016.016.033.049.049.049a24.576,24.576,0,0,1,2.4.848.452.452,0,0,0,.147.016c0,.016,0,.016.016.033h.016l-.033-.033c-.016-.082-.016-.147-.033-.228-.13-.489-.277-.962-.424-1.451A6.826,6.826,0,0,0,254.084,412.664Z" transform="translate(-218.844 -368.812)" fill="#070505"/>
      <path id="Path_1749" data-name="Path 1749" d="M378.654,450a.256.256,0,0,1,.049.245A.274.274,0,0,1,378.654,450Z" transform="translate(-339.403 -400.784)" fill="#575855"/>
      <path id="Path_1750" data-name="Path 1750" d="M207,269.737a7.839,7.839,0,0,1,.8-1.337,17.3,17.3,0,0,1,3.277-3.62.124.124,0,0,0,.033-.065,17.876,17.876,0,0,1,2.429-1.679,15.077,15.077,0,0,1,9.424-1.859,3.831,3.831,0,0,1,1.043.212v1.3a1.765,1.765,0,0,0-.179.489c-.408,1.19-.8,2.364-1.19,3.554a2.869,2.869,0,0,0-.245,1.027.757.757,0,0,1-.293.261.443.443,0,0,0-.147,0c-2.234.554-4.484,1.109-6.718,1.663-.082.016-.179.033-.212.147a2.617,2.617,0,0,0-.717-.065h-6.815A1.65,1.65,0,0,1,207,269.737Z" transform="translate(-195.744 -242.647)" fill="#c6c5c5"/>
      <path id="Path_1751" data-name="Path 1751" d="M290.444,319.8a5.417,5.417,0,0,0,1.647,4.712c.13.13.326.212.342.44a7.951,7.951,0,0,1-1.761,0,8.456,8.456,0,0,1-2.821-.783,3.393,3.393,0,0,1-2.022-3.294.543.543,0,0,0-.277-.522,22.309,22.309,0,0,1-3.929-3.277c-.342-.359-.685-.734-1.011-1.092a1.479,1.479,0,0,1-.212-.31,27.991,27.991,0,0,0,5.756,3c.245-.538.342-1.125.62-1.647.049,0,.065-.033.049-.082h0a10.316,10.316,0,0,0,.962-.929c1.174-1.174,2.348-2.332,3.408-3.62a13.718,13.718,0,0,0,2.919-5.4,8.188,8.188,0,0,1,.245,1.777,10.293,10.293,0,0,1-.88,4.631,34.377,34.377,0,0,1-2.054,3.815A6.305,6.305,0,0,0,290.444,319.8Z" transform="translate(-257.177 -281.1)" fill="#070505"/>
      <path id="Path_1752" data-name="Path 1752" d="M326.988,280.485a13.513,13.513,0,0,1-2.919,5.4,47.793,47.793,0,0,1-3.408,3.62,10.4,10.4,0,0,1-.962.929,4.5,4.5,0,0,1,.457-1.288c.554-1.337,1.223-2.609,1.777-3.946a16.344,16.344,0,0,0,.995-3.294,1.075,1.075,0,0,0,.016-.228,17.808,17.808,0,0,0,.375-3.212,12.548,12.548,0,0,0,.049-1.565c-.049-.538-.049-1.06-.049-1.6a14.513,14.513,0,0,1,2.152,1.565c.2.179.408.342.6.522l.033.033a6.217,6.217,0,0,0,.31.929A11.188,11.188,0,0,1,326.988,280.485Z" transform="translate(-290.069 -254.569)" fill="#f8b135"/>
      <path id="Path_1753" data-name="Path 1753" d="M316.222,265.105c.016.538,0,1.06.049,1.6a12.548,12.548,0,0,1-.049,1.565,16.452,16.452,0,0,1-.375,3.212,12.7,12.7,0,0,1-2.087.065,2.624,2.624,0,0,0-.554-1.582c-.114-.147-.245-.293-.375-.44a1.309,1.309,0,0,0-.1-.489c-.277-.864-.554-1.728-.832-2.576-.228-.685-.457-1.37-.7-2.054v-1.3a1.075,1.075,0,0,1,.228.016,15.507,15.507,0,0,1,4.272,1.663c.114.065.228.179.375.163C316.075,265.057,316.206,265.04,316.222,265.105Z" transform="translate(-282.955 -244.358)" fill="#e9e5e3"/>
      <path id="Path_1754" data-name="Path 1754" d="M299.905,299.8c.13.147.245.277.375.44a2.483,2.483,0,0,1-.489,3.587,2.526,2.526,0,0,1-3.147-.1c-.114-.082-.2-.212-.326-.261a.8.8,0,0,0-.179-.326,2.494,2.494,0,0,1,.016-2.739c.082-.13.163-.261.245-.375a.648.648,0,0,0,.293-.261,1.265,1.265,0,0,0,.359-.2,2.511,2.511,0,0,1,2.446,0A2.1,2.1,0,0,1,299.905,299.8Zm-.7.7a.947.947,0,0,0-.929-.962.954.954,0,0,0-.033,1.908A.96.96,0,0,0,299.2,300.5Z" transform="translate(-270.013 -274.613)" fill="#070505"/>
      <path id="Path_1755" data-name="Path 1755" d="M263.376,303.733c-.082.13-.163.245-.245.375a2.494,2.494,0,0,0-.016,2.739c.065.114.163.2.179.326a12.377,12.377,0,0,1-1.712-.391c-1.728-.408-3.44-.832-5.169-1.255a.277.277,0,0,0-.114-.016c.033-.1.114-.114.212-.147,2.234-.554,4.484-1.109,6.718-1.663A.476.476,0,0,0,263.376,303.733Z" transform="translate(-237.006 -278.338)" fill="#6e706e"/>
      <path id="Path_1756" data-name="Path 1756" d="M258.974,421.166a5.144,5.144,0,0,1-.962.326c-.554.212-1.125.408-1.712.636.1-.6.375-1.141.457-1.728C257.49,420.645,258.24,420.905,258.974,421.166Z" transform="translate(-237.006 -376.01)" fill="#575855"/>
      <path id="Path_1757" data-name="Path 1757" d="M336.236,420.5c.147.489.277.962.424,1.451.016.065.016.147.033.228h0a.4.4,0,0,1-.147-.016c-.783-.342-1.6-.587-2.4-.848-.016,0-.033-.033-.049-.049a9.836,9.836,0,0,1,.978-.326C335.437,420.794,335.828,420.647,336.236,420.5Z" transform="translate(-302.121 -376.094)" fill="#575855"/>
      <path id="Path_1758" data-name="Path 1758" d="M332.082,425.313c-.016.049-.049.049-.082.033C332.033,425.3,332.049,425.28,332.082,425.313Z" transform="translate(-300.363 -380.108)" fill="#575855"/>
      <path id="Path_1759" data-name="Path 1759" d="M319.5,368.1c.016.049-.016.065-.049.081C319.437,368.133,319.437,368.1,319.5,368.1Z" transform="translate(-289.855 -332.238)" fill="#f8b135"/>
      <path id="Path_1760" data-name="Path 1760" d="M249.634,246.883c-.147.016-.261-.1-.375-.163a15.509,15.509,0,0,0-4.272-1.663,1,1,0,0,0-.228-.016,3.711,3.711,0,0,0-1.044-.212,15.078,15.078,0,0,0-9.424,1.859,17.878,17.878,0,0,0-2.429,1.679c-.114-.065-.049-.147-.033-.228a8.875,8.875,0,0,1,1.5-2.821,9.757,9.757,0,0,1,2.723-2.446,9.566,9.566,0,0,1,3.6-1.288,12.043,12.043,0,0,1,2.3-.049,8.593,8.593,0,0,1,2.625.636A9.693,9.693,0,0,1,248,244.5a10.264,10.264,0,0,1,1.451,1.973A1.152,1.152,0,0,1,249.634,246.883Z" transform="translate(-216.497 -226.282)" fill="#070505"/>
      <path id="Path_1761" data-name="Path 1761" d="M358.833,265.672a.035.035,0,0,0-.033-.033c.049-.114.1-.212.147-.326.1-.179.212-.375.31-.554a8.974,8.974,0,0,1,2.185-2.641,3.554,3.554,0,0,1,4.81.13v2.625c-.261,1.141-.505,2.283-.766,3.424a1.207,1.207,0,0,0-.016.342,4.506,4.506,0,0,0-.326,1.3c-.7.016-1.419-.016-2.12.016L361.8,268.64A28.324,28.324,0,0,0,358.833,265.672Z" transform="translate(-322.794 -242.805)" fill="#e9e5e3"/>
      <path id="Path_1762" data-name="Path 1762" d="M366.822,249.4a3.554,3.554,0,0,0-4.81-.13,8.975,8.975,0,0,0-2.185,2.641c-.114.179-.212.375-.31.554a.184.184,0,0,1-.049-.179,15.063,15.063,0,0,1,1.272-3.913,6.718,6.718,0,0,1,.946-1.386,3.534,3.534,0,0,1,1.158-.864,2.35,2.35,0,0,1,2.625.489,7.147,7.147,0,0,1,1.94,3.065.111.111,0,0,1-.033.163C367.164,249.724,367.034,249.529,366.822,249.4Z" transform="translate(-323.348 -229.971)" fill="#070505"/>
      <path id="Path_1763" data-name="Path 1763" d="M385.2,314.9c.049.016.065.065.082.114A.189.189,0,0,1,385.2,314.9Z" transform="translate(-344.889 -287.712)" fill="#e9e5e3"/>
      <path id="Path_1764" data-name="Path 1764" d="M397.9,305.119a4.506,4.506,0,0,1,.326-1.3c.1-.033.13-.147.2-.212a.713.713,0,0,1,1.125-.033c.065.065.1.147.2.179.033.049.049.1.082.147a.147.147,0,0,0,.016.082c.082.2.163.391.245.6,0,.408-.016.832-.016,1.239-.049.114-.082.245-.13.359a1.643,1.643,0,0,1-.2.375.79.79,0,0,1-1.451,0A2.96,2.96,0,0,1,397.9,305.119Zm.766-.929a.89.89,0,0,0,.163.6.274.274,0,0,0,.457,0,1.014,1.014,0,0,0,.016-1.109.275.275,0,0,0-.473,0A.616.616,0,0,0,398.666,304.189Z" transform="translate(-355.518 -278.012)" fill="#121211"/>
      <path id="Path_1765" data-name="Path 1765" d="M411.2,312.339c0-.408.016-.832.016-1.239a1.5,1.5,0,0,1,.554.636C411.575,311.932,411.412,312.16,411.2,312.339Z" transform="translate(-366.65 -284.532)" fill="#6e706e"/>
      <path id="Path_1766" data-name="Path 1766" d="M401.325,287c-.1-.033-.13-.114-.2-.179a.713.713,0,0,0-1.125.033c-.065.065-.1.179-.2.212a.614.614,0,0,1,.016-.342c.245-1.141.505-2.283.766-3.424a.445.445,0,0,1,.13.31c.228,1.043.44,2.087.669,3.147C401.407,286.854,401.439,286.936,401.325,287Z" transform="translate(-357.101 -261.264)" fill="#989a99"/>
      <path id="Path_1767" data-name="Path 1767" d="M409.716,306.982a.147.147,0,0,0-.016-.081c.033,0,.049.016.033.049C409.733,306.965,409.733,306.965,409.716,306.982Z" transform="translate(-365.395 -281.016)" fill="#989a99"/>
      <path id="Path_1768" data-name="Path 1768" d="M349.9,430.7l.033.033h-.016c0-.016,0-.016-.016-.033Z" transform="translate(-315.345 -384.631)" fill="#575855"/>
      <path id="Path_1769" data-name="Path 1769" d="M304.722,276.32c-.147-.082-.277-.179-.424-.245a2.511,2.511,0,0,0-2.446,0c-.13.065-.228.179-.359.2a2.715,2.715,0,0,1,.245-1.027c.375-1.19.783-2.364,1.19-3.554a1.263,1.263,0,0,1,.179-.489c.228.685.473,1.37.7,2.054.277.864.554,1.712.832,2.576A1.619,1.619,0,0,1,304.722,276.32Z" transform="translate(-274.83 -251.137)" fill="#989a99"/>
      <path id="Path_1770" data-name="Path 1770" d="M307.373,301.878a.922.922,0,0,1-.946.929.936.936,0,0,1-.929-.962.971.971,0,0,1,.962-.946A.959.959,0,0,1,307.373,301.878Z" transform="translate(-278.182 -275.994)" fill="#fbfbfc"/>
      <path id="Path_1771" data-name="Path 1771" d="M402.6,305.331a.91.91,0,0,1,.147-.522.275.275,0,0,1,.473,0,.983.983,0,0,1-.016,1.109.274.274,0,0,1-.457,0A.909.909,0,0,1,402.6,305.331Z" transform="translate(-359.453 -279.154)" fill="#fbfbfc"/>
    </g>
  </g>
</svg>
