<svg xmlns="http://www.w3.org/2000/svg" width="144" height="47.738" viewBox="0 0 144 47.738">
  <g id="Redis" transform="translate(-36.1 -14.669)">
    <g id="Group_220" data-name="Group 220" transform="translate(104.641 24.812)">
      <path id="Path_1907" data-name="Path 1907" d="M79.709,226.669a14.6,14.6,0,0,1-3.178.231c-.26-.029-.491-.029-.751-.058h-.173c-.347-.087-.722-.173-1.069-.231-.4-.144-.838-.289-1.242-.433a12.994,12.994,0,0,1-2.485-1.589c-.029-.029-.058-.029-.087-.058-.376-.376-.722-.78-1.1-1.156-.029-.029-.058-.087-.087-.116-.26-.376-.52-.751-.78-1.156a3.2,3.2,0,0,0-.491-.867c.029-.173-.087-.318-.144-.462-.116-.376-.231-.751-.376-1.156-.087-.4-.173-.838-.26-1.242-.029-.4-.058-.838-.087-1.242V216.7a2.668,2.668,0,0,0,.087-.838c.087-.462.173-.953.26-1.416.116-.376.26-.722.376-1.1.058-.173.116-.318.173-.491a2.712,2.712,0,0,0,.4-.751c.26-.4.549-.809.809-1.214l1.127-1.214a.261.261,0,0,0,.173-.173,13.961,13.961,0,0,1,2.485-1.589c.347-.116.722-.231,1.069-.376a11.394,11.394,0,0,1,4.074-.289,20.047,20.047,0,0,1,2.167.578,13.643,13.643,0,0,1,2.427,1.416c.173.145.347.289.491.433l.925,1.011c.058.087.116.144.173.231a15.193,15.193,0,0,1,1.329,2.427c.116.4.231.838.376,1.242.058.376.144.722.2,1.1a4.654,4.654,0,0,1-.029,1.416,2.712,2.712,0,0,1-.4.751,2.245,2.245,0,0,1-1.618.636H83.2a8.919,8.919,0,0,0-1.242,0,6.235,6.235,0,0,0-1.271,0,8.919,8.919,0,0,0-1.242,0H78.177a8.92,8.92,0,0,0-1.242,0H75.663a8.92,8.92,0,0,0-1.242,0H73.15c-.376,0-.751,0-1.127-.029-.173,0-.2.029-.144.173a3.854,3.854,0,0,0,.376.953,4.739,4.739,0,0,0,2.2,2.427,3.152,3.152,0,0,1,.318.173,3.254,3.254,0,0,0,.809.347,3.692,3.692,0,0,0,1.358.289,5.951,5.951,0,0,0,1.242,0,3.516,3.516,0,0,0,1.1-.2,3.69,3.69,0,0,0,1.358-.52.159.159,0,0,0,.144-.087,5.84,5.84,0,0,1,1.156-.693,3.88,3.88,0,0,1,1.011-.087A1.9,1.9,0,0,1,84.5,223.4c-.029.058-.029.116-.058.173a3.187,3.187,0,0,1-.751,1.011h0l-.087.087c-.144.116-.26.2-.4.318-.433.289-.838.549-1.271.838h0c-.4.173-.809.347-1.242.52A4.908,4.908,0,0,1,79.709,226.669Zm-1.3-11.528c1.387,0,2.8.058,4.19.116.087,0,.2.144.2-.058a2.324,2.324,0,0,0-.665-1.416,1.129,1.129,0,0,0-.4-.491,2.518,2.518,0,0,0-.809-.751,2.331,2.331,0,0,0-.693-.491,1.629,1.629,0,0,0-.578-.318A3.519,3.519,0,0,0,78.5,211.3a4.178,4.178,0,0,0-1.329-.26,2.97,2.97,0,0,0-1.329.173,3.51,3.51,0,0,0-1.329.491,1.837,1.837,0,0,0-.636.4,1.337,1.337,0,0,0-.607.52,4.143,4.143,0,0,0-.578.665,6.538,6.538,0,0,0-.376.578c-.2.4-.578.925-.433,1.387a3.851,3.851,0,0,0,.578,0A37.1,37.1,0,0,1,78.408,215.14Z" transform="translate(-56.422 -199.278)" fill="#636365"/>
      <path id="Path_1908" data-name="Path 1908" d="M29.4,210.94V209.7a3.121,3.121,0,0,1,.173-1.156,7.006,7.006,0,0,0,.4-.578,2.372,2.372,0,0,1,2.485-.4,2.139,2.139,0,0,1,1.185,2.109,4.554,4.554,0,0,1,1.185-.982c.462-.289.982-.462,1.474-.751.4-.116.78-.231,1.185-.347.491-.087,1.011-.173,1.5-.231a2.349,2.349,0,0,1,2.225.867,1.255,1.255,0,0,1,.116.2,2.4,2.4,0,0,1,.2,1.416A2.345,2.345,0,0,1,40,211.431c-.4.029-.838.087-1.242.116a4.342,4.342,0,0,0-1.56.636,6.8,6.8,0,0,0-2.2,2.427,5.071,5.071,0,0,0-.607,1.1,5.861,5.861,0,0,0-.578,1.387c-.029.058-.029.116-.058.173l-.087.173v2.254a8.914,8.914,0,0,0,0,1.242v1.242a8.914,8.914,0,0,0,0,1.242v1.734a7.465,7.465,0,0,0-.231.751h0c-.029,0-.029.029-.029.058a2.856,2.856,0,0,1-.9.867,3.48,3.48,0,0,1-1.214.231,3.09,3.09,0,0,1-1.214-.549c-.173-.231-.318-.462-.491-.665a2.752,2.752,0,0,1-.173-1.185V212.24C29.4,211.778,29.4,211.374,29.4,210.94Z" transform="translate(-29.4 -199.383)" fill="#636365"/>
      <path id="Path_1909" data-name="Path 1909" d="M216.84,227.447a3.313,3.313,0,0,1-1.3-.318,2.706,2.706,0,0,1-.78-.838,3.091,3.091,0,0,1-.26-1.242V210.14a2.992,2.992,0,0,1,.26-1.242,4.125,4.125,0,0,1,.665-.751,2.676,2.676,0,0,1,1.242-.347,3.073,3.073,0,0,1,1.242.347,4.124,4.124,0,0,1,.665.751,3.091,3.091,0,0,1,.26,1.242v15.342c0,.087-.029.173-.029.231-.058.2-.145.4-.2.578a3.471,3.471,0,0,1-.751.838A4.118,4.118,0,0,1,216.84,227.447Z" transform="translate(-161.018 -199.71)" fill="#636365"/>
      <path id="Path_1910" data-name="Path 1910" d="M146.886,207.509c-.578-.029-1.185-.029-1.762-.058-.433-.087-.9-.173-1.329-.26-.4-.144-.78-.26-1.185-.4a11.339,11.339,0,0,1-2.571-1.618c-.058-.058-.116-.087-.173-.144-.347-.347-.665-.722-1.011-1.069l-.087-.087c-.289-.4-.549-.838-.838-1.242-.116-.231-.231-.433-.347-.665-.087-.2-.173-.4-.26-.578-.144-.4-.26-.838-.4-1.242-.058-.318-.116-.607-.2-.925,0-.029,0-.087-.058-.087h.029v-.116l-.029-.029c-.029-.665-.029-1.329-.058-2.023a1.406,1.406,0,0,1,.029-.347v-.087c0-.058.029-.116.029-.173.087-.433.2-.9.289-1.329.116-.347.2-.665.318-1.011.087-.231.2-.462.289-.693.116-.231.26-.491.376-.722a13.226,13.226,0,0,1,2.051-2.514c.433-.318.838-.636,1.271-.954.4-.2.809-.433,1.242-.636.347-.116.665-.231,1.011-.376.029,0,.058-.029.087-.029.058,0,.116-.029.173-.029a9.908,9.908,0,0,1,4.016-.2c.289.058.549.144.838.2.52.2,1.04.376,1.589.578a4.67,4.67,0,0,1,.52.289c.26.144.52.318.78.491a.387.387,0,0,0,.029-.145v-7.108a2.488,2.488,0,0,1,.087-.809,2.544,2.544,0,0,1,.953-1.242,3.1,3.1,0,0,1,1.329-.318,2.388,2.388,0,0,1,1.878,1.5,13.322,13.322,0,0,1,.087,2.4c-.058.029-.058.058,0,.116v7.223c0,1.647-.029,3.294-.058,4.912,0,.809-.029,1.647-.029,2.456-.029,2.254.144,4.478.173,6.732a6.368,6.368,0,0,1-.116,1.04,3.785,3.785,0,0,1-.867,1.04,4.334,4.334,0,0,1-1.04.318,2.646,2.646,0,0,1-1.242-.318,2.8,2.8,0,0,1-.809-.838c-.2-.52-.2-.52-.693-.231-.347.2-.722.376-1.1.578-.4.145-.838.289-1.242.433A17.621,17.621,0,0,1,146.886,207.509Zm-1.7-4.536a2.361,2.361,0,0,0,1.1.144,2.606,2.606,0,0,0,1.242-.173,1.8,1.8,0,0,0,.751-.26,1.86,1.86,0,0,0,.578-.318,3.661,3.661,0,0,0,1.185-.925l.087-.087a3.631,3.631,0,0,0,.838-1.242,5.163,5.163,0,0,0,.578-2.918v-.26A4.192,4.192,0,0,0,150.96,195a5,5,0,0,0-2.051-2.254c-.116-.058-.231-.144-.376-.2a5.792,5.792,0,0,0-2.254-.52,3.6,3.6,0,0,0-1.242.173,2.383,2.383,0,0,0-.751.289,1.377,1.377,0,0,0-.636.347,3.848,3.848,0,0,0-1.185.982,3.259,3.259,0,0,0-.838,1.3,5.031,5.031,0,0,0-.578,2.514,4.644,4.644,0,0,0,.173,1.416,4.263,4.263,0,0,0,.376,1.011c0,.058,0,.116.087.087h-.029v.029a3.059,3.059,0,0,0,.838,1.242,3.231,3.231,0,0,0,1.185.982.976.976,0,0,0,.549.26A1.877,1.877,0,0,0,145.181,202.972Z" transform="translate(-105.626 -179.8)" fill="#636365"/>
      <path id="Path_1911" data-name="Path 1911" d="M245.687,227.165a11.194,11.194,0,0,1-6.877-2.051,3.1,3.1,0,0,1-1.416-1.56,3.436,3.436,0,0,1-.058-1.214,2.254,2.254,0,0,1,2.167-1.647l.693.173c.173.116.318.2.491.318a3.6,3.6,0,0,0,.925.665,6.953,6.953,0,0,0,2.572,1.069.8.8,0,0,1,.26.029,4.484,4.484,0,0,0,1.762-.087,3.056,3.056,0,0,0,1.734-.9,1.268,1.268,0,0,0,.491-.838.817.817,0,0,0-.4-.838,6.624,6.624,0,0,0-2.6-1.069,5.094,5.094,0,0,0-1.156-.2,10.321,10.321,0,0,0-1.358-.318,3.489,3.489,0,0,0-.52-.144,3.3,3.3,0,0,0-.751-.26c-.4-.2-.838-.4-1.242-.607-.173-.116-.318-.2-.491-.318-.231-.2-.462-.376-.693-.578-.231-.26-.433-.491-.665-.751a5.31,5.31,0,0,1-.838-2.427v-.26c.029-.347.058-.665.087-1.011.058-.231.116-.433.173-.665a2.086,2.086,0,0,0,.26-.578c.289-.4.549-.838.838-1.242a.337.337,0,0,0,.173-.173,7.518,7.518,0,0,1,2.427-1.589c.433-.116.867-.26,1.3-.376a9.848,9.848,0,0,1,3.9,0c.347.116.722.2,1.069.318.433.173.838.376,1.271.549.376.231.751.462,1.156.693.26.2.549.376.809.578.173.26.347.491.549.751.058.173.087.347.144.491a2.993,2.993,0,0,1-.116,1.242c-.029.029-.058.087,0,.116a2.14,2.14,0,0,1-3.236.578c-.173-.087-.318-.2-.491-.289a5.249,5.249,0,0,0-2.514-.953,3.291,3.291,0,0,0-1.5.087,3.005,3.005,0,0,0-1.763.925.705.705,0,0,0-.173.838,1.43,1.43,0,0,0,.867.665,4.332,4.332,0,0,0,1.329.491,2.072,2.072,0,0,0,.838.173,9.823,9.823,0,0,0,1.82.433c.318.087.636.2.925.289a15.1,15.1,0,0,1,2.658,1.3,6.049,6.049,0,0,0,.491.4l.029.029h.029c.231.289.462.549.693.838.087.116.145.26.231.376.173.433.376.838.549,1.271a5.167,5.167,0,0,1,0,2.572,6.145,6.145,0,0,1-3.5,3.929A10.979,10.979,0,0,1,245.687,227.165Z" transform="translate(-177.239 -199.514)" fill="#636365"/>
      <path id="Path_1921" data-name="Path 1921" d="M218.592,183.845a4.127,4.127,0,0,1-.665.751,2.388,2.388,0,0,1-2.514,0,3.268,3.268,0,0,1-.665-.751,2.673,2.673,0,0,1-.26-1.242,8.674,8.674,0,0,1,.087-1.242,2.248,2.248,0,0,1,2.254-1.56,6.474,6.474,0,0,1,.982.318c.058.029.116.087.173.116a2.584,2.584,0,0,1,.751,1.1,6,6,0,0,1,.087,1.242v.433c-.029.087-.029.173-.058.231A3.036,3.036,0,0,1,218.592,183.845Z" transform="translate(-161.008 -179.8)" fill="#636365"/>
    </g>
    <g id="Group_221" data-name="Group 221" transform="translate(36.1 14.669)">
      <path id="Path_1906" data-name="Path 1906" d="M88.244,15.718c.838-.26,1.676-.549,2.514-.809.347-.058.693-.087,1.04-.173a7.635,7.635,0,0,1,2.687.173c.78.26,1.56.549,2.34.809a10.564,10.564,0,0,0,1.329.52.978.978,0,0,0,.433.173c.318.144.665.26.982.4a7.166,7.166,0,0,0,1.185.433,8.882,8.882,0,0,0,1.214.491,7.739,7.739,0,0,0,1.358.52,4.353,4.353,0,0,0,1.011.4,4.38,4.38,0,0,0,.925.347,8.439,8.439,0,0,0,1.676.665,6.8,6.8,0,0,0,1.271.491l.26.087a4.352,4.352,0,0,0,1.011.4,10.563,10.563,0,0,0,1.329.52c.809.376,1.676.665,2.514.982a5.58,5.58,0,0,0,1.156.433.479.479,0,0,0,.347.144c.318.116.665.26.982.376a9.515,9.515,0,0,0,1.271.462c.4.173.809.318,1.214.491a2.056,2.056,0,0,1,1.214.982c.029.087.029.173.058.289-.087.058-.058.173-.087.26a5.214,5.214,0,0,1-2.08,1.531c-1.445.751-2.947,1.358-4.421,2.023-3.178,1.387-6.385,2.774-9.564,4.161-3.063,1.329-6.125,2.687-9.13,4.1a6.344,6.344,0,0,1-5.461.173c-1.474-.636-2.976-1.3-4.45-1.936l-8.755-3.641c-2.023-.838-4.045-1.676-6.068-2.543-1.358-.578-2.716-1.1-4.016-1.791-.693-.376-1.445-.722-1.734-1.56,0-.433.318-.665.578-.925a1.6,1.6,0,0,0,.231-.173c.4-.2.78-.376,1.185-.578.433-.173.838-.318,1.271-.491l1.3-.52a23.876,23.876,0,0,0,2.514-.982,5.579,5.579,0,0,0,1.156-.433c.4-.173.838-.318,1.242-.491a.106.106,0,0,0,.087-.029c.376-.144.722-.289,1.1-.433.462-.173.925-.376,1.416-.549a2.018,2.018,0,0,0,.578-.231,1.877,1.877,0,0,0,.665-.26,6.8,6.8,0,0,0,1.271-.491c.809-.26,1.618-.607,2.4-.925.4-.144.78-.318,1.185-.462.347-.144.722-.26,1.069-.4.116-.058.231-.087.347-.144.376-.144.78-.289,1.156-.433l2.514-.953C87.435,16.036,87.839,15.862,88.244,15.718Zm16.44,6.761H104.6a1.02,1.02,0,0,0-.4.087c-1.849.722-3.669,1.445-5.519,2.2-.809.318-1.647.665-2.543,1.011.665.26,1.271.462,1.82.693,1.791.693,3.554,1.387,5.345,2.109a1.136,1.136,0,0,0,1.3-.173,1.226,1.226,0,0,0,.549-.173c1.994-.78,3.958-1.56,5.952-2.369.347-.144.722-.289,1.156-.491-2.571-1.011-5.027-1.965-7.483-2.918C104.742,22.45,104.713,22.421,104.684,22.479ZM80.24,28.518a14.319,14.319,0,0,0,3.467-.376,6.459,6.459,0,0,0,2.832-1.271,1.269,1.269,0,0,0,0-2.08,4.771,4.771,0,0,0-1.762-.953,15.647,15.647,0,0,0-8.552-.2,6.073,6.073,0,0,0-2.283,1.04,1.355,1.355,0,0,0,0,2.34,5.747,5.747,0,0,0,1.618.838A15.943,15.943,0,0,0,80.24,28.518Zm3.554,2.023v.087a.216.216,0,0,1,.144.029c2.8,1.185,5.634,2.369,8.437,3.554.231.087.318.058.462-.144l1.647-2.427c.693-1.011,1.387-2.023,2.109-3.092C92.318,29.24,88.041,29.9,83.794,30.54ZM98.761,21.7a.106.106,0,0,0-.116-.116c-.953-.347-1.936-.665-2.86-1.04-.751-.289-.722-.116-.376-.867.231-.578.491-1.127.751-1.762-1.069.347-2.08.665-3.063,1.011a1.444,1.444,0,0,1-1.1,0c-.578-.26-1.185-.462-1.762-.693-.491-.2-1.011-.376-1.589-.607.376.722.693,1.358,1.04,1.994.116.231.116.289-.116.376-.607.2-1.214.433-1.82.665l-1.907.693c1.7.2,3.409.347,5.114.462a.534.534,0,0,1,.491.318c.26.52.578,1.011.867,1.5a6.758,6.758,0,0,0,.722,1.127c.318-.78.636-1.56.953-2.311.058-.116.058-.289.26-.289A6.647,6.647,0,0,0,95,22.074C96.218,21.959,97.49,21.814,98.761,21.7Z" transform="translate(-63.569 -14.669)" fill="#d72c1f"/>
      <path id="Path_1912" data-name="Path 1912" d="M63.529,52.82c.289.838,1.04,1.185,1.734,1.56a41.491,41.491,0,0,0,4.016,1.791c2.023.838,4.045,1.7,6.068,2.543,2.918,1.214,5.836,2.4,8.755,3.641,1.5.636,2.976,1.3,4.45,1.936a6.344,6.344,0,0,0,5.461-.173c3.034-1.416,6.068-2.8,9.13-4.1,3.207-1.358,6.385-2.774,9.564-4.161,1.5-.636,2.976-1.271,4.421-2.023a5.5,5.5,0,0,0,2.08-1.531v.26c0,1.7,0,3.409.029,5.085a1.472,1.472,0,0,1-.2.491,5.7,5.7,0,0,1-.982.867,1.115,1.115,0,0,0-.491.318c-.289.144-.607.289-.9.433-1.589.78-3.207,1.474-4.854,2.2-3.12,1.358-6.27,2.687-9.39,4.045q-4.377,1.907-8.668,3.9a6.057,6.057,0,0,1-4.218.4,24.7,24.7,0,0,1-2.745-1.1c-1.849-.809-3.727-1.56-5.605-2.34-2.283-.953-4.565-1.907-6.819-2.832-1.791-.751-3.554-1.474-5.316-2.225-.982-.4-1.994-.838-2.976-1.271-.607-.347-1.214-.665-1.791-1.011a.766.766,0,0,0-.173-.144,1.715,1.715,0,0,1-.607-.751v-.4C63.529,56.4,63.529,54.611,63.529,52.82Z" transform="translate(-63.356 -41.427)" fill="#a41d11"/>
      <path id="Path_1913" data-name="Path 1913" d="M103.617,49.288a14.633,14.633,0,0,1-4.652-.693,5.747,5.747,0,0,1-1.618-.838,1.355,1.355,0,0,1,0-2.34,5.875,5.875,0,0,1,2.283-1.04,15.647,15.647,0,0,1,8.552.2,4.771,4.771,0,0,1,1.762.953,1.3,1.3,0,0,1,0,2.08,6.148,6.148,0,0,1-2.832,1.271A13.411,13.411,0,0,1,103.617,49.288Z" transform="translate(-86.946 -35.44)" fill="#fefefe"/>
      <path id="Path_1914" data-name="Path 1914" d="M133,64.765c4.247-.665,8.524-1.3,12.829-1.965-.722,1.04-1.416,2.08-2.109,3.092-.549.809-1.127,1.618-1.647,2.427-.116.2-.231.231-.462.144-2.8-1.185-5.634-2.369-8.437-3.554a.314.314,0,0,0-.144-.029A.218.218,0,0,1,133,64.765Z" transform="translate(-112.775 -48.893)" fill="#fefefe"/>
      <path id="Path_1915" data-name="Path 1915" d="M152.873,28.974c-1.271.116-2.543.231-3.814.376-.26.029-.491.058-.751.087-.2,0-.2.173-.26.289-.318.751-.636,1.531-.953,2.311a6.758,6.758,0,0,1-.722-1.127,15.566,15.566,0,0,1-.867-1.5.534.534,0,0,0-.491-.318c-1.7-.144-3.381-.26-5.114-.462l1.907-.693c.607-.231,1.214-.462,1.82-.665.231-.087.26-.144.116-.376-.347-.636-.665-1.271-1.04-1.994.578.231,1.1.4,1.589.607.578.231,1.185.433,1.762.693a1.324,1.324,0,0,0,1.1,0c.982-.347,1.994-.665,3.063-1.011-.26.636-.52,1.185-.751,1.762-.318.78-.376.578.376.867.953.376,1.907.693,2.86,1.04C152.815,28.887,152.873,28.887,152.873,28.974Z" transform="translate(-117.682 -21.944)" fill="#fefefe"/>
      <path id="Path_1916" data-name="Path 1916" d="M184.166,47.623a1.187,1.187,0,0,1-1.3.173c-1.763-.722-3.554-1.416-5.345-2.109-.578-.231-1.156-.433-1.82-.693.925-.376,1.734-.693,2.543-1.011,1.849-.722,3.669-1.445,5.519-2.2a1.02,1.02,0,0,1,.4-.087Z" transform="translate(-143.137 -33.89)" fill="#ac2115"/>
      <path id="Path_1917" data-name="Path 1917" d="M205,47.623V41.7h.173c2.456.953,4.912,1.907,7.483,2.918-.433.2-.809.347-1.156.491-1.994.78-3.958,1.56-5.952,2.369A1.71,1.71,0,0,1,205,47.623Z" transform="translate(-163.972 -33.89)" fill="#790b00"/>
      <path id="Path_1918" data-name="Path 1918" d="M66,78.78c.982.433,1.994.838,2.976,1.271,1.762.751,3.554,1.5,5.316,2.225,2.283.953,4.565,1.907,6.819,2.832,1.878.78,3.727,1.56,5.605,2.34a20.909,20.909,0,0,0,2.745,1.1,6.073,6.073,0,0,0,4.218-.4c2.889-1.329,5.779-2.658,8.668-3.9,3.12-1.358,6.27-2.687,9.39-4.045,1.618-.722,3.265-1.387,4.854-2.2a10.573,10.573,0,0,0,1.474.607c.144.058.289.144.433.2.231.231.52.376.693.665a.8.8,0,0,1,0,.52c0,.029-.029.058-.029.087l-.087.173a8.381,8.381,0,0,1-2.485,1.618c-1.676.809-3.381,1.531-5.085,2.283-2.543,1.1-5.085,2.225-7.628,3.294-3.236,1.387-6.472,2.774-9.65,4.305a7.48,7.48,0,0,1-2.947.809,8.489,8.489,0,0,1-4.1-1.04c-1.82-.838-3.7-1.589-5.548-2.369-1.82-.78-3.669-1.5-5.49-2.283-2.311-.953-4.623-1.936-6.934-2.918a34.029,34.029,0,0,1-4.652-2.167A2.427,2.427,0,0,1,63.4,80.543l.087-.347a6.149,6.149,0,0,1,.751-.751c.347-.173.722-.347,1.069-.491A1.752,1.752,0,0,0,66,78.78Z" transform="translate(-63.285 -59.702)" fill="#d72c1f"/>
      <path id="Path_1919" data-name="Path 1919" d="M63.287,86.289a2.214,2.214,0,0,0,1.156,1.242A35.711,35.711,0,0,0,69.094,89.7c2.311.982,4.623,1.936,6.934,2.918,1.82.751,3.669,1.5,5.49,2.283,1.849.78,3.727,1.531,5.548,2.369a8.179,8.179,0,0,0,4.1,1.04,7.48,7.48,0,0,0,2.947-.809c3.149-1.56,6.414-2.918,9.65-4.305l7.628-3.294c1.7-.751,3.409-1.474,5.085-2.283A8.381,8.381,0,0,0,118.964,86c0,1.589,0,3.178.029,4.767a1.626,1.626,0,0,1-.52,1.329c-.231.173-.433.318-.665.491a4,4,0,0,0-.953.578,2.229,2.229,0,0,0-.549.231c-1.04.491-2.08.982-3.149,1.445-1.763.78-3.554,1.531-5.345,2.311-1.734.751-3.5,1.5-5.23,2.254l-4.941,2.167c-1.3.607-2.6,1.242-3.929,1.82a6.421,6.421,0,0,1-5.4.116c-.867-.376-1.734-.78-2.629-1.156L80.3,100.1c-2.311-.982-4.652-1.936-6.963-2.918-1.589-.665-3.207-1.329-4.8-1.994-1.069-.433-2.109-.9-3.178-1.329-.347-.318-.809-.4-1.156-.693-.433-.318-.953-.607-1.011-1.242V87.069C63.287,86.809,63.142,86.52,63.287,86.289Z" transform="translate(-63.142 -65.39)" fill="#a41d11"/>
      <path id="Path_1920" data-name="Path 1920" d="M65.651,111.293c1.069.433,2.109.9,3.178,1.329,1.589.665,3.207,1.329,4.8,1.994,2.311.982,4.652,1.936,6.963,2.918l5.374,2.254c.867.376,1.734.78,2.629,1.156a6.531,6.531,0,0,0,5.4-.116c1.329-.578,2.6-1.242,3.929-1.82,1.647-.751,3.294-1.445,4.941-2.167,1.734-.751,3.5-1.5,5.23-2.254,1.791-.78,3.554-1.531,5.345-2.311,1.04-.462,2.08-.953,3.149-1.445a1.846,1.846,0,0,1,.549-.231,4.55,4.55,0,0,1,2.225,1.271l.087.347c-.058.058-.087.087-.058.173-.029.087-.058.144-.087.231a11.3,11.3,0,0,1-3.525,2.138c-2.225,1.011-4.45,1.965-6.7,2.947-1.907.838-3.814,1.618-5.721,2.456-1.849.809-3.7,1.589-5.519,2.427-1.329.578-2.6,1.242-3.929,1.82a6.487,6.487,0,0,1-5.432,0c-1.676-.751-3.352-1.445-5.027-2.167-1.994-.838-4.016-1.676-6.01-2.485-2.254-.953-4.507-1.878-6.79-2.832-1.849-.78-3.7-1.5-5.461-2.427a3.432,3.432,0,0,1-1.589-1.416,1.34,1.34,0,0,1,.491-.925c.144-.029.231-.144.347-.2A9.528,9.528,0,0,1,65.651,111.293Z" transform="translate(-63.427 -82.882)" fill="#d72c1f"/>
      <path id="Path_1922" data-name="Path 1922" d="M101.284,131.255a25.794,25.794,0,0,0-2.427,1.069,26.051,26.051,0,0,0-2.427,1.1,7.04,7.04,0,0,0-1.185.52c-.318.144-.607.318-.925.462a4.094,4.094,0,0,1-.52.231c-.376.144-.78.289-1.156.433-.4.087-.78.173-1.185.26a6.285,6.285,0,0,1-1.647,0c-.318-.058-.607-.116-.925-.2-.376-.144-.78-.289-1.156-.433a26.313,26.313,0,0,0-2.6-1.156c-.809-.347-1.589-.722-2.427-1.011a5.383,5.383,0,0,0-1.185-.491,2.278,2.278,0,0,0-.665-.26,2.452,2.452,0,0,0-.751-.318,9.4,9.4,0,0,0-1.242-.52c-.78-.376-1.56-.693-2.34-.982-.867-.4-1.762-.751-2.658-1.1a7.272,7.272,0,0,0-1.185-.491c-.9-.376-1.762-.78-2.658-1.1a7.486,7.486,0,0,0-1.1-.491.106.106,0,0,0-.087-.029,5.788,5.788,0,0,0-1.156-.491,10.862,10.862,0,0,0-1.329-.578.478.478,0,0,0-.347-.144c-.318-.144-.665-.318-.982-.462-.376-.2-.722-.4-1.1-.607l-.26-.173a1.4,1.4,0,0,1-.665-1.1v-5.027c0-.144.029-.26.029-.4a3.3,3.3,0,0,0,1.589,1.416c1.762.925,3.641,1.647,5.461,2.427,2.254.953,4.507,1.878,6.79,2.832,1.994.838,4.016,1.647,6.01,2.485,1.676.722,3.381,1.416,5.027,2.167a6.487,6.487,0,0,0,5.432,0c1.329-.578,2.6-1.242,3.929-1.82,1.82-.809,3.669-1.618,5.519-2.427,1.907-.838,3.814-1.618,5.721-2.456,2.225-.982,4.478-1.936,6.7-2.947a11.781,11.781,0,0,0,3.554-2.138c0,1.762.029,3.5.029,5.259a2.407,2.407,0,0,1-.116.433l-.925.838c-.289.173-.607.347-.9.52-.173.087-.347.173-.491.26-.4.2-.838.4-1.242.578a2.012,2.012,0,0,0-.665.318,1.489,1.489,0,0,0-.578.26,5.788,5.788,0,0,0-1.156.491,10.078,10.078,0,0,0-1.271.578,6.656,6.656,0,0,0-1.242.52,19.99,19.99,0,0,0-2.427,1.069,8.567,8.567,0,0,0-1.416.578c-.2.087-.376.173-.578.26s-.4.173-.578.26a7.709,7.709,0,0,0-1.329.578c-.4.144-.78.318-1.156.491h0C102.208,130.822,101.746,131.053,101.284,131.255Z" transform="translate(-63 -87.647)" fill="#a41d11"/>
    </g>
  </g>
</svg>
