<svg xmlns="http://www.w3.org/2000/svg" width="147.398" height="36.761" viewBox="0 0 147.398 36.761">
  <g id="Ripple" transform="translate(-39.499 -231.2)">
    <path id="Path_1588" data-name="Path 1588" d="M63.811,272.706c-4.84.138-9.072-4.647-6.61-9.819a5.526,5.526,0,0,0,.691-1.6,2.637,2.637,0,0,0-1.825-2.959A2.453,2.453,0,0,0,53,259.374a8.1,8.1,0,0,1-3.983,3.457,7.511,7.511,0,0,1-8.242-2.517,6.778,6.778,0,0,1,.415-8.436,7.148,7.148,0,0,1,11.478,1c1.217,1.991,3.844,2.185,4.978.3a2.578,2.578,0,0,0-.083-2.738,6.767,6.767,0,0,1-.277-6.749,7.229,7.229,0,0,1,9.017-3.236,6.827,6.827,0,0,1,1.632,11.81,7.069,7.069,0,0,1-4.176,1.383,3.073,3.073,0,0,0-2.379.857,2.615,2.615,0,0,0-.664,2.9,2.555,2.555,0,0,0,2.379,1.632,11.084,11.084,0,0,1,2.849.415,6.8,6.8,0,0,1,2.489,11.506A6.544,6.544,0,0,1,63.811,272.706Z" transform="translate(0 -6.324)" fill="#4483c3"/>
    <path id="Path_1589" data-name="Path 1589" d="M287.621,280c0,2.9-.028,5.642.028,8.38,0,.691-.138.913-.857.885q-1.825-.083-3.651,0c-.719.028-.94-.138-.94-.913.028-3.955.028-7.91.028-11.838,0-4.9.028-9.763,0-14.659,0-.747.138-1.051.94-1a20.344,20.344,0,0,0,3.181,0c.719-.055.94.194.857.885-.028.3,0,.608,0,1.106A9.671,9.671,0,0,1,302.446,267a10.782,10.782,0,0,1-5.781,14.3,8.626,8.626,0,0,1-8.574-1.051A1.106,1.106,0,0,1,287.621,280Zm4.868-14.272a5.224,5.224,0,0,0-5.338,5.476c-.028,3.319,2.1,5.753,5.144,5.781a5.248,5.248,0,0,0,5.587-5.5C297.882,268.052,295.725,265.756,292.489,265.729Z" transform="translate(-175.575 -21.308)"/>
    <path id="Path_1590" data-name="Path 1590" d="M378.066,280.116c0,2.9-.028,5.642.028,8.38,0,.719-.194.885-.885.857-1.272-.055-2.545-.028-3.817,0-.5,0-.691-.083-.691-.636q.042-13.525,0-27.077c0-.553.194-.664.691-.664,1.106.028,2.24.055,3.374,0,.691-.028.968.166.857.857a5.032,5.032,0,0,0,0,.913.29.29,0,0,0,.36,0c5.615-4.315,13.553-1.162,15.378,5.753,1.549,5.919-1.715,11.893-7.357,13.3a8.6,8.6,0,0,1-7.136-1.189A7.156,7.156,0,0,1,378.066,280.116Zm10.206-8.851c-.111-3.43-2.323-5.559-5.615-5.449a5.647,5.647,0,1,0,5.615,5.449Z" transform="translate(-241.044 -21.396)"/>
    <path id="Path_1591" data-name="Path 1591" d="M502.251,273.478a4.429,4.429,0,0,0,4.232,3.54,5.589,5.589,0,0,0,3.9-.94.828.828,0,0,1,.5-.166h5.5a9.339,9.339,0,0,1-2.793,3.762,10.634,10.634,0,0,1-17.12-6.417A10.751,10.751,0,0,1,510.6,261.363a10.454,10.454,0,0,1,6.61,11.533c-.111.664-.5.581-.94.581H502.251Zm4.868-3.706c1.466,0,2.9-.028,4.37,0,.581,0,.774-.028.553-.691a5.249,5.249,0,0,0-4.9-3.319,5.2,5.2,0,0,0-4.979,3.347c-.194.526-.083.691.5.691C504.132,269.772,505.626,269.772,507.119,269.772Z" transform="translate(-330.463 -21.368)"/>
    <path id="Path_1592" data-name="Path 1592" d="M468.093,247.91c0,4.481,0,8.961.028,13.442,0,.691-.111,1-.885.94a28.034,28.034,0,0,0-3.734,0c-.83.055-.8-.36-.8-.94V239.529c0-1.715.028-3.43,0-5.144,0-.525.166-.691.691-.691,1.355.028,2.738.028,4.093,0,.553-.028.636.166.636.691C468.093,238.893,468.093,243.4,468.093,247.91Z" transform="translate(-306.151 -1.802)"/>
    <path id="Path_1593" data-name="Path 1593" d="M191.923,263.122a7.56,7.56,0,0,1,6.417-2.406c.691.055,1.106.221,1.051,1.079a37.2,37.2,0,0,0,0,3.927c.028.526-.138.608-.636.526a6.106,6.106,0,0,0-4.342.581,4.111,4.111,0,0,0-1.991,3.762c-.028,3.457-.028,6.915,0,10.344,0,.691-.166.913-.857.857-1.272-.055-2.545-.028-3.817,0-.553.028-.747-.111-.747-.719q.041-9.749,0-19.5c0-.608.194-.719.747-.719,1.162.028,2.3.055,3.457,0,.608-.028.857.138.774.774A6.29,6.29,0,0,0,191.923,263.122Z" transform="translate(-106.705 -21.329)"/>
    <path id="Path_1594" data-name="Path 1594" d="M249.649,271.847c0,3.236-.028,6.472,0,9.708,0,.608-.166.8-.774.774q-1.867-.083-3.734,0c-.747.028-.94-.194-.94-.94.028-5.808.028-11.644.028-17.452,0-.664.028-1.3,0-1.964-.028-.47.166-.581.581-.581,1.328.028,2.683.055,4.01,0,.636-.028.83.138.83.83C249.621,265.431,249.649,268.639,249.649,271.847Z" transform="translate(-148.085 -21.84)"/>
    <path id="Path_1595" data-name="Path 1595" d="M246.069,231.2a3.059,3.059,0,0,1,3.07,2.959,3.073,3.073,0,0,1-6.14.083A3.006,3.006,0,0,1,246.069,231.2Z" transform="translate(-147.216 0)"/>
  </g>
</svg>
