<svg xmlns="http://www.w3.org/2000/svg" width="147.397" height="41.909" viewBox="0 0 147.397 41.909">
  <g id="Shopify" transform="translate(-72.6 -219.2)">
    <path id="Path_1772" data-name="Path 1772" d="M98.017,260.417c-1.068-.194-2.137-.356-3.205-.55-2.946-.518-5.925-1.036-8.872-1.522-2.849-.486-5.7-.971-8.515-1.489-1.619-.291-3.238-.55-4.824-.842v-.227c0-.032.032-.065.032-.1.259-2.1.55-4.209.809-6.281.324-2.59.68-5.18,1-7.771.421-3.238.842-6.508,1.263-9.746.162-1.166.194-1.23,1.3-1.554,1.23-.389,2.461-.777,3.691-1.133a.414.414,0,0,0,.356-.389,15.468,15.468,0,0,1,3.432-7.188,6.719,6.719,0,0,1,3.141-2.2c.259-.1.55-.13.842-.227h.971c.1.1.227.065.324.065a3.311,3.311,0,0,1,1.651.971.34.34,0,0,0,.291.162,3.884,3.884,0,0,1,3.562,2.007,6.918,6.918,0,0,1,.842,1.781c.065.194.13.227.324.162.389-.13.777-.227,1.2-.356a.789.789,0,0,1,.389,0v36.425ZM85,253.261h.615a5.493,5.493,0,0,0,4.533-2.623,6.351,6.351,0,0,0,.939-3.141,5.922,5.922,0,0,0-1.975-5.083,19.975,19.975,0,0,0-2.137-1.554,8.6,8.6,0,0,1-1.489-1.133,1.492,1.492,0,0,1-.453-1.392,1.824,1.824,0,0,1,1.489-1.489,6.384,6.384,0,0,1,3.885.291c.194.065.227.065.291-.162l1.068-3.982c.162-.615.162-.615-.453-.777a9.1,9.1,0,0,0-4.177,0,7.463,7.463,0,0,0-6.346,6.67,5.4,5.4,0,0,0,2.2,5.245c.583.453,1.23.842,1.781,1.327a2.809,2.809,0,0,1,.971,1.392,1.621,1.621,0,0,1-1.166,2.1,2.962,2.962,0,0,1-1.068,0,7.8,7.8,0,0,1-3.076-1.392c-.162-.1-.227-.13-.259.1-.227,1.068-.486,2.1-.745,3.173a.4.4,0,0,0,.13.421A7.877,7.877,0,0,0,85,253.261Zm5.083-32.443a2.1,2.1,0,0,0-1.457-.291,4.474,4.474,0,0,0-2.525,1.327,13.945,13.945,0,0,0-3.626,6.54c-.065.194,0,.227.194.162.874-.291,1.748-.583,2.655-.809a.893.893,0,0,0,.745-.777C86.717,224.478,87.785,222.243,90.084,220.819Zm1.522,4.242V224.8a9.634,9.634,0,0,0-.518-2.687c-.065-.194-.162-.227-.324-.13a4.169,4.169,0,0,0-.971.712,9.771,9.771,0,0,0-2.331,4.144c-.065.259.1.194.227.162,1.1-.324,2.2-.68,3.3-1C91.671,225.773,91.671,225.773,91.606,225.06Zm.777-3.3c.1.389.227.745.291,1.133a9.985,9.985,0,0,1,.259,2.2c0,.259.1.291.324.227.486-.162.971-.291,1.457-.453.13-.032.227-.065.162-.259a5.507,5.507,0,0,0-1.133-2.04A2.282,2.282,0,0,0,92.383,221.758Z" fill="#95bf48"/>
    <path id="Path_1773" data-name="Path 1773" d="M151.1,270.357V233.9a.655.655,0,0,1,.453.259c.809.777,1.619,1.554,2.4,2.331a.588.588,0,0,0,.453.194c.842,0,1.716,0,2.558.032.518,0,.583.1.648.583l.583,4.08c.194,1.36.421,2.72.615,4.112s.421,2.785.615,4.144.389,2.72.615,4.08c.194,1.36.421,2.752.615,4.112s.389,2.72.615,4.08c.194,1.36.421,2.752.615,4.112.065.453.13.939.194,1.392.032.194-.032.259-.194.291l-4.76,1.166c-1.975.486-3.95.971-5.925,1.489Z" transform="translate(-53.083 -9.94)" fill="#608f3f"/>
    <path id="Path_1774" data-name="Path 1774" d="M350,293.143c.227-1.23.486-2.461.712-3.691.421-2.266.874-4.565,1.3-6.832.486-2.493.939-4.954,1.425-7.447.324-1.716.615-3.464.842-5.213l.194-1.457c.032-.162.065-.227.259-.227h3.95c.162,0,.259,0,.227.227-.1.809-.162,1.619-.259,2.428.13,0,.13-.1.194-.162a6.662,6.662,0,0,1,3.853-2.623,4.754,4.754,0,0,1,4.986,1.457,5.455,5.455,0,0,1,1.3,3.076,13.565,13.565,0,0,1-2.817,10.361,8.452,8.452,0,0,1-5.083,3.205,7.04,7.04,0,0,1-4.533-.421c-.162-.1-.194,0-.227.13-.227,1.166-.421,2.331-.648,3.464-.227,1.166-.421,2.331-.648,3.5-.032.1-.032.227-.227.227h-4.727C350.065,293.176,350.065,293.143,350,293.143Zm13.922-18.132a4.26,4.26,0,0,0-.389-1.943,1.7,1.7,0,0,0-1.489-.939,2.852,2.852,0,0,0-2.266,1.1,7.364,7.364,0,0,0-1.651,3.335c-.389,1.716-.648,3.5-.971,5.245a.18.18,0,0,0,.1.227,3.181,3.181,0,0,0,2.331.583,3.43,3.43,0,0,0,2.137-1.392A10.534,10.534,0,0,0,363.922,275.012Z" transform="translate(-187.584 -32.985)" fill="#040404"/>
    <path id="Path_1775" data-name="Path 1775" d="M252.181,255.272a10.207,10.207,0,0,1,1.522-1.392,6.4,6.4,0,0,1,4.63-1.166,3.64,3.64,0,0,1,3.076,2.946,8.057,8.057,0,0,1,.1,2.784c-.324,2.623-.939,5.18-1.392,7.8-.259,1.36-.518,2.72-.777,4.112-.065.291-.13.421-.453.389-1.425-.032-2.882,0-4.306,0h-.324c.259-1.3.486-2.558.712-3.821.421-2.3.874-4.6,1.3-6.9a6.763,6.763,0,0,0,.065-1.813,1.485,1.485,0,0,0-2.04-1.392,3.6,3.6,0,0,0-1.91,1.457,8.977,8.977,0,0,0-1.489,3.626c-.55,2.817-1.1,5.666-1.619,8.515-.065.291-.13.389-.453.389-1.457-.032-2.946,0-4.4,0-.194,0-.259,0-.227-.259.712-3.691,1.392-7.415,2.1-11.106.745-3.885,1.489-7.8,2.234-11.688.13-.745.291-1.489.421-2.234.032-.162.1-.227.259-.227h4.565c.194,0,.227.065.194.227-.453,2.331-.907,4.695-1.36,7.026l-.486,2.525C252.148,255.078,252.116,255.175,252.181,255.272Z" transform="translate(-116.023 -17.65)" fill="#040404"/>
    <path id="Path_1776" data-name="Path 1776" d="M478.727,281.342c.1-.291.194-.615.324-.907,1.3-3.691,2.687-7.35,4.112-11.008.065-.13.1-.227.259-.227h4.986a.142.142,0,0,1-.032.162c-2.137,4.565-4.274,9.163-6.443,13.728a38.627,38.627,0,0,1-4.177,6.929,14.126,14.126,0,0,1-4.662,4.08,11.156,11.156,0,0,1-2.04.809c-.162.032-.194,0-.227-.13l-1.263-3.885c-.065-.227.065-.227.194-.291a9.956,9.956,0,0,0,4.08-2.623,9.212,9.212,0,0,0,1.23-1.716,1.184,1.184,0,0,0,.1-.809c-.518-2.752-1.036-5.5-1.522-8.224-.486-2.59-.971-5.213-1.457-7.8-.032-.13-.032-.194.162-.194h4.921c.129,0,.162.032.194.194.194,1.846.389,3.723.583,5.569.194,1.813.389,3.626.55,5.439a8.531,8.531,0,0,1,.065.907Z" transform="translate(-268.424 -33.811)" fill="#040404"/>
    <path id="Path_1777" data-name="Path 1777" d="M308.832,286.5a7.14,7.14,0,0,1-4.177-1.2,6.039,6.039,0,0,1-2.59-4.339,11.983,11.983,0,0,1,2.849-9.681,8.828,8.828,0,0,1,6.119-3.173,7.767,7.767,0,0,1,4.112.615,5.7,5.7,0,0,1,3.367,4.5,11.78,11.78,0,0,1-3.821,11.17A8.692,8.692,0,0,1,308.832,286.5ZM313.591,275a2.934,2.934,0,0,0-.032-.745,2.8,2.8,0,0,0-.842-1.846,2.4,2.4,0,0,0-3.076.065,6.315,6.315,0,0,0-1.133,1.327,10.989,10.989,0,0,0-1.263,3.626,8.387,8.387,0,0,0-.065,3.238,2.285,2.285,0,0,0,3.95,1.263,4.8,4.8,0,0,0,1.133-1.522A12.345,12.345,0,0,0,313.591,275Z" transform="translate(-155.093 -33.04)" fill="#040404"/>
    <path id="Path_1778" data-name="Path 1778" d="M447.87,256.007h-1.489c-.162,0-.194.032-.227.194-.389,2.007-.745,4.015-1.133,6.022l-1.36,7.188c-.1.55-.129.55-.68.55H438.8c-.227,0-.259-.032-.227-.259.68-3.432,1.327-6.9,1.975-10.329.194-1.036.389-2.04.583-3.076.032-.194.032-.259-.227-.259-.615.032-1.23,0-1.813,0-.227,0-.227-.065-.194-.259.227-1.1.421-2.169.615-3.27.032-.194.1-.291.324-.259.583.032,1.2,0,1.781,0,.227,0,.259-.065.291-.259a11.651,11.651,0,0,1,1.554-4.5,6.811,6.811,0,0,1,5.148-3.27,8.935,8.935,0,0,1,3.594.227c.259.065.324.162.259.421-.291,1.1-.55,2.234-.842,3.335-.032.194-.1.259-.324.194a3.818,3.818,0,0,0-1.91-.13,2.827,2.827,0,0,0-1.813,1.457,8.732,8.732,0,0,0-.745,2.364c-.032.194.1.13.194.13H450.1c.13,0,.194,0,.162.162-.227,1.133-.421,2.266-.615,3.432-.032.162-.1.194-.259.194Z" transform="translate(-247.475 -16.863)" fill="#040404"/>
    <path id="Path_1779" data-name="Path 1779" d="M211.586,268.1a10.362,10.362,0,0,1,3.626.486c.777.259.777.259.518,1.036-.291.874-.583,1.748-.842,2.623-.065.227-.162.259-.356.162a7.1,7.1,0,0,0-3.173-.583,2.63,2.63,0,0,0-1.3.389,1.443,1.443,0,0,0-.324,2.169,4.12,4.12,0,0,0,1.263.971,11.63,11.63,0,0,1,2.1,1.457,4.753,4.753,0,0,1,1.3,5.925,5.5,5.5,0,0,1-3.432,3.141,10.618,10.618,0,0,1-8.321-.356c-.421-.194-.421-.194-.259-.648l.971-2.817c.1-.259.162-.324.421-.194a8.729,8.729,0,0,0,3.626.939,2.8,2.8,0,0,0,1.263-.194,1.634,1.634,0,0,0,.712-2.59,4.093,4.093,0,0,0-1.23-1,16.185,16.185,0,0,1-2.1-1.457,4.889,4.889,0,0,1-.194-7.123,7.225,7.225,0,0,1,4.209-2.137A5.732,5.732,0,0,1,211.586,268.1Z" transform="translate(-87.7 -33.067)" fill="#040404"/>
    <path id="Path_1780" data-name="Path 1780" d="M418.021,269.3c-.939,4.792-1.846,9.551-2.752,14.343-.194,1.036-.389,2.1-.583,3.141-.032.162-.065.227-.259.227h-4.565c-.227,0-.227-.1-.194-.259.453-2.364.907-4.695,1.36-7.058.421-2.266.874-4.565,1.3-6.832.227-1.133.421-2.234.648-3.367.032-.13.065-.162.194-.162C414.751,269.3,416.37,269.3,418.021,269.3Z" transform="translate(-227.922 -33.879)" fill="#040404"/>
    <path id="Path_1781" data-name="Path 1781" d="M422.3,248.717a2.882,2.882,0,0,1,3.821-2.752,2.371,2.371,0,0,1,1.554,2.364,2.8,2.8,0,0,1-2.3,2.817A2.348,2.348,0,0,1,422.3,248.717Z" transform="translate(-236.475 -17.991)" fill="#040404"/>
    <path id="Path_1782" data-name="Path 1782" d="M99.136,280.123a8.275,8.275,0,0,1-5.472-1.943.319.319,0,0,1-.13-.421c.259-1.068.518-2.1.745-3.173.065-.227.13-.194.259-.1a8.284,8.284,0,0,0,3.076,1.392,2.962,2.962,0,0,0,1.068,0,1.621,1.621,0,0,0,1.166-2.1,2.674,2.674,0,0,0-.971-1.392c-.55-.486-1.2-.874-1.781-1.327a5.454,5.454,0,0,1-2.2-5.245,7.4,7.4,0,0,1,6.346-6.67,10.088,10.088,0,0,1,4.177,0c.615.162.615.162.453.777L104.8,263.9c-.065.194-.1.227-.291.162a6.384,6.384,0,0,0-3.885-.291,1.9,1.9,0,0,0-1.489,1.489,1.492,1.492,0,0,0,.453,1.392,10.044,10.044,0,0,0,1.489,1.133,17.177,17.177,0,0,1,2.137,1.554,5.922,5.922,0,0,1,1.975,5.083,6.7,6.7,0,0,1-.939,3.141,5.493,5.493,0,0,1-4.533,2.623A1.608,1.608,0,0,0,99.136,280.123Z" transform="translate(-14.135 -26.862)" fill="#fff"/>
  </g>
</svg>
