<svg xmlns="http://www.w3.org/2000/svg" width="139.833" height="74.455" viewBox="0 0 139.833 74.455">
  <g id="Smart_TVs" data-name="Smart TVs" transform="translate(-83.4 -57.177)">
    <g id="Group_228" data-name="Group 228" transform="translate(164.129 94.406)">
      <path id="Path_2323" data-name="Path 2323" d="M122.975,221.61c-.349.349-.249.7-.249,1.048V226.1c0,.449-.05.9-.649.848-.5,0-.549-.4-.549-.848v-.4c0-2-.05-3.941,0-5.937,0-.5-.349-1.347.5-1.5.7-.15.8.649,1.048,1.1.8,1.547,1.547,3.093,2.345,4.64.15.249.2.7.549.7.4,0,.449-.449.6-.748.848-1.7,1.646-3.343,2.445-5.039.2-.4.349-.8.9-.649.5.15.449.6.449.948V226c0,.449,0,.9-.549.948-.649.05-.649-.5-.649-.948v-4.74a5.385,5.385,0,0,0-.948,1.6c-.549,1.048-1.048,2.1-1.547,3.193-.15.3-.3.649-.7.649-.449,0-.549-.349-.7-.649-.6-1.148-1.147-2.3-1.7-3.443C123.325,222.209,123.175,221.96,122.975,221.61Z" transform="translate(-113.333 -218.115)"/>
      <path id="Path_2324" data-name="Path 2324" d="M161.346,218.1c.449.05.9.05,1.347.1a2.693,2.693,0,0,1,1.5,4.59c-.549.449-.549.748-.15,1.3.4.6.8,1.247,1.148,1.846.2.349.249.7-.15.9-.349.2-.649.05-.9-.3a23.487,23.487,0,0,1-1.447-2.395c-.349-.7-.948-.6-1.5-.549-.748.1-.4.7-.4,1.1-.05.5,0,1.048,0,1.547,0,.4-.2.7-.6.7a.551.551,0,0,1-.6-.6v-7.484c0-.449.249-.6.649-.649.3-.05.7-.05,1.1-.1Zm-.649,2.694c.1.748-.449,1.8,1.1,1.646,1.3-.1,2.046-.549,2.1-1.547.05-1.048-.748-1.6-2.145-1.7C160.2,219.148,160.9,220.245,160.7,220.794Z" transform="translate(-132.446 -218.047)"/>
      <path id="Path_2325" data-name="Path 2325" d="M108.679,218a2.882,2.882,0,0,1,2.644,1.4c.2.3.4.649,0,.9-.349.249-.649.1-.9-.249a2.348,2.348,0,0,0-2.794-.848,1.122,1.122,0,0,0-.948,1.1,1.226,1.226,0,0,0,.848,1.2,6.053,6.053,0,0,0,1.646.349c1.646.3,2.544,1.247,2.445,2.694a2.6,2.6,0,0,1-2.794,2.395,3.628,3.628,0,0,1-3.393-1.447c-.2-.3-.449-.649-.05-.9a.606.606,0,0,1,.948.249,2.446,2.446,0,0,0,2.944.9,1.38,1.38,0,0,0,1.1-1.247,1.413,1.413,0,0,0-.9-1.4,5.466,5.466,0,0,0-1.3-.3,4.113,4.113,0,0,1-1.8-.7,2.124,2.124,0,0,1,.15-3.592A4.391,4.391,0,0,1,108.679,218Z" transform="translate(-105.174 -217.993)"/>
      <path id="Path_2326" data-name="Path 2326" d="M142.293,226.881a.584.584,0,0,1-.449-.848c1.048-2.495,2.046-4.989,3.143-7.484a.56.56,0,0,1,1.1,0c1.1,2.495,2.1,4.989,3.143,7.484a.552.552,0,0,1-.3.8c-.4.15-.748,0-.8-.4-.249-1.547-1.347-1.6-2.544-1.447a3.751,3.751,0,0,1-.748,0,1.365,1.365,0,0,0-1.8,1.2A.7.7,0,0,1,142.293,226.881Zm3.293-6.785a18.062,18.062,0,0,1-.748,1.8c-.948,2.345-.9,2.395,1.7,2.1.5-.05.6-.2.4-.649C146.484,222.391,146.084,221.343,145.586,220.1Z" transform="translate(-123.52 -218.047)"/>
      <path id="Path_2327" data-name="Path 2327" d="M211.841,225.307c.7-1.646,1.347-3.093,1.946-4.54.249-.6.549-1.2.748-1.8.15-.4.349-.8.9-.549.5.249.3.649.15,1-.748,1.746-1.547,3.492-2.3,5.239-.3.649-.549,1.247-.848,1.9-.15.3-.249.549-.649.549-.349,0-.449-.249-.6-.5-1.048-2.395-2.1-4.84-3.143-7.234-.15-.3-.3-.7.15-.9.5-.249.748.1.948.549.7,1.646,1.4,3.343,2.1,4.989C211.392,224.309,211.592,224.709,211.841,225.307Z" transform="translate(-156.648 -218.169)"/>
      <path id="Path_2328" data-name="Path 2328" d="M174.587,222.94v-2.894c0-.549-.15-.748-.7-.748-.5.05-1.048,0-1.547,0-.349,0-.649-.15-.649-.5-.05-.4.2-.6.6-.6h5.937a.485.485,0,0,1,.549.5c0,.4-.2.549-.6.6h-.4c-1.9.05-1.9.05-1.9,2v4.59c0,.449.1,1-.549,1-.748.05-.6-.6-.649-1.048-.1-.948-.05-1.9-.1-2.894Z" transform="translate(-138.503 -218.097)"/>
      <path id="Path_2329" data-name="Path 2329" d="M196.044,223.039V220c0-.549-.2-.748-.748-.7-.5.05-1.048,0-1.547,0-.349,0-.649-.15-.649-.5a.55.55,0,0,1,.6-.6h5.837c.349,0,.6.15.6.549s-.249.549-.6.549h-.2c-2.1.1-2.1.1-2.1,2.2v4.49c0,.449,0,.9-.549.948-.649.05-.649-.5-.649-.948,0-1,0-1.946,0-2.944Z" transform="translate(-149.232 -218.097)"/>
    </g>
    <g id="Group_229" data-name="Group 229" transform="translate(83.9 57.681)">
      <path id="Path_2330" data-name="Path 2330" d="M112.688,68.667h22.3c.8,0,1.2-.15,1.447-1A14.162,14.162,0,1,1,152.6,85.78c-1.547.3-1.547.3-1.547,1.946,0,8.033-.1,16.065.05,24.1a6.482,6.482,0,0,1-6.785,6.735c-5.688-.15-11.325-.05-17.013-.05-.449,0-1.2-.2-1.048.7.15.7-.649,1.846.9,1.946a5.783,5.783,0,0,1,3.293,1.2,4.774,4.774,0,0,1,1.9,3.892c.05,1.347,0,2.694,0,4.091,0,.549-.15.8-.748.8H104.455c-.649,0-.748-.3-.748-.8v-3.941a4.832,4.832,0,0,1,3.742-4.889,4.673,4.673,0,0,1,1.447-.3c.8,0,.948-.349.9-1.1-.05-1.5,0-1.547-1.6-1.547H90.336a6.115,6.115,0,0,1-6.436-6.486V75.253a6.18,6.18,0,0,1,6.536-6.536c7.484-.05,14.868-.05,22.252-.05Zm4.839,47.647h26.892c2.744,0,4.44-1.6,4.44-4.241V86.927c0-.7-.15-.9-.9-1.048a14.1,14.1,0,0,1-12.223-14.02c0-.9-.349-1-1.1-1h-44.1c-2.844,0-4.391,1.547-4.391,4.49v36.421c0,3.043,1.5,4.54,4.54,4.54ZM137.983,71.86a12,12,0,1,0,12.124-11.974A12,12,0,0,0,137.983,71.86Zm-19.857,56.976H128c2.1,0,2.1,0,2.1-2.145,0-2.2-1-3.393-3.243-3.443-5.887-.05-11.725-.05-17.612,0-2.3,0-3.343,1.2-3.343,3.492a8.806,8.806,0,0,1,0,1.148c-.1.748.2.948.948.948Zm-.1-7.783h4.39c1.7,0,1.646,0,1.7-1.7,0-.6-.1-.848-.8-.848-3.492.05-6.935.05-10.427,0-.748,0-.9.3-.848.9a3.75,3.75,0,0,1,0,.748c-.1.748.15.948.9.948C114.633,121,116.33,121.053,118.026,121.053Z" transform="translate(-83.9 -57.681)" stroke="#000" stroke-width="1"/>
      <path id="Path_2331" data-name="Path 2331" d="M198.6,73.367a1.559,1.559,0,0,1,.649-1.3,15.677,15.677,0,0,1,16.414,0c.6.4,1,.948.549,1.646a1.094,1.094,0,0,1-1.646.249,13.309,13.309,0,0,0-14.219,0,1.05,1.05,0,0,1-1.247.05A.854.854,0,0,1,198.6,73.367Z" transform="translate(-141.374 -63.729)" stroke="#000" stroke-width="1"/>
      <path id="Path_2332" data-name="Path 2332" d="M216.282,81.575a1.076,1.076,0,0,1-1.746.848,11.468,11.468,0,0,0-3.343-1.347,8.748,8.748,0,0,0-6.386,1.247c-.848.5-1.646.3-1.846-.5-.15-.6.15-.948.6-1.3a11.256,11.256,0,0,1,12.024-.05A1.147,1.147,0,0,1,216.282,81.575Z" transform="translate(-143.54 -68.245)" stroke="#000" stroke-width="1"/>
      <path id="Path_2333" data-name="Path 2333" d="M213.339,100.987a2.874,2.874,0,0,1-2.744-2.944,2.987,2.987,0,0,1,2.894-2.844,2.927,2.927,0,0,1,2.844,2.944A2.876,2.876,0,0,1,213.339,100.987Zm-.239-2.794c-.05-.4.788-.748.339-.748a.613.613,0,0,0-.649.748.6.6,0,0,0,.7.6C213.887,98.742,213.1,98.593,213.1,98.193Z" transform="translate(-147.382 -76.481)" stroke="#000" stroke-width="1"/>
      <path id="Path_2334" data-name="Path 2334" d="M211.851,87.5a6.514,6.514,0,0,1,3.692,1.2c.6.4,1,.948.5,1.646-.449.7-1.1.6-1.7.2a4.416,4.416,0,0,0-5.338.05c-.6.4-1.2.5-1.646-.15-.5-.7-.15-1.2.449-1.646A6.411,6.411,0,0,1,211.851,87.5Z" transform="translate(-145.644 -72.619)" stroke="#000" stroke-width="1"/>
    </g>
  </g>
</svg>
