<svg xmlns="http://www.w3.org/2000/svg" width="89.07" height="31.816" viewBox="0 0 89.07 31.816">
  <g id="VR" transform="translate(-29.1 -104.16)">
    <path id="Path_2342" data-name="Path 2342" d="M183.077,135.865c-2.254.035-4.508-.069-6.763.1-2.393.173-3.052-.971-3.017-3.121.069-7.248,0-14.462.035-21.71.035-8.15-.867-6.763,6.9-6.832,7.595-.069,15.19-.035,22.785,0,6.624.035,9.294,2.774,9.329,9.4a35.374,35.374,0,0,1-.139,4.717c-.347,2.566-2.081,4.058-5.133,5.1,3.191.763,4.786,2.428,5.063,4.994a58.337,58.337,0,0,1,.1,6.971c0,.52-.624.416-.971.555h-6.52c-.347-.035-.659-.035-1.006-.069-1.977-.763-1.6-2.462-1.457-3.919.208-2.462-.52-4.092-4.162-4.3-4.4-.243-8.809,0-13.213-.1-1.353-.035-1.942.312-1.838,1.769C183.147,131.53,183.077,133.715,183.077,135.865Zm8.948-23.86h0c-1.006-.035-2.011-.035-2.982-.035-6.312,0-6.242,0-6,6.346.069,1.422.59,1.6,1.8,1.6,4.821-.069,9.676,0,14.5-.035,2.774-.035,3.711-1.006,3.745-3.78.069-2.809-.832-3.919-3.537-4.058C197.019,111.9,194.522,112.005,192.025,112.005Z" transform="translate(-94.189 -0.063)" fill="#040404"/>
    <path id="Path_2343" data-name="Path 2343" d="M29.1,104.208c3.156,0,5.826.173,8.5-.035,1.942-.139,2.809.763,3.607,2.289,3.745,7.109,7.526,14.184,11.34,21.294.1.208.347.312.728.624,3.919-7.768,7.872-15.467,11.653-23.2a1.359,1.359,0,0,1,1.457-.9c2.844-.035,5.688,0,8.531-.035,1.318-.035,1.387.416.8,1.457q-7.959,14.566-15.849,29.2a1.84,1.84,0,0,1-2.011,1.04c-3.329-.035-6.693-.035-10.023,0a1.775,1.775,0,0,1-1.8-.971C40.475,124.808,34.857,114.682,29.1,104.208Z" fill="#040404"/>
  </g>
</svg>
