<svg xmlns="http://www.w3.org/2000/svg" width="139.332" height="62.205" viewBox="0 0 139.332 62.205">
  <g id="Wearables" transform="translate(-68.006 -56.679)">
    <path id="Path_2345" data-name="Path 2345" d="M62.2,1.439A1.537,1.537,0,0,1,60.579,3.06c-1.5.039-3.01,0-4.514-.039H28.244c-4.476,0-8.952.039-13.389.039H1.968A1.979,1.979,0,0,1,.5,2.674,1.474,1.474,0,0,1,1,.166,3.582,3.582,0,0,1,1.929.05H57.994a12.436,12.436,0,0,1,2.932.077A1.515,1.515,0,0,1,62.2,1.439Z" transform="translate(146.126 56.679) rotate(90)"/>
    <g id="Group_244" data-name="Group 244" transform="translate(68.006 61.75)">
      <path id="Path_2344" data-name="Path 2344" d="M86.795,146.882c-.424.5-1.119.424-1.7.386-2.855-.231-5.711-.27-8.566-.231-1.428,0-2.855.039-4.283.077a19.171,19.171,0,0,1-3.936.039c-.424-.077-.309-.579-.232-.849q2.72-9.724,5.4-19.447c.154-.579.386-.656.926-.656,3.936,0,7.833.039,11.769,0,.617,0,.887.154.81.81a11.911,11.911,0,0,0,0,1.659c.077,1.235.154,2.238-1.543,2.624-1.389.309-2.045,1.659-2.084,3.125-.039,1.659-.039,3.318,0,4.939a3.562,3.562,0,0,0,3.01,3.55c.5.116.695.27.656.772C86.949,144.721,87.373,146.187,86.795,146.882Z" transform="translate(-68.006 -98.027)"/>
      <path id="Path_2346" data-name="Path 2346" d="M117.628,94.633a.622.622,0,0,0-.27.154,6.341,6.341,0,0,1-2.084,1.08c-.81.077-1.042-1-1.621-1.5a6.383,6.383,0,0,0-9.3.926c-.424.579-.733.772-1.351.309a9.127,9.127,0,0,0-1.814-1c-.579-.27-.656-.54-.27-1.042a10.154,10.154,0,0,1,16.939,0C118.323,94.132,118.245,94.4,117.628,94.633Z" transform="translate(-88.073 -75.18)"/>
      <path id="Path_2351" data-name="Path 2351" d="M122.122,150.7a2.125,2.125,0,0,1-2.2,2.084,2.158,2.158,0,0,1-2.122-2.2A2.1,2.1,0,0,1,120,148.5,2.183,2.183,0,0,1,122.122,150.7Z" transform="translate(-98.585 -111.72)"/>
      <path id="Path_2352" data-name="Path 2352" d="M172.652,89.268a.886.886,0,0,0-.232,1.273,4.864,4.864,0,0,1-1.736,6.174c-.5.347-.54.579-.347,1.119a4.871,4.871,0,0,1-4.322,6.637,139.66,139.66,0,0,1-17.055-.424,16.379,16.379,0,0,1-3.82-.772c-.193-.039-.386-.077-.617-.116l-2.315-.463-.579-.116c-3.588-.54-7.215-.232-10.8-.309-1.312-.039-1.312,0-1.312-1.389a4.653,4.653,0,0,0,0-.733c-.154-1.235-.077-2.161,1.543-2.547a3.05,3.05,0,0,0,2.122-3.125c.039-1.659.039-3.318,0-4.939a3.557,3.557,0,0,0-2.894-3.511c-.579-.116-.81-.27-.772-.887a27.469,27.469,0,0,0,0-3.087c-.039-.579.193-.733.772-.772,2.122-.039,4.244.232,6.367-.347a9.478,9.478,0,0,0,4.669-2.469,5.369,5.369,0,0,0,1.389-2.392,22.562,22.562,0,0,1,5.9-10.148,14.716,14.716,0,0,0,4.322-7.717c.116-.733.077-1.5.154-2.238.231-2.508,1.968-3.434,4.206-2.315,2.855,1.466,4.167,4.4,3.743,8.142a17,17,0,0,1-2.7,7.794,3.468,3.468,0,0,0-.463.926c-.772,2.006,0,3.125,2.161,3.125h9.492a5.373,5.373,0,0,1,3.781,1.428,4.838,4.838,0,0,1,.386,6.752.817.817,0,0,0-.116,1.2A5,5,0,0,1,172.652,89.268Z" transform="translate(-105.746 -53.184)"/>
      <path id="Path_2353" data-name="Path 2353" d="M114.832,80.864a4.375,4.375,0,0,1-1.5.81c-1.389.926-1.389.926-2.354-.656a12.732,12.732,0,0,0-8.257-4.978,12.569,12.569,0,0,0-12.888,5.672c-.463.656-.772.772-1.389.347a6.6,6.6,0,0,0-.887-.5c-1.621-.887-1.621-.887-.5-2.431a16.582,16.582,0,0,1,26.354-.965,1.594,1.594,0,0,1,.27.424,9.622,9.622,0,0,1,1.273,1.814C115.1,80.633,115.218,80.787,114.832,80.864Z" transform="translate(-79.218 -64.807)"/>
    </g>
    <path id="Path_2361" data-name="Path 2361" d="M201.332,219.1c-.077.154-.116.193-.232.039C201.177,219.139,201.254,219.1,201.332,219.1Z" transform="translate(-81.739 -103.261)"/>
    <path id="Path_2377" data-name="Path 2377" d="M7.014-.856h.033L8.18-7.82H9.732L7.88,2.339H6.4L4.95-4.366H4.917L3.463,2.339H1.986L.129-7.82H1.687L2.825-.863l.033.007L4.345-7.82H5.516ZM15.5-2.126H12.216v2.9h3.84v1.57H10.626V-7.82h5.42v1.57H12.216V-3.7H15.5ZM21.286.148H18.5l-.539,2.191H16.356L19.085-7.82h1.629l2.718,10.16H21.825Zm-2.391-1.6h2l-.981-3.991h-.033Zm6.869-.272V2.339H24.173V-7.82h2.991a2.813,2.813,0,0,1,2.122.792,3.046,3.046,0,0,1,.765,2.208,2.7,2.7,0,0,1-.321,1.354,2.413,2.413,0,0,1-.942.914,1.776,1.776,0,0,1,1.01.886,3.438,3.438,0,0,1,.308,1.535V.616a4.68,4.68,0,0,0,.09.89,1.329,1.329,0,0,0,.308.687v.147h-1.64a1.287,1.287,0,0,1-.283-.747A8.011,8.011,0,0,1,28.515.6V-.117A1.9,1.9,0,0,0,28.19-1.3a1.084,1.084,0,0,0-.912-.422Zm0-1.57h1.373a1.284,1.284,0,0,0,1-.363,1.55,1.55,0,0,0,.33-1.075,1.725,1.725,0,0,0-.33-1.109,1.171,1.171,0,0,0-.972-.412h-1.4ZM35.8.148H33.019L32.48,2.339H30.873L33.6-7.82h1.629l2.718,10.16H36.342Zm-2.391-1.6h2L34.43-5.441H34.4ZM38.69,2.339V-7.82h2.68a3.173,3.173,0,0,1,2.184.7,2.648,2.648,0,0,1,.784,2.086,2.667,2.667,0,0,1-.291,1.259,1.9,1.9,0,0,1-.847.834,1.687,1.687,0,0,1,1.07.837,3.009,3.009,0,0,1,.357,1.486,2.99,2.99,0,0,1-.752,2.208,2.884,2.884,0,0,1-2.13.75Zm1.591-4.494V.769h1.465A1.264,1.264,0,0,0,42.71.418a1.462,1.462,0,0,0,.332-1.041,1.932,1.932,0,0,0-.283-1.138,1.026,1.026,0,0,0-.893-.393Zm0-1.41h1.144a1.346,1.346,0,0,0,.981-.335,1.3,1.3,0,0,0,.343-.977,1.39,1.39,0,0,0-.346-1.04A1.43,1.43,0,0,0,41.37-6.25H40.281ZM47.438.769h3.53v1.57h-5.12V-7.82h1.591Zm9.32-2.9H53.474v2.9h3.84v1.57H51.883V-7.82H57.3v1.57H53.474V-3.7h3.285Z" transform="translate(150.024 89.854)"/>
  </g>
</svg>
