<?xml version="1.0" encoding="utf-8"?>
<!-- Generator: Adobe Illustrator 26.1.0, SVG Export Plug-In . SVG Version: 6.00 Build 0)  -->
<svg version="1.1" id="svg2816" xmlns:svg="http://www.w3.org/2000/svg"
	 xmlns="http://www.w3.org/2000/svg" xmlns:xlink="http://www.w3.org/1999/xlink" x="0px" y="0px" viewBox="0 0 315 300"
	 style="enable-background:new 0 0 315 300;" xml:space="preserve">
<style type="text/css">
	.st0{fill:#010101;}
</style>
<g>
	<path class="st0" d="M45.1,139.4c0,0.2,0.1,0.3,0.1,0.5c0,0.5,0,1.1,0,1.6c0,0.8,0,1.6,0,2.4c0,1.6,0,3.1,0,4.7c0,3.1,0,6.3,0,9.4
		c0,3.1,0,6.3,0,9.4s0,6.3,0,9.4c0,0.2,0,0.3,0,0.5c0,0.8-0.1,1.1-1,1.1c-2.3-0.1-4.5,0-6.8,0c-0.6,0-0.9-0.1-0.9-0.8
		c0-16.4,0-32.7,0-49.1c0-0.6,0.1-0.8,0.7-0.8c3.2,0,6.4,0,9.5,0c0.4,0,0.6,0.1,0.9,0.4c2.4,3,4.8,6,7.2,8.9
		c2.3,2.8,4.6,5.6,6.9,8.4c2.6,3.3,5.3,6.6,7.9,9.8c2.3,2.8,4.6,5.6,6.9,8.4c2.3,2.9,4.6,5.8,6.9,8.6c1.3,1.7,2.7,3.3,4.1,5
		c0.1,0.1,0.1,0.3,0.4,0.2c0.2-0.1,0.1-0.2,0.1-0.3c0-0.3,0-0.5,0-0.8c0-15.9,0-31.9,0-47.8c0-0.9,0.3-1,1.1-1c13.9,0,27.9,0,41.8,0
		c0.8,0,1,0.2,1,1c-0.1,2-0.1,4,0,6c0,0.8-0.1,1.1-1.1,1.1c-11,0-22,0-33,0c-0.9,0-1.2,0.2-1.2,1.1c0.1,3.7,0,7.3,0,11
		c0,0.8,0.2,0.9,0.9,0.9c8.8,0,17.6,0,26.4,0c0.8,0,1,0.2,1,1c-0.1,2-0.1,4.1,0,6.1c0,0.9-0.3,1-1.1,1c-8.7,0-17.4,0-26.1,0
		c-0.9,0-1.2,0.2-1.2,1.1c0.1,3.7,0.1,7.5,0,11.2c0,0.9,0.3,1.1,1.1,1c11,0,22,0,33.1,0c0.9,0,1.1,0.2,1.1,1.1c-0.1,2-0.1,4,0,6
		c0,0.8-0.2,1.1-1.1,1.1c-17,0-33.9-0.1-50.9,0c-1.9,0-3.2-0.4-4.4-2c-2.3-3.1-4.8-6-7.2-9.1c-2-2.6-4.1-5-6.2-7.6
		c-2-2.5-3.9-5-5.9-7.5c-1.5-1.8-3-3.6-4.4-5.4c-1-1.2-1.9-2.4-2.9-3.7c-0.5-0.6-1-1.2-1.4-1.8c-0.3-0.4-0.6-0.7-0.9-1.1
		c-0.2-0.3-0.5-0.5-0.7-0.8c-0.1-0.1-0.3-0.8-0.6-0.6C45,138.9,45,139.1,45.1,139.4z"/>
	<path class="st0" d="M142.4,127.8c3.6,0,7.2,0,10.7,0c0.3,0,0.6,0.1,0.8,0.4c2.1,2.6,4.2,5.2,6.3,7.9c2.3,2.9,4.7,5.8,7,8.7
		c1,1.2,1.1,1.2,2,0c1.8-2.2,3.6-4.5,5.4-6.7c1.5-1.8,3-3.7,4.5-5.5c1-1.2,2-2.5,3-3.7c0.5-0.6,0.9-1,1.8-0.9c3.1,0.1,6.2,0,9.3,0
		c0.3,0,0.6,0,1.1,0c-1.2,1.6-2.4,3-3.5,4.4c-2,2.5-4.1,5-6.1,7.5c-1.8,2.2-3.5,4.4-5.3,6.6c-1.7,2.1-3.5,4.3-5.2,6.4
		c-0.3,0.4-0.2,0.7,0.1,1c3.8,4.7,7.5,9.3,11.3,14c2.8,3.5,5.6,6.9,8.4,10.4c0.1,0.1,0.1,0.2,0.2,0.4c-1.1,0-2.2,0-3.3,0
		c-2.5,0-4.9,0-7.4,0c-0.4,0-0.7-0.1-1-0.5c-3-3.7-6-7.3-8.9-11.1c-1.7-2.2-3.6-4.4-5.4-6.6c-3-3.7-5.9-7.5-9-11.2
		c-5.6-7-11.3-14-16.9-21C142.5,128.1,142.5,128,142.4,127.8z"/>
	<path class="st0" d="M225.9,127.7c7,0,14,0,21,0c0.9,0,1.1,0.3,1.1,1.1c-0.1,2.1-0.1,4.1,0,6.2c0,0.7-0.2,0.8-0.9,0.8
		c-5.2,0-10.4,0-15.5,0c-0.9,0-1,0.3-1,1.1c0,13.5,0,26.9,0,40.4c0,0.8-0.1,1.1-1.1,1.1c-2.3-0.1-4.5-0.1-6.8,0
		c-0.8,0-0.9-0.2-0.9-1c0-13.5,0-27,0-40.5c0-0.9-0.3-1.1-1.1-1.1c-5.2,0-10.5,0-15.7,0c-0.7,0-0.9-0.2-0.9-0.9
		c0.1-2.1,0.1-4.2,0-6.3c0-0.8,0.3-0.9,1-0.9C211.9,127.7,218.9,127.7,225.9,127.7z"/>
	<path class="st0" d="M142.2,178.5c2.4-3,4.7-5.8,7-8.7c3.3-4.1,6.7-8.3,10-12.4c0.3-0.4,0.5-0.5,0.9,0c1.6,2,3.2,4,4.8,6
		c0.4,0.5,0.3,0.8-0.1,1.3c-1.8,2.2-3.5,4.4-5.3,6.6c-1.9,2.3-3.8,4.6-5.7,6.9c-0.2,0.2-0.3,0.3-0.6,0.3
		C149.6,178.5,145.9,178.5,142.2,178.5z"/>
	<path class="st0" d="M279.9,178.1c-2.3-0.1-4.6-0.4-6.3-2.2c-1-1.1-1.4-2.4-1.7-3.8c-0.1-0.4,0.1-0.6,0.5-0.6c0.9,0,1.9,0,2.9,0
		c0.2,0,0.5-0.1,0.5,0.3c0.2,2,1.7,2.7,3.4,3c1.6,0.3,3.1,0.1,4.4-1.1c1.6-1.4,0.9-3.3-0.7-4c-1.3-0.5-2.6-0.8-3.9-1.2
		c-1.8-0.5-3.6-1-5-2.3c-1.8-1.6-1.9-4.6-0.7-6.6c1-1.7,2.6-2.5,4.5-2.9c2.7-0.6,5.3-0.5,7.6,1c1.5,0.9,2.4,2.2,2.6,4
		c0.1,0.5,0,0.8-0.7,0.7c-0.4,0-0.7,0-1.1,0c-1,0-2,0.3-2.5-1.2c-0.3-1-1.5-1.4-2.5-1.5c-1.1-0.1-2.3-0.2-3.4,0.4
		c-0.9,0.5-1.5,1.3-1.5,2.3c0,1,0.6,1.6,1.4,2.1c1.4,0.7,2.9,0.9,4.4,1.3c1.3,0.3,2.5,0.8,3.7,1.6c3.1,2,3.3,6.8,0,9.2
		C284.4,177.7,282.5,178.2,279.9,178.1z"/>
	<path class="st0" d="M268.5,164.6c0,2.2,0,4.4,0,6.6c0,4.3-2.6,6.8-6.8,6.9c-1.4,0-2.8-0.1-4.1-0.8c-1.6-1-2.6-2.4-2.7-4.4
		c0-0.5,0.1-0.7,0.7-0.7c0.5,0,1,0,1.5,0c0.9,0,1.8-0.2,2,1.2c0.2,1.1,1.5,1.6,2.9,1.5c1.1-0.1,2-0.9,2.4-2c0.2-0.5,0.2-1.1,0.2-1.6
		c0-4.6,0-9.1,0-13.7c0-0.8,0.2-1,1-0.9c0.9,0.1,2.2-0.3,2.8,0.2c0.6,0.5,0.2,1.8,0.2,2.7C268.5,161.3,268.5,162.9,268.5,164.6z"/>
	<path class="st0" d="M247.5,175.8c0-1.4,0.9-2.3,2.3-2.3c1.3,0,2.2,0.9,2.2,2.3c0,1.3-0.9,2.2-2.2,2.3
		C248.4,178.2,247.3,176.9,247.5,175.8z"/>
</g>
</svg>
