<?xml version="1.0" encoding="utf-8"?>
<!-- Generator: Adobe Illustrator 26.1.0, SVG Export Plug-In . SVG Version: 6.00 Build 0)  -->
<svg version="1.1" id="svg2816" xmlns:svg="http://www.w3.org/2000/svg"
	 xmlns="http://www.w3.org/2000/svg" xmlns:xlink="http://www.w3.org/1999/xlink" x="0px" y="0px" viewBox="0 0 315 300"
	 style="enable-background:new 0 0 315 300;" xml:space="preserve">
<style type="text/css">
	.st0{fill:#E34D27;}
	.st1{fill:#010101;}
	.st2{fill:#F0662B;}
	.st3{fill:#EAEAEA;}
	.st4{fill:#FEFEFE;}
</style>
<g>
	<path class="st0" d="M255.8,101.8c13.2,0,26.4,0,39.7,0c1.1,0,1.4,0.2,1.3,1.3c-0.8,8.4-1.5,16.8-2.3,25.2
		c-0.8,9.2-1.7,18.4-2.5,27.5c-0.6,7.2-1.3,14.3-1.9,21.5c-0.2,2.3-0.4,4.5-0.6,6.8c-0.1,0.9-0.5,1.2-1.3,1.5
		c-10.5,2.9-21,5.8-31.5,8.7c-0.7,0.2-1.2,0.1-1.9,0c-10.5-2.9-20.9-5.8-31.4-8.7c-0.9-0.3-1.2-0.7-1.3-1.6
		c-0.7-8.4-1.5-16.7-2.2-25.1c-0.6-7.2-1.3-14.4-1.9-21.6c-0.7-8.3-1.5-16.6-2.2-24.8c-0.3-3.1-0.5-6.3-0.9-9.4
		c-0.1-1.1,0.2-1.3,1.3-1.3C229.3,101.8,242.6,101.8,255.8,101.8z M255.8,166.2c-3.4-0.9-6.8-1.8-10.2-2.7c-1-0.2-1.3-0.7-1.4-1.7
		c-0.1-2-0.4-3.9-0.5-5.9c0-0.8-0.3-1-1.1-1c-2.8,0-5.5,0.1-8.3,0c-1,0-1.1,0.4-1,1.2c0.4,4.5,0.9,9,1.2,13.5
		c0.1,1.1,0.4,1.5,1.5,1.8c6.6,1.8,13.2,3.6,19.8,5.5c0,3.2,0,6.4,0,9.6c0,0.7,0,1,0.9,0.8c7.9-2.2,15.8-4.5,23.7-6.6
		c1.9-0.5,2.7-1.1,2.7-3.2c0-3.5,0.6-7,0.9-10.5c0.2-2.3,0.4-4.6,0.6-6.9c0.3-3.4,0.7-6.8,1-10.2c0.2-2.3,0.3-4.7,0.6-7
		c0.3-3.3,0.7-6.5,1-9.8c0.3-3.4,0.5-6.8,0.8-10.2c0.4-4.3,0.8-8.6,1.3-12.9c0.1-0.9-0.2-1.3-1.2-1.3c-10.4,0-20.7,0-31.1,0
		c-0.9,0-1.2,0.3-1.2,1.2c0,3,0,6,0,9.1c-0.5,0-1,0.1-1.5,0.1c-7.6,0-15.3,0-22.9,0c-1.1,0-1.3,0.3-1.2,1.3c0.2,1.2,0.2,2.4,0.3,3.6
		c0.7,8.2,1.5,16.5,2.2,24.7c0.1,1.2,0.5,1.4,1.5,1.4c5.8-0.1,11.7,0,17.5,0c1.4,0,2.8-0.1,4.1,0.1
		C255.8,155.4,255.8,160.8,255.8,166.2z"/>
	<path class="st1" d="M140,141.7c3-4.9,5.9-9.7,8.8-14.5c0.5-0.8,1-1,1.8-1c4.4,0,8.7,0.1,13.1,0c0.9,0,1.1,0.2,1.1,1.1
		c0,14,0,27.9,0,41.9c0,0.8-0.1,1.1-1,1.1c-4.2-0.1-8.5-0.1-12.7,0c-0.9,0-1-0.3-1-1.1c0-6.3,0-12.6,0-18.9c0-0.5,0-0.9,0-1.4
		c-0.5,0.1-0.6,0.5-0.8,0.8c-2.9,4.4-5.8,8.9-8.6,13.3c-0.9,1.3-0.9,1.3-1.7,0c-2.9-4.5-5.7-8.9-8.6-13.4c-0.2-0.3-0.4-0.6-0.8-1.2
		c0,0.8,0,1.2,0,1.6c0,6.3,0,12.7,0,19c0,0.9-0.1,1.3-1.2,1.2c-4.1-0.1-8.1-0.1-12.2,0c-0.8,0-1.2-0.1-1.2-1.1c0-14,0-27.9,0-41.9
		c0-0.9,0.3-1.1,1.2-1.1c4.4,0,8.8,0.1,13.2,0c0.9,0,1.3,0.3,1.7,1c2.6,4.4,5.3,8.8,8,13.1C139.3,140.7,139.6,141.1,140,141.7z"/>
	<path d="M18.3,148.2c0-7,0-14,0-21c0-0.9,0.2-1.1,1.1-1.1c4.2,0.1,8.5,0,12.7,0c0.8,0,1,0.2,1,1c0,4.2,0,8.4,0,12.5
		c0,0.9,0.3,1,1.1,1c3.8,0,7.6,0,11.4,0c0.8,0,1.1-0.2,1.1-1.1c0-4.1,0-8.3,0-12.4c0-0.9,0.3-1.1,1.2-1.1c4.2,0,8.4,0.1,12.6,0
		c1,0,1.1,0.3,1.1,1.2c0,13.9,0,27.8,0,41.8c0,0.9-0.2,1.2-1.2,1.2c-4.2-0.1-8.4-0.1-12.6,0c-0.9,0-1.1-0.2-1.1-1.1
		c0-4.1,0-8.3,0-12.4c0-1.1-0.3-1.3-1.4-1.3c-3.6,0.1-7.3,0.1-10.9,0c-1.1,0-1.3,0.3-1.3,1.4c0.1,4.1,0,8.3,0,12.4c0,0.8-0.1,1-1,1
		c-4.3,0-8.6-0.1-12.8,0c-0.9,0-1-0.3-1-1.1C18.3,162.2,18.3,155.2,18.3,148.2z"/>
	<path d="M88.3,126.2c6.4,0,12.8,0,19.2,0c0.9,0,1.1,0.2,1.1,1.1c-0.1,4.1-0.1,8.2,0,12.3c0,1.1-0.4,1.2-1.3,1.2
		c-3.5-0.1-7.1,0-10.6,0c-0.9,0-1.1,0.3-1.1,1.2c0,9.1,0,18.1,0,27.2c0,0.9-0.2,1.2-1.2,1.2c-4.1-0.1-8.2-0.1-12.3,0
		c-1,0-1.4-0.2-1.4-1.3c0.1-9,0-17.9,0.1-26.9c0-1.1-0.3-1.4-1.3-1.3c-3.5,0.1-7.1,0-10.6,0c-0.8,0-1.1-0.2-1.1-1.1
		c0-4.2,0-8.4,0-12.5c0-0.9,0.3-1,1.1-1C75.3,126.2,81.8,126.2,88.3,126.2z"/>
	<path class="st1" d="M172.2,148.2c0-6.9,0-13.9,0-20.8c0-1,0.3-1.2,1.2-1.2c4.1,0.1,8.2,0.1,12.3,0c1,0,1.3,0.2,1.3,1.3
		c0,9,0,17.9-0.1,26.9c0,1.2,0.4,1.4,1.5,1.4c6-0.1,12.1,0,18.1,0c0.9,0,1.2,0.2,1.2,1.2c-0.1,4.1-0.1,8.1,0,12.2
		c0,0.9-0.1,1.3-1.2,1.3c-11.1,0-22.2,0-33.3,0c-0.9,0-1.1-0.3-1.1-1.2C172.2,162.2,172.2,155.2,172.2,148.2z"/>
	<path class="st2" d="M255.8,118.8c0-3,0-6,0-9.1c0-0.9,0.3-1.2,1.2-1.2c10.4,0,20.7,0,31.1,0c1,0,1.3,0.4,1.2,1.3
		c-0.4,4.3-0.9,8.6-1.3,12.9c-0.3,3.4-0.5,6.8-0.8,10.2c-0.3,3.3-0.7,6.6-1,9.8c-0.2,2.3-0.4,4.7-0.6,7c-0.3,3.4-0.7,6.8-1,10.2
		c-0.2,2.3-0.4,4.6-0.6,6.9c-0.3,3.5-0.9,7-0.9,10.5c0,2.1-0.8,2.7-2.7,3.2c-7.9,2.1-15.8,4.3-23.7,6.6c-0.9,0.3-0.9-0.1-0.9-0.8
		c0-3.2,0-6.4,0-9.6c0,0,0-0.1,0-0.1c6.7-1.8,13.5-3.7,20.2-5.5c0.6-0.2,0.8-0.5,0.8-1.1c0.3-3.2,0.6-6.3,0.9-9.5
		c0.6-6.8,1.2-13.6,1.8-20.3c0.1-0.6-0.2-0.7-0.7-0.7c-7.7,0-15.4,0-23.1,0.1c0,0,0-0.1,0-0.1c0-3.5,0-6.9,0-10.4l0-0.1
		c8,0,16,0,24,0.1c0.8,0,0.9-0.4,0.9-1c0.2-2.7,0.4-5.3,0.7-8c0.1-1-0.1-1.2-1.1-1.2c-6.1,0-12.3,0-18.4,0c-2,0-4.1,0-6.1,0.1
		L255.8,118.8z"/>
	<path class="st3" d="M255.8,150c-1.4-0.2-2.8-0.1-4.1-0.1c-5.8,0-11.7,0-17.5,0c-1.1,0-1.4-0.2-1.5-1.4c-0.7-8.2-1.5-16.5-2.2-24.7
		c-0.1-1.2-0.2-2.4-0.3-3.6c-0.1-1,0.1-1.3,1.2-1.3c7.6,0,15.3,0,22.9,0c0.5,0,1,0,1.5-0.1c0,0,0,0.1,0,0.1c0,3.4,0,6.7,0,10.1
		c0,0,0,0.1,0,0.1c-4.6,0-9.1,0-13.7-0.1c-0.7,0-0.9,0.3-0.8,0.9c0.3,3,0.5,5.9,0.8,8.9c0,0.5,0.2,0.8,0.8,0.8
		c4.3,0,8.6-0.1,12.9-0.1c0,0,0,0.1,0,0.1c0,3.4,0,6.7,0,10.1C255.8,149.8,255.8,149.9,255.8,150z"/>
	<path class="st3" d="M255.8,176.8c0,0,0,0.1,0,0.1c-6.6-1.8-13.2-3.7-19.8-5.5c-1.1-0.3-1.4-0.7-1.5-1.8c-0.3-4.5-0.8-9-1.2-13.5
		c-0.1-0.8,0-1.3,1-1.2c2.8,0.1,5.5,0,8.3,0c0.8,0,1,0.2,1.1,1c0.1,2,0.4,3.9,0.5,5.9c0.1,0.9,0.4,1.4,1.4,1.7
		c3.4,0.8,6.8,1.8,10.2,2.7c0,0.1,0,0.1,0,0.2C255.8,169.8,255.8,173.3,255.8,176.8z"/>
	<path class="st2" d="M255.8,166.3c0-0.1,0-0.1,0-0.2c0-5.4,0-10.8,0.1-16.2c0-0.1,0-0.1,0-0.2c3.8,0,7.6,0.1,11.4,0
		c0.9,0,1.2,0.2,1.1,1.2c-0.4,3.6-0.7,7.2-0.9,10.8c-0.1,1.2-0.6,1.5-1.6,1.8C262.4,164.4,259.1,165.4,255.8,166.3z"/>
	<path class="st4" d="M255.8,166.3c3.3-0.9,6.6-1.9,9.9-2.8c1.1-0.3,1.5-0.7,1.6-1.8c0.2-3.6,0.6-7.2,0.9-10.8
		c0.1-0.9-0.2-1.2-1.1-1.2c-3.8,0-7.6,0-11.4,0c0-3.4,0-6.7,0-10.1c7.7,0,15.4,0,23.1-0.1c0.5,0,0.8,0.1,0.7,0.7
		c-0.6,6.8-1.2,13.6-1.8,20.3c-0.3,3.2-0.6,6.3-0.9,9.5c0,0.6-0.2,0.9-0.8,1.1c-6.7,1.8-13.5,3.7-20.2,5.5
		C255.8,173.3,255.8,169.8,255.8,166.3z"/>
	<path class="st4" d="M255.8,129c0-3.4,0-6.7,0-10.1c2,0,4.1-0.1,6.1-0.1c6.1,0,12.3,0,18.4,0c1,0,1.2,0.3,1.1,1.2
		c-0.3,2.7-0.5,5.3-0.7,8c-0.1,0.6-0.1,1-0.9,1C271.8,129.1,263.8,129.1,255.8,129z"/>
	<path class="st0" d="M255.8,139.6c-4.3,0-8.6,0-12.9,0.1c-0.6,0-0.7-0.2-0.8-0.8c-0.2-3-0.5-5.9-0.8-8.9c-0.1-0.6,0.1-0.9,0.8-0.9
		c4.6,0,9.1,0.1,13.7,0.1C255.8,132.6,255.8,136.1,255.8,139.6z"/>
</g>
</svg>
