<?xml version="1.0" encoding="utf-8"?>
<!-- Generator: Adobe Illustrator 26.1.0, SVG Export Plug-In . SVG Version: 6.00 Build 0)  -->
<svg version="1.1" id="svg2816" xmlns:svg="http://www.w3.org/2000/svg"
	 xmlns="http://www.w3.org/2000/svg" xmlns:xlink="http://www.w3.org/1999/xlink" x="0px" y="0px" viewBox="0 0 315 300"
	 style="enable-background:new 0 0 315 300;" xml:space="preserve">
<style type="text/css">
	.st0{fill:#EFDA4F;}
	.st1{fill:#323330;}
</style>
<g>
	<path class="st0" d="M276.2,268.8c-79.2,0-158.3,0-237.5,0c0,0,0-0.1,0-0.1c0-78.6,0-157.1,0-235.7c0-2-0.3-1.7,1.6-1.7
		c78.1,0,156.1,0,234.2,0c0.3,0,0.5,0,0.8,0c0.7-0.1,0.9,0.3,0.9,0.9c0,0.3,0,0.6,0,0.9c0,78,0,156,0,234
		C276.2,267.6,276.2,268.2,276.2,268.8z M220.6,249.9c5.3,0,10.6-0.7,15.8-2.4c8-2.7,14.4-7.3,18.2-15.1c2.5-5.2,3.2-10.7,2.9-16.4
		c-0.5-8.4-3.6-15.4-10-21c-4.9-4.3-10.6-7.2-16.5-9.9c-4.7-2.2-9.6-4-14.2-6.3c-2-1-3.9-2.2-5.5-3.9c-3.9-3.9-4.1-13.2,3.6-15.8
		c5.3-1.8,10.3-0.9,14.6,3c1.6,1.4,2.8,3.2,3.8,5c0.3,0.5,0.5,0.7,1.1,0.3c5.3-3.5,10.7-6.9,16-10.3c0.5-0.3,0.6-0.5,0.3-1.1
		c-4.6-7.7-10.7-13.4-19.6-15.8c-7.3-1.9-14.7-2-22.1-0.2c-13.5,3.4-22,14.1-22.3,27.8c-0.2,11.6,4.4,20.7,14,27.2
		c3.2,2.1,6.5,3.9,10,5.5c5.2,2.4,10.5,4.4,15.6,7c2.2,1.1,4.3,2.3,6,4.1c2.6,2.7,3.4,6,2.6,9.6c-0.8,3.8-3.5,6.1-6.9,7.3
		c-6.7,2.4-13.3,1.9-19.6-1.5c-4.2-2.2-7.2-5.8-9.7-9.8c-0.4-0.7-0.7-0.9-1.5-0.4c-5.4,3.2-10.9,6.4-16.4,9.5
		c-0.7,0.4-0.8,0.7-0.4,1.5c3.3,6,7.8,11,13.6,14.7C202,247.9,211,249.9,220.6,249.9z M167.8,180.7
		C167.8,180.7,167.8,180.7,167.8,180.7c0.1-13.1,0.1-26.2,0.1-39.3c0-0.9-0.2-1.2-1.2-1.2c-6.6,0-13.1,0.1-19.7,0
		c-1.2,0-1.5,0.3-1.5,1.5c0,24.6,0,49.3,0,73.9c0,1.8-0.1,3.7-0.4,5.5c-0.6,3.3-1.8,6.3-5.1,7.8c-4.2,1.9-11.7,2.3-16.2-3.3
		c-1.6-1.9-2.9-4-4.1-6.2c-0.4-0.7-0.6-0.7-1.3-0.3c-5.5,3.4-11.1,6.7-16.6,10.1c-0.5,0.3-0.7,0.6-0.4,1.2c3.7,7.3,9,13,16.5,16.3
		c8.3,3.7,17.1,4.1,25.9,2.4c6.9-1.3,12.9-4.4,17.3-10.1c4.4-5.7,6.4-12.3,6.5-19.4C167.9,206.6,167.8,193.6,167.8,180.7z"/>
	<path class="st1" d="M220.6,249.9c-9.6-0.1-18.6-2-26.6-7.2c-5.8-3.7-10.3-8.7-13.6-14.7c-0.4-0.7-0.3-1,0.4-1.5
		c5.5-3.1,11-6.3,16.4-9.5c0.8-0.5,1.1-0.2,1.5,0.4c2.5,4,5.5,7.5,9.7,9.8c6.3,3.4,12.9,3.9,19.6,1.5c3.5-1.2,6.1-3.6,6.9-7.3
		c0.8-3.6,0-6.9-2.6-9.6c-1.7-1.8-3.8-3-6-4.1c-5.1-2.6-10.5-4.6-15.6-7c-3.5-1.6-6.8-3.4-10-5.5c-9.6-6.5-14.2-15.6-14-27.2
		c0.2-13.7,8.8-24.4,22.3-27.8c7.4-1.9,14.8-1.8,22.1,0.2c8.9,2.3,15.1,8,19.6,15.8c0.3,0.5,0.2,0.7-0.3,1.1
		c-5.4,3.4-10.7,6.9-16,10.3c-0.6,0.4-0.8,0.2-1.1-0.3c-1-1.8-2.2-3.6-3.8-5c-4.3-3.9-9.3-4.8-14.6-3c-7.7,2.6-7.4,12-3.6,15.8
		c1.6,1.6,3.5,2.8,5.5,3.9c4.6,2.4,9.5,4.2,14.2,6.3c5.9,2.7,11.6,5.6,16.5,9.9c6.4,5.6,9.5,12.6,10,21c0.3,5.7-0.3,11.2-2.9,16.4
		c-3.8,7.7-10.2,12.4-18.2,15.1C231.2,249.3,225.9,249.9,220.6,249.9z"/>
	<path class="st1" d="M167.8,180.7c0,13,0.1,25.9-0.1,38.9c-0.1,7-2,13.7-6.5,19.4c-4.4,5.7-10.4,8.8-17.3,10.1
		c-8.8,1.7-17.5,1.3-25.9-2.4c-7.5-3.4-12.9-9-16.5-16.3c-0.3-0.7-0.1-0.9,0.4-1.2c5.5-3.3,11.1-6.7,16.6-10.1
		c0.6-0.4,0.9-0.3,1.3,0.3c1.2,2.2,2.5,4.3,4.1,6.2c4.5,5.5,12,5.2,16.2,3.3c3.3-1.5,4.5-4.5,5.1-7.8c0.3-1.8,0.4-3.7,0.4-5.5
		c0-24.6,0-49.3,0-73.9c0-1.2,0.3-1.5,1.5-1.5c6.6,0.1,13.1,0,19.7,0c0.9,0,1.2,0.2,1.2,1.2C167.8,154.4,167.8,167.5,167.8,180.7
		C167.8,180.7,167.8,180.7,167.8,180.7z"/>
</g>
</svg>
