<?xml version="1.0" encoding="utf-8"?>
<!-- Generator: Adobe Illustrator 26.1.0, SVG Export Plug-In . SVG Version: 6.00 Build 0)  -->
<svg version="1.1" id="svg2816" xmlns:svg="http://www.w3.org/2000/svg"
	 xmlns="http://www.w3.org/2000/svg" xmlns:xlink="http://www.w3.org/1999/xlink" x="0px" y="0px" viewBox="0 0 315 300"
	 style="enable-background:new 0 0 315 300;" xml:space="preserve">
<style type="text/css">
	.st0{fill:#9B5197;}
	.st1{fill:#682D7A;}
	.st2{fill:#FFFFFF;}
</style>
<g>
	<path class="st0" d="M209.5,141.3c0.2,0,0.3,0.1,0.5,0.1v0C209.9,141.3,209.7,141.3,209.5,141.3z"/>
	<path class="st1" d="M225.6,193.8c-3.6,3-7.8,4.9-11.8,7.2c-16.3,9.5-32.6,18.8-48.9,28.3c-5.1,2.9-9.8,2.9-14.9-0.1
		c-19.1-11.2-38.4-22.2-57.6-33.3c-1-0.6-2.1-1.1-2.9-2.1c5.2-3.7,10.8-6.6,16.2-9.9c4.6-2.8,9.3-5.4,13.9-8.1
		c0.1-0.1,0.2-0.1,0.3-0.2c0,0,0.1-0.1,0.1-0.1c0.1-0.1,0.2-0.2,0.2-0.2h0c0.4,0.2,0.6,0.6,0.8,0.9c6.9,10.1,16.4,16.3,28.2,19.4
		c5.2,1.4,10.4,0.7,15.6,0.6c7.1-0.1,13.3-3.1,19.2-6.5c5.4-3.2,9.8-7.5,13.5-12.6c2,0.7,3.7,2,5.4,3.1c4.7,2.7,9.4,5.5,14,8.3
		C220,190.3,223,191.7,225.6,193.8z"/>
	<path class="st2" d="M200,128.6c-3.7,2.2-7.3,4.4-10.9,6.6c-2.1,1.2-4.1,2.4-6.2,3.6c-0.9,0.5-1.3,0-1.8-0.7
		c-3-4.7-6.9-8.3-12-10.6c-8.6-3.9-19.4-1.7-26,5c-4.4,4.5-7,9.6-7.5,15.8c-0.4,5.8,1.3,11,4.6,15.8c4.3,5.9,10.1,9.3,17.3,10.2
		c8.5,1,15.4-2.5,21.1-8.6c0.9-0.1,1.7,0.2,2.4,0.6c5.2,3.2,10.4,6.4,15.7,9.6c0.4,0.3,1,0.4,1,1.1c-3.7,5.1-8.2,9.4-13.5,12.6
		c-5.9,3.5-12.2,6.4-19.2,6.5c-5.2,0.1-10.5,0.8-15.6-0.6c-11.7-3.1-21.3-9.4-28.2-19.4c-0.2-0.3-0.4-0.7-0.8-0.9
		c-0.1-0.2-0.3-0.4-0.4-0.7c-0.1-0.2-0.2-0.4-0.4-0.7c-0.1-0.2-0.2-0.4-0.4-0.7v0c-0.1-0.2-0.2-0.4-0.3-0.7
		c-0.5-0.9-0.9-1.9-1.3-2.8c-0.1-0.3-0.2-0.5-0.3-0.8c-0.7-1.6-1.3-3.1-1.9-4.7c-2.5-6.7-2.9-13.6-1.8-20.6
		c1.3-8.8,4.5-16.7,10.4-23.6c6-7,13.3-12.1,22.2-14.7c15.4-4.5,29.3-1.4,42.2,7.8c5.1,3.6,8.9,8.4,12.3,13.6
		C201.2,127.8,200.7,128.1,200,128.6z"/>
	<path class="st1" d="M178.7,165.7c-5.7,6.1-12.6,9.6-21.1,8.6c-7.2-0.8-13-4.2-17.3-10.2c2.4-2.1,5.4-3.4,8.1-5
		c2.7-1.7,5.6-3.3,8.4-5c1.2-0.7,2.1-0.8,3.3,0c3.7,2.4,7.6,4.6,11.3,6.9C173.8,162.6,176.4,163.9,178.7,165.7z"/>
	<path class="st2" d="M213.8,156.6c-0.5-0.8-1.9-0.2-2.9-0.3c-0.7,0-1-0.2-0.9-0.9c0.1-1.7,0.1-3.3,0.1-5h0c1.2-0.6,2.5-0.3,3.7-0.3
		c0.3-1.7,0.3-3.3,0-5l-0.1,0.1l-0.1-0.1c-1.8,0.1-2.7,0.1-3.1-0.3c0,0,0,0-0.1-0.1c-0.4-0.5-0.4-1.4-0.4-3.3v0
		c-0.2,0-0.3-0.1-0.5-0.1c-0.2,0-0.3-0.1-0.5-0.1c-1.3-0.2-2.7-0.2-4.1,0.2c0.1,3.7,0.1,3.7-3.6,3.7c-0.3,0-0.6,0-0.9,0
		c-1.4,0.3-1.9-0.4-1.7-1.8c0.1-0.6,0-1.3,0-2c-1.1-0.3-2.3,0-3.4-0.1c-1.3-0.2-1.6,0.4-1.6,1.6c0.1,2.5,0,2.5-2.6,2.6
		c-0.5,0-1.5-0.3-1.5,0.4c0,1.4-0.6,3,0.4,4.3c3.7-0.1,3.7-0.1,3.7,3.5c0,0.3,0,0.6,0,0.9c0.2,1.5-0.3,2.1-1.8,1.7
		c-0.7,0.3-1.9-0.3-2.1,0.6c-0.3,1.3-0.3,2.8,0.1,4.1c0.3,0.9,1.6,0.3,2.4,0.4c0.7,0.1,1.4-0.1,1.4,1c0.2,3,0.3,2.9,3.3,2.9
		c0.5,0,1.1,0,1.6,0c0-0.2,0-0.4,0.1-0.5c0.2-1.1-0.6-2.9,0.5-3.2c1.7-0.5,3.7-0.4,5.6,0c0.1,0,0.1,0.3,0.1,0.5c0,0.5,0.1,1,0.1,1.4
		c-0.2,1.5,0.3,1.9,1.8,1.9c2.9-0.1,2.9,0,3.2-3.3c-0.1-0.9,0.6-0.7,1.1-0.7c0.7,0,1.4,0.1,2.2,0.1c0.2-0.1,0.5-0.1,0.7-0.2
		c0-0.5,0-1,0-1.4C214,158.7,214.3,157.4,213.8,156.6z M204,156.3c-0.2,0-0.4,0-0.5,0c-5.1,0.1-5.1,0.1-4.7-5.1
		c0.1-0.9,0.3-1.2,1.2-1c0.1,0,0.2,0,0.2,0h0c0.2,0,0.3,0,0.5,0h0c0.2,0,0.4,0,0.5,0c0.7,0,1.4,0,2.1,0.1c0,0,0,0,0,0
		c0.1,0,0.1,0,0.2,0c0.2,0,0.5,0,0.7,0c0.1-0.1,0.2-0.1,0.3-0.1c0,0,0.1,0,0.1,0c0,0,0,0,0.1,0c0,0,0,0,0,0.1c0,0,0.1,0.1,0.1,0.1
		c0,1.7,0.1,3.4,0.1,5C205,156.1,204.7,156.3,204,156.3z"/>
	<path class="st0" d="M223,104.3c-2.9-1.5-5.7-3.3-8.6-5c-16.5-9.5-33-19-49.4-28.6c-5.1-3-9.8-2.9-14.9,0.1
		c-19,11.1-38,22.1-57.1,33c-5.2,3-7.6,7.1-7.6,13.1c0.1,22.1,0.1,44.1,0,66.2c0,4.2,1.1,7.8,4,10.8c5.2-3.7,10.8-6.6,16.2-9.9
		c4.6-2.8,9.3-5.4,13.9-8.1c0.1-0.1,0.2-0.1,0.3-0.2c0,0,0.1-0.1,0.1-0.1c0.1-0.1,0.2-0.2,0.2-0.2c-0.1-0.2-0.3-0.4-0.4-0.7
		c-0.1-0.2-0.2-0.4-0.4-0.7c-0.1-0.2-0.2-0.4-0.4-0.7v0c-0.1-0.2-0.2-0.4-0.3-0.7c-0.5-0.9-0.9-1.9-1.3-2.8
		c-0.1-0.3-0.2-0.5-0.3-0.8c-0.7-1.6-1.3-3.1-1.9-4.7c-2.5-6.7-2.9-13.6-1.8-20.6c1.3-8.8,4.5-16.7,10.4-23.6
		c6-7,13.3-12.1,22.2-14.7c15.4-4.5,29.3-1.4,42.2,7.8c5.1,3.6,8.9,8.4,12.3,13.6c0.6,1,0.2,1.3-0.6,1.8c-3.7,2.2-7.3,4.4-10.9,6.6
		c-2.1,1.2-4.1,2.4-6.2,3.6c-0.9,0.5-1.3,0-1.8-0.7c-3-4.7-6.9-8.3-12-10.6c-8.6-3.9-19.4-1.7-26,5c-4.4,4.5-7,9.6-7.5,15.8
		c-0.4,5.8,1.3,11,4.6,15.8c2.4-2.1,5.4-3.4,8.1-5c2.7-1.7,5.6-3.3,8.4-5c1.2-0.7,2.1-0.8,3.3,0c3.7,2.4,7.6,4.6,11.3,6.9
		c2.5,1.5,5.1,2.8,7.4,4.6c0.9-0.1,1.7,0.2,2.4,0.6c5.2,3.2,10.4,6.4,15.7,9.6c0.4,0.3,1,0.4,1,1.1c2,0.7,3.7,2,5.4,3.1
		c4.7,2.7,9.4,5.5,14,8.3c2.8,1.8,5.8,3.2,8.5,5.3c2.2-1.4,3-3.8,4-6.1v-74.9C228.9,108.7,226.5,106.2,223,104.3z M214,159.8
		c0,0.5,0,1,0,1.4c-0.2,0.1-0.5,0.1-0.7,0.2c-0.7,0-1.4-0.1-2.2-0.1c-0.5,0-1.2-0.2-1.1,0.7c-0.3,3.3-0.3,3.2-3.2,3.3
		c-1.5,0.1-2.1-0.4-1.8-1.9c0.1-0.5,0-1-0.1-1.4c0-0.2,0-0.5-0.1-0.5c-1.9-0.4-3.9-0.5-5.6,0c-1.1,0.3-0.2,2.1-0.5,3.2
		c0,0.2-0.1,0.4-0.1,0.5c-0.5,0-1.1,0-1.6,0c-3,0-3,0-3.3-2.9c-0.1-1.1-0.7-1-1.4-1c-0.8-0.1-2.2,0.5-2.4-0.4
		c-0.4-1.3-0.3-2.8-0.1-4.1c0.2-0.9,1.4-0.2,2.1-0.6c1.5,0.4,2.1-0.3,1.8-1.7c0-0.3,0-0.6,0-0.9c0-3.6,0-3.6-3.7-3.5
		c-1.1-1.3-0.4-2.9-0.4-4.3c0-0.8,1-0.4,1.5-0.4c2.6-0.1,2.6-0.1,2.6-2.6c0-1.2,0.3-1.8,1.6-1.6c1.1,0.1,2.3-0.2,3.4,0.1
		c0,0.7,0.1,1.3,0,2c-0.2,1.4,0.3,2,1.7,1.8c0.3-0.1,0.6,0,0.9,0c3.7,0,3.7,0,3.6-3.7c1.4-0.4,2.7-0.4,4.1-0.2
		c0.2,0,0.3,0.1,0.5,0.1c0.2,0,0.3,0.1,0.5,0.1v0c0,1.9,0,2.8,0.4,3.3c0,0,0,0,0.1,0.1c0.5,0.4,1.4,0.4,3.1,0.3l0.1,0.1l0.1-0.1
		c0.3,1.7,0.3,3.3,0,5c-1.3,0.1-2.5-0.3-3.7,0.3h0c0,1.7-0.1,3.3-0.1,5c0,0.7,0.3,0.9,0.9,0.9c1,0,2.4-0.5,2.9,0.3
		C214.3,157.4,214,158.7,214,159.8z"/>
	<path class="st0" d="M205,155.4c0,0.8-0.3,1-1,0.9c-0.2,0-0.4,0-0.5,0c-5.1,0.1-5.1,0.1-4.7-5.1c0.1-0.9,0.3-1.2,1.2-1
		c0.1,0,0.2,0,0.3,0c0.7-0.1,1.4-0.1,2.1,0c0.3,0,0.7,0.1,1,0.1c0.3,0,0.7,0.1,1,0c0,0,0.1,0,0.1,0c0.1,0,0.2-0.1,0.3,0
		c0.1,0,0.1,0.1,0.2,0.2C204.9,152,204.9,153.7,205,155.4z"/>
</g>
</svg>
