<?xml version="1.0" encoding="utf-8"?>
<!-- Generator: Adobe Illustrator 26.1.0, SVG Export Plug-In . SVG Version: 6.00 Build 0)  -->
<svg version="1.1" id="svg2816" xmlns:svg="http://www.w3.org/2000/svg"
	 xmlns="http://www.w3.org/2000/svg" xmlns:xlink="http://www.w3.org/1999/xlink" x="0px" y="0px" viewBox="0 0 315 300"
	 style="enable-background:new 0 0 315 300;" xml:space="preserve">
<style type="text/css">
	.st0{fill:#0B2F22;}
</style>
<g>
	<path class="st0" d="M204.8,197.9c-1.5-0.6-3.1-0.5-4.6-0.9c-2-0.5-3.9-1-5.8-1.7c-0.5-0.2-0.7-0.4-0.7-0.9c0-4.3,0-8.6,0-13.1
		c2,0.9,3.9,1.8,5.9,2.4c4.9,1.5,9.9,2.1,15,1.1c5.6-1.1,8.5-4.6,8.9-10.4c0-0.6,0.1-1.2,0.1-1.8c0.1-0.8-0.1-0.9-0.9-0.6
		c-6.2,2.4-12.5,2.2-18.6-0.4c-4.8-2-8.1-5.6-9.9-10.5c-2.4-6.5-2.4-13.1,0-19.6c2.8-7.5,8.6-11.8,15.9-14.2
		c6.2-2.1,12.7-2.4,19.2-2.3c5.3,0.1,10.5,0.9,15.7,1.9c0.7,0.1,0.9,0.3,0.5,1.1c-1.5,3-2.9,6-4.3,9c-0.3,0.7-0.7,0.9-1.5,0.8
		c-2.3-0.5-2.4-0.3-2.3,1.9c0.1,2.3,0.2,4.6,0.2,6.9c0.1,6.8,0.2,13.6,0.2,20.4c0,4.4-0.2,8.9-1.3,13.2c-2.3,8.9-8,14.2-16.8,16.5
		c-1.9,0.5-3.9,0.9-5.9,0.9c-0.2,0-0.3,0-0.4,0.2C210.7,197.9,207.8,197.9,204.8,197.9z M223.5,147.5c-0.1,0-0.2,0-0.3,0
		c0-3.1,0-6.3,0-9.4c0-1-0.3-1.2-1.2-1.1c-1.4,0.1-2.8,0.1-4.2,0.4c-4.4,0.9-7.9,3-9.4,7.5c-1.1,3.3-1.1,6.6-0.1,9.9
		c1.1,3.8,3.6,6.1,7.5,6.7c2.3,0.4,4.5,0.1,6.7-0.5c0.7-0.2,0.9-0.5,0.9-1.2C223.5,155.7,223.5,151.6,223.5,147.5z"/>
	<path class="st0" d="M67.9,103.1c0,0.4,0,0.8,0,1.1c0,22.1,0,44.2,0,66.2c0,1.1-0.3,1.4-1.3,1.5c-6.6,1.2-13.2,2-19.9,1.7
		c-5.2-0.2-10.3-1-15-3.5c-5.9-3.2-9.1-8.2-10.3-14.7c-0.1-0.7,0-1.5-0.4-2.1c0-2.3,0-4.7,0-7c0.3-0.1,0.2-0.5,0.2-0.7
		c1.2-8,5-14.3,12.4-18c5.8-2.9,12-3.5,18.4-2.3c0.5,0.1,1,0.3,1-0.6c0-7.2,0-14.5-0.1-21.7C57.9,103.1,62.9,103.1,67.9,103.1z
		 M53,149.5c0-3.7,0-7.3,0-11c0-0.7-0.2-1-0.9-1.1c-1.6-0.3-3.1-0.5-4.7-0.5c-5.1,0.1-9,2.8-10.5,7.4c-1,3.2-1.1,6.5-0.2,9.7
		c1,3.6,3.2,6.1,6.8,7.2c2.9,0.9,5.9,0.6,8.9,0.3c0.7-0.1,0.5-0.6,0.5-1C53,156.9,53,153.2,53,149.5z"/>
	<path class="st0" d="M293,152.8c-0.3,1.6-0.6,3.2-1,4.8c-2.7,9.5-9,15-18.7,16.5c-4.8,0.8-9.6,0.5-14.2-1.1
		c-6.8-2.3-11.4-7-13.4-13.9c-2-6.7-1.9-13.5,0.6-20.1c2.5-6.7,7.3-11.1,14.2-13.1c5.9-1.7,11.8-1.7,17.6,0.2
		c8.4,2.8,12.9,8.9,14.5,17.4c0.2,0.8,0.1,1.7,0.4,2.5C293,148.2,293,150.5,293,152.8z M259.6,149.8c-0.1,2.3,0.2,4.7,1.2,7.1
		c1.3,3.1,3.5,5.2,6.9,5.6c3.3,0.3,5.9-0.8,7.8-3.5c1.4-2,1.9-4.4,2.2-6.8c0.3-3.8,0.1-7.5-1.7-11c-1.5-2.9-3.9-4.3-7.1-4.4
		c-3.2,0-5.8,1.4-7.4,4.2C260,143.6,259.6,146.5,259.6,149.8z"/>
	<path class="st0" d="M91.7,103.1c0,4.7,0,9.4,0,14.1c0,0.9-0.2,1.2-1.2,1.2c-4.3,0-8.6,0-12.9,0c-0.6,0-0.9-0.1-0.9-0.8
		c0-4.8,0-9.6,0-14.5C81.7,103.1,86.7,103.1,91.7,103.1z"/>
	<path class="st0" d="M144.1,150.6c0-7.1,0-14.3,0-21.4c0-0.7,0.2-1,0.9-1.1c7.6-1.9,15.3-3.2,23.2-3.1c3.9,0.1,7.8,0.5,11.5,2.2
		c4.8,2.2,7.4,5.9,8,11.2c0.2,2,0.3,4.1,0.3,6.1c0,9.2,0,18.4,0,27.6c0,1-0.3,1.2-1.3,1.2c-4.2-0.1-8.4-0.1-12.6,0
		c-0.9,0-1.1-0.3-1.1-1.1c0-8.8,0-17.6,0-26.4c0-1.2-0.1-2.3-0.2-3.5c-0.4-3.4-2.5-5.1-6.2-5.3c-2.2-0.1-4.4,0.2-6.6,0.7
		c-0.9,0.2-1,0.6-1,1.4c0,10.9,0,21.8,0,32.7c0,1.1-0.2,1.5-1.4,1.4c-4.2-0.1-8.4-0.1-12.6,0c-0.9,0-1-0.2-1-1.1
		C144.1,165,144.1,157.8,144.1,150.6z"/>
	<path class="st0" d="M100.6,140.8c0-3.7,0-7.2,0-10.8c0-0.7,0.4-0.9,0.9-1.1c5.2-2.3,10.7-3.7,16.5-4c3.8-0.2,7.6,0,11.3,1.2
		c4.6,1.6,7,4.8,7.4,9.6c0.2,2.9,0.2,5.8,0.2,8.7c0,8.8,0,17.7,0,26.5c0,0.9-0.1,1.3-1.2,1.5c-6.9,0.9-13.8,1.5-20.7,1.5
		c-3.4,0-6.8-0.4-10-1.6c-4.6-1.8-6.9-5.3-7.3-10.1c-0.4-4.8,0.3-9.2,4.1-12.6c2.5-2.3,5.6-3.5,8.8-4.4c3.9-1.1,7.9-1.6,11.9-2
		c0.6-0.1,0.8-0.2,0.8-0.9c-0.1-0.7,0-1.4,0-2.2c0-2.6-1.1-3.7-3.7-3.8c-5.1-0.3-10,0.8-14.8,2.6C103.4,139.6,102,140.2,100.6,140.8
		z M123.9,158c0-1.4,0-2.8,0-4.2c0-0.7-0.2-0.8-0.9-0.7c-1,0.2-1.9,0.2-2.9,0.4c-2.3,0.4-4.7,0.7-6.8,1.9c-2,1.1-2.8,2.9-2.3,5.1
		c0.3,1.7,1.7,2.7,3.8,3c2.8,0.3,5.6,0,8.4-0.4c0.6-0.1,0.6-0.3,0.6-0.8C123.9,160.8,123.9,159.4,123.9,158z"/>
	<path class="st0" d="M62.1,187.3c1.2-0.6,2.2-1.1,3.2-1.7c6.6-3.4,10-8.8,10.8-16.1c0.5-4.2,0.6-8.4,0.6-12.6c0-9.9,0-19.8,0-29.7
		c0-0.9,0.2-1.2,1.2-1.2c4.2,0.1,8.5,0,12.7,0c0.8,0,1.1,0.1,1.1,1.1c0,11.1,0,22.1-0.1,33.2c0,5.1-0.1,10.2-1,15.2
		c-1.5,8.1-5.9,14-13.3,17.7c-1,0.5-1.8,0.5-2.8,0C70.5,191.2,66.4,189.3,62.1,187.3z"/>
</g>
</svg>
