<?xml version="1.0" encoding="utf-8"?>
<!-- Generator: Adobe Illustrator 26.1.0, SVG Export Plug-In . SVG Version: 6.00 Build 0)  -->
<svg version="1.1" id="svg2816" xmlns:svg="http://www.w3.org/2000/svg"
	 xmlns="http://www.w3.org/2000/svg" xmlns:xlink="http://www.w3.org/1999/xlink" x="0px" y="0px" viewBox="0 0 315 300"
	 style="enable-background:new 0 0 315 300;" xml:space="preserve">
<style type="text/css">
	.st0{fill:#EA2628;}
	.st1{fill:#EA2728;}
	.st2{fill:#1A8AC6;}
	.st3{fill:#EB362D;}
</style>
<g>
	<path class="st0" d="M207.3,168.5c0,4.6,0,9.2,0,13.8c0,1,0,1-1,1c-1.4,0-2.8,0-4.2,0c-0.7,0-0.8-0.1-0.9-0.8
		c-0.2-0.9-0.3-1.8-0.5-2.7c-0.1-0.4-0.2-0.5-0.5-0.2c-0.9,0.8-1.9,1.5-2.9,2.1c-2.1,1.2-4.4,2-6.8,2.4c-1.2,0.2-2.4,0.1-3.5-0.1
		c-1.3-0.2-2.7-0.4-4-0.9c-2.4-1-4.1-2.6-5-5.1c-0.8-2.3-1.1-4.7-0.7-7.1c0.5-2.9,2-5.1,4.4-6.8c2.7-1.9,5.7-3,9-3.3
		c2.7-0.3,5.4-0.5,8.1-0.6c0.8,0,0.8-0.1,0.8-0.8c0-1.6,0-3.2-0.4-4.8c-0.5-2-1.5-3.5-3.5-4.3c-0.7-0.3-1.5-0.4-2.3-0.4
		c-3.6-0.3-7,0.3-10.4,1.4c-0.7,0.2-1.4,0.5-2.1,0.7c-0.5,0.2-0.6,0.1-0.8-0.4c-0.3-1.1-0.6-2.3-0.9-3.4c-0.2-0.6-0.1-0.8,0.5-1
		c1.3-0.6,2.7-1.1,4.1-1.5c3.7-1.1,7.5-1.7,11.4-1.5c2.1,0.1,4.2,0.5,6.1,1.4c3.3,1.6,5.2,4.2,5.8,7.8c0.1,0.8,0.2,1.6,0.2,2.4
		C207.3,159.9,207.3,164.2,207.3,168.5z M199.6,169.8c0-1.3,0-2.7,0-4c0-0.5-0.1-0.6-0.6-0.6c-0.2,0-0.3,0-0.5,0
		c-1.7,0-3.5,0.1-5.2,0.2c-1.7,0.1-3.4,0.4-5,1.1c-1.6,0.7-2.7,1.9-3.1,3.7c-0.2,0.7-0.3,1.5-0.3,2.3c0.1,2,0.8,3.7,2.5,4.9
		c1.6,1,3.3,1.2,5.1,0.8c2.4-0.6,4.5-1.8,6.4-3.4c0.4-0.3,0.6-0.7,0.5-1.2C199.5,172.3,199.6,171,199.6,169.8z"/>
	<path class="st0" d="M252.3,152.1c-0.3-1.2-0.6-2.3-0.9-3.4c-0.1-0.3-0.1-0.5-0.2-0.8c-0.1-0.5-0.1-0.6,0.4-0.8
		c0.8-0.4,1.6-0.7,2.5-1c4.3-1.4,8.7-2.2,13.2-2c2.5,0.1,4.9,0.6,7,1.9c2.6,1.6,4,3.9,4.7,6.8c0.2,0.9,0.3,1.7,0.3,2.6
		c0,9,0,18.1,0,27.1c0,0.1,0,0.3,0,0.4c0,0.2-0.1,0.4-0.4,0.4c-0.1,0-0.2,0-0.3,0c-1.5,0-3,0-4.5,0c-0.8,0-0.8,0-0.9-0.8
		c-0.2-0.8-0.3-1.6-0.4-2.4c0-0.2-0.1-0.3-0.1-0.5c0-0.2-0.2-0.2-0.3-0.1c-0.1,0.1-0.2,0.2-0.3,0.3c-2.3,2-4.9,3.4-7.9,4.1
		c-3.5,0.8-6.9,0.4-10.1-1.2c-1.9-0.9-3.1-2.5-3.9-4.5c-1.1-2.9-1.3-5.9-0.3-8.9c0.7-2.2,2.2-3.9,4-5.2c2.7-1.9,5.6-2.9,8.8-3.3
		c2.7-0.3,5.5-0.5,8.3-0.6c0.7,0,0.7-0.1,0.7-0.7c0.1-1.8,0-3.5-0.5-5.2c-0.1-0.5-0.3-1-0.6-1.5c-0.7-1.4-1.9-2.2-3.4-2.6
		c-1.4-0.4-2.9-0.4-4.3-0.4c-3.3,0.1-6.5,1-9.7,2C252.9,151.9,252.6,152,252.3,152.1z M271.5,169.8
		C271.5,169.8,271.5,169.8,271.5,169.8c0-1.4,0-2.7,0-4.1c0-0.4-0.1-0.5-0.5-0.5c-0.1,0-0.3,0-0.4,0c-1.8,0-3.5,0.1-5.3,0.2
		c-1.5,0.1-3,0.4-4.5,0.9c-1.8,0.7-3,1.8-3.6,3.7c-0.3,1.1-0.4,2.2-0.3,3.3c0.3,2.3,1.8,4.1,4.1,4.7c1.2,0.3,2.4,0.3,3.6,0
		c2.4-0.6,4.5-1.9,6.4-3.4c0.3-0.3,0.4-0.6,0.4-1C271.5,172.4,271.5,171.1,271.5,169.8z"/>
	<path class="st0" d="M245.6,144.9c0,0.4-0.1,0.9-0.2,1.3c-1.4,6.7-3,13.4-5,20c-1.6,5.4-3.4,10.7-5.9,15.7
		c-0.7,1.4-0.7,1.4-2.2,1.4c-2.5,0-5.1,0-7.6,0c-0.6,0-0.6,0-0.8-0.6c-1.5-4.8-3-9.6-4.5-14.4c-1.5-4.7-2.9-9.4-4.4-14.1
		c-0.9-2.9-1.8-5.8-2.7-8.7c-0.2-0.5-0.1-0.6,0.4-0.6c2.4,0,4.8,0,7.2,0c0.7,0,0.8,0.1,1.1,1c1.1,3.5,2.2,7,3.3,10.5
		c1.6,5.1,3.1,10.1,4.5,15.3c0.3,1,0.5,2,0.7,2.9c0,0.2,0.1,0.3,0.2,0.5c0.2,0,0.2-0.2,0.2-0.3c2.4-6.9,4.5-13.8,6.1-20.9
		c0.6-2.7,1.1-5.5,1.3-8.2c0.1-0.8,0.1-0.8,0.8-0.8c2.3,0,4.6,0,6.9,0C245.2,144.9,245.4,144.8,245.6,144.9z"/>
	<path class="st0" d="M154.7,192.7c0.8-0.4,1.6-0.7,2.3-1.2c2.3-1.5,3.7-3.7,4.7-6.2c0.8-2.2,1.2-4.4,1.2-6.7c0-4.4,0-8.8,0-13.2
		c0-11.1,0-22.1,0-33.2c0-1.3,0-1.1,1.1-1.1c2.2,0,4.3,0,6.5,0c0.1,0,0.3,0,0.4,0c0.3,0,0.4,0.2,0.4,0.4c0,0.1,0,0.3,0,0.4
		c0,15.2,0,30.3,0,45.5c0,2.8-0.3,5.5-1.2,8.2c-1.2,3.6-3.1,6.8-6.2,9.1c-1.4,1-3,1.8-4.7,2.4c-0.4,0.1-0.7,0.1-0.9-0.2
		C157.1,195.5,155.9,194.1,154.7,192.7z"/>
	<path class="st1" d="M82.5,156.3c-1-0.8-1.9-1.8-2.8-2.7c-2.8-3-5.6-6-8.2-9.1c-2.1-2.6-4.1-5.2-5.8-8c-0.6-1.1-1.2-2.2-1.7-3.4
		c-0.9-2.3-0.9-4.6-0.1-6.9c0.7-2,1.9-3.8,3.3-5.5c2.3-3,5.1-5.5,7.9-8c4.4-3.9,8.9-7.5,13.4-11.2c2.6-2.1,4.9-4.5,6.7-7.4
		c3-4.7,4.5-9.7,4.2-15.3c0-0.9-0.1-1.8-0.3-2.7c0-0.2-0.1-0.5-0.1-0.7c0-0.2-0.1-0.4,0.1-0.5c0.2-0.1,0.3,0.1,0.4,0.2
		c0.6,0.8,1,1.6,1.3,2.5c1.1,3.8,1.5,7.7,1,11.6c-0.5,4-2,7.6-4.3,10.8c-1.5,2.1-3.3,3.9-5.2,5.7c-4.3,4.1-8.7,8.2-12.8,12.5
		c-1.9,2-3.8,4.1-5.3,6.4c-0.9,1.3-1.6,2.6-2.2,4c-0.9,2.1-1,4.3-0.5,6.5c0.6,2.7,1.6,5.2,2.9,7.6c2.2,4.3,4.7,8.3,7.5,12.2
		C82.1,155.5,82.4,155.8,82.5,156.3C82.5,156.3,82.5,156.3,82.5,156.3z"/>
	<path class="st2" d="M130.4,204.2c1,0.5,1.6,1.2,2,2.1c0.2,0.7-0.1,1.2-0.5,1.7c-0.8,0.9-1.8,1.6-2.8,2.2c-3.3,1.9-6.8,3.1-10.4,4
		c-3.7,0.9-7.4,1.6-11.2,2.1c-2.9,0.4-5.8,0.7-8.7,0.9c-4,0.3-8,0.5-12,0.7c-3.8,0.2-7.6,0.2-11.4,0.3c-4,0.1-8.1,0-12.1-0.1
		c-3.1-0.1-6.2-0.2-9.3-0.4c-3.2-0.2-6.3-0.4-9.5-0.8c-3.5-0.4-7.1-0.9-10.5-1.7c-1.6-0.4-3.2-0.9-4.7-1.7c-0.5-0.3-1-0.6-1.4-1
		c-0.5-0.6-0.6-1.2-0.4-1.9c0.3-1,0.9-1.7,1.7-2.4c1.3-1.1,2.9-1.9,4.5-2.4c3.3-1.2,6.8-2,10.3-2.5c1.5-0.2,3-0.4,4.4-0.5
		c0.8,0,1.6,0.1,2.5,0.1c-0.3,0.2-0.5,0.2-0.8,0.2c-2.5,0.4-4.9,0.9-7.3,1.6c-1.5,0.5-3,1-4.4,1.8c-0.5,0.3-1,0.7-1.3,1.3
		c-0.4,0.7-0.3,1.2,0.3,1.7c0.7,0.6,1.5,0.9,2.3,1.2c1.7,0.5,3.4,0.9,5.1,1.2c3,0.5,5.9,0.9,8.9,1.2c3.3,0.3,6.6,0.6,9.8,0.8
		c3.9,0.3,7.9,0.2,11.8,0.2c2.1,0,4.2-0.1,6.3-0.1c3.6-0.1,7.1-0.2,10.7-0.4c2.3-0.1,4.6-0.2,6.9-0.4c2.9-0.2,5.8-0.4,8.7-0.7
		c2.4-0.2,4.9-0.5,7.3-0.8c3.6-0.5,7.1-1.1,10.6-2.2c1.2-0.4,2.3-0.8,3.4-1.5c0.3-0.2,0.6-0.4,0.8-0.6c0.7-0.6,0.9-1.4,0.6-2.3
		C130.7,204.9,130.6,204.6,130.4,204.2z"/>
	<path class="st0" d="M116.6,105.5c-0.4,0.2-0.7,0.4-0.9,0.6c-3.7,2.3-7.3,4.6-10.8,7.2c-2.7,2-5.3,4.1-7.6,6.5
		c-1.4,1.5-2.7,3.1-3.7,4.8c-1.6,2.8-1.7,5.6-0.1,8.5c0.9,1.8,2.1,3.4,3.2,5.1c1.1,1.7,2.1,3.3,2.9,5.2c0.5,1.2,0.9,2.5,1.1,3.8
		c0.3,2.1-0.3,4-1.3,5.8c-1,1.7-2.2,3.1-3.6,4.4c-1.9,1.8-3.9,3.3-6.1,4.7c-0.1,0.1-0.2,0.2-0.4,0.1c0-0.2,0.1-0.3,0.2-0.5
		c1.1-1.5,2.2-3.1,3.1-4.8c1.3-2.5,1.3-4.9,0-7.3c-0.5-1-1.1-2-1.8-2.9c-1.2-1.7-2.4-3.4-3.6-5.1c-1.8-2.6-2.9-5.5-3.2-8.7
		c-0.3-2.8,0.3-5.5,1.5-8c1.2-2.5,3-4.6,5-6.5c3-2.8,6.5-5,10.1-6.9c4.9-2.5,10-4.5,15.3-6.1C116.1,105.5,116.3,105.4,116.6,105.5z"
		/>
	<path class="st2" d="M62.4,191.9c0,0.3-0.2,0.4-0.3,0.6c-0.5,0.9-0.4,1.6,0.4,2.3c0.5,0.4,1.2,0.7,1.8,0.9c1.4,0.4,2.9,0.6,4.4,0.6
		c4,0.2,7.9,0.2,11.9,0.2c2.9-0.1,5.7-0.2,8.5-0.5c2.6-0.2,5.1-0.5,7.6-1.1c0.4-0.1,0.8-0.2,1.1-0.3c0.5-0.2,1-0.1,1.5,0.2
		c0.7,0.4,1.3,0.8,2,1.2c1.8,1,3.6,2,5.6,2.7c-0.4,0.3-0.7,0.4-1.1,0.5c-4.1,1.3-8.3,2.5-12.6,3.3c-3.2,0.6-6.5,1-9.8,1.1
		c-2.5,0.1-5,0-7.5-0.1c-2.5-0.1-4.9-0.3-7.3-0.7c-2.9-0.4-5.7-1-8.4-2.1c-1-0.4-1.9-0.9-2.7-1.6c-0.1,0-0.1-0.1-0.2-0.1
		c-1.7-1.5-1.7-3.4,0-4.9c1.3-1.1,2.9-1.8,4.5-2.2C62,191.8,62.2,191.8,62.4,191.9z"/>
	<path class="st2" d="M59.1,175.3c0,0.3-0.3,0.4-0.4,0.6c-0.3,0.3-0.6,0.7-0.8,1.1c-0.5,0.9-0.3,1.7,0.5,2.4c0.5,0.5,1.2,0.7,1.9,1
		c1.3,0.4,2.6,0.6,3.9,0.8c4.3,0.5,8.7,0.5,13,0.4c2.6-0.1,5.1-0.2,7.7-0.4c4.3-0.3,8.5-0.7,12.8-1.3c1.5-0.2,3-0.5,4.5-0.7
		c0.9-0.2,1.7,0.1,2.4,0.7c1.2,1.1,2.5,1.9,4,2.5c0.2,0.1,0.5,0.2,0.8,0.3c-0.3,0.3-0.7,0.4-1.1,0.5c-3.4,1.1-6.9,1.9-10.5,2.6
		c-2.6,0.5-5.1,0.9-7.7,1.1c-1.6,0.2-3.2,0.3-4.9,0.3c-1,0-1.9,0.1-2.9,0.1c-3.4,0-6.7-0.2-10.1-0.3c-3.5-0.1-7-0.5-10.4-1
		c-2.6-0.4-5.1-0.9-7.5-1.9c-0.5-0.2-0.9-0.4-1.3-0.7c-1.3-0.9-1.6-2.1-0.9-3.5c0.4-0.8,0.9-1.5,1.6-2
		C55.2,176.3,57.1,175.6,59.1,175.3z"/>
	<path class="st2" d="M115.1,163.3c-0.1,0.3-0.3,0.3-0.4,0.4c-1.7,1-3.4,2.1-5,3.1c-0.4,0.2-0.8,0.4-1.2,0.5c-3.2,0.5-6.5,1-9.7,1.4
		c-3.3,0.4-6.6,0.8-9.9,1.1c-3.5,0.3-6.9,0.6-10.4,0.8c-3.7,0.2-7.4,0.3-11.1,0.2c-1.9-0.1-3.9-0.1-5.8-0.2
		c-3.1-0.2-6.2-0.4-9.2-0.7c-2.3-0.3-4.6-0.5-6.9-1c-1.4-0.3-2.8-0.6-4.1-1.1c-0.5-0.2-0.9-0.4-1.3-0.8c-0.5-0.5-0.5-0.9-0.1-1.4
		c0.4-0.6,0.9-1,1.5-1.3c1.6-1,3.3-1.7,5-2.4c4.3-1.6,8.7-2.8,13.3-3.5c1.4-0.2,2.7-0.4,4.1-0.5c0.2,0,0.5,0,0.8,0
		c-0.2,0.2-0.4,0.2-0.6,0.3c-2.4,0.7-4.9,1.4-7.2,2.2c-1.3,0.5-2.7,1-3.9,1.7c-0.6,0.3-1.1,0.7-1.6,1.1c-0.2,0.2-0.4,0.4-0.5,0.7
		c-0.3,0.5-0.2,0.9,0.3,1.3c0.3,0.3,0.7,0.4,1.1,0.5c1.2,0.5,2.5,0.6,3.8,0.8c3.7,0.5,7.5,0.6,11.3,0.7c3.4,0.1,6.8,0.1,10.1,0
		c2.7,0,5.3-0.2,7.9-0.4c2.1-0.2,4.1-0.3,6.2-0.5c1.6-0.1,3.2-0.3,4.8-0.5c1.4-0.1,2.8-0.3,4.3-0.4c1.9-0.2,3.8-0.4,5.7-0.7
		c2.6-0.4,5.1-0.8,7.7-1.1C114.2,163.4,114.6,163.2,115.1,163.3z"/>
	<path class="st2" d="M139.3,211.8c-0.3,1.3-1,2.2-1.8,3.1c-1.6,1.8-3.7,3-5.8,4.1c-4.1,2.1-8.6,3.3-13.1,4.2
		c-3.3,0.6-6.7,1.1-10.1,1.6c-2.9,0.4-5.8,0.6-8.8,0.8c-5.5,0.4-10.9,0.7-16.4,0.6c-4.2,0-8.3-0.2-12.5-0.5
		c-4.5-0.3-8.9-0.9-13.4-1.7c-2.8-0.5-5.5-1.2-8.2-2c-0.2-0.1-0.4-0.1-0.6-0.3c0.9,0,1.7,0.1,2.4,0.2c1.8,0.1,3.6,0.3,5.4,0.5
		c1.9,0.2,3.9,0.3,5.8,0.5c0.8,0.1,1.7,0.1,2.5,0.1c4,0.2,8.1,0.4,12.1,0.5c3.8,0.1,7.7,0.1,11.5,0c3.2-0.1,6.4-0.2,9.6-0.4
		c3.3-0.2,6.7-0.5,10-0.9c5.8-0.7,11.6-1.7,17.3-3.4c2.8-0.8,5.5-1.9,8.1-3.2c1.8-0.9,3.4-1.9,5-3.1
		C138.8,212.1,138.9,212,139.3,211.8z"/>
	<path class="st2" d="M119.7,158.4c0.5-0.6,1.1-1,1.8-1.3c2.3-0.8,4.6-1.1,7-0.8c3.3,0.4,6.1,1.9,8.4,4.4c1.4,1.6,2.2,3.4,2.3,5.5
		c0.2,2.9-0.8,5.4-2.5,7.7c-2.1,2.8-4.7,4.8-7.6,6.6c-4,2.4-8.3,4-12.7,5.3c-0.1,0-0.2,0-0.3,0c0.1-0.3,0.4-0.4,0.6-0.5
		c1.6-1,3.2-2,4.7-3.1c3.1-2.2,5.9-4.6,8.3-7.5c1.6-1.9,2.8-3.9,3.3-6.3c0.5-2.1,0.2-4.2-0.8-6.1c-1.1-2.1-2.8-3.2-5-3.8
		c-2.4-0.6-4.8-0.6-7.2-0.2C119.9,158.3,119.8,158.4,119.7,158.4z"/>
	<path class="st3" d="M284.9,146.7c0.3-0.2,0.4-0.5,0.5-0.8c0.1-0.3,0.2-0.6,0.4-0.8c0.1-0.3,0.4-0.3,0.7-0.3c0.3,0,0.3,0.3,0.3,0.5
		c0,0.7,0,1.4,0,2.1c0,0.1,0,0.1,0,0.2c-0.1,0.2-0.2,0.3-0.3,0.2c-0.1,0-0.2-0.1-0.2-0.3c0-0.3,0-0.5,0-0.8c0-0.1,0-0.3-0.1-0.4
		c-0.2,0-0.2,0.2-0.3,0.4c-0.1,0.2-0.2,0.5-0.3,0.7c-0.1,0.2-0.1,0.5-0.5,0.5c-0.3,0-0.3-0.3-0.4-0.5c-0.2-0.4-0.3-0.7-0.5-1.1
		c-0.3,0.3-0.2,0.6-0.2,1c0,0.3,0.1,0.6-0.3,0.6c-0.4,0-0.3-0.3-0.3-0.6c0-0.6,0-1.3,0-1.9c0-0.2,0-0.5,0.3-0.5
		c0.3-0.1,0.6,0,0.7,0.3c0.1,0.3,0.2,0.5,0.3,0.8C284.6,146.1,284.8,146.4,284.9,146.7z"/>
	<path class="st3" d="M281.5,144.8c0.3,0,0.6,0,0.9,0c0.1,0,0.3,0.1,0.3,0.2c0,0.2-0.1,0.2-0.3,0.3c-0.6,0.1-0.6,0.1-0.6,0.7
		c0,0.5,0,0.9,0,1.4c0,0.2,0,0.5-0.3,0.5c-0.3,0-0.4-0.3-0.4-0.5c0-0.5,0-1,0-1.4c0-0.5,0-0.5-0.5-0.6c-0.2,0-0.3-0.1-0.3-0.2
		c0-0.2,0.2-0.2,0.3-0.2C280.9,144.8,281.2,144.8,281.5,144.8C281.5,144.8,281.5,144.8,281.5,144.8z"/>
	<path class="st1" d="M82.6,156.4c-0.1,0-0.1,0-0.1-0.1c0,0,0,0,0-0.1C82.6,156.3,82.6,156.3,82.6,156.4L82.6,156.4z"/>
	<path class="st1" d="M82.6,156.4C82.6,156.4,82.7,156.5,82.6,156.4C82.6,156.6,82.6,156.5,82.6,156.4
		C82.6,156.4,82.6,156.4,82.6,156.4z"/>
</g>
</svg>
