<?xml version="1.0" encoding="utf-8"?>
<!-- Generator: Adobe Illustrator 26.1.0, SVG Export Plug-In . SVG Version: 6.00 Build 0)  -->
<svg version="1.1" id="svg2816" xmlns:svg="http://www.w3.org/2000/svg"
	 xmlns="http://www.w3.org/2000/svg" xmlns:xlink="http://www.w3.org/1999/xlink" x="0px" y="0px" viewBox="0 0 315 300"
	 style="enable-background:new 0 0 315 300;" xml:space="preserve">
<style type="text/css">
	.st0{fill:#699F63;}
	.st1{fill:#FFFFFF;}
	.st2{fill:url(#XMLID_00000150069668791808859130000000663045118217697437_);}
	.st3{clip-path:url(#SVGID_00000014612983621147493920000014871325870679020464_);}
	.st4{fill:none;}
	.st5{fill:url(#SVGID_00000103973783075900608580000009693075388209941948_);}
	.st6{clip-path:url(#SVGID_00000115482138707163749670000009682141053839060409_);}
	.st7{fill:url(#SVGID_00000137822453564979900810000002555806029679482800_);}
	.st8{fill:url(#SVGID_00000034806139471125837740000014772670550237755319_);}
	.st9{fill:url(#SVGID_00000010280772249094341300000017929517079826506649_);}
	.st10{fill:url(#SVGID_00000101798043642428435830000008006817733308017284_);}
	.st11{fill:url(#SVGID_00000121962893075732291330000013925961572821956500_);}
</style>
<g>
	<g>
		<path class="st0" d="M155.4,235.7c-0.9,0-1.8-0.2-2.6-0.7l-8.4-5c-1.3-0.7-0.6-0.9-0.2-1.1c1.7-0.6,2-0.7,3.8-1.7
			c0.2-0.1,0.4-0.1,0.6,0l6.4,3.8c0.2,0.1,0.6,0.1,0.8,0l25.1-14.5c0.2-0.1,0.4-0.4,0.4-0.7v-29c0-0.3-0.2-0.5-0.4-0.7l-25.1-14.5
			c-0.2-0.1-0.5-0.1-0.8,0l-25.1,14.5c-0.2,0.1-0.4,0.4-0.4,0.7v29c0,0.3,0.2,0.5,0.4,0.7l6.9,4c3.7,1.9,6-0.3,6-2.5v-28.6
			c0-0.4,0.3-0.7,0.7-0.7h3.2c0.4,0,0.7,0.3,0.7,0.7V218c0,5-2.7,7.8-7.4,7.8c-1.5,0-2.6,0-5.8-1.6l-6.6-3.8
			c-1.6-0.9-2.6-2.7-2.6-4.6v-29c0-1.9,1-3.6,2.6-4.6l25.1-14.5c1.6-0.9,3.7-0.9,5.3,0l25.1,14.5c1.6,0.9,2.6,2.7,2.6,4.6v29
			c0,1.9-1,3.6-2.6,4.6L158,235C157.2,235.4,156.3,235.7,155.4,235.7z"/>
		<path class="st0" d="M163.2,215.7c-11,0-13.3-5-13.3-9.3c0-0.4,0.3-0.7,0.7-0.7h3.2c0.4,0,0.7,0.3,0.7,0.6c0.5,3.3,2,5,8.6,5
			c5.3,0,7.5-1.2,7.5-4c0-1.6-0.6-2.8-8.9-3.6c-6.9-0.7-11.1-2.2-11.1-7.7c0-5.1,4.3-8.1,11.4-8.1c8,0,12,2.8,12.5,8.8
			c0,0.2-0.1,0.4-0.2,0.6c-0.1,0.1-0.3,0.2-0.5,0.2h-3.3c-0.3,0-0.6-0.2-0.7-0.6c-0.8-3.5-2.7-4.6-7.8-4.6c-5.8,0-6.4,2-6.4,3.5
			c0,1.8,0.8,2.4,8.6,3.4c7.7,1,11.4,2.5,11.4,7.9C175.7,212.6,171.1,215.7,163.2,215.7z"/>
	</g>
	<g>
		<path class="st0" d="M199.4,185.3c0,2.7-2.2,4.8-4.8,4.8c-2.6,0-4.8-2.2-4.8-4.8c0-2.7,2.3-4.8,4.8-4.8
			C197.1,180.5,199.4,182.6,199.4,185.3z M190.5,185.3c0,2.3,1.8,4.1,4,4.1c2.3,0,4.1-1.9,4.1-4.1c0-2.3-1.8-4-4.1-4
			C192.3,181.3,190.5,183,190.5,185.3z M192.7,182.6h1.9c0.6,0,1.9,0,1.9,1.4c0,1-0.6,1.2-1,1.3c0.7,0.1,0.8,0.5,0.9,1.2
			c0.1,0.4,0.1,1.2,0.3,1.4h-1.2c0-0.3-0.2-1.6-0.2-1.7c-0.1-0.3-0.2-0.5-0.6-0.5h-0.9v2.2h-1.1L192.7,182.6L192.7,182.6z
			 M193.7,185h0.8c0.7,0,0.8-0.5,0.8-0.8c0-0.7-0.5-0.7-0.8-0.7h-0.9L193.7,185L193.7,185z"/>
	</g>
	<path class="st1" d="M77.7,122.3c0-1.2-0.6-2.2-1.6-2.8l-26.6-15.3c-0.4-0.3-1-0.4-1.5-0.4c0,0-0.2,0-0.3,0c-0.5,0-1,0.2-1.5,0.4
		l-26.6,15.3c-1,0.6-1.6,1.6-1.6,2.8l0.1,41.2c0,0.6,0.3,1.1,0.8,1.4c0.5,0.3,1.1,0.3,1.6,0l15.8-9.1c1-0.6,1.6-1.6,1.6-2.8v-19.3
		c0-1.1,0.6-2.2,1.6-2.8l6.7-3.9c0.5-0.3,1.1-0.4,1.6-0.4c0.5,0,1.1,0.1,1.6,0.4l6.7,3.9c1,0.6,1.6,1.6,1.6,2.8v19.3
		c0,1.1,0.6,2.2,1.6,2.8l15.8,9.1c0.5,0.3,1.1,0.3,1.6,0c0.5-0.3,0.8-0.8,0.8-1.4L77.7,122.3z"/>
	<path class="st1" d="M205.7,65.6c-0.5-0.3-1.1-0.3-1.6,0c-0.5,0.3-0.8,0.8-0.8,1.4v40.8c0,0.4-0.2,0.8-0.6,1
		c-0.3,0.2-0.8,0.2-1.1,0L195,105c-1-0.6-2.2-0.6-3.2,0l-26.6,15.4c-1,0.6-1.6,1.6-1.6,2.8v30.7c0,1.1,0.6,2.2,1.6,2.8l26.6,15.4
		c1,0.6,2.2,0.6,3.2,0l26.6-15.4c1-0.6,1.6-1.6,1.6-2.8V77.2c0-1.2-0.6-2.2-1.6-2.8L205.7,65.6z M203.3,143.8c0,0.3-0.2,0.6-0.4,0.7
		l-9.1,5.3c-0.2,0.1-0.6,0.1-0.8,0l-9.1-5.3c-0.2-0.1-0.4-0.4-0.4-0.7v-10.6c0-0.3,0.2-0.6,0.4-0.7l9.1-5.3c0.2-0.1,0.6-0.1,0.8,0
		l9.1,5.3c0.2,0.1,0.4,0.4,0.4,0.7L203.3,143.8L203.3,143.8z"/>
	<g>
		<path class="st1" d="M294.4,132.9c1-0.6,1.6-1.6,1.6-2.8v-7.4c0-1.1-0.6-2.2-1.6-2.8l-26.5-15.4c-1-0.6-2.2-0.6-3.2,0l-26.6,15.4
			c-1,0.6-1.6,1.6-1.6,2.8v30.7c0,1.2,0.6,2.2,1.6,2.8l26.5,15.1c1,0.6,2.2,0.6,3.2,0l16-8.9c0.5-0.3,0.8-0.8,0.8-1.4
			c0-0.6-0.3-1.1-0.8-1.4L257,144.3c-0.5-0.3-0.8-0.8-0.8-1.4v-9.6c0-0.6,0.3-1.1,0.8-1.4l8.3-4.8c0.5-0.3,1.1-0.3,1.6,0l8.3,4.8
			c0.5,0.3,0.8,0.8,0.8,1.4v7.6c0,0.6,0.3,1.1,0.8,1.4c0.5,0.3,1.1,0.3,1.6,0L294.4,132.9z"/>
		<path class="st0" d="M265.9,131.5c0.2-0.1,0.4-0.1,0.6,0l5.1,2.9c0.2,0.1,0.3,0.3,0.3,0.5v5.9c0,0.2-0.1,0.4-0.3,0.5l-5.1,2.9
			c-0.2,0.1-0.4,0.1-0.6,0l-5.1-2.9c-0.2-0.1-0.3-0.3-0.3-0.5V135c0-0.2,0.1-0.4,0.3-0.5L265.9,131.5z"/>
	</g>
	<g>
		<g>
			
				<linearGradient id="XMLID_00000163780250507784019390000007647814509489436345_" gradientUnits="userSpaceOnUse" x1="131.367" y1="627.9994" x2="107.4458" y2="676.7985" gradientTransform="matrix(1 0 0 1 0 -511.89)">
				<stop  offset="0" style="stop-color:#418640"/>
				<stop  offset="0.3288" style="stop-color:#428A41"/>
				<stop  offset="0.6352" style="stop-color:#419544"/>
				<stop  offset="0.9319" style="stop-color:#3FA848"/>
				<stop  offset="1" style="stop-color:#40AD49"/>
			</linearGradient>
			<path id="XMLID_143_" style="fill:url(#XMLID_00000163780250507784019390000007647814509489436345_);" d="M122.2,104.7
				c-1-0.6-2.2-0.6-3.2,0L92.5,120c-1,0.6-1.6,1.6-1.6,2.8v30.6c0,1.1,0.6,2.2,1.6,2.8l26.5,15.3c1,0.6,2.2,0.6,3.2,0l26.5-15.3
				c1-0.6,1.6-1.6,1.6-2.8v-30.6c0-1.1-0.6-2.2-1.6-2.8L122.2,104.7z"/>
		</g>
		<g>
			<g>
				<defs>
					<path id="SVGID_1_" d="M122.2,104.7c-1-0.6-2.2-0.6-3.2,0L92.5,120c-1,0.6-1.6,1.6-1.6,2.8v30.6c0,1.1,0.6,2.2,1.6,2.8
						l26.5,15.3c1,0.6,2.2,0.6,3.2,0l26.5-15.3c1-0.6,1.6-1.6,1.6-2.8v-30.6c0-1.1-0.6-2.2-1.6-2.8L122.2,104.7z"/>
				</defs>
				<clipPath id="SVGID_00000086651630444503942280000013509730050631417243_">
					<use xlink:href="#SVGID_1_"  style="overflow:visible;"/>
				</clipPath>
				<g style="clip-path:url(#SVGID_00000086651630444503942280000013509730050631417243_);">
					<path class="st4" d="M119,104.7L92.4,120c-1,0.6-1.7,1.6-1.7,2.8v30.6c0,0.8,0.3,1.5,0.8,2l29.8-51
						C120.5,104.2,119.7,104.3,119,104.7z"/>
					<path class="st4" d="M121.5,171.7c0.3-0.1,0.5-0.2,0.7-0.3l26.5-15.3c1-0.6,1.7-1.6,1.7-2.8v-30.6c0-0.8-0.4-1.6-1-2.2
						L121.5,171.7z"/>
					
						<linearGradient id="SVGID_00000054262345186260795740000004180620907355456146_" gradientUnits="userSpaceOnUse" x1="116.5708" y1="653.5377" x2="183.6917" y2="603.9451" gradientTransform="matrix(1 0 0 1 0 -511.89)">
						<stop  offset="0.1376" style="stop-color:#418640"/>
						<stop  offset="0.4032" style="stop-color:#529F45"/>
						<stop  offset="0.7136" style="stop-color:#66B647"/>
						<stop  offset="0.9081" style="stop-color:#6FBE4A"/>
					</linearGradient>
					<path style="fill:url(#SVGID_00000054262345186260795740000004180620907355456146_);" d="M148.7,120l-26.6-15.3
						c-0.3-0.2-0.5-0.3-0.8-0.3l-29.8,51c0.3,0.3,0.6,0.5,0.9,0.7l26.6,15.3c0.8,0.4,1.6,0.5,2.5,0.3l27.9-51.2
						C149.2,120.3,149,120.2,148.7,120z"/>
				</g>
			</g>
		</g>
		<g>
			<g>
				<defs>
					<path id="SVGID_00000073694013691486095870000010922952237876904094_" d="M122.2,104.7c-1-0.6-2.2-0.6-3.2,0L92.5,120
						c-1,0.6-1.6,1.6-1.6,2.8v30.6c0,1.1,0.6,2.2,1.6,2.8l26.5,15.3c1,0.6,2.2,0.6,3.2,0l26.5-15.3c1-0.6,1.6-1.6,1.6-2.8v-30.6
						c0-1.1-0.6-2.2-1.6-2.8L122.2,104.7z"/>
				</defs>
				<clipPath id="SVGID_00000018214400841382524020000009503588702303768248_">
					<use xlink:href="#SVGID_00000073694013691486095870000010922952237876904094_"  style="overflow:visible;"/>
				</clipPath>
				<g style="clip-path:url(#SVGID_00000018214400841382524020000009503588702303768248_);">
					<path class="st4" d="M150.4,153.4v-30.6c0-1.1-0.7-2.2-1.7-2.8l-26.6-15.3c-0.3-0.2-0.6-0.3-1-0.4l29.1,49.7
						C150.4,153.9,150.4,153.6,150.4,153.4z"/>
					<path class="st4" d="M92.4,120c-1,0.6-1.7,1.6-1.7,2.8v30.6c0,1.1,0.7,2.2,1.7,2.8l26.6,15.3c0.6,0.4,1.3,0.5,2,0.4l-28.5-51.9
						L92.4,120z"/>
					
						<linearGradient id="SVGID_00000056415211299778454060000008832276154869658243_" gradientUnits="userSpaceOnUse" x1="89.9913" y1="611.107" x2="151.2111" y2="611.107" gradientTransform="matrix(1 0 0 1 0 -511.89)">
						<stop  offset="9.190000e-02" style="stop-color:#6FBE4A"/>
						<stop  offset="0.2864" style="stop-color:#66B647"/>
						<stop  offset="0.5968" style="stop-color:#529F45"/>
						<stop  offset="0.8624" style="stop-color:#418640"/>
					</linearGradient>
					<polygon style="fill:url(#SVGID_00000056415211299778454060000008832276154869658243_);" points="118.1,99.1 117.8,99.3 
						118.2,99.3 					"/>
					
						<linearGradient id="SVGID_00000024715270640148072930000009314753548364489105_" gradientUnits="userSpaceOnUse" x1="89.9913" y1="649.9552" x2="151.2111" y2="649.9552" gradientTransform="matrix(1 0 0 1 0 -511.89)">
						<stop  offset="9.190000e-02" style="stop-color:#6FBE4A"/>
						<stop  offset="0.2864" style="stop-color:#66B647"/>
						<stop  offset="0.5968" style="stop-color:#529F45"/>
						<stop  offset="0.8624" style="stop-color:#418640"/>
					</linearGradient>
					<path style="fill:url(#SVGID_00000024715270640148072930000009314753548364489105_);" d="M148.7,156.1c0.8-0.4,1.3-1.2,1.6-2
						l-29.1-49.7c-0.8-0.2-1.6,0-2.3,0.4l-26.4,15.2l28.5,51.9c0.4-0.1,0.8-0.2,1.2-0.4L148.7,156.1z"/>
					
						<linearGradient id="SVGID_00000121997419201137214050000000602606571314656934_" gradientUnits="userSpaceOnUse" x1="89.9913" y1="667.4319" x2="151.2111" y2="667.4319" gradientTransform="matrix(1 0 0 1 0 -511.89)">
						<stop  offset="9.190000e-02" style="stop-color:#6FBE4A"/>
						<stop  offset="0.2864" style="stop-color:#66B647"/>
						<stop  offset="0.5968" style="stop-color:#529F45"/>
						<stop  offset="0.8624" style="stop-color:#418640"/>
					</linearGradient>
					<polygon style="fill:url(#SVGID_00000121997419201137214050000000602606571314656934_);" points="151.2,155.6 151,155.3 
						151,155.7 					"/>
					
						<linearGradient id="SVGID_00000052101659544864810340000000929373772237852555_" gradientUnits="userSpaceOnUse" x1="89.9913" y1="675.331" x2="151.2111" y2="675.331" gradientTransform="matrix(1 0 0 1 0 -511.89)">
						<stop  offset="9.190000e-02" style="stop-color:#6FBE4A"/>
						<stop  offset="0.2864" style="stop-color:#66B647"/>
						<stop  offset="0.5968" style="stop-color:#529F45"/>
						<stop  offset="0.8624" style="stop-color:#418640"/>
					</linearGradient>
					<path style="fill:url(#SVGID_00000052101659544864810340000000929373772237852555_);" d="M148.7,156.1l-26.5,15.3
						c-0.4,0.2-0.8,0.3-1.2,0.4l0.5,1l29.4-17v-0.4l-0.7-1.2C150.1,154.9,149.5,155.7,148.7,156.1z"/>
					
						<linearGradient id="SVGID_00000014625472640145248900000017741188256147876755_" gradientUnits="userSpaceOnUse" x1="160.1301" y1="626.5525" x2="122.3736" y2="703.5757" gradientTransform="matrix(1 0 0 1 0 -511.89)">
						<stop  offset="0" style="stop-color:#418640"/>
						<stop  offset="0.3288" style="stop-color:#428A41"/>
						<stop  offset="0.6352" style="stop-color:#419544"/>
						<stop  offset="0.9319" style="stop-color:#3FA848"/>
						<stop  offset="1" style="stop-color:#40AD49"/>
					</linearGradient>
					<path style="fill:url(#SVGID_00000014625472640145248900000017741188256147876755_);" d="M148.7,156.1l-26.5,15.3
						c-0.4,0.2-0.8,0.3-1.2,0.4l0.5,1l29.4-17v-0.4l-0.7-1.2C150.1,154.9,149.5,155.7,148.7,156.1z"/>
				</g>
			</g>
		</g>
	</g>
</g>
</svg>
