<?xml version="1.0" encoding="utf-8"?>
<!-- Generator: Adobe Illustrator 26.1.0, SVG Export Plug-In . SVG Version: 6.00 Build 0)  -->
<svg version="1.1" id="svg2816" xmlns:svg="http://www.w3.org/2000/svg"
	 xmlns="http://www.w3.org/2000/svg" xmlns:xlink="http://www.w3.org/1999/xlink" x="0px" y="0px" viewBox="0 0 315 300"
	 style="enable-background:new 0 0 315 300;" xml:space="preserve">
<style type="text/css">
	.st0{fill:#AFB1D4;}
	.st1{fill:url(#SVGID_1_);}
	.st2{fill:#787CB3;}
	.st3{fill:#F4F3F4;}
	.st4{fill:#09090A;}
</style>
<g>
	<path class="st0" d="M66.5,109.8c-1.4,1.1-2.9,2.2-4.2,3.4C63.6,112,65,110.9,66.5,109.8z"/>
	<path class="st0" d="M72.4,105.8c-1,0.6-2,1.3-3,1.9C70.4,107.1,71.4,106.4,72.4,105.8z"/>
	<linearGradient id="SVGID_1_" gradientUnits="userSpaceOnUse" x1="42.5726" y1="141.4693" x2="272.4274" y2="141.4693">
		<stop  offset="0" style="stop-color:#989CC6"/>
		<stop  offset="1" style="stop-color:#535676"/>
	</linearGradient>
	<path class="st1" d="M272.1,136.7c-2.6-14.7-12.1-24.3-23.8-32.2c-1.4-1.3-3.2-2.1-4.9-3.1c-2-1.4-4.1-2.6-6.4-3.5
		c-2.5-1.6-5.3-2.6-8.1-3.7c-2.2-1.3-4.8-1.7-7.2-2.8c-3.1-1.2-6.2-2.3-9.5-3c-3.5-1.3-7.1-2.1-10.8-2.7c-3.3-1.1-6.8-1.5-10.3-2
		c-3.5-0.9-7.2-1.1-10.8-1.5c-3.4-0.6-6.9-0.5-10.3-0.9c-6.8-0.2-13.7-0.6-20.5-0.2c-10,0.5-19.9,1.4-29.7,3.2
		c-17.4,3.2-34.1,8.4-49.4,17.6c-7,4.2-13.5,9-18.5,15.7c-0.6,0.7-1.2,1.3-1.7,2c-2.6,3.7-5.1,7.5-6,12.2c-1.7,3.5-1.9,7.2-1.6,11
		c0.2,1.8,0.3,3.6,0.6,5.3c1.7,8,5.8,14.7,11.5,20.4c14.9,14.9,33.6,22.6,53.7,27.5c6.2,1.9,12.6,2.9,19,3.7
		c4.6,0.8,9.2,1.4,13.9,1.4c6.3,0.6,12.5,1.1,18.8,0.6c4.7,0,9.3,0.1,13.9-0.6c4.7-0.1,9.4-0.7,14-1.5c4.2-0.6,8.4-1.2,12.6-2.3
		c3.9-0.8,7.8-1.5,11.6-3c2.1-0.3,4.1-1.2,6.2-1.8c12-3.8,23.3-9.1,33.4-16.7c9.9-7.5,17.7-16.4,20.2-29.1c0-0.2,0.3-0.3,0.4-0.4
		V137C272.3,136.9,272.1,136.8,272.1,136.7z M260.2,162c-6.1,7.8-14.1,13.4-22.8,18.1c-7.2,3.9-14.8,6.6-22.4,9.4
		c-3,0.4-5.7,1.6-8.6,2.2c-0.9,0.2-1.7,0.4-2.6,0.6c-4,0.9-8.1,1.8-12.1,2.6c-4.4,0-8.6,1.5-13,1.4c-4.3,0.5-8.7,1-13,0.9
		c-3.6-0.2-7.1,0.7-10.7,0.5c-2.1-0.1-4.3,0.1-6.4-0.5c-4.7,0.2-9.3-0.6-13.9-0.9c-5.7-0.7-11.4-1.3-17.1-2.7
		c-16.9-3.2-33.2-8.5-47.7-18.1c-7.7-5.1-14.8-11.1-19.1-19.6c-1.5-3-2.5-6.2-3.3-9.4c-0.8-2.6-0.5-5.3-0.2-7.9
		c0.1-0.8,0.2-1.6,0.2-2.4c1.1-4.9,3.2-9.4,6-13.5c0.3-0.5,0.5-1.1,0.8-1.6c2.5-2.8,5.1-5.4,7.9-7.8c1.4-1.2,2.8-2.3,4.2-3.4
		c1-0.7,1.9-1.4,2.9-2.1c1-0.7,2-1.3,3-1.9c9.6-6,20.3-10.1,31.5-13.3c8.5-2.5,17.2-4.2,26-5.3c6.3-0.8,12.6-1.3,18.9-1.6
		c7.2-0.4,14.5,0.2,21.7,0.1h0c3.4,0.7,6.9,0.5,10.3,0.9c3.6,0.7,7.2,1.1,10.8,1.4c3.1,1,6.3,1.4,9.4,1.8c3.6,1.3,7.4,1.9,11.2,2.7
		c3,1.4,6.2,2.3,9.4,3.1c2.4,1,4.8,2.1,7.2,3.1c2.5,1.2,5.1,2.4,7.6,3.6c1.9,1,3.9,2.1,5.8,3.2c1.8,1.2,3.6,2.4,5.4,3.6
		c4.8,3.8,9.5,7.7,13.1,12.7C270.5,135.1,270.3,149.1,260.2,162z"/>
	<path class="st2" d="M260.9,121.8c-3.6-5-8.3-8.9-13.1-12.7c-1.8-1.2-3.6-2.4-5.4-3.6c-1.9-1.1-3.9-2.1-5.8-3.2
		c-2.5-1.2-5.1-2.4-7.6-3.6c-2.4-1-4.8-2.1-7.2-3.1c-3.2-0.9-6.4-1.7-9.4-3.1c-3.8-0.8-7.6-1.4-11.2-2.7c-3.2-0.4-6.4-0.8-9.4-1.8
		c-3.6-0.3-7.2-0.7-10.8-1.4c-3.4-0.4-6.9-0.2-10.3-0.9h0c-7.2,0.1-14.4-0.4-21.7-0.1c-6.3,0.3-12.6,0.8-18.9,1.6
		c-8.8,1.1-17.5,2.8-26,5.3c-11.2,3.2-21.9,7.3-31.5,13.3c-1,0.6-2,1.3-3,1.9c-1,0.7-2,1.4-2.9,2.1c-1.4,1.1-2.9,2.2-4.2,3.4
		c-2.8,2.4-5.4,4.9-7.9,7.8c-0.3,0.5-0.4,1.1-0.8,1.6c-2.9,4.1-4.9,8.6-6,13.5c0,0.8-0.1,1.6-0.2,2.4c-0.3,2.6-0.6,5.3,0.2,7.9
		c0.8,3.3,1.8,6.4,3.3,9.4c4.3,8.6,11.4,14.5,19.1,19.6c14.5,9.6,30.7,14.8,47.7,18.1c5.6,1.3,11.4,1.9,17.1,2.7
		c4.6,0.3,9.3,1.1,13.9,0.9c2.1,0.5,4.3,0.3,6.4,0.5c3.6,0.2,7.1-0.6,10.7-0.5c4.4,0.1,8.7-0.3,13-0.9c4.4,0.1,8.6-1.3,13-1.4
		c4-0.9,8.1-1.8,12.1-2.6c0.9-0.2,1.7-0.3,2.6-0.6c2.9-0.7,5.6-1.9,8.6-2.2c7.6-2.8,15.3-5.5,22.4-9.4c8.7-4.7,16.7-10.2,22.8-18.1
		C270.3,149.1,270.5,135.1,260.9,121.8z M240.7,140.5c-3.6,12.6-14.1,20.8-27.4,21.1c-3.7,0.1-7.5,0.1-11.2,0
		c-1.4,0-1.9,0.4-2.2,1.8c-0.6,3.6-1.3,7.2-2,10.8c-0.6,3.1-1.1,3.6-4.3,3.6c-3.7,0-7.3,0-11,0c-2.6,0-3.6-1-3.1-3.6
		c0.6-3.6,1.3-7.2,2.1-10.8c0.3-1.4,0-1.8-1.5-1.8c-4,0.1-8.1,0-12.1,0c-2.6,0-3.5-1.2-3-3.7c1.7-8.6,3.3-17.1,5-25.7
		c0.1-0.3,0.1-0.6,0.1-0.9c0.4-3.7-0.1-4.3-3.9-4.3c-2.5,0-5.1,0-7.6,0c-1.1,0-1.7,0.2-2,1.5c-1.9,10-3.9,20.1-5.8,30.1
		c-0.4,2.1-1.4,3.1-3.6,3c-3.8-0.1-7.6,0-11.4,0c-2.7,0-3.6-1.1-3.1-3.8c0.5-2.8,1.1-5.7,1.6-8.5c-2.3,2.2-4.2,4.3-6.4,6.2
		c-5.1,4.2-11.2,5.9-17.7,6.1c-3.7,0.1-7.5,0.1-11.2,0c-1.3,0-1.8,0.5-2,1.7c-0.7,3.9-1.5,7.8-2.2,11.7c-0.4,1.9-1.3,2.8-3.4,2.8
		c-4-0.1-7.9,0-11.9,0c-2.4,0-3.5-1.3-3-3.6c3.8-19.6,7.6-39.1,11.5-58.6c0.6-3.1,1-3.4,4.2-3.4c8.8,0,17.5-0.1,26.3,0.1
		c6.5,0.1,12.4,2,16.7,7.3c1.7,2,2.7,4.3,3.5,7.1c1.1-2.9,1.3-5.7,1.9-8.4c1.3-6.4,2.5-12.7,3.7-19.1c0.4-2.1,1.4-3.1,3.6-3
		c3.8,0.1,7.6,0,11.4,0c2.7,0,3.6,1.2,3.1,3.8c-0.7,3.6-1.3,7.2-2.1,10.8c-0.3,1.3,0,1.6,1.2,1.5c3.3,0,6.6,0,9.9,0
		c4.1,0.1,8,0.7,11.7,2.7c3.5,1.9,5.3,4.9,6.4,8.6c0.5-2.7,1.1-5.5,1.5-8.2c0.4-2.2,1.4-3.2,3.7-3.2c9,0.1,18,0,26.9,0.1
		c9.9,0.1,17.5,5.4,19.7,13.6C242.5,130.8,242.1,135.7,240.7,140.5z"/>
	<path class="st3" d="M134.2,149.3c-2.3,2.2-4.2,4.3-6.5,6.2c-5.1,4.2-11.2,5.9-17.7,6.1c-3.7,0.1-7.5,0.1-11.2,0
		c-1.3,0-1.8,0.5-2,1.7c-0.7,3.9-1.5,7.8-2.2,11.7c-0.4,1.9-1.3,2.8-3.4,2.8c-4-0.1-7.9,0-11.9,0c-2.4,0-3.5-1.3-3-3.6
		c3.8-19.5,7.6-39.1,11.5-58.6c0.6-3.1,1-3.4,4.2-3.4c8.8,0,17.5-0.1,26.3,0.1c6.5,0.1,12.4,2,16.7,7.3c1.7,2,2.6,4.3,3.5,7.1
		c1.1-2.9,1.3-5.7,1.9-8.4c1.3-6.4,2.5-12.7,3.7-19.1c0.4-2.1,1.4-3.1,3.6-3c3.8,0.1,7.6,0,11.4,0c2.7,0,3.6,1.2,3.1,3.8
		c-0.7,3.6-1.3,7.2-2.1,10.8c-0.3,1.3,0,1.6,1.2,1.5c3.3,0,6.6,0,9.9,0c4.1,0.1,8,0.7,11.7,2.7c3.5,1.9,5.3,4.9,6.4,8.6
		c0.5-2.7,1.1-5.5,1.5-8.2c0.4-2.2,1.4-3.2,3.7-3.2c9,0.1,18,0,26.9,0.1c9.9,0.1,17.5,5.4,19.7,13.6c1.3,4.9,0.9,9.8-0.5,14.6
		c-3.6,12.6-14.1,20.8-27.4,21.1c-3.7,0.1-7.5,0.1-11.2,0c-1.4,0-1.9,0.4-2.2,1.8c-0.6,3.6-1.3,7.2-2,10.8c-0.6,3.1-1.1,3.6-4.3,3.6
		c-3.7,0-7.3,0-11,0c-2.6,0-3.6-1-3.1-3.6c0.6-3.6,1.3-7.2,2.1-10.8c0.3-1.4,0-1.8-1.5-1.8c-4,0.1-8.1,0.1-12.1,0
		c-2.6,0-3.5-1.2-3-3.7c1.7-8.6,3.3-17.1,5-25.7c0.1-0.3,0.1-0.6,0.1-0.9c0.4-3.7-0.1-4.3-3.9-4.3c-2.5,0-5.1,0-7.6,0
		c-1.1,0-1.7,0.2-2,1.5c-1.9,10-3.9,20.1-5.8,30.1c-0.4,2.1-1.4,3.1-3.6,3c-3.8-0.1-7.6,0-11.4,0c-2.7,0-3.6-1.1-3.1-3.8
		C133.2,155,133.7,152.2,134.2,149.3z M105.2,159.2c4.2-0.2,9.4,0.1,14.2-1.9c9.7-3.9,15.1-11.3,16.6-21.5
		c1.9-12.1-4.5-20.2-16.7-20.9c-9.1-0.6-18.2-0.1-27.4-0.3c-1.4,0-1.6,0.7-1.8,1.7c-3.7,19.1-7.4,38.2-11.1,57.2
		c-0.3,1.3,0,1.7,1.4,1.7c3.1-0.1,6.3-0.1,9.4,0c1.7,0.1,2.3-0.4,2.6-2.1c0.6-4,1.5-8.1,2.2-12.1c0.2-1.4,0.7-2,2.3-1.9
		C99.4,159.3,101.9,159.2,105.2,159.2z M210.2,114.7c-5.1,0-9.4,0.2-13.6-0.1c-2.5-0.2-3.2,0.8-3.6,3.1c-1.9,10.5-4,21-6.1,31.6
		c-1.5,8-3,15.9-4.7,23.9c-0.4,1.9,0.2,2.2,1.9,2.2c3.1-0.1,6.3-0.1,9.4,0c1.2,0,1.7-0.3,1.8-1.5c0.4-2.6,1-5.1,1.5-7.7
		c0.5-2.2,0-5.4,1.6-6.5c1.7-1.1,4.6-0.4,7-0.4c5.2-0.1,10.5,0.1,15.5-1.4c10.9-3.2,18.6-14.2,18.3-26.3c-0.2-8.8-5-14.5-13.7-16.1
		C220.3,114.3,214.8,114.9,210.2,114.7z M173.9,159.2c1.7,0,3.4-0.1,5.2,0c1.2,0.1,1.6-0.3,1.8-1.6c1.7-8.9,3.5-17.8,5.2-26.7
		c1.8-9.4-1.3-13.9-10.8-15.6c-5.5-1-11-0.6-16.6-0.5c-1.9,0-2-0.6-1.7-2.2c0.9-4.1,1.6-8.2,2.5-12.3c0.3-1.3,0.1-1.7-1.3-1.7
		c-3.2,0.1-6.4,0.1-9.6,0c-1.6-0.1-2,0.6-2.3,1.9c-3.7,19-7.3,38-11,57c-0.3,1.3-0.1,1.7,1.3,1.7c3.3-0.1,6.6-0.1,9.9,0
		c1.4,0.1,1.8-0.5,2-1.7c0.8-4.1,1.5-8.2,2.3-12.3c1.2-6.4,2.4-12.7,3.7-19.1c0.1-0.6-0.1-1.8,1.2-1.8c4.6,0.1,9.1-0.4,13.6,0.5
		c2.4,0.4,3.4,1.8,3.4,4.2c0,1-0.1,2.1-0.3,3.1c-1.6,8.5-3.2,17-4.9,25.4c-0.2,1.2-0.1,1.6,1.2,1.6
		C170.5,159.2,172.2,159.2,173.9,159.2z"/>
	<path class="st4" d="M105.2,159.2c-3.3,0-5.8,0.1-8.2,0c-1.6-0.1-2,0.6-2.3,1.9c-0.7,4-1.6,8-2.2,12.1c-0.3,1.7-0.9,2.2-2.6,2.1
		c-3.1-0.1-6.3-0.1-9.4,0c-1.4,0-1.6-0.4-1.4-1.7c3.7-19.1,7.4-38.2,11.1-57.2c0.2-1,0.5-1.7,1.8-1.7c9.1,0.2,18.3-0.3,27.4,0.3
		c12.1,0.7,18.5,8.8,16.7,20.9c-1.6,10.3-7,17.6-16.6,21.5C114.6,159.3,109.4,159.1,105.2,159.2z M109.1,124.3c-2.1,0-3.9,0-5.7,0
		c-1,0-1.5,0.1-1.8,1.3c-1.4,7.5-2.9,15.1-4.4,22.6c-0.2,1.1-0.1,1.4,1.1,1.4c3.3-0.1,6.6,0.1,9.9-0.1c6.9-0.4,11.1-3.5,13.1-9.8
		c0.9-2.6,1.3-5.3,1.2-8.1c-0.2-3.4-1.6-5.3-4.9-6.4C114.8,124.1,111.8,124.4,109.1,124.3z"/>
	<path class="st4" d="M210.2,114.7c4.6,0.2,10.1-0.4,15.5,0.7c8.7,1.7,13.5,7.3,13.7,16.1c0.2,12.1-7.4,23.1-18.3,26.3
		c-5.1,1.5-10.3,1.3-15.5,1.4c-2.4,0-5.3-0.7-7,0.4c-1.6,1-1.2,4.2-1.6,6.5c-0.6,2.5-1.2,5.1-1.5,7.7c-0.2,1.3-0.7,1.6-1.8,1.5
		c-3.1-0.1-6.3-0.1-9.4,0c-1.7,0.1-2.3-0.3-1.9-2.2c1.6-7.9,3.1-15.9,4.7-23.9c2-10.5,4.2-21,6.1-31.6c0.4-2.3,1.1-3.2,3.6-3.1
		C200.8,114.9,205.1,114.7,210.2,114.7z M212.1,124.3c-2.2,0-4,0-5.8,0c-1.1,0-1.5,0.2-1.8,1.4c-1.4,7.5-2.9,14.9-4.3,22.3
		c-0.2,1.1-0.1,1.6,1.2,1.6c3.2-0.1,6.4,0.1,9.6-0.1c4.7-0.3,8.9-1.7,11.6-6.1c2.1-3.5,2.9-7.3,3-11.3c0-4.2-2-6.4-6.1-7.3
		C217,124.2,214.4,124.4,212.1,124.3z"/>
	<path class="st4" d="M173.9,159.2c-1.7,0-3.4-0.1-5.2,0c-1.3,0.1-1.4-0.4-1.2-1.6c1.7-8.5,3.3-16.9,4.9-25.4c0.2-1,0.3-2.1,0.3-3.1
		c0-2.4-1.1-3.8-3.4-4.2c-4.5-0.8-9.1-0.3-13.6-0.5c-1.3,0-1.1,1.1-1.2,1.8c-1.3,6.3-2.5,12.7-3.7,19.1c-0.8,4.1-1.6,8.2-2.3,12.3
		c-0.2,1.2-0.6,1.8-2,1.7c-3.3-0.1-6.6-0.1-9.9,0c-1.4,0-1.5-0.4-1.3-1.7c3.7-19,7.4-38,11-57c0.3-1.4,0.7-2,2.3-1.9
		c3.2,0.2,6.4,0.1,9.6,0c1.4,0,1.6,0.4,1.3,1.7c-0.9,4.1-1.6,8.2-2.5,12.3c-0.3,1.5-0.2,2.2,1.7,2.2c5.5-0.1,11.1-0.5,16.6,0.5
		c9.5,1.7,12.5,6.2,10.8,15.6c-1.7,8.9-3.5,17.8-5.2,26.7c-0.2,1.2-0.6,1.6-1.8,1.6C177.4,159.2,175.6,159.2,173.9,159.2z"/>
	<path class="st3" d="M109.1,124.3c2.7,0.1,5.7-0.2,8.6,0.8c3.3,1.1,4.7,3,4.9,6.4c0.1,2.8-0.3,5.5-1.2,8.1
		c-2.1,6.3-6.2,9.4-13.1,9.8c-3.3,0.2-6.6,0-9.9,0.1c-1.2,0-1.3-0.3-1.1-1.4c1.5-7.5,3-15,4.4-22.6c0.2-1.2,0.8-1.4,1.8-1.3
		C105.2,124.4,107,124.3,109.1,124.3z M104.2,147.2c1.2-0.1,3.2-0.1,5.2-0.4c4.8-0.6,8.1-3.1,9.5-7.9c0.5-1.7,0.8-3.3,1.1-5
		c0.6-4.3-0.9-6.5-5.2-6.8c-3-0.2-6-0.2-8.9-0.4c-1.4-0.1-2,0.5-2.2,1.8c-0.9,5.1-1.9,10.2-3,15.4C100,147.2,100,147.2,104.2,147.2z
		"/>
	<path class="st3" d="M212.1,124.3c2.2,0.1,4.8-0.1,7.4,0.5c4.1,1,6.1,3.1,6.1,7.3c0,4-0.9,7.8-3,11.3c-2.6,4.4-6.9,5.7-11.6,6.1
		c-3.2,0.2-6.4,0-9.6,0.1c-1.3,0-1.5-0.4-1.2-1.6c1.5-7.4,3-14.9,4.3-22.3c0.2-1.2,0.7-1.4,1.8-1.4
		C208.2,124.4,210,124.3,212.1,124.3z M211.6,126.8c-0.7,0-1.5,0.1-2.2,0c-1.9-0.3-2.6,0.6-2.9,2.4c-1,5.4-2.1,10.8-3.1,16.2
		c-0.3,1.4,0.1,2,1.5,1.8c2.6-0.2,5.2-0.1,7.8-0.4c4.5-0.6,7.7-3,9.1-7.5c0.8-2.4,1.3-4.9,1.2-7.5c-0.1-2.2-1-3.7-3.2-4.3
		C217.2,126.8,214.4,126.8,211.6,126.8z"/>
	<path class="st2" d="M104.2,147.2c-4.2,0-4.2,0-3.6-3.3c1-5.1,2-10.2,3-15.4c0.2-1.4,0.8-1.9,2.2-1.8c3,0.2,6,0.1,8.9,0.4
		c4.3,0.3,5.9,2.5,5.2,6.8c-0.2,1.7-0.6,3.4-1.1,5c-1.4,4.8-4.7,7.3-9.5,7.9C107.4,147,105.4,147.1,104.2,147.2z"/>
	<path class="st2" d="M211.6,126.8c2.8,0.1,5.5,0,8.2,0.8c2.2,0.6,3.2,2,3.2,4.3c0.1,2.6-0.5,5-1.2,7.5c-1.4,4.5-4.6,6.9-9.1,7.5
		c-2.6,0.3-5.2,0.3-7.8,0.4c-1.5,0.1-1.8-0.5-1.5-1.8c1.1-5.4,2.2-10.8,3.1-16.2c0.3-1.7,0.9-2.7,2.9-2.4
		C210.1,126.9,210.9,126.8,211.6,126.8z"/>
</g>
</svg>
