<svg xmlns="http://www.w3.org/2000/svg" width="437.566" height="452.191" viewBox="0 0 437.566 452.191">
  <g id="Group_225" data-name="Group 225" transform="translate(8877.453 15997.896)">
    <g id="Group_135" data-name="Group 135" transform="translate(-9743.063 -17330.158)">
      <g id="Group_134" data-name="Group 134">
        <g id="Group_131" data-name="Group 131">
          <path id="Path_938" data-name="Path 938" d="M1109.8,1543.266a9.6,9.6,0,0,1-3.092-.118,20.071,20.071,0,0,1-2.879-.991,34.779,34.779,0,0,0-3.658-1.2,4.512,4.512,0,0,0-2.62-.024,1.122,1.122,0,0,0-.732.519c-.2.426.054.981.425,1.535a11.534,11.534,0,0,0,3.446,3.021,25.316,25.316,0,0,1,2.9,2.171c1.707,1.588,1.9,3.553,2.549,3.446.394-.065.645-.8.684-.921a1.974,1.974,0,0,0,.047-1.062c-.083-.359-.208-.433-.708-1.251a3.965,3.965,0,0,1-.566-1.109,1.736,1.736,0,0,1,.212-1.3c.162-.225.286-.232,1.157-.661a14.638,14.638,0,0,1,1.44-.731c.617-.212.888-.171,1.132-.449A1.252,1.252,0,0,0,1109.8,1543.266Z" fill="#891739"/>
          <path id="Path_939" data-name="Path 939" d="M1107.042,1546.169c.268-.386.708-.1,2.077-.5a8.129,8.129,0,0,0,2.124-.968,15.3,15.3,0,0,0,3.139-3.02,3.013,3.013,0,0,0,.731-1.983c-.063-.484-.266-.433-.8-1.747a4.738,4.738,0,0,1-.378-1.321,4.165,4.165,0,0,1,0-.921l6.774,3.564a22.913,22.913,0,0,0-2.5,1.039,4.785,4.785,0,0,0-2.053,1.416,2.816,2.816,0,0,0-.566,1.51c-.014.766.436,1.639,2.242,2.95,1.061.772,2.248,1.43,6.49,3,.949.35,1.74.632,2.29.826q-2.22,4.566-4.438,9.134c-1.7-.9-3.042-1.681-3.941-2.219,0,0-1.451-.869-3.658-1.982-1.417-.715-2.022-.958-2.738-.8a3.144,3.144,0,0,0-1.888,1.534,2.794,2.794,0,0,0-.307,1.015c-.2,1.989,1.925,3.447,2.1,3.564l-7.741-3.068,1.039.024a6.489,6.489,0,0,0,2.1-.8,3.682,3.682,0,0,0,1.322-1.086c.606-.917.406-2.031.094-3.634a19.89,19.89,0,0,0-.708-2.573C1107.2,1547.225,1106.724,1546.625,1107.042,1546.169Z" fill="#891739"/>
          <path id="Path_940" data-name="Path 940" d="M1112.557,1533.377l10.259,5.129a2.487,2.487,0,0,0,1.038-1.07,3.477,3.477,0,0,0-.189-2.643,8.579,8.579,0,0,0-1.384-2.549,6.232,6.232,0,0,0-1.763-1.731,5.545,5.545,0,0,0-3.367-.724,5.245,5.245,0,0,0-2.958,1.133A5.116,5.116,0,0,0,1112.557,1533.377Z" fill="#891739"/>
          <path id="Path_941" data-name="Path 941" d="M1102.109,1557.608l10.164,5.066a4.639,4.639,0,0,1-1.164,2.077,5.043,5.043,0,0,1-3.147,1.385,6.343,6.343,0,0,1-3.115-.441,7.042,7.042,0,0,1-2.9-2.077,4.576,4.576,0,0,1-1.385-3.146A4.142,4.142,0,0,1,1102.109,1557.608Z" fill="#891739"/>
          <path id="Path_942" data-name="Path 942" d="M1127.929,1550.04l-4.767,9.44,1.793.9,4.721-9.252Z" fill="#891739"/>
          <path id="Path_943" data-name="Path 943" d="M1130.667,1551.55l-4.484,9.2,7.694,3.87a10.392,10.392,0,0,0-.519-1.793,19.344,19.344,0,0,1-1.086-2.408,4.247,4.247,0,0,1,.189-2.5,4.529,4.529,0,0,1,1.888-2.077,6.506,6.506,0,0,1,3.54-1.039Z" fill="#891739"/>
          <path id="Path_944" data-name="Path 944" d="M1140.013,1555.562c-1.347.52-2.467.889-3.257,1.133-1.5.466-2.024.547-2.454,1.086a3.662,3.662,0,0,0-.378,2.832,9.159,9.159,0,0,0,1.652,4.154l9.819,4.39a2.67,2.67,0,0,1,.944.85,2.948,2.948,0,0,1,.33,2.36q-1.44,4.437-2.879,8.874l7.977,5.193a5.138,5.138,0,0,0,3.21-2.6q2.856-5.075,5.711-10.148a6.051,6.051,0,0,0-.9-7.411Z" fill="#891739"/>
          <path id="Path_945" data-name="Path 945" d="M1095.832,1539.226c.513-.316,1.144-.434,3.491.049a36.041,36.041,0,0,1,3.914,1.045c1.371.247,2.732.493,4.092.74a124.14,124.14,0,0,1-19.858-9.555c-2.16-1.311-3.994-2.544-5.561-3.668-.188-.138-.4-.286-.622-.453-1.567-1.124-4.309-3.146-9.959-7.228-7.977-5.758-7.779-5.532-11.2-8.056-3.619-2.662-8.766-6.468-15.106-11.7-3.875-3.195-6.7-5.7-9.939-8.559-4.368-3.855-7.622-6.863-10.955-9.939-3.727-3.451-6.31-5.9-10.452-9.821-5.4-5.127-8.292-7.868-12.207-11.7-2.12-2.08-2.021-2.021-8.687-8.687-8.1-8.125-12.167-12.187-14.218-14.228-5.6-5.561-7.75-7.632-11.2-11.458-2.436-2.682-4.369-4.969-5.67-6.537-.168,2.051-.335,4.112-.5,6.162-.2,2.406,7.79,9.93,9.446,12,3.205,4.022,6.439,8.026,9.782,11.94a424.683,424.683,0,0,0,58.254,56.421c11.576,9.239,23.8,17.393,36.118,25.439,2.13,1.4,4.27,2.791,6.4,4.191,7.286,4.743,14.573,9.515,21.732,14.5-.454-.64-.917-1.281-1.381-1.922-1.893-1.4-3.392-2.672-4.486-3.639-1.785-1.577-2.435-2.327-2.406-3.3A2.633,2.633,0,0,1,1095.832,1539.226Zm-54.981-36.828c-14.277-12.02-29.354-23.29-40.88-38.18,8.677,8.056,17.383,16.073,26.317,23.833,15.441,13.41,31.592,26.021,47.477,38.9C1061.933,1519.91,1051.352,1511.242,1040.851,1502.4Z" fill="#891739"/>
        </g>
        <g id="Group_132" data-name="Group 132">
          <path id="Path_946" data-name="Path 946" d="M1054.849,1541.788a9.605,9.605,0,0,0,3.092-.118,20.043,20.043,0,0,0,2.879-.992,34.566,34.566,0,0,1,3.658-1.2,4.514,4.514,0,0,1,2.62-.024,1.122,1.122,0,0,1,.732.519c.2.426-.054.981-.425,1.534a11.523,11.523,0,0,1-3.446,3.022,25.316,25.316,0,0,0-2.9,2.171c-1.707,1.588-1.9,3.552-2.549,3.446-.394-.065-.645-.8-.684-.921a1.98,1.98,0,0,1-.048-1.062c.084-.36.209-.433.708-1.251a3.963,3.963,0,0,0,.567-1.109,1.737,1.737,0,0,0-.212-1.3c-.163-.225-.286-.232-1.157-.661a15.057,15.057,0,0,0-1.44-.732c-.617-.211-.888-.17-1.133-.448A1.258,1.258,0,0,1,1054.849,1541.788Z" fill="#891739"/>
          <path id="Path_947" data-name="Path 947" d="M1057.61,1544.691c-.268-.386-.708-.1-2.077-.5a8.13,8.13,0,0,1-2.124-.968,15.276,15.276,0,0,1-3.139-3.021,3.015,3.015,0,0,1-.732-1.982c.064-.485.267-.433.8-1.747a4.7,4.7,0,0,0,.377-1.321,4.041,4.041,0,0,0,0-.921l-6.773,3.564a22.936,22.936,0,0,1,2.5,1.038,4.774,4.774,0,0,1,2.053,1.417,2.817,2.817,0,0,1,.566,1.51c.014.766-.436,1.639-2.242,2.95-1.062.771-2.248,1.43-6.49,3-.949.35-1.74.632-2.29.826q2.219,4.566,4.438,9.134c1.7-.9,3.042-1.681,3.941-2.219,0,0,1.451-.869,3.658-1.982,1.417-.715,2.022-.958,2.738-.8a3.144,3.144,0,0,1,1.888,1.534,2.792,2.792,0,0,1,.307,1.015c.2,1.989-1.925,3.447-2.1,3.564l7.742-3.068-1.039.023a6.482,6.482,0,0,1-2.1-.8,3.692,3.692,0,0,1-1.322-1.086c-.607-.917-.406-2.031-.094-3.634a19.539,19.539,0,0,1,.708-2.573C1057.456,1545.747,1057.928,1545.147,1057.61,1544.691Z" fill="#891739"/>
          <path id="Path_948" data-name="Path 948" d="M1052.095,1531.9l-10.259,5.129a2.486,2.486,0,0,1-1.038-1.07,3.476,3.476,0,0,1,.189-2.643,8.574,8.574,0,0,1,1.384-2.549,6.192,6.192,0,0,1,1.763-1.731,5.544,5.544,0,0,1,3.367-.724,5.244,5.244,0,0,1,2.958,1.133A5.115,5.115,0,0,1,1052.095,1531.9Z" fill="#891739"/>
          <path id="Path_949" data-name="Path 949" d="M1062.543,1556.13l-10.164,5.066a4.638,4.638,0,0,0,1.164,2.077,5.043,5.043,0,0,0,3.147,1.385,6.344,6.344,0,0,0,3.115-.441,7.043,7.043,0,0,0,2.895-2.077,4.577,4.577,0,0,0,1.385-3.147A4.142,4.142,0,0,0,1062.543,1556.13Z" fill="#891739"/>
          <path id="Path_950" data-name="Path 950" d="M1036.723,1548.561l4.767,9.441-1.793.9-4.721-9.252Z" fill="#891739"/>
          <path id="Path_951" data-name="Path 951" d="M1033.985,1550.072l4.484,9.2-7.694,3.87a10.371,10.371,0,0,1,.519-1.793,19.5,19.5,0,0,0,1.086-2.408,4.259,4.259,0,0,0-.189-2.5,4.541,4.541,0,0,0-1.888-2.077,6.512,6.512,0,0,0-3.54-1.038Z" fill="#891739"/>
          <path id="Path_952" data-name="Path 952" d="M1024.639,1554.084c1.347.52,2.467.889,3.257,1.133,1.5.466,2.024.547,2.454,1.086a3.662,3.662,0,0,1,.378,2.832,9.16,9.16,0,0,1-1.652,4.154l-9.819,4.39a2.66,2.66,0,0,0-.944.85,2.949,2.949,0,0,0-.33,2.36q1.44,4.437,2.879,8.874l-7.977,5.192a5.131,5.131,0,0,1-3.21-2.6l-5.712-10.149a6.053,6.053,0,0,1,.9-7.411Z" fill="#891739"/>
          <path id="Path_953" data-name="Path 953" d="M1202.955,1417.984c-1.292,1.568-3.225,3.855-5.66,6.547-3.461,3.816-5.6,5.887-11.2,11.448-2.06,2.041-6.113,6.1-14.228,14.228-6.666,6.675-6.567,6.607-8.687,8.687-3.905,3.836-6.8,6.577-12.207,11.7-4.141,3.925-6.725,6.37-10.452,9.821-3.333,3.076-6.587,6.084-10.945,9.939-3.234,2.86-6.074,5.364-9.949,8.559-6.33,5.236-11.477,9.042-15.106,11.7-3.412,2.524-3.224,2.3-11.2,8.056-6.5,4.694-9.15,6.666-10.57,7.681-.464.335-.947.671-1.46,1.026-1.824,1.252-3.973,2.613-6.5,4.042a127.968,127.968,0,0,1-17.472,8.155l4.092-.74a36.107,36.107,0,0,1,3.915-1.045c2.346-.483,2.987-.365,3.5-.049a2.617,2.617,0,0,1,1.173,2.031c.03.976-.621,1.726-2.406,3.3-1.084.967-2.593,2.238-4.486,3.639-.454.641-.917,1.282-1.38,1.922,6.419-4.466,12.936-8.765,19.464-13.025,2.09-1.371,4.19-2.741,6.281-4.112,13.124-8.549,26.179-17.167,38.5-27a423.559,423.559,0,0,0,58.255-56.421c3.342-3.914,6.587-7.908,9.791-11.941,1.647-2.07,9.634-9.594,9.436-12C1203.29,1422.1,1203.122,1420.035,1202.955,1417.984Zm-79.159,82.935c-10.5,8.844-21.081,17.512-32.9,24.552,15.875-12.878,32.027-25.489,47.468-38.9,8.933-7.76,17.65-15.777,26.317-23.833C1153.15,1477.629,1138.074,1488.9,1123.8,1500.919Z" fill="#891739"/>
        </g>
        <g id="Group_133" data-name="Group 133">
          <path id="Path_954" data-name="Path 954" d="M1167.753,1407.946a46.843,46.843,0,0,0-4.447-3.51,17.146,17.146,0,0,1,1.716-.119c3.126.089,4.9-.443,3.333-4.338-.661-1.627-1.627-2.091-2.761-2.86-.542-.374-2-.256-1.568-1.065,1.242-2.327-1.025-2.337-1.863-2.7-4.536-1.972-5.68-4.782-3.225-8.737-2.218-1.38-4.22-.069-6.261.464-1.1.286-2.465.917-1.637-1.262.266-.71,1.43-1.42.385-2.16-.977-.69-1.884.266-2.633.8-1.252.888-2.82,2.81-3.757.463-1.015-2.514-3.145-3.066-4.752-4.525-1.381-1.262-3.58-1.233-4.645-3.146,3.363-1.114,5.433,1.371,7.987,2.16,1.006.315,2.534,1.6,2.968.621,1.233-2.82,3.274-.986,5.009-1.016-.582-5-4.585-6.813-7.7-9.328-.562-.453-1.972-.079-1.538-1.42.385-1.193,1.213,0,1.775-.138,2.327-.542,5.029.306,6.942-1.814-.908-1.183-2.771-3.116-2.544-3.4,2.179-2.731-.346-2.948-1.775-3.855a10.7,10.7,0,0,0-4.763-1.44c.355-1.37,2.091-1.015,2.574-2.248-1.9-1.173-3.5-2.623-5.9-2.79-2.179-.148-2.485-2.712-4.033-3.787,2.465-2.13-.108-2.859-1.124-3.825.454-1.844,3.935-1.8,2.742-3.846-1-1.706-3.323-.73-5.088-.187a22.4,22.4,0,0,0-3.156.818c-.946.473-1.863,1.824-2.849.947-1.223-1.095.414-2.12.729-3.195.237-.779,1.1-1.637.375-2.327-.789-.749-1.735-.345-2.623.315-3.3,2.456-6.853,4.645-8.085,8.983-1.667-3.372,1.3-6.419.384-9.673-.315-1.124.414-2.317-2.07-2.5-2.554-.188-2.258,1.587-2.613,2.4-.474,1.084.039,2.6-1.243,3.786-.769-2.238.286-4.969-1.341-6.133-2.3-.7-.956,3.224-3.106,1.6-2.613-1.982-1.814.454-2.1,1.322-.276.848.838,1.843-.3,2.79-1.37-1.114-1.272-3.441-3.421-4.21-.474,4.121-.562,8.144,1.282,11.793.956,1.893.512,2.623-1.075,3.382-2.82-5.157-11.931-8.214-17.443-5.9.838,2.15,3.352,1.824,4.674,3.146,1.193,1.173,4.151,1.045,3.273,3.993a15.113,15.113,0,0,0-15.855,2.564c2.14,2,5.019.611,7.356,1.607.68.3,1.587.355,1.4,1.341-.168.858-.986.286-1.479.434-4.832,1.489-10.541,1.44-13.095,7.1,4.487,1.262,9.279-2.7,13.864.967-6.606,1.429-14.938,8.7-13.085,11.132,1.036-.345,2.041-.848,3.018-.335-.809,1.814-1.618,3.6-2.485,5.531,3.924-.019,6.508-2.909,10.008-3.589,0,2.85-2.761,3.027-3.846,4.635-.769,1.153-2.346,2.474-1.183,3.8,1.114,1.262,2.317-.355,3.363-1a30.541,30.541,0,0,1,13.419-4.467,34.406,34.406,0,0,0-7.789,13.242c-.276.937-1.558,2.032-.375,3,1.114.907,2.534.444,3.836.069a7.434,7.434,0,0,0,3.619-2.889,55.774,55.774,0,0,1,6.073-6.044c1.154-1.1,2.978-2.682,3.235.927a5.959,5.959,0,0,0,1.7,3.155,5.582,5.582,0,0,0,4.25,1.853c1.253-.019,2.485-1.143,2.386-1.912-.3-2.377,1.322-4.812-.394-7.159a2.455,2.455,0,0,1,.02-2.859,1.849,1.849,0,0,1,1.627-.5c1.291.463.631,1.7.631,2.553.039,24.217-.01,48.444.069,72.671.01,2.445-.71,3.313-3.136,3.8a60.3,60.3,0,0,0-17.679,6.084c2.849,1.962,5.531,1.084,8.075.2,4.23-1.469,8.362-1.765,12.572-.02a12.233,12.233,0,0,0,9.348-.049,15.867,15.867,0,0,1,11.862-.049,13.03,13.03,0,0,0,9.357.256c2.6-.927,5.236-1.341,7.918-.286a1.678,1.678,0,0,0,2.031-.3c2.1-2.2,4.7-3.915,6.537-6.725-3.3-1.016-6.517-.592-9.653-.868-1.351-.118-2.83.01-2.83-2.012-.019-12.985-.059-25.962-.019-38.938,0-.779-.247-2.317,1.311-2.07,1.528.236,1.548,1.41.818,2.5-.493.74-.1,1.42-.137,2.12-.079,1.568-.484,3.481,1.616,3.964a3.181,3.181,0,0,0,3.816-2.14c.76-1.854,1.706-1.173,2.712-.167,1.548,1.538,3.067,3.116,4.753,4.486a2.77,2.77,0,0,0,3.145.316c1.223-.74.168-1.864-.089-2.594-.8-2.218-1.912-4.318-3.066-6.823,2.938.394,3.569,3.412,6.024,3.954a3.529,3.529,0,0,0-.828-4.112c-1.291-1.459-2.623-2.879-3.944-4.319-.74-.266-1.479-.532-2.514-.917,1.321-.3,2.317-.818,3.116.3.917.345,1.863.631,2.741,1.055,1.932.917,3.323-1.666,5.226-.739C1170.169,1410.115,1168.818,1409.021,1167.753,1407.946Zm-72.443-53.581c-.05-.049-.109-.089-.168-.148h-.01c-.059-.049-.118-.1-.167-.148a1.8,1.8,0,0,1-.148-.167.358.358,0,0,1-.109-.138,1.007,1.007,0,0,1-.138-.237,1.309,1.309,0,0,1-.089-.246c0-.03-.009-.05-.009-.079a1.213,1.213,0,0,1-.03-.267,3.9,3.9,0,0,1,.759-1.913v3.136c.089.118.188.227.276.345A2.033,2.033,0,0,1,1095.31,1354.365Zm34.57,34c1.045-.285,1.469.3,1.538,1.253h.02v.029c1.8.68,2.751,1.952,2.948,4.3-1.864-1.193-3.185-2.218-2.948-4.3-.01,0-.01-.01-.02-.01v-.019c-.67-.02-1.42.216-1.883-.464A.911.911,0,0,1,1129.88,1388.363Zm-12.454,1.322c-.108-1.085-.019-2.189-.019-3.294s-.079-2.2,0-3.293c.069-.9-.345-1.893.838-2.574s1.4.513,2.061.8a1.873,1.873,0,0,1,.818,2.751c-1.637,1.676-1.459,3.234-.759,5.216.3.838.71,2.416-1.361,2.682C1116.667,1392.258,1117.525,1390.661,1117.426,1389.685Zm22.728,33.219c0,10.56-.079,21.131.04,31.7.029,2.386-.6,3.126-3.077,3.1-5.9-.069-11.832-.483-17.709.444-1.7.276-2.041-.355-2.041-1.923.059-12.385.049-24.769.059-37.154,0-1-.019-1.922,1.144-2.435,2.219-.966,4.4-2,7.247-1.933-2.06,3.037-4.032,5.808-4.92,9.131-.207.779-1.055,1.607-.138,2.317a2.562,2.562,0,0,0,2.791-.059c2.366-1.154,3.756-3.372,5.521-5.157,2.1-2.13,3.333-2.4,4.645.69.986,2.327,2.849,2.81,5,1.154-.286-1.952.789-3.974-.414-5.936a1.244,1.244,0,0,1,1.035-1.9c1.568-.188.927,1.144.947,1.765C1140.342,1418.763,1140.214,1420.833,1140.154,1422.9Z" fill="#891739"/>
          <path id="Path_955" data-name="Path 955" d="M1143.487,1472.794c-2.129,1.973-4.216,3.995-6.4,5.9-1.354,1.181-2.875.308-4.192-.135-4.413-1.483-8.8-2.076-13.229-.2a12.023,12.023,0,0,1-9.282-.044,15.407,15.407,0,0,0-11.78-.041,13.237,13.237,0,0,1-10.358-.127,14.207,14.207,0,0,0-10.71.06,14.824,14.824,0,0,1-11.089-.1,13.672,13.672,0,0,0-10.354.047,13.819,13.819,0,0,1-10.722.028,14.24,14.24,0,0,0-11.415.162c-3.743,1.579-6.484.794-8.892-2.307a38.939,38.939,0,0,1-3.211-3.822c6.313,2.768,12.019.174,17.907-1.056,1.736-.363,3.851.6,5.68,1.262a14.241,14.241,0,0,0,10.373,0,14.36,14.36,0,0,1,11.07-.033,13.849,13.849,0,0,0,10.711-.051,14.562,14.562,0,0,1,10.706.032,14.486,14.486,0,0,0,11.07-.08,12.917,12.917,0,0,1,9.978-.011,16.059,16.059,0,0,0,11.8-.023,12.45,12.45,0,0,1,9.275-.085A21,21,0,0,0,1143.487,1472.794Z" fill="#891739"/>
          <path id="Path_956" data-name="Path 956" d="M1035.5,1485.367a8.594,8.594,0,0,1,7.258-.734c4.844,1.73,9.74,2.515,14.693.3,3.018-1.351,6.031-.775,8.968.275a15.156,15.156,0,0,0,11.139.1,13.949,13.949,0,0,1,10.74.006,14.335,14.335,0,0,0,10.776,0c3.176-1.223,6.456-1.746,9.67-.312,4.876,2.176,9.616,1.189,14.346-.349a7.063,7.063,0,0,1,6.506.557c-5.153,5.555-11.2,8.44-18.709,6.13-4.426-1.362-8.609-1.713-12.908.074a12.244,12.244,0,0,1-9.332-.223,15.469,15.469,0,0,0-11.474.021,12.118,12.118,0,0,1-9.337.184c-4.3-1.823-8.474-1.294-12.9-.056C1047.432,1493.436,1041.088,1490.871,1035.5,1485.367Z" fill="#891739"/>
          <path id="Path_957" data-name="Path 957" d="M1113.052,1499.266a18.994,18.994,0,0,1-8.539,3.805c-7.394,1.423-14.308,2.451-21.5-.33-.948-.367-2.432.268-3.536.745-5.02,2.169-9.961,1.792-14.974-.046a7.973,7.973,0,0,0-5.354-.281c-3.258,1-4.36-2.372-7.156-3.626,5.425-2,10.127-3.4,15.137-1.28a13.387,13.387,0,0,0,10.326-.015,14.165,14.165,0,0,1,10.677-.074,13.939,13.939,0,0,0,11.03-.013C1103.867,1496.146,1108.245,1497.566,1113.052,1499.266Z" fill="#891739"/>
          <path id="Path_958" data-name="Path 958" d="M1072.023,1512.678c11.652-3.347,12.582-3.339,21.274.16-3.506,1.851-6.718,3.551-9.934,5.244a2.087,2.087,0,0,1-2.108-.151C1078.4,1516.312,1075.547,1514.684,1072.023,1512.678Z" fill="#891739"/>
          <path id="Path_959" data-name="Path 959" d="M1084.67,1434.4c-1.183,3.037-2.4,6.074-3.608,9.111-.227.03-.464.049-.691.079q-4.452,1.449-8.913,2.889c3.7-4.546,7.385-9.1,11.112-13.627.493-.6,1.1-1.676,2.031-.9C1085.292,1432.537,1084.986,1433.583,1084.67,1434.4Z" fill="#891739"/>
          <path id="Path_960" data-name="Path 960" d="M1095.134,1354.223c-1.013-.86-.854-1.753.064-3.2v3.135Z" fill="#891739"/>
          <path id="Path_961" data-name="Path 961" d="M1095.2,1354.159l.28.344-.344-.281Z" fill="#891739"/>
        </g>
        <path id="Path_962" data-name="Path 962" d="M1070.146,1429.264l-1.745,1.006-2.159-3.747-22.768-39.422-3.8-6.577-1.647-2.849-14.928-25.864-.02-.029-.907-1.578,1.134-2.061.158.266.009-.01c1,.237,1.144,1.154,1.529,1.825q20.234,35.112,40.417,70.264a12.353,12.353,0,0,1,1.548,3.274Z" fill="#891739"/>
        <path id="Path_963" data-name="Path 963" d="M1091.868,1439.3c-.621-1.361-1.666-.257-2.465.1-2.82,1.233-5.019,3.708-8.253,4.122.316.8-.345.69-.779.8-2.977,1.844-6.369,2.535-9.663,3.521-2.563,1.469-4.8,1.173-6.931-.986-2.189-2.229-4.95-2.742-8.076-2.663-6.409.168-12.819-.019-19.228-.108-.976-.02-2.189.453-2.918-1.016,11.26-4.555,22.294-4.309,33.485,1.331-.345-3.648-.079-7.138-.266-10.511v-.009a29.052,29.052,0,0,0-.444-4.822l-29.364-50.87-.739-1.271-.316-.543-.019-.049-2.17-3.757-.029-.049-.612-1.045-.01-.03-11.083-19.2a2.179,2.179,0,0,0-.64-.325c-.227.69-.464,1.38-.691,2.07v.01c-1.272,3.718-2.573,7.366-3.668,11.093-5.866,19.869-10.126,39.994-9.061,60.868.483,9.377,2.1,18.547,6.784,26.879a15.176,15.176,0,0,1,2.228,6.458c.138,1.923.01,4.871,2.209,5.443,4.279,1.124,8.46,3.4,13.252,1.785,4.3-1.45,8.726-2.524,13.262-.483,3.431,1.548,6.883,1.114,10.413-.05,2.277-.759,4.6-1.6,7.2-1.015,7.691,1.706,8.075,1.794,11.053-5.729,3.2-8.1,7.149-15.2,15.993-18.241C1091.02,1440.771,1092.322,1440.3,1091.868,1439.3Zm-70.451,19.779a1.506,1.506,0,0,1-1.262-.443c-.267-1.686.739-2.919,1.883-4.152C1021.9,1456.054,1023.4,1457.908,1021.417,1459.081Zm29.561-5.225a233.112,233.112,0,0,1-24.473,5.255c-1.47.207-2.15-.1-2.3-1.844-.582-6.971-.661-6.981,6.468-7.385,3.56-.207,7.12-.365,10.679-.543a.267.267,0,0,0,.01.089c2.948,0,5.906-.039,8.855.02.838.02,2.3-.532,2.169,1.084C1052.289,1451.7,1052.989,1453.343,1050.978,1453.856Zm3.254-.918c.029-4.151.128-4.18,10.116-2.908C1061,1450.986,1057.653,1451.952,1054.232,1452.938Z" fill="#891739"/>
        <line id="Line_11" data-name="Line 11" x1="1.134" y2="2.061" transform="translate(1022.176 1348.143)" fill="#891739"/>
      </g>
    </g>
    <g id="Group_136" data-name="Group 136" transform="translate(-9743.063 -17330.158)">
      <path id="Path_964" data-name="Path 964" d="M1112.43,1644.133c-5.3-1.541-9.874-3.6-14.9-1.836-2.208.774-2.242-.556-2.855-2.045-.9-2.2-.081-3.159,1.845-3.478a24.481,24.481,0,0,1,11.318.45c5.212,1.582,10.349,3.675,15.955,3.424,1.985-.089,2.711.727,2.41,2.66-.229,1.466-.04,3.12-2.434,2.74-4.218-.67-7.273,1.763-10.259,4.155-7.973,6.383-16.611,9.129-26.815,5.98-1.907-.589-4.207,1.4-6.7,1.3-15.285-.632-30.578.106-45.871-.041-15.463-.149-30.928-.033-46.392-.033h-46.89q-23.2,0-46.392.005c-3,0-6.068.191-8.106-2.646-1.168-1.627-2.382-.478-3.487-.087a12.8,12.8,0,0,1-8.737.248c-4-1.359-6.758-4-7.189-8.085-.42-3.983,2.578-6.3,5.834-7.879a67.666,67.666,0,0,1,6.966-2.562c2.119-.75,5.122-.117,4.877-4.094-.117-1.9,2.051-1,3.223-1.125,1.693-.179,1.72.989,1.722,2.27.007,3.822.09,7.645.175,11.467.143,6.447.853,7.172,7.213,7.173q78.567.012,157.134.006c3.159,0,6.324-.113,9.476.034,2.57.12,3.63-.837,3.532-3.449-.118-3.153.127-6.32.012-9.474-.075-2.053.4-2.921,2.714-2.935,2.5-.015,2.6,1.242,2.537,3.089-.083,2.325.022,4.656-.026,6.983-.078,3.7,1.843,5.339,5.387,5.78,3.853.48,5.417-.873,5.34-4.866-.176-9.142-.025-18.29-.069-27.435-.009-1.966-.137-3.5,2.73-3.4,2.639.093,2.372,1.59,2.369,3.273-.013,8.813.149,17.63-.066,26.437-.115,4.683,1.989,6.187,6.331,5.993A25.7,25.7,0,0,0,1112.43,1644.133Zm-228.02.706c-.722-.988,1.692-3.96-1.9-3.992-3.529-.031-10.933,3.823-10.4,5.381,1.108,3.209,3.907,4.258,7.106,4.153C882.469,1650.275,885.267,1649.552,884.41,1644.839Z"/>
      <path id="Path_965" data-name="Path 965" d="M870.782,1696.412c1.263,8.587.773,16.974.716,25.345-.012,1.759,1.8,4.783-2.585,4.864-4.184.077-2.927-2.662-2.941-4.665-.072-10.64-.121-21.283.063-31.921.027-1.552-1.713-4.225,1.654-4.767,2.749-.443,4.523.478,5.942,3.137,3.643,6.823,7.665,13.444,11.946,20.857,4.259-7.389,8.171-14.213,12.128-21.009.8-1.375,1.295-3.031,3.492-3.051,2.39-.022,3.955-.045,3.889,3.289-.23,11.634-.147,23.276-.041,34.913.021,2.312-.512,3.185-3,3.2-2.507.019-2.584-1.209-2.556-3.065.1-6.482.113-12.965.151-19.447a20.419,20.419,0,0,0-.918-7.361c-3.1,5.377-6.135,10.79-9.315,16.118-2.391,4.006-5.35,3.92-7.759-.113-3.215-5.381-6.4-10.777-9.621-16.157C871.982,1696.5,871.737,1696.535,870.782,1696.412Z"/>
      <path id="Path_966" data-name="Path 966" d="M1180.857,1634.255a192.751,192.751,0,0,1-.644,19.883c-.262,2.549-.947,3.525-3.539,3.305-4.539-.385-9.38,1.054-13.4-2.239-1.072-.878-1.7-.189-2.6.233-4.8,2.26-9.927,2.1-15.084,2.052-2.831-.027-2.641-1.453-2.6-3.463.058-2.635,1.457-2.494,3.275-2.033a10.685,10.685,0,0,0,1.975.247c3.351.2,7.214.309,9.652-1.51,3.182-2.373-1.08-5.329-1.125-8.237a20.3,20.3,0,0,0-1.391-5.762c-.688-2.111-.323-2.967,2.07-3.748,3.169-1.035,2.819,1.235,3.261,2.686.912,2.995,1.521,6.082,2.418,9.083a12.822,12.822,0,0,0,3.176,5.544c2.309,2.3,5.312,2.262,7.924,1.529,2.33-.655,1.491-3.393,1.508-5.27.077-8.8.01-17.6.066-26.392.01-1.6-.861-3.665,2.324-3.745,3.356-.085,2.729,1.988,2.733,3.894Q1180.873,1627.284,1180.857,1634.255Z"/>
      <path id="Path_967" data-name="Path 967" d="M1046.1,1724.235c-10.8,4.971-16.708,1.216-16.728-10.225,0-2.659-.107-5.324.038-7.975.1-1.85-1.216-4.5,2.686-4.451,3.712.043,2.206,2.6,2.313,4.179.213,3.143-.028,6.314.088,9.468.137,3.717,1.585,6.743,5.823,6.454,3.779-.258,6.542-1.978,6.114-6.664-.316-3.461.033-6.978-.094-10.463-.077-2.084.494-2.924,2.764-2.976s2.347,1.085,2.34,2.725c-.032,8.31.069,16.621-.072,24.928a9.731,9.731,0,0,1-6.1,9.405c-4.9,2.2-9.65,1.842-14.384-.3-2.121-.961-.755-2.612-.449-3.865.406-1.657,1.578-1.318,2.678-.545a1.855,1.855,0,0,0,.451.2C1042.7,1737.36,1046.649,1734.346,1046.1,1724.235Z"/>
      <path id="Path_968" data-name="Path 968" d="M1209.594,1716.273c-1.992,0-3.993-.11-5.973.042-1.17.09-2.978-.857-3.355.977-.262,1.272.8,2.505,1.827,3.358,3.472,2.879,7.427,2.61,11.253,1.131,1.856-.717,2.666-.578,3.342,1.243.6,1.628-.071,2.384-1.459,3.083-4.8,2.416-13.526,1.635-17.018-1.61-3.43-3.188-4.467-10.34-2.3-15.876,2.306-5.9,7.835-8.57,15.165-7.324,5.045.857,7.845,5.156,8.044,11.519.091,2.873-.745,3.818-3.551,3.5A53.308,53.308,0,0,0,1209.594,1716.273Zm-9.266-4.606c3.671,0,7.281.035,10.89-.025.886-.015,2.113.476,2.518-.846a2.733,2.733,0,0,0-.936-2.676c-1.94-2.067-4.309-3.109-7.124-2.391S1200.364,1707.65,1200.328,1711.667Z"/>
      <path id="Path_969" data-name="Path 969" d="M1295.91,1657.927c-3.158-.554-5.905-.877-8.567-1.54-3.443-.858-6.034-2.783-6.476-6.63-.5-4.37,3.33-10.728,7.419-12.621,3.584-1.66,6.4-.369,8.966,2.106,6.087,5.869,6.717,16.476,1.362,23.118a30.486,30.486,0,0,1-11.053,8.245c-2.019.959-3.072.975-4.261-1.257-1.455-2.734.631-2.594,2.006-3.248C1289.3,1664.2,1293.225,1662.213,1295.91,1657.927Zm-1.93-5.835c1.372-.182,3.613.772,3.2-1.669-.593-3.536-1.416-7.331-5.495-8.625-2.143-.679-6.231,3.443-5.8,6.223C1286.624,1652.848,1291.24,1650.862,1293.98,1652.092Z"/>
      <path id="Path_970" data-name="Path 970" d="M1267.759,1701.206c8.248-.019,12.663,4.546,12.621,13.048-.04,8.091-5.053,13.238-12.861,13.2-7.833-.034-12.109-4.6-12.159-12.98C1255.308,1705.935,1259.709,1701.225,1267.759,1701.206Zm-7.14,12.631c.012,5.654,2.486,8.668,7.171,8.734,5.31.076,7.076-1.859,7.072-7.745,0-5.556-2.986-9.3-7.394-9.277C1262.741,1705.572,1260.606,1708.155,1260.619,1713.837Z"/>
      <path id="Path_971" data-name="Path 971" d="M1083.122,1701.206c8.043.02,12.168,4.357,12.189,12.814.02,8.494-4.483,13.373-12.4,13.437-8,.064-12.649-4.793-12.621-13.194C1070.316,1706.143,1075.188,1701.187,1083.122,1701.206Zm6.961,13.689c.016-5.652-2.854-9.284-7.384-9.344s-7.073,2.86-7.122,8.2c-.048,5.25,2.841,8.75,7.3,8.841C1088.089,1722.7,1090.067,1720.588,1090.083,1714.9Z"/>
      <path id="Path_972" data-name="Path 972" d="M1108.185,1696.178c-1.011,3.956.312,6.533,5.763,5.516,1.769-.331,3.2-.069,3.12,2.488-.072,2.408-1.57,2.343-2.993,2.064-5.326-1.041-6.443,1.48-5.966,6.2.381,3.774.019,7.618.1,11.428.037,1.758-.288,2.707-2.4,2.7-2.083,0-2.936-.5-2.865-2.755.152-4.8.026-9.611.056-14.418.011-1.718.206-3.47-2.421-3.107-1.681.232-1.9-.841-1.851-2.14.046-1.132-.185-2.638,1.545-2.476,3.392.319,2.678-2.011,2.71-3.889.03-1.822-.076-3.651.027-5.468.391-6.9,6.527-11.03,13.01-8.787,1.3.451,2.583.946,1.6,2.78-.554,1.039-.284,2.444-2.471,2.14C1108.215,1687.494,1108.195,1687.64,1108.185,1696.178Z"/>
      <path id="Path_973" data-name="Path 973" d="M980.732,1708.069c-2.821-1.177-5.517-2.668-8.57-2.394-1.571.142-3.447.6-3.539,2.785-.083,1.96,1.546,2.347,2.969,2.741,2.382.661,4.814,1.142,7.185,1.838,2.77.813,4.572,2.555,4.752,5.612.19,3.247-.843,5.88-3.913,7.36-4.773,2.3-9.631,1.824-14.479.253-2.49-.807-2.012-2.519-1.322-4.381,1.034-2.792,2.232-.4,3.311-.14,2.862.69,5.624,2.018,8.7.944,1.332-.465,2.5-.956,2.464-2.633-.031-1.467-1.217-1.968-2.265-2.3-2.511-.792-5.1-1.341-7.631-2.066-2.963-.847-4.954-2.6-5.071-5.906a7.186,7.186,0,0,1,4.609-7.452,16.129,16.129,0,0,1,9.741-.722C981.187,1702.268,983.72,1703.649,980.732,1708.069Z"/>
      <path id="Path_974" data-name="Path 974" d="M1187.654,1727.507c-5.989-.013-8.244-1.757-9.01-7.025-.426-2.936-.244-5.956-.5-8.925-.193-2.256,1.472-5.405-3.29-5.511-1.615-.035-1.44-4.059-.015-4.119,4.594-.193,3.219-3.241,3.292-5.56.061-1.947-.149-3.522,2.713-3.5,2.6.019,3.2,1.1,2.857,3.309-.628,4.039.419,6.4,5.151,5.467,1.933-.381,3.1.253,3.024,2.638-.078,2.447-1.714,2.263-3.082,1.993-4.86-.96-5.549,1.6-5.127,5.531a57.807,57.807,0,0,1,.055,6.479c-.014,2.58,1.294,4.16,3.791,4.385,2.074.187,5.052-1.328,4.7,2.655C1191.891,1728.9,1188.65,1726.463,1187.654,1727.507Z"/>
      <path id="Path_975" data-name="Path 975" d="M999.641,1727.484c-5.682.028-8.279-2.281-8.62-7.892-.171-2.814-.026-5.646-.08-8.468-.044-2.313.917-5.252-3.3-4.935-1.339.1-1.137-1.311-1.17-2.277-.035-1.036.011-2.253,1.328-2.179,4.343.245,2.927-2.915,3.149-5.1.167-1.647-.772-3.662,2.394-3.736,3.3-.076,3,1.9,2.746,3.862-.473,3.711.618,5.6,4.732,4.924,1.816-.3,3.674-.38,3.519,2.59-.152,2.895-2.215,2.176-3.567,1.965-4.214-.657-5.065,1.37-4.691,4.989.238,2.3.06,4.645.07,6.97.013,3.108,1.8,4.812,4.67,4.509,2.351-.248,3.984-.376,3.859,2.532-.121,2.8-2.481,1.877-4.043,2.236A4.706,4.706,0,0,1,999.641,1727.484Z"/>
      <path id="Path_976" data-name="Path 976" d="M924.406,1714.35c0-3.324.1-6.652-.027-9.972-.139-3.683,2.927-3.611,3.995-2.221,1.763,2.294,2.609.975,4.077.242,7.084-3.539,13.825.267,14.157,8.067.19,4.48-.023,8.976.078,13.461.042,1.848-.427,2.629-2.463,2.65-2.14.022-2.925-.587-2.842-2.8.15-3.983.057-7.977.028-11.966-.026-3.495-1.687-6.117-5.255-5.86-3.28.236-6.59,1.494-6.511,5.979.071,3.988-.051,7.98.042,11.967.043,1.816-.374,2.676-2.442,2.676s-3.005-.48-2.879-2.754C924.538,1720.674,924.407,1717.509,924.406,1714.35Z"/>
      <path id="Path_977" data-name="Path 977" d="M1147.849,1714.148c0-3.155.11-6.316-.031-9.466-.166-3.7,2.452-4.134,4.051-2.325,1.816,2.056,2.407.774,3.747.094,7.241-3.673,14.021.191,14.424,8.3.214,4.308-.046,8.638.1,12.952.071,2.116-.509,2.867-2.753,2.892-2.472.027-2.608-1.192-2.563-3.065.085-3.486-.024-6.977.034-10.464.066-3.923-.987-7.084-5.563-7.18-3.691-.077-6.343,3.124-6.37,7.175-.023,3.654-.12,7.313.033,10.961.083,1.973-.545,2.577-2.5,2.544-1.814-.031-2.746-.358-2.65-2.453C1147.961,1720.8,1147.851,1717.471,1147.849,1714.148Z"/>
      <path id="Path_978" data-name="Path 978" d="M1231.01,1647.947c.016,4.221-1.685,7.363-5.808,8.823-4.492,1.591-8.985,1.569-12.526-1.912-3.37-3.312-2.992-7.494-1.167-11.523,1.128-2.489,3.092-4.523,2.417-7.767-.34-1.637.531-3.131,3.327-2.3C1226.24,1635.942,1231.093,1640.843,1231.01,1647.947Zm-10.405,4.516c2.77-.51,6.095-.857,5.979-4.463-.111-3.446-2.524-6.061-5.771-7.313-1.695-.654-6.765,4.966-6.435,7.255C1214.871,1651.354,1217.77,1651.925,1220.6,1652.463Z"/>
      <path id="Path_979" data-name="Path 979" d="M1275.91,1650.4c-.01,7.9-8.028,18.143-15.177,20-2.268.588-2.279-1.3-3.167-2.274-1.512-1.661-.106-2.147,1.077-2.807a42.847,42.847,0,0,0,3.785-2.335c8.746-6.166,10.039-10.07,6.7-20.1-.637-1.914-2.184-3.662,1.406-4.8s2.921,1.576,3.529,3.043A19.825,19.825,0,0,1,1275.91,1650.4Z"/>
      <path id="Path_980" data-name="Path 980" d="M1247.931,1649.28c-.091,8.814-8.129,18.926-15.238,21.053-2.168.648-2.433-.978-3.3-2.081-1.019-1.294-.5-2.065.69-2.753,1.288-.746,2.6-1.454,3.834-2.287,8.853-5.991,10.27-10.187,6.835-20.552-.714-2.155-1.608-3.869,1.78-4.665,1.8-.422,2.268-.106,2.77,1.4C1246.555,1643.169,1247.916,1646.905,1247.931,1649.28Z"/>
      <path id="Path_981" data-name="Path 981" d="M1224.424,1714.094c0-3.323.131-6.653-.042-9.967-.162-3.091,2.914-3.124,3.442-2.318,1.973,3.015,3.612,1.019,5.41.255a8.647,8.647,0,0,1,5.829-.175c2.036.54,2.247,1.731,1.4,3.3-.564,1.048-.168,2.852-2.8,2.12-5.945-1.653-7.933.082-7.955,6.034-.013,3.324-.084,6.65.026,9.969.067,2.011.087,3.354-2.708,3.311-2.926-.045-2.638-1.687-2.614-3.553C1224.455,1720.077,1224.427,1717.085,1224.424,1714.094Z"/>
      <path id="Path_982" data-name="Path 982" d="M1137.221,1637.154c0,5.791-.041,11.583.023,17.373.02,1.842-.037,3.033-2.539,2.968-2.431-.063-2.6-1.194-2.594-3.081.048-11.748.08-23.5-.022-35.244-.02-2.3.9-2.681,2.91-2.725,2.309-.052,2.243,1.247,2.234,2.838C1137.2,1625.24,1137.221,1631.2,1137.221,1637.154Z"/>
      <path id="Path_983" data-name="Path 983" d="M1187.737,1636.973c0-5.819.034-11.638-.02-17.457-.017-1.821,0-3.131,2.524-3.1,2.448.029,2.6,1.225,2.589,3.114q-.073,17.457,0,34.914c.009,1.942-.249,2.99-2.655,3.06-2.642.076-2.46-1.346-2.45-3.074C1187.757,1648.611,1187.737,1642.792,1187.737,1636.973Z"/>
      <path id="Path_984" data-name="Path 984" d="M1253.659,1636.525c0-5.636.017-11.272-.011-16.908-.008-1.714-.194-3.128,2.416-3.185,2.765-.061,2.792,1.3,2.782,3.332q-.087,17.156-.01,34.313c.007,1.958.1,3.379-2.734,3.411-3.174.035-2.414-1.918-2.426-3.558C1253.633,1648.128,1253.659,1642.327,1253.659,1636.525Z"/>
      <path id="Path_985" data-name="Path 985" d="M1285.521,1714.1c0-3.323.141-6.654-.047-9.967-.142-2.5,1.936-3.359,2.91-2.356,2.682,2.764,4.686.462,7-.1a7.041,7.041,0,0,1,6.175.992c.862.669.247,1.89-.063,2.773-.49,1.392-.794,2.4-3.089,1.692-5.274-1.617-7.765.546-7.8,6-.022,3.489-.082,6.981.025,10.467.058,1.9-.08,3.034-2.553,3.015-2.44-.019-2.648-1.132-2.589-3.04C1285.594,1720.413,1285.521,1717.253,1285.521,1714.1Z"/>
      <path id="Path_986" data-name="Path 986" d="M1009.159,1714.089c0-3.324.137-6.654-.041-9.968-.163-3.021,2.6-3.223,3.343-2.24,1.926,2.557,3.384,1.1,5.118.3a8.514,8.514,0,0,1,5.831-.391c1.793.446,2.6,1.466,1.765,3.211-.589,1.231-.318,3.123-3.2,2.15-5.268-1.779-7.7.4-7.73,5.982-.019,3.489-.085,6.981.026,10.467.061,1.916-.1,3.018-2.563,3s-2.634-1.146-2.577-3.041C1009.228,1720.405,1009.159,1717.246,1009.159,1714.089Z"/>
      <path id="Path_987" data-name="Path 987" d="M1137.506,1726.567c-2.63,0-2.97-1.13-2.42-3.22v-34.94c-.55-2.1-.19-3.21,2.43-3.21,2.59,0,2.99,1.1,2.45,3.21v34.95C1140.506,1725.457,1140.116,1726.567,1137.506,1726.567Z"/>
      <path id="Path_988" data-name="Path 988" d="M957.889,1714.046c0,3.149-.15,6.308.047,9.445.151,2.413-.691,3.067-3.059,3.123-2.738.065-2.307-1.537-2.3-3.173.018-6.3.075-12.6-.028-18.9-.034-2.069.481-2.925,2.746-2.977,2.449-.057,2.676,1.121,2.623,3.03C957.828,1707.745,957.891,1710.9,957.889,1714.046Z"/>
      <path id="Path_989" data-name="Path 989" d="M917.967,1714.089c0,3.316-.146,6.641.044,9.946.148,2.57-1.344,2.4-3.106,2.53-2.215.158-2.3-.994-2.283-2.691.068-6.466.1-12.934-.02-19.4-.041-2.157.613-2.834,2.8-2.895,2.49-.07,2.636,1.185,2.59,3.058C917.913,1707.787,917.969,1710.939,917.967,1714.089Z"/>
      <path id="Path_990" data-name="Path 990" d="M1247.2,1726.557c-1.93-.08-2.53-.62-2.5-2.55.11-6.6.02-13.19.05-19.79.01-1.07-.27-2.69,1.48-2.44,1.22.18,3.6-1.55,3.53,1.6v19.96C1250.386,1725.6,1249.836,1726.667,1247.2,1726.557Z"/>
      <path id="Path_991" data-name="Path 991" d="M1069.132,1665.739c1.389.91,1.507-.442,2.036-1.121,1.662-2.13,3.615-2.12,5.4-.342a2.943,2.943,0,0,1,0,4.373c-1.776,1.754-3.735,1.81-5.4-.33-.528-.68-.648-2.031-2.037-1.119Z"/>
      <path id="Path_992" data-name="Path 992" d="M1069.132,1665.739v1.461c-.422,2.692-2.281,2.846-4.385,2.409a3,3,0,0,1-2.3-2.9,3.031,3.031,0,0,1,2.3-3.367C1066.838,1662.837,1068.71,1663.047,1069.132,1665.739Z"/>
      <path id="Path_993" data-name="Path 993" d="M916.348,1689.2c1.273-.02,2.421,1.022,2.381,3.327a2.96,2.96,0,0,1-3.037,3.213,3.128,3.128,0,0,1-3.711-3.133C911.854,1690.541,913.129,1689.239,916.348,1689.2Z"/>
      <path id="Path_994" data-name="Path 994" d="M1247.19,1689.231c2.569-.075,3.689,1.069,3.688,3.26,0,2.248-1.369,3.242-3.449,3.282a3.089,3.089,0,0,1-3.428-3.345C1244.025,1690.4,1245.233,1689.079,1247.19,1689.231Z"/>
      <path id="Path_995" data-name="Path 995" d="M955.388,1689.214c2.275-.007,3.31,1.131,3.253,3.367-.06,2.3-1.4,3.213-3.507,3.16a2.866,2.866,0,0,1-3.026-3.166C952.072,1690.41,953.134,1689.2,955.388,1689.214Z"/>
      <path id="Path_996" data-name="Path 996" d="M1110.076,1784.454c-1.321-2.32-.875-3.64,1.671-5.1,5.277-3.033,5.807-5.054,4.121-11.019-.36-1.274-1.335-2.6.832-3.231,2.235-.645,1.977,1.214,2.38,2.34,1.978,5.537,2.057,5.609,7.933,5.609q16.776,0,33.553,0c4.6,0,7.285-2.474,7.454-7.122.131-3.59.016-7.188.034-10.783.006-1.2-.311-2.551,1.711-2.548,2.217,0,1.453,1.6,1.483,2.629.088,3.092.031,6.188.031,9.5,1.414-.569,2.619-1.179,3.894-1.544,4.958-1.419,9.962,1.8,9.627,6.706-.253,3.708,1.573,3.321,4.17,3.036-.674-2.574-1.151-5.127.712-7.518,2.744-3.523,6.539-3.652,9.35-.167,2.294,2.846,2.313,6.155,1.995,9.533-.149,1.58-1.324,1.51-2.482,1.5-3.48-.017-6.959-.006-10.439-.006q-31.5,0-63.005-.027c-3.207-.008-6.132-.482-8.2,3.2-1.2,2.132-4,3.367-6.079,5.006Zm58.065-11.211c3.834-.364,7.136-.555,10.392-1.049,1.187-.18,3.1-.141,3.128-1.96.033-1.8-1.471-2.863-2.985-3.449a5.846,5.846,0,0,0-5.652.859A14.388,14.388,0,0,0,1168.141,1773.243Zm29.664-2.194c-.611-1.938-.718-4.6-3.543-4.789a2.775,2.775,0,0,0-2.69,2.984c.452,2.28,2.9,2.7,4.855,3.311C1197.44,1772.871,1198.113,1772.4,1197.805,1771.049Z"/>
      <path id="Path_997" data-name="Path 997" d="M1022.761,1784.454c-3.765-2.753-7.622-5.5-11.935-7.184-6.691-2.607-8.043-12.365-4.784-18.271,3-5.446,10.883-7.436,16.6-4.026,4.645,2.771,5.678,7.313,5.265,12.237-.37,4.409-2.073,8.141-6.613,9.883-.687.264-1.35.589-2.24.981,3.415,1.883,6.453,4.162,10.508,2.868a1,1,0,0,1,1.418.685c.484,1.2-.121,1.989-.753,2.827Zm1.537-18.557c-.018-5.665-3.248-9.2-8.345-9.137-5.274.067-8.053,3.106-8.1,8.857-.043,5.587,3.262,9.313,8.26,9.312C1021.7,1774.929,1024.318,1772.033,1024.3,1765.9Z"/>
      <path id="Path_998" data-name="Path 998" d="M1277.243,1784.454c-.921-1.983-.482-3.139,1.775-3.875a9.843,9.843,0,0,0,4.922-3.808c-.806-.81-1.708-.372-2.477-.524-2.321-.458-4.957-.745-5.6-3.474a7.127,7.127,0,0,1,3.122-7.754c2.4-1.688,4.685-1.115,6.614.977a10.361,10.361,0,0,1,.152,13.549c-1.751,2.119-4.344,3.072-6.274,4.909Zm5.2-11.735c1.114.013,2.412.746,2.271-1.012-.154-1.912-.873-3.862-2.891-4.144-1.784-.25-2.918,1.527-2.955,3.08C1278.806,1773.308,1281.306,1772.2,1282.444,1772.719Z"/>
      <path id="Path_999" data-name="Path 999" d="M1247.288,1776.277c-6.46,0-12.928-.192-19.377.068-4.213.171-8.048-1.971-12.424-1.231-2.408.407-4.668-1.782-5.248-4.452-.618-2.844,1.541-4.24,3.681-5.344a23.881,23.881,0,0,1,4.171-1.528c.913-.271,1.976-.07,1.908-1.613-.064-1.422,1.106-1.382,2.132-1.357,1.529.038,1.3,1.168,1.335,2.133.009.247,0,.495,0,.743-.005,11.042-.388,9.256,9.4,9.331,11.056.084,22.116-.114,33.169.1,3.187.063,3.974-.867,3.809-3.9-.256-4.694-.043-9.413-.021-14.122.006-1.213-.28-2.594,1.733-2.493,1.794.091,1.445,1.382,1.436,2.424-.052,6.191-.209,12.382-.187,18.572.008,2.07-.673,2.747-2.784,2.715C1262.446,1776.207,1254.867,1776.277,1247.288,1776.277Zm-30.438-4.331c2.371-.031,3.66-.592,3.489-2.792-.089-1.156.01-2.377-1.726-2-1.889.409-4.471.532-4.8,2.639C1213.532,1771.561,1215.754,1771.879,1216.85,1771.946Z"/>
      <path id="Path_1000" data-name="Path 1000" d="M888.867,1772.7a16.01,16.01,0,0,0,10.043,2.132,3.383,3.383,0,0,0,3.386-3.271c.194-1.976-1.185-2.919-2.821-3.386-2.256-.644-4.6-.988-6.84-1.682-2.349-.728-4.268-2-4.445-4.838-.182-2.936.524-5.432,3.293-6.92,3.927-2.111,7.873-1.684,11.805.038,1.458.639,1.562,1.552.95,2.97-.733,1.7-1.567.571-2.285.223a14.2,14.2,0,0,0-6.509-1.211c-2.246.022-3.581,1.084-3.855,3.175-.285,2.184,1.445,3,3.147,3.5,2.131.629,4.331,1.02,6.482,1.585,2.612.687,4.427,2.117,4.623,5.063.2,2.993-.743,5.42-3.493,6.811-4.416,2.233-8.886,1.789-13.253-.173C886.7,1775.632,888.207,1774.159,888.867,1772.7Z"/>
      <path id="Path_1001" data-name="Path 1001" d="M928.9,1768.99c-1.153-3.577-3.384-3.341-5.627-2.88-1.059.218-2.12,1.059-2.667-.683-.613-1.954,1.01-1.974,2.05-2.27,5.919-1.685,9.205.685,9.311,6.625.139,7.755.139,7.765-7.383,8.254-2.91.19-5.206-.548-5.517-3.962-.3-3.344,1.726-4.692,4.626-5.049A45.745,45.745,0,0,1,928.9,1768.99Zm-2.748,2.78c-1.219.394-3.182-.843-3.5,1.479-.217,1.573,1.027,1.734,2.184,1.671,1.568-.086,3.519-.049,3.752-2.04C928.806,1771.032,927,1772.187,926.155,1771.77Z"/>
      <path id="Path_1002" data-name="Path 1002" d="M945.874,1770.753c.022-4.883,2.488-7.724,6.855-7.9,4.433-.177,6.888,2.092,7.28,6.555.146,1.668-.144,2.565-2.1,2.438a58.463,58.463,0,0,0-6.32,0c-.721.032-1.921-.608-2.072.748-.107.963.736,1.562,1.523,1.91a7.189,7.189,0,0,0,5.1.1c1.051-.328,1.825-.827,2.3.594a1.634,1.634,0,0,1-1.178,2.3C951.67,1779.505,944.966,1777.488,945.874,1770.753Zm11-1.872c-1.8-3.03-3.571-3.592-6-2.482-.892.408-1.564.9-1.309,1.892s1.228.539,1.88.568C953.016,1768.928,954.6,1768.881,956.871,1768.881Z"/>
      <path id="Path_1003" data-name="Path 1003" d="M1042.75,1772.595c0,1.237.01,2.474,0,3.712-.01.84-.425,1.672-1.28,1.364-2.485-.9-4.751.543-7.143.437-2.721-.121-4.488-1.242-4.694-4.155s1.458-4.328,4.051-4.85c1.077-.217,2.228-.043,3.334-.156.75-.077,1.9.506,2.07-.837.125-1.015-.722-1.6-1.487-1.928a4.96,4.96,0,0,0-3.984.062c-1.333.576-2.114.236-2.523-1.12-.466-1.546.789-1.62,1.672-1.8,5.75-1.177,9.862-.832,10,6.673.015.866,0,1.732,0,2.6Zm-7.068,2.345c1.355-.28,3.327-.064,3.409-2,.091-2.145-1.847-.965-2.821-1.048-1.169-.1-3-.736-3.051,1.516C1033.179,1775.116,1034.578,1774.81,1035.682,1774.94Z"/>
      <path id="Path_1004" data-name="Path 1004" d="M1069.63,1772.346c0,.99-.078,1.987.016,2.968.189,1.968-.7,3.079-2.524,2.254-1.788-.811-3.045.406-4.56.508-3.644.244-5.726-.981-6.059-3.891-.351-3.071,1.584-4.975,5.308-5.212a4.875,4.875,0,0,0,1.11-.022c1.026-.33,2.953.935,2.969-.981.015-1.751-1.752-2.136-3.358-2.1a1.44,1.44,0,0,1-.371,0c-1.393-.334-3.859,2.236-4.053-.89-.152-2.443,2.584-1.981,4.241-2.086C1068.313,1762.522,1069.63,1764.288,1069.63,1772.346Zm-7.139,2.587c1.444-.124,3.217-.14,3.47-1.941.278-1.967-1.547-1.141-2.379-1.1-1.259.061-3.277-.993-3.478,1.443C1059.971,1774.957,1061.351,1774.858,1062.491,1774.933Z"/>
      <path id="Path_1005" data-name="Path 1005" d="M983.92,1770.565c-.082,4.641-3.315,7.907-7.677,7.756-4.341-.15-7.134-3.267-7.053-7.871.084-4.788,3.011-7.694,7.656-7.6C981.315,1762.941,984,1765.873,983.92,1770.565Zm-3.592.882c.009-3.4-1.016-5.523-4.129-5.526-2.575,0-3.573,1.734-3.485,4.2.1,2.751.878,4.834,4.185,4.815C979.687,1774.92,980.524,1773.342,980.328,1771.447Z"/>
      <path id="Path_1006" data-name="Path 1006" d="M993.583,1752.621c.875.641,2.931-.224,2.961,1.79.029,1.951-1.408,1.914-2.893,1.631-2.116-.405-2.784.858-2.322,2.563.445,1.639-1.85,4.554,2.044,4.749,1.086.054,2.625-.6,2.57,1.565-.054,2.129-1.6,1.543-2.662,1.483-1.718-.1-2.1.656-2.035,2.186.1,2.347,0,4.7.033,7.05.019,1.264-.2,2.1-1.791,2.129s-1.824-.779-1.792-2.062c.05-1.978.105-3.964-.02-5.936-.085-1.357.951-3.3-1.858-3.522-.9-.073-.932-2.35-.324-2.468,3.6-.7,2-3.4,2.163-5.261C987.981,1754.817,990.035,1752.56,993.583,1752.621Z"/>
      <path id="Path_1007" data-name="Path 1007" d="M941.619,1778.35c-3.371-.045-4.935-2.038-5.494-5.52-.366-2.282,2.066-5.533-1.994-6.823-.474-.151,2.767-7.55,3.4-7.625,1.442-.172,2.427.126,2.263,1.932-.147,1.619-.342,3.35,2.284,3.059,1.017-.113,2.325-.363,2.316,1.47-.009,1.731-1.172,1.718-2.281,1.573-2.141-.28-2.687.866-2.3,2.581.454,2.024-1.594,5.041,2.005,5.846,1.293.289,2.947-.228,2.738,1.859C944.365,1778.614,942.549,1777.955,941.619,1778.35Z"/>
      <path id="Path_1008" data-name="Path 1008" d="M914.881,1778.342c-3.536.063-5.215-1.915-5.594-5.678-.234-2.325,1.682-5.459-2.077-6.743,1.069-2.511,1.84-5.228,3.363-7.426.568-.82,2.645-.113,2.334,1.933-.33,2.18.384,3.291,2.785,2.935,1.108-.164,1.892.155,1.84,1.582-.052,1.467-.988,1.636-2.006,1.469-2.652-.436-2.981,1.158-2.568,3.039.425,1.937-1.694,5.188,2.368,5.4,1.507.079,2.5.295,2.292,1.948C917.4,1778.532,915.777,1778.005,914.881,1778.342Z"/>
      <path id="Path_1009" data-name="Path 1009" d="M1052.494,1778.348c-3.722.007-5.352-1.923-5.755-5.755-.248-2.352,1.577-5.46-2.125-6.836-.218-.081-.2-1.638-.076-1.67,2.862-.732,2.016-3.069,2.354-4.962.2-1.126,1.408-.677,2.213-.739.971-.075,1.321.495,1.237,1.367-.225,2.333-.066,4.257,3.17,3.618,1.209-.239,1.368.616,1.379,1.6.014,1.147-.55,1.64-1.584,1.448-2.97-.552-3.28,1.148-2.948,3.382.314,2.117-1.33,5.509,3.107,5.048,1.515-.157,1.767,1.012,1.748,1.806C1055.165,1778.743,1053.05,1777.578,1052.494,1778.348Z"/>
      <path id="Path_1010" data-name="Path 1010" d="M1296.281,1776.285c-1.242,0-2.483-.008-3.725,0-1.275.01-2.476.119-2.5-1.8-.024-2.321,1.577-1.761,2.824-1.746,1.6.019,3.208.191,4.813.292,2.118.133,2.254-.8,1.483-2.489a10.048,10.048,0,0,0-3.728-4.512c-1.544-.965-1.168-1.882-.435-3.061.96-1.541,1.749-.165,2.394.211,3.468,2.022,5.15,5.319,5.7,9.1.336,2.32-.579,4.154-3.477,4.01C1298.518,1776.239,1297.4,1776.285,1296.281,1776.285Z"/>
      <path id="Path_1011" data-name="Path 1011" d="M1072.518,1770.394c0-.123,0-.246,0-.369,0-6.945.558-7.519,7.336-6.924.992.087,2.8-.084,2.42,1.89-.265,1.371-.771,2.165-2.691,1.662-2.487-.653-3.955.68-3.837,3.446.084,1.966-.023,3.939.029,5.907.031,1.179-.258,1.765-1.627,1.748-1.385-.018-1.652-.681-1.634-1.822C1072.541,1774.086,1072.52,1772.24,1072.518,1770.394Z"/>
      <path id="Path_1012" data-name="Path 1012" d="M1101.213,1770.109c-1.968,1.857-3.7,3.557-5.522,5.154-.349.306-5.052-4.188-5.145-4.878-.11-.817,4.5-5.791,5.032-5.371C1097.475,1766.516,1099.19,1768.246,1101.213,1770.109Z" fill="#891739"/>
      <path id="Path_1013" data-name="Path 1013" d="M1219.039,1757.634c-.885-.458-1.28.363-1.9.669a2.123,2.123,0,0,1-2.942-.691,1.958,1.958,0,0,1,.3-2.68,1.827,1.827,0,0,1,2.9-.067,1.289,1.289,0,0,0,1.6.465Q1219.02,1756.482,1219.039,1757.634Z"/>
      <path id="Path_1014" data-name="Path 1014" d="M1219.039,1757.634q-.019-1.152-.04-2.3c.939-1.647,2.083-1.37,3.182-.245a1.751,1.751,0,0,1,.093,2.61C1221.229,1758.786,1220.087,1759.173,1219.039,1757.634Z"/>
      <path id="Path_1015" data-name="Path 1015" d="M1195.444,1757.634c-.885-.458-1.281.363-1.9.669a2.124,2.124,0,0,1-2.943-.691,1.96,1.96,0,0,1,.3-2.68,1.828,1.828,0,0,1,2.905-.067,1.289,1.289,0,0,0,1.6.465Q1195.423,1756.482,1195.444,1757.634Z"/>
      <path id="Path_1016" data-name="Path 1016" d="M1195.444,1757.634q-.021-1.152-.04-2.3c.938-1.647,2.083-1.37,3.182-.245a1.752,1.752,0,0,1,.092,2.61C1197.633,1758.786,1196.492,1759.173,1195.444,1757.634Z"/>
      <path id="Path_1017" data-name="Path 1017" d="M1216.107,1629.864c-1.691-.091-2.9-.637-3.265-2.087s-.4-2.982,1.05-4.011c1.138-.809,2.561-1.349,3.615-.307,1.661,1.642,2.748,3.136,4.768.165.987-1.452,3.088-.769,4.3.6a3.041,3.041,0,0,1,.331,4.053c-1.114,1.619-3.138,2.34-4.227,1.211-2.163-2.24-3.628-2.281-5.431.125C1217.036,1629.9,1216.331,1629.822,1216.107,1629.864Z"/>
      <path id="Path_1018" data-name="Path 1018" d="M1272.927,1627.408a3.337,3.337,0,0,1-3.553,3.235,3.257,3.257,0,0,1-3.455-3.392,3.293,3.293,0,0,1,3.777-3.566C1271.669,1623.837,1272.891,1625.183,1272.927,1627.408Z"/>
      <path id="Path_1019" data-name="Path 1019" d="M885.163,1620.367a3.4,3.4,0,0,1,3.171,3.7,3.414,3.414,0,1,1-6.812-.412C881.6,1621.439,882.9,1620.4,885.163,1620.367Z"/>
      <path id="Path_1020" data-name="Path 1020" d="M1114.267,1626.235c.131,2.957-.925,4.22-3.071,4.394a3.5,3.5,0,1,1-.362-6.978A3.2,3.2,0,0,1,1114.267,1626.235Z"/>
      <path id="Path_1021" data-name="Path 1021" d="M880.171,1623.8c-.17,2.219-1.189,3.689-3.367,3.569a3.251,3.251,0,0,1-3.287-3.573,3.089,3.089,0,0,1,3.38-3.4C879.251,1620.358,879.878,1622.032,880.171,1623.8Z"/>
    </g>
  </g>
</svg>
