<svg xmlns="http://www.w3.org/2000/svg" width="906.111" height="396.76" viewBox="0 0 906.111 396.76">
  <g id="Group_122" data-name="Group 122" transform="translate(1443.069 -1284.159)">
    <g id="Group_121" data-name="Group 121">
      <path id="Path_819" data-name="Path 819" d="M-1440.5,1288.413v170.161h21.286V1286.71Z" fill="#8f1232"/>
      <path id="Path_820" data-name="Path 820" d="M-1373.29,1431.346h166.758v-80.83h30.816v110.7h-197.592Q-1373.3,1446.279-1373.29,1431.346Z" fill="#8f1232"/>
      <path id="Path_821" data-name="Path 821" d="M-1119.754,1284.159l-25.523,15.315v157.4h590.45l11.059-9.362L-643.31,1383.7l73.169-42.54q3.829-15.74,7.657-31.479l-113.156,62.108v26.374l62.108,33.181h-211v-32.431l-27.226,7.758v22.972h-268.863Q-1120.185,1356.9-1119.754,1284.159Z" fill="#8f1232"/>
      <path id="Path_822" data-name="Path 822" d="M-889.188,1302.026q.424,15.74.851,31.479h45.163v-32.379Z" fill="#8f1232"/>
      <path id="Path_823" data-name="Path 823" d="M-837.289,1302.026q.425,15.74.851,31.479h45.163v-32.379Z" fill="#8f1232"/>
      <path id="Path_824" data-name="Path 824" d="M-1189.283,1674.655a1.544,1.544,0,0,0,.532-.134,37.815,37.815,0,0,0,7.732-3.4Zm12-63.914a3.163,3.163,0,0,0-1.6-.4,5.969,5.969,0,0,1,2.132,1.132C-1176.955,1611.141-1177.153,1610.942-1177.286,1610.741ZM-1248.864,1642a34.516,34.516,0,0,0,4.665,13.929A51.16,51.16,0,0,1-1248.864,1642Zm6.6,17.195q-.7-1.1-1.6-2.6c.532,1,1.066,1.932,1.6,2.732a18.236,18.236,0,0,0,1.4,2C-1241.333,1660.659-1241.8,1659.926-1242.266,1659.193Zm17.194,15.328a23.007,23.007,0,0,1-5.4-2.4,30.2,30.2,0,0,0,3.53,2.533h2.267C-1224.805,1674.588-1224.939,1674.588-1225.072,1674.521Zm35.522-124.893h-4.131a38.572,38.572,0,0,1,7.664,1.066C-1187.283,1550.227-1188.549,1549.894-1189.55,1549.628Zm-31.456,77.908a7.687,7.687,0,0,0-.866,1.2,4.358,4.358,0,0,0-.467.733,42.457,42.457,0,0,1,2.6-3.466A14.189,14.189,0,0,0-1221.006,1627.536Zm3.065-3.465a1.182,1.182,0,0,0-.267.333q.8-.8,1.6-1.6A11.928,11.928,0,0,0-1217.941,1624.071Zm40.655-13.33a3.163,3.163,0,0,0-1.6-.4,5.969,5.969,0,0,1,2.132,1.132C-1176.955,1611.141-1177.153,1610.942-1177.286,1610.741Zm.732.867c-.067,0-.067,0-.067-.067-.067,0-.067-.067-.133-.067.266.467.667,1,1.067,1.667A10.464,10.464,0,0,0-1176.554,1611.608Z" fill="#8f1232"/>
      <path id="Path_825" data-name="Path 825" d="M-831.331,1661.659v-40.121c0-16.394,1.867-34.922-8.13-49.118a46.47,46.47,0,0,0-23.326-17.061c-6.531-2.133-12.862-1.932-19.46-1.8h4.932a46.985,46.985,0,0,1,13.529,1.6,59.551,59.551,0,0,1,17.86,10.264,16.839,16.839,0,0,1,1.6,1.466,42.035,42.035,0,0,1,4.731,5.6c5.933,8.331,7.664,18.261,8.131,28.391v60.847l13.6,3.4v12.729h.133v-12.8Zm-19.526,4.865a16.15,16.15,0,0,1-1.2,1.733,37.081,37.081,0,0,1-4,3.932,22.917,22.917,0,0,0,4.131-3.932c.4-.467.734-1.133,1.134-1.667Zm-2.267-63.513h.4v-.067A.84.84,0,0,1-853.124,1603.011Zm-22.393-1.067a46.459,46.459,0,0,0-6.065.134,58.835,58.835,0,0,1,5.933-.067h.665A1.867,1.867,0,0,0-875.517,1601.944Zm-12.929,61.647a20.708,20.708,0,0,1-4.665-2.4,17.939,17.939,0,0,0,3,1.8,15.444,15.444,0,0,0,1.532.666,24.253,24.253,0,0,0,12.664.933A24.5,24.5,0,0,1-888.446,1663.591Zm-6.531-3.732v.067c.133.067.2.133.333.2A1.165,1.165,0,0,1-894.977,1659.859Zm-3-2.6a7.979,7.979,0,0,0,.734.8,4.948,4.948,0,0,0,1.132.933,13.08,13.08,0,0,1,1.133.866A36.728,36.728,0,0,1-897.976,1657.26Zm-6.531-15.995c.665-5.265,3.732-9.463,7.33-13.2-.065,0-.065,0-.132.067a21.493,21.493,0,0,0-3.067,3.466,7.948,7.948,0,0,0-.866,1.2,13.433,13.433,0,0,0-1.466,2.466,16.79,16.79,0,0,0-1.933,5.931,15.417,15.417,0,0,0,.667,6.732,21.248,21.248,0,0,0,1.066,2.6,15.491,15.491,0,0,0,2.333,3.665C-903.375,1650.329-905.108,1645.73-904.507,1641.265Zm6.531,15.995a37.22,37.22,0,0,1-2.6-3.066,4.353,4.353,0,0,0,.8,1.133v.067A15.93,15.93,0,0,0-897.976,1657.26Zm-23.66,6c2.734,4.732,6.131,9.13,10.664,12.13a2.016,2.016,0,0,0,.534.266A47.1,47.1,0,0,1-921.636,1663.258Zm-2-38.121a55.844,55.844,0,0,1,7.931-8.664c1.8-1.6,3.931-3.4,6.464-5.265A43.012,43.012,0,0,0-923.634,1625.137Z" fill="#8f1232"/>
      <path id="Path_826" data-name="Path 826" d="M-831.464,1661.725v-60.847c-.467-10.13-2.2-20.06-8.131-28.391a42.035,42.035,0,0,0-4.731-5.6,16.839,16.839,0,0,0-1.6-1.466,59.551,59.551,0,0,0-17.86-10.264,46.985,46.985,0,0,0-13.529-1.6h-4.932c-1.666,0-3.4.066-5.132.066h-161.748v-38.587c-7.4,4.6-14.729,9.13-22.127,13.729v21.659h-18.328v22.593h17.928v62.447c0,6.665-.733,13.329,2.133,19.527,2.6,5.732,5.665,11.663,10.4,15.862,4.464,4.065,11,4.665,16.794,4.6,2.6,0,34.055-1.466,34.055-.8,0-.8-.066-1.667-.066-2.466-.134-3.866-.266-7.665-.4-11.53-10.464,0-21.4.866-31.79.067a6.26,6.26,0,0,1-1.933-.4c-7.332-2.4-7.532-12.863-7.532-18.861v-68.312h180.41c7.53,0,12.729,8.131,15.262,16.462.067.266.2.467.267.733a27.363,27.363,0,0,1,1,4.2,13.457,13.457,0,0,1,.333,2.2,3.23,3.23,0,0,1,.067.8,13.875,13.875,0,0,1,.067,1.6,4.765,4.765,0,0,1,.066.933,19.873,19.873,0,0,1-.066,2.866h-.134v.067h-.4c-1,0-3.666-.067-6.931-.2q-1.2-.1-2.6-.2c-.867,0-1.8-.067-2.665-.067-1.067-.066-2.066-.133-3.067-.2-.732,0-1.466-.067-2.065-.067-.333,0-.667-.066-1-.066-1.533-.067-2.732-.133-3.533-.2h-.665a58.835,58.835,0,0,0-5.933.067c-1.2.133-2.465.266-3.731.4a67.186,67.186,0,0,0-15.2,4.2,59.6,59.6,0,0,0-7.463,3.666,10.583,10.583,0,0,0-1.132.733l-.134.133c-2.533,1.866-4.665,3.665-6.464,5.265a55.844,55.844,0,0,0-7.931,8.664,14.792,14.792,0,0,0-1,1.533,32.023,32.023,0,0,0-2.932,7.131q-.2.8-.4,1.6c-.066.467-.2,1-.266,1.533a13.392,13.392,0,0,0-.2,2.2,3.348,3.348,0,0,0-.066,1.133,3.2,3.2,0,0,0,0,.8,37.035,37.035,0,0,0,.667,6.665c.067.133.067.2.133.333.134.4.2.866.334,1.266a10.6,10.6,0,0,0,.332,1.4c.267.933.6,1.932.867,2.865a65.668,65.668,0,0,0,3.065,7,14.987,14.987,0,0,1,.734,1.467c.267.4.466.8.732,1.2a47.1,47.1,0,0,0,11.2,12.4,18.358,18.358,0,0,0,1.931,1.133,30.546,30.546,0,0,0,3,1.4c.334.133.734.266,1.067.4.134.067.2.067.334.134.467.133,1,.266,1.466.4,1,.266,2.066.533,3.065.733a46.662,46.662,0,0,0,6.131.8c2.133.134,4.2.2,6.265.2h1.267a10.27,10.27,0,0,0,1.466-.067,18.6,18.6,0,0,0,2.732-.067,38.669,38.669,0,0,0,4.8-.333c1.4-.2,2.8-.4,4.2-.667a30.514,30.514,0,0,0,4.264-1.066c.134,0,.2-.067.334-.067.667-.2,1.332-.466,2-.666,1-.4,2-.8,2.932-1.2.934-.467,1.866-1,2.8-1.534.734-.466,1.468-.866,2.2-1.4s1.466-1.066,2.133-1.6a37.081,37.081,0,0,0,4-3.932,16.15,16.15,0,0,0,1.2-1.733l.066.066c0-.066.067-.066.067-.133,1,1.333,5.6,12.2,6.665,12.2,8.731-.266,17.527-.533,26.191-.8v-12.729Zm-18.795-19.927v.067c-.2.533-.465,1.066-.665,1.6-.467.866-.934,1.732-1.4,2.532a52.185,52.185,0,0,1-4.665,6.131q-1.8,2.2-3.6,4.2a28.853,28.853,0,0,1-7.532,5.732,29.129,29.129,0,0,1-7.8,2.532,24.253,24.253,0,0,1-12.664-.933,15.444,15.444,0,0,1-1.532-.666,17.449,17.449,0,0,1-4.865-3.066,7.69,7.69,0,0,1-1.133-.933,4.948,4.948,0,0,1-1.132-.933,7.979,7.979,0,0,1-.734-.8,15.93,15.93,0,0,1-1.8-1.866v-.067a4.353,4.353,0,0,1-.8-1.133,15.491,15.491,0,0,1-2.333-3.665,21.248,21.248,0,0,1-1.066-2.6,15.417,15.417,0,0,1-.667-6.732,16.79,16.79,0,0,1,1.933-5.931,13.433,13.433,0,0,1,1.466-2.466,7.948,7.948,0,0,1,.866-1.2,21.493,21.493,0,0,1,3.067-3.466c.067-.067.067-.067.132-.067a45.118,45.118,0,0,1,4.6-4.2,8.085,8.085,0,0,1,.8-.734c.467-.4.868-.8,1.335-1.2a31.092,31.092,0,0,1,4.865-3.532l.065-.067a33.614,33.614,0,0,1,10.6-4.065h.133a18.189,18.189,0,0,1,1.867-.334c3.2-.4,8.53-1,12.728-.133a14.066,14.066,0,0,1,1.8.533,7.548,7.548,0,0,1,2.4,1.266c0,.067,0,.067.067.067a48.4,48.4,0,0,1,5.2,10.33,24.112,24.112,0,0,1,1.066,3.732,10.459,10.459,0,0,1,.267,1.4,7.131,7.131,0,0,1,.2,1.666c.066.733.133,1.467.133,2.2A18.738,18.738,0,0,1-850.259,1641.8Z" fill="#8f1232"/>
      <path id="Path_827" data-name="Path 827" d="M-647.189,1633.934a22.543,22.543,0,0,0-.4,7.331A29.349,29.349,0,0,1-647.189,1633.934Zm3.066-8.6a49.823,49.823,0,0,1,9.33-10.8c1.8-1.6,4-3.465,6.6-5.4C-634.927,1613.274-640.657,1618.739-644.123,1625.337Zm3.4,35.989q-.7-1.1-1.6-2.6c3,5.732,6.8,11.263,12.129,14.8a7.854,7.854,0,0,0,1.266.734A48.268,48.268,0,0,1-640.724,1661.326Zm51.915-90.172h-91.9l91.9.134a.608.608,0,0,1,.334.066C-588.609,1571.288-588.675,1571.221-588.809,1571.154Zm6.8-17.661c-.267-.066-.6-.2-.865-.267a59.567,59.567,0,0,1,17.86,10.264A45.34,45.34,0,0,0-582.011,1553.493Zm7.932,32.523a40.5,40.5,0,0,1,2.4,12.929A29.341,29.341,0,0,0-574.079,1586.016Zm23.526,12.929v20.727C-550.553,1613.008-550.221,1605.943-550.553,1598.945Z" fill="#8f1232"/>
      <path id="Path_828" data-name="Path 828" d="M-647.322,1644.131a35.859,35.859,0,0,0,4.665,13.929A51.172,51.172,0,0,1-647.322,1644.131Zm1.466-15.129c-.267.733-.467,1.4-.667,2.066a20.735,20.735,0,0,1,1-2.865A4.052,4.052,0,0,0-645.856,1629Zm16.927,45.253c1.267.932,2.466,1.732,3.534,2.4h1.864A23.073,23.073,0,0,1-628.929,1674.255ZM-622,1648.6a21.964,21.964,0,0,0,3.134,4.8A31.14,31.14,0,0,1-622,1648.6Zm12.463-28.591c-.467.4-.865.8-1.332,1.2,2.065-1.666,4.2-3.266,6.2-4.732A31.25,31.25,0,0,0-609.535,1620.005Zm21.527-68.378h-8.4a46.984,46.984,0,0,1,13.53,1.6A53.564,53.564,0,0,0-588.008,1551.627Zm11.93,98.435c-3.2,3.866-6.2,7.4-11.13,9.931-1.666.8-10.464,5.2-20.46,1.6a27.741,27.741,0,0,1-8.665-5.465,24.4,24.4,0,0,0,8.665,5.6c10,3.6,18.794-.8,20.46-1.6,4.93-2.533,7.931-6.065,11.13-9.931a52.178,52.178,0,0,0,4.664-6.131A59.608,59.608,0,0,1-576.078,1650.062Zm25.525,9.6v.133l13.595,3.4v-.133Z" fill="#8f1232"/>
      <path id="Path_829" data-name="Path 829" d="M-550.553,1659.792v-60.847c-.467-10.13-2.2-20.06-8.132-28.39a41.984,41.984,0,0,0-4.732-5.6,16.358,16.358,0,0,0-1.6-1.466,59.567,59.567,0,0,0-17.86-10.264,46.984,46.984,0,0,0-13.53-1.6H-715.235a31.475,31.475,0,0,0-11.863,6,31.488,31.488,0,0,0-8.529,10.73c-.2-5.532-.467-11.13-.734-16.728-.067-1-.067-2-.133-3h-25.925v126.027h29.39v-89.172a29.838,29.838,0,0,1,8.064-9,29.365,29.365,0,0,1,12.4-5.332h123.759c.134.067.2.134.334.2a28.958,28.958,0,0,1,12.4,10.863,31.822,31.822,0,0,1,1.932,3.6c0,.067.067.134.067.2a29.341,29.341,0,0,1,2.4,12.929c0,.533-.067,1-.067,1.4,0,.266-.067.4-.067.6v.133c0,.2-20.993-.933-22.926-1-10.263-.466-22.26,2.533-32.322,8.331a11.074,11.074,0,0,0-1.134.733c-2.6,1.933-4.8,3.8-6.6,5.4a49.823,49.823,0,0,0-9.33,10.8,1.51,1.51,0,0,1-.2.333,24.783,24.783,0,0,0-1.134,2.333.248.248,0,0,0-.065.2,20.735,20.735,0,0,0-1,2.865c-.067.333-.2.6-.267.867-.133.666-.334,1.333-.4,2a29.349,29.349,0,0,0-.4,7.331v.6c0,.267.067.533.067.8.067.467.133,1,.2,1.467a51.172,51.172,0,0,0,4.665,13.929,6.239,6.239,0,0,0,.333.666q.9,1.5,1.6,2.6a48.268,48.268,0,0,0,11.795,12.929,23.073,23.073,0,0,0,5.4,2.4c5.4,1.866,11.4,2.266,17.129,2.332a67.112,67.112,0,0,0,19.194-2.332,37.978,37.978,0,0,0,7.731-3.4,32.312,32.312,0,0,0,8.33-6.931,15.89,15.89,0,0,0,1.2-1.733c1,1.266,5.6,12.2,6.665,12.2,8.8-.267,17.6-.533,26.325-.8v-12.8Zm-18.794-19.926v.066c-.2.533-.467,1.066-.667,1.6-.467.866-.933,1.732-1.4,2.532a52.178,52.178,0,0,1-4.664,6.131c-3.2,3.866-6.2,7.4-11.13,9.931-1.666.8-10.464,5.2-20.46,1.6a24.4,24.4,0,0,1-8.665-5.6c-.865-.866-1.732-1.733-2.531-2.666v-.066a21.964,21.964,0,0,1-3.134-4.8,21.556,21.556,0,0,1-1.066-2.6,15.426,15.426,0,0,1-.665-6.731,16.765,16.765,0,0,1,1.931-5.932,13.387,13.387,0,0,1,1.466-2.465,7.9,7.9,0,0,1,.867-1.2,21.533,21.533,0,0,1,3.066-3.466,64.733,64.733,0,0,1,5.532-5c.467-.4.865-.8,1.332-1.2a31.25,31.25,0,0,1,4.865-3.532l.067-.067c1.133-.866,2.267-1.666,3.266-2.466,2.066-1.6,4.8-1.732,7.465-1.6a15.672,15.672,0,0,1,1.731-.267c3.666-.466,10-1.132,14.4.2a.234.234,0,0,1,.134.067,8.358,8.358,0,0,1,2.532,1.333c0,.067,0,.067.066.067a48.246,48.246,0,0,1,5.2,10.33,23.834,23.834,0,0,1,1.067,3.732,10.428,10.428,0,0,1,.265,1.4,7.083,7.083,0,0,1,.2,1.667c.066.733.133,1.466.133,2.2A18.8,18.8,0,0,1-569.347,1639.866Z" fill="#8f1232"/>
      <path id="Path_830" data-name="Path 830" d="M-844.059,1678.653c-1.068,0-5.666-10.863-6.665-12.2,0,.067-.067.067-.067.133,1.066,1.466,5.531,12.13,6.6,12.13,8.8-.267,17.594-.533,26.325-.8v-.067C-826.532,1678.12-835.328,1678.387-844.059,1678.653Zm-8.531-77.775c0,.533-.067,1-.067,1.4,0,.267-.067.4-.067.6v.067h.134a19.873,19.873,0,0,0,.066-2.866A3.276,3.276,0,0,0-852.59,1600.878Zm-20.327,13.062a18.189,18.189,0,0,0-1.867.334,15.557,15.557,0,0,1,1.733-.267c3.266-.4,8.664-1,12.862-.2C-864.387,1612.941-869.719,1613.54-872.917,1613.94Zm-111.431-60.314h96.969c1.733,0,3.466-.066,5.132-.066Zm97.168,127.227c-2.065,0-4.132-.067-6.265-.2,2.067.2,4.133.267,6.133.267a9.956,9.956,0,0,0,1.4-.066Zm-23.258-5.2a4.232,4.232,0,0,0,.6.533,11.806,11.806,0,0,0,1.332.6A18.358,18.358,0,0,1-910.438,1675.654Zm-12.664-15.062a65.668,65.668,0,0,1-3.065-7,53.783,53.783,0,0,0,2.6,6.4,6.435,6.435,0,0,0,.334.666c.267.466.6,1,.867,1.4A14.987,14.987,0,0,0-923.1,1660.592Zm-1.933-33.323a1.426,1.426,0,0,1-.2.334,25.668,25.668,0,0,0-1.132,2.332.246.246,0,0,0-.067.2,20.5,20.5,0,0,0-1,2.865c-.067.333-.2.6-.267.867a6.175,6.175,0,0,0-.267,1.532q.2-.8.4-1.6a32.023,32.023,0,0,1,2.932-7.131C-924.768,1626.87-924.9,1627.07-925.035,1627.269Zm-3.465,13.8a11.316,11.316,0,0,0,0,2.133v.6c0,.266.066.533.066.8.067.467.134,1,.2,1.466a14.771,14.771,0,0,0,.4,1.667A37.035,37.035,0,0,1-928.5,1641.065Zm.4-5.2a6.6,6.6,0,0,0-.133,1.066c.066-.533.2-1.066.266-1.533A1.254,1.254,0,0,0-928.1,1635.867Z" fill="#8f1232"/>
      <path id="Path_831" data-name="Path 831" d="M-1247,1625.87c-.069.067-.069.067,0,.133a9.3,9.3,0,0,1,.532-1.2A7.885,7.885,0,0,0-1247,1625.87Zm1.332-2.666a1.389,1.389,0,0,1-.2.333,7.358,7.358,0,0,0-.6,1.267c.467-.867,1.065-1.933,1.866-3.133A9.128,9.128,0,0,0-1245.665,1623.2Zm17.06-16.928a11.156,11.156,0,0,0-1.132.733c-2.6,1.933-4.8,3.8-6.6,5.4a49.855,49.855,0,0,0-6.865,7.33,64.659,64.659,0,0,1,6.865-7.2,92.093,92.093,0,0,1,8.464-6.664C-1228.138,1606.01-1228.338,1606.143-1228.6,1606.276Zm30.658-56.782-107.033.134h111.3C-1195.082,1549.494-1196.548,1549.494-1197.947,1549.494Zm20.661,61.247a3.163,3.163,0,0,0-1.6-.4,5.969,5.969,0,0,1,2.132,1.132C-1176.955,1611.141-1177.153,1610.942-1177.286,1610.741Zm12.328-47.918a16.843,16.843,0,0,0-1.6-1.466,59.54,59.54,0,0,0-17.861-10.263,11.638,11.638,0,0,0-1.466-.333,57.887,57.887,0,0,1,19.327,10.729c.733.6,1.466,1.267,2.133,1.933A4.435,4.435,0,0,0-1164.958,1562.823Z" fill="#8f1232"/>
      <path id="Path_832" data-name="Path 832" d="M-1152.1,1657.66v-60.847c-.465-10.13-2.2-20.061-8.129-28.391a37.993,37.993,0,0,0-4.2-5c-.667-.666-1.4-1.333-2.133-1.933a57.887,57.887,0,0,0-19.327-10.729c-.067-.067-.067-.067-.133-.067a38.572,38.572,0,0,0-7.664-1.066h-188.14q-18.294,22.891-36.59,45.919v-91.038c-7.6.6-15.262,1.133-22.925,1.733q-.9,84.173-1.733,168.413h23.859V1626.2l20.394-22.992q22.094,35.289,44.252,70.644h28.925q-27.192-44.286-54.451-88.505a11.3,11.3,0,0,1,.868-11.93c3-4,7.8-4.2,8.464-4.265h180.409a29.979,29.979,0,0,1,12.729,11.063,27.739,27.739,0,0,1,2.267,4.4,7.982,7.982,0,0,1,.665,1.865,10.713,10.713,0,0,1,.6,1.933,10.083,10.083,0,0,1,.4,1.933,10.438,10.438,0,0,1,.265,1.4c.067.733.133,1.466.133,2.066,0,.2.067.4.067.533a15.124,15.124,0,0,1,0,2.466c0,.533-.067,1-.067,1.4,0,.267-.066.4-.066.6v.133a12.918,12.918,0,0,1-2.132-.066c-1.933-.067-4.933-.2-8.064-.334-.6,0-1.267-.066-1.868-.066-1.266-.067-2.531-.133-3.731-.2-3.532-.134-6.464-.333-7.131-.333s-1.4-.067-2.133-.067a62.738,62.738,0,0,0-29.457,8,92.093,92.093,0,0,0-8.464,6.664,64.659,64.659,0,0,0-6.865,7.2c-.066.067-.133.067-.133.134-.465.667-.866,1.266-1.266,1.8-.8,1.2-1.4,2.266-1.866,3.133a9.3,9.3,0,0,0-.532,1.2l-.069.067a21.1,21.1,0,0,0-1,2.866c-.066.333-.2.6-.267.866-.133.667-.331,1.333-.4,2a29.323,29.323,0,0,0-.4,7.33v.6c0,.267.066.533.066.8.067.466.134,1,.2,1.466a51.16,51.16,0,0,0,4.665,13.929,6.268,6.268,0,0,0,.334.667q.9,1.5,1.6,2.6c.466.733.933,1.466,1.4,2.133s1,1.332,1.466,2c.467.6,1,1.2,1.466,1.8.533.6,1.067,1.133,1.532,1.667.534.532,1,1.066,1.533,1.532.467.467,1,.933,1.466,1.4,1,.866,2,1.666,2.934,2.4a23.007,23.007,0,0,0,5.4,2.4c.133.067.267.067.4.134,5.265,1.732,11.131,2.132,16.728,2.2a68.55,68.55,0,0,0,18.661-2.2l8.264-3.533.4-.2v-.066a30.849,30.849,0,0,0,7.931-6.665,15.752,15.752,0,0,0,1.2-1.733c1,1.267,5.6,12.2,6.664,12.2l26.325-.8v-12.8Zm-18.793-19.927v.067c-.2.533-.467,1.066-.667,1.6a23.825,23.825,0,0,1-1.4,2.532,24,24,0,0,1-1.466,2.133c-.467.666-1,1.333-1.466,1.933-.667.8-1.2,1.466-1.733,2.066-3.2,3.865-6.2,7.4-11.131,9.93-1.666.8-10.462,5.2-20.459,1.6-.534-.2-1-.4-1.533-.6a14.031,14.031,0,0,1-1.4-.733,25.485,25.485,0,0,1-4.266-2.933,13.842,13.842,0,0,1-1.466-1.333,19.659,19.659,0,0,1-2.332-2.4c-.068-.067-.133-.2-.2-.266a22.366,22.366,0,0,1-3.131-4.866c-.2-.466-.467-.932-.667-1.466-.134-.333-.267-.733-.4-1.133a16.386,16.386,0,0,1-.6-2.466,13.692,13.692,0,0,1-.2-2.332c0-.6.068-1.266.134-1.933a9.128,9.128,0,0,1,.4-1.933,7.036,7.036,0,0,1,.667-2,13.072,13.072,0,0,1,.866-2,8.949,8.949,0,0,1,1-1.733,4.358,4.358,0,0,1,.467-.733,7.687,7.687,0,0,1,.866-1.2,14.189,14.189,0,0,1,1.266-1.533,8.692,8.692,0,0,1,1.532-1.6,1.182,1.182,0,0,1,.267-.333,11.928,11.928,0,0,1,1.333-1.267,35.536,35.536,0,0,1,3.4-3c3.532-2.866,7.265-5.465,10.33-7.864,3.332-2.6,8.331-1.4,12.4-1.333,1.4,0,8.4-.666,11.6-.266a3.163,3.163,0,0,1,1.6.4c.133.2.331.4.532.733.066,0,.066.067.133.067,0,.067,0,.067.067.067a10.464,10.464,0,0,1,.867,1.533,23.932,23.932,0,0,1,1.4,2.332,10.587,10.587,0,0,1,.666,1.2,8.062,8.062,0,0,1,.6,1.333,9.815,9.815,0,0,1,.667,1.466,5.67,5.67,0,0,1,.6,1.466l.4,1a23.665,23.665,0,0,1,1.066,3.732,10.448,10.448,0,0,1,.267,1.4,7.136,7.136,0,0,1,.2,1.666c.067.733.133,1.466.133,2.2A18.777,18.777,0,0,1-1170.889,1637.733Z" fill="#8f1232"/>
      <path id="Path_833" data-name="Path 833" d="M-1189.283,1674.655a1.544,1.544,0,0,0,.532-.134,37.815,37.815,0,0,0,7.732-3.4Z" fill="#8f1232"/>
    </g>
  </g>
</svg>
