<svg xmlns="http://www.w3.org/2000/svg" width="493.276" height="354.876" viewBox="0 0 493.276 354.876">
  <g id="Group_120" data-name="Group 120" transform="translate(2053.868 -1313.926)">
    <path id="Path_809" data-name="Path 809" d="M-1769.818,1468.939q-18.989-24.354-37.883-48.66,43.272-53.153,86.542-106.353h-59.483q-32.472,38.329-64.9,76.612v-74.777c-15.294,0-47.154-.141-47.765-.188v211.955h48.236V1453.6q20.612,23.789,41.224,47.53-44.259,52.377-88.566,104.754,30.565.707,61.083,1.365,31.06-36.354,62.165-72.754-.141,36.143-.234,72.33h47.34v-200.1h-47.764Zm-90.354,43.718h-18.918q.213-91.413.423-182.825l18.495-.142Zm108.9-88.236c4.47-.048,8.942-.048,13.412-.095v167.626h-13.742Q-1751.4,1508.162-1751.277,1424.421Zm-89.319,167.531h-19.341q37.906-43.7,75.907-87.436c-.094-2.683-.142-5.412-.236-8.095q-32.329-35.577-64.659-71.2v-9.695l74.118-84c6.635.282,13.224.564,19.812.894l-75.671,88.095,67.342,80.189Q-1801.937,1546.3-1840.6,1591.952Z" fill="#e31f35"/>
    <g id="Group_119" data-name="Group 119">
      <g id="Group_118" data-name="Group 118">
        <path id="Path_810" data-name="Path 810" d="M-2027.494,1668.118h-4.568l-9.987-18.431-7.642,9.533v8.9h-4.177v-33.367h4.177v19.35l15.1-19.35h4.509l-9.04,11.671Z" fill="#787878"/>
        <path id="Path_811" data-name="Path 811" d="M-1976.676,1664.45v3.668h-19.7v-33.367h4.274v29.7Z" fill="#787878"/>
        <path id="Path_812" data-name="Path 812" d="M-1935.462,1668.8a11.64,11.64,0,0,1-10.023-5,20.484,20.484,0,0,1-3.594-12.268q0-7.582,3.764-12.525a11.929,11.929,0,0,1,9.972-4.941,11.913,11.913,0,0,1,9.927,4.856,19.463,19.463,0,0,1,3.741,12.242,21.254,21.254,0,0,1-3.631,12.367A11.642,11.642,0,0,1-1935.462,1668.8Zm.1-3.4a7.662,7.662,0,0,0,6.843-3.987,19.225,19.225,0,0,0,2.473-10.276q0-6.459-2.555-10.055a7.937,7.937,0,0,0-6.784-3.6,7.74,7.74,0,0,0-6.8,3.89q-2.517,3.891-2.519,10.179a17.862,17.862,0,0,0,2.542,9.993A7.794,7.794,0,0,0-1935.366,1665.4Z" fill="#787878"/>
        <path id="Path_813" data-name="Path 813" d="M-1870.342,1634.751h3.47v21.8q0,6.555-3.213,9.407a12.237,12.237,0,0,1-8.423,2.849q-5.791,0-8.58-2.936t-2.785-9.32v-21.8h4.177v21.8q0,3.891.905,5.48a5.409,5.409,0,0,0,2.739,2.349,9.951,9.951,0,0,0,3.838.758,7.9,7.9,0,0,0,5.868-2.029q2-2.034,2-6.558Z" fill="#787878"/>
        <path id="Path_814" data-name="Path 814" d="M-1822.924,1668.118h-4.182v-29.7h-9.555v-3.667h23.319v3.667h-9.582Z" fill="#787878"/>
        <path id="Path_815" data-name="Path 815" d="M-1717.739,1668.118h-4.569l-9.986-18.431-7.642,9.533v8.9h-4.178v-33.367h4.178v19.35l15.1-19.35h4.508l-9.039,11.671Z" fill="#787878"/>
        <path id="Path_816" data-name="Path 816" d="M-1664.154,1668.118h-4.27l-3.355-9.755h-12.38l-2.987,9.755h-3.493l10.841-33.367h4.729Zm-8.512-12.882-5.17-16.036-5.16,16.036Z" fill="#787878"/>
        <path id="Path_817" data-name="Path 817" d="M-1637.44,1659.294l3.764-.857q2.274,6.82,9.848,6.82,3.964,0,5.965-1.68a5.564,5.564,0,0,0,2-4.5,4.275,4.275,0,0,0-1.526-3.433,8.467,8.467,0,0,0-3.529-1.793l-6.678-1.645a17.094,17.094,0,0,1-4.241-1.6,7.738,7.738,0,0,1-2.8-2.9,8.712,8.712,0,0,1-1.149-4.48,8.052,8.052,0,0,1,3.157-6.671,12.684,12.684,0,0,1,8.089-2.484q9.092,0,11.953,8.238l-3.787,1.124a6.7,6.7,0,0,0-3.107-4.435,9.75,9.75,0,0,0-5.207-1.505,8.5,8.5,0,0,0-4.876,1.45,4.667,4.667,0,0,0-2.136,4.1q0,3.71,5.418,5.009l6.241,1.464q8.555,2.055,8.557,9.217a9.262,9.262,0,0,1-3.217,7.2q-3.213,2.871-9.058,2.872Q-1634.115,1668.8-1637.44,1659.294Z" fill="#787878"/>
        <path id="Path_818" data-name="Path 818" d="M-1570.174,1668.118h-4.182v-29.7h-9.554v-3.667h23.318v3.667h-9.582Z" fill="#787878"/>
      </g>
    </g>
  </g>
</svg>
