<svg xmlns="http://www.w3.org/2000/svg" width="1141.914" height="397.369" viewBox="0 0 1141.914 397.369">
  <g id="Group_420" data-name="Group 420" transform="translate(2547.633 -2088.896)">
    <path id="Path_95" data-name="Path 95" d="M-1918.107,2088.907v.3h-7.917v-.31Z"/>
    <path id="Path_96" data-name="Path 96" d="M-1514.811,2089.217v-.31h7.917v.3Z"/>
    <path id="Path_97" data-name="Path 97" d="M-2333.66,2307.219c-26.865,0-53.73-.07-80.6,0-25.309.09-44.378-11.218-58.351-31.745a84.615,84.615,0,0,1-13.31-37c-2.351-17.434-4.9-34.848-7.354-52.268-1.57-11.11-2.75-22.29-4.8-33.315-5.2-28.021-20.5-47.956-47.735-57.985-1.039-.38-2.046-.709-1.787-2.092s1.41-1.081,2.351-1.081c57.359,0,114.685-.207,172.026.094,22.6.117,40.217,10.7,53.485,28.647a82.882,82.882,0,0,1,15.078,38.9c1.956,14.345,4.052,28.68,6.079,43,1.989,14.058,3.653,28.172,6.008,42.173,4.824,28.647,20.217,48.943,47.956,59.132,1.044.385,2,.78,1.8,2.115-.226,1.547-1.443,1.411-2.567,1.411Zm-66.443-152.4c-.145.174-.207.315-.315.371-.554.278-1.119.541-1.683.8a104.238,104.238,0,0,0-24.02,14.763,11.165,11.165,0,0,0-4.058,9.769c.09,1.6.47,1.942,1.956,1.1a163.606,163.606,0,0,1,30.838-13.348c3.808-1.232,3.808-1.251,3.883,2.783a392.24,392.24,0,0,0,3.047,43.941,49.542,49.542,0,0,0,2.783,12.535c.287.7.593,1.57,1.462,1.584s1.19-.86,1.491-1.547a35.245,35.245,0,0,0,2.106-8.227,286.971,286.971,0,0,0,3.155-32.465c.348-6.493.541-13,.8-19.6.639.141,1.25.221,1.833.405a172.959,172.959,0,0,1,32.281,13.681c2.149,1.194,2.276,1.1,2.351-1.41a11.285,11.285,0,0,0-4.518-9.573,103.964,103.964,0,0,0-21.848-13.564c-1.241-.583-2.487-1.156-3.987-1.852,1.1-.611,1.932-1.086,2.778-1.533a144.706,144.706,0,0,1,20.048-8.538c1.881-.658,1.881-.827.367-2.177a9.786,9.786,0,0,0-8.788-2.021,141.671,141.671,0,0,0-15.482,4.01c-1.706.527-3.8,2.205-4.941,1.411-1.053-.729-.771-3.32-1.176-5.064a22.667,22.667,0,0,0-3.347-8.656,3.432,3.432,0,0,0-4.554-1.679,3.433,3.433,0,0,0-1.694,1.712,17,17,0,0,0-1.679,3.089,32.621,32.621,0,0,0-2.308,9.239c-.184,1.5-.471,1.815-1.989,1.232a113.332,113.332,0,0,0-18.806-5.271,9.654,9.654,0,0,0-8.642,1.754c-.545.47-1.58.743-1.373,1.627.165.714,1.143.677,1.777.9A136.57,136.57,0,0,1-2400.1,2154.818Zm-54.825,115.729.137.508c.319.028.644.085.963.085,10.894,0,21.792.023,32.686,0a16.934,16.934,0,0,0,7.96-2.107q31.918-16.953,63.842-33.893c.4-.212.94-.287.94-1.2a34.781,34.781,0,0,0-12.666.837q-40.734,15.552-81.492,31.03Q-2448.764,2268.2-2454.928,2270.547Zm137.286.292c-.136-.644-.71-.644-1.119-.8q-23.878-9.1-47.763-18.167a2.091,2.091,0,0,0-1.8-.173c-3.827,2.012-7.64,4.043-11.792,6.248,7.866,4.133,15.309,8.1,22.812,11.961a14.447,14.447,0,0,0,6.7,1.246h31.031c.653,0,1.382.291,1.946-.3Zm-76.584-29.526c-4.758-1.853-9.055-3.216-13.065-5.172a31.626,31.626,0,0,0-16.338-2.8c-.47.028-1.129-.24-1.289.286-.221.72.588.79,1.03,1.03q9.234,4.937,18.482,9.873a2.286,2.286,0,0,0,2.139.259C-2400.455,2243.649-2397.611,2242.6-2394.226,2241.313Z" fill="#2f7acb"/>
    <path id="Path_98" data-name="Path 98" d="M-2091.571,2197.066c10.207,0,20.409-.047,30.616,0a21.1,21.1,0,0,1,17.053,7.151,17.956,17.956,0,0,1,4.194,11.712c.065,17.48.094,34.961-.029,52.437a23.734,23.734,0,0,1-9.7,19.154,90.485,90.485,0,0,1-26.705,13.634,148.056,148.056,0,0,1-55.206,8.228,102.389,102.389,0,0,1-59.24-19.7,90.915,90.915,0,0,1-32.854-49.945,152.293,152.293,0,0,1-4.768-49.019,132.842,132.842,0,0,1,8.67-43.174,86.88,86.88,0,0,1,68.831-56.16,110.787,110.787,0,0,1,60.42,4.7c26.8,10.193,42.784,30.128,50.133,57.416.47,1.735.733,3.526,1.185,5.265.334,1.289-.1,1.825-1.411,2.121-9.52,2.186-19.022,4.438-28.533,6.662-4.923,1.152-9.874,2.177-14.754,3.489-1.8.47-2.045-.2-2.351-1.618a52.343,52.343,0,0,0-11.608-24.5,39.5,39.5,0,0,0-28.835-13.724,43.454,43.454,0,0,0-34.189,11.576,53,53,0,0,0-13.992,25.336,129.666,129.666,0,0,0-3.165,45.605,81.259,81.259,0,0,0,7.763,29.555,46.719,46.719,0,0,0,42.314,27.146,81.3,81.3,0,0,0,37.274-6.92,6.269,6.269,0,0,0,4.622-7c-.447-7.118-.174-14.283-.09-21.425,0-1.556-.385-1.979-1.956-1.97-12.007.066-24.02,0-36.028.08-1.744,0-2.172-.433-2.158-2.163q.132-16.023,0-32.046c0-1.57.4-1.941,1.947-1.932C-2113.232,2197.1-2102.4,2197.066-2091.571,2197.066Z" fill="#243171"/>
    <path id="Path_99" data-name="Path 99" d="M-1762.918,2200.01a108.728,108.728,0,0,0,6.084,38.341,46.276,46.276,0,0,0,19.577,24.537c14.378,8.491,38.022,8.463,51.643-4.137a50.713,50.713,0,0,0,14.574-26.329,10.307,10.307,0,0,1,.235-1.011c.47-1.41-.122-3.568,1.152-4.128,1.152-.5,2.925.358,4.406.682,13.338,2.882,26.662,5.825,40.02,8.623,1.772.371,2.045,1.011,1.683,2.581-7.993,34.665-27.979,58.3-63.138,67.312a109.608,109.608,0,0,1-63.941-2.492,85.9,85.9,0,0,1-53.716-52.352,136.725,136.725,0,0,1-8.763-47.335,153.645,153.645,0,0,1,5.853-48.9,87.829,87.829,0,0,1,41.205-53.419,98.144,98.144,0,0,1,39.9-11.985,115.124,115.124,0,0,1,43.668,3.691c29.183,8.646,47.35,28.332,56.391,56.95a74.951,74.951,0,0,1,2.708,11.937c.16,1.1-.141,1.449-1.171,1.665q-21.979,4.551-43.936,9.2c-1.246.263-1.6.037-1.843-1.251a61.559,61.559,0,0,0-8.853-22.676,39.331,39.331,0,0,0-31.411-18.862,43.489,43.489,0,0,0-33.292,10.15,51,51,0,0,0-14.607,24.251A120.311,120.311,0,0,0-1762.918,2200.01Z" fill="#243171"/>
    <path id="Path_100" data-name="Path 100" d="M-1514.811,2089.217h7.918a49.4,49.4,0,0,1,13.394,2.764,33.178,33.178,0,0,1,20.715,21.327c9.164,27.65,18.116,55.37,27.147,83.067q11.754,36.014,23.508,72.033,5.981,18.336,11.956,36.705c.146.47.47.87.217,1.519h-3.889c-15.134,0-30.273-.029-45.407.037-1.641,0-2.351-.367-2.845-2.054q-22.939-79.058-46-158.081a76.832,76.832,0,0,0-3.15-9.295l-38.276,129.086,33.523-19.244a20.469,20.469,0,0,0,2.35-1.358,31.381,31.381,0,0,1,22.154-5.233c.564.033,1.251-.047,1.472.526.258.677-.381,1.124-.819,1.557q-12.34,12.223-24.692,24.476-9.851,9.727-19.747,19.417c-5.44,5.356-10.814,10.776-16.338,16.042a14.986,14.986,0,0,1-10.766,4.194c-15.831-.061-31.661-.061-47.486-.085-.47,0-.94-.042-1.6-.07,2.153-6.535,4.264-12.962,6.394-19.389q27.965-84.432,55.925-168.867a73.294,73.294,0,0,1,4.142-10.621,32.5,32.5,0,0,1,25.9-17.927C-1517.7,2089.546-1516.254,2089.386-1514.811,2089.217Z" fill="#243171"/>
    <path id="Path_101" data-name="Path 101" d="M-1926,2089.217h7.917a41.919,41.919,0,0,1,21.815,7.226,35.113,35.113,0,0,1,12.8,18.233q11.941,36.709,23.936,73.406,19.078,58.511,38.144,117.022c.145.47.5.865.221,1.452-.353,0-.762.071-1.171.071-16.249,0-32.493-.042-48.741.056-2.186,0-2.022-1.49-2.351-2.661q-15.662-53.6-31.251-107.233-8.408-28.9-16.785-57.829c-.165-.574-.386-1.129-.8-2.351l-38.426,129.57c.9-.47,1.528-.78,2.129-1.123,12.262-7.053,24.561-14,36.762-21.157a23.773,23.773,0,0,1,13.061-3.451c1.942.061,3.888,0,5.83,0,.621,0,1.41-.137,1.674.531s-.386,1.114-.818,1.547q-7.679,7.635-15.36,15.261-14.518,14.331-29.066,28.628c-5.336,5.256-10.644,10.55-16.032,15.76a15.092,15.092,0,0,1-10.865,4.466q-23.955-.062-47.905-.08c-.4,0-.813-.037-1.41-.075l6.286-18.99q28.548-86.208,57.091-172.411a35.643,35.643,0,0,1,15.647-21A41.48,41.48,0,0,1-1926,2089.217Z" fill="#243171"/>
    <path id="Path_102" data-name="Path 102" d="M-1456.267,2397.33c5.835,0,11.373.089,16.926-.038,2.576-.061,4.043-1.989,4.048-4.842v-31.426c0-2.924-.4-2.59,2.7-2.609,3.545,0,3.545,0,3.545,3.46v30.382a10.494,10.494,0,0,1-9.576,11.338,10.512,10.512,0,0,1-1.675.007h-13.451c-.042.319-.122.47-.071.573,4.2,6.62-.634,13.513-8.82,14.382a13.4,13.4,0,0,1-15.592-10.768,13.371,13.371,0,0,1-.219-2.344c-.141-1.552-.555-1.909-2.05-1.881-4.927.08-9.873,0-14.786-.051-.7,0-1.674.517-2.027-.8-.211-.785-.785-.08-1.175,0a15.787,15.787,0,0,1-14.486-1.594c-.611-.47-.94-.258-1.41.127a11.659,11.659,0,0,1-7.786,2.351q-24.89-.047-49.78,0a10.784,10.784,0,0,1-10.287-5.4c-.7-1.223-1.613-.814-2.511-.715a35.6,35.6,0,0,1-12.407-.569,12.455,12.455,0,0,1-4.7-2.1,7.054,7.054,0,0,1-1.358-9.23,18.674,18.674,0,0,1,7.456-7.052,48.092,48.092,0,0,1,10.654-4.6c1.006-.311,1.82-.654,1.566-1.956-.282-1.41.536-1.533,1.678-1.542,4.565-.038,4.565-.071,4.565,4.5v17.481a4.321,4.321,0,0,0,3.651,4.9,4.324,4.324,0,0,0,1.187.008q25.389.033,50.82,0c3.291,0,4.8-1.561,4.8-4.861,0-4.232.056-8.463-.029-12.7-.023-1.316.409-1.6,1.655-1.612,4.631-.038,4.631-.085,4.631,4.626,0,3.122-.028,6.244,0,9.366.043,3.606,1.637,5.172,5.257,5.172.766,0,1.528.023,2.294,0a4.232,4.232,0,0,0,4.515-3.927,4.189,4.189,0,0,0-.006-.672c.037-4.3.051-8.6,0-12.9,0-1.231.254-1.669,1.593-1.678,4.7-.038,4.773-.094,4.664,4.575a71.952,71.952,0,0,1-.437,13.479c-.188.889.169,1.072.94,1.072,4.166,0,8.331,0,12.5.085,1.35.028,1.35-.819,1.542-1.712a40.16,40.16,0,0,1,5.041-12.9,16.843,16.843,0,0,1,4.231-4.815,6.49,6.49,0,0,1,8.91.438,18.843,18.843,0,0,1,5.082,14.664A10.753,10.753,0,0,1-1456.267,2397.33Zm-127.276-11.533c0-1.453-.061-2.91,0-4.359.07-1.25-.419-1.41-1.444-.978-2.082.941-4.231,1.731-6.239,2.774a16.128,16.128,0,0,0-6.154,4.8c-.969,1.382-.729,2.219.94,2.684a30.538,30.538,0,0,0,8.858.739c4.015-.076,4.015-.09,4.015-4Zm120.144,15.985a53.186,53.186,0,0,1-8.04,1.439c-.714.033-.968.381-.94,1.058a8.208,8.208,0,0,0,4,7.292,8.8,8.8,0,0,0,8.688-.625,2.162,2.162,0,0,0,.747-2.966,1.991,1.991,0,0,0-.2-.283,10,10,0,0,0-3.5-3.2c-1.072-.626-1.6-1.289-.757-2.708Zm2.731-11.721a20.563,20.563,0,0,0-2.308-6.084c-.823-1.476-1.65-1.382-2.661-.207a30.941,30.941,0,0,0-5.783,12.224c-.226.79.183.983.879.861a23.341,23.341,0,0,0,7.339-2.055,4.232,4.232,0,0,0,2.53-4.729Z" fill="#6c6c6c"/>
    <path id="Path_103" data-name="Path 103" d="M-1897.731,2388.091a61.508,61.508,0,0,1,9.935-7.588,22.966,22.966,0,0,1,10.089-3.583,11.961,11.961,0,0,1,12.464,7.814,27.9,27.9,0,0,1,2.229,10.5c0,1.561.47,2.351,2.261,2.168,1.923-.193,3.884-.024,5.826-.047,3.4-.043,4.922-1.561,4.927-4.993,0-10.541.061-21.087-.047-31.628,0-1.984.6-2.426,2.454-2.351,3.9.132,3.9.038,3.9,3.987v29.545c0,4.095,1.383,5.444,5.534,5.454h1.664a4.2,4.2,0,0,0,4.709-3.618,4.223,4.223,0,0,0-.007-1.14c0-10.612.056-21.223-.042-31.834,0-1.928.512-2.464,2.412-2.4,3.888.136,3.892.033,3.892,3.973v30.583a10.254,10.254,0,0,1-9.826,10.665c-.172.007-.345.009-.517.008a13.681,13.681,0,0,1-10.419-2.525c-.625-.564-.992-.023-1.41.3a11.561,11.561,0,0,1-7.4,2.243q-38-.028-76.006-.038c-.7,0-1.838.649-2.04-.94-.094-.757-.767-.16-1.129,0a12.522,12.522,0,0,1-5.693.963,83.263,83.263,0,0,1-14.932-.559c-1.3-.3-.884.8-.974,1.284a14.72,14.72,0,0,1-12.774,12.407c-1.551.24-2.04-.207-1.843-1.669a2.339,2.339,0,0,0,0-.625c-.319-2.384,0-3.907,2.99-4.566a8.118,8.118,0,0,0,5.642-8.749c.029-7.006.061-14.011-.033-21.012,0-1.579.414-1.965,1.956-1.937,4.335.08,4.335,0,4.335,4.321,0,3.47-.024,6.935,0,10.405a4.052,4.052,0,0,0,3.627,4.437,4.1,4.1,0,0,0,.75.006q6.145.1,12.285,0a4.077,4.077,0,0,0,4.4-3.729,4.168,4.168,0,0,0-.005-.723c.047-4.232.065-8.463,0-12.7-.029-1.434.192-2.068,1.88-2.036,4.448.094,4.551,0,4.424,4.429a64.79,64.79,0,0,1-.517,13.875c-.216.869.245.9.865.9h22.907c1.245,0,1.048-.8,1.048-1.543V2384.8c0-8.186.033-16.367-.033-24.552,0-1.444.386-1.881,1.848-1.881,4.438.024,4.438-.037,4.438,4.481Zm14.176,9.267c4.292,0,8.585-.028,12.877,0,1.054,0,1.481-.221,1.369-1.382a29.756,29.756,0,0,0-1.749-8.275,6.235,6.235,0,0,0-7.578-4.507,6.248,6.248,0,0,0-.834.275,32.464,32.464,0,0,0-10.343,5.172,74.932,74.932,0,0,0-7.146,5.675,2.27,2.27,0,0,0-.7,2.6c.268.855,1.2.4,1.819.4,4.109.052,8.2.033,12.281.033Z" fill="#6c6c6c"/>
    <path id="Path_104" data-name="Path 104" d="M-1677.65,2396.027a37.253,37.253,0,0,1-5.346-6.248,14.317,14.317,0,0,1-2.3-5.515,6.883,6.883,0,0,1,5.418-8.087q.309-.062.623-.094a63.306,63.306,0,0,1,16.192.123,7.827,7.827,0,0,1,6.78,8.751,7.82,7.82,0,0,1-.39,1.639,22.48,22.48,0,0,1-6.742,9.3c1.335.249,2.351.47,3.413.635a100.321,100.321,0,0,0,12.224.823c3.691.108,5.379-1.538,5.388-5.243v-28.722a20.015,20.015,0,0,0,0-2.7c-.249-1.8.348-2.393,2.243-2.323,4.029.146,4.033.033,4.033,4.063v29.761a10.517,10.517,0,0,1-9.546,11.405,10.507,10.507,0,0,1-1.855,0,65.723,65.723,0,0,1-21.942-2.986,2.15,2.15,0,0,0-1.763.042,42.858,42.858,0,0,1-16.479,2.873c-3.4.1-6.8.052-10.207,0a10.264,10.264,0,0,1-10.7-9.809c-.014-.314-.013-.629,0-.943,0-10.814.037-21.628-.038-32.47,0-1.659.47-2.092,2.083-2.059,4.231.094,4.231,0,4.231,4.269v29.973c0,2.99,1.411,4.7,4.279,4.753a108.955,108.955,0,0,0,18.9-.752A11.961,11.961,0,0,0-1677.65,2396.027Zm6.145-14.147-5.792.264c-1.744.075-2.2.9-1.411,2.435a22.1,22.1,0,0,0,7.2,8.129c.47.32.879.593,1.491.174a19.559,19.559,0,0,0,7.085-7.386c.907-1.881.329-2.821-1.749-3.155a46.374,46.374,0,0,0-6.827-.456Z" fill="#6c6c6c"/>
    <path id="Path_105" data-name="Path 105" d="M-2083.852,2397.306c4.086,0,8.035.075,11.98-.028a3.935,3.935,0,0,0,3.907-3.963,3.918,3.918,0,0,0-.038-.518c0-10.682.062-21.359-.047-32.041,0-1.984.607-2.421,2.445-2.351,3.86.123,3.865.029,3.865,3.992v30.165a10.316,10.316,0,0,1-9.5,11.069,10.23,10.23,0,0,1-1.523,0q-7.185.044-14.368,0c-.649,0-1.538.428-1.782-.808-.123-.616-.691-.09-1.011,0a23.034,23.034,0,0,1-15.985-1.411,2.015,2.015,0,0,0-2.253.085,13.322,13.322,0,0,1-7.522,2.083c-10.132.023-20.269-.028-30.4.047-1.623,0-1.952-.508-1.928-2.008.066-4.283,0-4.283,4.184-4.283,4.3,0,8.614-.113,12.911.047,2.134.08,2.219-.639,1.721-2.379a23.943,23.943,0,0,0-10.391-13.554c-1.345-.889-1.5-1.5-.733-2.9,2.172-3.968,2.125-4.043,5.778-1.274a28.425,28.425,0,0,1,11.918,18.807c.118.785.292,1.3,1.232,1.283,2.219-.047,4.448.056,6.658-.085a6.021,6.021,0,0,0,5.618-4.231c1.077-2.92,2.12-5.853,3.291-8.75a15.308,15.308,0,0,1,3.522-5.34,9.99,9.99,0,0,1,14.113-.661,10.134,10.134,0,0,1,.979,1.027,17.63,17.63,0,0,1,3.935,15.91C-2083.443,2395.83-2083.64,2396.483-2083.852,2397.306Zm-12.007.071c5.1.056,7.193-2.29,6.7-7.053a12.438,12.438,0,0,0-.987-4c-.94-2.041-1.979-4.166-4.556-4.326-2.717-.169-4.067,1.881-5.007,4.006-1.255,2.821-2.21,5.8-3.338,8.693-.423,1.086.292,1.312,1.03,1.575a23.194,23.194,0,0,0,6.163,1.086Z" fill="#6c6c6c"/>
    <path id="Path_106" data-name="Path 106" d="M-1764.248,2397.3h10.621a6.733,6.733,0,0,0,7.762-5.416,77.489,77.489,0,0,1,3.71-9.46,10.61,10.61,0,0,1,13.736-6.043,10.611,10.611,0,0,1,5.164,4.285,18.21,18.21,0,0,1,2.943,13.86,10.622,10.622,0,0,1-10.88,8.994,24.19,24.19,0,0,1-11.941-2.191,1.953,1.953,0,0,0-2.234.165,13.745,13.745,0,0,1-7.522,2.054c-7.494.043-14.989.029-22.483.08a10.441,10.441,0,0,1-9.873-5.331c-.621-1.082-1.41-.941-2.276-.814a35.364,35.364,0,0,1-12.609-.517c-7.772-1.88-9.667-8.27-4.142-14.137a35.974,35.974,0,0,1,14.433-8.355c1.561-.578,3.738-.6,3.23-3.291-.089-.47.391-.682.852-.682h4.372c1.41,0,1.015,1.067,1.02,1.815v19.14c0,4.7,1.152,5.844,5.919,5.849Zm31.266.066c4.7.037,6.619-1.683,6.7-5.8a12.22,12.22,0,0,0-2.1-7.245,4.1,4.1,0,0,0-5.437-2.012,4.106,4.106,0,0,0-1.869,1.73,8.687,8.687,0,0,0-1.269,2.125c-1.138,2.882-2.163,5.811-3.32,8.684-.366.907.123,1.058.729,1.283a23.271,23.271,0,0,0,6.563,1.232Zm-53.641-11.721c0-1.387-.047-2.774,0-4.156.052-1.223-.4-1.439-1.481-1.011a51.835,51.835,0,0,0-6.615,2.98,16.659,16.659,0,0,0-5.534,4.3c-1.33,1.8-1.119,2.441,1.035,3.033a29.138,29.138,0,0,0,9.7.6c2.882-.188,2.877-.244,2.877-3.042q.019-1.359.019-2.708Z" fill="#6c6c6c"/>
    <path id="Path_107" data-name="Path 107" d="M-2187.272,2396.173v5.2a10.119,10.119,0,0,1-7.612,10.772,20.1,20.1,0,0,1-25.007-10.706,24.831,24.831,0,0,1,.686-17.462c.042-.131.089-.333.179-.362,1.988-.644,3.38,1.007,5.12,1.345,1.062.207.691.941.47,1.608a25.509,25.509,0,0,0-1.354,6.056,12.862,12.862,0,0,0,11.174,14.355,12.874,12.874,0,0,0,4.341-.2,11.149,11.149,0,0,0,3.559-1.091,3.788,3.788,0,0,0,2.214-3.662c-.065-4.434-.08-8.877,0-13.31a12.357,12.357,0,0,1,13.021-11.654,12.454,12.454,0,0,1,1.912.257,7.428,7.428,0,0,1,5.947,7.494c.028,2.633-.028,5.271,0,7.9a4.392,4.392,0,0,0,4.16,4.611l.189.006a18.161,18.161,0,0,0,2.7,0,4.191,4.191,0,0,0,4.182-4.2c0-.1,0-.2-.011-.3.028-4.368.037-8.736,0-13.1,0-1.11.216-1.542,1.457-1.566,4.819-.089,4.819-.141,4.819,4.631v10.4a10.126,10.126,0,0,1-8.218,10.094,16.612,16.612,0,0,1-7.424-.066,10.493,10.493,0,0,1-8.091-10.08c-.052-2.5,0-4.993,0-7.489,0-1.933-.79-2.614-2.685-2.4a6.14,6.14,0,0,0-5.7,6.248C-2187.286,2391.735-2187.272,2393.954-2187.272,2396.173Z" fill="#6c6c6c"/>
    <path id="Path_108" data-name="Path 108" d="M-2192.138,2461.2c0,1.8-.127,3.615.033,5.4a4.884,4.884,0,0,1-1.984,4.457,15.752,15.752,0,0,1-22.263-.728,15.772,15.772,0,0,1-3.046-4.716,27.134,27.134,0,0,1,0-22.2,15.045,15.045,0,0,1,19.239-8.566,13.715,13.715,0,0,1,7.226,6.582c.132.24.386.616.3.738-1.044,1.523-2.957,1.556-4.368,2.468-.907.588-1.17-.183-1.575-.738a7.691,7.691,0,0,0-10.425-3.1,7.689,7.689,0,0,0-3.472,3.885,21.234,21.234,0,0,0,.117,19.987,8.157,8.157,0,0,0,10.9,3.77,8.129,8.129,0,0,0,.851-.479,3.614,3.614,0,0,0,2.125-3.63c-.136-5.279-.042-5.284-5.284-5.284-3.291,0-3.108,0-3.324-3.291-.151-2.266.658-2.751,2.75-2.652,3.531.169,7.076.108,10.611,0,1.317-.033,1.66.386,1.6,1.641C-2192.185,2456.913-2192.138,2459.047-2192.138,2461.2Z" fill="#6c6c6c"/>
    <path id="Path_109" data-name="Path 109" d="M-1588.4,2434.585c3.935,0,3.949,0,5.087,3.761,3.413,11.322,6.784,22.652,10.249,33.955.47,1.58.47,2.276-1.448,2.088-1.716-.165-3.93.517-5.049-.325s-1.312-3.1-1.594-4.786c-.376-2.266-1.462-3-3.761-2.821a78.758,78.758,0,0,1-8.529.033c-1.152-.033-1.881.23-2,1.467a6.568,6.568,0,0,1-.259,1.006c-1.542,5.581-1.542,5.548-7.306,5.416-1.218-.028-1.528-.207-1.124-1.509,2.393-7.73,4.7-15.487,7.006-23.235,1.231-4.1,2.6-8.176,3.639-12.332.554-2.229,1.579-3.155,3.822-2.746A6.93,6.93,0,0,0-1588.4,2434.585Zm-.066,7.4-5.172,18.647c3.169,0,6.141-.038,9.117,0,1.349,0,1.025-.738.823-1.476-1.529-5.5-3.085-11.021-4.768-17.171Z" fill="#6c6c6c"/>
    <path id="Path_110" data-name="Path 110" d="M-2004.715,2434.585c3.935,0,3.945,0,5.078,3.761,3.441,11.383,6.855,22.779,10.343,34.148.471,1.579.282,1.96-1.41,1.937-5.379-.071-5.482.023-6.78-5.252-.47-2.008-1.208-2.863-3.4-2.685a68.927,68.927,0,0,1-8.528,0c-1.411-.061-2.144.315-2.412,1.782-.3,1.627-.879,3.2-1.26,4.81a1.41,1.41,0,0,1-1.479,1.338,1.451,1.451,0,0,1-.233-.031,35.921,35.921,0,0,0-4.574,0c-1.265.08-1.368-.428-1.058-1.457q5.641-18.567,11.2-37.143a1.508,1.508,0,0,1,1.739-1.237c.025,0,.05.009.075.015C-2006.525,2434.637-2005.617,2434.585-2004.715,2434.585Zm.151,8.19H-2005c-1.2,4.354-2.408,8.7-3.583,13.056-.409,1.524-1.664,3.475-.907,4.467s2.976.31,4.551.291c1.706,0,4.118.781,4.932-.324s-.588-3.2-1.03-4.861c-1.128-4.2-2.346-8.412-3.526-12.629Z" fill="#6c6c6c"/>
    <path id="Path_111" data-name="Path 111" d="M-1713.561,2454.369a21.128,21.128,0,0,0,2.135,9.723,8.156,8.156,0,0,0,7.132,4.941,7.053,7.053,0,0,0,6.846-4.5c.559-1.119,1.086-1.063,2.1-.644,4.669,1.928,4.777,2.247,1.646,6.253a14.162,14.162,0,0,1-19.956,1.686,14.172,14.172,0,0,1-2.367-2.561,24.218,24.218,0,0,1-4.344-16.526,23.372,23.372,0,0,1,4.085-12.671,14.364,14.364,0,0,1,19.995-3.581,14.356,14.356,0,0,1,4.331,4.78c.682,1.289.47,1.8-.8,2.248a14.978,14.978,0,0,1-3.62,1.471c-1.373.071-1.457-1.744-2.285-2.609a7.372,7.372,0,0,0-10.408-.607,7.346,7.346,0,0,0-1.158,1.307A18.776,18.776,0,0,0-1713.561,2454.369Z" fill="#6c6c6c"/>
    <path id="Path_112" data-name="Path 112" d="M-1929.678,2449.085a13.206,13.206,0,0,1,6.629-4.062,7.1,7.1,0,0,1,9.115,4.226,7.109,7.109,0,0,1,.406,3.066c.108,6.859,0,13.724.057,20.583,0,1.194-.348,1.49-1.514,1.505-4.7.07-4.7.112-4.7-4.57v-15.177a3.992,3.992,0,0,0-3.307-4.575,4,4,0,0,0-2.843.616,5.714,5.714,0,0,0-3.888,5.741c.174,5.4,0,10.814.08,16.216,0,1.33-.32,1.758-1.707,1.749-4.457,0-4.457.042-4.457-4.406,0-11.086.038-22.177-.037-33.263,0-1.74.47-2.238,2.2-2.191,3.973.108,3.973,0,3.973,4.085Z" fill="#6c6c6c"/>
    <path id="Path_113" data-name="Path 113" d="M-1988.485,2391.566v9.553a10.263,10.263,0,0,1-8.59,11.284,20.057,20.057,0,0,1-23.611-10.019,24.019,24.019,0,0,1,.277-18.421c.066-.192.17-.526.273-.536,1.942-.169,3.47,1.067,5.2,1.618,1.232.39.324,1.321.136,1.9a19.217,19.217,0,0,0-.79,11.227,13.771,13.771,0,0,0,17.843,7.8q.606-.237,1.189-.532a3.868,3.868,0,0,0,1.824-3.681c-.047-7.212,0-14.424-.056-21.627,0-1.5.273-2.017,1.881-1.98,4.386.1,4.386,0,4.386,4.448Z" fill="#6c6c6c"/>
    <path id="Path_114" data-name="Path 114" d="M-1512.136,2458.93v-1.923c.033-2.469.108-5.05-2.567-6.305a7.992,7.992,0,0,0-7.927.771c-2.548,1.584-2.473,1.561-4.005-1.072-.621-1.067-.541-1.683.437-2.393a15.278,15.278,0,0,1,14.777-2.266,7.916,7.916,0,0,1,5.313,7.95c.127,6.451,0,12.9.066,19.356,0,1.162-.428,1.411-1.458,1.345a11.69,11.69,0,0,0-2.29,0c-1.551.169-2.75-.028-2.463-2.1-6.112,3.761-10.9,3.7-14.18-.137a10.9,10.9,0,0,1,.042-13.3C-1523.133,2455.258-1517.646,2455.192-1512.136,2458.93Zm0,6.732a5.049,5.049,0,0,0-4.7-5.381,5.041,5.041,0,0,0-.716,0,4.9,4.9,0,0,0-4.959,4.838c0,.141,0,.282.013.423a4.956,4.956,0,0,0,4.487,5.383,5.1,5.1,0,0,0,.553.019,5.087,5.087,0,0,0,5.32-4.843c.007-.147.008-.295,0-.442Z" fill="#6c6c6c"/>
    <path id="Path_115" data-name="Path 115" d="M-2060.024,2472.118c-5.426,3.954-10.663,3.944-14.039.239a10.7,10.7,0,0,1-.033-13.568,10.118,10.118,0,0,1,13.748-.033,7.264,7.264,0,0,0-1.368-7.574,8.152,8.152,0,0,0-8.816.329c-2.4,1.561-2.313,1.509-3.874-.978-.785-1.246-.55-1.914.55-2.675a15.513,15.513,0,0,1,14.025-2.318,8.085,8.085,0,0,1,5.919,8.138c.08,6.441,0,12.887.047,19.333,0,1.1-.319,1.5-1.41,1.41a10.3,10.3,0,0,0-2.492,0C-2059.37,2474.638-2060.278,2474.144-2060.024,2472.118Zm.1-6.475a5.048,5.048,0,0,0-4.729-5.35,5.033,5.033,0,0,0-.536,0,4.951,4.951,0,0,0-5.178,4.713,4.914,4.914,0,0,0,.006.572,5.012,5.012,0,0,0,4.625,5.371c.083.006.167.01.25.012a5.2,5.2,0,0,0,5.551-4.833q.016-.24.011-.479Z" fill="#6c6c6c"/>
    <path id="Path_116" data-name="Path 116" d="M-1812.834,2466.3c1.88-6.3,3.808-12.563,5.609-18.858.414-1.443,1.025-2.05,2.557-1.881,1.411.142,2.883.029,4.556.029-2.195,6.582-4.306,12.929-6.436,19.276q-2.436,7.269-4.9,14.533a8.548,8.548,0,0,1-10.06,6.7q-.2-.039-.387-.087c-1.175-.132-1.881-.433-1.373-1.8a8.994,8.994,0,0,0,.245-1.641c.2-1.25.348-2.374,2.228-1.932,1.636.386,2.713-.644,3.371-2.135a8.283,8.283,0,0,0,.282-6.554c-2.872-8.077-5.425-16.272-8.18-24.4-.513-1.5-.447-2.031,1.363-2,4.523.066,4.528,0,5.788,4.232,1.457,4.9,2.891,9.812,4.386,14.706C-1813.586,2465.065-1813.7,2465.888-1812.834,2466.3Z" fill="#6c6c6c"/>
    <path id="Path_117" data-name="Path 117" d="M-1906.79,2459.545a17.532,17.532,0,0,1,1.5-7.259,11.439,11.439,0,0,1,10.988-7.452,11.216,11.216,0,0,1,11.142,7.194,18.836,18.836,0,0,1-.47,16.831,11.122,11.122,0,0,1-10.677,6.267,11.314,11.314,0,0,1-10.517-6.544A18.729,18.729,0,0,1-1906.79,2459.545Zm18.877.325a12.65,12.65,0,0,0-1.524-6.794,5.237,5.237,0,0,0-7.018-2.368,5.239,5.239,0,0,0-2.3,2.227,14.065,14.065,0,0,0-.08,13.917,5.214,5.214,0,0,0,6.949,2.466,5.211,5.211,0,0,0,2.544-2.636,13.016,13.016,0,0,0,1.429-6.807Z" fill="#6c6c6c"/>
    <path id="Path_118" data-name="Path 118" d="M-1441.49,2460.03a17.722,17.722,0,0,1-1.41,7.489,11.657,11.657,0,0,1-11.317,7.608,11.388,11.388,0,0,1-11.053-7.636,19.276,19.276,0,0,1,.023-15.158,11.355,11.355,0,0,1,10.941-7.522,11.631,11.631,0,0,1,11.284,7.325A17.62,17.62,0,0,1-1441.49,2460.03Zm-18.91.122a13.781,13.781,0,0,0,1.561,6.7,5.172,5.172,0,0,0,6.872,2.5,5.171,5.171,0,0,0,2.409-2.311,13.859,13.859,0,0,0,.047-14.1,5.209,5.209,0,0,0-7.019-2.238,5.21,5.21,0,0,0-2.285,2.332,14.039,14.039,0,0,0-1.589,7.109Z" fill="#6c6c6c"/>
    <path id="Path_119" data-name="Path 119" d="M-1757.7,2459.889a17.288,17.288,0,0,1-1.2,7.207,12.013,12.013,0,0,1-15.288,7.408,12.011,12.011,0,0,1-7.308-7.131,19.652,19.652,0,0,1-.5-13.408,11.871,11.871,0,0,1,12.3-9.126,12.3,12.3,0,0,1,11.552,10.409A15.273,15.273,0,0,1-1757.7,2459.889Zm-18.806-.156a13.413,13.413,0,0,0,1.462,7.053,5.214,5.214,0,0,0,6.893,2.618,5.21,5.21,0,0,0,2.6-2.576,13.936,13.936,0,0,0-.052-13.724,5.224,5.224,0,0,0-7-2.37,5.227,5.227,0,0,0-2.407,2.445,11.909,11.909,0,0,0-1.495,6.536Z" fill="#6c6c6c"/>
    <path id="Path_120" data-name="Path 120" d="M-1424.451,2091.746a18.459,18.459,0,0,1,18.73,18.183c0,.161,0,.322,0,.482a18.835,18.835,0,0,1-18.665,19,18.834,18.834,0,0,1-19-18.665,18.834,18.834,0,0,1,18.665-19Zm14.687,18.764a14.523,14.523,0,0,0-14.029-15c-.226-.008-.452-.01-.677-.007a14.744,14.744,0,0,0-14.932,14.554c0,.11,0,.221,0,.331a14.9,14.9,0,0,0,14.7,15.082h.095a14.726,14.726,0,0,0,14.839-14.611c0-.116,0-.233,0-.35Z" fill="#243171"/>
    <path id="Path_121" data-name="Path 121" d="M-2170.572,2461.957c-2.5,0-5,.094-7.494-.032-1.674-.085-1.82.611-1.505,1.965a7.4,7.4,0,0,0,8.4,6.249,7.4,7.4,0,0,0,3.989-1.924c2.224-1.829,2.4.315,3.352,1.1,1.34,1.095.687,1.88-.357,2.774a13,13,0,0,1-18.325-1.39,13.01,13.01,0,0,1-2.362-4.045,19.435,19.435,0,0,1-.028-13.254,11.805,11.805,0,0,1,14.568-8.155,11.805,11.805,0,0,1,8.5,9.852c1.448,6.667,1.288,6.864-5.388,6.864Zm-3.1-4.3h5.2c.532,0,1.218.1,1.138-.775-.3-3.324-2.073-7.222-6.366-7.053a6.96,6.96,0,0,0-6.07,7c.08.8.494.861,1.1.856,1.688-.028,3.333-.024,4.979-.024Z" fill="#6c6c6c"/>
    <path id="Path_122" data-name="Path 122" d="M-2110.674,2461.953c-2.567,0-5.134.052-7.7,0-1.185-.038-1.373.334-1.18,1.443a7.447,7.447,0,0,0,8.029,6.816,7.442,7.442,0,0,0,4.519-2.02c2.238-1.777,2.351.47,3.315,1.218,1.217.973.785,1.72-.254,2.6a13,13,0,0,1-18.346-1.091,13,13,0,0,1-2.877-5.43,18.986,18.986,0,0,1,1.265-14.133,11.231,11.231,0,0,1,10.968-6.489,10.937,10.937,0,0,1,10.217,7.241,20.528,20.528,0,0,1,1.41,8.745c0,1.17-.667,1.138-1.476,1.138C-2105.4,2461.944-2108.041,2461.953-2110.674,2461.953Zm-2.746-4.3h4.979c.522,0,1.077.136,1.232-.705a8.234,8.234,0,0,0-3.634-6.583,5.643,5.643,0,0,0-6.789,1.378,10.268,10.268,0,0,0-2.013,4.7c-.178.855.075,1.278,1.049,1.245,1.716-.079,3.446-.042,5.172-.042Z" fill="#6c6c6c"/>
    <path id="Path_123" data-name="Path 123" d="M-1428.363,2448.793a11.169,11.169,0,0,1,9-3.954,6.2,6.2,0,0,1,6.646,5.723c.014.186.019.372.016.559.278,7.4.419,14.838.028,22.229-.122,2.35-3,.47-4.546.987-.94.315-1.467-.132-1.453-1.3.052-5.891.024-11.782,0-17.678,0-3.592-1.161-5.1-3.949-5.134a5.915,5.915,0,0,0-5.976,5.572c0,5.613-.038,11.232.028,16.845,0,1.3-.258,1.773-1.683,1.768-4.532-.023-4.532.042-4.532-4.537,0-7.485.033-14.974-.033-22.459,0-1.434.357-2.078,1.838-1.843a5.769,5.769,0,0,0,.832,0C-1428.791,2445.578-1428.791,2445.578-1428.363,2448.793Z" fill="#6c6c6c"/>
    <path id="Path_124" data-name="Path 124" d="M-1968.358,2471.346a12.045,12.045,0,0,1-9.219,3.762,6.457,6.457,0,0,1-6.711-6.19c-.007-.184-.007-.368,0-.552-.1-7.147,0-14.293-.057-21.435,0-1.109.357-1.368,1.411-1.41,4.791-.151,4.786-.184,4.786,4.509v15.19a4.04,4.04,0,0,0,3.356,4.622,4.045,4.045,0,0,0,2.93-.668,5.5,5.5,0,0,0,3.587-5.5c-.188-5.4,0-10.813-.094-16.23-.033-1.612.47-1.96,2-1.937,4.17.071,4.175,0,4.175,4.067,0,7.56-.066,15.125.047,22.685.024,1.792-.517,2.351-2.2,2.088a3.613,3.613,0,0,0-1.039,0C-1967.45,2474.642-1969.034,2474.355-1968.358,2471.346Z" fill="#6c6c6c"/>
    <path id="Path_125" data-name="Path 125" d="M-2148.446,2448.713a11.448,11.448,0,0,1,8.707-3.888,6.583,6.583,0,0,1,7.042,6.088,6.565,6.565,0,0,1,.01.781c.146,7.137.033,14.283.08,21.425,0,1.016-.338,1.241-1.312,1.284-4.9.216-4.9.244-4.9-4.575v-14.974c0-3.131-1.217-4.556-3.808-4.617a5.824,5.824,0,0,0-5.994,4.885c-.047,5.754-.057,11.509,0,17.264,0,1.41-.174,2.083-1.881,2.04-4.288-.1-4.292,0-4.292-4.353,0-7.556.037-15.116-.033-22.671,0-1.453.371-2.055,1.843-1.824a8.411,8.411,0,0,0,1.25,0C-2148.837,2445.582-2148.837,2445.582-2148.446,2448.713Z" fill="#6c6c6c"/>
    <path id="Path_126" data-name="Path 126" d="M-1661.152,2466.448c1.956-6.5,3.916-12.845,5.745-19.225a1.959,1.959,0,0,1,2.2-1.691c.037.005.075.01.112.017,4.767.029,4.767,0,3.291,4.439-2.515,7.522-5.059,15.073-7.523,22.628a2.134,2.134,0,0,1-2.414,1.812l-.04-.006c-4.819-.09-4.833,0-6.375-4.636-2.469-7.41-4.895-14.829-7.415-22.22-.47-1.448-.559-2.059,1.326-2.026,4.57.075,4.551,0,5.854,4.41,1.481,5.04,3,10.071,4.508,15.106A2.225,2.225,0,0,0-1661.152,2466.448Z" fill="#6c6c6c"/>
    <path id="Path_127" data-name="Path 127" d="M-1559.118,2466.965c1.528-5.031,2.9-9.516,4.231-14,.339-1.123.635-2.261.969-3.39,1.2-4.029,2.59-4.833,6.779-3.991,1.411.287.593,1.152.409,1.711-1.767,5.388-3.592,10.757-5.4,16.136-1.053,3.146-2.163,6.277-3.132,9.45a1.879,1.879,0,0,1-2.172,1.534l-.033-.006c-4.979,0-4.974.029-6.544-4.7-2.483-7.485-4.942-14.975-7.49-22.436-.47-1.411-.2-1.716,1.251-1.712,4.7,0,4.7-.051,6.046,4.415C-1562.537,2455.432-1560.919,2460.914-1559.118,2466.965Z" fill="#6c6c6c"/>
    <path id="Path_128" data-name="Path 128" d="M-1749.711,2462.5c0-3.329-.052-6.663.024-9.991.033-1.26-.33-1.843-1.622-1.627-1.73.287-2.422-.428-2.168-2.153a6.183,6.183,0,0,0,0-1.665c-.15-1.218.4-1.7,1.538-1.481,2.163.419,2.252-.8,2.252-2.473a8.336,8.336,0,0,1,7.284-9.269,8.333,8.333,0,0,1,5.165,1.06c.63.32,1.763.593,1.5,1.458a18.664,18.664,0,0,1-1.881,3.672c0,.028-.686-.311-1.048-.47a3.184,3.184,0,0,0-4.388,1.006,3.184,3.184,0,0,0-.483,1.815c-.268,3.15-.264,3.258,2.929,3.145,1.655-.061,2.1.541,1.881,2.022a5.6,5.6,0,0,0,0,1.452c.183,1.411-.33,2.107-1.829,1.881-.273-.042-.564.037-.832,0-1.961-.39-2.233.583-2.2,2.294.094,6.38,0,12.765.07,19.145,0,1.523-.235,2.158-1.984,2.106-4.231-.127-4.231-.028-4.231-4.231Z" fill="#6c6c6c"/>
    <path id="Path_129" data-name="Path 129" d="M-1839.694,2460.279c0-2.633-.052-5.27.023-7.9.038-1.2-.39-1.683-1.542-1.486-1.88.32-2.534-.47-2.242-2.289a4.848,4.848,0,0,0,0-1.453c-.193-1.345.47-1.773,1.664-1.566,1.787.3,2.294-.47,2.125-2.177-.141-1.373.024-2.769-.047-4.151-.056-1.1.193-1.575,1.457-1.618,4.754-.145,4.749-.2,4.749,4.505a5.636,5.636,0,0,1,0,1.039c-.4,2.073.527,2.675,2.487,2.44.734-.085,2-.513,2.21.47a6.758,6.758,0,0,1-.146,4.467c-.432.837-1.815.371-2.736.305-1.476-.113-1.881.414-1.838,1.857.089,4.575,0,9.15.042,13.724,0,2.99,1.011,3.715,3.822,2.892.193-.057.494-.287.527-.245a12.127,12.127,0,0,1,1.41,3.63c.32.766-.282,1.128-.813,1.467a7.053,7.053,0,0,1-9.806-1.822,7.068,7.068,0,0,1-1.187-3.138,85.583,85.583,0,0,1-.056-8.933Z" fill="#6c6c6c"/>
    <path id="Path_130" data-name="Path 130" d="M-1496.837,2460.382c0-2.632-.07-5.27.028-7.9.047-1.3-.39-1.806-1.65-1.594-1.758.292-2.4-.47-2.139-2.172a4.98,4.98,0,0,0,0-1.453c-.212-1.41.47-1.88,1.763-1.678,1.7.291,2.238-.47,2.007-2.064a10.687,10.687,0,0,1,0-1.453c0-4.7.5-5.111,5.28-4.419.941.131.912.611.912,1.255,0,1.73.071,3.47-.023,5.2-.066,1.208.38,1.528,1.542,1.519,1.053,0,2.628-.611,3.07.381a9.742,9.742,0,0,1,.193,4.085c-.042,1.077-.969.766-1.6.79-3.179.122-3.179.113-3.179,3.362v11.852c0,3.329.785,3.935,3.912,3.178.179-.042.47-.183.517-.131a12.71,12.71,0,0,1,1.354,3.662c.292.894-.517,1.2-1.1,1.519a7.02,7.02,0,0,1-9.714-2.047,7.019,7.019,0,0,1-1.137-3.99c-.118-2.628,0-5.266,0-7.9Z" fill="#6c6c6c"/>
    <path id="Path_131" data-name="Path 131" d="M-1952.9,2460.425c0-2.638-.056-5.271.024-7.9.042-1.264-.372-1.843-1.646-1.636-1.782.292-2.388-.507-2.134-2.191a4.4,4.4,0,0,0,0-1.246c-.188-1.41.272-2.125,1.791-1.88s2.139-.32,1.993-1.923a19.951,19.951,0,0,1,0-4.57c.414-2.891,2.723-.907,4.1-1.359.846-.277,2.162-.47,2.026,1.331-.122,1.655.038,3.329-.047,4.993-.061,1.171.329,1.58,1.523,1.561,1.067,0,2.671-.583,3.1.334a10.9,10.9,0,0,1,.245,4.071c0,.644-.391.828-.941.842a14.741,14.741,0,0,1-2.082,0c-1.458-.174-1.881.4-1.881,1.852.085,4.575,0,9.154.038,13.729,0,2.962.94,3.644,3.827,2.821.188-.052.47-.245.522-.2a12.388,12.388,0,0,1,1.41,3.625c.291.771-.282,1.115-.832,1.453a7,7,0,0,1-9.741-1.733,7,7,0,0,1-1.252-3.688c-.2-2.755-.032-5.543-.032-8.317Z" fill="#6c6c6c"/>
    <path id="Path_132" data-name="Path 132" d="M-1412.9,2380.282c0,6.723-.038,13.446.028,20.165,0,1.41-.334,1.909-1.834,1.88-4.546-.028-4.546.038-4.546-4.56,0-12.337.038-24.669-.042-37.006,0-1.848.381-2.52,2.351-2.44,4.019.159,4.024.042,4.024,4.062Z" fill="#6c6c6c"/>
    <path id="Path_133" data-name="Path 133" d="M-1619.952,2380.287c0,6.723-.038,13.446.028,20.165,0,1.41-.348,1.88-1.843,1.88-4.542-.032-4.542.033-4.542-4.569,0-12.4.033-24.811-.038-37.213,0-1.688.386-2.267,2.163-2.22,4.232.118,4.232,0,4.232,4.274Z" fill="#6c6c6c"/>
    <path id="Path_134" data-name="Path 134" d="M-1979.345,2380.3c0-6.582.042-13.164-.033-19.746,0-1.528.249-2.168,1.994-2.125,4.283.108,4.287,0,4.287,4.377,0,12.407-.032,24.815.038,37.217,0,1.716-.244,2.422-2.21,2.351-4.071-.174-4.076-.047-4.076-4.175Z" fill="#6c6c6c"/>
    <path id="Path_135" data-name="Path 135" d="M-2045.562,2380.277c0,6.723-.038,13.446.033,20.17,0,1.41-.306,1.88-1.81,1.88-4.471-.047-4.471,0-4.471-4.386,0-12.408.037-24.815-.038-37.218,0-1.758.324-2.388,2.233-2.313,4.048.155,4.053.038,4.053,3.987Z" fill="#6c6c6c"/>
    <path id="Path_136" data-name="Path 136" d="M-2039.492,2454.614c0,5.956-.033,11.909.023,17.865,0,1.331-.164,1.956-1.758,1.937-4.4-.056-4.4.029-4.4-4.438,0-11.147.033-22.295-.033-33.442,0-1.538.362-2.012,1.947-1.984,4.231.075,4.231,0,4.231,4.278Z" fill="#6c6c6c"/>
    <path id="Path_137" data-name="Path 137" d="M-1623.187,2454.6c0,5.966-.037,11.932.028,17.9,0,1.368-.216,1.937-1.777,1.918-4.443-.052-4.443.028-4.443-4.4,0-11.171.033-22.337-.037-33.508,0-1.571.4-1.989,1.955-1.966,4.274.066,4.274,0,4.274,4.232Z" fill="#6c6c6c"/>
    <path id="Path_138" data-name="Path 138" d="M-1868.336,2449.066a10.76,10.76,0,0,1,6.389-4.1c.983-.184,1.472.032,1.364,1.1a7.967,7.967,0,0,0,0,.833,10.044,10.044,0,0,1-.094,3.291c-.47,1.255-1.914.4-2.91.7a5.956,5.956,0,0,0-4.979,6.521c0,5.124-.047,10.254.032,15.378,0,1.3-.385,1.613-1.645,1.623-4.575.032-4.575.084-4.575-4.448,0-7.551.029-15.1-.028-22.652,0-1.307.282-1.97,1.693-1.735a5.259,5.259,0,0,0,.832,0C-1868.816,2445.577-1868.816,2445.577-1868.336,2449.066Z" fill="#6c6c6c"/>
    <path id="Path_139" data-name="Path 139" d="M-2088.421,2449.164a11.39,11.39,0,0,1,6.394-4.184c1.09-.221,1.593,0,1.471,1.175a5.815,5.815,0,0,0,0,1.039c.169,2.121.277,3.658-2.873,3.87-3.61.239-5.11,2.642-5.11,6.239,0,5.124-.047,10.254.033,15.378,0,1.411-.419,1.726-1.759,1.721-4.461,0-4.461.043-4.461-4.353,0-7.551.037-15.1-.033-22.653,0-1.41.324-2.073,1.814-1.828a6.723,6.723,0,0,0,1.04,0C-2088.657,2445.577-2088.657,2445.577-2088.421,2449.164Z" fill="#6c6c6c"/>
    <path id="Path_140" data-name="Path 140" d="M-1855.111,2460.016c0-4.3.033-8.6,0-12.887,0-1.138.278-1.543,1.495-1.575,4.7-.127,4.7-.179,4.7,4.537,0,7.414-.038,14.833.033,22.247,0,1.543-.268,2.144-1.994,2.093-4.231-.123-4.231-.024-4.231-4.232Z" fill="#6c6c6c"/>
    <path id="Path_141" data-name="Path 141" d="M-1541.474,2459.795c0-4.231.033-8.463,0-12.694,0-1.119.226-1.543,1.463-1.571,4.748-.1,4.748-.155,4.748,4.547,0,7.485-.037,14.969.033,22.454,0,1.434-.338,1.881-1.829,1.881-4.4-.047-4.4,0-4.4-4.429Z" fill="#6c6c6c"/>
    <path id="Path_142" data-name="Path 142" d="M-1685.135,2459.8c0-4.231.033-8.462,0-12.694,0-1.142.292-1.537,1.5-1.57,4.7-.127,4.7-.174,4.7,4.541,0,7.485-.037,14.97.033,22.455,0,1.411-.268,1.881-1.786,1.881-4.434-.061-4.434,0-4.434-4.429Z" fill="#6c6c6c"/>
    <path id="Path_143" data-name="Path 143" d="M-1479.587,2459.795c0-4.231.033-8.463,0-12.694,0-1.138.292-1.543,1.5-1.571,4.607-.117,4.607-.164,4.607,4.448,0,7.551-.028,15.1.028,22.647,0,1.307-.277,1.773-1.692,1.768-4.42,0-4.42.047-4.42-4.433Z" fill="#6c6c6c"/>
    <path id="Path_144" data-name="Path 144" d="M-1637.644,2460.054c0,4.231-.042,8.463.023,12.694,0,1.222-.249,1.66-1.584,1.664-4.405,0-4.405.08-4.405-4.231,0-7.551.037-15.1-.033-22.652,0-1.486.272-2.036,1.9-2,4.095.094,4.095,0,4.095,4.142Z" fill="#6c6c6c"/>
    <path id="Path_145" data-name="Path 145" d="M-1520.6,2369.05c-1.411-6.329.691-10.344,5.787-11.458a10.988,10.988,0,0,1,3.1-.151c3.653.273,3.828.644,2.6,4-.376,1.029-.794,1.279-1.782.855a6.3,6.3,0,0,0-3.686-.3,3.653,3.653,0,0,0-2.821,4.231c.325,2.012,1.749,2.511,3.522,2.4a17.142,17.142,0,0,0,3.291-.423c1.66-.442,2.083.235,2.266,1.772.32,2.755.419,2.821-2.351,2.821-4.372.033-8.745-.113-13.112,0-1.735.042-1.481-.94-1.509-1.979s-.1-1.965,1.448-1.777A27.57,27.57,0,0,0-1520.6,2369.05Z" fill="#6c6c6c"/>
    <path id="Path_146" data-name="Path 146" d="M-1538.291,2441.971a3.7,3.7,0,0,1-3.941-3.442c-.005-.069-.007-.137-.008-.206a3.83,3.83,0,0,1,3.815-3.844,3.83,3.83,0,0,1,3.844,3.816,3.658,3.658,0,0,1-3.639,3.677Z" fill="#6c6c6c"/>
    <path id="Path_147" data-name="Path 147" d="M-1682.1,2441.971a3.788,3.788,0,0,1-3.84-3.737v-.057a3.87,3.87,0,0,1,3.9-3.841,3.87,3.87,0,0,1,3.841,3.9h0a3.814,3.814,0,0,1-3.887,3.738Z" fill="#6c6c6c"/>
    <path id="Path_148" data-name="Path 148" d="M-1852.059,2441.967a3.664,3.664,0,0,1-3.764-3.559c0-.088,0-.176,0-.264a3.834,3.834,0,0,1,3.891-3.773,3.833,3.833,0,0,1,3.773,3.891,3.705,3.705,0,0,1-3.7,3.71C-1851.924,2441.972-1851.992,2441.97-1852.059,2441.967Z" fill="#6c6c6c"/>
    <path id="Path_149" data-name="Path 149" d="M-1476.479,2441.976a3.6,3.6,0,0,1-3.865-3.317c-.009-.121-.012-.243-.009-.364a3.761,3.761,0,0,1,3.7-3.818h.114a3.836,3.836,0,0,1,3.8,3.86,3.652,3.652,0,0,1-3.666,3.64Z" fill="#6c6c6c"/>
    <path id="Path_150" data-name="Path 150" d="M-1640.6,2441.971a3.6,3.6,0,0,1-3.834-3.341,3.4,3.4,0,0,1-.007-.363,3.76,3.76,0,0,1,3.728-3.8h.1a3.762,3.762,0,0,1,3.733,3.677,3.6,3.6,0,0,1-3.362,3.818A3.579,3.579,0,0,1-1640.6,2441.971Z" fill="#6c6c6c"/>
    <path id="Path_151" data-name="Path 151" d="M-2005.246,2370.907a3.686,3.686,0,0,1,3.761,3.61v.015a3.665,3.665,0,0,1-3.688,3.641,3.664,3.664,0,0,1-3.641-3.688h0A3.666,3.666,0,0,1-2005.246,2370.907Z" fill="#6c6c6c"/>
    <path id="Path_152" data-name="Path 152" d="M-2197.352,2423.334a3.591,3.591,0,0,1-3.419-3.757c0-.05.006-.1.01-.15a3.625,3.625,0,0,1,3.91-3.315,3.626,3.626,0,0,1,3.326,3.729,3.6,3.6,0,0,1-3.692,3.5C-2197.262,2423.339-2197.307,2423.337-2197.352,2423.334Z" fill="#6c6c6c"/>
    <path id="Path_153" data-name="Path 153" d="M-1922.019,2413.156a3.624,3.624,0,0,1-3.8,3.435,3.625,3.625,0,0,1-3.44-3.642,3.659,3.659,0,0,1,3.625-3.517,3.621,3.621,0,0,1,3.622,3.619C-1922.017,2413.086-1922.018,2413.121-1922.019,2413.156Z" fill="#6c6c6c"/>
    <path id="Path_154" data-name="Path 154" d="M-1486.987,2413.08a3.667,3.667,0,0,1-3.7,3.629,3.667,3.667,0,0,1-3.63-3.7,3.762,3.762,0,0,1,3.6-3.578,3.69,3.69,0,0,1,3.733,3.648Z" fill="#6c6c6c"/>
    <path id="Path_155" data-name="Path 155" d="M-1502.046,2409.436a3.483,3.483,0,0,1,3.485,3.482c0,.034,0,.067,0,.1a3.576,3.576,0,0,1-3.543,3.608,3.575,3.575,0,0,1-3.608-3.542h0a3.553,3.553,0,0,1,3.457-3.649Q-1502.151,2409.433-1502.046,2409.436Z" fill="#6c6c6c"/>
    <path id="Path_156" data-name="Path 156" d="M-2163.943,2367.634a3.634,3.634,0,0,1-3.7,3.566l-.059,0a3.6,3.6,0,0,1-3.584-3.619,3.6,3.6,0,0,1,3.62-3.583c.08,0,.161,0,.241.009A3.652,3.652,0,0,1-2163.943,2367.634Z" fill="#6c6c6c"/>
    <path id="Path_157" data-name="Path 157" d="M-1589.735,2356.92a3.574,3.574,0,0,1,3.491,3.655,3.574,3.574,0,0,1-3.656,3.491,3.626,3.626,0,0,1-3.587-3.54A3.686,3.686,0,0,1-1589.735,2356.92Z" fill="#6c6c6c"/>
    <path id="Path_158" data-name="Path 158" d="M-1578.306,2356.925a3.571,3.571,0,0,1,3.531,3.61,3.571,3.571,0,0,1-3.611,3.531,3.427,3.427,0,0,1-3.548-3.3c0-.062,0-.124,0-.186a3.491,3.491,0,0,1,3.326-3.652A2.986,2.986,0,0,1-1578.306,2356.925Z" fill="#6c6c6c"/>
    <path id="Path_159" data-name="Path 159" d="M-1779.35,2360.4a3.577,3.577,0,0,1-3.573,3.582,3.578,3.578,0,0,1-3.578-3.394,3.484,3.484,0,0,1,3.284-3.673c.1-.006.209-.007.313,0a3.437,3.437,0,0,1,3.553,3.317C-1779.349,2360.289-1779.349,2360.347-1779.35,2360.4Z" fill="#6c6c6c"/>
    <path id="Path_160" data-name="Path 160" d="M-2205.053,2419.86a3.493,3.493,0,0,1-3.52,3.466h-.077a3.531,3.531,0,0,1-3.557-3.5c0-.085,0-.171.007-.256a3.58,3.58,0,0,1,3.712-3.44,3.578,3.578,0,0,1,3.439,3.712h0Z" fill="#6c6c6c"/>
    <path id="Path_161" data-name="Path 161" d="M-1794.414,2364.066a3.611,3.611,0,0,1-3.629-3.484,3.657,3.657,0,0,1,3.653-3.662h.024a3.574,3.574,0,0,1,3.672,3.471,3.575,3.575,0,0,1-3.472,3.673c-.084,0-.168,0-.252,0Z" fill="#6c6c6c"/>
    <path id="Path_162" data-name="Path 162" d="M-1933.495,2413a3.5,3.5,0,0,1-3.37,3.622c-.095,0-.189,0-.283,0a3.394,3.394,0,0,1-3.5-3.286c0-.08,0-.16,0-.24a3.492,3.492,0,0,1,3.318-3.66c.1-.005.192-.005.288,0A3.639,3.639,0,0,1-1933.495,2413Z" fill="#6c6c6c"/>
    <path id="Path_165" data-name="Path 165" d="M-1415.622,2120.074c-3.968.3-3.968.3-5.567-2.892-.559-1.114-1.171-2.2-1.66-3.347a1.931,1.931,0,0,0-2.064-1.293c-3.173,0-3.173-.061-3.178,3.192a13.814,13.814,0,0,0,0,2.285c.334,1.932-.541,2.351-2.285,2.229-1.185-.071-1.523-.4-1.509-1.571.056-5.134.033-10.263,0-15.4a2.661,2.661,0,0,1,2.283-2.992,2.619,2.619,0,0,1,.444-.022,41.3,41.3,0,0,1,7.687.108,5.263,5.263,0,0,1,4.749,4.062,5.7,5.7,0,0,1-1.952,6.535c-1.236.865-.94,1.481-.385,2.469C-1417.874,2115.537-1416.816,2117.727-1415.622,2120.074Zm-9.506-16.583c-.819.259-2.445-.644-2.821.47a15.074,15.074,0,0,0-.1,4.735c0,.432.4.536.752.531a34.484,34.484,0,0,0,4.767-.117,2.611,2.611,0,0,0,2.317-2.873c0-.033-.008-.066-.013-.1a2.549,2.549,0,0,0-2.461-2.633c-.058,0-.117,0-.176,0-.668-.061-1.364-.014-2.266-.014Z" fill="#243171"/>
  </g>
</svg>
