<?xml version="1.0" encoding="utf-8"?>
<!-- Generator: Adobe Illustrator 26.1.0, SVG Export Plug-In . SVG Version: 6.00 Build 0)  -->
<svg version="1.1" id="svg2816" xmlns:svg="http://www.w3.org/2000/svg"
	 xmlns="http://www.w3.org/2000/svg" xmlns:xlink="http://www.w3.org/1999/xlink" x="0px" y="0px" viewBox="0 0 315 300"
	 style="enable-background:new 0 0 315 300;" xml:space="preserve">
<style type="text/css">
	.st0{fill:#73CCDC;}
	.st1{fill:#0C1111;}
	.st2{fill:#74CDDC;}
	.st3{fill:#5FC4BC;}
	.st4{fill:#69C6BF;}
	.st5{fill:#F4D1A1;}
	.st6{fill:#F4D0A0;}
	.st7{fill:#060606;}
	.st8{fill:#0B1213;}
	.st9{fill:#1F1F1E;}
	.st10{fill:#FFFFFF;}
	.st11{fill:#FAFAF9;}
</style>
<g>
	<path class="st0" d="M132.3,140.6c0.5-2.4,1.6-4.5,2.8-6.6c1.6-2.9,3.5-5.6,5.8-8.1c1.5-1.7,3.2-3.3,5.1-4.7
		c1.1-0.8,2.1-1.6,3.3-2.3c2.5-1.5,5.2-2.9,8.1-3.6c0.1,0,0.2-0.1,0.4-0.1c2.5-1,5.1-1.5,7.7-1.8c3.4-0.4,6.9-0.7,10.4-0.2
		c2.3,0.3,4.5,0.8,6.6,1.5c2.7,0.9,5.2,2.2,7.5,3.8c1.8,1.3,3.4,2.8,5,4.4c1.6,1.7,3,3.5,4.1,5.5c1.5,2.8,2.6,5.7,3.1,8.8
		c0.4,2.5,0.8,5.1,0.7,7.6c0,2-0.4,4-0.6,5.9c-0.3,2.5-1.2,4.9-2,7.2c-0.5,1.5-1.4,3-2.2,4.4c-1.2,2.1-2.6,4-4.2,5.7
		c-1.3,1.5-2.7,2.9-4.2,4.2c-1.6,1.3-3.2,2.6-5,3.7c-2.3,1.4-4.8,2.7-7.4,3.7c-1.4,0.5-2.8,0.9-4.2,1.4c-2.2,0.7-4.4,0.9-6.7,1.2
		c-0.6,0.1-1.1,0.1-1.7,0.2c-3,0.4-5.9-0.3-8.9-0.8c-3.8-0.7-7.3-2.1-10.5-4.2c-3.3-2.1-6.2-4.7-8.6-7.9c-1-1.3-1.8-2.7-2.6-4.2
		c-0.7-1.4-1.2-3-1.7-4.5c-0.1-0.1-0.1-0.3-0.2-0.4c-1.7,3.3-3.9,6.3-6.3,9.1c-1.5,1.7-3.1,3.3-4.9,4.7c-2.1,1.7-4.5,3.1-7,4.3
		c-2.1,1-4.3,1.8-6.6,2.4c-2.5,0.7-5.1,1-7.6,1.2c-3,0.3-6-0.1-9-0.7c-2.7-0.5-5.3-1.5-7.7-2.8c-1.9-1-3.6-2.1-5.3-3.4
		c-1.9-1.5-3.6-3.3-5.1-5.2c-1.2-1.5-2.2-3.1-3-4.9c-1.1-2.4-2-4.8-2.3-7.4c-0.3-2.4-0.8-4.8-0.7-7.2c0-1.8,0.3-3.5,0.6-5.3
		c0.4-3,1.4-5.8,2.6-8.5c1.1-2.6,2.5-5.1,4.2-7.3c2-2.7,4.1-5.2,6.7-7.4c2-1.7,4-3.3,6.2-4.5c2.5-1.4,5.1-2.6,7.8-3.4
		c2.2-0.7,4.5-1.2,6.8-1.7c1.1-0.2,2.3-0.2,3.4-0.3c1.4,0.2,2.7,0.2,4.1,0c4.1,0.2,7.9,1.2,11.5,3c4.3,2.2,7.9,5.1,10.7,9
		c1.4,2,2.5,4.1,3.5,6.3c0.2,0.4,0.1,0.6-0.3,0.8c-0.9,0.6-1.9,0.8-2.9,1c-0.8,0.2-1.6,0.4-2.3,0.6c-2.9,0.8-5.9,1.5-8.8,2.4
		c-0.7,0.2-1.5,0.3-2.2,0.6c-1,0.4-1.7-0.1-2.2-0.7c-0.9-1.2-2-2.2-3.2-3c-1.9-1.3-4.1-1.9-6.4-2.3c-2.8-0.5-5.4,0.2-8,1.3
		c-3.9,1.7-7.1,4.3-9.4,8c-1.6,2.5-2.3,5.2-2.8,8.1c-0.4,2.7-0.2,5.3,0.7,7.8c0.9,2.7,2.5,5.1,4.8,6.8c2.9,2.1,6.1,2.9,9.6,2.8
		c2-0.1,4-0.4,5.9-1.2c1.1-0.5,2.2-1.2,3.3-1.9c2.3-1.6,3.9-3.8,5.3-6.1c-0.1-0.3-0.3-0.2-0.4-0.2c-5.5,0-11,0-16.5,0
		c-2.3,0-2.5-1.3-1.9-2.9c0.9-2.5,2.2-4.8,3.2-7.2c0.4-0.8,0.8-1.6,1.2-2.4c0.4-1,1.1-1.5,2-1.8c0.3,0.3,0.7,0.1,1,0.1
		c4.5,0,9,0,13.5,0c4.7,0,9.5,0,14.2,0C131.7,141,132.3,141.3,132.3,140.6z M169.3,129.8c-2.8,0-5.5,0.7-8.1,1.9
		c-2,0.9-3.8,2-5.4,3.6c-1.6,1.6-3,3.4-4,5.4c-1.1,2.2-1.9,4.5-2.2,7c-0.2,2.2-0.2,4.3,0.4,6.4c0.5,1.7,1.2,3.3,2.4,4.8
		c1.2,1.5,2.5,2.8,4.1,3.8c1.7,1,3.5,1.6,5.5,2c3.6,0.8,7.1,0.1,10.3-1.4c1.9-0.9,3.6-2.1,5.2-3.5c2.3-2,4.1-4.4,5.2-7.3
		c1.1-2.9,1.8-5.9,1.4-9.1c-0.4-3.3-1.6-6.2-3.8-8.6C177.5,131.4,173.7,129.8,169.3,129.8z"/>
	<path class="st1" d="M217.4,155.9c-0.7,0-1.2,0.5-1.8,0.8c-1.1,0.6-2.1,1.2-3.5,1.1c-1-0.1-1.7-0.5-1.9-1.5c-0.1-0.4-0.2-0.7-0.5-1
		c-0.5-0.5-0.6-1.1-0.3-1.7c0.8-2.2,2.6-3,4.6-3.7c1-0.3,2-0.5,3-0.4c0.5,0,0.6-0.1,0.6-0.6c-0.2-2.5-0.3-5-0.5-7.5
		c-0.2-1.6-0.3-3.2-0.4-4.8c-0.2-3.5-0.5-6.9-0.5-10.4c0-4,0.2-8,1.2-11.9c0.1-0.5,0.2-0.9-0.6-1.1c-3.4-1.3-5.4-4.2-5-7.4
		c0.4-3.8,3.3-7.1,6.9-7.9c2.4-0.6,4.6-0.1,6.7,1.1c0.3,0.2,0.5,0.3,0.8,0c3.5-3,7.7-4.8,12.1-5.9c3.2-0.9,6.5-1.3,9.8-1.7
		c3.6-0.5,7.1-0.4,10.7-0.1c5.6,0.4,11.1,1.4,16.1,4.3c1,0.6,2,1.2,2.9,2c0.5,0.4,0.8,0.4,1.3,0.1c3.1-1.7,6.2-1.9,9.3,0.1
		c2.6,1.7,4,4.2,4,7.3c0,3.3-1.8,5.5-4.7,6.9c-0.7,0.3-0.9,0.6-0.7,1.4c0.8,3.2,1.2,6.5,1.6,9.8c0.7,6.7,0.5,13.4,0.6,20.1
		c0,1.8,0.1,3.6,0.1,5.3c0,0.7,0.5,0.7,0.9,0.7c1.6,0.1,3,0.6,4.3,1.4c1,0.6,1.7,1.4,2.2,2.5c0.2,0.4,0.3,0.9,0.1,1.2
		c-0.7,0.8-0.8,1.9-1.5,2.7c-0.6,0.6-1.3,0.7-2.2,0.5c-1.2-0.3-2.3-0.9-3.5-1.7c0.2,1.3,0.2,2.4,0.3,3.5c0.4,4.6,0.5,9.1,0.3,13.7
		c-0.3,6.9-1.4,13.7-4.7,20c-1.1,2.1-2.6,4-4.3,5.8c1.5,1.2,2.9,2.4,3.9,4.1c0.6,1.1,1.2,2.2,0.8,3.5c-0.5,1.6-1.8,2.4-3.2,2.9
		c-1.6,0.5-2.7-0.6-3.7-1.7c-1-1-1.9-2.2-2.9-3.2c-1-1-1.2-0.9-2.4-0.4c-3.5,1.7-7.1,2.7-11,3.4c-4.2,0.7-8.5,1.1-12.7,0.9
		c-5.7-0.2-11.3-1.1-16.7-3.3c-0.9-0.4-1.6,0-2.4,0.3c-1.5,0.5-2.6,1.6-3.7,2.6c-0.9,0.8-1.9,1.5-3,2c-1.3,0.6-2.7,0.4-3.3-0.8
		c-0.3-0.5-0.8-0.4-1.1-0.7c-0.8-0.9-1-2.4-0.5-3.7c0.7-1.6,2-2.6,3.3-3.6c0.6-0.5,1.6-0.8,1.7-1.4c0.1-0.4-0.9-1.1-1.4-1.6
		c-3.3-3.6-5-7.9-5.9-12.6c-0.7-3.7-1-7.5-0.9-11.2c0.1-3.7,0.3-7.3,0.6-11C217.2,160.6,217.6,158.3,217.4,155.9z M288.7,138.7
		c-0.3-5.7-0.1-11.1-0.7-16.5c-0.5-4.1-1.2-8-2.3-12c-1.9-6.7-6-11.7-12.2-14.9c-5.2-2.6-10.8-3.4-16.5-3.7c-4.1-0.2-8.1,0-12.2,0.7
		c-3.4,0.6-6.8,1.3-10,2.5c-6.6,2.5-11.7,6.6-14.6,13.2c-2.2,5-3.1,10.3-3.3,15.8c-0.1,3.3,0,6.7,0.3,10c0.2,2,0.2,4.1,0.4,6.1
		c0.4,3.7,0.6,7.4,0.7,11.1c0.1,3.1-0.2,6.3-0.5,9.4c-0.3,3.7-0.6,7.3-0.7,11c-0.2,5-0.1,10,1.1,14.9c1.4,6,4.4,11,9.7,14.5
		c6.3,4.3,13.5,5.9,21,6.3c4,0.2,8.1,0.1,12.1-0.5c3.9-0.6,7.7-1.5,11.3-3c6.4-2.8,11.2-7.2,14-13.7c2.1-5,3.1-10.3,3.4-15.8
		c0.3-6.4,0-12.8-0.5-19.2c-0.2-2.9-0.3-5.7-0.4-8.6C288.6,143.9,288.7,141.2,288.7,138.7z M279.1,98.3c0.9,0.9,1.8,1.7,2.5,2.7
		c0.2,0.3,0.4,0.4,0.8,0.3c1.5-0.3,2.4,0.1,3,1.1c0.7,1.2,0.7,2.1-0.3,3.3c-0.1,0.2-0.3,0.3-0.2,0.6c0.6,1.5,1.1,3.1,1.6,4.6
		c0.1,0.4,0.3,0.3,0.5,0.3c2.4-0.6,4.7-3.7,4.8-6.2c0-2.4-0.9-4.4-2.6-6.1c-1.4-1.4-3.2-2.2-5.2-2.3
		C282.3,96.7,280.6,97.3,279.1,98.3z M225.4,99.6c-1.6-0.9-3.2-1.5-5-1.4c-2.3,0.2-4.3,1.2-5.9,3c-1.7,2-2.4,4.3-1.7,6.9
		c0.6,2,2,3.3,3.9,4.2c1,0.5,1,0.5,1.3-0.6c0.2-0.7,0.4-1.4,0.7-2c0.3-0.7,0.3-1.2-0.5-1.7c-1.3-0.8-1.7-2-1.3-3.2
		c0.5-1.5,1.4-2,3-1.9c0.5,0,1,0.2,1.4,0.4c0.3,0.1,0.4,0.2,0.7-0.1C223,102,224.1,100.8,225.4,99.6z M220.8,207.9
		c0.3-1.2,1.1-2.1,1.7-3c0.1-0.2,0.1-0.6,0.6-0.4c0.4,0.2,0.1,0.5,0,0.8c-0.4,0.6-0.8,1.2-1.1,1.8c-0.2,0.5-0.6,0.9-0.1,1.5
		c0.5,0.5,1,0.9,1.8,0.7c1-0.2,1.8-0.8,2.6-1.4c1.8-1.4,3.3-3.1,5.8-3.8c-2.3-1.1-4.3-2.4-6.2-3.8c-0.3-0.2-0.5-0.2-0.7,0
		c-1.4,1-2.8,1.9-3.9,3.2C219.6,204.8,219.5,206.5,220.8,207.9z M284.5,207.2c1.2-1,1.3-2.2,0.5-3.7c-0.9-1.7-2.3-3-3.8-4.2
		c-0.4-0.3-0.6-0.1-0.9,0.2c-1,0.9-2.1,1.7-3.2,2.4c-0.4,0.3-1.2,0.5-1.3,0.9c-0.1,0.5,0.7,0.7,1,1c1.3,1.2,2.3,2.7,3.6,3.8
		c1,0.9,2,1,3,0.4c0.3-0.2,0.4-0.4,0.2-0.7c-0.4-0.9-0.6-1.9-1.4-2.7c-0.2-0.2-0.2-0.4,0-0.6c0.2-0.2,0.4,0,0.6,0.1
		c0.2,0.2,0.4,0.5,0.5,0.7C283.8,205.6,284.2,206.4,284.5,207.2z M217.6,152.4c0-0.8,0-1.3,0-1.8c0-0.4-0.1-0.6-0.5-0.5
		c-2.1,0.2-4.1,0.5-5.7,1.9c-0.7,0.6-1.3,1.2-1.3,2.2c0,0.6,0.2,1,0.9,0.6c0.2-0.1,0.4-0.2,0.6-0.3c0.2-0.1,0.3-0.4,0.5-0.2
		c0.2,0.2,0.1,0.5-0.1,0.7c-0.1,0.1-0.3,0.3-0.5,0.3c-0.8,0.2-0.7,0.7-0.4,1.1c0.4,0.6,0.9,0.8,1.7,0.7c1.6-0.3,2.8-1.5,4.3-2
		c0.3-0.1,0.3-0.3,0.3-0.6C217.7,153.7,217.7,152.9,217.6,152.4z M294.1,156.7c0.5,0.1,0.9-0.3,1.2-1c0.3-0.8-0.5-0.6-0.7-0.9
		c-0.2-0.2-0.7-0.5-0.4-0.8c0.3-0.4,0.6,0.1,0.8,0.2c0.3,0.2,0.6,0.4,0.9,0.2c0.4-0.2,0.4-0.7,0.3-1.1c-0.1-0.2-0.2-0.5-0.3-0.7
		c-1.4-2.1-3.7-2.7-6-3c-0.3,0-0.5,0.1-0.4,0.4c0.3,1.5,0.1,3,0.4,4.5c0,0.1,0,0.3,0.1,0.3C291.2,155.6,292.3,156.6,294.1,156.7z"/>
	<path class="st2" d="M17.2,141.4c0.3-0.5,0.8-1,1.1-1.5c0.7-1.2,1.7-1.5,3-1.5c13.1,0,26.2,0,39.3,0c1.2,0,1.3,0,1,1.2
		c-0.2,0.7-0.1,1.8-1.3,2c-0.4,0-0.9,0-1.3,0c-13.9,0-27.8,0-41.7,0c0,0,0,0,0,0C17.1,141.5,17.1,141.5,17.2,141.4z"/>
	<path class="st0" d="M66.1,130.1c-0.1,1.8-1.6,3.2-3.3,3.2c-10.4,0-20.8,0-31.1,0c-0.3,0-0.8,0.2-0.9-0.2c-0.2-0.4,0.3-0.5,0.5-0.8
		c0.3-0.7,1-1,1.2-1.7c0.2-0.4,0.7-0.5,1.1-0.6c0.2,0.2,0.5,0.2,0.8,0.2C44.9,130.2,55.5,130.2,66.1,130.1z"/>
	<path class="st2" d="M46.7,150.4c-2.3,0-4.7,0-7,0c-0.3,0-0.7,0-0.8-0.3c-0.1-0.3,0.1-0.5,0.3-0.7c0.1-0.1,0.2-0.2,0.3-0.4
		c0.5-2,2-2.2,3.7-2.1c5.2,0.1,10.4,0.1,15.6,0c0.8,0,1,0.2,0.9,0.9c-0.1,0.6,0,1.1,0,1.7c0,0.5-0.1,0.8-0.6,0.9
		c-0.2-0.2-0.5-0.2-0.7-0.2c-3.7,0-7.3,0-11,0C47.1,150.3,46.9,150.2,46.7,150.4z"/>
	<path class="st3" d="M17.1,141.6c13.9,0,27.8,0,41.7,0c0.4,0,0.9,0,1.3,0c-0.3,0.2-0.6,0.1-0.9,0.1c-13.7,0-27.5,0-41.2,0.1
		C17.8,141.8,17.4,142,17.1,141.6z"/>
	<path class="st3" d="M66.1,130.1c-10.6,0-21.2,0-31.8,0c-0.3,0-0.6,0.1-0.8-0.2c7.1,0,14.3,0,21.4,0c3.4,0,6.8,0,10.1,0
		C65.4,130,65.8,129.8,66.1,130.1z"/>
	<path class="st3" d="M132.3,140.6c-0.1,0.7-0.6,0.4-0.9,0.4c-4.7,0-9.5,0-14.2,0c-4.5,0-9,0-13.5,0c-0.3,0-0.7,0.1-1-0.1
		c0.8,0,1.6,0,2.4,0c8.7,0,17.4,0,26.1,0C131.6,140.9,132,141,132.3,140.6z"/>
	<path class="st4" d="M46.7,150.4c0.2-0.2,0.4-0.1,0.6-0.1c3.7,0,7.3,0,11,0c0.2,0,0.5-0.1,0.7,0.2
		C54.9,150.4,50.8,150.4,46.7,150.4z"/>
	<path class="st3" d="M108.5,112.2c-1.4,0.2-2.7,0.2-4.1,0C105.7,112.1,107.1,112.1,108.5,112.2z"/>
	<path class="st3" d="M17.2,141.4c0,0.1,0,0.2,0,0.3C16.9,141.5,17.1,141.5,17.2,141.4z"/>
	<path class="st0" d="M288.7,138.7c0,2.4,0,5.1,0,7.8c0.1,2.9,0.1,5.7,0.4,8.6c0.5,6.4,0.8,12.8,0.5,19.2
		c-0.3,5.4-1.3,10.7-3.4,15.8c-2.7,6.5-7.5,10.9-14,13.7c-3.6,1.6-7.4,2.4-11.3,3c-4,0.6-8.1,0.7-12.1,0.5c-7.5-0.4-14.6-2-21-6.3
		c-5.2-3.5-8.2-8.5-9.7-14.5c-1.2-4.9-1.3-9.9-1.1-14.9c0.1-3.7,0.4-7.3,0.7-11c0.3-3.1,0.6-6.3,0.5-9.4c-0.1-3.7-0.3-7.4-0.7-11.1
		c-0.2-2-0.2-4.1-0.4-6.1c-0.3-3.3-0.5-6.7-0.3-10c0.2-5.4,1-10.8,3.3-15.8c2.9-6.5,8-10.7,14.6-13.2c3.2-1.2,6.6-1.9,10-2.5
		c4.1-0.7,8.1-0.9,12.2-0.7c5.7,0.3,11.3,1.1,16.5,3.7c6.2,3.2,10.2,8.2,12.2,14.9c1.1,3.9,1.8,7.9,2.3,12
		C288.6,127.6,288.4,133.1,288.7,138.7z M257.5,118.9c0-1.8-0.7-2.8-2.4-3.3c-1.7-0.6-3.4-0.5-5.1,0.2c-1.2,0.5-2.2,1.3-2.4,2.8
		c-0.1,0.3-0.2,0.5-0.6,0.5c-1.3,0.4-2.2,1.2-2.9,2.3c-1.2,2.2-0.4,4.9,1.8,5.5c0.6,0.2,0.6,0.4,0.6,0.8c-0.1,1.4,0,2.8,0.7,4.2
		c0.8,1.5,2.2,2.1,3.4,1.2c1.1-0.9,1.6-0.9,2.7,0.1c1.2,1.2,3.9,0,3.9-1.6c0-1.3,0.2-2.7-0.1-4c-0.1-0.5,0-0.6,0.6-0.5
		c1.5,0.4,3-0.4,3.8-1.8c0.6-1.1,0.4-2.7-0.6-3.8C260.1,120.3,258.9,119.5,257.5,118.9z M267.2,97.3c-4.7,0-7.9,1.2-10.4,3.8
		c-4.3,4.5-3.8,11.8,1.5,15.4c3.4,2.3,7.1,2.6,10.8,1.4c5.3-1.6,8.6-5.9,7.7-11.7C275.9,100.8,271.8,97.2,267.2,97.3z M237.3,119.6
		c0.6,0,1.4,0,2.2-0.2c2.8-0.6,5.3-1.7,7.2-4c1.8-2.1,2.4-4.5,2.3-7.1c-0.2-3.2-1.4-6-4.2-7.8c-4.4-2.9-9-2.8-13.5-0.3
		c-4.6,2.5-6.3,7.6-4.7,12.4C228.1,116.8,232,119.7,237.3,119.6z"/>
	<path class="st0" d="M279.1,98.3c1.5-1,3.2-1.6,4.9-1.6c2,0,3.8,0.8,5.2,2.3c1.7,1.7,2.6,3.7,2.6,6.1c0,2.5-2.4,5.5-4.8,6.2
		c-0.2,0.1-0.4,0.1-0.5-0.3c-0.5-1.6-1-3.1-1.6-4.6c-0.1-0.3,0.1-0.4,0.2-0.6c0.9-1.2,1-2.1,0.3-3.3c-0.7-1.1-1.5-1.4-3-1.1
		c-0.4,0.1-0.6-0.1-0.8-0.3C280.9,100.1,280,99.3,279.1,98.3z"/>
	<path class="st0" d="M225.4,99.6c-1.2,1.2-2.3,2.4-3.3,3.7c-0.2,0.4-0.4,0.2-0.7,0.1c-0.4-0.2-0.9-0.4-1.4-0.4
		c-1.6-0.1-2.5,0.4-3,1.9c-0.4,1.2,0,2.4,1.3,3.2c0.8,0.5,0.8,0.9,0.5,1.7c-0.3,0.6-0.5,1.3-0.7,2c-0.3,1.1-0.3,1.1-1.3,0.6
		c-1.9-0.9-3.4-2.2-3.9-4.2c-0.7-2.6,0-4.9,1.7-6.9c1.5-1.8,3.5-2.9,5.9-3C222.1,98.2,223.8,98.7,225.4,99.6z"/>
	<path class="st5" d="M220.8,207.9c-1.3-1.3-1.2-3.1,0.2-4.6c1.1-1.3,2.5-2.2,3.9-3.2c0.3-0.2,0.5-0.2,0.7,0
		c1.9,1.5,3.9,2.7,6.2,3.8c-2.4,0.7-4,2.4-5.8,3.8c-0.8,0.6-1.6,1.2-2.6,1.4c-0.8,0.2-1.3-0.2-1.8-0.7c-0.5-0.6-0.1-1.1,0.1-1.5
		c0.3-0.6,0.8-1.2,1.1-1.8c0.1-0.2,0.4-0.5,0-0.8c-0.4-0.2-0.4,0.2-0.6,0.4C221.9,205.8,221.1,206.7,220.8,207.9z"/>
	<path class="st5" d="M284.5,207.2c-0.4-0.8-0.7-1.6-1-2.3c-0.1-0.3-0.4-0.5-0.5-0.7c-0.1-0.2-0.3-0.3-0.6-0.1
		c-0.2,0.2-0.1,0.4,0,0.6c0.7,0.8,0.9,1.8,1.4,2.7c0.1,0.3,0.1,0.5-0.2,0.7c-1,0.6-2,0.5-3-0.4c-1.3-1.1-2.3-2.6-3.6-3.8
		c-0.4-0.4-1.1-0.6-1-1c0.1-0.4,0.8-0.6,1.3-0.9c1.1-0.7,2.2-1.5,3.2-2.4c0.2-0.2,0.5-0.5,0.9-0.2c1.5,1.2,2.9,2.5,3.8,4.2
		C285.9,205,285.7,206.2,284.5,207.2z"/>
	<path class="st6" d="M217.6,152.4c0,0.5,0,1.3-0.2,2.1c-0.1,0.3-0.1,0.5-0.3,0.6c-1.5,0.5-2.7,1.7-4.3,2c-0.7,0.1-1.3-0.1-1.7-0.7
		c-0.3-0.5-0.4-1,0.4-1.1c0.2,0,0.3-0.2,0.5-0.3c0.3-0.2,0.3-0.5,0.1-0.7c-0.2-0.2-0.4,0-0.5,0.2c-0.2,0.1-0.4,0.2-0.6,0.3
		c-0.7,0.4-0.9,0-0.9-0.6c0-1,0.6-1.6,1.3-2.2c1.6-1.4,3.6-1.8,5.7-1.9c0.4,0,0.6,0.1,0.5,0.5C217.6,151.1,217.6,151.6,217.6,152.4z
		"/>
	<path class="st6" d="M294.1,156.7c-1.8-0.1-2.9-1-4.2-1.8c-0.1,0-0.1-0.2-0.1-0.3c-0.3-1.5,0-3-0.4-4.5c-0.1-0.3,0.1-0.5,0.4-0.4
		c2.3,0.3,4.6,0.8,6,3c0.1,0.2,0.2,0.4,0.3,0.7c0.1,0.4,0.1,0.8-0.3,1.1c-0.3,0.2-0.6-0.1-0.9-0.2c-0.3-0.2-0.5-0.6-0.8-0.2
		c-0.2,0.3,0.2,0.6,0.4,0.8c0.3,0.3,1.1,0.1,0.7,0.9C295,156.4,294.6,156.7,294.1,156.7z"/>
	<path class="st7" d="M247.7,118.6c0.1-1.5,1.1-2.3,2.4-2.8c1.6-0.7,3.3-0.8,5.1-0.2c1.7,0.6,2.3,1.5,2.4,3.3
		c-0.2,0.1-0.2,0.4-0.2,0.6c-1.4,1.3-3.2,1.8-5,1.8c-1.7,0-3.4-0.1-4.6-1.7C247.7,119.3,247.7,118.9,247.7,118.6z"/>
	<path class="st8" d="M267.2,97.3c4.5-0.1,8.7,3.5,9.6,9c0.9,5.8-2.4,10.1-7.7,11.7c-3.8,1.1-7.5,0.8-10.8-1.4
		c-5.4-3.6-5.8-10.9-1.5-15.4C259.3,98.5,262.5,97.3,267.2,97.3z M265.3,117.8c0.8-0.1,1.7,0,2.6-0.2c2.8-0.6,5.2-1.9,6.9-4.2
		c1.7-2.3,1.9-5,1.3-7.7c-0.5-2.3-1.6-4.3-3.5-5.7c-2.4-1.8-5.1-2.4-8.1-1.9c-3.3,0.5-6.1,1.9-8.1,4.7c-1.5,2.1-2.2,4.4-1.7,7
		C255.6,114.8,259.9,117.9,265.3,117.8z"/>
	<path class="st8" d="M237.3,119.6c-5.3,0-9.3-2.8-10.7-7.1c-1.6-4.8,0.1-9.9,4.7-12.4c4.5-2.5,9.1-2.6,13.5,0.3
		c2.7,1.8,4,4.6,4.2,7.8c0.2,2.7-0.5,5.1-2.3,7.1c-1.9,2.3-4.4,3.4-7.2,4C238.7,119.6,237.9,119.7,237.3,119.6z M226.8,108.9
		c-0.1,3.7,1.3,6.4,4.1,8.3c2.3,1.5,4.8,2.1,7.6,1.7c2.4-0.3,4.6-1.1,6.5-2.6c2.7-2.2,3.7-5.1,3.3-8.6c-0.4-3.3-1.9-5.8-4.9-7.4
		c-2.6-1.4-5.4-1.6-8.3-1C230.4,100.4,226.6,104.1,226.8,108.9z"/>
	<path class="st9" d="M247.7,118.6c0,0.4,0,0.7,0,1.1c-1.8,0.5-3,1.7-3.3,3.6c-0.2,1.8,0.9,3.1,2.7,3c1,0,1.8-0.4,2.7-0.7
		c1.6-0.6,3.1-1,4.8-0.4c1,0.3,2,0.7,2.9,1.1c1.5,0.5,2.6,0.1,3.4-1.2c0.7-1.1,0.5-2.1-0.6-3.3c-0.9-1-2-1.6-3.1-2.3
		c0-0.2,0-0.4,0.2-0.6c1.4,0.6,2.6,1.5,3.6,2.6c1,1.1,1.3,2.6,0.6,3.8c-0.8,1.5-2.3,2.2-3.8,1.8c-0.6-0.2-0.7,0-0.6,0.5
		c0.3,1.3,0.1,2.7,0.1,4c-0.1,1.6-2.7,2.7-3.9,1.6c-1.1-1-1.6-0.9-2.7-0.1c-1.2,1-2.6,0.4-3.4-1.2c-0.7-1.3-0.8-2.7-0.7-4.2
		c0-0.5,0-0.7-0.6-0.8c-2.2-0.6-3.1-3.2-1.8-5.5c0.6-1.2,1.6-2,2.9-2.3C247.5,119,247.6,118.8,247.7,118.6z M252.6,129.1
		c-0.1,1.9,0.2,3.1,1.6,3.7c1,0.4,2.2-0.4,2.5-1.4c0.3-1.4-0.2-2.9,0-4.3c0-0.2,0-0.4-0.3-0.5c-0.9-0.3-1.7-0.7-2.6-0.9
		c-0.6-0.1-1.1,0.1-1,0.8C252.8,127.5,252.7,128.5,252.6,129.1z M252.1,125.6c-1.5,0.4-2.8,0.8-4.2,1.2c-0.2,0-0.3,0.1-0.4,0.4
		c-0.3,1.7-0.1,3.3,0.8,4.7c0.3,0.6,0.9,1.1,1.6,0.8c0.8-0.3,1.8-0.7,1.9-1.6C252,129.3,251.7,127.5,252.1,125.6z"/>
	<path class="st5" d="M257.3,119.4c1.1,0.7,2.2,1.3,3.1,2.3c1.1,1.2,1.3,2.2,0.6,3.3c-0.8,1.3-1.9,1.7-3.4,1.2c-1-0.3-2-0.7-2.9-1.1
		c-1.7-0.6-3.2-0.2-4.8,0.4c-0.9,0.3-1.7,0.7-2.7,0.7c-1.8,0-3-1.2-2.7-3c0.2-1.9,1.4-3.1,3.3-3.6c1.2,1.6,2.9,1.7,4.6,1.7
		C254.1,121.2,255.9,120.8,257.3,119.4z"/>
	<path class="st10" d="M265.3,117.8c-5.3,0.1-9.7-3-10.6-8.1c-0.5-2.6,0.2-4.9,1.7-7c2-2.8,4.7-4.2,8.1-4.7c3-0.4,5.7,0.2,8.1,1.9
		c1.9,1.4,3,3.4,3.5,5.7c0.6,2.7,0.3,5.4-1.3,7.7c-1.7,2.3-4.1,3.6-6.9,4.2C267,117.8,266.1,117.7,265.3,117.8z M263.1,108.7
		c0-2-1.4-3.5-3.2-3.6c-1.9,0-3.3,1.4-3.3,3.5c0,2.1,1.5,3.6,3.3,3.6C261.7,112.3,263.1,110.7,263.1,108.7z"/>
	<path class="st10" d="M226.8,108.9c-0.2-4.7,3.6-8.5,8.3-9.5c2.9-0.6,5.7-0.4,8.3,1c2.9,1.6,4.5,4.1,4.9,7.4
		c0.4,3.5-0.7,6.3-3.3,8.6c-1.9,1.6-4.1,2.3-6.5,2.6c-2.8,0.3-5.3-0.2-7.6-1.7C228.1,115.3,226.8,112.5,226.8,108.9z M235.5,109.6
		c0-1.9-1.7-3.8-3.4-3.6c-2,0.2-3.3,1.5-3.3,3.7c0,2.3,1.5,3.6,3.3,3.6C234.2,113.1,235.3,111.7,235.5,109.6z"/>
	<path class="st11" d="M252.6,129.1c0.1-0.6,0.2-1.6,0.2-2.7c0-0.7,0.4-0.9,1-0.8c0.9,0.2,1.7,0.6,2.6,0.9c0.3,0.1,0.3,0.3,0.3,0.5
		c-0.1,1.4,0.4,2.8,0,4.3c-0.2,1-1.5,1.8-2.5,1.4C252.8,132.2,252.6,131,252.6,129.1z"/>
	<path class="st11" d="M252.1,125.6c-0.3,1.9-0.1,3.7-0.3,5.6c-0.1,0.9-1,1.3-1.9,1.6c-0.8,0.2-1.3-0.3-1.6-0.8
		c-0.9-1.5-1-3.1-0.8-4.7c0-0.2,0.2-0.3,0.4-0.4C249.2,126.4,250.6,126,252.1,125.6z"/>
	<path class="st7" d="M263.1,108.7c0,2-1.4,3.6-3.2,3.6c-1.8,0-3.4-1.5-3.3-3.6c0-2.1,1.4-3.6,3.3-3.5
		C261.7,105.2,263.1,106.7,263.1,108.7z M260.6,109.5c0.1,0.4,0.2,0.9,0.7,0.9c0.6,0,0.8-0.4,0.8-0.9c0-0.5-0.3-0.9-0.8-0.9
		C260.8,108.6,260.7,109,260.6,109.5z"/>
	<path class="st7" d="M235.5,109.6c-0.2,2.1-1.3,3.6-3.3,3.6c-1.8,0-3.3-1.2-3.3-3.6c0-2.2,1.3-3.5,3.3-3.7
		C233.8,105.8,235.5,107.7,235.5,109.6z M232.9,110.4c-0.1,0.6,0.3,1,0.8,1c0.4,0,0.8-0.3,0.8-0.9c0-0.5-0.2-0.9-0.7-1
		C233.1,109.5,232.9,109.9,232.9,110.4z"/>
	<path class="st11" d="M260.6,109.5c0.1-0.5,0.2-0.9,0.7-0.9c0.5,0,0.8,0.5,0.8,0.9c0,0.5-0.3,0.9-0.8,0.9
		C260.8,110.4,260.7,109.9,260.6,109.5z"/>
	<path class="st11" d="M232.9,110.4c0-0.5,0.2-0.9,0.8-0.8c0.6,0,0.7,0.4,0.7,1c0,0.6-0.3,0.9-0.8,0.9
		C233.1,111.3,232.8,110.9,232.9,110.4z"/>
</g>
</svg>
