<?xml version="1.0" encoding="utf-8"?>
<!-- Generator: Adobe Illustrator 26.1.0, SVG Export Plug-In . SVG Version: 6.00 Build 0)  -->
<svg version="1.1" id="svg2816" xmlns:svg="http://www.w3.org/2000/svg"
	 xmlns="http://www.w3.org/2000/svg" xmlns:xlink="http://www.w3.org/1999/xlink" x="0px" y="0px" viewBox="0 0 315 300"
	 style="enable-background:new 0 0 315 300;" xml:space="preserve">
<style type="text/css">
	.st0{fill:#CC2227;}
	.st1{fill:#CC2728;}
</style>
<g>
	<path class="st0" d="M183.3,111.7c-0.7,0.6-1.4,1.1-2.1,1.7c-0.4,0.4-0.7,0-1-0.2c-2.2-1.6-4.4-3.1-6.6-4.5
		c-7.4-4.8-15.2-8.8-23.7-11.5c-7.1-2.2-14.4-3.3-21.8-2.9c-6.8,0.4-13.2,2.1-19.3,4.9C94.3,105.7,85.3,117,80.6,132
		c-1.6,5.1-2.4,10.3-2.9,15.6c-0.4,5-0.4,9.9-0.1,14.9c0.2,3.1,0.5,6.2,1.2,9.3c0.1,0.3,0.1,0.7,0.1,1c-0.3,0.3-0.6,0.2-1,0.2
		c-18.8,0-37.7,0-56.5,0c-0.1,0-0.3,0-0.4,0c-0.8,0-0.8,0-0.7-0.8c0.4-2.6,0.9-5.3,1.5-7.8c4-16.6,10.8-32,20.6-46
		c8.9-12.8,19.9-23.4,33.3-31.5C82,83,88.6,80,95.7,78.4c4.7-1.1,9.4-1.4,14.1-1.3c11.8,0.2,23,3.2,33.8,7.9
		c14.4,6.4,27.3,15.1,38.9,25.8C182.8,111,183.2,111.2,183.3,111.7z"/>
	<path class="st0" d="M123.9,160.3c0,1.1,0,1.9,0,2.8c0,2.8,0,5.6,0,8.4c0,1.5,0.1,1.3-1.3,1.3c-3.9,0-7.8,0-11.7,0
		c-1.3,0-1.3,0.2-1.3-1.3c0-16.7,0-33.5,0-50.2c0-0.2,0-0.4,0-0.6c-0.1-0.6,0.2-0.8,0.7-0.7c0.3,0,0.6,0,0.9,0c8.4,0,16.9,0,25.3,0
		c7.5,0,14.5,5.3,16.4,12.5c1.2,4.7,1.1,9.3-0.5,13.9c-1.8,5.1-5.4,8.4-10.7,9.7c-0.2,0.1-0.5,0.1-0.9,0.2
		c5.5,5.5,10.9,11,16.3,16.4c-0.2,0.4-0.5,0.2-0.8,0.2c-6.4,0-12.7,0-19.1,0c-0.7,0-1.2-0.2-1.6-0.7c-3.4-3.6-6.9-7.1-10.3-10.7
		C124.9,161.1,124.6,160.7,123.9,160.3z M129.8,133.2c-1.7,0-3.3,0-5,0c-0.9,0-0.9,0-0.9,0.9c0,3.4,0,6.9,0,10.3c0,0.9,0,0.9,1,0.9
		c3.2,0,6.4,0,9.5,0c0.8,0,1.5-0.3,2-0.9c1.2-1.1,1.8-2.6,2-4.3c0.2-2.2-0.2-4.3-1.8-6c-0.6-0.7-1.4-1.1-2.4-1
		C132.9,133.3,131.4,133.2,129.8,133.2z"/>
	<path class="st0" d="M202.8,152.7c0,6.2,0,12.4,0,18.6c0,0.3,0,0.6,0,0.9c0,0.5-0.1,0.8-0.7,0.7c-0.1,0-0.2,0-0.3,0
		c-4,0-8.1,0-12.1,0c-1,0-1,0-1-1c0-2.4,0-4.8,0-7.3c0-1,0-1.1-1.1-1.1c-3.8,0-7.6,0-11.5,0c-1.1,0-1.1,0-1.1,1c0,2.4,0,4.8,0,7.3
		c0,1,0,1-1,1c-4.2,0-8.3,0-12.5,0c-1,0-1,0-1-1.1c0-7,0-14,0-21c0-5.4,0-10.8,0-16.2c0-2.9,0.8-5.5,2.3-8c2.4-3.8,5.8-6,10.3-6.3
		c3.7-0.2,7.5-0.1,11.2-0.1c1.9,0,3.9-0.2,5.8,0.1c5.3,0.8,9.5,3.3,11.6,8.5c0.7,1.7,0.9,3.5,0.9,5.4
		C202.8,140.4,202.8,146.5,202.8,152.7z M181.9,148.6c1.9,0,3.7,0,5.6,0c1.2,0,1.2,0,1.2-1.3c0-1.9,0-3.8,0-5.7c0-1.8,0-3.6,0-5.3
		c0-1.7-0.8-2.7-2.5-3.2c-0.3-0.1-0.7-0.1-1-0.1c-2.1,0-4.2,0-6.4,0c-0.6,0-1.2,0.2-1.7,0.4c-1.3,0.5-2,1.5-2,2.9
		c0,3.8,0,7.6,0,11.4c0,0.9,0,0.9,0.9,0.9C178,148.6,179.9,148.6,181.9,148.6z"/>
	<path class="st0" d="M283.6,172.9c-3.9,0-7.9,0-11.8,0c-1,0-1,0-1-1c0-3.8,0-7.5,0-11.3c0-1.2,0-1.1,1.1-1.1c7.3,0,14.6,0,21.9,0
		c1.7,0,1.6,0.2,1.6-1.5c0-1.3,0-2.5,0-3.8c0-1.2,0-1.2-1.2-1.2c-3.4,0-6.9,0-10.3,0c-4.1-0.1-7.6-1.7-10.4-4.6
		c-2.1-2.2-3.2-4.9-3.4-7.9c-0.2-2.5-0.2-5.1,0.1-7.6c0.6-6.2,5.5-10.6,10.8-11.9c1.1-0.3,2.3-0.4,3.4-0.4c7.1,0,14.2,0,21.4,0
		c0.2,0,0.3,0,0.5,0c0.5,0,0.7,0.1,0.7,0.6c0,0.1,0,0.3,0,0.4c0,3.8,0,7.6,0,11.4c0,1,0,1-1,1c-7.2,0-14.3,0-21.5,0
		c-1.6,0-1.4-0.1-1.4,1.4c0,1.3,0,2.6,0,3.9c0,0.7,0.2,0.8,0.9,0.8c3.9,0,7.7-0.2,11.6,0c5.7,0.3,9.9,3,12.4,8.3
		c0.7,1.5,1,3.1,1.1,4.7c0.1,2.5,0.2,5-0.1,7.5c-0.8,7.3-6.3,11.1-11.5,12.1c-1,0.2-1.9,0.2-2.9,0.2
		C290.8,172.9,287.2,172.9,283.6,172.9z"/>
	<path class="st0" d="M230.6,146.6c0-8.2,0-16.4,0-24.5c0-0.2,0-0.4,0-0.6c0-1.1,0-1.1,1.1-1.1c4.2,0,8.5,0,12.7,0
		c1.3,0,1.2,0,1.2,1.2c0,12.1,0,24.2,0,36.2c0,1.6-0.2,1.5,1.5,1.5c5.7,0,11.4,0,17,0c0.2,0,0.3,0,0.5,0c1.2,0,1.2,0,1.2,1.2
		c0,3.8,0,7.5,0,11.3c0,1,0,1-1.1,1c-11.1,0-22.1,0-33.2,0c-1,0-1,0-1-1.1C230.6,163.4,230.6,155,230.6,146.6z"/>
	<path class="st0" d="M209.4,146.6c0-8.2,0-16.4,0-24.6c0-0.2,0-0.4,0-0.6c0-1.1,0-1.1,1.1-1.1c4.3,0,8.6,0,12.9,0
		c1.1,0,1.1,0,1.1,1.1c0,16.7,0,33.5,0,50.2c0,0.2,0,0.4,0,0.6c0,0.4-0.2,0.5-0.5,0.5c-0.2,0-0.3,0-0.5,0c-4.3,0-8.7,0-13,0
		c-1,0-1,0-1-1.1C209.4,163.4,209.4,155,209.4,146.6z"/>
	<path class="st1" d="M18.8,134c2.9,1.1,5.7,2.1,8.4,3.1c0,0.5-0.2,0.8-0.3,1.1c-1,2.4-2,4.8-3,7.1c-0.2,0.5-0.4,0.7-0.9,0.5
		c-2.4-0.9-4.8-1.8-7.3-2.7c-0.4-0.2-0.6-0.3-0.4-0.8C16.4,139.6,17.6,136.8,18.8,134z"/>
	<path class="st1" d="M81.3,158.1c0.7,0.1,1.4,0.4,2,0.6c1.7,0.6,3.4,1.2,5.1,1.8c0.4,0.1,0.8,0.3,0.8,0.8c0.4,2.9,0.9,5.7,1.5,8.5
		c0,0.1,0,0.2,0,0.4c-0.4,0.2-0.6-0.1-0.9-0.2c-2.3-0.8-4.7-1.7-7-2.5c-0.5-0.2-0.8-0.3-0.9-0.9c-0.4-2.8-0.6-5.6-0.8-8.3
		C81.2,158.3,81.2,158.3,81.3,158.1z"/>
	<path class="st1" d="M44.5,99.3c1.6,1.4,3.2,2.8,4.8,4.2c0.3,0.3,0.4,0.5,0.1,0.8c-1.6,1.7-3.1,3.5-4.7,5.4
		c-1.9-1.6-3.8-3.2-5.7-4.9C40.8,103,42.6,101.2,44.5,99.3z"/>
	<path class="st1" d="M88.1,143.7c-0.8-0.5-1.5-1.1-2.2-1.7c-1-0.8-2.1-1.6-3.1-2.4c-0.3-0.2-0.6-0.5-0.5-0.9
		c0.6-2.5,1.2-5.1,2.1-7.7c1.7,1.4,3.3,2.7,5,3.9c0.3,0.2,0.3,0.5,0.2,0.8c-0.7,2.5-1.1,5.1-1.4,7.7
		C88.3,143.5,88.2,143.6,88.1,143.7z"/>
	<path class="st1" d="M96.6,120.6c-1.1-1.7-2.2-3.3-3.3-4.9c-0.2-0.3-0.2-0.5,0.1-0.8c1.2-1.5,2.5-2.9,3.9-4.2
		c0.3-0.3,0.5-0.3,0.7,0c0.9,1.4,1.9,2.8,2.8,4.2c0.2,0.3,0.1,0.5-0.1,0.8C99.2,117.2,97.9,118.8,96.6,120.6z"/>
	<path class="st1" d="M77.8,81.9c-1.8,1-3.5,2-5.2,3c-0.4,0.2-0.6,0.2-0.8-0.2c-0.9-1.4-1.8-2.8-2.8-4.2c-0.3-0.4-0.1-0.6,0.2-0.8
		c1.6-0.9,3.2-1.7,4.8-2.6c0.4-0.2,0.6-0.1,0.8,0.2C75.8,78.8,76.8,80.3,77.8,81.9z"/>
	<path class="st1" d="M142.4,81.5c-1.9-0.7-3.8-1.4-5.6-2.1c-1.5-0.5-1.5-0.5-1.5-2.2c0-1,0.1-2,0.2-2.9c0.2-0.2,0.3-0.2,0.4-0.2
		c2.1,0.5,4.1,1.2,6.1,2.1c0.5,0.2,0.7,0.4,0.7,1C142.6,78.6,142.5,80,142.4,81.5z"/>
	<path class="st1" d="M113.2,106.5c-0.5-1.6-1-3.1-1.5-4.6c-0.1-0.4,0-0.6,0.4-0.8c1.8-0.7,3.6-1.4,5.5-2c0.4-0.1,0.6,0,0.7,0.3
		c0.4,1.3,0.9,2.6,1.3,3.9c0.1,0.4,0,0.6-0.4,0.8C117.1,104.8,115.2,105.6,113.2,106.5z"/>
	<path class="st1" d="M142.4,102.8c-2.3-0.5-4.4-0.7-6.6-0.8c-0.6,0-0.8-0.2-0.8-0.8c0.1-1.1,0.2-2.2,0.2-3.3c0-0.5,0.2-0.6,0.6-0.6
		c2.1,0.1,4.2,0.5,6.3,0.8c0.5,0.1,0.5,0.4,0.5,0.8C142.6,100.1,142.5,101.4,142.4,102.8z"/>
	<path class="st1" d="M108.7,74.1c-2.3,0-4.5,0-6.7,0.2c-0.3,0-0.6,0-0.7-0.4c-0.4-1.3-0.8-2.5-1.3-3.9c2.3-0.3,4.4-0.5,6.6-0.5
		c0.4,0,0.6,0.1,0.7,0.5C107.8,71.4,108.2,72.7,108.7,74.1z"/>
</g>
</svg>
