<svg id="Bg" xmlns="http://www.w3.org/2000/svg" xmlns:xlink="http://www.w3.org/1999/xlink" width="1440" height="940" viewBox="0 0 1440 940">
  <defs>
    <linearGradient id="linear-gradient" x1="0.5" x2="0.5" y2="1" gradientUnits="objectBoundingBox">
      <stop offset="0" stop-color="#123075"/>
      <stop offset="1" stop-color="#092056"/>
    </linearGradient>
    <clipPath id="clip-path">
      <rect id="Mask" width="1440" height="940" fill="url(#linear-gradient)"/>
    </clipPath>
  </defs>
  <rect id="Mask-2" data-name="Mask" width="1440" height="940" fill="url(#linear-gradient)"/>
  <g id="Bg-2" data-name="Bg" clip-path="url(#clip-path)">
    <path id="Bg_Wave" data-name="Bg Wave" d="M2661.133,154.35C1912.053-60.95,1627.5-21.946,1267.788,241.52S132.683,56.733,19.972,2.114s410.672,1301.74,410.672,1301.74h2192.24S3410.214,369.65,2661.133,154.35Z" transform="matrix(0.985, 0.174, -0.174, 0.985, -979.588, 394)" fill="#1a47b0" opacity="0.05"/>
    <path id="Bg_Wave-2" data-name="Bg Wave" d="M-2290.606,132.859C-1869.529,1.82-1479.458,1.82-1077.384,155.865S-114.209,48.834-17.191,1.82-370.682,1122.31-370.682,1122.31h-1887S-2711.683,263.9-2290.606,132.859Z" transform="translate(1966.223 680)" fill="#1a47b0" opacity="0.3"/>
    <path id="Bg_Wave-3" data-name="Bg Wave" d="M2290.606,132.859C1869.529,1.82,1424-104,976,218S114.209,48.834,17.191,1.82,370.682,1122.31,370.682,1122.31h1887S2711.683,263.9,2290.606,132.859Z" transform="translate(-527 736)" fill="#1a47b0" opacity="0.3"/>
  </g>
</svg>
