<?xml version="1.0" encoding="utf-8"?>
<!-- Generator: Adobe Illustrator 26.1.0, SVG Export Plug-In . SVG Version: 6.00 Build 0)  -->
<svg version="1.1" id="svg2816" xmlns:svg="http://www.w3.org/2000/svg"
	 xmlns="http://www.w3.org/2000/svg" xmlns:xlink="http://www.w3.org/1999/xlink" x="0px" y="0px" viewBox="0 0 315 300"
	 style="enable-background:new 0 0 315 300;" xml:space="preserve">
<style type="text/css">
	.st0{fill:#12376A;}
	.st1{fill:#AA7B4E;}
	.st2{fill:#C1986B;}
</style>
<g>
	<path class="st0" d="M228.9,63.2c-4.7,1.8-9.6,2.7-14.5,3.1c-11.5,0.8-20,6.5-26.2,15.8c-4.1,6-7.9,12.2-11.8,18.4
		c-6.1,9.7-14.7,15.8-25.7,19.1c-6,1.8-12.2,3.1-18.3,4.5c-16.7,3.9-31.1,11.2-40.1,26.6c-2.9,5-7.5,7.1-13.2,7.4
		c-5.6,0.2-11.3,0.4-16.6,2.4c-2.3,0.9-5.8,1.9-5.6,4.1c0.2,2.9,3.7,3.2,6.5,3.3c0.2,0,0.3,0.4,0.6,0.6c-0.4,0.4-0.7,0.7-1.1,1
		c-1.6,1.3-4.5,2-3.6,4.7c0.8,2.3,3.4,2.3,5.5,2.7c0.8,0.2,1.7,0.1,2.5,0.2c10.8,0.7,20.1-3.2,28.5-9.6c7.4-5.7,15.8-7.9,25.1-7.8
		c10.7,0.1,21.1,2,31.6,3.2c3.6,0.4,4,1.7,2.2,4.3c-2.9,4.5-5.9,8.9-9.6,14.4c12.4-1.8,23.7-3,30.7-14.1c1.6-2.5,3.2-5,5.7-6.8
		c1.8-1.3,3.1-1.6,5.1,0.2c6.2,5.5,14.1,5.8,21.5,1.4c-6.7-6.9-7.4-15-4.8-23.9c3.2-11.1,6.5-22.2,8.3-33.7
		c1.3-8.5,5.4-15.1,12.4-20c2.4-1.7,4.6-3.8,6.7-5.9c3-2.9,4.3-6.7,4.5-10.8C235.6,63.4,233.3,61.5,228.9,63.2z M202.8,161.6
		c-4.8,0.7-10.3,0.6-11.8-3.3c-1.8-4.8,4-7.4,7.3-11.1C199.3,152.4,200.6,156.9,202.8,161.6z M231,74.9c-1.3,3-3.4,5.4-6.2,6.9
		c-10.3,5.5-14.6,14.5-16.4,25.6c-1.7,10.4-4.4,20.7-8.9,30.4c-2.5,5.3-5.5,10.2-9.9,14.1c-1,0.8-1.9,2.3-3.3,1.9
		c-1.5-0.5-0.8-2.3-1.2-3.5c-0.3-0.9-0.4-1.9-1-4.6c-6.4,15.6-14.1,28.2-32.2,31.6c5.7-7.9,10.1-15.1,11.6-23.5
		c0.5-2.7,1.4-5.5,0.7-9.2c-3.7,2.3-4.2,5.8-5.2,8.7c-1.4,4.1-3.7,6-8.4,5.9c-6.5-0.1-12.9-0.7-19.3-1.6c-13.2-2-25.3-0.3-36.4,7.6
		c-8.8,6.3-18.7,9.9-29.8,8.8c-0.8-0.1-1.6-0.2-2.9-0.3c1.8-3.1,5.8-3.5,6.6-7.2c-2.1-1-4.2-0.3-6.2-0.6c-0.8-0.1-1.8-0.2-2.1-1
		c-0.3-1.2,0.8-1.8,1.7-2c2.2-0.7,4.4-1.3,6.7-1.7c1.6-0.3,3.3-0.3,5-0.2c10.3,0.5,17.6-3.3,23.4-12.4c8.7-13.8,23.4-18.8,38.5-22.2
		c5.5-1.2,11-2.4,16.3-4.2c14-4.7,24.5-13.4,31.4-26.5c3-5.7,6.4-11.2,10.5-16.2c6.1-7.3,14-10.2,23.3-10.3
		c4.2-0.1,8.3-1.3,12.4,1.5C231.9,72.1,231.8,73.2,231,74.9z"/>
	<path class="st1" d="M61.4,198.9c-4.7,9.4-9.3,18.8-14.6,29.3c-5.2-10.4-9.9-19.8-15.1-30.2c-2.1,7.1-2,13.4-3.2,19.6
		c-0.4,1.9-0.6,3.9-0.9,5.9c-0.3,1.7,0.2,4.2-2.7,3.7c-2.9-0.5-1.5-3-1.3-4.5c1.4-10.3,2.9-20.6,4.5-30.9c0.3-1.9-0.2-4,1.7-6.2
		c5.7,11.3,11.1,22.2,16.9,33.8c5.7-11.6,11.2-22.5,16.6-33.4c0.4,0,0.7,0,1.1,0c0.6,4.3,1.2,8.6,1.8,12.9
		c1.2,8.2,2.5,16.4,3.6,24.5c0.2,1.4,1.3,3.5-1.4,3.9c-2.5,0.4-2.5-1.7-2.7-3.2c-1.2-8.3-2.3-16.6-3.5-24.9
		C62,199.1,61.7,199,61.4,198.9z"/>
	<path class="st1" d="M197.9,227.5c-9.3-0.2-9.3-0.2-9.3-9.5c0-9.8,0.1-19.5-0.1-29.3c0-2.8,0.8-3.8,3.6-3.7c5,0.2,9.9,0,14.9,0.8
		c10.5,1.6,17.1,9.7,17,21c0,11-6.5,18.6-17.3,20C203.9,227.2,200.9,227.3,197.9,227.5z M192.7,205.9c0,4.6,0,9.2,0,13.9
		c0,1.7-0.1,3.4,2.4,3.3c4.6-0.1,9.3,0.3,13.8-0.8c7.2-1.8,11.1-8.1,10.7-16.8c-0.4-8.1-5.4-14.1-13.5-15.3
		c-3.4-0.5-6.9-0.3-10.4-0.6c-2.5-0.2-3.2,0.8-3.1,3.1C192.7,197,192.7,201.4,192.7,205.9z"/>
	<path class="st1" d="M250.2,204.3c4.9,2.7,8.4,6.2,7.8,12.1c-0.6,5.5-4.4,9.2-10.4,10.4c-13.6,2.7-14.9,1.7-14.9-11.7
		c0-8.6,0.2-17.2-0.1-25.8c-0.1-3.6,1.1-4.8,4.5-4.4c2.8,0.3,5.6,0.1,8.4,0.6c9.2,1.8,11.9,9.7,6.1,17
		C251.1,203.2,250.6,203.7,250.2,204.3z M236.4,214.9c1.8,2.7-2.7,8.5,5,8.1c8.3-0.4,12-2.4,12.1-7.7c0-5.4-4.7-8.3-12.8-8.4
		C233.6,206.9,238.3,212.3,236.4,214.9z M236.6,195.9c1.4,2.2-2.6,7.1,3.8,6.9c6-0.2,9.6-2.7,9.7-6.9c0.1-4.3-3.3-6.5-9.7-6.7
		C234.7,189,237.6,193.3,236.6,195.9z"/>
	<path class="st1" d="M104.5,223.2c-10.2,6.9-17.9,6.6-24.2-0.8c-5.6-6.6-5.2-15.9,0.8-22.1c6.5-6.7,14.3-6.7,23.1,0
		c1.2-0.5,0.6-1.7,0.7-2.5c0.1-1.6,1-1.9,2.3-1.8c1.3,0.1,1.7,0.9,1.7,2c0,9.1,0,18.2,0,27.3c0,1.5-0.9,2-2.2,1.9
		C103.8,227.1,105.8,224.2,104.5,223.2z M105,212c0-7.1-5-12.5-11.9-12.6c-6.9-0.1-12.2,5.1-12.4,12.1c-0.2,7.1,5.4,13,12.2,13
		C99.5,224.5,105,218.9,105,212z"/>
	<path class="st1" d="M175.3,223.2c-9.9,6.8-17.5,6.7-23.8-0.3c-5.8-6.5-5.8-15.7,0-22.1c6.2-7,14.4-7.1,24.1-0.2
		c0.1-0.9,0.2-1.7,0.2-2.4c0-1.4,0.4-2.2,2-2.1c1.6,0,2,0.8,2,2.2c0,8.9,0,17.8,0,26.8c0,1.3-0.2,2.3-1.8,2.4
		C174.5,227.5,176.4,224.3,175.3,223.2z M175.8,212.1c0.1-7.2-4.9-12.5-11.8-12.7c-6.9-0.2-12.3,5-12.5,12
		c-0.2,7.1,5.2,13,12.1,13.1C170.2,224.6,175.7,219,175.8,212.1z"/>
	<path class="st1" d="M117.7,196c0.8,0.1,1.8,0,2,1.1c0.5,2.6,1.4,1.2,2.4,0.3c0.7-0.6,1.5-1.3,2.4-1.6c1.8-0.7,4.3-0.8,4.9,0.8
		c0.7,1.9-1.2,2.7-3.3,3.1c-5.2,1-5.6,5.6-6,9.6c-0.4,4.8-0.2,9.6-0.3,14.4c0,1.5,0.7,3.6-2,3.7c-2.6,0.1-2.3-1.8-2.3-3.5
		c0-8.1,0-16.2,0-24.3C115.5,198,115.1,196,117.7,196z"/>
	<path class="st1" d="M139.8,211.9c0,4.1,0,8.2,0,12.4c0,1.6,0,3.1-2.2,3c-2-0.1-1.8-1.5-1.8-2.8c0-8.4,0-16.8,0-25.2
		c0-1.4-0.4-3.1,2-3.2c2.3-0.1,2.1,1.6,2.1,3.1C139.8,203.4,139.8,207.6,139.8,211.9z"/>
	<path class="st1" d="M137.6,184.2c1.7,0.3,3.2,1.1,3.3,3.1c0.1,2.2-1.1,3.5-3.3,3.5c-1.9,0-3.1-1.4-3.1-3.2
		C134.4,185.6,135.6,184.5,137.6,184.2z"/>
	<path class="st2" d="M198.2,147.2c1,5.2,2.4,9.7,4.5,14.4c-4.8,0.7-10.3,0.6-11.8-3.3C189.2,153.4,194.9,150.9,198.2,147.2z"/>
	<path class="st0" d="M213.5,75.7c-0.6,2.9-2.6,4-5.5,4c-1.1-0.3-3.1,0.2-2.8-1.7c0.5-3.1,3.1-4,5.8-4.3
		C212.5,73.5,213.8,73.8,213.5,75.7z"/>
	<path class="st2" d="M229.7,70.6c-4.1-2.8-8.2-1.6-12.4-1.5c-9.2,0.1-17.2,3-23.3,10.3c-4.1,5-7.5,10.5-10.5,16.2
		c-6.9,13.1-17.4,21.8-31.4,26.5c-5.4,1.8-10.9,2.9-16.3,4.2c-15.1,3.4-29.8,8.5-38.5,22.2c-5.8,9.1-13.1,12.9-23.4,12.4
		c-1.7-0.1-3.3,0-5,0.2c-2.3,0.4-4.5,1-6.7,1.7c-0.9,0.3-2,0.8-1.7,2c0.2,0.9,1.2,0.9,2.1,1c2,0.3,4.2-0.4,6.2,0.6
		c-0.9,3.6-4.8,4.1-6.6,7.2c1.3,0.1,2.1,0.2,2.9,0.3c11.1,1.1,21-2.5,29.8-8.8c11.1-7.9,23.2-9.6,36.4-7.6c6.4,1,12.8,1.5,19.3,1.6
		c4.7,0.1,6.9-1.8,8.4-5.9c1-3,1.5-6.4,5.2-8.7c0.7,3.7-0.2,6.5-0.7,9.2c-1.6,8.4-5.9,15.7-11.6,23.5c18.1-3.4,25.8-16.1,32.2-31.6
		c0.5,2.7,0.7,3.7,1,4.6c0.4,1.2-0.3,3,1.2,3.5c1.4,0.5,2.3-1.1,3.3-1.9c4.5-3.9,7.5-8.8,9.9-14.1c4.5-9.7,7.2-20,8.9-30.4
		c1.8-11.1,6.1-20.1,16.4-25.6c2.8-1.5,4.9-3.9,6.2-6.9C231.8,73.2,231.9,72.1,229.7,70.6z M213.5,75.7c-0.6,2.9-2.6,4-5.5,4
		c-1.1-0.3-3.1,0.2-2.8-1.7c0.5-3.1,3.1-4,5.8-4.3C212.5,73.5,213.8,73.8,213.5,75.7z M217.5,80.2l-0.5-0.1c0.3-1.8,1.6-4,3-5.8
		c0.3-0.4,0.7-0.9,1.1-1.3c1.6-1.9,3.1-3.2,3.2-3.3l0.3,0.4c0,0-1.2,1.1-2.5,2.6c-0.8,0.9-1.7,2-2.5,3.1
		C218.6,77.2,217.7,78.8,217.5,80.2z M219.1,80.8l-0.5-0.1c0.2-1.2,0.8-2.6,1.6-3.9c1-1.5,2.2-3,3.3-4.2c0.2-0.1,0.3-0.3,0.4-0.4
		c1-1.1,1.9-1.9,1.9-2l0.3,0.4c0,0-1.2,1.2-2.7,2.8c0,0,0,0,0,0c-0.9,1-1.9,2.3-2.7,3.5C219.9,78.2,219.3,79.6,219.1,80.8z
		 M221.8,81.8c-0.1-1.8,0.8-4.2,1.9-6.3c0.1-0.2,0.2-0.5,0.4-0.7c1.2-2.1,2.3-3.7,2.4-3.8l0.4,0.3c0,0-1.4,1.8-2.6,4.1
		c0,0,0,0.1-0.1,0.2c-1.1,2.1-2.1,4.5-2,6.3L221.8,81.8z M224.4,81.3l-0.5,0.1c-0.2-1.3,0.4-3.1,1.1-4.8c0-0.1,0.1-0.2,0.1-0.3
		c1.2-2.6,2.7-4.9,2.8-5l0.4,0.3C228.3,71.7,224,78,224.4,81.3z"/>
	<g>
		<path class="st0" d="M224.7,70c0,0-1.2,1.1-2.5,2.6c-0.8,0.9-1.7,2-2.5,3.1c-1.1,1.5-1.9,3.1-2.2,4.5l-0.5-0.1
			c0.3-1.8,1.6-4,3-5.8c0.3-0.4,0.7-0.9,1.1-1.3c1.6-1.9,3.1-3.2,3.2-3.3L224.7,70z"/>
	</g>
	<g>
		<path class="st0" d="M226.2,70.6c0,0-1.2,1.2-2.7,2.8c0,0,0,0,0,0c-0.9,1-1.9,2.3-2.7,3.5c-0.8,1.3-1.5,2.6-1.7,3.8l-0.5-0.1
			c0.2-1.2,0.8-2.6,1.6-3.9c1-1.5,2.2-3,3.3-4.2c0.2-0.1,0.3-0.3,0.4-0.4c1-1.1,1.9-1.9,1.9-2L226.2,70.6z"/>
	</g>
	<g>
		<path class="st0" d="M227,71.2c0,0-1.4,1.8-2.6,4.1c0,0,0,0.1-0.1,0.2c-1.1,2.1-2.1,4.5-2,6.3l-0.5,0c-0.1-1.8,0.8-4.2,1.9-6.3
			c0.1-0.2,0.2-0.5,0.4-0.7c1.2-2.1,2.3-3.7,2.4-3.8L227,71.2z"/>
	</g>
	<g>
		<path class="st0" d="M224.4,81.3l-0.5,0.1c-0.2-1.3,0.4-3.1,1.1-4.8c0-0.1,0.1-0.2,0.1-0.3c1.2-2.6,2.7-4.9,2.8-5l0.4,0.3
			C228.3,71.7,224,78,224.4,81.3z"/>
	</g>
</g>
</svg>
