<?xml version="1.0" encoding="utf-8"?>
<!-- Generator: Adobe Illustrator 26.1.0, SVG Export Plug-In . SVG Version: 6.00 Build 0)  -->
<svg version="1.1" id="svg2816" xmlns:svg="http://www.w3.org/2000/svg"
	 xmlns="http://www.w3.org/2000/svg" xmlns:xlink="http://www.w3.org/1999/xlink" x="0px" y="0px" viewBox="0 0 315 300"
	 style="enable-background:new 0 0 315 300;" xml:space="preserve">
<style type="text/css">
	.st0{fill:#019901;}
</style>
<g>
	<path class="st0" d="M132.5,152.5c-3.7,0-7.4,0-11.1,0c-1.4,0-2.8,0.2-4.2-0.2c-2.4-0.6-4.3-3-4.4-5.3c-0.1-3.1,2.6-5.9,5.8-5.9
		c5.7,0,11.3,0,17,0c4.9,0,9.8,0,14.7,0c0.2,0,0.4,0,0.6,0c0,0.3-0.1,0.4-0.2,0.6c-4.7,9.5-9.5,19.1-14.2,28.6
		c-0.2,0.3-0.3,0.4-0.7,0.4c-10.3,0-20.5,0-30.8,0c-0.3,0-0.5-0.1-0.7-0.4c-4.9-8.7-9.9-17.4-14.8-26.1c-0.2-0.4-0.2-0.6,0-1
		c5-8.9,9.9-17.8,14.7-26.7c0.2-0.3,0.4-0.5,0.8-0.5c10.6,0,21.3,0,31.9,0c0.4,0,0.6,0.1,0.8,0.5c2.4,4.7,4.2,9.7,6.3,14.5
		c0.7,1.6,1.4,3.3,2,4.9c0.1,0.2,0.1,0.4,0.2,0.6c-0.2,0-0.3,0-0.5,0c-3.5,0-7,0-10.5,0c-0.4,0-0.5-0.1-0.7-0.4
		c-1.3-2.7-2.7-5.5-4-8.2c-0.2-0.3-0.3-0.5-0.7-0.5c-6.1,0-12.1,0-18.2,0c-0.3,0-0.5,0.1-0.6,0.4c-2.8,5.2-5.7,10.3-8.6,15.5
		c-0.2,0.3-0.1,0.5,0,0.7c2.8,5,5.7,9.9,8.5,14.9c0.2,0.3,0.3,0.4,0.7,0.4c5.7,0,11.3,0,17,0c0.4,0,0.5-0.1,0.7-0.4
		C130.4,156.8,131.4,154.7,132.5,152.5z"/>
	<path class="st0" d="M40.3,135.6c0,0.2,0,0.4,0,0.6c0,9.6,0,19.1,0,28.7c0,2.7-1.6,4.9-4.1,5.6c-3.6,1-7.2-1.6-7.3-5.4
		c0-0.1,0-0.2,0-0.4c0-14.3,0-28.6,0-42.8c0-2.8,1.7-5.1,4.3-5.7c2.1-0.5,3.9,0,5.4,1.5c1.5,1.5,3,3,4.5,4.5
		c9.6,9.6,19.1,19.1,28.7,28.7c0.1,0.1,0.2,0.3,0.5,0.4c0-0.2,0-0.4,0-0.6c0-9.6,0-19.2,0-28.7c0-2.7,1.6-4.9,4.1-5.6
		c3.6-1,7.2,1.6,7.3,5.3c0,0.1,0,0.3,0,0.4c0,14.3,0,28.6,0,42.8c0,2.8-1.7,5.1-4.3,5.7c-2.1,0.5-3.9,0-5.4-1.5
		c-2.5-2.5-5.1-5-7.6-7.6c-8.5-8.5-17.1-17-25.6-25.6c-0.1-0.1-0.2-0.3-0.3-0.4C40.4,135.6,40.4,135.6,40.3,135.6z"/>
	<path class="st0" d="M218.2,135.6c-0.2,0.2-0.4,0.3-0.5,0.5c-11,11-22.1,22-33.1,33c-1.8,1.8-4.3,2.3-6.6,1.3
		c-2-0.9-3.1-2.5-3.3-4.7c0-0.3,0-0.5,0-0.8c0-14.2,0-28.5,0-42.7c0-2.2,0.8-4,2.8-5.1c1.9-1.1,3.8-1.2,5.7-0.1
		c1.9,1.1,2.9,2.8,2.9,5c0,9.6,0,19.3,0,28.9c0,0.2,0,0.4,0,0.7c0.2-0.2,0.4-0.3,0.5-0.5c11-11,22-21.9,32.9-32.9
		c1.3-1.3,2.7-1.9,4.5-1.9c2.9,0.1,5.4,2.5,5.5,5.4c0,0.1,0,0.2,0,0.3c0,14.5,0,28.9,0,43.4c0,2.6-1.7,4.8-4.3,5.5
		c-3.4,0.9-6.9-1.6-7.1-5.1c0-0.3,0-0.6,0-0.9c0-9.5,0-18.9,0-28.4C218.2,136.1,218.2,135.9,218.2,135.6z"/>
	<path class="st0" d="M242,116.2c1.7,0,3.1,0.7,4.2,1.9c3.9,3.9,7.8,7.8,11.7,11.7c1.8,1.8,3.6,3.6,5.4,5.4c0.3,0.3,0.4,0.3,0.7,0
		c5.7-5.7,11.5-11.4,17.2-17.2c1.9-1.9,4.4-2.3,6.7-1.2c3.5,1.8,4.3,6.3,1.5,9.2c-2.7,2.7-5.5,5.5-8.2,8.2c-3,3-6.1,6-9.1,9
		c-0.3,0.3-0.3,0.4,0,0.7c5.8,5.7,11.5,11.4,17.3,17.1c1.8,1.8,2.3,4.5,1.1,6.7c-1.8,3.4-6.3,4.1-9.1,1.4
		c-4.4-4.4-8.8-8.8-13.3-13.2c-1.4-1.3-2.7-2.7-4-4c-0.3-0.3-0.4-0.3-0.8,0c-5.7,5.7-11.4,11.3-17.1,17c-1.1,1.1-2.4,1.8-4,1.9
		c-2.4,0.1-4.5-1.2-5.5-3.4c-1-2.2-0.5-4.6,1.2-6.3c1.5-1.6,3.1-3.1,4.7-4.7c4.2-4.2,8.4-8.3,12.6-12.5c0.3-0.3,0.4-0.5,0-0.8
		c-5.8-5.7-11.5-11.4-17.3-17.1c-1.6-1.6-2.1-3.4-1.5-5.6c0.6-2.1,2-3.4,4.1-4c0.2-0.1,0.5-0.1,0.7-0.1
		C241.5,116.2,241.7,116.2,242,116.2z"/>
	<path class="st0" d="M156.5,153.4c0-3.9,0-7.8,0-11.7c0-0.4,0.1-0.5,0.5-0.5c3.5,0,6.9,0,10.4,0c0.4,0,0.5,0.1,0.5,0.5
		c0,7.7,0,15.4,0,23.1c0,3-2.3,5.5-5.3,5.9c-2.5,0.3-5.2-1.7-5.9-4.3c-0.1-0.5-0.2-1-0.2-1.6C156.5,161,156.5,157.2,156.5,153.4z"/>
	<path class="st0" d="M156.5,128.9c0-2.4,0-4.7,0-7.1c0-3.2,2.9-5.9,6.1-5.7c2.7,0.2,5.2,2.7,5.3,5.6c0.1,4.9,0,9.7,0,14.6
		c0,0.3-0.1,0.4-0.4,0.4c-3.6,0-7.1,0-10.7,0c-0.4,0-0.4-0.2-0.4-0.4C156.5,133.7,156.5,131.3,156.5,128.9z"/>
</g>
</svg>
