<?xml version="1.0" encoding="utf-8"?>
<!-- Generator: Adobe Illustrator 26.1.0, SVG Export Plug-In . SVG Version: 6.00 Build 0)  -->
<svg version="1.1" id="svg2816" xmlns:svg="http://www.w3.org/2000/svg"
	 xmlns="http://www.w3.org/2000/svg" xmlns:xlink="http://www.w3.org/1999/xlink" x="0px" y="0px" viewBox="0 0 315 300"
	 style="enable-background:new 0 0 315 300;" xml:space="preserve">
<style type="text/css">
	.st0{fill:#0A0A0A;}
	.st1{fill:#FEFEFE;}
	.st2{fill:#2F6091;}
	.st3{fill:#326191;}
	.st4{fill:#FBFBFB;}
</style>
<g>
	<path class="st0" d="M190.1,21.3c1.1,0,2.1-0.1,3.2-0.1c7-0.5,13.9,0.1,20.7,1.5c0,0,0,0,0,0c0.2,0.1,0.3,0.2,0.5,0.3
		c1.1,0.3,2.2,0.7,3.3,1L218,24l0.2,0c0.5,0.5,1.1,0.6,1.8,0.5c5.3,2.5,10.4,5.3,14.8,9.2c4.2,3.9,8.1,7.9,9.3,13.8
		c-0.1,0.7-0.2,1.3,0.2,2l0.1,0.1c0.1,1.6,0.1,3.2,0.2,4.8c-0.1,2.2-0.1,4.5-0.2,6.7c-0.6,2.2-0.8,4.4-0.9,6.6
		c-0.6,2.5-1.1,4.9-1.7,7.4c0,0.3-0.1,0.6-0.1,0.9c-0.3,0.2-0.5,0.5-0.4,0.9c-0.1,0.4-0.1,0.9-0.2,1.3c-0.4,1.2-0.8,2.5-1.2,3.7
		c0,0.3,0,0.6-0.1,0.9c-0.1,0.1-0.2,0.3-0.3,0.4c-0.3,1.1-0.7,2.2-1,3.3c-0.1,0.1-0.1,0.3-0.1,0.4c-0.5,0.5-0.5,1.2-0.5,1.8
		c-0.9,2.3-1.8,4.6-2.7,6.9c0,0.2,0,0.3-0.1,0.5c-0.3,0.2-0.5,0.5-0.4,0.9c-0.2,0.5-0.7,0.8-0.5,1.4c-0.8,1.3-1.3,2.7-1.8,4.1
		c-0.2,0.5-0.7,0.8-0.5,1.4c-0.3,0.2-0.5,0.5-0.4,0.9c-0.5,0.7-0.9,1.3-1,2.2c-0.3,0.1-0.4,0.3-0.4,0.6c-0.2,0.5-0.7,0.8-0.5,1.4
		c-2.7,5-5.4,10-8.2,15.2c3.5,0.1,6.8,0.4,10.1-0.2c0.7-0.1,1.5-0.2,2.2-0.2c0.3,0.1,0.6,0,0.8-0.4l0.2,0c2.3,0.2,4.6-1.2,6.9-0.1
		c0.3,0,0.6,0.1,0.9,0.1c2.4,1.7,3.1,4.1,2.9,6.9c-0.6,2.5-1.8,4.6-2.9,6.9c-0.6,0.8-1.2,1.5-1.8,2.3c-1.5,1.4-3.1,2.8-4.6,4.1
		c-0.5,0.3-0.9,0.6-1.4,0.9c-2.5,0.9-5,1.8-7.5,2.8c-2.1,0.4-4.2,0.7-6.3,1.1c-0.5,0-0.9,0-1.4,0.1c-0.6-0.1-1.3-0.1-1.8,0.3
		c-1.2,0-2.4,0-3.6,0c-1.5-0.7-3.1-0.1-4.9-0.9c0.7,1.4-0.2,2.2-0.1,3.2c0,1.2-0.1,2.4-0.1,3.7c-0.1,0.3-0.2,0.6-0.3,0.9
		c0,0.8-0.1,1.5-0.1,2.3c-0.7,2.3-0.7,4.6-0.9,6.9c-0.1,0.4-0.1,0.9-0.2,1.3c-0.1,0.1-0.1,0.2,0,0.3c-0.5,0.8-0.3,1.7-0.4,2.5
		c-0.1,0.3-0.2,0.6-0.3,0.9c0,0.6,0,1.2,0,1.9c-1,4.7-1.6,9.5-3.9,13.8c-0.9,1.3-1.8,2.7-2.7,4c-1.1,1-2.2,1.9-3.3,2.9
		c-1.2,0.8-2.4,1.5-3.6,2.3c-2.3,0.9-4.7,1.7-7,2.6c-0.4,0.1-0.9,0.2-1.3,0.3c-0.2-0.1-0.3-0.1-0.4,0.1c-1.9,0.4-3.8,0.8-5.7,1.2
		c-2.1,0-4.2,0.1-6.3,0.1c-0.3,0-0.6-0.1-0.8-0.1c-2-0.6-4.1-1.2-6.1-1.7c-2.5-1.2-4.7-2.9-6.8-4.8c-1.7-2.3-3.1-4.8-4.2-7.4
		c-0.3-2.1-0.7-4.2-1-6.3c-0.5-4.6-0.9-9.2-1.4-13.8c0-1.5,0-3.1,0-4.6c0.1-0.1,0.1-0.3,0-0.4c0-0.6,0-1.2-0.1-1.9
		c0-1.8,0-3.7,0-5.8c-2.5,1.8-4.9,2.3-7.3,3c-2.3,0-4.6,0-6.9,0c-2.3-0.4-4.6-0.8-6.9-1.3c-0.4,0-0.8-0.1-1.2-0.1
		c-0.3-0.4-0.6-0.4-1.1-0.4c-0.3,0-0.6,0-0.9-0.1c-0.2-0.3-0.5-0.5-0.9-0.4c-0.1-0.1-0.2-0.1-0.3-0.1c-0.3-0.4-0.6-0.4-1.1-0.4
		c-0.1-0.1-0.3-0.1-0.4-0.1c-0.2-0.1-0.3-0.2-0.5-0.3c-1.5-0.8-3.1-1.5-3.9-3.2c-1.2,1-2.4,2-3.5,2.9c-0.8,0.4-1.5,0.7-2.3,1.1
		c-0.2,0.1-0.4,0.3-0.6,0.4c-1.3,0.1-2.6,0.2-3.9,0.3c-2.6-0.2-4.8-1.3-7-2.6c-2.6-2-4.5-4.6-6.6-7.1c-1.3-2.2-2.7-4.5-4-6.7
		c-0.8-1.7-1.6-3.4-2.5-5.1c-0.4-0.8-0.5-1.8-1.2-2.6c-0.3-1.4-0.8-2.7-1.5-3.9c0.1-0.4-0.1-0.7-0.4-0.9l0,0c0-0.4-0.1-0.8-0.4-1
		c0-0.2,0-0.3-0.1-0.4c-1.1-3.1-2.2-6.1-3.2-9.2c-0.6-1.8-1.1-3.6-1.7-5.3c-0.5-2.1-1-4.2-1.8-6.2c-0.6-2.3-1.2-4.6-1.9-6.9
		c-0.3-1.2-0.5-2.4-0.8-3.7c-0.1-0.1-0.2-0.3-0.3-0.4c0.2-1-0.5-1.8-0.5-2.8c0.1-0.5,0.1-1-0.4-1.4c-0.1-2.1-0.8-4.1-1.2-6.2
		c-0.4-2.1-0.8-4.2-1.1-6.2c-0.3-2.3-0.6-4.6-0.9-6.9c0-2.3,0-4.6,0-6.9c0.1-0.4,0.1-0.9,0.2-1.3c0,0,0-0.1,0-0.1
		c0.6-1.6,0.1-3.4,0.4-5c0.5-2.5,1.1-5,1.6-7.5c0.4-0.6,0.7-1.2,0.7-2c0.7-1.6,1.5-3.3,2.2-4.9l0,0c0.1-0.2,0.2-0.3,0.3-0.5
		c0.1-0.1,0.2-0.3,0.1-0.4c0.1-0.2,0.3-0.4,0.4-0.5c1.1-1.5,2.2-3,3.3-4.5c0.5-0.5,0.9-1,1.4-1.4c0.9-0.8,1.8-1.6,2.7-2.4
		c0.2-0.1,0.3-0.2,0.5-0.4c0.3-0.2,0.6-0.4,0.9-0.6c0.2-0.1,0.3-0.2,0.5-0.3c0.3-0.2,0.6-0.4,0.9-0.6c0.2-0.1,0.3-0.2,0.5-0.3
		c0,0,0,0,0,0c1.1-0.6,2.3-1.2,3.4-1.8c1.2-0.4,2.4-0.8,3.6-1.2c2.5-0.9,5.1-1.3,7.8-1.8c0.2-0.1,0.4-0.1,0.5-0.2
		c0.1,0,0.3-0.1,0.4-0.1c1.7,0,3.4-0.1,5.1-0.1c2.3,0,4.6,0,6.9,0c2.3,0.3,4.6,0.6,6.9,0.9c2.3,0.5,4.6,0.9,6.9,1.4
		c2.6,0.7,5.3,1.3,7.8,2.1c1.2,0.4,2,0.2,2.9-0.5c1.4-0.6,2.8-1.3,4.2-1.9c0.1,0,0.3,0,0.4-0.1l0.2,0l0.2-0.1
		c1.9-0.6,3.8-1.1,5.7-1.7c2.1-0.2,4.2-0.4,6.4-0.6c4.6-0.1,9.3,0.4,13.8,1c2.4,1.5,4.6-0.1,6.9-0.5c2.5-0.6,4.9-1.1,7.4-1.7
		c0.8-0.1,1.5-0.1,2.3-0.2C189.5,21.5,189.8,21.4,190.1,21.3z M156.6,145.6c-0.4,4.3,0.1,8.1,0.1,11.9c0.1,7.1,0,14.3,1.5,21.3
		c1.4,6.5,4.3,12,10.9,14.7c4.8,1.9,9.5,1.5,14.4,0.4c9.3-2.1,15.8-7.1,17.9-16.8c0.9-4.3,1.5-8.7,2.1-13.1c0.8-6,1.7-12.1,2.2-18.2
		c0.1-1.7,1.1-2.1,2.4-1.8c5.5,1.1,11,0.3,16.3-1c5.7-1.4,10.6-4.3,14.6-8.7c1.4-1.5,1.9-3.4,1.1-5.3c-0.8-1.7-2.5-2.3-4.4-2.2
		c-1.7,0.1-3.3,0.5-5,0.8c-4.5,0.7-9.1,1.2-13.6,0.2c-1.8-0.4-1.9-1-1-2.5c6.2-9.4,11.2-19.5,15.2-30.1c4.5-11.7,7.9-23.7,8.4-36.4
		c0.3-8.1-1.5-15.3-8.2-20.9c-7.9-6.6-16.8-10.3-27.1-11.3c-8.5-0.9-16.9,0-25.1,2c-1.5,0.4-2.9,1.1-4.4,0.8
		c-6.1-1.1-12.2-1.9-18.4-0.9c-3.9,0.6-7.8,1-11.1,3.4c-2,1.4-3.9,2.3-6.5,1.3c-7-2.7-14.3-3.9-21.7-4.5c-5.7-0.5-11.5,0-17,1.5
		c-5.4,1.4-10.1,4-13.9,8.2c-5.2,5.9-6.9,13.1-7.9,20.6c-1.1,8.1-0.1,16.2,1.5,24.1c2.7,13.5,6,26.8,11,39.6
		c3,7.7,6.1,15.3,11.8,21.5c4.9,5.3,10.6,6.7,16.3,2.2c1.5-1.2,2.9-2.8,4.2-4.3c3.8-4.3,7.6-8.6,11.4-13c0.5-0.6,1-1.4,2.1-0.8
		c2.7,1.4,5.6,2.1,8.6,2.3c-3.2,4.7-4.4,5.5-9.6,6.8c-2.3,0.6-4.6,1-6.8,1.8c-1.9,0.8-3.6,2-3.7,4.2c-0.1,2.1,1.1,3.6,2.9,4.8
		C134.6,152.7,148.8,153,156.6,145.6z"/>
	<path class="st1" d="M156.6,145.6c-7.8,7.5-22,7.1-28.6,2.8c-1.8-1.2-3.1-2.7-2.9-4.8c0.1-2.2,1.8-3.4,3.7-4.2
		c2.2-0.9,4.5-1.3,6.8-1.8c5.2-1.3,6.4-2.1,9.6-6.8c-3.1-0.2-6-0.9-8.6-2.3c-1.1-0.6-1.6,0.2-2.1,0.8c-3.8,4.3-7.5,8.7-11.4,13
		c-1.3,1.5-2.6,3-4.2,4.3c-5.6,4.5-11.4,3.1-16.3-2.2c-5.7-6.2-8.8-13.8-11.8-21.5c-5-12.8-8.2-26.2-11-39.6
		c-1.6-7.9-2.6-16-1.5-24.1c1-7.5,2.7-14.7,7.9-20.6c3.8-4.3,8.5-6.8,13.9-8.2c5.6-1.5,11.3-1.9,17-1.5c7.4,0.6,14.8,1.8,21.7,4.5
		c2.6,1,4.5,0.1,6.5-1.3c3.3-2.3,7.2-2.7,11.1-3.4c6.2-1,12.3-0.2,18.4,0.9c1.5,0.3,2.9-0.5,4.4-0.8c8.3-2,16.6-2.8,25.1-2
		c10.2,1.1,19.2,4.7,27.1,11.3c6.6,5.6,8.5,12.8,8.2,20.9c-0.5,12.6-3.9,24.6-8.4,36.4c-4,10.5-9,20.6-15.2,30.1
		c-1,1.5-0.8,2.1,1,2.5c4.6,0.9,9.1,0.5,13.6-0.2c1.6-0.3,3.3-0.7,5-0.8c1.9-0.1,3.6,0.5,4.4,2.2c0.8,1.8,0.3,3.7-1.1,5.3
		c-4,4.4-8.9,7.3-14.6,8.7c-5.4,1.3-10.8,2.1-16.3,1c-1.4-0.3-2.3,0.1-2.4,1.8c-0.5,6.1-1.4,12.1-2.2,18.2
		c-0.6,4.4-1.1,8.8-2.1,13.1c-2.1,9.6-8.6,14.7-17.9,16.8c-4.8,1.1-9.6,1.5-14.4-0.4c-6.6-2.7-9.5-8.2-10.9-14.7
		c-1.5-7-1.4-14.1-1.5-21.3C156.7,153.7,156.2,149.9,156.6,145.6z M233.5,132.5c-1.9-0.4-3.7,0.5-5.6,0.6
		c-5.3,0.4-10.7,1.1-15.5-2.1c-0.4-0.3-0.8-0.2-1.3-0.1c-3.3,0.8-4.4,2.2-4.5,5.6c-0.1,1.6,0.7,2.1,2,2.3c3.1,0.6,6.2,0.4,9.4,0
		C223.7,138.2,229.1,136.6,233.5,132.5c0-0.1,0.1-0.1,0.1-0.2c0,0,0-0.1,0-0.1C233.6,132.3,233.6,132.4,233.5,132.5z M210,67.8
		c-4.2-10.9-10.8-19.6-20.1-26.2c-9.1-6.4-19.4-9-30.5-8.3c-6.3,0.4-12.1,2.4-16.9,6.7c-9.9,8.7-12.6,20.4-14.1,33.1
		c2.7-1.2,4.9-2.3,7.3-3c2.4-0.7,4.9-1.2,7.4-1.4c6.8-0.6,12.1,2.9,14,9.4c0.9,3.1,1.4,6.4,1.7,9.6c0.9,8.1,0.8,16.1-2.3,23.8
		c-1.8,4.6-4,9-5.3,13.8c-0.3,1.1-0.1,1.2,0.8,1.2c6-0.2,9.9,5.8,9.7,10.8c-0.3,8.3-0.3,16.6,0.1,24.8c0.3,5.5,0.2,11,1.6,16.4
		c1.4,5.2,4.1,9.7,9.8,11c4,0.9,8.1-0.1,11.9-1.3c5.6-1.7,9.5-5.1,11.1-11.1c1.6-6.1,2.2-12.4,3.1-18.7c1-7.9,2-15.8,2.5-23.7
		c0.2-3.5,2.1-6.3,5.5-7.8c0.5-0.2,1.1-0.3,1.5-0.8c-5.7-6.9-9.1-15.2-13.2-23c-3.3-6.3-5.9-12.9-6.6-20.2
		c-0.6-6.8,2.6-12.1,9.1-14.3C201.9,67.5,205.8,68.1,210,67.8z M131.3,124.9c-6.2-5.7-9.1-12.7-8.7-20.9c0.3-6,1.3-12.1,0.9-18.1
		c-0.3-4.7-0.5-9.3,0-14c1.2-12.2,4.4-23.4,12.7-32.8c0.8-0.9,0.9-1.3-0.5-1.7c-9.7-2.9-19.6-4.6-29.8-3.1
		c-10.2,1.5-17.3,6.9-20.6,16.9c-2.6,7.8-2.9,15.8-1.7,23.8c2.1,13.4,5.2,26.5,9.6,39.3c2.9,8.6,5.8,17.2,11.4,24.4
		c5.4,7.1,8.9,6.8,14,0.7C122.8,134.5,127.1,129.7,131.3,124.9z M184.8,32.5c-0.1,0.5,0.2,0.6,0.5,0.8c11.5,5.4,19.7,14.2,25.8,25.1
		c2.9,5.2,5.1,10.6,4.3,16.7c-0.3,2.3-0.6,4.5-0.9,6.8c-1.1,7.1-0.1,14,0.6,21.1c0.5,5.7-0.2,11.1-2.7,16.3
		c-0.3,0.7-1.8,1.7-0.5,2.4c1.1,0.6,1.3-1,1.7-1.7c11.1-18.8,19.3-38.6,21.1-60.6c0.4-5.4-0.2-10.5-4.3-14.7c-3-3-6.2-5.7-9.9-7.7
		C209.2,30.7,197.2,30.5,184.8,32.5z M154.6,95c-0.5-5-0.8-10.4-2.4-15.8c-0.9-3.2-2.9-5.1-6.2-5.5c-6.4-0.8-11.9,1.7-17.2,5
		c-0.8,0.5-0.5,1.2-0.6,1.8c-0.2,2.8,0.4,5.6,0.4,8.5c0.1,6.3-1.4,12.5-0.9,18.8c0.7,8.4,7.5,16.7,17,17.6c1.1,0.1,1.3-0.4,1.5-1.2
		c1.2-4.1,2.8-8.2,4.6-12.1C153.3,106.9,154.3,101.3,154.6,95z M208.2,116.6c2.9-6.2,2.3-12.2,1.6-18.3c-0.6-4.6-1.1-9.2-0.4-13.9
		c0.5-3.2,0.7-6.5,1.1-9.8c0.1-1.2-0.2-1.6-1.5-1.6c-2.2-0.1-4.4-0.1-6.6,0c-5.4,0.4-8.8,3.8-8.5,9c0.1,2.3,0.6,4.5,1.2,6.7
		C197.8,98.6,203.5,107.1,208.2,116.6z M130.6,143.9c2.4,1.5,4.6,1.7,6.7,2.2c6.7,1.4,15-1.8,18.7-7.5c1.2-1.8,0.6-4.6-1.3-6.1
		c-1.8-1.5-2.9-1.3-4.8,0.8c-0.6,0.6-1.1,1.3-1.6,1.9c-2.2,2.9-4.7,5.4-8.4,6.4C137,142.3,134,143,130.6,143.9z"/>
	<path class="st2" d="M210,67.8c-4.1,0.3-8-0.3-11.9,1c-6.5,2.2-9.7,7.5-9.1,14.3c0.7,7.3,3.2,13.9,6.6,20.2c4.1,7.8,7.5,16,13.2,23
		c-0.4,0.5-1,0.5-1.5,0.8c-3.4,1.5-5.3,4.3-5.5,7.8c-0.5,7.9-1.5,15.8-2.5,23.7c-0.8,6.3-1.4,12.5-3.1,18.7
		c-1.6,5.9-5.5,9.3-11.1,11.1c-3.9,1.2-7.9,2.2-11.9,1.3c-5.7-1.3-8.4-5.8-9.8-11c-1.4-5.3-1.3-10.9-1.6-16.4
		c-0.4-8.3-0.4-16.6-0.1-24.8c0.2-5-3.7-11-9.7-10.8c-0.9,0-1.1-0.1-0.8-1.2c1.4-4.8,3.5-9.2,5.3-13.8c3.1-7.7,3.3-15.7,2.3-23.8
		c-0.4-3.3-0.8-6.5-1.7-9.6c-1.9-6.5-7.2-10-14-9.4c-2.5,0.2-5,0.6-7.4,1.4c-2.4,0.7-4.6,1.8-7.3,3c1.5-12.6,4.2-24.3,14.1-33.1
		c4.8-4.3,10.7-6.3,16.9-6.7c11-0.7,21.3,1.8,30.5,8.3C199.2,48.2,205.7,56.9,210,67.8z"/>
	<path class="st2" d="M131.3,124.9c-4.3,4.8-8.6,9.6-12.7,14.5c-5.1,6.1-8.7,6.3-14-0.7c-5.6-7.3-8.5-15.9-11.4-24.4
		c-4.3-12.8-7.5-25.9-9.6-39.3c-1.2-8-0.9-16,1.7-23.8c3.3-10,10.5-15.4,20.6-16.9c10.2-1.5,20.1,0.2,29.8,3.1
		c1.5,0.4,1.3,0.8,0.5,1.7c-8.3,9.4-11.5,20.7-12.7,32.8c-0.5,4.7-0.3,9.3,0,14C124,92,123,98,122.7,104
		C122.2,112.3,125.1,119.2,131.3,124.9z"/>
	<path class="st2" d="M184.8,32.5c12.3-2,24.3-1.8,35.6,4.5c3.7,2.1,6.9,4.8,9.9,7.7c4.1,4.1,4.8,9.3,4.3,14.7
		c-1.8,22-10.1,41.8-21.1,60.6c-0.4,0.7-0.6,2.3-1.7,1.7c-1.3-0.7,0.2-1.7,0.5-2.4c2.5-5.2,3.2-10.6,2.7-16.3
		c-0.7-7-1.7-14-0.6-21.1c0.4-2.3,0.6-4.5,0.9-6.8c0.8-6.1-1.4-11.5-4.3-16.7c-6.1-11-14.4-19.7-25.8-25.1
		C185.1,33.1,184.8,33,184.8,32.5z"/>
	<path class="st2" d="M154.6,95c-0.3,6.3-1.3,11.8-3.7,17.1c-1.8,3.9-3.4,7.9-4.6,12.1c-0.2,0.8-0.4,1.3-1.5,1.2
		c-9.5-1-16.3-9.2-17-17.6c-0.5-6.3,1-12.5,0.9-18.8c0-2.8-0.6-5.7-0.4-8.5c0-0.6-0.3-1.3,0.6-1.8c5.3-3.3,10.8-5.7,17.2-5
		c3.3,0.4,5.3,2.3,6.2,5.5C153.8,84.6,154.1,90.1,154.6,95z M145.4,82.2c2.4,0,5.1-1.6,4.9-2.9c-0.3-2-2-2.4-3.7-2.7
		c-0.3-0.1-0.6-0.1-0.9-0.1c-1.7-0.1-3.5-0.3-4.4,1.5c-0.5,1.1,1.3,3.4,3,4.1C144.7,82.2,145.3,82.2,145.4,82.2z"/>
	<path class="st2" d="M208.2,116.6c-4.6-9.5-10.4-18-13.1-27.9c-0.6-2.2-1.1-4.5-1.2-6.7c-0.2-5.2,3.1-8.6,8.5-9
		c2.2-0.2,4.4-0.1,6.6,0c1.3,0,1.6,0.4,1.5,1.6c-0.4,3.3-0.6,6.5-1.1,9.8c-0.7,4.7-0.2,9.3,0.4,13.9
		C210.5,104.3,211.1,110.4,208.2,116.6z M202.7,75.3c-0.6,0-1.2-0.1-1.8,0c-1.4,0.3-3.3,0.7-3.3,2.3c0,1.6,1.8,2.4,3.3,2.7
		c1.7,0.3,3-0.7,4.2-1.9c0.6-0.7,1-1.6,0.5-2.3C205,75,203.8,75.2,202.7,75.3z"/>
	<path class="st3" d="M130.6,143.9c3.5-0.9,6.4-1.6,9.3-2.4c3.7-1,6.2-3.5,8.4-6.4c0.5-0.7,1-1.3,1.6-1.9c2-2.1,3.1-2.2,4.8-0.8
		c1.8,1.5,2.4,4.4,1.3,6.1c-3.7,5.7-12,8.9-18.7,7.5C135.1,145.6,132.9,145.4,130.6,143.9z"/>
	<path class="st3" d="M233.5,132.5c-4.4,4.1-9.7,5.7-15.5,6.4c-3.1,0.4-6.2,0.6-9.4,0c-1.3-0.3-2.1-0.7-2-2.3
		c0.1-3.4,1.2-4.8,4.5-5.6c0.5-0.1,0.8-0.2,1.3,0.1c4.8,3.2,10.2,2.4,15.5,2.1C229.8,133,231.6,132.1,233.5,132.5L233.5,132.5z"/>
	<path class="st1" d="M145.4,82.2c-0.1,0-0.6,0-1.1-0.2c-1.8-0.7-3.6-3-3-4.1c0.9-1.9,2.7-1.6,4.4-1.5c0.3,0,0.6,0.1,0.9,0.1
		c1.7,0.3,3.4,0.8,3.7,2.7C150.5,80.6,147.8,82.2,145.4,82.2z"/>
	<path class="st4" d="M202.7,75.3c1.1,0,2.3-0.2,2.9,0.8c0.5,0.7,0.1,1.6-0.5,2.3c-1.1,1.2-2.5,2.2-4.2,1.9
		c-1.5-0.3-3.3-1.1-3.3-2.7c0-1.6,1.8-2,3.3-2.3C201.5,75.2,202.1,75.3,202.7,75.3z"/>
	<path class="st2" d="M224,242.3c0-7.1,2.3-13.2,8.5-17c5.3-3.3,11.2-3.6,17.2-2.2c6.7,1.6,11.2,5.8,12.9,12.4
		c2,7.6,1.5,14.9-4.3,21c-0.6,0.7-0.6,1.1,0.1,1.6c1.2,1,2.4,2,3.6,3c0.6,0.5,1.3,1.1,0.4,1.8c-0.8,0.6-1.2,2.5-2.9,1
		c-1.2-1.1-2.6-2.1-3.8-3.2c-0.7-0.6-1.3-0.6-2.2-0.2c-8.3,3.5-20.8,2.3-26.2-6.1C225.1,250.8,224,247.3,224,242.3z M259.5,241.9
		c0-0.4-0.1-1.2-0.1-2c-0.4-6.9-4.9-12.3-11.6-13.9c-7.2-1.7-14.3,1-17.7,6.9c-2.1,3.7-2.4,7.9-2,12.1c0.6,6.1,3.4,10.7,9.2,12.9
		c6.1,2.3,12.2,1.9,17.3-2.7C258.6,251.8,259.7,247.1,259.5,241.9z"/>
	<path class="st2" d="M207.6,262.3c-2.8,0.1-6.1-0.4-9.3-1.9c-4.5-2-6-5.9-6.4-10.5c-0.1-0.7,0.4-1,1-1.1c0.7,0,1.4,0,2.2,0
		c0.8,0,1.1,0.3,1.1,1.1c0.4,5.7,4,8.2,8.4,8.8c3.4,0.5,6.9,0.6,10.2-0.6c3.1-1.1,4.4-3.3,4.3-7.2c-0.1-3-1.4-4.6-4.5-5.6
		c-3.9-1.3-8-1.7-12-2.7c-0.9-0.2-1.8-0.4-2.7-0.7c-7.1-2.2-9.3-10.6-4.3-16c1.6-1.7,3.8-2.4,5.9-2.8c5-1,10.1-1,14.9,1.1
		c3.9,1.7,5.5,4.9,6,8.9c0.1,0.7-0.2,1.2-1,1.2c-0.7,0-1.3,0-2,0c-0.8,0-1.2-0.4-1.3-1.2c-0.7-4.6-3.2-6.8-7.7-7.3
		c-2.6-0.3-5.2-0.3-7.8,0.3c-3.7,0.9-5.4,3-5.3,6.6c0,3.4,1.8,5.3,5.6,6.1c4.1,0.9,8.1,1.8,12.2,2.8c1.1,0.3,2.1,0.6,3.2,1
		c3,1.2,4.8,3.5,5.2,6.8c0.7,6.8-2.5,11-9.2,12.4C212.2,262.1,210.2,262.3,207.6,262.3z"/>
	<path class="st0" d="M150.4,249.9c0,2.8,0,5.7,0,8.5c-0.1,6.3-3.3,9.5-9.6,9.7c-2.2,0.1-4.3,0.1-6.5-0.5c-2.5-0.7-4.1-2.2-4.7-4.7
		c-0.1-0.5-0.7-1.3,0.3-1.5c0.8-0.2,1.9-0.7,2.3,0.4c0.7,2,1.9,3.5,4,3.8c2.8,0.5,5.7,0.7,8.3-0.7c2.1-1.1,3.8-6.1,2.9-8.2
		c-0.3-0.7-0.8-0.4-1.2-0.1c-3.2,2.8-6.9,2.8-10.7,2c-3.5-0.7-5.8-2.9-6.6-6.3c-1.2-4.6-0.4-9.7,3.2-12.5c3.4-2.5,11.4-2.8,13.9,0.6
		c0.3,0.4,0.6,0.8,1.1,0.6c0.4-0.2,0.3-0.7,0.3-1c-0.1-1.2,0.6-1.4,1.5-1.4c1.1,0,1.4,0.5,1.4,1.5
		C150.4,243.5,150.4,246.7,150.4,249.9C150.4,249.9,150.4,249.9,150.4,249.9z M147.6,248.6c0-5.1-3-8.2-8-8.3
		c-5.1,0-8.2,3.1-8.2,8.2c0,5.5,2.8,8.4,8.3,8.4C144.4,257,147.6,253.7,147.6,248.6z"/>
	<path class="st0" d="M61.9,228c-4.9-0.1-9.8,0-14.7,0c-1.2,0-1.6,0.4-1.6,1.7c0.1,4.7,0,9.4,0,14.2c0,4.7,0,9.4,0,14.2
		c0,1.5,0.8,1.5,1.9,1.5c1.1,0,1.9,0,1.9-1.5c-0.1-3.2,0-6.4-0.1-9.7c-0.1-1.6,0.3-2.3,2.1-2.2c3.5,0.1,7,0.1,10.5,0
		c5.2-0.2,8.6-3.9,8.6-9.1C70.4,231.6,67.2,228.1,61.9,228z M63.7,242.9c-1.4,0.6-2.9,0.6-4.4,0.6c-2.8,0.1-5.6,0-8.3,0
		c-1.4,0-1.8-0.5-1.7-1.8c0.1-1.6,0-3.2,0-4.8c0-1.7,0-3.4,0-5.2c0-0.9,0.3-1.3,1.3-1.3c3.8,0.1,7.6,0,11.3,0.2
		c2.9,0.1,4.6,1.9,5.1,4.8C67.5,239.2,66.4,241.8,63.7,242.9z"/>
	<path class="st2" d="M265.9,242.2c0-5.6,0.1-11.2,0-16.8c0-1.7,0.6-2,2.1-2c1.5,0,2,0.4,2,2c-0.1,10.2,0,20.3-0.1,30.5
		c0,1.7,0.5,2.1,2.2,2.1c6.6-0.1,13.1,0,19.7,0c1.1,0,1.9,0.1,1.9,1.6c0,1.4-0.4,1.9-1.8,1.9c-7.2,0-14.4,0.1-21.7,0.1
		c-4.9,0-4.3,0.5-4.3-4.2C265.9,252.2,265.9,247.2,265.9,242.2z"/>
	<path class="st0" d="M178.5,249.8c-2.7,0-5.3,0-8,0c-1.2,0-1.6,0.6-1.4,1.7c0.6,2.8,2.1,5,4.9,6c3.3,1.1,8.7,0.9,10.4-3.8
		c0.3-0.8,2.1-1.3,2.9-0.8c0.6,0.4,0.2,0.8,0.1,1.2c-1,2.9-3,4.8-5.9,5.6c-4.5,1.2-8.9,1.2-12.4-2.5c-3.5-3.6-3.8-8-2.3-12.6
		c1.2-3.7,4.9-6.1,9.3-6.3c4.7-0.2,8.6,1,10.8,5.5c0.7,1.5,1.1,3.1,1.2,4.8c0,1-0.4,1.3-1.4,1.3C184,249.8,181.2,249.8,178.5,249.8
		C178.5,249.8,178.5,249.8,178.5,249.8z M177.1,247.8c2.2,0,4.4-0.1,6.7,0c1.5,0.1,1.7-0.5,1.3-1.8c-1-3.5-4.2-5.8-8.4-5.7
		c-3.7,0.1-6.6,2.5-7.5,6.2c-0.2,1,0.1,1.3,1.1,1.3C172.5,247.7,174.8,247.8,177.1,247.8z"/>
	<path class="st0" d="M105.8,260.1c-2.1,0-4-0.1-5.9-0.7c-2.4-0.8-3.9-2.5-4.3-5c-0.1-0.7-0.2-1.5,0.8-1.5c0.8,0,1.9-0.6,2.1,0.8
		c0.4,2.8,2.4,3.8,4.8,4.1c2.3,0.3,4.7,0.4,6.9-0.5c1.7-0.7,2.4-1.9,2.3-3.6c-0.2-1.7-1.3-2.5-2.9-2.8c-3.2-0.6-6.4-0.9-9.5-1.7
		c-2.5-0.7-3.8-2.1-3.9-4.5c-0.2-2.8,1.1-5,3.6-5.8c3.5-1.1,7.1-1.2,10.7-0.1c2.4,0.8,3.8,2.4,4.2,4.9c0.1,0.7,0.1,1.4-0.9,1.4
		c-0.8,0-1.9,0.4-2-0.9c-0.3-2.7-2.9-3.9-5.2-3.9c-1.8-0.1-3.6-0.1-5.3,0.6c-1.5,0.6-2.3,1.7-2.2,3.3c0.1,1.6,1.2,2.4,2.6,2.6
		c2.8,0.5,5.6,0.9,8.4,1.4c3.8,0.8,5.9,2.4,5.4,6.4c-0.3,2.4-1.8,3.8-4,4.7C109.6,260.1,107.6,260.2,105.8,260.1z"/>
	<path class="st0" d="M82.1,260.2c-6.9,0-10.9-4.1-11-11c0-6.8,4.2-11,11-11.1c7.1,0,11.3,4,11.3,11.1
		C93.4,256.2,89.3,260.1,82.1,260.2z M90.4,249.5c0-3.6-0.6-6.5-3.7-8c-3.1-1.6-6.3-1.6-9.4,0.3c-3.6,2.3-3.8,7.7-2.7,11.2
		c0.4,1.3,1.1,2.5,2.3,3.4c3,2.1,6.3,2.1,9.5,0.6C89.7,255.4,90.5,252.4,90.4,249.5z"/>
	<path class="st0" d="M120.8,248.9c0-2.1-0.1-4.1,0-6.2c0.1-1.3-0.4-1.9-1.7-1.7c-0.5,0.1-1.2,0.2-1.6-0.3c-0.3-0.4-0.3-1-0.1-1.4
		c0.2-0.6,0.8-0.6,1.3-0.5c1.9,0.3,2.3-0.6,2.1-2.3c-0.1-1,0-2,0-3c-0.1-1.2,0.5-1.5,1.6-1.5c1.1,0,1.3,0.5,1.3,1.4
		c-0.1,1.3,0,2.7,0,4c0,1,0.3,1.4,1.3,1.4c0.7-0.1,1.4,0,2.2,0c0.8,0,1.4,0.2,1.4,1.2c0,0.9-0.5,1.1-1.3,1.1
		c-3.5,0.2-3.5,0.2-3.5,3.8c0,3.2,0,6.3,0,9.5c0,2.4,0.9,3.2,3.3,3.1c0.8,0,1.5-0.2,1.6,0.9c0.1,1-0.5,1.5-1.4,1.5
		c-4.3,0.1-6.3-0.7-6.3-5.3C120.8,252.6,120.8,250.8,120.8,248.9z"/>
	<path class="st0" d="M166.1,239.9c0.1,0.7-0.2,1.2-1.1,1.1c-0.1,0-0.1,0-0.2,0c-5.1-0.8-7.6,2.9-7.6,7.5c0,3.2,0,6.3,0,9.5
		c0,1.2-0.5,1.5-1.6,1.5c-1.2,0-1.4-0.6-1.4-1.6c0-2.9,0-5.9,0-8.8h-0.1c0-2.9,0-5.8,0-8.7c0-0.9-0.1-1.7,1.2-1.7c1,0,1.8,0,1.7,1.4
		c0,0.2-0.1,0.6,0.3,0.7c0.4,0.2,0.6-0.2,0.8-0.5c1.8-2.4,4.4-2.3,7-2.3C166.4,238.2,166,239.2,166.1,239.9z"/>
</g>
</svg>
