<svg xmlns="http://www.w3.org/2000/svg" width="126.351" height="52.067" viewBox="0 0 126.351 52.067">
  <g id="Amazon_RDS" data-name="Amazon RDS" transform="translate(-14.4 -69.912)">
    <path id="Path_1814" data-name="Path 1814" d="M137.607,113.562c2.761-2.89,5.22-2.8,7.42.129a5.429,5.429,0,0,1,2.416-1.984,3.963,3.963,0,0,1,5.565,3.667c.173,3.667.086,7.377,0,11.044-.043,1.726-1.467.82-2.286.949-.733.129-1.682.259-1.639-1.078.043-2.632.086-5.263,0-7.851-.043-1.251.475-3.149-1.6-3.192-1.984-.043-1.984,1.726-1.984,3.192,0,2.373-.129,4.745.043,7.118.129,1.769-.733,1.855-2.114,1.9-1.553.043-2.071-.345-1.984-1.941.129-2.5.043-5,.043-7.506,0-1.251.043-2.761-1.726-2.761-1.726,0-1.812,1.51-1.855,2.761-.086,2.675-.086,5.349,0,8.067.043,2.028-1.38,1.251-2.33,1.38-1.078.173-1.726-.043-1.682-1.424.086-4.185.043-8.369.043-12.554,0-.906-.129-1.855,1.294-1.639C136.184,111.966,137.909,111.017,137.607,113.562Z" transform="translate(-67.946 -23.595)" fill="#0a0a0a"/>
    <path id="Path_1815" data-name="Path 1815" d="M109.942,119.086c.129,1.682-.216,3.537.906,5.392.733,1.165-1.122,1.6-1.769,2.373-.6.733-1.294.388-1.682-.259-.69-1.078-1.208-.863-2.157-.216a5.266,5.266,0,0,1-6,.3,4.2,4.2,0,0,1-1.812-4.4,4.942,4.942,0,0,1,4.055-4.357c.906-.216,1.855-.345,2.761-.518.777-.173,1.855.043,1.553-1.424-.259-1.251-.906-1.9-2.157-1.769a2.028,2.028,0,0,0-1.812,1.424.916.916,0,0,1-1.122.733c-.906-.129-2.157.216-2.588-.6-.518-.949.388-1.855.992-2.632,2.071-2.545,7.377-2.847,9.663-.518,1.424,1.467,1.122,3.322,1.165,5.134C109.942,118.137,109.942,118.525,109.942,119.086Zm-4.055,1.769c-.043-.6,0-1.208-1.078-1.165-1.726.086-3.02,1.035-3.106,2.545-.043,1.078.259,1.984,1.51,2.157C104.55,124.607,105.8,122.925,105.887,120.854Z" transform="translate(-47.183 -23.381)" fill="#080808"/>
    <path id="Path_1816" data-name="Path 1816" d="M195.337,118.311c.173,2.114-.216,4.1,1.035,6.04.777,1.208-1.165,1.6-1.769,2.416-.6.777-1.251.388-1.682-.259-.647-.863-1.078-.992-2.114-.259a5.264,5.264,0,0,1-6,.388c-1.726-.992-2.071-2.761-1.812-4.573a4.851,4.851,0,0,1,3.969-4.228c.906-.216,1.855-.345,2.761-.518.777-.129,1.9.086,1.6-1.38-.259-1.294-.992-2.028-2.33-1.812a2.12,2.12,0,0,0-1.51.992,3.014,3.014,0,0,1-3.624.82c-.69-.431-.3-.992-.129-1.467,1.078-2.761,4.185-4.1,7.722-3.408,2.847.561,4.055,2.2,4.012,5.392C195.423,117.146,195.38,117.793,195.337,118.311Zm-5,1.294c-1.941.043-3.149,1.122-3.106,2.761.043,1.122.518,1.941,1.769,1.9,1.337,0,2.33-1.6,2.373-3.494C191.368,119.994,191.282,119.433,190.332,119.605Z" transform="translate(-95.822 -23.297)" fill="#080808"/>
    <path id="Path_1817" data-name="Path 1817" d="M283.765,114.139a4.55,4.55,0,0,1,3.581-2.675c2.373-.259,4.228,1.337,4.357,4.055.173,3.624.129,7.247.086,10.828-.043,1.9-1.553.863-2.416,1.035-.906.216-1.51,0-1.467-1.208.086-2.5.086-5,0-7.463-.043-1.337.345-3.106-1.639-3.494-1.251-.259-2.114,1.165-2.157,3.537-.043,2.416-.086,4.875,0,7.291.086,1.855-1.165,1.294-2.114,1.38-1.035.086-1.941.173-1.9-1.467.086-4.1.043-8.24.043-12.338,0-.906-.3-2.028,1.294-1.812C282.514,111.938,284.283,111.076,283.765,114.139Z" transform="translate(-151.076 -23.611)" fill="#080808"/>
    <path id="Path_1818" data-name="Path 1818" d="M256.97,119.351a9.745,9.745,0,0,1-1.51,5.738,5.862,5.862,0,0,1-10.181-.518,10.692,10.692,0,0,1-.129-9.706,5.543,5.543,0,0,1,5.392-3.365,5.7,5.7,0,0,1,5.306,3.235A9.185,9.185,0,0,1,256.97,119.351Zm-4.185.129c-.086-.69-.216-1.941-.475-3.106a1.618,1.618,0,0,0-1.553-1.38,1.711,1.711,0,0,0-1.9,1.208,11.116,11.116,0,0,0,.043,7.291,1.58,1.58,0,0,0,1.553,1.165,1.777,1.777,0,0,0,1.769-1.122A10.8,10.8,0,0,0,252.785,119.481Z" transform="translate(-130.58 -23.647)" fill="#080808"/>
    <path id="Path_1819" data-name="Path 1819" d="M223.476,115.392h-3.408c-1.9,0-2.33-.561-1.941-2.459.129-.561.345-.733.863-.733h8.628a.934.934,0,0,1,1.078.992,4.1,4.1,0,0,1-.777,2.8c-1.553,2.071-3.02,4.228-4.616,6.557a15.967,15.967,0,0,1,4.228.906,3.158,3.158,0,0,1,1.208,3.753c-.3.475-.647.216-.949.086a10.889,10.889,0,0,0-9.059,0c-.863.388-1.122.043-1.165-.733a5.715,5.715,0,0,1,.949-4.055C220.154,120.267,221.664,117.981,223.476,115.392Z" transform="translate(-115.507 -24.045)" fill="#080808"/>
    <path id="Path_1820" data-name="Path 1820" d="M256.4,166.659v-3.537c0-2.718,0-2.718,2.8-2.847.561-.043,1.122,0,1.682,0,4.141.043,6.73,2.286,6.816,5.867.086,4.1-2.373,6.773-6.6,7.075-4.7.345-4.7.345-4.7-4.271Zm8.153.086c.043-2.632-1.51-4.271-3.883-4.185-.777.043-1.251.173-1.208,1.165.086,2.028.043,4.1,0,6.169,0,.82.259,1.035,1.078,1.035A4.019,4.019,0,0,0,264.553,166.746Z" transform="translate(-137.602 -51.37)" fill="#0a0a0a"/>
    <path id="Path_1821" data-name="Path 1821" d="M237.718,167.146c1.639,1.467,1.6,3.537,2.2,5.306.129.431.173.82-.388.733-.906-.129-2.114.647-2.632-.647a27.269,27.269,0,0,1-.777-2.675c-.173-.69-.431-1.337-1.208-1.51-.906-.216-1.639-.259-1.51,1.035a16.583,16.583,0,0,1,0,2.071c.043,1.035.173,1.855-1.467,1.855-1.467-.043-1.553-.647-1.553-1.812.043-2.933.086-5.867,0-8.8-.086-1.6.259-2.459,2.028-2.286.992.086,1.984-.129,2.977-.043,1.639.173,3.322.475,3.926,2.33C240.047,164.514,239.4,166.024,237.718,167.146Zm-4.271-2.761c.345.475-.733,1.812.949,1.682,1.165-.086,2.33-.388,2.33-1.855,0-1.251-1.035-1.553-2.114-1.639C233.145,162.357,233.4,163.392,233.447,164.385Z" transform="translate(-122.803 -51.424)" fill="#0a0a0a"/>
    <path id="Path_1822" data-name="Path 1822" d="M122.636,83.718c0,1.726-.043,3.149,0,4.616.043.992-.216,1.38-1.294.949-1.726-.69-3.494-1.337-5.263-1.9A1.36,1.36,0,0,1,115,85.918c.043-2.847.043-5.738,0-8.585,0-1.122.345-1.337,1.337-.906.388.173.82.259,1.251.431,1.6.647,3.8.6,4.745,1.9C123.326,80.094,122.463,82.208,122.636,83.718Z" transform="translate(-57.202 -3.587)" fill="#fbc023"/>
    <path id="Path_1823" data-name="Path 1823" d="M82.593,83.987v4.487c0,.82-.259,1.165-1.122.82-1.855-.69-3.753-1.38-5.608-2.028A1.136,1.136,0,0,1,75,86.015c0-2.977.043-5.953,0-8.973,0-.992.431-.992,1.165-.733,1.812.647,3.624,1.294,5.479,1.855a1.335,1.335,0,0,1,1.035,1.51C82.593,81.14,82.593,82.564,82.593,83.987Z" transform="translate(-34.457 -3.554)" fill="#fbc023"/>
    <path id="Path_1824" data-name="Path 1824" d="M21.949,124.77c-2.373-.863-4.616-1.639-6.816-2.416a1.054,1.054,0,0,1-.733-1.165v-8.93c0-.863.216-1.122,1.122-.82,1.812.647,3.624,1.251,5.479,1.855a1.187,1.187,0,0,1,.949,1.38C21.906,118,21.949,121.276,21.949,124.77Z" transform="translate(0 -23.544)" fill="#fbbe1c"/>
    <path id="Path_1825" data-name="Path 1825" d="M34.45,119.059c.216-1.51-.777-3.8.388-5.09,1.078-1.165,3.279-1.337,4.961-1.941,2.157-.733,2.157-.733,2.157,1.553v7.506c0,.777-.129,1.294-.949,1.553-1.855.6-3.667,1.251-5.479,1.941-1.035.388-1.165-.043-1.122-.906C34.493,122.208,34.45,120.785,34.45,119.059Z" transform="translate(-11.292 -23.7)" fill="#fbbe1c"/>
    <path id="Path_1826" data-name="Path 1826" d="M82.249,117.009c-.086,1.294.3,2.675.086,3.926a3.178,3.178,0,0,1-.173.6c-.043.129-.259.388-.259.475-.82,1.165-3.063,1.424-4.7,2.028-2.5.906-2.5.906-2.5-1.682,0-2.416.043-4.832,0-7.247,0-.82.129-1.38,1.035-1.682q2.653-.777,5.306-1.812c.949-.345,1.208-.043,1.208.863v2.33c0,.431.043.906.043,1.337A6.076,6.076,0,0,1,82.249,117.009Z" transform="translate(-34.287 -23.634)" fill="#fbbe1c"/>
    <path id="Path_1827" data-name="Path 1827" d="M95.15,83.531c.216-1.467-.777-3.667.388-4.918,1.078-1.122,3.149-1.294,4.788-1.9.431-.129.82-.259,1.251-.431.777-.345,1.122-.173,1.122.777q-.065,4.4,0,8.8a1.333,1.333,0,0,1-1.078,1.467c-1.769.561-3.537,1.208-5.263,1.9-.992.388-1.208,0-1.165-.906C95.15,86.853,95.15,85.343,95.15,83.531Z" transform="translate(-45.807 -3.53)" fill="#fbbe1c"/>
    <path id="Path_1828" data-name="Path 1828" d="M34.643,146c2.373.777,4.616,1.553,6.816,2.286.733.216.69.777.69,1.337v8.757c0,.906-.173,1.251-1.165.863-1.726-.69-3.494-1.294-5.263-1.9a1.34,1.34,0,0,1-1.122-1.467C34.686,152.687,34.643,149.451,34.643,146Z" transform="translate(-11.486 -43.264)" fill="#fbbe1c"/>
    <path id="Path_1829" data-name="Path 1829" d="M55.058,153.935c.173-1.467-.733-3.71.388-4.961,1.035-1.122,3.149-1.337,4.788-1.9,2.373-.82,2.373-.777,2.373,1.769,0,2.373-.043,4.745,0,7.118a1.543,1.543,0,0,1-1.251,1.769c-1.726.561-3.451,1.165-5.134,1.812-.949.388-1.208.129-1.208-.82C55.1,157.257,55.058,155.747,55.058,153.935Z" transform="translate(-23.014 -43.606)" fill="#fbbe1c"/>
    <path id="Path_1830" data-name="Path 1830" d="M61.869,119.218c-.043,1.769.3,3.71-.216,5.436-1.726-.561-3.408-1.251-5.134-1.682a2.66,2.66,0,0,1-2.2-1.855,9.125,9.125,0,0,1,0-3.063c.129-1.769,0-3.537-.043-5.349-.043-1.122.129-1.769,1.424-1.078.259.129.6.173.906.3,1.726.6,3.969.733,4.961,1.941.733.863.518,2.157.431,3.149Z" transform="translate(-22.621 -23.557)" fill="#fbbe1c"/>
    <path id="Path_1831" data-name="Path 1831" d="M143.049,75.8V85.852a1.091,1.091,0,0,1-.863,1.208c-1.9.6-3.753,1.294-5.608,2.028-.906.345-1.078-.043-1.078-.82.043-2.977,0-5.953,0-8.93,0-.647.129-1.078.82-1.251C138.52,77.31,140.677,76.577,143.049,75.8Z" transform="translate(-68.858 -3.348)" fill="#fbbe1c"/>
    <path id="Path_1832" data-name="Path 1832" d="M289.181,173a9.517,9.517,0,0,1-2.2-.216c-1.251-.216-1.165-.863-.949-1.855.259-1.251.863-.82,1.6-.6a5.779,5.779,0,0,0,2.588.216c.561-.129,1.078-.345,1.208-.992a1.2,1.2,0,0,0-.777-1.337c-.863-.388-1.726-.733-2.545-1.165a3.452,3.452,0,0,1-2.157-3.581,3.617,3.617,0,0,1,2.933-3.235,6.773,6.773,0,0,1,3.71-.043c.777.216,1.639.129,1.251,1.467-.3,1.078-.647,1.467-1.769.949a4.124,4.124,0,0,0-1.294-.129c-.777,0-1.6.043-1.769.992-.129.863.6,1.122,1.251,1.38.561.259,1.165.475,1.726.733,1.984.949,2.8,2.286,2.545,4.1a4.069,4.069,0,0,1-3.8,3.322C290.173,173.041,289.655,173,289.181,173Z" transform="translate(-154.378 -51.195)" fill="#0a0a0a"/>
    <path id="Path_1833" data-name="Path 1833" d="M37.9,141.891c4.573-2.416,9.189-2.5,13.546.129C47.046,144.867,42.43,144.565,37.9,141.891Z" transform="translate(-13.362 -39.888)" fill="#fbc023"/>
    <path id="Path_1834" data-name="Path 1834" d="M77.9,71.719c5.09-2.416,8.2-2.416,13.675.043C87.089,74.739,82.473,74.264,77.9,71.719Z" transform="translate(-36.106 0)" fill="#fbc023"/>
    <path id="Path_1835" data-name="Path 1835" d="M17,106.669c6.859-2.373,7.463-2.373,13.8.086C26.189,109.818,21.616,109.3,17,106.669Z" transform="translate(-1.478 -19.894)" fill="#fbbe1c"/>
    <path id="Path_1836" data-name="Path 1836" d="M57.1,106.848c4.573-2.2,9.146-2.761,13.589.043C67.669,109.437,63.14,109.48,57.1,106.848Z" transform="translate(-24.279 -19.944)" fill="#fbc023"/>
    <path id="Path_1837" data-name="Path 1837" d="M118,71.731c4.616-2.2,9.189-2.632,13.589.129C127.189,74.837,122.573,74.233,118,71.731Z" transform="translate(-58.908 -0.012)" fill="#fbc023"/>
  </g>
</svg>
