<svg xmlns="http://www.w3.org/2000/svg" xmlns:xlink="http://www.w3.org/1999/xlink" width="122.168" height="31.137" viewBox="0 0 122.168 31.137">
  <defs>
    <linearGradient id="linear-gradient" x1="-18.595" y1="-18.486" x2="-18.577" y2="-18.486" gradientUnits="objectBoundingBox">
      <stop offset="0" stop-color="#0994dc"/>
      <stop offset="0.35" stop-color="#66cef5"/>
      <stop offset="0.846" stop-color="#127bca"/>
      <stop offset="1" stop-color="#127bca"/>
    </linearGradient>
    <linearGradient id="linear-gradient-2" x1="-17.79" y1="-17.994" x2="-17.773" y2="-17.994" gradientUnits="objectBoundingBox">
      <stop offset="0" stop-color="#0e76bc"/>
      <stop offset="0.36" stop-color="#36aee8"/>
      <stop offset="0.846" stop-color="#00adef"/>
      <stop offset="1" stop-color="#00adef"/>
    </linearGradient>
    <linearGradient id="linear-gradient-3" x1="-19.312" y1="-17.614" x2="-19.294" y2="-17.614" gradientUnits="objectBoundingBox">
      <stop offset="0" stop-color="#1c63b7"/>
      <stop offset="0.5" stop-color="#33bdf2"/>
      <stop offset="1" stop-color="#33bdf2" stop-opacity="0.42"/>
    </linearGradient>
    <linearGradient id="linear-gradient-4" x1="-19.362" y1="-17.193" x2="-19.344" y2="-17.193" gradientUnits="objectBoundingBox">
      <stop offset="0" stop-color="#166ab8"/>
      <stop offset="0.4" stop-color="#36aee8"/>
      <stop offset="0.846" stop-color="#0798dd"/>
      <stop offset="1" stop-color="#0798dd"/>
    </linearGradient>
    <linearGradient id="linear-gradient-5" x1="-14.647" y1="-16.188" x2="-14.633" y2="-16.188" gradientUnits="objectBoundingBox">
      <stop offset="0" stop-color="#124379"/>
      <stop offset="0.39" stop-color="#1487cb"/>
      <stop offset="0.78" stop-color="#165197"/>
      <stop offset="1" stop-color="#165197"/>
    </linearGradient>
    <linearGradient id="linear-gradient-6" x1="-2.677" y1="5.716" x2="-2.429" y2="5.716" gradientUnits="objectBoundingBox">
      <stop offset="0" stop-color="#33bdf2" stop-opacity="0.698"/>
      <stop offset="1" stop-color="#1dacd8"/>
    </linearGradient>
    <linearGradient id="linear-gradient-7" x1="-11.813" y1="-15.061" x2="-11.803" y2="-15.061" gradientUnits="objectBoundingBox">
      <stop offset="0" stop-color="#136ab4"/>
      <stop offset="0.6" stop-color="#59caf5" stop-opacity="0.549"/>
      <stop offset="1" stop-color="#59caf5" stop-opacity="0.235"/>
    </linearGradient>
    <linearGradient id="linear-gradient-8" x1="-0.002" y1="1.952" x2="0.246" y2="1.952" gradientUnits="objectBoundingBox">
      <stop offset="0" stop-color="#05a1e6" stop-opacity="0.247"/>
      <stop offset="1" stop-color="#05a1e6"/>
    </linearGradient>
    <linearGradient id="linear-gradient-9" x1="-15.802" y1="-20.187" x2="-15.786" y2="-20.187" gradientUnits="objectBoundingBox">
      <stop offset="0" stop-color="#318ed5"/>
      <stop offset="1" stop-color="#38a7e4"/>
    </linearGradient>
    <linearGradient id="linear-gradient-10" x1="-17.171" y1="-26.787" x2="-17.153" y2="-26.787" gradientUnits="objectBoundingBox">
      <stop offset="0" stop-color="#05a1e6"/>
      <stop offset="1" stop-color="#05a1e6" stop-opacity="0.549"/>
    </linearGradient>
    <linearGradient id="linear-gradient-11" x1="-14.942" y1="-18.573" x2="-14.927" y2="-18.573" gradientUnits="objectBoundingBox">
      <stop offset="0" stop-color="#1959a6"/>
      <stop offset="0.5" stop-color="#05a1e6"/>
      <stop offset="0.918" stop-color="#7ec5ea"/>
      <stop offset="1" stop-color="#7ec5ea"/>
    </linearGradient>
    <linearGradient id="linear-gradient-12" x1="-10.604" y1="-15.034" x2="-10.593" y2="-15.034" gradientUnits="objectBoundingBox">
      <stop offset="0" stop-color="#165096"/>
      <stop offset="1" stop-color="#0d82ca"/>
    </linearGradient>
    <linearGradient id="linear-gradient-13" x1="-28.737" y1="-26.007" x2="-28.712" y2="-26.007" gradientUnits="objectBoundingBox">
      <stop offset="0" stop-color="#05a1e6"/>
      <stop offset="0.874" stop-color="#0495d6"/>
      <stop offset="1" stop-color="#0495d6"/>
    </linearGradient>
    <linearGradient id="linear-gradient-14" x1="-15.601" y1="-15.429" x2="-15.587" y2="-15.429" gradientUnits="objectBoundingBox">
      <stop offset="0" stop-color="#38a7e4" stop-opacity="0.329"/>
      <stop offset="0.962" stop-color="#0e88d3"/>
      <stop offset="1" stop-color="#0e88d3"/>
    </linearGradient>
    <linearGradient id="linear-gradient-15" x1="-13.2" y1="-15.148" x2="-13.188" y2="-15.148" gradientUnits="objectBoundingBox">
      <stop offset="0" stop-color="#168cd4"/>
      <stop offset="0.5" stop-color="#1c87cc"/>
      <stop offset="1" stop-color="#154b8d"/>
    </linearGradient>
    <linearGradient id="linear-gradient-16" x1="-251.784" y1="82.646" x2="-251.658" y2="82.646" gradientUnits="objectBoundingBox">
      <stop offset="0" stop-color="#97d6ee"/>
      <stop offset="0.703" stop-color="#55c1ea"/>
      <stop offset="1" stop-color="#55c1ea"/>
    </linearGradient>
    <linearGradient id="linear-gradient-17" x1="-309.369" y1="46.923" x2="-309.215" y2="46.923" gradientUnits="objectBoundingBox">
      <stop offset="0" stop-color="#7accec"/>
      <stop offset="1" stop-color="#3fb7ed"/>
    </linearGradient>
    <linearGradient id="linear-gradient-18" x1="-17.74" y1="-18.432" x2="-17.724" y2="-18.432" gradientUnits="objectBoundingBox">
      <stop offset="0" stop-color="#1da7e7"/>
      <stop offset="1" stop-color="#37abe7" stop-opacity="0"/>
    </linearGradient>
  </defs>
  <g id="layer1" transform="translate(-0.039 1.379)">
    <path id="path12245" d="M1193.109,1946.853h-.561v1.744h-.229v-1.744h-.563v-.208h1.354Z" transform="translate(-1140.757 -1923.921)"/>
    <path id="path12257" d="M1202.028,1948.595h-.228v-1.311c0-.1.008-.23.019-.379h0a1.338,1.338,0,0,1-.061.19l-.665,1.5h-.112l-.667-1.488a1.085,1.085,0,0,1-.06-.2h-.008c.008.079.011.206.011.382v1.308h-.219v-1.952h.3l.6,1.363a1.762,1.762,0,0,1,.088.234h.009c.04-.108.072-.187.094-.24l.611-1.357h.288v1.952Z" transform="translate(-1147.378 -1923.918)"/>
    <g id="Group_246" data-name="Group 246" transform="translate(68.218 -1.379)">
      <path id="path12261" d="M1193.9,1988.367a.282.282,0,0,0-.089-.232.555.555,0,0,0-.341-.082h-.23v.632h.277c.256,0,.383-.106.383-.318m.359,1.318h-.316l-.2-.445c-.1-.223-.212-.334-.331-.334h-.17v.779h-.26v-1.854h.522a.774.774,0,0,1,.526.155.445.445,0,0,1,.152.35.455.455,0,0,1-.125.324.626.626,0,0,1-.346.182v.008c.1.024.206.138.307.342l.244.494Zm.577-.909a1.238,1.238,0,0,0-.373-.917,1.3,1.3,0,1,0-.912,2.21,1.275,1.275,0,0,0,1.284-1.293m.175-.008a1.381,1.381,0,0,1-.423,1.03,1.524,1.524,0,0,1-2.083.012,1.384,1.384,0,0,1-.412-1.03,1.4,1.4,0,0,1,.42-1.028,1.516,1.516,0,0,1,2.073-.019,1.375,1.375,0,0,1,.427,1.036" transform="translate(-1141.023 -1985.725)"/>
      <path id="path12265" d="M978.079,1989.749h-.9v-5.143c0-.406.027-.9.075-1.484h-.021a4.889,4.889,0,0,1-.229.742l-2.612,5.885h-.438l-2.617-5.843a4.249,4.249,0,0,1-.229-.784h-.02c.028.307.043.8.043,1.494v5.132h-.866v-7.658h1.185l2.349,5.34a6.924,6.924,0,0,1,.348.917h.037c.153-.418.275-.732.367-.939l2.4-5.318h1.125v7.658Z" transform="translate(-963.713 -1981.537)"/>
      <path id="path12267" d="M1019,1988.413h-.873v-5.469H1019Zm.151-7.429a.547.547,0,0,1-.169.406.556.556,0,0,1-.407.166.565.565,0,0,1-.4-.16.582.582,0,0,1,0-.815.587.587,0,0,1,.81,0,.541.541,0,0,1,.169.4" transform="translate(-1001.869 -1980.201)"/>
      <path id="path12271" d="M1033.82,1997.685a2.809,2.809,0,0,1-1.5.385,2.465,2.465,0,0,1-1.9-.78,2.76,2.76,0,0,1-.7-1.954,3.048,3.048,0,0,1,.773-2.172,2.694,2.694,0,0,1,2.074-.828,2.791,2.791,0,0,1,1.265.278v.9a2.217,2.217,0,0,0-1.3-.429,1.753,1.753,0,0,0-1.362.583,2.259,2.259,0,0,0-.551,1.591,2.168,2.168,0,0,0,.506,1.511,1.739,1.739,0,0,0,1.352.555,2.208,2.208,0,0,0,1.345-.47Z" transform="translate(-1011.235 -1989.725)"/>
      <path id="path12275" d="M1059.612,1993.506a1.17,1.17,0,0,0-1.565.3,2.4,2.4,0,0,0-.411,1.489v2.788h-.875v-5.469h.875v1.128h.021a1.919,1.919,0,0,1,.593-.924,1.309,1.309,0,0,1,.838-.3,1.42,1.42,0,0,1,.525.074v.908Z" transform="translate(-1032.849 -1989.876)"/>
      <path id="path12279" d="M1077.417,1995.205a2.39,2.39,0,0,0-.474-1.6,1.616,1.616,0,0,0-1.288-.529,1.688,1.688,0,0,0-1.307.535,2.321,2.321,0,0,0-.518,1.617,2.213,2.213,0,0,0,.5,1.535,1.694,1.694,0,0,0,1.329.553,1.6,1.6,0,0,0,1.318-.56,2.4,2.4,0,0,0,.444-1.549m.9-.031a2.949,2.949,0,0,1-.736,2.1,2.59,2.59,0,0,1-1.988.791,2.512,2.512,0,0,1-1.953-.791,2.847,2.847,0,0,1-.7-2.012,2.933,2.933,0,0,1,.8-2.206,2.719,2.719,0,0,1,1.985-.726,2.459,2.459,0,0,1,1.912.758,3.018,3.018,0,0,1,.685,2.09" transform="translate(-1045.775 -1989.718)"/>
      <path id="path12283" d="M1108,1996.473a1.422,1.422,0,0,1-.5,1.115,2.2,2.2,0,0,1-1.5.48,2.681,2.681,0,0,1-1.356-.329v-.941a2.2,2.2,0,0,0,1.421.524q1.039,0,1.041-.764a.676.676,0,0,0-.23-.528,3.657,3.657,0,0,0-.9-.5,2.879,2.879,0,0,1-.977-.62,1.509,1.509,0,0,1,.192-2.12,2.085,2.085,0,0,1,1.389-.453,2.594,2.594,0,0,1,1.169.256v.881a2.063,2.063,0,0,0-1.241-.39,1.075,1.075,0,0,0-.7.213.682.682,0,0,0-.263.551.731.731,0,0,0,.22.565,3.038,3.038,0,0,0,.821.454,3.166,3.166,0,0,1,1.01.606,1.349,1.349,0,0,1,.4,1" transform="translate(-1071.12 -1989.724)"/>
      <path id="path12287" d="M1130.177,1995.205a2.385,2.385,0,0,0-.475-1.6,1.614,1.614,0,0,0-1.287-.529,1.694,1.694,0,0,0-1.309.535,2.326,2.326,0,0,0-.516,1.617,2.225,2.225,0,0,0,.493,1.535,1.707,1.707,0,0,0,1.332.553,1.6,1.6,0,0,0,1.318-.56,2.4,2.4,0,0,0,.444-1.549m.9-.031a2.947,2.947,0,0,1-.74,2.1,2.583,2.583,0,0,1-1.986.791,2.514,2.514,0,0,1-1.954-.791,2.848,2.848,0,0,1-.7-2.012,2.944,2.944,0,0,1,.8-2.206,2.723,2.723,0,0,1,1.987-.726,2.453,2.453,0,0,1,1.91.758,3.014,3.014,0,0,1,.688,2.09" transform="translate(-1087.945 -1989.718)"/>
      <path id="path12291" d="M1158.578,1980.213a1.173,1.173,0,0,0-.581-.144c-.613,0-.917.386-.917,1.159v.843h1.282v.741h-1.282v4.727h-.876v-4.727h-.93v-.741h.93v-.886a1.814,1.814,0,0,1,.559-1.414,1.678,1.678,0,0,1,1.182-.443,1.717,1.717,0,0,1,.634.095Z" transform="translate(-1111.59 -1979.328)"/>
      <path id="path12295" d="M1176.236,1991.963a1.65,1.65,0,0,1-.823.177q-1.432,0-1.431-1.614v-3.235h-.938v-.743h.938v-1.334c.28-.088.57-.184.877-.284v1.618h1.377v.743h-1.377v3.086a1.252,1.252,0,0,0,.185.781.755.755,0,0,0,.625.234.928.928,0,0,0,.566-.176Z" transform="translate(-1125.796 -1983.806)"/>
      <path id="path12299" d="M940.729,2120.3a1.589,1.589,0,0,1-1.583,1.581,1.457,1.457,0,0,1-1.092-.469,1.615,1.615,0,0,1,0-2.232,1.46,1.46,0,0,1,1.092-.462,1.513,1.513,0,0,1,1.12.468,1.531,1.531,0,0,1,.462,1.114" transform="translate(-937.607 -2090.742)"/>
      <path id="path12303" d="M986.4,2052.91H983.55l-10.363-16a7.347,7.347,0,0,1-.628-1.26h-.085a20.845,20.845,0,0,1,.112,2.758v14.507h-2.354v-20.079h3.055l10.053,15.752c.4.625.674,1.073.813,1.342h.056a21.141,21.141,0,0,1-.142-2.952v-14.142H986.4v20.079Z" transform="translate(-963.685 -2022.094)"/>
      <path id="path12307" d="M1083.616,2052.91h-10.642v-20.079h10.18v2.128h-7.828v6.679h7.254v2.129h-7.254v7.015h8.29Z" transform="translate(-1045.81 -2022.094)"/>
      <path id="path12311" d="M1150.955,2034.953h-5.784V2052.9h-2.352v-17.951h-5.8v-2.128h13.931Z" transform="translate(-1097.003 -2022.088)"/>
    </g>
    <path id="path12339" d="M1046.85,1856.751c2.27,6.943,3.131,19.328,9.769,19.328h0a8.183,8.183,0,0,0,1.529-.147h0c-6.035-1.407-6.75-13.657-10.433-20h0c-.289.263-.575.536-.865.821" transform="translate(-1024.932 -1851.411)" fill="url(#linear-gradient)"/>
    <path id="path12367" d="M1051.16,1853.3c3.683,6.344,4.4,18.594,10.433,20h0a9.621,9.621,0,0,0,1.425-.385h0c-5.417-2.654-6.914-14.55-11.1-20.277h0q-.38.316-.762.661" transform="translate(-1028.377 -1848.78)" fill="url(#linear-gradient-2)"/>
    <path id="path12379" d="M1055.242,1837.13a8.186,8.186,0,0,0-1.53.147,11.715,11.715,0,0,0-4.084,1.707,10.186,10.186,0,0,1,1.07,1.258,14.66,14.66,0,0,1,4.174-2.534,9.287,9.287,0,0,1,1.557-.433,4.8,4.8,0,0,0-1.187-.145" transform="translate(-1027.153 -1836.384)" fill="#14559a"/>
    <path id="path12459" d="M1093.108,1858.118q.831-.661,1.666-1.46c-2.307-6.91-3.133-19.473-9.818-19.473a7.919,7.919,0,0,0-1.442.134c6.09,1.515,6.87,14.764,9.594,20.8" transform="translate(-1054.238 -1836.428)" fill="url(#linear-gradient-3)"/>
    <path id="path12521" d="M1078.781,1837.273a4.79,4.79,0,0,0-1.187-.145l2.629.009a7.814,7.814,0,0,0-1.442.135" transform="translate(-1049.505 -1836.383)" fill="#3092c4"/>
    <path id="path12525" d="M1114.362,1945.556a9.861,9.861,0,0,1-.754-.814,13.834,13.834,0,0,1-3.358,1.793,5.166,5.166,0,0,0,1.252.427,5.3,5.3,0,0,0,1.067.105,6.994,6.994,0,0,0,3.078-.551,5.86,5.86,0,0,1-1.285-.96" transform="translate(-1075.608 -1922.399)" fill="#1969bc"/>
    <path id="path12553" d="M1075.75,1838.279c5.454,2.853,5.929,15.772,10.281,21.018h0c.292-.206.581-.423.869-.654h0c-2.724-6.035-3.5-19.286-9.592-20.8h0a9.45,9.45,0,0,0-1.558.435" transform="translate(-1048.032 -1836.955)" fill="url(#linear-gradient-4)"/>
    <path id="path12581" d="M1054.96,1842.548c4.182,5.727,5.679,17.623,11.1,20.278h0a13.846,13.846,0,0,0,3.358-1.793h0c-4.352-5.246-4.827-18.165-10.281-21.018h0a14.641,14.641,0,0,0-4.174,2.534" transform="translate(-1031.414 -1838.689)" fill="url(#linear-gradient-5)"/>
    <path id="path12651" d="M1025.018,1852.471a62.327,62.327,0,0,0-2.134,5.973,44.438,44.438,0,0,1,4.81-5.806,17.409,17.409,0,0,0-.71-1.854,23.958,23.958,0,0,0-1.965,1.687" transform="translate(-1005.775 -1847.298)" fill="url(#linear-gradient-6)"/>
    <path id="path12655" d="M1043.9,1848.65c-.193.138-.386.279-.581.427a17.513,17.513,0,0,1,.709,1.854c.29-.283.577-.558.865-.82a11.453,11.453,0,0,0-.994-1.461" transform="translate(-1022.108 -1845.592)" fill="#2b74b1"/>
    <path id="path12659" d="M1046.894,1846.37c-.229.145-.457.3-.687.458a11.553,11.553,0,0,1,.995,1.462c.255-.23.509-.452.762-.662a10.153,10.153,0,0,0-1.07-1.259" transform="translate(-1024.418 -1843.769)" fill="#125a9e"/>
    <path id="path12741" d="M1170.283,1834.489c-3.085,11.9-9.528,21.452-14.93,23.862h-.01c-.1.044-.2.085-.292.124a.216.216,0,0,1-.036.014l-.083.032a.2.2,0,0,1-.037.016c-.046.016-.09.03-.135.048-.019.008-.038.013-.056.019a.6.6,0,0,1-.067.022c-.02.008-.041.014-.065.023s-.039.011-.058.019c-.04.011-.076.021-.115.035a.217.217,0,0,0-.049.013c-.024.008-.052.014-.078.021a.234.234,0,0,1-.052.014c-.027.009-.058.016-.085.022l-.1.023a2.2,2.2,0,0,0,.773.135c5.122,0,10.287-9.18,18.833-24.445h-3.355Z" transform="translate(-1110.604 -1834.271)" fill="url(#linear-gradient-7)"/>
    <path id="path12803" d="M953.785,1837.6s.007-.008.009-.008a.011.011,0,0,0,.012-.008h.006c.028-.01.055-.021.083-.031a.015.015,0,0,0,.016-.008c.007,0,.014-.008.021-.009.03-.01.061-.021.089-.031h0c.068-.021.131-.046.2-.069.009,0,.018-.008.03-.008.027-.009.055-.019.084-.025a.181.181,0,0,1,.038-.012c.029-.009.058-.019.085-.025s.023-.008.032-.009c.094-.026.188-.05.282-.073.013,0,.024-.008.039-.009a.522.522,0,0,1,.082-.016.14.14,0,0,1,.041-.012c.027-.008.054-.009.083-.015h.019l.171-.032h.035c.027-.008.052-.009.079-.014s.03-.008.045-.008a.581.581,0,0,0,.076-.011.083.083,0,0,0,.042-.008c.06-.008.121-.011.184-.017-.177-.017-.36-.028-.545-.028-5.769,0-13.716,10.7-17.3,24.565h.69c1.146-2.043,2.175-3.976,3.116-5.791,2.507-9.818,7.615-16.514,12.151-18.288" transform="translate(-937.789 -1836.367)" fill="url(#linear-gradient-8)"/>
    <path id="path12807" d="M1033.52,1848.868a23.922,23.922,0,0,1,1.965-1.687,9.3,9.3,0,0,0-.468-.9,11.089,11.089,0,0,0-1.5,2.592" transform="translate(-1014.277 -1843.695)" fill="#0d82ca"/>
    <path id="path12811" d="M1035.59,1839.791a4.922,4.922,0,0,1,1.023,1.271c.1-.119.2-.23.3-.333a5.79,5.79,0,0,0-1.394-.976.626.626,0,0,0,.062.029s.008.008.011.008" transform="translate(-1015.873 -1838.481)" fill="#0d82ca"/>
    <path id="path12831" d="M956.789,1857.823c5.26-10.136,7.752-16.551,12.151-18.288h0c-4.536,1.775-9.644,8.47-12.151,18.288" transform="translate(-952.945 -1838.307)" fill="url(#linear-gradient-9)"/>
    <path id="path12843" d="M1041.274,1844.61c-.1.1-.2.214-.3.333a9.434,9.434,0,0,1,.469.9c.194-.149.388-.29.58-.427a7.861,7.861,0,0,0-.752-.811" transform="translate(-1020.237 -1842.363)" fill="#127bca"/>
    <path id="path12923" d="M967.009,1903.054h0a.667.667,0,0,1-.1.011H966.9c-.027,0-.056.008-.081.008H966.8c-.066.008-.131.008-.194.013h-.02c5.324-.149,7.757-2.814,8.965-6.68.918-2.931,1.672-5.4,2.332-7.472a105.819,105.819,0,0,0-6.722,11.071,5.513,5.513,0,0,1-4.154,3.044" transform="translate(-960.777 -1877.792)" fill="url(#linear-gradient-10)"/>
    <path id="path12949" d="M968.688,1879.269h0a5.511,5.511,0,0,0,4.154-3.044h0a106.334,106.334,0,0,1,6.721-11.072h0a62.239,62.239,0,0,1,2.136-5.973h0c-4.44,4.227-8.9,11.255-13.01,20.087" transform="translate(-962.456 -1854.009)" fill="url(#linear-gradient-11)"/>
    <path id="path12961" d="M944.376,1930.66c-.941,1.814-1.97,3.748-3.116,5.791h2.007a49.116,49.116,0,0,1,1.109-5.79" transform="translate(-940.532 -1911.144)" fill="#05a1e6"/>
    <path id="path12981" d="M966.245,1837.325c-.016,0-.028.008-.043.008h0a.322.322,0,0,1-.075.011h0a.087.087,0,0,0-.044.008h0c-.028.008-.053.009-.079.014h0a.054.054,0,0,0-.034.008h0l-.171.03h-.019a.646.646,0,0,1-.083.016h0a.133.133,0,0,1-.042.011h0c-.027.008-.055.011-.081.016h0a.076.076,0,0,1-.039.009h0c-.094.023-.187.047-.281.073h0c-.01,0-.02.008-.032.009h0l-.085.025h0a.108.108,0,0,1-.038.011h0l-.084.026h0c-.011,0-.02.008-.031.008h0c-.065.024-.129.049-.2.069h0c-.028.009-.059.02-.089.031h0a.172.172,0,0,1-.038.016h0c-.028.009-.057.02-.083.031h0a.132.132,0,0,1-.027.013h0c-4.4,1.736-6.891,8.151-12.151,18.288h0a48.839,48.839,0,0,0-1.109,5.79h.282c.793,0,1.017-.008,1.93-.008h.884c.063-.008.128-.008.193-.013h.012c.027,0,.055-.008.081-.008h.019a.941.941,0,0,0,.1-.011h0c4.112-8.832,8.57-15.86,13.01-20.087h0a11.119,11.119,0,0,1,1.5-2.59h0a4.9,4.9,0,0,0-1.022-1.273h0s-.01,0-.011-.008h0c-.021-.009-.042-.02-.063-.03h0l-.062-.031h0c-.019-.008-.042-.019-.061-.029h0a.532.532,0,0,1-.071-.03h0l-.056-.024h0c-.04-.015-.079-.032-.116-.049h0c-.017-.008-.033-.012-.05-.019h0l-.087-.035h0a.27.27,0,0,0-.047-.016h0l-.121-.041h-.01c-.047-.015-.092-.027-.14-.04h0a.059.059,0,0,0-.031-.009h0l-.118-.033h0c-.01,0-.019-.008-.027-.008h0c-.1-.025-.193-.045-.293-.064h0c-.01,0-.02-.008-.03-.008h0c-.042-.008-.084-.015-.127-.02h0a.033.033,0,0,0-.025-.008h0c-.051-.009-.1-.014-.15-.02h-.026c-.041-.008-.078-.009-.115-.013h0c-.064.008-.125.011-.184.017" transform="translate(-948.549 -1836.535)" fill="url(#linear-gradient-12)"/>
    <path id="path13003" d="M1164.834,1843.176c-1.012,3.242-1.832,5.917-2.545,8.117h0a88.141,88.141,0,0,0,8.117-14.176h0c-3.038.954-4.659,3.139-5.572,6.059" transform="translate(-1117.204 -1836.374)" fill="url(#linear-gradient-13)"/>
    <path id="path13093" d="M1161.043,1858.15c-.142.072-.284.141-.423.2,5.4-2.409,11.845-11.965,14.93-23.862h-.625c-7.088,12.661-9.367,21.136-13.882,23.659" transform="translate(-1115.869 -1834.274)" fill="url(#linear-gradient-14)"/>
    <path id="path13097" d="M1140.72,1915.647c1.175-1.434,2.133-3.873,3.439-7.892a39.473,39.473,0,0,1-4.543,5.3c0,.008,0,.008-.008.013a13.865,13.865,0,0,0,1.109,2.577" transform="translate(-1099.074 -1892.835)" fill="#079ae1"/>
    <path id="path13101" d="M1138.742,1947.08a4.8,4.8,0,0,1-1.295,1.136c-.1.06-.207.117-.314.168a4.56,4.56,0,0,0,1.648.52h0c.089.009.177.017.269.023h.016a.718.718,0,0,1,.13.008h.439a.105.105,0,0,0,.049-.008.4.4,0,0,0,.1-.008h.048c.033,0,.07-.008.105-.012h.008c.011,0,.022-.008.032-.008.037-.008.076-.011.112-.017h.033c.041-.008.084-.013.126-.021h.02c.085-.016.168-.032.252-.054a3.669,3.669,0,0,1-1.783-1.714" transform="translate(-1097.097 -1924.268)" fill="#1969bc"/>
    <path id="path13105" d="M1095.53,1954.211a8.085,8.085,0,0,0,1.529-.148,9.415,9.415,0,0,0,1.425-.384,5.181,5.181,0,0,0,1.251.426,5.307,5.307,0,0,0,1.068.105Z" transform="translate(-1063.842 -1929.543)" fill="#1e5cb3"/>
    <path id="path13109" d="M1121.786,1954.135a6.994,6.994,0,0,0,3.077-.551,4.553,4.553,0,0,0,1.648.52h0c.089.009.177.017.269.023h.016a.721.721,0,0,1,.13.008h-5.144Z" transform="translate(-1084.826 -1929.467)" fill="#1e5cb3"/>
    <path id="path13113" d="M1148.19,1955.8h.289a.1.1,0,0,0,.049-.008.426.426,0,0,0,.1-.008h.048c.033,0,.07-.008.1-.011h.009c.011,0,.021-.008.032-.008.037-.008.076-.011.112-.017a.056.056,0,0,0,.035-.008c.041-.008.084-.012.127-.02h.02c.085-.016.168-.032.252-.054h0a2.2,2.2,0,0,0,.773.136l-1.947.008Z" transform="translate(-1105.934 -1931.127)" fill="#1d60b5"/>
    <path id="path13117" d="M1129.53,1934.218v-.008q-.834.8-1.666,1.46c-.29.23-.578.448-.87.654a9.883,9.883,0,0,0,.754.814,5.846,5.846,0,0,0,1.284.96c.105-.052.211-.109.313-.168a4.8,4.8,0,0,0,1.3-1.135,13.854,13.854,0,0,1-1.109-2.576" transform="translate(-1088.993 -1913.981)" fill="#175fab"/>
    <path id="path13139" d="M1160.562,1834.5h-3.146c-.17.008-.335.014-.5.024h0c-.077.166-.156.331-.232.5h0a88.146,88.146,0,0,1-8.117,14.177h0c-1.306,4.019-2.264,6.457-3.44,7.892h0a3.678,3.678,0,0,0,1.782,1.715h0a.333.333,0,0,1,.055-.012h.011c.012,0,.025-.008.038-.008h0c.029-.008.059-.013.087-.022h0a.511.511,0,0,1,.052-.015h0c.026-.008.054-.014.078-.02h0a.183.183,0,0,1,.049-.014h0l.115-.035h0a.325.325,0,0,1,.058-.02h0a.676.676,0,0,0,.065-.024h0c.023-.008.047-.012.067-.021h0c.018-.008.037-.013.055-.02h0c.045-.016.09-.03.136-.048h0c.012,0,.024-.011.037-.013h0c.027-.012.056-.02.083-.033h0a.109.109,0,0,1,.036-.013h0c.1-.04.193-.08.292-.125h.01c.14-.062.282-.131.423-.2h0c4.515-2.522,6.795-11,13.883-23.659h-1.979Z" transform="translate(-1103.487 -1834.281)" fill="url(#linear-gradient-15)"/>
    <path id="path13231" d="M1026.73,1837.245a.047.047,0,0,1,.032.008.263.263,0,0,1,.082.009h.028c.05.008.1.012.15.019a.031.031,0,0,1,.025.008c.042.008.084.015.127.021.009,0,.021.008.031.008.1.02.2.04.292.065.009,0,.018.008.027.008.041.01.077.022.117.033.012,0,.021.008.033.01.048.012.092.024.139.04,0,0,0,0,.01.009.04.012.08.027.122.041a.216.216,0,0,0,.047.015l.087.036a.183.183,0,0,1,.05.017c.037.017.077.032.115.049.02.008.038.017.057.025a.509.509,0,0,0,.07.03l.062.029.062.032a5.8,5.8,0,0,1,1.394.976,4.569,4.569,0,0,1,.494-.449,5.443,5.443,0,0,0-3.224-1.043c-.142,0-.284.008-.427.019" transform="translate(-1008.85 -1836.471)" fill="#7dcbec"/>
    <path id="path13235" d="M1042.46,1842.822a7.944,7.944,0,0,1,.752.811c.23-.16.458-.314.687-.458a7.225,7.225,0,0,0-.945-.8,4.381,4.381,0,0,0-.493.449" transform="translate(-1021.423 -1840.575)" fill="#5ec5ed"/>
    <g id="g13243" transform="translate(17.337 0.746)">
      <path id="path13245" d="M10088.83-433.452c.143-.012.285-.017.425-.017a5.446,5.446,0,0,1,3.225,1.042,5.837,5.837,0,0,1,3.847-1.053h-8.042c.185,0,.365.011.546.027" transform="translate(-10088.284 433.48)" fill="url(#linear-gradient-16)"/>
    </g>
    <g id="g13253" transform="translate(21.535 0.746)">
      <path id="path13255" d="M10113.044-433.48a5.832,5.832,0,0,0-3.845,1.053,7.5,7.5,0,0,1,.944.8,11.689,11.689,0,0,1,4.083-1.708,8.3,8.3,0,0,1,1.529-.146Z" transform="translate(-10109.199 433.48)" fill="url(#linear-gradient-17)"/>
    </g>
    <path id="path13333" d="M1144.2,1849.322c.714-2.2,1.532-4.876,2.546-8.119.914-2.921,2.532-5.106,5.57-6.059.08-.163.156-.331.234-.5-4.953.3-7.268,2.817-8.433,6.548-2.037,6.514-3.271,10.737-4.46,13.428a39.642,39.642,0,0,0,4.543-5.3" transform="translate(-1099.111 -1834.399)" fill="url(#linear-gradient-18)"/>
  </g>
</svg>
