<svg xmlns="http://www.w3.org/2000/svg" width="148.398" height="41.73" viewBox="0 0 148.398 41.73">
  <g id="Flutter" transform="translate(-33.548 -111.3)">
    <path id="Path_2271" data-name="Path 2271" d="M66.581,111.762c-3.237,3.237-6.531,6.473-9.768,9.71-5.375,5.375-10.75,10.693-16.01,16.068-.983,1.04-1.618,1.04-2.543,0-1.329-1.5-2.717-2.948-4.161-4.393-.694-.694-.751-1.156-.058-1.85q9.71-9.71,19.42-19.362a1.83,1.83,0,0,1,1.329-.636H66.465A1.36,1.36,0,0,0,66.581,111.762Z" fill="#61c9f6"/>
    <path id="Path_2272" data-name="Path 2272" d="M247.647,147.446c-1.85,0-3.641.058-5.491,0-1.214-.058-1.387.462-1.156,1.5a5.631,5.631,0,0,0,4.1,4.277,5.547,5.547,0,0,0,5.838-1.676c.4-.4.578-1.156,1.445-.983,1.734.347,2.023,1.156.867,2.543-2.37,2.832-5.491,3.526-8.9,2.832-3.352-.694-5.317-3.006-6.127-6.3a9.97,9.97,0,0,1,1.734-8.959,8.2,8.2,0,0,1,9.537-2.6,8.452,8.452,0,0,1,5.2,8.092c-.058.983-.347,1.329-1.329,1.329C251.4,147.388,249.5,147.446,247.647,147.446Zm-1.387-2.37c1.329,0,2.659-.058,3.93,0,1.387.058,1.445-.52,1.04-1.618a5,5,0,0,0-5.028-3.237,5.353,5.353,0,0,0-4.913,3.7c-.289.867,0,1.1.809,1.1C243.485,145.076,244.872,145.076,246.26,145.076Z" transform="translate(-86.219 -11.062)" fill="#7b7b7b"/>
    <path id="Path_2273" data-name="Path 2273" d="M121.254,138.6c0-3.526.058-7.051,0-10.577,0-1.272.4-1.618,1.618-1.618,3.641.058,7.34.058,10.982,0,1.1,0,1.734.116,1.734,1.5,0,1.329-.694,1.387-1.676,1.387-2.659-.058-5.317.058-7.918-.058-1.272-.058-1.85.289-1.792,1.676a34.844,34.844,0,0,1,0,4.913c-.058,1.272.347,1.792,1.676,1.734,2.312-.116,4.682,0,6.994-.058,1.1-.058,1.561.231,1.561,1.445,0,1.272-.52,1.445-1.618,1.445-2.2-.058-4.45.116-6.647-.058-1.734-.116-2.139.52-2.081,2.139.116,2.312,0,4.682.058,6.994.058,1.1-.289,1.561-1.445,1.561s-1.561-.347-1.5-1.5C121.254,145.878,121.254,142.237,121.254,138.6Z" transform="translate(-36.987 -6.372)" fill="#7b7b7b"/>
    <path id="Path_2274" data-name="Path 2274" d="M175.939,154.034c-1.907,1.734-3.815,2.717-6.184,2.543-2.948-.173-5.028-1.561-5.606-4.45-.867-4.219-.289-8.554-.347-12.831,0-1.214,1.1-.694,1.734-.809.867-.116,1.214.289,1.214,1.214-.058,2.485,0,4.913,0,7.4v1.907c.058,3.179,1.445,4.855,3.988,4.913a5.083,5.083,0,0,0,5.086-4.855c.116-3.005.116-6.069.058-9.074,0-1.214.462-1.445,1.561-1.5,1.156,0,1.5.4,1.5,1.561-.058,4.682,0,9.306-.058,13.987,0,.751.636,1.85-.867,2.081C176.69,156.288,175.823,155.883,175.939,154.034Z" transform="translate(-54.912 -11.465)" fill="#7b7b7b"/>
    <path id="Path_2275" data-name="Path 2275" d="M203.861,152.979c-3.352,0-5.086-1.676-5.2-4.8q-.173-4.161,0-8.323c.058-1.5-.116-2.485-1.965-2.2-.809.116-1.156-.4-1.1-1.156.058-.636-.231-1.676.809-1.561,2.832.347,2.254-1.618,2.2-3.121-.116-1.561.52-2.023,1.965-1.85.751.058,1.156.289,1.156,1.1V132.4c0,2.485,0,2.485,2.428,2.485.983,0,1.85-.173,1.907,1.329,0,1.445-.809,1.561-1.85,1.387-2.023-.289-2.6.52-2.485,2.485.173,2.485,0,5.028.058,7.572.058,1.965,1.04,2.774,2.948,2.543.578-.058,1.329-.636,1.329.52,0,.809.347,1.85-.925,2.139A6.531,6.531,0,0,1,203.861,152.979Z" transform="translate(-68.384 -7.867)" fill="#7b7b7b"/>
    <path id="Path_2276" data-name="Path 2276" d="M60.772,175.472,59.5,174.2l.694.52C60.425,175.009,60.6,175.24,60.772,175.472Z" transform="translate(-10.952 -26.545)" fill="#04599c"/>
    <path id="Path_2277" data-name="Path 2277" d="M77.824,175.4H66.958c-.52,0-.983-.058-1.5-.058h-.289a5.449,5.449,0,0,0-.578-.578c-.462-.462-.983-.983-1.445-1.5-.636-.636-1.272-1.329-1.965-2.023-.173-.231-.4-.52-.578-.751l6.416-6.069a.2.2,0,0,1,.058-.116l4.624,4.913C73.778,171.236,75.8,173.317,77.824,175.4Z" transform="translate(-11.416 -22.367)" fill="#04599c"/>
    <path id="Path_2278" data-name="Path 2278" d="M78.3,144.8c-3.815,3.815-7.34,7.456-10.866,11.039-2.428-1.734-4.161-4.277-6.531-6.127l4.161-4.335a1.423,1.423,0,0,1,1.156-.578Z" transform="translate(-11.543 -14.138)" fill="#61c9f6"/>
    <path id="Path_2279" data-name="Path 2279" d="M219.987,143.656V140.65c0-1.561.52-3.468-2.254-3.063-.809.116-.751-.694-.751-1.214,0-.578-.231-1.561.694-1.445,2.948.4,2.312-1.561,2.312-3.179,0-.983-.116-1.85,1.387-1.85,1.214.058,1.792.347,1.618,1.618-.058.4.058.867,0,1.329-.289,1.734.52,2.2,2.139,2.081.867-.058,2.139-.578,2.139,1.214,0,1.1-.289,1.561-1.5,1.561-2.774,0-2.774.058-2.774,2.832,0,2.312-.058,4.682,0,6.994.058,2.081,1.04,2.89,3.006,2.659.578-.058,1.329-.636,1.329.52,0,.809.4,1.792-.867,2.2a4.849,4.849,0,0,1-6.416-4.45c-.116-1.618-.058-3.179-.058-4.8Z" transform="translate(-77.401 -7.85)" fill="#7b7b7b"/>
    <path id="Path_2280" data-name="Path 2280" d="M62.816,159.427c0,.058-.058.173-.058.231a.2.2,0,0,1-.058.116l-6.416,6.069-.694-.52L50.1,159.716a.212.212,0,0,1,.058-.173,1.761,1.761,0,0,1,.4-.578c1.965-1.85,3.872-3.757,5.78-5.664C58.654,155.15,60.388,157.693,62.816,159.427Z" transform="translate(-6.985 -17.725)" fill="#34b8f4"/>
    <path id="Path_2281" data-name="Path 2281" d="M275.661,140.315c1.618-1.734,3.237-2.774,5.433-2.717,1.618.058,1.734.925,1.734,2.254,0,1.734-1.04.925-1.792.809a4.887,4.887,0,0,0-5.317,4.913c-.173,2.774-.058,5.549-.058,8.323,0,1.1.058,1.907-1.5,1.907-1.618,0-1.445-.925-1.445-1.965,0-4.45-.058-8.959.058-13.409,0-.809-.809-2.081,1.04-2.312C275.372,138,275.661,138.812,275.661,140.315Z" transform="translate(-100.882 -11.097)" fill="#7b7b7b"/>
    <path id="Path_2282" data-name="Path 2282" d="M154.69,138.784v10.577c0,1.04-.116,1.618-1.387,1.618-1.214,0-1.5-.462-1.5-1.561.058-7.167.058-14.334,0-21.559,0-1.156.347-1.5,1.5-1.561,1.329,0,1.387.636,1.387,1.676C154.632,131.617,154.69,135.2,154.69,138.784Z" transform="translate(-49.904 -6.33)" fill="#7b7b7b"/>
  </g>
</svg>
