<svg xmlns="http://www.w3.org/2000/svg" width="120.689" height="81.986" viewBox="0 0 120.689 81.986">
  <g id="Group_193" data-name="Group 193" transform="translate(-1747.223 -1988.631)">
    <path id="Path_1299" data-name="Path 1299" d="M2083.14,2407.555a15.207,15.207,0,0,1,2.912.28,8.105,8.105,0,0,0-7.059-4.119h-64.92a8.106,8.106,0,0,0-7.059,4.119,15.206,15.206,0,0,1,2.912-.28Z" transform="translate(-238.964 -381.811)" fill="#1f2124"/>
    <path id="Path_1300" data-name="Path 1300" d="M1973.868,2484.627h-73.215a12.434,12.434,0,0,0-12.434,12.435v17.356a12.434,12.434,0,0,0,12.434,12.434h22.379c2.952,0,6.488-4.694,8.364-7.545a7.028,7.028,0,0,1,5.818-3.189h.094a7.027,7.027,0,0,1,5.818,3.189c1.876,2.852,5.412,7.545,8.364,7.545h22.379a12.434,12.434,0,0,0,12.435-12.434v-17.356A12.434,12.434,0,0,0,1973.868,2484.627Zm-55.735,5.56h-15.562a8.4,8.4,0,0,0-8.4,8.4v15.562a1.324,1.324,0,0,1-2.647,0v-15.562a11.044,11.044,0,0,1,11.044-11.044h15.562a1.324,1.324,0,0,1,0,2.648Z" transform="translate(-129.693 -456.236)" fill="#1f2124"/>
    <path id="Path_1301" data-name="Path 1301" d="M1861.265,2046.216c12.4-18.932,5.875-39.006-6.691-46.84-12.7-7.915-26.923-9.745-41.428-10.657-1.855-.117-9.3-.117-11.156,0h0c-14.505.912-28.728,2.742-41.427,10.657-12.567,7.834-19.095,27.909-6.692,46.84v-9.629c-3.1-4.406-4.334-6.126-4.07-9.487.293-3.752,3.4-10.08,6.807-13.858,7.419-8.225,19.242-12.079,29.9-13.65l.238-.035a144.084,144.084,0,0,1,41.636,0l.239.035c10.662,1.571,22.485,5.425,29.9,13.65,3.408,3.778,6.514,10.106,6.807,13.858.263,3.361-.97,5.081-4.071,9.487Z" transform="translate(0 0)" fill="#1f2124"/>
  </g>
</svg>
