<svg xmlns="http://www.w3.org/2000/svg" xmlns:xlink="http://www.w3.org/1999/xlink" width="955.957" height="329.235" viewBox="0 0 955.957 329.235">
  <defs>
    <linearGradient id="linear-gradient" x1="0.604" y1="0.08" x2="0.39" y2="1.56" gradientUnits="objectBoundingBox">
      <stop offset="0" stop-color="#e53735"/>
      <stop offset="1"/>
    </linearGradient>
    <linearGradient id="linear-gradient-2" x1="0.618" y1="0.027" x2="0.245" y2="1.649" xlink:href="#linear-gradient"/>
    <linearGradient id="linear-gradient-3" x1="0.709" y1="-0.047" x2="0.01" y2="1.871" xlink:href="#linear-gradient"/>
    <linearGradient id="linear-gradient-4" y1="0.5" x2="1" y2="0.5" gradientUnits="objectBoundingBox">
      <stop offset="0" stop-color="#b3a7a2"/>
      <stop offset="1"/>
    </linearGradient>
    <linearGradient id="linear-gradient-5" x1="0.091" y1="0.012" x2="1.222" y2="0.943" xlink:href="#linear-gradient-4"/>
  </defs>
  <g id="Group_139" data-name="Group 139" transform="translate(4519.18 -1952.536)">
    <path id="Path_1231" data-name="Path 1231" d="M-4518.646,2182.59l82.449-229.679h97.172l5.889,129.562,67.726-129.562h97.172q-10.307,114.84-20.612,229.679H-4271.3q8.833-64.781,17.667-129.563-33.863,64.782-67.726,129.563h-53q-8.835-60.365-17.668-120.729-22.085,60.364-44.169,120.729Z" stroke="#000" stroke-miterlimit="10" stroke-width="0.75" fill="url(#linear-gradient)"/>
    <path id="Path_1232" data-name="Path 1232" d="M-4112.291,1952.911q27.975,55.947,55.948,111.895l-108.95,117.784h106l44.17-53q10.3,26.5,20.612,53h94.227c-19.631-36.317-39.261-77.05-58.892-113.367,35.335-40.243,70.671-76.069,106.006-116.312h-103.061l-38.28,53q-11.778-26.5-23.557-53Z" stroke="#000" stroke-miterlimit="10" stroke-width="0.75" fill="url(#linear-gradient-2)"/>
    <path id="Path_1233" data-name="Path 1233" d="M-3826.664,1952.911l-53,229.679h97.172q25.031-114.84,50.059-229.679Z" stroke="#000" stroke-miterlimit="10" stroke-width="0.75" fill="url(#linear-gradient-3)"/>
    <path id="Path_1234" data-name="Path 1234" d="M-3722.13,2253.261c10.5-4.638,22.415-10,35.335-20.613,10.7-8.783,20.972-17.221,26.5-32.39a61.265,61.265,0,0,0,2.944-29.446c-3.191-22.221-17.952-36.388-29.446-47.114-12.525-11.689-24.225-17.767-47.114-29.446-13.008-6.638-29.784-15.2-53-23.557-32.7-11.772-58.561-15.86-108.951-23.557-35.3-5.392-62.218-8.033-70.67-8.834-34.463-3.265-39.024-2.2-97.172-5.889-41.587-2.64-43.486-3.455-85.394-5.889-38.172-2.217-56.948-2.723-67.726-2.945-12.794-.263-32.749-.649-58.892,0-11.148.277-28.045,1.167-61.837,2.945-26.8,1.41-40.4,2.132-50.058,2.945-22.071,1.856-38.648,4.017-53,5.889-22.592,2.945-32.91,4.85-38.355,5.9,195.378-8.876,392.667-16.582,584.694,20.029,28.916,5.513,57.726,12.085,85.535,21.847,25.79,9.054,52.379,20.092,74.331,36.632,11.27,8.491,21.532,19.035,26.647,32.187,4.7,12.076,4.694,25.744.951,38.15-9.676,32.079-39.639,49.494-68.03,62.973a415.748,415.748,0,0,1-81.22,28.69c3.654-.877,7.95-.423,11.675-.536,11.988-.364,24.308-1.024,36.785-1.963,20.721-6.287,37.531-10.919,50.136-14.234C-3748.475,2262.674-3736.938,2259.8-3722.13,2253.261Z" fill="url(#linear-gradient-4)"/>
    <path id="Path_1235" data-name="Path 1235" d="M-3583.547,2115.825c-13.759-14.556-31.8-24.27-49.995-32.653-125.953-58.047-273.949-70.03-410.833-76.507a1839.5,1839.5,0,0,0-225,2.743q-57.574,4.336-114.757,12.652c-35.463,5.187-73.329,18.221-108.864,19.842l14.028-.638.075-.015c5.37-1.039,15.688-2.944,38.28-5.889,14.355-1.872,30.932-4.033,53-5.889,9.659-.813,23.257-1.535,50.058-2.945,33.792-1.778,50.689-2.668,61.837-2.945,26.143-.649,46.1-.263,58.892,0,10.778.222,29.554.728,67.726,2.945,41.908,2.434,43.807,3.249,85.394,5.889,58.148,3.692,62.709,2.624,97.172,5.889,8.452.8,35.369,3.442,70.67,8.834,50.39,7.7,76.252,11.785,108.951,23.557,23.218,8.359,39.994,16.919,53,23.557,22.889,11.679,34.589,17.757,47.114,29.446,11.494,10.726,26.255,24.893,29.446,47.114a61.265,61.265,0,0,1-2.944,29.446c-5.53,15.169-15.806,23.607-26.5,32.39-12.92,10.61-24.837,15.975-35.335,20.613-14.808,6.542-26.345,9.413-35.335,11.778-12.6,3.315-29.415,7.947-50.136,14.234,67.6-5.092,140.387-19.486,197.06-52.841,21.682-12.761,42.9-31.17,46.727-56.037C-3560.77,2150.6-3569.788,2130.382-3583.547,2115.825Z" fill="url(#linear-gradient-5)"/>
  </g>
</svg>
