<svg xmlns="http://www.w3.org/2000/svg" width="512.36" height="372.93" viewBox="0 0 512.36 372.93">
  <g id="Group_111" data-name="Group 111" transform="translate(4040.934 -1302.482)">
    <g id="Group_110" data-name="Group 110">
      <path id="Path_734" data-name="Path 734" d="M-3625,1407.2a12.359,12.359,0,0,0-1.662-5.893c-.562-.936-1.647-2.154-.741-3.207,2.552-2.966.569-5.6-.328-8.32-.554-1.694-1.522-3.309.015-5.057,2.474-2.826,1.959-5.346-.881-7.664-1.858-1.514-3.044-3.661-1.639-5.822,2.715-4.191,2.278-8.218,1.178-12.87-2.076-8.811-1.74-8.936-9.756-4.847-1.482.758-2.357.594-2.239-1.038a21.308,21.308,0,0,0-1.577-8.655c-1.483-4.323-3.652-6.516-8.3-5.97-1.366.164-2.724.788-3.933-.632a5.787,5.787,0,0,0-7.087-1.514c-1.888.8-2.692-.016-3.793-1.374-2.958-3.66-4.62-9.381-11.324-7.586-.468.133-1.21-.421-1.725-.8-2.38-1.748-4.565-1.522-6.6.562-.633.648-1.241,1.467-2.271,1.257-3.575-.742-4.683,1.529-5.776,4.284-1.9,4.777-3.137,5.807-6.907,6.4,2.552-4.129.625-6.173-3.473-7,.773-1.178,1.405-2.013,1.881-2.926,1.787-3.427,1.374-7.789-1.178-10.1-2.747-2.506-5.752-2.716-8.749-.274-1.03.836-1.678.352-2.615-.437-3.441-2.848-5.892-2.911-9.287.086-2.263,2-4.206,2.279-7.281,1.772-3.692-.6-7.407,2.1-11.489,1.623-1-.117-1.693,2.279-3.457,2.014-1.936-.289-2.973.983-3.52,2.443-.952,2.567-1.865,3.223-3.847.757-1.4-1.749-4.246-2.193-4.995-.437-1.639,3.847-5.175,2.583-7.719,3.746-1.2.554-2.716.523-3.925,1.373-.758.523-1.046,2.053-2.443,1.343a2.259,2.259,0,0,1-1.194-2.279c.07-1.421,1.022-1.951,2.255-2.264,1.819-.468,3.5-1.919,2.942-3.5-1.17-3.309.5-8.741-5.712-8.874-.227,0-.617-.195-.648-.343-.7-4.1-2.787-5.9-7-4.316-.179.07-.484-.148-.71-.265-1.2-.609-2.49-1.124-3.629-.086-1.21,1.108-.328,2.4.008,3.606.156.577.5,1.194-.484,1.826-2.014-3.114-4.808-4.948-8.328-2.63-2.825,1.849-5.041.367-6.516-1.218a65.306,65.306,0,0,0-5.167-4.441c-5.682-4.948-8.912-4.721-13.127,1.273-1,1.428-2.443,2.77-3.3.249-1.1-3.223-4.566-3.051-6.4-5.291-2.63-3.208-5.01-.117-7.4,1.077a3.126,3.126,0,0,1-1.888.343c-3.871-.913-6.431,1.2-8.749,3.747-1.53,1.677-2.911,1.693-5.1.967-4.129-1.366-8.2.429-12.113,1.585-4.331,1.272-9.162.046-13.181,2.762-.242.156-.913-.484-1.4-.515-3.106-.218-6.681-1.459-7.625,3.333-.125.648-.765.9-1.3,1.28-3.535,2.513-8.218,2.474-11.425,6.321-1.8,2.162-2.982,3.567-2.193,6.111.523,1.694.226,2.544-1.475,3.294-2.935,1.295-3.169,3.285-1.21,5.869,2.4,3.16,1.865,4.394-1.491,6.329-4.159,2.4-6.493,7.687-12.2,7.7-.18,0-.421.32-.523.546-1.186,2.607-3.527,3.091-6.033,3.536-3.371.609-6.485,2.794-5.783,6.087.874,4.129-.765,8.562,2.357,12.761a32.179,32.179,0,0,0-10.848.507c-4.979,1.288-6.735,2.224-5.159,4.963,1.78,3.091-3.442,5.19-.281,8,3.145,2.786,3.325,6.181,1.327,9.834-1.561,2.848-1,4.971,2.427,5.806,2.232.546,3.075,1.436,1.257,3.536a2.912,2.912,0,0,0,.125,4.222,3.557,3.557,0,0,0,4.62.632c1.014-.562,2-1.21,3.059-1.678.664-.289,1.53-.726,2.146.031.469.57-.039,1.171-.242,1.772-1.28,3.808-.624,4.534,3.434,5.159,3.536.538,6.369-1.421,9.74-2.474-2.481,5-1.81,6.235,3.45,7,.515.078,1.038.1,1.553.133a1.57,1.57,0,0,1,1.655,2.068c-.75,3.785,1.35,5.744,4.339,7.344,1.342.726,2.989,1.569,3.621,2.81,1.959,3.808,5.182,4.253,8.85,4.136,5.136-.164,10.248,1.764,14.189,3.98,4.058,2.287,7.484,3.426,11.824,2.841,1-.133,2.208-.437,2.286,1.194.195,4.355,3.52,4.043,6.455,4.394,1.022.125,2.559-.851,2.989.788.921,3.505,3.878,3.614,6.493,3.793,3.387.234,5.44.976,4.73,5.065-.328,1.889.3,3.981,3.012,4.067,4.8.148,8.2,3.738,7.524,8.67-.648,4.777,1,8.515,3.746,12.167,2.279,3.021,5.049,5.745,6.719,9.553-27.6,1.858-54.842,3.629-81.978,6.634q-11.986,1.124-23.983,2.24c-.8.07-1.662.179-1.717,1.163-.086,1.467,1.093,1.1,1.936,1.131.772.039,1.553.008,2.333.008q83.669.012,167.351.023,57.784,0,115.584-.046c1.046,0,2.63.71,3.044-.7.406-1.389-1.038-1.491-2.068-1.576q-12.773-1.148-25.544-2.264c-29.259-3.176-58.588-5.478-88.589-6.836,5.706-8.921,12.433-16.288,17.248-24.967,5.666-10.239,16.663-13.049,25.794-19.113.882,5.721,2.084,6.431,6.5,4.339,2.365-1.116,4.558-1.92,7.383-1.545,2.779.375,5.463-.874,5.955-4.246.164-1.084.523-1.623,1.514-1.9,2.177-.609,3.286-1.936,2.919-4.293a1.582,1.582,0,0,1,.976-1.9c.975-.39,1.381.133,1.748.929a2.926,2.926,0,0,0,3.41,1.927c1.1-.21,1.468.375,2.107,1.148,3.372,4.074,7.969,4.23,11.691.39a6.8,6.8,0,0,1,3.606-2.076,15.089,15.089,0,0,0,9.654-6.65c.484-.694.9-2.122,1.873-1.592,4.823,2.638,4.855-1.553,6.111-4.074.789-1.584,1.35-3.707,3.871-2.559,3.356,1.521,5.448-.157,7.165-2.716.889-1.335,1.631-2.521,3.59-2.365,2.669.211,3.5-1.506,3.762-3.9.351-3.356-.765-6.541-1.288-9.912C-3626.174,1413.26-3624.683,1411.988-3625,1407.2Zm-200.691,63.512c.288-2.8,2.052-4.152,4.69-4.16a14.145,14.145,0,0,0,6.7-1.545,4.713,4.713,0,0,1,4.449-.148c3.691,1.748,6.852.96,8.951-2.615.8-1.381,1.413-1.467,2.693-.741a3.41,3.41,0,0,0,2.981-.234,4.439,4.439,0,0,1,6.181,4.636,4.35,4.35,0,0,1-.163,1.147c-2.56,7.461-3.6,15.172-4.582,22.976-.9,7.087-1.639,7.149-9.506,7.165-3.792.9-6.922-.952-9.763-3.9a54.354,54.354,0,0,0-6.384-5.659C-3825.2,1483.305-3826.366,1477.366-3825.687,1470.716Zm84.015-12.44c-1.764,3.73-3.185,7.664-7.313,9.631a3.284,3.284,0,0,0-1.561,1.654c-2.341,6.572-7.391,11.457-10.715,17.4a19.819,19.819,0,0,1-20.238,9.966c-1.318-.21-1.677-.85-1.99-1.927-3.278-11.27.039-21.338,5.659-30.968a3.831,3.831,0,0,1,4.651-1.827,48.364,48.364,0,0,0,5.721,1.038c2.091.258,3.691-.413,3.559-2.872-.117-2.208,1.006-2.684,2.856-2.427,3.457.476,5.643-.64,5.416-4.121,4.4-.647,7.961,2.209,12.136,1.725C-3741.282,1455.3-3740.689,1456.2-3741.672,1458.276Z" fill="#00483a"/>
      <path id="Path_735" data-name="Path 735" d="M-3529.547,1571.136c-1.218-6.875-6.767-12.417-12.784-12.752-7.89-.453-12.823,3.1-15.2,10.973-.3.991-.5,2.006-.78,3.005-1.546,5.5-3.91,7.664-9.608,7.8-9.732.242-19.472.133-29.212.234-1.717.016-2.45-.226-2.364-2.318.226-5.7.1-11.41.109-17.123.008-7.734.008-7.734-7.711-7.367-11.839.554-20.05,9.193-19.94,20.931.046,5.081,2.567,8.46,7,10.716,3.208,1.631,6.6,1.038,9.927,1.03,2.412-.008,3.31.211,2.045,2.935-2.77,5.947-7.765,8.592-14,10.005,9.155,2.255,16.748-1.218,20.182-9.545,1.163-2.817,2.6-3.473,5.432-3.418,9.732.179,19.48.039,29.22.093,2.786.016,5.658-.148,7.82-1.818,1.811-1.405,2.388-.7,3.621.515a15.568,15.568,0,0,0,18.653,2.552C-3531.264,1584.466-3528.322,1578.082-3529.547,1571.136Zm-79.418,9.272c-1.28-.133-2.591-.016-3.9-.031-6.235-.07-8.265-2.162-7.531-8.32.819-6.868,3.379-12.83,10.232-15.773,3.683-1.584,4.237-1.084,4.253,2.833.016,2.982,0,5.963,0,8.944,0,3.114-.156,6.236.055,9.334C-3605.687,1579.877-3606.64,1580.65-3608.965,1580.408Zm70.9,1.436c-1.818,2.693-4.2,4.6-7.672,4.378-3.9-.257-6.6-2.677-9.068-5.393a1.736,1.736,0,0,1-.133-1.412c1.459-4.652,2.9-9.311,4.5-13.923.9-2.568,2.6-4.543,5.51-4.769,3.067-.25,5.034,1.592,6.509,4.043,1.733,2.856,2.131,6.033,2.185,9.56A11.935,11.935,0,0,1-3538.062,1581.844Z" fill="#00483a"/>
      <path id="Path_736" data-name="Path 736" d="M-4012.808,1665.348c5.579,1.361,10.355,4.3,15.813,5.272,1.264.225,2.566.243,3.825.49,1,.2,2.418-1.548,2.907.336.3,1.144-1.31,1.376-2.078,2-2.892,2.346-5.986,2.427-9.386,1.119-3-1.156-6.144-1.959-9.208-2.964-4.439-1.455-8.88-3.409-13.263.744.54-4.25,4.527-4.532,7.1-7.065-7.557-.783-14.366-2.431-18.931-8.919-4.373-6.215-5.548-13.111-4.6-20.345,1.6-12.211,11.472-19.951,25.41-20.377,12.557-.384,22.225,6.419,24.379,17.152C-3987.727,1648.293-3994.073,1657.79-4012.808,1665.348ZM-4034,1638.366c.145,5.423,1.29,11.205,4.8,16.258,4.3,6.192,10.481,8.248,17.661,7.126,6.785-1.06,10.977-5.293,12.927-11.842a30.709,30.709,0,0,0,.108-17.561c-2.983-10.432-11.26-15.538-21.921-13.539C-4029.13,1620.439-4033.548,1626.616-4034,1638.366Z" fill="#00483a"/>
      <path id="Path_737" data-name="Path 737" d="M-3686.48,1657.975a25.271,25.271,0,0,0-3.292,2.786c-6.846,8.2-19.878,2.1-21.334-7.125-.912-5.768-.963-11.624,3.568-15.537,5.373-4.638,11.585-8.606,19.412-5.093a14.811,14.811,0,0,0,1.8.506c.531-4.417.176-8.6.074-12.787-.06-2.484-2.147-1.667-3.437-2.142-.648-.238-1.729.268-1.824-.889-.09-1.086.857-1.046,1.6-1.211,2.764-.611,5.522-1.248,8.279-1.89,2.421-.563,1.7,1.2,1.68,2.325-.144,9.946-.365,19.892-.467,29.839-.037,3.612.294,7.229.253,10.841-.03,2.57.595,4.3,3.551,4.32.884.006,2.072.074,1.872,1.3-.138.844-1.168.721-1.983.636a37.065,37.065,0,0,0-3.873-.174C-3685.975,1663.679-3685.975,1663.69-3686.48,1657.975Zm.306-12.784c-.321-1.292,1.047-3.9-.435-5.819a11.036,11.036,0,0,0-9.444-4.466c-3.589.156-6.574,1.725-8.009,5.152-2.143,5.115-2.319,10.3.556,15.26a9.7,9.7,0,0,0,10.128,4.9c3.7-.781,6.773-4.387,7.175-8.631C-3686.033,1649.8-3686.174,1647.973-3686.174,1645.191Z" fill="#00483a"/>
      <path id="Path_738" data-name="Path 738" d="M-3827.272,1618.97c-.359,2.029-.452,4.113-.64,6.165-.07.835-.273,1.655-1.241,1.639-1.006-.015-1.225-.928-1.139-1.7.5-4.5-2.17-5.338-5.877-5.58-3.231-.219-6.438-.11-9.662-.016-1.662.047-2.622.663-2.638,2.513-.046,4.527-.148,9.053-.335,13.58-.078,1.99.64,2.872,2.692,2.747,2.318-.148,4.652-.117,6.978-.2,3-.109,6.243.086,5.79-4.526-.085-.906.656-1.366,1.577-1.234s.734.921.741,1.515q.024,6.2-.007,12.416c0,.711.3,1.686-.9,1.756-.991.063-1.147-.686-1.366-1.5-1.506-5.549-1.529-5.541-8.023-5.6-7.461-.07-7.492-.07-7.445,7.188.015,3.1.32,6.205.265,9.3-.054,3.075,1.148,4.6,4.347,4.433.882-.047,2.342-.445,2.17,1.3-.141,1.468-1.381.8-2.139.82-5.252.078-10.5.078-15.749.117-.773,0-1.639.195-1.662-.991-.024-1.062.733-1.327,1.545-1.241,4.55.523,5-2.295,4.979-5.783-.078-10.9-.062-21.79-.047-32.685.008-2.958-.593-5.175-4.347-4.589-.975.148-2.318.249-2.122-1.382.171-1.412,1.35-.788,2.169-.788q7.4-.012,14.8,0v-.14c5.019,0,10.045.046,15.071-.032C-3827.615,1616.449-3826.928,1617.034-3827.272,1618.97Z" fill="#00483a"/>
      <path id="Path_739" data-name="Path 739" d="M-3763.509,1658.555c-2.053.646-2.983,2.335-4.323,3.489-3.875,3.338-8.262,3.715-12.716,1.9-4.229-1.726-4.918-5.583-4.811-9.73.113-4.4-.024-8.8.044-13.2.04-2.6-.228-4.751-3.693-4.284-.806.109-1.662-.034-1.689-1.065-.031-1.119.954-.993,1.687-1.092a28.763,28.763,0,0,0,7.816-2.026c2.283-1.009,2.223.1,2.157,1.888-.222,6.06-.36,12.126-.367,18.19-.007,5.338,1.812,7.64,5.914,7.938,4.72.344,9.59-3.04,9.9-7.38.33-4.638.065-9.317.1-13.978.014-1.966-.913-2.783-2.857-2.805-.869-.01-2.4.639-2.429-.925-.026-1.485,1.6-.9,2.477-1.217a9.844,9.844,0,0,1,2.656-.512c2.227-.142,4.731-2.88,6.153-1.331,1.151,1.255.362,4.433.176,6.737a171.768,171.768,0,0,0-.014,18.546c.072,2.642.461,4.668,3.771,4.456.776-.05,1.678.091,1.49,1.2-.137.8-.9.744-1.557.737-2.824-.029-5.651-.133-8.47-.021-1.433.057-1.406-.732-1.41-1.674C-3763.512,1661.23-3763.509,1660.07-3763.509,1658.555Z" fill="#00483a"/>
      <path id="Path_740" data-name="Path 740" d="M-3712.054,1663.362c-.055.827-.843.827-1.491.842-.258,0-.515-.015-.781-.023-3.059-.094-7.016.9-8.9-.648-1.443-1.186-.273-5.549-.273-8.507,0-3.754.078-7.515-.031-11.277-.125-4.542-2.833-7.258-7.227-7.469-4.277-.211-8.109,2.583-8.655,6.665-.8,6.056.218,12.128.2,18.2.593,2.084,2.294,1.03,3.528,1.163.819.086,1.584.023,1.529,1.085a.767.767,0,0,1-1.092.687q-6.6-.024-13.206-.055c-.827-.008-2.052.523-2.193-.812-.148-1.444,1.187-1.131,1.975-1.069,2.669.226,3.348-1.217,3.332-3.543-.039-6.213-.062-12.425.055-18.637.039-2.3-.734-3.45-3.114-3.2-.936.1-2.115.211-2.224-.905-.156-1.546,1.342-1.179,2.271-1.39,1.007-.226,2.029-.382,3.036-.639,1.834-.469,3.98-1.835,5.393-1.28,1.724.679-.7,3.332.843,5.1,1.42-1.179,2.825-2.42,4.315-3.567,3.661-2.833,7.641-2.739,11.7-1.03,4.137,1.748,5.479,5.213,5.534,9.4.062,5.307.156,10.614.164,15.928.007,2.537.515,4.457,3.707,3.973C-3712.85,1662.222-3711.984,1662.238-3712.054,1663.362Z" fill="#00483a"/>
      <path id="Path_741" data-name="Path 741" d="M-3914.979,1658.121c-2.564,1.867-4.417,3.193-6.243,4.554a8.935,8.935,0,0,1-10.2.637c-3.554-1.9-3.853-5.318-3.347-8.788a8.443,8.443,0,0,1,6.517-7.4,94.913,94.913,0,0,1,10.647-2.357c2.442-.358,2.61-1.612,2.262-3.494a6.582,6.582,0,0,0-6.378-5.758c-2.885-.248-6.083-.608-7.585,3.012-.367.887-.37,2.13-1.647,2.359a.943.943,0,0,1-1.049-.911c-.186-1.248-.573-2.546.3-3.706,2.43-3.235,11.369-5.3,15.94-3.688,4.4,1.548,6.511,4.962,6.474,10.742-.028,4.526-.238,9.051-.275,13.578-.02,2.452-.307,5.21,3.529,5.07.821-.029,1.1.594,1,1.3-.123.871-.786.832-1.465.745a10.07,10.07,0,0,0-3.077-.29C-3913.582,1664.524-3916.452,1664.125-3914.979,1658.121Zm-.16-6.892c0-1.157,0-2.315,0-3.472,0-.947-.428-1.493-1.421-1.209-3.2.915-6.613,1.135-9.53,2.942a6.663,6.663,0,0,0-2.322,8.514c1.723,3.285,4.6,2.969,7.408,1.974C-3916.729,1658.46-3915.158,1655.931-3915.139,1651.229Z" fill="#00483a"/>
      <path id="Path_742" data-name="Path 742" d="M-3652.208,1658.99c-1.789,1.286-3.544,2.622-5.374,3.847-4.185,2.8-10.156,1.891-12.452-1.847-2.612-4.251-.583-11.136,4.125-13.3a34.761,34.761,0,0,1,11.624-2.85c3.311-.281,3.351-1.725,2.567-4.3-1.078-3.54-3.628-4.887-6.97-5.1-2.759-.175-5.505-.09-6.824,3.106-.427,1.033-.519,3.259-2.28,2-1.078-.772-.9-2.974-.037-4.3,2.093-3.206,11.292-5.263,15.906-3.721,4.354,1.456,6.444,4.774,6.448,10.335.005,5.184,0,10.368-.069,15.552-.026,2.042.267,3.67,2.876,3.537.815-.041,1.694.166,1.6,1.193-.1,1.1-1.132.834-1.84.822-1.287-.021-2.655-.479-3.843-.179-3.529.893-4.946-.424-4.715-3.9l.186-.964Zm1.1-7.52c0-5.331-.007-5.363-5.066-4.088a33.225,33.225,0,0,0-5.144,1.663,6.751,6.751,0,0,0-3.478,8.5c1.112,2.766,4.518,3.822,8,2.477C-3652.976,1658.542-3651.111,1655.741-3651.11,1651.47Z" fill="#00483a"/>
      <path id="Path_743" data-name="Path 743" d="M-3792.68,1647.291c.039,10.358-7.366,17.7-17.864,17.724-8.738.017-14.98-6.7-15.043-16.182-.067-9.971,7.085-17.245,16.967-17.257C-3799.164,1631.566-3792.715,1637.924-3792.68,1647.291Zm-6.472,3.282c.05-5.229-.687-9.621-3.72-13.337a8.679,8.679,0,0,0-8.626-3.227,8.384,8.384,0,0,0-6.865,6.1c-1.359,4.077-.95,8.211-.095,12.272,1.432,6.8,5.957,10.837,11.131,10.226s8.113-5.023,8.164-12.256C-3799.162,1650.226-3799.175,1650.1-3799.152,1650.573Z" fill="#00483a"/>
      <path id="Path_744" data-name="Path 744" d="M-3966.568,1658.041c-2.827,1.969-4.75,3.207-6.559,4.592-3.134,2.4-6.476,2.425-9.853.831-3.084-1.455-4.092-4.324-3.859-7.446.282-3.784,1.746-7.075,5.645-8.557a48.753,48.753,0,0,1,11.66-2.714c2.207-.26,2.75-1.059,2.332-3.277a6.751,6.751,0,0,0-6.24-5.925c-2.959-.407-6.019-.517-7.733,2.824-.522,1.018-.573,3.3-2.232,2.291-1.361-.827-.973-3.149-.066-4.469,2.322-3.382,11.066-5.193,15.885-3.524,4.5,1.56,6.4,4.774,6.363,10.756-.032,4.79-.03,9.581-.1,14.371-.03,2.187-.125,4.3,3.034,4.176.79-.03,1.624.33,1.391,1.337-.161.7-.875.837-1.586.738a11.532,11.532,0,0,0-3.073-.322C-3965.328,1664.257-3968.845,1664.66-3966.568,1658.041Zm-.61-11.459a31.493,31.493,0,0,0-10.064,2.594,6.759,6.759,0,0,0-3.1,8.885c1.238,2.522,4.441,3.237,7.835,1.751C-3967.216,1657.5-3966.307,1655.256-3967.178,1646.582Z" fill="#00483a"/>
      <path id="Path_745" data-name="Path 745" d="M-3568.429,1647.5c-.073,10.155-7.906,17.646-18.317,17.518-8.977-.11-14.725-6.8-14.57-16.964.145-9.517,7.356-16.517,16.978-16.48C-3574.983,1631.612-3568.362,1638.24-3568.429,1647.5Zm-26.567-1.579a24.076,24.076,0,0,0,2.906,11.7c2.1,3.635,5.65,5.563,9.322,4.923,4.014-.7,6.359-3.291,7.325-7.1a22.955,22.955,0,0,0-1.75-16.238,9.038,9.038,0,0,0-9.177-5.3c-3.931.243-6.615,2.689-7.937,6.849A21.757,21.757,0,0,0-3595,1645.924Z" fill="#00483a"/>
      <path id="Path_746" data-name="Path 746" d="M-3641.583,1637.371a4.014,4.014,0,0,1-.072-.522c5.726-1.636,5.45-6.139,5.2-10.692-.089-1.6,4.136-5.048,5.549-4.634,1.035.3.765,1.181.712,1.931a67.044,67.044,0,0,1-.578,7.342c-.586,3.188.919,3.846,3.59,3.565a25.384,25.384,0,0,1,3.475-.241c.872.028,2.373-.545,2.09,1.3-.181,1.173-.6,2.073-2.208,2.128-7.082.244-7.072.3-7.093,7.257-.01,3.232-.092,6.463-.082,9.695.016,4.94,1.444,6.2,6.358,5.861.8-.054,1.842-1.1,2.413.029.713,1.407-.926,1.622-1.6,2.2-2.9,2.5-6.278,2.256-9.482.957-3.257-1.32-3.646-4.307-3.561-7.482.131-4.926-.1-9.865.14-14.784.137-2.857-.371-4.412-3.625-3.579C-3640.8,1637.811-3641.391,1637.859-3641.583,1637.371Z" fill="#00483a"/>
      <path id="Path_747" data-name="Path 747" d="M-3891.5,1638.514c2-.5,2.365-2.234,3.38-3.3a9.035,9.035,0,0,1,4.007-2.905c3.788-1.064,5.092,0,4.835,3.911-.068,1.031-.108,2.065-.147,3.1-.07,1.886-.715,1.925-2.061.791-4.385-3.691-8.607-2.289-9.743,3.358-1.109,5.507-.3,11.084.057,16.607.174,2.661,2.833,1.521,4.406,1.981.8.235,2.028-.171,1.985,1.194-.034,1.073-1.016.938-1.782.935q-7.352-.036-14.7-.079c-.742-.005-1.8.193-1.868-.836-.089-1.354,1.139-1.218,1.97-1.124,3.292.376,3.932-1.442,3.887-4.218-.091-5.656-.11-11.317.029-16.971.067-2.741-.418-4.59-3.726-4.226-.712.079-1.739.184-1.763-.924-.022-1,.932-1.029,1.688-1.209a51.746,51.746,0,0,0,7.1-1.827c2.3-.906,2.8-.368,2.477,1.9A27.854,27.854,0,0,0-3891.5,1638.514Z" fill="#00483a"/>
      <path id="Path_748" data-name="Path 748" d="M-3946.087,1638.348c-1.108,1.983-.265,5.05-.3,7.633-.039,2.716-.117,5.432-.11,8.148.016,5.44,1.358,6.634,6.736,6.2.7-.054,1.428-.679,2.169-.054-2.06,3.6-4.113,4.542-8.99,3.988-2.849-.32-4.792-1.748-5.206-4.769q-.105-10.851-.2-21.7-2.458-.1-4.948-.226c0-.383-.062-.828.008-.851,4.956-1.514,5.455-5.221,5.01-9.615-.257-2.521,3.028-5.744,5.346-5.6,1.475.1,1.007,1.218.96,2.045-.179,2.7-.351,5.4-.616,8.1-.188,1.865.062,3.036,2.419,2.622a18.775,18.775,0,0,1,4.581-.133c.742.063,2.311-1.1,2.162.968-.086,1.2-.382,2.4-1.959,2.373C-3941.49,1637.435-3944.768,1635.983-3946.087,1638.348Z" fill="#00483a"/>
      <path id="Path_749" data-name="Path 749" d="M-3601.372,1662.9c-.394,1.549-1.625,1.387-2.781,1.36-3.963-.092-7.917-.671-11.9-.046-.821.129-2.256.6-2.251-1.183,0-1.444,1.132-1.262,1.944-1.143,2.97.434,3.507-1.195,3.488-3.658-.045-5.934-.035-11.871.095-17.8.056-2.513-.705-4.022-3.436-3.944-.877.025-2.019.428-2.006-.986.012-1.317,1.291-.983,2.092-1.183,1.5-.377,3.05-.6,4.532-1.039,5.06-1.5,5-1.529,4.929,3.651-.092,6.6-.111,13.2-.12,19.8C-3606.789,1662.276-3606.763,1662.276-3601.372,1662.9Z" fill="#00483a"/>
      <path id="Path_750" data-name="Path 750" d="M-3613.718,1543.174c-2.688-2.59-3.8-5.574-1.906-9.059,1.85-3.4,4.967-4.368,8.577-3.749,2.463.422,4.339,1.767,4.5,4.521.12,2-1.114,2.827-2.974,2.586-1.477-.192-2.852-.68-2.239-2.7.219-.723,1.449-1.648-.125-2.1a2.931,2.931,0,0,0-3.408,1.206c-2.069,2.96.261,8.485,4.2,9.677a21.7,21.7,0,0,0,3.394.389c1.029.136,2.59-.494,2.494,1.464s-1.677,1.2-2.648,1.224c-3.623.087-7.251.1-10.874-.006-1.033-.03-2.773.778-3.017-.643-.348-2.029,1.675-1.787,2.984-2.075l1.243.125Z" fill="#00483a"/>
      <path id="Path_751" data-name="Path 751" d="M-3868.69,1551.313c.008-1.257-.2-2.092-1.561-2.053-6.306.156-12.7-.3-18.746,2.03-8.156,3.121-10.185,15.32-3.512,20.986a11.707,11.707,0,0,0,7.672,3.246c3.9.008,6.821-1.8,9.209-5.158.843,7.89-.991,10-8.21,10q-22.208.012-44.423,0c-5.612,0-5.393-.047-6.556-5.525-1.584-7.422-3.707-14.657-11.613-18.107-4.566-2.653-8.913-2.029-13,1.015a30.063,30.063,0,0,0-8.8,10.161c-.273.273-.515.734-.827.788-1.475.266-.7-.92-.679-1.35.195-5.3.523-10.6.71-15.905.328-9.451.3-9.451-9.412-8.554-.968.086-2.248-.335-2.217,1.342.016,1.241.945,1.444,1.889,1.413,2.216-.07,2.95,1.085,2.934,3.13-.054,8.561.039,17.123-.124,25.684-.086,4.378-1.468,5.76-5.986,5.822-11.426.149-22.86.032-34.285.125-1.991.016-2.272-.687-2.209-2.482.2-5.572.211-11.152.226-16.725.031-8.374.008-8.382-8.148-6.727a3.5,3.5,0,0,0-.749.375c1.249.967,2.256,1.919,2.209,3.769-.18,7,.023,14.009-.281,21-.422,9.514-4.9,16.14-14.446,18.77-.125.031-.141.421-.2.647,10.161,1.374,16.054-1.748,19.527-10.9.944-2.489,2.591-2.169,4.23-2.169q51.837.012,103.682.117c11.582.008,23.164.023,34.738-.328,5.744-.172,8.772-3.372,8.873-8.749C-3868.62,1568.444-3868.76,1559.882-3868.69,1551.313Zm-74.657,29.095c-9.171-.086-18.341-.039-27.776-.039.827-4.3,3.449-7.516,5.119-11.153,2.42-2.848,4.355-6.079,7.212-8.6,2.942-2.591,6.017-3.957,9.864-2.217,5.659,5.323,6.97,12.378,7.875,19.613C-3940.819,1579.9-3941.49,1580.424-3943.347,1580.408Zm67.875-20.729c.148,2.708.117,6.166-1.764,9.327-1.405,2.364-3.364,4.1-6.134,4.089-2.95-.023-4.472-2.224-5.51-4.737-3.4-8.273.788-15.742,9.389-16.78,2.622-.32,4.659-.109,4.05,3.442A31.845,31.845,0,0,0-3875.472,1559.679Z" fill="#00483a"/>
      <path id="Path_752" data-name="Path 752" d="M-3836.62,1546.675c-2.82.029-4.117-1.495-4.2-3.554-.091-2.265,1.206-4.021,3.763-3.961,2.162.051,3.781,1.164,3.8,3.524C-3833.238,1545.083-3834.565,1546.482-3836.62,1546.675Z" fill="#00483a"/>
      <path id="Path_753" data-name="Path 753" d="M-3884.822,1534.889c2.373.126,3.781,1.272,3.872,3.556a3.557,3.557,0,0,1-3.756,3.988c-2.45.071-3.857-1.529-3.765-3.929A3.574,3.574,0,0,1-3884.822,1534.889Z" fill="#00483a"/>
      <path id="Path_754" data-name="Path 754" d="M-3870.109,1538.634a3.639,3.639,0,0,1-3.626,3.808,3.558,3.558,0,0,1-3.937-3.8,3.489,3.489,0,0,1,3.581-3.717C-3871.482,1534.781-3870.528,1536.476-3870.109,1538.634Z" fill="#00483a"/>
      <path id="Path_755" data-name="Path 755" d="M-3826.206,1539.1c2.125.2,3.612,1.223,3.715,3.544.109,2.461-1.179,3.953-3.654,4.023-2.525.072-3.8-1.592-3.84-3.883C-3830.02,1540.531-3828.484,1539.369-3826.206,1539.1Z" fill="#00483a"/>
      <path id="Path_756" data-name="Path 756" d="M-3610.338,1616.936c2.252.2,3.8,1.2,3.9,3.508a3.462,3.462,0,0,1-3.705,3.954,3.348,3.348,0,0,1-3.6-3.631C-3613.777,1618.45-3612.427,1617.331-3610.338,1616.936Z" fill="#00483a"/>
      <path id="Path_757" data-name="Path 757" d="M-3635.095,1554.638c.039-1.741-.819-1.561-1.919-.96-2.287.327-4.566.655-7.1,1.022,1.436,1.381,2.342,2.63,2.3,4.511-.117,5.549.054,11.1-.11,16.647-.163,5.471-4.838,7.875-9.56,5.065a8.153,8.153,0,0,1-4.269-6.962c-.141-3.355-.2-6.727-.2-10.091-.031-8.405-.008-8.413-8.187-6.633-.187.039-.312.374-.687.858,2.1.32,2.17,1.8,2.154,3.434-.046,4.659.047,9.326-.031,13.986-.093,5.79-4.971,8.35-9.989,5.346a11.515,11.515,0,0,1-3.341-3.661c-1.124-5.416-.452-10.9-.546-16.35-.039-2-.351-3.075-2.513-1.7-2.068.3-4.136.593-7.422,1.069,3.473,1.21,3.512,3.129,3.457,5.159-.07,2.84.008,5.689-.015,8.538-.039,5.416-.773,6.345-6.275,6.415q-15.734.188-31.476,0c-5.572-.07-8.147-2.888-8.2-8.53-.055-5.44-.016-10.872-.016-16.3,0-1.53.141-3.2-2.224-1.795-1.085.07-2.24-.179-3.184.64-1.14.094-2.279.2-4.16.343,1.928,1.148,2.942,2.076,2.9,3.942-.149,5.822.077,11.652-.1,17.474-.156,5.354-4.7,7.586-9.326,4.753a8.934,8.934,0,0,1-4.176-6.244c-.686-3.465-.437-6.961-.484-10.45-.039-2.575.921-6.025-.382-7.523-1.655-1.92-4.9.616-7.539.429-.289-.016-.6.343-1.428.858,2.169.406,2.856,1.553,2.833,3.286-.055,4.917.132,9.841-.063,14.75-.2,5.019-4,7.259-8.678,5.307-3.52-1.467-4.948-4.393-5.2-7.976-.141-2.06-.039-4.136-.039-6.2,0-8.741,0-8.741-8.819-6.9.172,1.248,1.779,1.022,2.115,2.06a116.2,116.2,0,0,1-.07,15.546c-1.2,2.677-3.637,2.568-5.971,2.576q-14.586.034-29.173,0c-4.69-.016-5.791-1.022-5.822-5.674-.055-6.431.117-12.862.109-19.293,0-.842,1-2.232-.733-2.5-.968-.14-2.459-.46-2.833.624-1.1,3.208-2.669,1.3-4.1.539-6.353-3.372-12.667-2.466-17.748,2.607-6.7,6.672-6.454,19.573.6,25.926,4.332,3.894,9.03,5.44,14.9,1.272,1.576-1.116,2.185-3.332,4.394-3.723.679,3.153,2.255,5.292,5.611,5.6a14.193,14.193,0,0,0,2.63.507q17.712.048,35.425-.023c.835-.008,1.849.219,2.544-.609l.375.008.343-.164c1.873-.562,3.652-1.264,4.612-3.168,1.194-1.21,1.749-.047,2.459.647a11.762,11.762,0,0,0,8.8,3.411,12.917,12.917,0,0,0,10.724-5.768c5.338,8.367,16.132,7.009,20.619.188,5.057,5.2,6.017,5.6,13.658,5.6,9.077.008,18.153-.062,27.23.047,4.534.055,8.421-1.1,11.285-5,2.817,3.387,6.275,5.182,10.606,4.87a12.689,12.689,0,0,0,10.318-5.776,30.062,30.062,0,0,0,2.489,2.833,11.7,11.7,0,0,0,11.988,2.217c3.387-1.116,5.955-3.114,6.267-7.032C-3634.595,1570.582-3635.282,1562.606-3635.095,1554.638Zm-191.31,24.568a7.689,7.689,0,0,1-6.837,4.082c-3.294.093-5.159-1.694-6.259-4.261a23.915,23.915,0,0,1,.164-19.878c1.4-3.114,3.972-5,7.781-4.519,3.637.468,5.338,2.856,6.275,6,.788,2.631.632,5.37.678,8.078C-3824.727,1572.291-3824.368,1575.913-3826.405,1579.206Z" fill="#00483a"/>
      <path id="Path_758" data-name="Path 758" d="M-3528.579,1663.338c-.133,1.842-2.826.461-4.363.656-.632.078-1.288-.008-1.936.023-5.346.226-5.346.226-4.713-5.237-.024-4.924.046-9.849-.1-14.766-.133-4.776-2.583-7.383-6.961-7.742-4.4-.359-8.507,2.482-9,6.7-.64,5.534-.148,11.106.1,16.663.11,2.56,1.835,2.8,3.77,2.669.983-.062,1.506.226,1.405,1.21-.094,1-.913.671-1.491.663-4.526-.008-9.061-.047-13.587-.07-.609,0-1.405.265-1.522-.664-.133-.991.491-1.412,1.412-1.3,3.614.414,3.981-1.8,3.942-4.6q-.107-8.533.046-17.084c.039-2.411-.374-4.1-3.363-3.754-.8.094-2.014.344-2.022-1.061-.007-1.061.96-1,1.725-1.085a41.669,41.669,0,0,0,9.2-2.6v5.69c1.959-.461,2.958-1.85,4.113-2.888,3.847-3.457,8.116-3.606,12.619-1.7,4.145,1.756,5.393,5.213,5.409,9.427.015,5.042.187,10.084.3,15.125.031,1.538-.242,3.138.945,4.426C-3531.373,1663.034-3528.423,1661.083-3528.579,1663.338Z" fill="#00483a"/>
    </g>
  </g>
</svg>
