<svg xmlns="http://www.w3.org/2000/svg" width="98.662" height="20.07" viewBox="0 0 98.662 20.07">
  <g id="next" transform="translate(-36.5 -127.5)">
    <path id="Path_1351" data-name="Path 1351" d="M39.871,132.165c0,.078.039.118.039.2v14.66c0,.314-.039.431-.392.431-.9-.039-1.764,0-2.665,0-.235,0-.353-.039-.353-.314V127.892c0-.235.039-.314.274-.314H40.5a.426.426,0,0,1,.353.157c.941,1.176,1.882,2.352,2.822,3.489l2.7,3.293c1.019,1.294,2.078,2.587,3.1,3.841l2.7,3.293c.9,1.137,1.8,2.273,2.7,3.371.51.666,1.058,1.294,1.607,1.96.039.039.039.118.157.078.078-.039.039-.078.039-.118v-19.05c0-.353.118-.392.431-.392H73.5c.314,0,.392.078.392.392q-.059,1.176,0,2.352c0,.314-.039.431-.431.431H60.528c-.353,0-.47.078-.47.431.039,1.45,0,2.861,0,4.312,0,.314.078.353.353.353H70.759c.314,0,.392.078.392.392-.039.784-.039,1.607,0,2.391,0,.353-.118.392-.431.392H60.489c-.353,0-.47.078-.47.431.039,1.45.039,2.94,0,4.39,0,.353.118.431.431.392H73.425c.353,0,.431.078.431.431q-.059,1.176,0,2.352c0,.314-.078.431-.431.431-6.664,0-13.288-.039-19.952,0a1.876,1.876,0,0,1-1.725-.784c-.9-1.215-1.882-2.352-2.822-3.567-.784-1.019-1.607-1.96-2.43-2.979-.784-.98-1.529-1.96-2.313-2.94-.588-.706-1.176-1.411-1.725-2.117-.392-.47-.745-.941-1.137-1.45a8.613,8.613,0,0,1-.549-.706c-.118-.157-.235-.274-.353-.431-.078-.118-.2-.2-.274-.314-.039-.039-.118-.314-.235-.235A.307.307,0,0,0,39.871,132.165Z" fill="#010101"/>
    <path id="Path_1352" data-name="Path 1352" d="M142.339,127.8h4.194a.356.356,0,0,1,.314.157c.823,1.019,1.646,2.038,2.469,3.1.9,1.137,1.842,2.273,2.744,3.41.392.47.431.47.784,0,.706-.862,1.411-1.764,2.117-2.626.588-.706,1.176-1.45,1.764-2.156.392-.47.784-.98,1.176-1.45a.716.716,0,0,1,.706-.353c1.215.039,2.43,0,3.645,0h.431c-.47.627-.941,1.176-1.372,1.725-.784.98-1.607,1.96-2.391,2.94-.706.862-1.372,1.725-2.077,2.587-.666.823-1.372,1.686-2.038,2.509a.262.262,0,0,0,.039.392c1.49,1.842,2.94,3.645,4.429,5.488,1.1,1.372,2.2,2.7,3.293,4.077.039.039.039.078.078.157H158.45a.434.434,0,0,1-.392-.2c-1.176-1.45-2.352-2.861-3.489-4.351-.666-.862-1.411-1.725-2.117-2.587-1.176-1.45-2.313-2.94-3.528-4.39-2.2-2.744-4.429-5.488-6.624-8.232C142.378,127.918,142.378,127.878,142.339,127.8Z" transform="translate(-64.328 -0.182)" fill="#010101"/>
    <path id="Path_1353" data-name="Path 1353" d="M212.645,127.7h8.232c.353,0,.431.118.431.431-.039.823-.039,1.607,0,2.43,0,.274-.078.314-.353.314H214.88c-.353,0-.392.118-.392.431v15.836c0,.314-.039.431-.431.431-.9-.039-1.764-.039-2.665,0-.314,0-.353-.078-.353-.392V131.306c0-.353-.118-.431-.431-.431h-6.154c-.274,0-.353-.078-.353-.353q.059-1.235,0-2.469c0-.314.118-.353.392-.353Z" transform="translate(-101.904 -0.122)" fill="#010101"/>
    <path id="Path_1354" data-name="Path 1354" d="M142.2,165.465c.941-1.176,1.842-2.273,2.744-3.41,1.294-1.607,2.626-3.253,3.92-4.861.118-.157.2-.2.353,0l1.882,2.352c.157.2.118.314-.039.51-.706.862-1.372,1.725-2.077,2.587l-2.234,2.7a.279.279,0,0,1-.235.118Z" transform="translate(-64.267 -17.974)" fill="#010101"/>
    <path id="Path_1355" data-name="Path 1355" d="M275.02,164.88a3.36,3.36,0,0,1-2.47-.862,3.03,3.03,0,0,1-.666-1.49c-.039-.157.039-.235.2-.235h1.137c.078,0,.2-.039.2.118.078.784.666,1.058,1.333,1.176a1.871,1.871,0,0,0,1.725-.431.9.9,0,0,0-.274-1.568c-.51-.2-1.019-.314-1.529-.47a4.493,4.493,0,0,1-1.96-.9,2.125,2.125,0,0,1-.274-2.587,2.486,2.486,0,0,1,1.764-1.137,3.754,3.754,0,0,1,2.979.392,2,2,0,0,1,1.019,1.568c.039.2,0,.314-.274.274h-.431c-.392,0-.784.118-.98-.47-.118-.392-.588-.549-.98-.588a2.253,2.253,0,0,0-1.333.157,1.034,1.034,0,0,0-.588.9.952.952,0,0,0,.549.823,8.725,8.725,0,0,0,1.725.51,4.294,4.294,0,0,1,1.45.627,2.2,2.2,0,0,1,0,3.606A3.391,3.391,0,0,1,275.02,164.88Z" transform="translate(-143.112 -17.545)" fill="#010101"/>
    <path id="Path_1356" data-name="Path 1356" d="M260.231,159.762v2.587a2.5,2.5,0,0,1-2.665,2.7,3.28,3.28,0,0,1-1.607-.314,2.065,2.065,0,0,1-1.058-1.725c0-.2.039-.274.274-.274h.588c.353,0,.706-.078.784.47.078.431.588.627,1.137.588a1.137,1.137,0,0,0,.941-.784,1.726,1.726,0,0,0,.078-.627v-5.37c0-.314.078-.392.392-.353.353.039.862-.118,1.1.078s.078.706.078,1.058C260.231,158.468,260.231,159.1,260.231,159.762Z" transform="translate(-132.791 -17.719)" fill="#010101"/>
    <path id="Path_1357" data-name="Path 1357" d="M247.486,174.4a.844.844,0,0,1,.9-.9.834.834,0,0,1,.862.9.878.878,0,0,1-.862.9A.842.842,0,0,1,247.486,174.4Z" transform="translate(-128.277 -27.969)" fill="#010101"/>
  </g>
</svg>
