<svg xmlns="http://www.w3.org/2000/svg" width="54.142" height="61.86" viewBox="0 0 54.142 61.86">
  <g id="NFT" transform="translate(-130.1 -123.674)">
    <path id="Path_1570" data-name="Path 1570" d="M500.966,445.2a.932.932,0,0,1-.166.579A1.244,1.244,0,0,0,500.966,445.2Z" transform="translate(-319.565 -277.174)" fill="#161515"/>
    <path id="Path_1571" data-name="Path 1571" d="M501.935,297.864q-.021-9.725,0-19.464Q501.915,288.125,501.935,297.864Z" transform="translate(-320.535 -133.382)" fill="#161515"/>
    <path id="Path_1572" data-name="Path 1572" d="M130.2,272.316q.021-14.215,0-28.416Q130.221,258.115,130.2,272.316Z" transform="translate(-0.086 -103.641)" fill="#161515"/>
    <path id="Path_1573" data-name="Path 1573" d="M150.7,419.3v0Z" transform="translate(-17.758 -254.846)" fill="#161515"/>
    <path id="Path_1574" data-name="Path 1574" d="M150.614,254.135c0-1.1,0-2.207-.014-3.311v-.055C150.614,251.886,150.614,253.017,150.614,254.135Z" transform="translate(-17.672 -109.503)" fill="#161515"/>
    <path id="Path_1575" data-name="Path 1575" d="M150.736,465.06a2.381,2.381,0,0,1-.455-.234q-9.559-5.5-19.119-11.022a1.961,1.961,0,0,1-1.062-1.848V451.9a1.972,1.972,0,0,0,1.09,1.89Q140.977,459.418,150.736,465.06Z" transform="translate(0 -282.949)" fill="#161515"/>
    <path id="Path_1576" data-name="Path 1576" d="M394.257,456.1a1.919,1.919,0,0,1-1.035,1.338q-9.539,5.483-19.064,10.994a2.081,2.081,0,0,1-.359.166q9.725-5.607,19.45-11.215A1.863,1.863,0,0,0,394.257,456.1Z" transform="translate(-210.083 -286.57)" fill="#161515"/>
    <path id="Path_1577" data-name="Path 1577" d="M184.4,140.286a2,2,0,0,0-1.09-1.9q-9.787-5.628-19.546-11.27-2.711-1.552-5.407-3.131a1.817,1.817,0,0,0-2-.014c-1.848,1.076-3.711,2.138-5.559,3.214h0L131.348,138.4a1.914,1.914,0,0,0-1.007,1.3.3.3,0,0,0-.014.11.469.469,0,0,0-.014.138,2.235,2.235,0,0,0-.014.3q.021,14.194,0,28.416v.276a1.972,1.972,0,0,0,1.09,1.89q9.787,5.628,19.546,11.27h0c1.807,1.048,3.614,2.083,5.407,3.131a1.817,1.817,0,0,0,2,.014c1.848-1.076,3.711-2.138,5.559-3.214q9.725-5.607,19.45-11.215a1.891,1.891,0,0,0,1.007-1.283.325.325,0,0,1,.028-.11.469.469,0,0,0,.014-.138,2.235,2.235,0,0,0,.014-.3q-.021-14.194,0-28.4v-.29Zm-2.828,24.2v3.545a.932.932,0,0,1-.166.579,1.1,1.1,0,0,1-.359.29q-11.629,6.683-23.229,13.408a.828.828,0,0,1-.979-.014q-11.546-6.683-23.105-13.339a1.049,1.049,0,0,1-.621-.966v-3.531c0-5.366.014-10.732,0-16.112v-3.7c0-1.1,0-2.207-.014-3.311v-.124a.917.917,0,0,1,.166-.566c0-.014.014-.014.014-.028a1.322,1.322,0,0,1,.331-.262q11.629-6.683,23.229-13.408a.828.828,0,0,1,.979.014q11.546,6.683,23.105,13.339a1.049,1.049,0,0,1,.621.966v3.752Q181.566,154.743,181.573,164.481Z" transform="translate(-0.172)" fill="#161515"/>
    <path id="Path_1578" data-name="Path 1578" d="M150.866,246.6a1.016,1.016,0,0,0-.166.566A.917.917,0,0,1,150.866,246.6Z" transform="translate(-17.758 -105.969)" fill="#161515"/>
    <path id="Path_1579" data-name="Path 1579" d="M150.7,318.612c0-5.366.014-10.732,0-16.112C150.714,307.866,150.7,313.232,150.7,318.612Z" transform="translate(-17.758 -154.158)" fill="#161515"/>
    <path id="Path_1580" data-name="Path 1580" d="M150.957,149.2l-19.45,11.215a1.914,1.914,0,0,0-1.007,1.3,1.919,1.919,0,0,1,1.035-1.338q9.539-5.483,19.064-10.994A1.738,1.738,0,0,1,150.957,149.2Z" transform="translate(-0.345 -22.005)" fill="#161515"/>
    <path id="Path_1581" data-name="Path 1581" d="M502,251.21v0Z" transform="translate(-320.599 -109.848)" fill="#161515"/>
    <path id="Path_1582" data-name="Path 1582" d="M502,423.021v0Z" transform="translate(-320.599 -255.105)" fill="#161515"/>
    <path id="Path_1583" data-name="Path 1583" d="M522.435,274.6q-.021-14.194,0-28.4Q522.415,260.394,522.435,274.6Z" transform="translate(-338.207 -105.624)" fill="#161515"/>
    <path id="Path_1584" data-name="Path 1584" d="M393.536,161.718v.055a2,2,0,0,0-1.09-1.9q-9.787-5.628-19.546-11.27a2.381,2.381,0,0,1,.455.234q9.559,5.5,19.119,11.022A1.981,1.981,0,0,1,393.536,161.718Z" transform="translate(-209.308 -21.487)" fill="#161515"/>
    <path id="Path_1585" data-name="Path 1585" d="M272.4,199.2V180.768a1.8,1.8,0,0,1,.952-1.683c1.876-1.1,3.738-2.235,5.6-3.366a1.783,1.783,0,0,1,2.055-.014c2.317,1.435,4.662,2.828,6.994,4.235a1.506,1.506,0,0,1,.869,1.448,1.362,1.362,0,0,1-.924,1.186,1.577,1.577,0,0,1-1.49-.276c-1.931-1.186-3.89-2.345-5.807-3.545a1.036,1.036,0,0,0-1.283,0c-1.2.772-2.428,1.49-3.655,2.193a.853.853,0,0,0-.483.869q.021,7.635,0,15.27c0,.483.138.621.621.607,3.159-.014,6.332-.014,9.49-.014.207,0,.414-.014.621,0a1.407,1.407,0,1,1-.028,2.814c-.455.028-.91.014-1.379.014-2.828,0-5.642.028-8.456-.014-.662-.014-.883.11-.883.841.041,5.366.028,10.732.014,16.1a4.762,4.762,0,0,1-.069.883,1.351,1.351,0,0,1-1.379,1.1,1.41,1.41,0,0,1-1.324-1.172,5.546,5.546,0,0,1-.041-.828Q272.393,208.315,272.4,199.2Z" transform="translate(-122.671 -44.579)" fill="#161515"/>
    <path id="Path_1586" data-name="Path 1586" d="M184.528,255.017v5.352c0,1.352.014,2.7-.014,4.055a1.445,1.445,0,0,1-1.062,1.435,1.33,1.33,0,0,1-1.49-.579,1.549,1.549,0,0,1-.262-.979V244.147a1.468,1.468,0,0,1,1.255-1.628,1.544,1.544,0,0,1,1.6,1.324c1.159,4.18,2.3,8.359,3.462,12.525a1.524,1.524,0,0,0,.372.841V240.34c0-1.379.441-2.028,1.393-2.042s1.435.69,1.435,2.014v27.451c-.014,1.062-.428,1.642-1.269,1.766-.759.11-1.338-.359-1.614-1.366-1.159-4.18-2.317-8.346-3.476-12.525-.055-.207-.124-.428-.179-.635A.619.619,0,0,0,184.528,255.017Z" transform="translate(-44.482 -98.813)" fill="#161515"/>
    <path id="Path_1587" data-name="Path 1587" d="M401.377,241.672c0-4.193-.028-8.387.028-12.58a1.47,1.47,0,0,0-.9-1.545c-.869-.455-1.711-.979-2.538-1.517a1.4,1.4,0,0,1-.014-2.483,1.533,1.533,0,0,1,1.683.179c1.766,1.062,3.531,2.138,5.3,3.2.993.607,2,1.2,2.993,1.821a1.417,1.417,0,0,1,.745,1.738,1.353,1.353,0,0,1-2.014.772,17.539,17.539,0,0,1-1.89-1.131c-.51-.331-.579-.152-.579.345q.021,5.814.014,11.615v12.3a3.846,3.846,0,0,1-.028.69,1.423,1.423,0,0,1-1.3,1.228,1.4,1.4,0,0,1-1.448-1.035,3.193,3.193,0,0,1-.069-.814q.021-6.394.014-12.787Z" transform="translate(-230.266 -85.936)" fill="#161515"/>
  </g>
</svg>
