<svg xmlns="http://www.w3.org/2000/svg" xmlns:xlink="http://www.w3.org/1999/xlink" width="98.953" height="52.067" viewBox="0 0 98.953 52.067">
  <defs>
    <linearGradient id="linear-gradient" y1="0.5" x2="1" y2="0.5" gradientUnits="objectBoundingBox">
      <stop offset="0" stop-color="#989cc6"/>
      <stop offset="1" stop-color="#535676"/>
    </linearGradient>
  </defs>
  <g id="php" transform="translate(0.001)">
    <path id="Path_1497" data-name="Path 1497" d="M64.108,109.8c-.6.473-1.248.947-1.808,1.463A20.594,20.594,0,0,1,64.108,109.8Z" transform="translate(-53.772 -97.374)" fill="#afb1d4"/>
    <path id="Path_1498" data-name="Path 1498" d="M70.691,105.8c-.43.258-.861.56-1.291.818C69.83,106.36,70.261,106.058,70.691,105.8Z" transform="translate(-57.816 -95.096)" fill="#afb1d4"/>
    <path id="Path_1499" data-name="Path 1499" d="M141.309,104.932c-1.119-6.327-5.208-10.458-10.243-13.859a11.685,11.685,0,0,0-2.109-1.334,13.148,13.148,0,0,0-2.754-1.506,19.679,19.679,0,0,0-3.486-1.592,33.086,33.086,0,0,0-3.1-1.205,26.557,26.557,0,0,0-4.089-1.291,24.494,24.494,0,0,0-4.648-1.162,25.235,25.235,0,0,0-4.433-.861,33.551,33.551,0,0,0-4.648-.646c-1.463-.258-2.97-.215-4.433-.387-2.927-.086-5.9-.258-8.823-.086A97.538,97.538,0,0,0,75.76,82.38,62.579,62.579,0,0,0,54.5,89.955a26.651,26.651,0,0,0-7.962,6.757c-.258.3-.516.559-.732.861a13.64,13.64,0,0,0-2.582,5.251,8.928,8.928,0,0,0-.689,4.734c.086.775.129,1.549.258,2.281a17.424,17.424,0,0,0,4.949,8.78c6.413,6.413,14.461,9.727,23.112,11.836a48.174,48.174,0,0,0,8.177,1.592,34.8,34.8,0,0,0,5.982.6,46.253,46.253,0,0,0,8.091.258,39.518,39.518,0,0,0,5.982-.258,40.3,40.3,0,0,0,6.025-.646,47.883,47.883,0,0,0,5.423-.99,29.366,29.366,0,0,0,4.993-1.291,20.78,20.78,0,0,0,2.668-.775,47.431,47.431,0,0,0,14.375-7.188c4.261-3.228,7.618-7.058,8.694-12.524,0-.086.129-.129.172-.172v-4C141.395,105.018,141.309,104.975,141.309,104.932Zm-5.122,10.889a30.386,30.386,0,0,1-9.813,7.79,72.509,72.509,0,0,1-9.641,4.046c-1.291.172-2.453.689-3.7.947-.387.086-.732.172-1.119.258-1.722.387-3.486.775-5.208,1.119-1.894,0-3.7.646-5.6.6a40.749,40.749,0,0,1-5.6.387c-1.549-.086-3.056.3-4.605.215a11.9,11.9,0,0,1-2.755-.215,55.113,55.113,0,0,1-5.982-.387,62.239,62.239,0,0,1-7.36-1.162c-7.274-1.377-14.289-3.658-20.53-7.79-3.314-2.195-6.37-4.777-8.22-8.436a19.652,19.652,0,0,1-1.42-4.046,8.236,8.236,0,0,1-.086-3.4,8.358,8.358,0,0,0,.086-1.033,16.821,16.821,0,0,1,2.582-5.81c.129-.215.215-.473.344-.689a35.731,35.731,0,0,1,3.4-3.357c.6-.516,1.205-.99,1.808-1.463.43-.3.818-.6,1.248-.9s.861-.56,1.291-.818a52.639,52.639,0,0,1,13.557-5.724,70.668,70.668,0,0,1,11.19-2.281c2.711-.344,5.423-.56,8.134-.689,3.1-.172,6.241.086,9.339.043h0c1.463.3,2.97.215,4.433.387a42.928,42.928,0,0,0,4.648.6,22.346,22.346,0,0,0,4.046.775,35.771,35.771,0,0,0,4.82,1.162,22.273,22.273,0,0,0,4.046,1.334c1.033.43,2.066.9,3.1,1.334,1.076.516,2.195,1.033,3.271,1.549.818.43,1.679.9,2.5,1.377l2.324,1.549a28.283,28.283,0,0,1,5.638,5.466C140.62,104.244,140.534,110.269,136.187,115.821Z" transform="translate(-42.485 -80.929)" fill="url(#linear-gradient)"/>
    <path id="Path_1500" data-name="Path 1500" d="M139.224,101.125a28.283,28.283,0,0,0-5.638-5.466l-2.324-1.549c-.818-.473-1.679-.9-2.5-1.377-1.076-.516-2.195-1.033-3.271-1.549-1.033-.43-2.066-.9-3.1-1.334a26.191,26.191,0,0,1-4.046-1.334,35.771,35.771,0,0,1-4.82-1.162,21.011,21.011,0,0,1-4.046-.775,42.922,42.922,0,0,1-4.648-.6c-1.463-.172-2.97-.086-4.433-.387h0c-3.1.043-6.2-.172-9.339-.043-2.711.129-5.423.344-8.134.689a70.669,70.669,0,0,0-11.19,2.281,52.639,52.639,0,0,0-13.557,5.724c-.43.258-.861.56-1.291.818-.43.3-.861.6-1.248.9-.6.473-1.248.947-1.808,1.463a31.253,31.253,0,0,0-3.4,3.357,5.138,5.138,0,0,1-.344.689,16.055,16.055,0,0,0-2.582,5.81,8.358,8.358,0,0,1-.086,1.033,8.236,8.236,0,0,0,.086,3.4,18.8,18.8,0,0,0,1.42,4.046c1.851,3.7,4.906,6.241,8.22,8.436,6.241,4.132,13.213,6.37,20.53,7.79,2.41.559,4.906.818,7.36,1.162a55.83,55.83,0,0,0,5.982.387,19.791,19.791,0,0,0,2.754.215c1.549.086,3.056-.258,4.605-.215a34.6,34.6,0,0,0,5.6-.387c1.894.043,3.7-.56,5.6-.6,1.722-.387,3.486-.775,5.208-1.119a10.486,10.486,0,0,0,1.119-.258,27.453,27.453,0,0,1,3.7-.947,70.193,70.193,0,0,0,9.641-4.046,29.821,29.821,0,0,0,9.813-7.79C143.269,112.874,143.355,106.849,139.224,101.125Zm-8.694,8.048a12.218,12.218,0,0,1-11.793,9.081c-1.592.043-3.228.043-4.82,0-.6,0-.818.172-.947.775-.258,1.549-.56,3.1-.861,4.648-.258,1.334-.473,1.549-1.851,1.549h-4.734c-1.119,0-1.549-.43-1.334-1.549q.387-2.324.9-4.648c.129-.6,0-.775-.646-.775-1.722.043-3.486,0-5.208,0-1.119,0-1.506-.516-1.291-1.592.732-3.7,1.42-7.36,2.152-11.061a1.191,1.191,0,0,0,.043-.387c.172-1.592-.043-1.851-1.679-1.851H95.195c-.473,0-.732.086-.861.646-.818,4.3-1.679,8.651-2.5,12.955a1.338,1.338,0,0,1-1.549,1.291c-1.635-.043-3.271,0-4.906,0-1.162,0-1.549-.473-1.334-1.635.215-1.205.473-2.453.689-3.658-.99.947-1.808,1.851-2.754,2.668a12.207,12.207,0,0,1-7.618,2.625c-1.592.043-3.228.043-4.82,0a.739.739,0,0,0-.861.732c-.3,1.679-.646,3.357-.947,5.036a1.3,1.3,0,0,1-1.463,1.205c-1.722-.043-3.4,0-5.122,0-1.033,0-1.506-.56-1.291-1.549q2.453-12.654,4.949-25.221c.258-1.334.43-1.463,1.808-1.463,3.787,0,7.532-.043,11.319.043a8.9,8.9,0,0,1,7.188,3.142,7.83,7.83,0,0,1,1.506,3.056,24.008,24.008,0,0,0,.818-3.615c.56-2.755,1.076-5.466,1.592-8.22a1.338,1.338,0,0,1,1.549-1.291c1.635.043,3.271,0,4.906,0,1.162,0,1.549.516,1.334,1.635-.3,1.549-.56,3.1-.9,4.648-.129.56,0,.689.516.646H100.7a10.812,10.812,0,0,1,5.036,1.162,5.738,5.738,0,0,1,2.754,3.7c.215-1.162.473-2.367.646-3.529a1.416,1.416,0,0,1,1.592-1.377c3.874.043,7.747,0,11.577.043,4.261.043,7.532,2.324,8.479,5.853A11.983,11.983,0,0,1,130.53,109.173Z" transform="translate(-45.22 -83.534)" fill="#787cb3"/>
    <path id="Path_1501" data-name="Path 1501" d="M101.152,119.05c-.99.947-1.808,1.851-2.8,2.668a12.207,12.207,0,0,1-7.618,2.625c-1.592.043-3.228.043-4.82,0a.739.739,0,0,0-.861.732c-.3,1.679-.646,3.357-.947,5.036a1.3,1.3,0,0,1-1.463,1.205c-1.722-.043-3.4,0-5.122,0-1.033,0-1.506-.56-1.291-1.549,1.635-8.393,3.271-16.828,4.949-25.221.258-1.334.43-1.463,1.808-1.463,3.787,0,7.532-.043,11.319.043a8.9,8.9,0,0,1,7.188,3.142A8.468,8.468,0,0,1,103,109.323a24.007,24.007,0,0,0,.818-3.615c.56-2.755,1.076-5.466,1.592-8.22a1.338,1.338,0,0,1,1.549-1.291c1.635.043,3.271,0,4.906,0,1.162,0,1.549.516,1.334,1.635-.3,1.549-.56,3.1-.9,4.648-.129.56,0,.689.516.646h4.261a10.812,10.812,0,0,1,5.036,1.162,5.738,5.738,0,0,1,2.755,3.7c.215-1.162.473-2.367.646-3.529a1.416,1.416,0,0,1,1.592-1.377c3.874.043,7.747,0,11.577.043,4.261.043,7.532,2.324,8.479,5.853a11.55,11.55,0,0,1-.215,6.284,12.218,12.218,0,0,1-11.793,9.081c-1.592.043-3.228.043-4.82,0-.6,0-.818.172-.947.775-.258,1.549-.56,3.1-.861,4.648-.258,1.334-.473,1.549-1.851,1.549H121.94c-1.119,0-1.549-.43-1.334-1.549q.387-2.324.9-4.648c.129-.6,0-.775-.646-.775-1.722.043-3.486.043-5.208,0-1.119,0-1.506-.516-1.291-1.592.732-3.7,1.42-7.36,2.152-11.061a1.192,1.192,0,0,0,.043-.387c.172-1.592-.043-1.851-1.679-1.851h-3.271c-.473,0-.732.086-.861.646-.818,4.3-1.679,8.651-2.5,12.955a1.338,1.338,0,0,1-1.549,1.291c-1.635-.043-3.271,0-4.906,0-1.162,0-1.549-.473-1.334-1.635C100.722,121.5,100.937,120.3,101.152,119.05Zm-12.481,4.261c1.808-.086,4.046.043,6.112-.818a11.071,11.071,0,0,0,7.144-9.253c.818-5.208-1.937-8.694-7.188-9-3.917-.258-7.833-.043-11.793-.129-.6,0-.689.3-.775.732q-2.389,12.331-4.777,24.618c-.129.56,0,.732.6.732,1.334-.043,2.711-.043,4.046,0,.732.043.99-.172,1.119-.9.258-1.722.646-3.486.947-5.208.086-.6.3-.861.99-.818C86.175,123.354,87.251,123.311,88.671,123.311Zm45.191-19.152c-2.195,0-4.046.086-5.853-.043-1.076-.086-1.377.344-1.549,1.334-.818,4.519-1.722,9.038-2.625,13.6-.646,3.443-1.291,6.843-2.023,10.286-.172.818.086.947.818.947,1.334-.043,2.711-.043,4.046,0,.516,0,.732-.129.775-.646.172-1.119.43-2.195.646-3.314.215-.947,0-2.324.689-2.8.732-.473,1.98-.172,3.013-.172a24.718,24.718,0,0,0,6.671-.6,11.464,11.464,0,0,0,7.876-11.319,6.654,6.654,0,0,0-5.9-6.929C138.209,103.986,135.842,104.244,133.862,104.158Zm-15.623,19.152c.732,0,1.463-.043,2.238,0,.516.043.689-.129.775-.689.732-3.83,1.506-7.661,2.238-11.491.775-4.046-.56-5.982-4.648-6.714a35.977,35.977,0,0,0-7.144-.215c-.818,0-.861-.258-.732-.947.387-1.765.689-3.529,1.076-5.294.129-.56.043-.732-.559-.732q-2.066.065-4.132,0c-.689-.043-.861.258-.99.818-1.592,8.177-3.142,16.355-4.734,24.532-.129.56-.043.732.56.732q2.13-.065,4.261,0c.6.043.775-.215.861-.732.344-1.765.646-3.529.99-5.294.516-2.754,1.033-5.466,1.592-8.22.043-.258-.043-.775.516-.775a33.148,33.148,0,0,1,5.853.215,1.593,1.593,0,0,1,1.463,1.808,7.007,7.007,0,0,1-.129,1.334c-.689,3.658-1.377,7.317-2.109,10.932-.086.516-.043.689.516.689C116.775,123.311,117.507,123.311,118.239,123.311Z" transform="translate(-61.679 -89.624)" fill="#f4f3f4"/>
    <path id="Path_1502" data-name="Path 1502" d="M90.3,133.848c-1.42,0-2.5.043-3.529,0-.689-.043-.861.258-.99.818-.3,1.722-.689,3.443-.947,5.208-.129.732-.387.947-1.119.9-1.334-.043-2.711-.043-4.046,0-.6,0-.689-.172-.6-.732q2.389-12.331,4.777-24.618c.086-.43.215-.732.775-.732,3.917.086,7.876-.129,11.793.129,5.208.3,7.962,3.787,7.188,9a11.16,11.16,0,0,1-7.144,9.253A17.643,17.643,0,0,1,90.3,133.848Zm1.679-15.021H89.521c-.43,0-.646.043-.775.56-.6,3.228-1.248,6.5-1.894,9.727-.086.473-.043.6.473.6,1.42-.043,2.841.043,4.261-.043,2.97-.172,4.777-1.506,5.638-4.218a9.527,9.527,0,0,0,.516-3.486,2.726,2.726,0,0,0-2.109-2.754A10.729,10.729,0,0,0,91.974,118.828Z" transform="translate(-63.304 -100.161)" fill="#09090a"/>
    <path id="Path_1503" data-name="Path 1503" d="M194.3,114.582a40.025,40.025,0,0,1,6.671.3c3.744.732,5.81,3.142,5.9,6.929a11.517,11.517,0,0,1-7.876,11.319,24.875,24.875,0,0,1-6.671.6c-1.033,0-2.281-.3-3.013.172-.689.43-.516,1.808-.689,2.8a28.175,28.175,0,0,0-.646,3.314c-.086.56-.3.689-.775.646-1.334-.043-2.711-.043-4.046,0-.732.043-.99-.129-.818-.947.689-3.4,1.334-6.843,2.023-10.286.861-4.519,1.808-9.038,2.625-13.6.172-.99.473-1.377,1.549-1.334C190.251,114.668,192.1,114.582,194.3,114.582Zm.818,4.132h-2.5c-.473,0-.646.086-.775.6-.6,3.228-1.248,6.413-1.851,9.6-.086.473-.043.689.516.689,1.377-.043,2.755.043,4.132-.043a5.772,5.772,0,0,0,4.993-2.625,9.68,9.68,0,0,0,1.291-4.863,2.892,2.892,0,0,0-2.625-3.142A16.291,16.291,0,0,0,195.115,118.714Z" transform="translate(-122.114 -100.047)" fill="#09090a"/>
    <path id="Path_1504" data-name="Path 1504" d="M151.868,124.733c-.732,0-1.463-.043-2.238,0-.56.043-.6-.172-.516-.689.732-3.658,1.42-7.274,2.109-10.932a7.007,7.007,0,0,0,.129-1.334,1.621,1.621,0,0,0-1.463-1.808,44.357,44.357,0,0,0-5.853-.215c-.56,0-.473.473-.516.775-.56,2.711-1.076,5.466-1.592,8.22-.344,1.765-.689,3.529-.99,5.294-.086.516-.258.775-.861.732q-2.13-.065-4.261,0c-.6,0-.646-.172-.56-.732q2.389-12.266,4.734-24.532c.129-.6.3-.861.99-.818,1.377.086,2.754.043,4.132,0,.6,0,.689.172.559.732-.387,1.765-.689,3.529-1.076,5.294-.129.646-.086.947.732.947a36.078,36.078,0,0,1,7.144.215c4.089.732,5.38,2.668,4.648,6.714-.732,3.83-1.506,7.661-2.238,11.491-.086.516-.258.689-.775.689C153.375,124.733,152.6,124.733,151.868,124.733Z" transform="translate(-95.309 -91.045)" fill="#09090a"/>
    <path id="Path_1505" data-name="Path 1505" d="M102.332,124.23a12.258,12.258,0,0,1,3.7.344,2.726,2.726,0,0,1,2.109,2.754,9.526,9.526,0,0,1-.516,3.486,5.665,5.665,0,0,1-5.638,4.218c-1.42.086-2.841,0-4.261.043-.516,0-.56-.129-.473-.6.646-3.228,1.291-6.456,1.894-9.727.086-.516.344-.6.775-.56A21.69,21.69,0,0,0,102.332,124.23Zm-2.109,9.856c.516-.043,1.377-.043,2.238-.172a4.489,4.489,0,0,0,4.089-3.4,19.266,19.266,0,0,0,.473-2.152c.258-1.851-.387-2.8-2.238-2.927-1.291-.086-2.582-.086-3.83-.172a.778.778,0,0,0-.947.775c-.387,2.2-.818,4.39-1.291,6.628C98.416,134.086,98.416,134.086,100.223,134.086Z" transform="translate(-73.662 -105.564)" fill="#f4f3f4"/>
    <path id="Path_1506" data-name="Path 1506" d="M205.252,124.3a16.729,16.729,0,0,1,3.185.215c1.765.43,2.625,1.334,2.625,3.142a9.261,9.261,0,0,1-1.291,4.863c-1.119,1.894-2.97,2.453-4.993,2.625-1.377.086-2.754,0-4.132.043-.56,0-.646-.172-.516-.689.646-3.185,1.291-6.413,1.851-9.6.086-.516.3-.6.775-.6C203.574,124.343,204.348,124.3,205.252,124.3Zm-.215,1.076a6.95,6.95,0,0,1-.947,0c-.818-.129-1.119.258-1.248,1.033-.43,2.324-.9,4.648-1.334,6.972-.129.6.043.861.646.775,1.119-.086,2.238-.043,3.357-.172a4.407,4.407,0,0,0,3.917-3.228,9.067,9.067,0,0,0,.516-3.228,1.774,1.774,0,0,0-1.377-1.851A13.655,13.655,0,0,0,205.037,125.376Z" transform="translate(-132.252 -105.633)" fill="#f4f3f4"/>
    <path id="Path_1507" data-name="Path 1507" d="M101.988,135.516c-1.808,0-1.808,0-1.549-1.42.43-2.2.861-4.39,1.291-6.628.086-.6.344-.818.947-.775,1.291.086,2.582.043,3.83.172,1.851.129,2.539,1.076,2.238,2.927a11.981,11.981,0,0,1-.473,2.152,4.489,4.489,0,0,1-4.089,3.4C103.365,135.43,102.5,135.473,101.988,135.516Z" transform="translate(-75.426 -106.993)" fill="#787cb3"/>
    <path id="Path_1508" data-name="Path 1508" d="M206.87,126.8a13.842,13.842,0,0,1,3.529.344,1.707,1.707,0,0,1,1.377,1.851,10.336,10.336,0,0,1-.516,3.228,4.407,4.407,0,0,1-3.917,3.228c-1.119.129-2.238.129-3.357.172-.646.043-.775-.215-.646-.775.473-2.324.947-4.648,1.334-6.972.129-.732.387-1.162,1.248-1.033C206.224,126.843,206.568,126.8,206.87,126.8Z" transform="translate(-134.084 -107.057)" fill="#787cb3"/>
  </g>
</svg>
