<svg xmlns="http://www.w3.org/2000/svg" width="101.036" height="41.168" viewBox="0 0 101.036 41.168">
  <g id="React_Native" data-name="React Native" transform="translate(-22.4 -107.335)">
    <path id="Path_1379" data-name="Path 1379" d="M59.767,114.623a14.886,14.886,0,0,1-.472,4.6c-.177.766.059,1,.707,1.179a18.069,18.069,0,0,1,6.306,3.124,5.961,5.961,0,0,1,2.3,3.3c.589,2.475-.707,4.185-2.534,5.6a18.308,18.308,0,0,1-5.894,2.888c-.825.236-1.12.53-.884,1.473a18.917,18.917,0,0,1,.472,6.306c-.295,4.42-3.654,6.483-7.78,4.833a20.985,20.985,0,0,1-5.776-3.831c-.589-.472-.884-.413-1.415.059a19.012,19.012,0,0,1-5.658,3.772c-4.3,1.709-7.6-.472-7.839-5.069a19.5,19.5,0,0,1,.53-6.13c.177-.707.118-1.061-.707-1.3a17.453,17.453,0,0,1-5.953-2.888c-3.713-2.829-3.713-6.6.118-9.312a19.231,19.231,0,0,1,5.894-2.77c.707-.236.825-.53.648-1.179a17.009,17.009,0,0,1-.413-7.308c.589-3.713,3.536-5.481,7.132-4.244a16.88,16.88,0,0,1,6.13,3.949c.648.648,1.061.589,1.709,0a16.4,16.4,0,0,1,5.953-3.831c3.89-1.356,6.955.53,7.367,4.656A12.767,12.767,0,0,1,59.767,114.623ZM45.5,135.31h3.477a1.309,1.309,0,0,0,1.179-.589,55.176,55.176,0,0,0,3.6-6.247.9.9,0,0,0,.059-.943c-1.12-2.122-2.3-4.244-3.6-6.247a1.459,1.459,0,0,0-1.238-.648,41.876,41.876,0,0,0-6.66,0,1.785,1.785,0,0,0-1.591.884c-1.179,1.827-2.24,3.654-3.242,5.6a1.623,1.623,0,0,0,0,1.709c1,1.945,2.063,3.772,3.183,5.6a1.821,1.821,0,0,0,1.886,1A24.159,24.159,0,0,1,45.5,135.31ZM33.245,114.446a24.55,24.55,0,0,0,.589,4.656c.059.472.295.648.766.53a30.584,30.584,0,0,1,5.187-.766c.354,0,.53-.236.707-.472,1.061-1.356,2.122-2.711,3.242-4.008.236-.295.354-.53.059-.825-2-1.768-4.008-3.477-6.719-4.067a2.879,2.879,0,0,0-3.3,1.768A7.112,7.112,0,0,0,33.245,114.446Zm24.577.059a11.327,11.327,0,0,0,0-1.415c-.236-2.829-1.65-4.715-5.01-3.36a19.021,19.021,0,0,0-5.54,3.831c-.354.295-.118.53.118.766a39.235,39.235,0,0,1,3.124,3.89,1.215,1.215,0,0,0,1.061.648,33.728,33.728,0,0,1,4.892.707c.472.118.707,0,.825-.53A23.289,23.289,0,0,0,57.822,114.5ZM24.4,127.884a2.68,2.68,0,0,0,.648,1.827c1.886,2.24,4.538,3.065,7.132,3.949.413.118.53-.236.589-.472a48.23,48.23,0,0,1,1.886-4.833,1.059,1.059,0,0,0,0-.943c-.589-1.591-1.238-3.124-1.827-4.715-.118-.354-.295-.589-.707-.472-2.534.825-4.951,1.709-6.837,3.713A2.518,2.518,0,0,0,24.4,127.884Zm42.377.059a3.651,3.651,0,0,0-.825-1.886c-1.886-2.063-4.42-3.006-6.955-3.831-.472-.177-.53.177-.648.53-.589,1.532-1.179,3.065-1.827,4.6a1.309,1.309,0,0,0-.059.943c.648,1.65,1.3,3.3,1.886,5.01.118.354.295.472.648.354a17.8,17.8,0,0,0,6.247-3.124A3.981,3.981,0,0,0,66.781,127.943ZM33.245,141.381a9.52,9.52,0,0,0,0,1.3c.354,3.006,1.768,4.833,5.363,3.3a19.91,19.91,0,0,0,5.187-3.6c.354-.295.177-.589-.059-.825a35.663,35.663,0,0,1-3.242-4.008.966.966,0,0,0-.648-.413,49.961,49.961,0,0,1-5.187-.766c-.413-.118-.707,0-.825.53A22.746,22.746,0,0,0,33.245,141.381Zm24.577,0a22.427,22.427,0,0,0-.472-4.361c-.118-.589-.354-.825-1-.707-1.3.236-2.593.53-3.949.648-.53.059-1.238-.118-1.65.472-1.061,1.415-2.181,2.829-3.359,4.185-.236.236-.354.472,0,.766A17.089,17.089,0,0,0,53.7,146.45a2.856,2.856,0,0,0,3.831-1.886A11.45,11.45,0,0,0,57.822,141.381ZM52.4,134.956a21.075,21.075,0,0,0,3.536-.589c.53-.118.53-.472.413-.825-.295-.884-.648-1.709-.943-2.593-.177-.53-.413-.53-.707-.059C53.991,132.186,53.284,133.483,52.4,134.956Zm2.77-9.312c.472-1.356.884-2.416,1.238-3.418.118-.413.059-.707-.472-.766a30.959,30.959,0,0,0-3.477-.471C53.284,122.462,54.109,123.876,55.17,125.644Zm-19.155-.177c.825-1.415,1.591-2.652,2.3-3.949.236-.472,0-.589-.413-.589a25.527,25.527,0,0,0-2.947.472.382.382,0,0,0-.295.589A21.174,21.174,0,0,0,36.015,125.467Zm2.593,9.43c-.766-1.415-1.532-2.711-2.24-4.008-.295-.53-.53-.413-.707.059-.354.884-.648,1.768-.943,2.593-.118.295-.177.648.236.707A12.516,12.516,0,0,0,38.608,134.9Zm9.607,2.416H43.559c-.354,0-.648.059-.354.472.648.825,1.356,1.65,2.063,2.416.177.236.354.236.589,0A20.7,20.7,0,0,0,48.215,137.314Zm.177-18.684c-.943-1.12-1.65-2-2.416-2.888-.236-.295-.472-.413-.825,0l-1.945,2.3c-.118.118-.236.236-.177.413s.295.177.413.177A17.382,17.382,0,0,1,48.392,118.631Z" transform="translate(0)" fill="#65dafa"/>
    <path id="Path_1381" data-name="Path 1381" d="M120.267,138.293c2,1.473,2.947,3.6,4.244,5.481.118.177.236.354,0,.53a2.581,2.581,0,0,1-2.3-.53c-.884-1.3-1.768-2.652-2.652-3.949a4.085,4.085,0,0,0-4.361-1.3c-.471.177-.354.53-.354.825,0,1.415-.059,2.77,0,4.185.059.766-.354.825-.943.825s-1,0-1-.825c.059-3.949,0-7.957,0-11.906,0-.354,0-.766.53-.766,2.475.059,4.892-.236,7.367.177A3.482,3.482,0,0,1,123.8,134.4a3.631,3.631,0,0,1-2.416,3.536A8.545,8.545,0,0,1,120.267,138.293Zm-2.888-1.473c.707,0,1.415.059,2.063,0,1.532-.059,2.475-.943,2.416-2.3,0-1.179-.943-2-2.475-2.063-1-.059-2,0-3.006,0-1.886,0-1.709-.236-1.709,1.768C114.727,136.82,114.727,136.82,117.379,136.82Z" transform="translate(-37.161 -9.643)" fill="#68dafa"/>
    <path id="Path_1383" data-name="Path 1383" d="M157.354,136.959a6.015,6.015,0,0,1,1.768.177,2.6,2.6,0,0,1,1.945,2.593c.059,1.65,0,3.3.059,4.951a10.59,10.59,0,0,0,.118,1.3c.059.295.53.766-.059.884-.472.118-1.238.354-1.473-.295-.295-.707-.53-.53-.943-.236a5.163,5.163,0,0,1-3.831.707,2.756,2.756,0,0,1-.766-5.246c1.3-.648,2.711-.53,4.067-.884.413-.118.943,0,1.061-.53a1.508,1.508,0,0,0-.472-1.532c-1.12-1-3.477-.707-4.067.589-.413.884-1,.648-1.532.53-.472-.059-.295-.53-.177-.825a3.5,3.5,0,0,1,3.359-2.24A5.07,5.07,0,0,0,157.354,136.959Zm2,6.071c-.118-.236.295-.884-.413-.825a35.243,35.243,0,0,0-3.6.707,1.4,1.4,0,0,0-1,1.356,1.349,1.349,0,0,0,.884,1.3C156.882,146.271,159.417,145.328,159.358,143.03Z" transform="translate(-53.442 -12.14)" fill="#68dafa"/>
    <path id="Path_1385" data-name="Path 1385" d="M140.153,142.453h-2.888c-.53,0-.648.236-.648.707a3.054,3.054,0,0,0,2.181,2.417,2.648,2.648,0,0,0,2.888-1.3,1.419,1.419,0,0,1,1.827-.472c.236.177.118.354.059.53a3.731,3.731,0,0,1-1.3,1.827,4.91,4.91,0,0,1-4.833.471,4.037,4.037,0,0,1-2.593-3.6,6.531,6.531,0,0,1,.589-3.949,4.428,4.428,0,0,1,5.363-2.063,4.807,4.807,0,0,1,3.006,4.892c-.059.472-.354.472-.707.472-.943.059-1.945.059-2.947.059Zm-.825-1.415h2.063c.53,0,.707-.177.589-.707a2.552,2.552,0,0,0-2.593-2.063,2.681,2.681,0,0,0-2.711,2.063c-.118.53.059.707.589.707Z" transform="translate(-46.143 -12.094)" fill="#68dafa"/>
    <path id="Path_1386" data-name="Path 1386" d="M170.5,141.966c0-2.652,1.061-4.3,3.183-4.892a4.067,4.067,0,0,1,5.01,2.122c.118.295.413.707-.177.884-.472.118-1.061.53-1.356-.236a2.235,2.235,0,0,0-2.593-1.532,2.636,2.636,0,0,0-2.122,2.3,6.689,6.689,0,0,0,.118,3.242,2.512,2.512,0,0,0,2.358,1.827,2.18,2.18,0,0,0,2.3-1.65c.236-1,.884-.766,1.415-.589.825.236.295.825.118,1.238a4.011,4.011,0,0,1-4.715,2.417,4.314,4.314,0,0,1-3.477-4.185A5.4,5.4,0,0,1,170.5,141.966Z" transform="translate(-60.812 -12.137)" fill="#68dafa"/>
    <path id="Path_1388" data-name="Path 1388" d="M188.745,133.334v.766c-.118.707.177.943.884.884.472-.059.884-.059.825.648,0,.648-.354.766-.884.707-.648-.059-.884.177-.884.825.059,1.65,0,3.242,0,4.892,0,.707.177,1.238,1.061,1.179s.707.589.766,1.061c.118.648-.471.53-.766.589-1.886.236-2.711-.53-2.77-2.534-.059-1.709-.059-3.36,0-5.069,0-.648-.059-1-.825-1-.413,0-.354-.354-.354-.648s-.059-.707.413-.648c.884.059.884-.53.825-1.061a1.652,1.652,0,0,1,1.12-2c.648-.236.648-.118.648.413A6.062,6.062,0,0,0,188.745,133.334Z" transform="translate(-67.092 -10.047)" fill="#68dafa"/>
    <path id="Path_1392" data-name="Path 1392" d="M58.826,143.451a3.98,3.98,0,0,1-4.126-4.067,4.2,4.2,0,0,1,4.185-4.185,4.311,4.311,0,0,1,4.185,4.126C62.951,141.447,61.183,143.628,58.826,143.451Z" transform="translate(-13.263 -11.442)" fill="#65dafa"/>
  </g>
</svg>
