<svg xmlns="http://www.w3.org/2000/svg" width="147.422" height="36.233" viewBox="0 0 147.422 36.233">
  <g id="Stellar" transform="translate(-75.1 -274.164)">
    <path id="Path_1632" data-name="Path 1632" d="M75.2,327.906v-3.448c0-.287.192-.351.351-.447,3.863-1.979,7.725-3.958,11.62-5.906q15.275-7.805,30.582-15.578c.064-.032.16-.064.287-.128v3.543c0,.16-.1.192-.223.255-.351.192-.734.383-1.085.543a3.392,3.392,0,0,0-2.043,3.575,16.427,16.427,0,0,1-.99,7.119,17.643,17.643,0,0,1-13.152,11.684,17.439,17.439,0,0,1-14.3-2.777c-.1-.064-.16-.128-.319-.223.958-.479,1.883-.926,2.777-1.437a1.169,1.169,0,0,1,1.245,0,14.553,14.553,0,0,0,8.523,1.468,14.82,14.82,0,0,0,12.514-11.045,15.453,15.453,0,0,0,.287-5.555Q93.268,318.7,75.2,327.906Z" transform="translate(-0.068 -19.222)" fill="#050606"/>
    <path id="Path_1633" data-name="Path 1633" d="M117.94,275.772v3.543c0,.255-.223.255-.351.351-3.607,1.852-7.215,3.671-10.822,5.523l-31.22,15.9-.447.223V297.8c0-.192.1-.223.223-.287.383-.192.734-.383,1.117-.575a3.3,3.3,0,0,0,1.979-3.448,18.727,18.727,0,0,1,.287-4.629,17.64,17.64,0,0,1,3.895-8.2,17.4,17.4,0,0,1,10.056-6.065,17.7,17.7,0,0,1,14.3,2.937l.128.128c-1.085.543-2.139,1.085-3.224,1.628-.192.1-.319-.032-.447-.1A14.553,14.553,0,0,0,97,277.5a14.254,14.254,0,0,0-9.641,3.128,14.518,14.518,0,0,0-5.586,9.545,15.892,15.892,0,0,0-.032,4.086C93.87,288.03,105.905,281.9,117.94,275.772Z" fill="#050606"/>
    <path id="Path_1634" data-name="Path 1634" d="M249.1,307.015h3.256c.319,0,.319.192.351.383a6.37,6.37,0,0,0,1.5,3,6.181,6.181,0,0,0,3.99,1.883,9.474,9.474,0,0,0,4.98-.543,3.9,3.9,0,0,0,2.139-5.235,3.989,3.989,0,0,0-2.043-1.915,17.831,17.831,0,0,0-4.214-1.277,20.113,20.113,0,0,1-5.235-1.532,6.538,6.538,0,0,1-3.671-4.118,6.144,6.144,0,0,1,2.9-7.215,12.019,12.019,0,0,1,7.342-1.564,10.628,10.628,0,0,1,4.788,1.468,8.24,8.24,0,0,1,3.671,5.171c.064.287-.032.319-.287.319H265.7c-.192,0-.319-.032-.383-.223-.766-2.235-2.554-3.224-4.725-3.607a7.774,7.774,0,0,0-5.267.8,3.278,3.278,0,0,0-.128,5.746,9.784,9.784,0,0,0,3.511,1.213,33.169,33.169,0,0,1,6.257,1.756,7.167,7.167,0,0,1,3.831,3.416,7.019,7.019,0,0,1-1.245,7.566A9.787,9.787,0,0,1,262,315.251a12.81,12.81,0,0,1-7.087-.638,8.851,8.851,0,0,1-5.714-7.119Q249.148,307.3,249.1,307.015Z" transform="translate(-118.455 -9.983)" fill="#050606"/>
    <path id="Path_1635" data-name="Path 1635" d="M364.789,323.759a8.021,8.021,0,0,1-6.544,5.778,9.815,9.815,0,0,1-6.033-.607,8.122,8.122,0,0,1-4.661-5.2,11.528,11.528,0,0,1,.351-8.683,9.079,9.079,0,0,1,13.695-3.32,9.366,9.366,0,0,1,3.16,5.427,15.234,15.234,0,0,1,.287,3.192c0,.351-.1.447-.447.447H350.743c-.319-.032-.383.064-.351.383a5.693,5.693,0,0,0,4.725,5.586,5.478,5.478,0,0,0,5.267-1.437,4.69,4.69,0,0,0,.894-1.341.346.346,0,0,1,.351-.255C362.682,323.791,363.7,323.759,364.789,323.759Zm-8.811-5.682h4.565c1.181,0,1.181,0,.894-1.181-.99-3.895-4.82-5.076-7.981-3.671a5.231,5.231,0,0,0-3.033,4.533c-.032.319.128.287.351.287C352.5,318.077,354.255,318.077,355.979,318.077Z" transform="translate(-185.015 -24.301)" fill="#050606"/>
    <path id="Path_1636" data-name="Path 1636" d="M463.629,329.254H460.6c-.16,0-.223-.064-.255-.223a16.155,16.155,0,0,1-.192-1.692,4.363,4.363,0,0,0-.064-.607,9.557,9.557,0,0,1-.83,1.022,6.194,6.194,0,0,1-3.735,1.82,9.661,9.661,0,0,1-4.948-.383,5.164,5.164,0,0,1-3.224-6.672,4.934,4.934,0,0,1,2.49-2.65,17.5,17.5,0,0,1,5.171-1.66,43.615,43.615,0,0,1,4.565-.638c.128,0,.319,0,.319-.223a5.706,5.706,0,0,0-.766-3.384,3.536,3.536,0,0,0-2.235-1.437,5.857,5.857,0,0,0-2.969.1,3.538,3.538,0,0,0-2.65,3.256c-.032.255-.1.351-.383.351q-1.341-.048-2.682,0c-.255,0-.319-.064-.287-.319a6.467,6.467,0,0,1,4.341-5.459,9.634,9.634,0,0,1,7.183.032,5.345,5.345,0,0,1,3.352,4.31,16.939,16.939,0,0,1,.287,3.1c0,2.426-.128,4.852,0,7.278C463.246,326.509,463.373,327.849,463.629,329.254Zm-3.448-8.108a5.635,5.635,0,0,1,0-.734c.032-.255-.032-.383-.351-.319-.575.1-1.149.128-1.692.192a24.227,24.227,0,0,0-4.756.99,5.188,5.188,0,0,0-1.4.67,2.565,2.565,0,0,0-1.309,2.554,2.766,2.766,0,0,0,1.724,2.3,5.734,5.734,0,0,0,3.033.287,4.957,4.957,0,0,0,4.246-2.969A6.788,6.788,0,0,0,460.181,321.146Z" transform="translate(-253.209 -24.241)" fill="#050606"/>
    <path id="Path_1637" data-name="Path 1637" d="M317.8,310.074v-6.385c0-.319-.064-.415-.383-.383-.766.032-1.532,0-2.3,0-.223,0-.319-.064-.319-.287,0-.67.032-1.341,0-1.979,0-.255.1-.319.351-.319h2.3c.319,0,.383-.1.351-.383v-3.99c0-.319.064-.447.415-.447q1.2.048,2.394,0c.319,0,.447.064.447.415-.032,1.341,0,2.65-.032,3.99,0,.319.064.415.383.383.958-.032,1.915,0,2.841,0,.255,0,.383.064.351.351-.032.638-.032,1.309,0,1.947,0,.255-.1.319-.351.319h-2.937c-.255,0-.319.064-.319.319,0,3.958,0,7.917.032,11.875,0,1.149.447,1.6,1.6,1.6h1.692c.223,0,.319.064.319.287v2.139c0,.16,0,.287-.223.287a25.79,25.79,0,0,1-4.15-.16,2.59,2.59,0,0,1-2.3-2.394,26.316,26.316,0,0,1-.16-3.895C317.8,312.244,317.8,311.159,317.8,310.074Z" transform="translate(-163.182 -14.797)" fill="#050606"/>
    <path id="Path_1638" data-name="Path 1638" d="M413.414,303.123v12.418c0,.383-.064.479-.447.479-.83-.032-1.628-.032-2.458,0-.223,0-.351-.064-.319-.287V290.769c0-.383.1-.511.479-.479q1.149.048,2.3,0c.351,0,.415.064.415.415C413.414,294.823,413.414,298.973,413.414,303.123Z" transform="translate(-228.117 -10.975)" fill="#010101"/>
    <path id="Path_1639" data-name="Path 1639" d="M433.624,303.121v12.418c0,.383-.064.479-.447.479-.8-.032-1.564-.032-2.362,0-.351,0-.415-.1-.415-.415V290.7c0-.351.1-.447.415-.415q1.2.048,2.394,0c.351,0,.415.128.415.415C433.592,294.821,433.624,298.971,433.624,303.121Z" transform="translate(-241.879 -10.972)" fill="#010101"/>
    <path id="Path_1640" data-name="Path 1640" d="M510.26,313.843a5.837,5.837,0,0,1,3.511-2.937,7.14,7.14,0,0,1,2.458-.319c.255,0,.415.064.383.383q-.048,1.389,0,2.777c0,.319-.1.351-.351.287A8.351,8.351,0,0,0,513.9,314a3.632,3.632,0,0,0-3.288,3.128,13.677,13.677,0,0,0-.287,2.777v9.449c0,.351-.1.447-.447.447q-1.149-.048-2.3,0c-.383,0-.479-.1-.479-.479V310.939c0-.192.064-.255.255-.255h2.618c.255,0,.255.16.255.319C510.26,311.96,510.26,312.918,510.26,313.843Z" transform="translate(-294.095 -24.792)" fill="#010101"/>
  </g>
</svg>
