<svg xmlns="http://www.w3.org/2000/svg" width="148.398" height="46.054" viewBox="0 0 148.398 46.054">
  <g id="Swift" transform="translate(-18.4 -94.356)">
    <path id="Path_2335" data-name="Path 2335" d="M41.575,94.379c4.112,0,8.224-.053,12.282,0a10.718,10.718,0,0,1,6.194,1.762,9.612,9.612,0,0,1,4.112,6.141,22.966,22.966,0,0,1,.374,5.073c0,7.262,0,14.525-.053,21.787a11.7,11.7,0,0,1-1.549,6.355,9.614,9.614,0,0,1-6.728,4.592,23.2,23.2,0,0,1-3.791.32H30.041a12.613,12.613,0,0,1-5.767-1.068,9.673,9.673,0,0,1-5.554-7.156,20.267,20.267,0,0,1-.32-4V105.54a11.825,11.825,0,0,1,1.228-5.767,9.452,9.452,0,0,1,7-5.073,21.29,21.29,0,0,1,4.112-.267c3.685-.053,7.262-.053,10.84-.053ZM40.24,116.006a115.518,115.518,0,0,1-13.67-10.253,2.164,2.164,0,0,0,.267.481c2.243,2.99,4.592,5.874,7.1,8.651A64.6,64.6,0,0,0,42.483,123c.32.214.267.32-.053.481a12.536,12.536,0,0,1-5.073,1.6,19.882,19.882,0,0,1-12.816-3.257c-.427-.267-.854-.534-1.228-.8a1.6,1.6,0,0,0,.214.534,23.826,23.826,0,0,0,3.578,4.112,22.486,22.486,0,0,0,13.617,6.088,14.3,14.3,0,0,0,7.85-1.5,16.084,16.084,0,0,1,2.617-1.121,4.946,4.946,0,0,1,5.927,2.3c.107.16.107.481.374.374.214-.053.214-.32.267-.481a8.258,8.258,0,0,0-.053-2.563A12.819,12.819,0,0,0,55.139,123a.6.6,0,0,1-.107-.587,14.965,14.965,0,0,0-.107-8.117,22.537,22.537,0,0,0-9.131-12.549,3.185,3.185,0,0,0-1.121-.587,5.961,5.961,0,0,0,.534.854c2.83,4.379,4.112,9.078,2.83,14.311-.32,1.228-.374,1.282-1.442.587a107.8,107.8,0,0,1-14.2-11.374,6.417,6.417,0,0,0-1.549-1.388A125.413,125.413,0,0,0,40.24,116.006Z" fill="#f0523a"/>
    <path id="Path_2336" data-name="Path 2336" d="M131.881,130.63h1.762c.214,0,.32.053.374.267.481,2.456,2.136,3.791,4.379,4.539a10.333,10.333,0,0,0,6.355,0,5.274,5.274,0,0,0,3.418-2.884,4.061,4.061,0,0,0-1.709-5.18,14.1,14.1,0,0,0-4.325-1.6,38.055,38.055,0,0,1-6.782-2.029,7.208,7.208,0,0,1-4.379-4.432,8.056,8.056,0,0,1,3.151-9.238,12.843,12.843,0,0,1,8.01-2.083,11.457,11.457,0,0,1,6.3,1.869,8.264,8.264,0,0,1,3.9,6.408c.053.374-.053.534-.481.534-1.068-.053-2.136,0-3.257,0-.267,0-.427-.053-.481-.374a5.192,5.192,0,0,0-3.9-4.325,8.755,8.755,0,0,0-6.942.534,4.272,4.272,0,0,0-2.243,4.913,3.944,3.944,0,0,0,2.083,2.35,21.234,21.234,0,0,0,4.7,1.6,28.766,28.766,0,0,1,6.675,2.189,7.014,7.014,0,0,1,3.952,4.486c1.015,4.325-.641,8.437-5.02,10.253a15.447,15.447,0,0,1-12.229,0,8.628,8.628,0,0,1-5.5-7.316c-.053-.427.107-.481.427-.481Z" transform="translate(-51.857 -6.347)" fill="#040404"/>
    <path id="Path_2337" data-name="Path 2337" d="M260.2,130.548v8.918c0,.374-.053.481-.481.481a29.964,29.964,0,0,0-3.1,0c-.427,0-.534-.16-.534-.534V121.63c0-.481-.107-.587-.587-.587-.748.053-1.442,0-2.189,0-.267,0-.374-.053-.32-.32v-2.563c0-.32.107-.374.374-.374h1.869c.854,0,.854,0,.854-.908a18.06,18.06,0,0,1,.16-2.937,4.365,4.365,0,0,1,3.631-3.845,12.41,12.41,0,0,1,4.219-.107c.267.053.32.16.32.374v2.51c0,.32-.107.374-.374.32a8.084,8.084,0,0,0-1.6-.107,2.13,2.13,0,0,0-2.3,2.189c-.053.748,0,1.5-.053,2.243a.283.283,0,0,0,.32.32h7.049c.374,0,.32-.214.32-.427v-4.379c0-.374.107-.481.481-.481h3.151c.32,0,.481.053.427.427v4.379c0,.427.107.481.481.481,1.121-.053,2.243,0,3.364,0,.267,0,.427.053.427.374v2.563c0,.32-.107.374-.374.374h-3.524c-.267,0-.374.053-.374.374,0,4.325,0,8.6.053,12.923,0,1.5.961,2.35,2.563,2.4.427,0,.854-.053,1.282-.053.267,0,.374,0,.374.32v2.617c0,.267-.107.374-.32.374a12.343,12.343,0,0,1-4.432-.16,4.248,4.248,0,0,1-3.418-4.112c-.053-.694-.107-1.335-.107-2.029V121.737c0-.427-.107-.534-.534-.534-2.189.053-4.379,0-6.568,0-.481,0-.587.107-.587.587.053,2.83.053,5.767.053,8.758Z" transform="translate(-109.313 -7.226)" fill="#040404"/>
    <path id="Path_2338" data-name="Path 2338" d="M191.924,130.04c-.374,1.388-.8,2.723-1.175,4.112l-3.524,12.335c-.107.32-.214.374-.534.374h-3.364c-.32,0-.427-.107-.534-.427-.748-2.777-1.549-5.607-2.35-8.384-1.175-4.272-2.4-8.6-3.578-12.869-.107-.427,0-.481.374-.481h3.151c.267,0,.427.053.481.374,1.175,4.966,2.4,9.986,3.578,14.952a20.346,20.346,0,0,0,.694,2.4c.107-.267.16-.534.267-.8,1.5-5.447,2.99-10.947,4.432-16.394a.552.552,0,0,1,.641-.481c.961.053,1.976,0,2.937,0,.32,0,.481.053.587.427,1.388,5.126,2.83,10.306,4.219,15.433a8.2,8.2,0,0,0,.641,1.816l.641-2.563c1.175-4.859,2.35-9.772,3.524-14.632.107-.32.16-.481.587-.481a28.937,28.937,0,0,0,3.044,0c.374,0,.481.053.374.481-.961,3.364-1.869,6.782-2.83,10.146-1.015,3.685-2.029,7.316-3.044,11a.6.6,0,0,1-.748.534,28.932,28.932,0,0,0-3.044,0c-.374,0-.587-.053-.694-.481-1.5-5.287-3.044-10.627-4.539-15.913-.053-.16-.107-.267-.16-.427A.052.052,0,0,0,191.924,130.04Z" transform="translate(-73.827 -14.141)" fill="#040404"/>
    <path id="Path_2339" data-name="Path 2339" d="M239.352,135.689V125.223c0-.481.16-.587.587-.534,1.015.053,2.083,0,3.1,0,.32,0,.374.107.374.374v21.36c0,.267-.053.374-.374.374h-3.364c-.427,0-.374-.214-.374-.481C239.352,142.845,239.352,139.267,239.352,135.689Z" transform="translate(-102.938 -14.13)" fill="#020202"/>
    <path id="Path_2340" data-name="Path 2340" d="M241.056,113.906a2.439,2.439,0,0,1-2.456-2.4,2.393,2.393,0,0,1,2.4-2.4,2.4,2.4,0,1,1,.053,4.806Z" transform="translate(-102.614 -6.871)" fill="#040404"/>
    <path id="Path_2341" data-name="Path 2341" d="M44.528,121.945a125.419,125.419,0,0,1-9.4-11.855,6.416,6.416,0,0,1,1.549,1.388,107.8,107.8,0,0,0,14.2,11.374c1.068.694,1.121.694,1.442-.587,1.335-5.233,0-9.879-2.83-14.311a5.961,5.961,0,0,1-.534-.854,3.184,3.184,0,0,1,1.121.587,22.537,22.537,0,0,1,9.131,12.549,14.965,14.965,0,0,1,.107,8.117.6.6,0,0,0,.107.587,12.269,12.269,0,0,1,2.563,5.767,8.258,8.258,0,0,1,.053,2.563c-.053.214-.053.481-.267.481-.267.053-.267-.214-.374-.374a4.946,4.946,0,0,0-5.927-2.3,14.3,14.3,0,0,0-2.617,1.121,15.32,15.32,0,0,1-7.85,1.5,22.486,22.486,0,0,1-13.617-6.088,26.359,26.359,0,0,1-3.578-4.112,1.6,1.6,0,0,1-.214-.534c.427.267.854.534,1.228.8a19.882,19.882,0,0,0,12.816,3.257,14.1,14.1,0,0,0,5.073-1.6c.32-.16.32-.267.053-.481a61.462,61.462,0,0,1-8.544-8.117c-2.51-2.777-4.859-5.66-7.1-8.651a2.165,2.165,0,0,1-.267-.481A115.521,115.521,0,0,0,44.528,121.945Z" transform="translate(-4.287 -5.939)" fill="#fdfcfb"/>
  </g>
</svg>
