<svg xmlns="http://www.w3.org/2000/svg" width="155.686" height="50.713" viewBox="0 0 155.686 50.713">
  <g id="Tezos" transform="translate(-39.023 -128.37)">
    <path id="Path_1641" data-name="Path 1641" d="M67.35,140.77h-4.4c-3.318,0-6.669.034-9.986-.034-1.117-.034-1.557.2-1.523,1.456.068,4.705.034,9.411,0,14.116,0,4.807,2,6.195,6.432,4.4.474,1.489.237,2.1-1.083,2.81a7.419,7.419,0,0,1-10.968-6.195c-.169-5.01-.1-10.02-.068-15,0-1.286-.372-1.625-1.591-1.523-1.388.1-2.776,0-4.164.034-.677.034-1.083-.135-.948-.914a4.367,4.367,0,0,0,0-1.151c-.068-.677.135-.914.846-.88,1.557.068,3.114-.034,4.672.034.948.034,1.219-.3,1.185-1.185a27.921,27.921,0,0,0-.169-3.758,1.841,1.841,0,0,0-1.726-1.794c-.474-.034-.711-.2-.677-.711,0-.474.271-.542.643-.609,2.268-.474,4.57-.948,6.838-1.456.812-.2.711.339.711.779,0,2.4.068,4.841,0,7.244-.034,1.083.2,1.456,1.422,1.456,6.7-.068,13.405-.034,20.108-.034.406,0,.948-.237,1.151.237a1.6,1.6,0,0,1-.2,1.591,9.226,9.226,0,0,1-.779.846L62.813,150.79c-.237.237-.474.508-.779.846,1.117.508,2.133.982,3.182,1.489a21.129,21.129,0,0,1,8.023,6.4,11.909,11.909,0,0,1-5.687,18.246,21.262,21.262,0,0,1-13.372.44c-2.979-.88-5.247-2.607-5.924-5.856a3.654,3.654,0,0,1,4.435-4.536,2.972,2.972,0,0,1,2.437,2.234,2.744,2.744,0,0,1-1.083,3.317c-.982.609-.542,1.049.068,1.523a4.727,4.727,0,0,0,1.591.812,13.983,13.983,0,0,0,7.278.271,9.058,9.058,0,0,0,5.484-13.3c-2.268-3.758-5.823-5.789-9.919-6.974a6.087,6.087,0,0,1-.745-.2c-.609-.237-1.625.068-1.693-.779-.135-1.049-.339-2.133.677-3.114,3.318-3.216,6.533-6.533,9.783-9.817A1.341,1.341,0,0,0,67.35,140.77Z" transform="translate(0 0)" fill="#4267b1"/>
    <path id="Path_1642" data-name="Path 1642" d="M258.753,187.093c-2,0-3.961.034-5.958,0-.812-.034-.948.271-.711.982.643,1.963,1.76,3.521,3.893,3.927a5.066,5.066,0,0,0,5.382-2.031c.745-1.016,1.253-1.151,2.133-.237a14.474,14.474,0,0,0,2.167,1.625c.372.271.474.44.169.914a10.433,10.433,0,0,1-15.673,2.3c-2.674-2.37-3.622-5.484-3.656-8.937-.034-3.927.982-7.447,4.164-10.02A9.154,9.154,0,0,1,265.557,181a20.744,20.744,0,0,1,.237,5.01c-.034.745-.3,1.049-1.083,1.049-1.963-.034-3.961,0-5.958.034Zm-6.364-5.179h7.921c-.576-2.234-1.659-3.25-3.453-3.318C254.691,178.494,253.3,179.51,252.389,181.913Z" transform="translate(-137.24 -29.837)" fill="#4267b1"/>
    <path id="Path_1643" data-name="Path 1643" d="M460.407,182.671a.745.745,0,0,0-.271.034,3.186,3.186,0,0,1-1.862-.169,2.26,2.26,0,0,1-.846-1.591c-.474-2.742-5.044-2.64-6.3-1.388a1.3,1.3,0,0,0,.542,2.234c2.2.779,4.435,1.388,6.635,2.167a6.507,6.507,0,0,1,3.25,10.189,6.672,6.672,0,0,1-3.351,2.336,12.332,12.332,0,0,1-8.869-.169,7.691,7.691,0,0,1-4.841-7.447c0-.44.135-.609.576-.609.643,0,1.286-.1,1.93-.1,2.336-.1,2.336-.1,3.148,2.065a2.41,2.41,0,0,0,1.456,1.523,5.9,5.9,0,0,0,4.164.169c.813-.271,1.659-.609,1.693-1.693.034-1.016-.677-1.422-1.456-1.76A30.211,30.211,0,0,0,451.2,187a9.058,9.058,0,0,1-4.1-2.065,6.167,6.167,0,0,1-.2-8.531c3.318-3.622,10.562-3.69,13.981-.135,1.523,1.591,1.862,3.622,2,5.721.034.44-.135.609-.576.609C461.727,182.6,461.084,182.637,460.407,182.671Z" transform="translate(-268.211 -29.951)" fill="#4267b1"/>
    <path id="Path_1644" data-name="Path 1644" d="M375.4,185.332c0-3.351.812-6.432,3.25-8.869,3.047-3.013,6.7-3.588,10.663-2.268,4.062,1.354,6.06,4.536,6.7,8.6a14.632,14.632,0,0,1-.44,7.041c-1.625,4.909-5.349,7.481-10.63,7.244-4.435-.2-8.091-3.487-9.174-8.158A18.452,18.452,0,0,1,375.4,185.332Zm15.437.1a8.517,8.517,0,0,0-1.016-4.468,4.52,4.52,0,0,0-7.955-.068,8.983,8.983,0,0,0,0,8.9,4.154,4.154,0,0,0,4.062,2.3,4.442,4.442,0,0,0,4.062-2.539A9.045,9.045,0,0,0,390.837,185.433Z" transform="translate(-222.506 -29.87)" fill="#4267b1"/>
    <path id="Path_1645" data-name="Path 1645" d="M319.952,191.949c3.351,0,6.567.034,9.817,0,.812,0,1.151.169,1.151,1.049,0,1.286.576,2.911-.169,3.758-.711.812-2.336.271-3.588.271-4.536.034-9.072-.034-13.609.034-1.117,0-1.354-.339-1.354-1.388a6.831,6.831,0,0,1,1.32-4.232c2.776-3.791,5.518-7.617,8.26-11.442.271-.372.508-.779.914-1.354h-7.651c-2.336,0-2.336-.034-2.336-2.37,0-2.708,0-2.742,2.64-2.742,4.5-.034,8.971,0,13.473-.034.88,0,1.185.237,1.286,1.117a6.254,6.254,0,0,1-1.219,4.6c-2.81,3.758-5.518,7.617-8.26,11.442A2.887,2.887,0,0,0,319.952,191.949Z" transform="translate(-180.701 -29.853)" fill="#4267b1"/>
    <path id="Path_1646" data-name="Path 1646" d="M184.315,173.465c0,3.622-.068,7.244.034,10.867.034,1.117-.339,1.388-1.388,1.286a14.6,14.6,0,0,0-2.979,0c-1.083.1-1.151-.372-1.151-1.253.034-7.278,0-14.59.068-21.868,0-1.185-.339-1.422-1.456-1.388-2.2.1-4.4,0-6.6.034-.745,0-.982-.237-.948-.948.034-1.049.034-2.065,0-3.114-.034-.677.237-.88.914-.88q10.765.051,21.53,0c.745,0,1.016.2.948.948a21.877,21.877,0,0,0,0,2.979c.034.779-.2,1.049-1.016,1.016-2.3-.068-4.57,0-6.872-.034-.812-.034-1.083.2-1.083,1.049C184.349,165.983,184.315,169.741,184.315,173.465Z" transform="translate(-86.566 -18.409)" fill="#4267b1"/>
  </g>
</svg>
