<svg xmlns="http://www.w3.org/2000/svg" width="147.422" height="44.841" viewBox="0 0 147.422 44.841">
  <g id="Tron" transform="translate(-84.667 -205.162)">
    <path id="Path_1647" data-name="Path 1647" d="M85.325,205.174c1.327.129,2.817.324,4.274.583,2.558.388,5.115.809,7.641,1.23,2.622.453,5.277.907,7.9,1.392,3.464.615,6.9,1.263,10.36,1.878,1.23.227,2.428.453,3.659.648a.772.772,0,0,1,.356.194c2.881,2.849,5.731,5.731,8.515,8.645a.212.212,0,0,1,0,.356c-5.731,6.929-11.364,13.922-17.16,20.786-2.363,2.784-4.727,5.6-7.22,8.256-.259.259-.518.486-.777.745-.162.194-.291.13-.421-.065-.453-.777-.842-1.619-1.23-2.461-2.428-5.407-4.662-10.878-6.9-16.382q-4.517-11.073-8.612-22.307c-.356-1-.712-2.04-1.036-3.076C84.646,205.142,84.646,205.142,85.325,205.174Zm16.868,36h.065l.194-1.263c.356-2.234.648-4.468.939-6.734.227-1.975.453-3.918.68-5.893.13-1.23.259-2.428.324-3.659,0-.194,0-.324-.162-.453-2.04-1.651-4.112-3.3-6.152-4.986-2.137-1.748-4.241-3.529-6.443-5.18a7.74,7.74,0,0,0-.68-.421c-.065-.032-.162-.1-.259,0-.065.065-.032.162,0,.227.065.194.13.356.194.518,1.036,2.59,2.1,5.18,3.141,7.738,2.558,6.378,5.083,12.789,7.77,19.134C101.9,240.53,102.064,240.853,102.194,241.177Zm3.788.259c.129-.065.194-.194.291-.291,3.4-4.047,6.734-8.159,10.1-12.238,1.651-2.007,3.3-4.047,4.856-6.152a.947.947,0,0,0,.227-.389,5.065,5.065,0,0,0-1,.065c-1.489.194-2.979.421-4.436.68-2.558.421-5.148.842-7.673,1.392a.592.592,0,0,0-.55.55c-.421,2.169-.712,4.338-1,6.508-.259,2.007-.518,4.047-.745,6.054a15.193,15.193,0,0,0-.194,2.979A1.1,1.1,0,0,0,105.982,241.436Zm-12.206-31.7a2.543,2.543,0,0,0,.486.615c2.137,2.137,4.436,4.112,6.734,6.054,1.425,1.2,2.849,2.4,4.371,3.464.518.356.55.356,1.068,0a51.485,51.485,0,0,0,6.8-5.633,8.492,8.492,0,0,0,.712-.809c.162-.259.129-.291-.162-.356-2.914-.615-5.828-1.1-8.774-1.586-2.979-.518-5.99-1-8.968-1.457C95.33,209.934,94.585,209.8,93.776,209.74Zm28.686,9c-.842-.874-1.684-1.716-2.493-2.558a4.73,4.73,0,0,0-.615-.518,1.664,1.664,0,0,0-1.878-.194,11.7,11.7,0,0,0-1.068.648c-1.036.777-2.007,1.651-2.979,2.493a12.252,12.252,0,0,0-1.748,1.684c-.1.1-.227.227-.13.356s.259.032.389.032h.032c2.687-.55,5.375-.971,8.062-1.489C120.842,219.032,121.652,218.87,122.461,218.74Z" transform="translate(0 0)" fill="#d62327"/>
    <path id="Path_1648" data-name="Path 1648" d="M318.2,249.6v-9.875c0-.162-.032-.324.259-.324,3.238.032,6.475-.032,9.713.032a54.877,54.877,0,0,1,5.633.389,3.094,3.094,0,0,1,2.072,1.068,8.691,8.691,0,0,1,2.3,4.954,6.6,6.6,0,0,1-1.684,4.824c-.68.842-1.425,1.651-2.137,2.428a.317.317,0,0,0-.065.453c1.3,2.461,2.59,4.954,3.691,7.511a1.576,1.576,0,0,1,.1.227c.194.486.162.55-.389.648a2.616,2.616,0,0,1-2.881-1.1,26.411,26.411,0,0,1-2.007-3.3c-.55-.971-1.068-1.975-1.684-2.914a2.638,2.638,0,0,0-2.331-1.23c-.971,0-1.943,0-2.914-.032-.227,0-.259.065-.259.291v5.18a10.387,10.387,0,0,1-.162,2.234,1.206,1.206,0,0,1-1.813.809.838.838,0,0,1-.388-.55,6.441,6.441,0,0,1-.227-1.554c-.1-2.882-.032-5.763-.065-8.645,0-.194.065-.227.227-.227,2.266-.162,4.533-.259,6.8-.486a17.444,17.444,0,0,0,2.266-.389,3.922,3.922,0,0,0,2.881-2.655,2.665,2.665,0,0,0-.389-2.72,9.23,9.23,0,0,0-1.327-1.425,4.473,4.473,0,0,0-2.817-1c-2.266-.162-4.533-.1-6.8-.1h-2.558c-.194,0-.259.032-.259.259v2.72c-.032,4.5.065,9-.065,13.5a14,14,0,0,1-.227,2.59c-.194.874-.55.971-1.392.874a.687.687,0,0,1-.583-.55,5.956,5.956,0,0,1-.259-1.36c-.162-1.975-.129-3.95-.162-5.925-.1-1.619-.1-3.108-.1-4.63Z" transform="translate(-157.921 -23.153)" fill="#d62327"/>
    <path id="Path_1649" data-name="Path 1649" d="M480.713,233.1c5.5,5.893,10.619,12.044,15.962,18.066,0-.227.032-.389.032-.583.1-3.594.162-7.22.259-10.814a22.82,22.82,0,0,1,.291-3.626c.032-.129.065-.227.1-.356.194-.55.421-.68,1.068-.68.486,0,.712.162.874.712a10.991,10.991,0,0,1,.291,2.525c.162,6.67.1,13.371,0,20.041a6.055,6.055,0,0,1-.13,1.3c-5.5-6.054-10.717-12.3-16.026-18.487-.1.065-.065.162-.065.227-.065,3.205-.162,6.443-.227,9.648-.032,1.651-.065,3.27-.227,4.921a5.825,5.825,0,0,1-.194,1.036c-.162.55-.421.712-1.068.712-.518,0-.745-.162-.907-.712a6.731,6.731,0,0,1-.227-1.619c-.129-2.04-.129-4.047-.129-6.087,0-4.177-.032-8.353.065-12.53.032-1.068.065-2.137.129-3.205A.994.994,0,0,1,480.713,233.1Z" transform="translate(-267.598 -18.892)" fill="#d62327"/>
    <path id="Path_1650" data-name="Path 1650" d="M417.339,250.9a11.124,11.124,0,0,1-2.461,6.929,10.824,10.824,0,0,1-5.375,3.367,11.061,11.061,0,0,1-9.778-1.457,11.188,11.188,0,0,1-.648-17.9,10.53,10.53,0,0,1,5.407-2.2,11.4,11.4,0,0,1,5.8.583,10.893,10.893,0,0,1,6.864,8.256A17.176,17.176,0,0,1,417.339,250.9ZM405.975,258.6a10.6,10.6,0,0,0,1.748-.13,7.234,7.234,0,0,0,4.824-2.752,7.918,7.918,0,0,0,1.392-7.867,8.44,8.44,0,0,0-9.519-5.31,7.923,7.923,0,0,0-5.634,4.112,8.45,8.45,0,0,0-.809,4.63,7.732,7.732,0,0,0,8,7.317Z" transform="translate(-209.793 -23.22)" fill="#d62327"/>
    <path id="Path_1651" data-name="Path 1651" d="M252.208,242.055c-2.363-.032-4.759.032-7.123-.065a14.553,14.553,0,0,1-2.04-.227c-.842-.194-.907-.842-.68-1.586.1-.291.421-.389.68-.453a8.222,8.222,0,0,1,1.975-.227q7.188-.194,14.375,0a9.981,9.981,0,0,1,1.975.227,1.05,1.05,0,0,1,.712,1.554.849.849,0,0,1-.647.453,8.857,8.857,0,0,1-2.072.259C256.967,242.087,254.6,242.055,252.208,242.055Z" transform="translate(-106.565 -23.153)" fill="#d62327"/>
    <path id="Path_1652" data-name="Path 1652" d="M275.166,267.865c0-1.878-.065-3.788.065-5.666a7.5,7.5,0,0,1,.194-1.457.914.914,0,0,1,1.068-.842c.647,0,.939.194,1.068.842a13.161,13.161,0,0,1,.227,2.752c.032,3.3.065,6.6-.032,9.907a12.637,12.637,0,0,1-.162,1.554c-.194.939-.907,1-1.684.745-.324-.1-.389-.421-.453-.712a14.1,14.1,0,0,1-.227-2.849C275.134,270.746,275.166,269.289,275.166,267.865Z" transform="translate(-128.811 -37.016)" fill="#d62327"/>
    <path id="Path_1653" data-name="Path 1653" d="M265.387,267.979c-.032,1.91.032,3.788-.1,5.7a7.177,7.177,0,0,1-.194,1.425c-.162.648-.388.842-1.068.842-.648,0-.939-.194-1.068-.842a13.289,13.289,0,0,1-.227-2.784c-.032-3.27-.065-6.54.032-9.81.032-.55.1-1.068.162-1.587.162-1,1-1,1.684-.777.227.065.324.324.388.518a6.732,6.732,0,0,1,.227,1.619C265.387,264.159,265.355,266.069,265.387,267.979Z" transform="translate(-120.392 -37.098)" fill="#d62327"/>
    <path id="Path_1654" data-name="Path 1654" d="M495.237,285.122a23.429,23.429,0,0,1-.129,3.367c0,.065-.032.13-.032.194-.162.939-.486,1.166-1.619,1.036a.806.806,0,0,1-.648-.55,5.247,5.247,0,0,1-.227-1.425,57.667,57.667,0,0,1,.032-5.8,3.034,3.034,0,0,1,.194-.907.8.8,0,0,1,.712-.55.292.292,0,0,0,.162-.032c.842-.1,1.2.162,1.36,1a15.342,15.342,0,0,1,.162,2.72A9.106,9.106,0,0,1,495.237,285.122Z" transform="translate(-275.808 -50.906)" fill="#d62327"/>
    <path id="Path_1655" data-name="Path 1655" d="M424.9,269.932a6.276,6.276,0,0,1,.065-.777.969.969,0,0,1,.842-.906,5.279,5.279,0,0,1,1.748,0,.616.616,0,0,1,.583.648c.1,1.813-.874,2.558-2.493,2.493a.706.706,0,0,1-.68-.68C424.932,270.449,424.932,270.19,424.9,269.932Z" transform="translate(-230.077 -42.611)" fill="#d62327"/>
  </g>
</svg>
