<svg xmlns="http://www.w3.org/2000/svg" width="42.013" height="42.013" viewBox="0 0 42.013 42.013">
  <path id="Type_Script" data-name="Type Script" d="M101.913,52.4V94.176c0,.194-.043.237-.237.237H59.9V52.723c0-.258.065-.323.323-.323ZM92.142,91.012a7.467,7.467,0,0,0,2.2-.215,6.129,6.129,0,0,0,3.121-1.808,5.62,5.62,0,0,0-1.076-7.921A19.511,19.511,0,0,0,92.809,79.2a9.54,9.54,0,0,1-2.023-1.055,1.73,1.73,0,0,1,.194-2.927,2.6,2.6,0,0,1,2.69.43,4.694,4.694,0,0,1,.646.818c.108.151.194.172.366.065.732-.5,1.464-.969,2.2-1.464.6-.409.6-.409.172-.99a5.443,5.443,0,0,0-2.97-2.2,8.995,8.995,0,0,0-2.733-.237A5.336,5.336,0,0,0,87.9,72.976a5.211,5.211,0,0,0-1.485,5.488,5.109,5.109,0,0,0,2.432,3.121,20.953,20.953,0,0,0,3.035,1.507,12.933,12.933,0,0,1,2.023,1.055,1.8,1.8,0,0,1-.151,3.056,3.451,3.451,0,0,1-1.291.387,3.938,3.938,0,0,1-2.949-.818,6.052,6.052,0,0,1-1.205-1.356c-.065-.086-.086-.194-.258-.108-.947.56-1.916,1.119-2.884,1.657-.129.086-.151.151-.086.28a7,7,0,0,0,2.2,2.432A8.363,8.363,0,0,0,92.142,91.012Zm-17.5-7.985V90.56c0,.194.043.258.237.258,1.1-.022,2.2-.022,3.315,0,.28,0,.323-.065.323-.323V75.559c0-.215.043-.28.258-.28h4.972c.194,0,.258-.043.258-.237-.022-.99-.043-1.98-.043-2.97,0-.194-.065-.237-.237-.237H69.456c-.215,0-.237.065-.237.258,0,.969,0,1.916-.022,2.884,0,.258.065.3.3.3,1.636,0,3.25,0,4.886-.022.258,0,.3.086.28.3C74.643,78.056,74.643,80.531,74.643,83.027Z" transform="translate(-59.9 -52.4)" fill="#007acb"/>
</svg>
