<svg xmlns="http://www.w3.org/2000/svg" width="112.839" height="42.468" viewBox="0 0 112.839 42.468">
  <g id="vue" transform="translate(-6.2 -86.675)">
    <path id="Path_1367" data-name="Path 1367" d="M45.331,86.9h9.907c-8.186,14.153-16.295,28.153-24.519,42.382C22.533,115.129,14.424,101.091,6.2,86.9h9.831l.115.229q7,12.106,13.962,24.251c.421.727.65.88,1.148.038,2.066-3.634,4.208-7.268,6.311-10.9,2.563-4.437,5.087-8.912,7.612-13.388A.8.8,0,0,0,45.331,86.9Z" transform="translate(0 -0.139)" fill="#01bc82"/>
    <path id="Path_1368" data-name="Path 1368" d="M61.332,86.991c-2.525,4.475-5.087,8.912-7.612,13.388l-6.311,10.9c-.5.842-.727.727-1.148-.038-4.628-8.071-9.295-16.18-13.962-24.251.191,0,.344-.038.421-.229q4.131-.172,8.262,0c.077.076.191.153.268.229,1.836,3.1,3.672,6.158,5.47,9.257.459-.038.5-.421.65-.689,1.568-2.639,3.137-5.317,4.667-7.994.268-.459.421-.918,1.109-.88,2.639.038,5.317.076,7.956.076Z" transform="translate(-16.116)" fill="#3f5568"/>
    <path id="Path_1369" data-name="Path 1369" d="M149.519,124.618c1.492-5.126,3.022-10.251,4.514-15.377.23-.8.459-1.53,1.568-1.071a.946.946,0,0,1,.65,1.3q-2.754,8.836-5.432,17.672a1.387,1.387,0,0,1-1.568,1.033,1.324,1.324,0,0,1-1.377-1.109c-1.8-5.852-3.6-11.7-5.432-17.519-.23-.689-.077-1.148.689-1.377s1.186-.038,1.415.765c1.415,4.858,2.869,9.677,4.322,14.535.115.383.23.8.383,1.186A.747.747,0,0,1,149.519,124.618Z" transform="translate(-84.068 -13.185)" fill="#2c4255"/>
    <path id="Path_1370" data-name="Path 1370" d="M223.261,133.209c-.8,0-1.645.077-2.448,0-.995-.115-1.262.23-1.186,1.224.268,2.486,3.137,3.9,5.776,2.792a5.411,5.411,0,0,0,.918-.5c.459-.268.88-.344,1.224.153.383.536.153.956-.306,1.339a5.263,5.263,0,0,1-2.486.995c-4.475.765-7.382-1.645-7.382-6.158a10.137,10.137,0,0,1,.23-3.213,5.44,5.44,0,0,1,6.005-3.749,4.957,4.957,0,0,1,4.437,5.126c-.038,1.415-.574,1.951-1.951,1.989-.956.038-1.913.038-2.831,0Zm-.689-1.339h0c.8,0,1.607,0,2.448-.038.842,0,1.109-.459,1.033-1.262a3.216,3.216,0,0,0-3.137-2.831,3.11,3.11,0,0,0-3.29,2.6c-.268,1.377-.153,1.53,1.3,1.53Z" transform="translate(-130.384 -24.3)" fill="#2c4255"/>
    <path id="Path_1371" data-name="Path 1371" d="M192.849,131.1c0,1.071.038,2.142,0,3.213a5.444,5.444,0,0,1-5.279,5.279,5.367,5.367,0,0,1-5.432-5.126c-.077-2.257,0-4.552-.038-6.809,0-.727.268-1.186,1.033-1.186s1.148.383,1.148,1.186v6.426a3.275,3.275,0,0,0,3.137,3.519,3.358,3.358,0,0,0,3.29-3.557q.057-3.156,0-6.311c0-.842.23-1.339,1.148-1.339.88,0,1.033.574.995,1.3C192.81,128.886,192.849,130,192.849,131.1Z" transform="translate(-108.617 -24.53)" fill="#2c4255"/>
    <path id="Path_1372" data-name="Path 1372" d="M281.94,139.344a6.817,6.817,0,0,1-3.672-1.071c-.5-.383-.88-.88-.459-1.53.5-.765.956-.23,1.415.077a4.76,4.76,0,0,0,3.29.765c1.033-.077,1.951-.383,2.142-1.492.191-1.148-.5-1.836-1.53-2.257-.8-.306-1.607-.536-2.448-.842-2.142-.727-2.831-1.721-2.716-3.634.153-1.721,1.3-2.869,3.29-3.251a6.651,6.651,0,0,1,4.131.536c.535.23.995.536.65,1.262-.306.689-.765.689-1.377.383a4.7,4.7,0,0,0-2.869-.5,2.014,2.014,0,0,0-1.951,1.721c-.153,1.071.574,1.53,1.454,1.836.65.229,1.3.383,1.951.612,2.448.765,3.634,2.3,3.366,4.208C286.377,138.158,284.579,139.382,281.94,139.344Z" transform="translate(-167.604 -24.277)" fill="#2c4255"/>
    <path id="Path_1373" data-name="Path 1373" d="M263.006,134.671c0,2.257.038,4.552,0,6.809-.077,2.41-1.148,3.863-2.984,4.246-.689.153-1.454.268-1.721-.612-.268-.918.383-1.148,1.186-1.224a1.384,1.384,0,0,0,1.148-1.071,6.037,6.037,0,0,0,.268-2.027v-12.7c0-.8.038-1.492,1.109-1.492,1.071.038,1.071.765,1.033,1.53-.038,2.142,0,4.361-.038,6.541Z" transform="translate(-155.632 -24.653)" fill="#283f52"/>
    <path id="Path_1374" data-name="Path 1374" d="M253.616,154.877a1.333,1.333,0,0,1-1.454,1.339,1.36,1.36,0,0,1,.077-2.716A1.348,1.348,0,0,1,253.616,154.877Z" transform="translate(-151.1 -41.264)" fill="#2c4255"/>
    <path id="Path_1375" data-name="Path 1375" d="M265.9,112.81c-.8-.038-1.339-.383-1.3-1.224,0-.842.574-1.186,1.339-1.186a1.157,1.157,0,0,1,1.262,1.148A1.2,1.2,0,0,1,265.9,112.81Z" transform="translate(-159.556 -14.65)" fill="#2c4255"/>
    <path id="Path_1376" data-name="Path 1376" d="M32.536,86.9a.412.412,0,0,1-.421.229L32,86.9Z" transform="translate(-15.931 -0.139)" fill="#2c4255"/>
    <path id="Path_1377" data-name="Path 1377" d="M55.268,87.218c-.077-.077-.191-.153-.268-.23C55.191,86.95,55.268,87.065,55.268,87.218Z" transform="translate(-30.134 -0.189)" fill="#2c4255"/>
    <path id="Path_1378" data-name="Path 1378" d="M107.829,87.13,107.6,86.9h.344Z" transform="translate(-62.614 -0.139)" fill="#2c4255"/>
  </g>
</svg>
