<?xml version="1.0" encoding="utf-8"?>
<!-- Generator: Adobe Illustrator 26.1.0, SVG Export Plug-In . SVG Version: 6.00 Build 0)  -->
<svg version="1.1" id="svg2816" xmlns:svg="http://www.w3.org/2000/svg"
	 xmlns="http://www.w3.org/2000/svg" xmlns:xlink="http://www.w3.org/1999/xlink" x="0px" y="0px" viewBox="0 0 315 300"
	 style="enable-background:new 0 0 315 300;" xml:space="preserve">
<style type="text/css">
	.st0{fill:#040404;}
</style>
<path class="st0" d="M201.5,195.4c-6.5,0.1-13-0.2-19.5,0.3c-6.9,0.5-8.8-2.8-8.7-9c0.2-20.9,0-41.7,0.1-62.6
	c0.1-23.5-2.5-19.5,19.9-19.7c21.9-0.2,43.8-0.1,65.7,0c19.1,0.1,26.8,8,26.9,27.1c0,4.6,0.2,9.2-0.4,13.6c-1,7.4-6,11.7-14.8,14.7
	c9.2,2.2,13.8,7,14.6,14.4c0.7,6.6,0.4,13.4,0.3,20.1c0,1.5-1.8,1.2-2.8,1.6c-6.3,0-12.5,0-18.8,0c-1-0.1-1.9-0.1-2.9-0.2
	c-5.7-2.2-4.6-7.1-4.2-11.3c0.6-7.1-1.5-11.8-12-12.4c-12.7-0.7-25.4,0-38.1-0.3c-3.9-0.1-5.6,0.9-5.3,5.1
	C201.7,182.9,201.5,189.2,201.5,195.4z M227.3,126.6C227.3,126.6,227.3,126.5,227.3,126.6c-2.9-0.1-5.8-0.1-8.6-0.1
	c-18.2,0-18,0-17.3,18.3c0.2,4.1,1.7,4.6,5.2,4.6c13.9-0.2,27.9,0,41.8-0.1c8-0.1,10.7-2.9,10.8-10.9c0.2-8.1-2.4-11.3-10.2-11.7
	C241.7,126.3,234.5,126.6,227.3,126.6z"/>
<path class="st0" d="M29.1,104.3c9.1,0,16.8,0.5,24.5-0.1c5.6-0.4,8.1,2.2,10.4,6.6c10.8,20.5,21.7,40.9,32.7,61.4
	c0.3,0.6,1,0.9,2.1,1.8c11.3-22.4,22.7-44.6,33.6-66.9c1.2-2.4,2.5-2.6,4.2-2.6c8.2-0.1,16.4,0,24.6-0.1c3.8-0.1,4,1.2,2.3,4.2
	c-15.3,28-30.5,56.1-45.7,84.2c-1.4,2.6-3.1,3.1-5.8,3c-9.6-0.1-19.3-0.1-28.9,0c-2.3,0-3.9-0.5-5.2-2.8
	C61.9,163.7,45.7,134.5,29.1,104.3z"/>
</svg>
