<?xml version="1.0" encoding="utf-8"?>
<!-- Generator: Adobe Illustrator 26.1.0, SVG Export Plug-In . SVG Version: 6.00 Build 0)  -->
<svg version="1.1" id="svg2816" xmlns:svg="http://www.w3.org/2000/svg"
	 xmlns="http://www.w3.org/2000/svg" xmlns:xlink="http://www.w3.org/1999/xlink" x="0px" y="0px" viewBox="0 0 315 300"
	 style="enable-background:new 0 0 315 300;" xml:space="preserve">
<g>
	<path d="M116.7,179.8c-1.1,1.3-2.9,1.1-4.4,1c-7.4-0.6-14.8-0.7-22.2-0.6c-3.7,0-7.4,0.1-11.1,0.2c-3.2,0.1-7,0.7-10.2,0.1
		c-1.1-0.2-0.8-1.5-0.6-2.2c4.7-16.8,9.4-33.6,14-50.4c0.4-1.5,1-1.7,2.4-1.7c10.2,0,20.3,0.1,30.5,0c1.6,0,2.3,0.4,2.1,2.1
		c-0.1,1.4-0.1,2.9,0,4.3c0.2,3.2,0.4,5.8-4,6.8c-3.6,0.8-5.3,4.3-5.4,8.1c-0.1,4.3-0.1,8.6,0,12.8c0.1,4.8,3,8.1,7.8,9.2
		c1.3,0.3,1.8,0.7,1.7,2C117.1,174.2,118.2,178,116.7,179.8z"/>
	<path d="M237.9,202.7c0.2,2.3-1.6,4.1-4.2,4.2c-3.9,0.1-7.8,0-11.7-0.1h-11.3c-19.3,0-38.6,0-57.8,0h-3c-11.6,0-23.2,0.1-34.7,0.1
		c-11.1,0-22.3,0-33.4,0c-1.4,0-2.7,0-3.8-1c-2.2-2-1.5-5.6,1.3-6.5c0.7-0.2,1.6-0.3,2.4-0.3c17.6,0,35.3,0,52.9,0
		c17.5,0,34.9,0,52.4,0c8.9,0,17.8,0,26.7,0c4.4,0,8.9,0,13.3,0c2.5,0,5.1-0.4,7.6,0.2C236.3,199.7,237.7,200.8,237.9,202.7z"/>
	<path d="M144.6,103.6c-0.3,0.1-0.5,0.2-0.7,0.4c-1.8,1-3.5,2.6-5.4,2.8c-2.1,0.2-2.7-2.6-4.2-3.9c-7.2-6.3-18.2-5.3-24.1,2.4
		c-1.1,1.5-1.9,2-3.5,0.8c-1.4-1-3-1.9-4.7-2.6c-1.5-0.7-1.7-1.4-0.7-2.7c5.4-7.5,12.5-11.7,21.8-11.8c9.4,0.1,16.7,4.2,22.1,11.8
		C146.4,102.3,146.2,103,144.6,103.6z"/>
	<path d="M195.5,233.1c-0.3-0.3-0.1-0.5,0.1-0.6c2.5-3,1-6.5,1-9.7c0-2.2-1.6-3.5-3.9-3.6c-2.6-0.1-5.2,0-7.7-0.1
		c-1.7-0.1-2.1,0.6-2,2.2c0.1,3.9,0,7.8,0,11.7c0,3.9,0,7.8,0,11.7c0,1.1,0,1.9,1.5,1.9c2.7-0.1,5.3,0.1,8-0.1
		c2.5-0.1,4.3-1.5,4.2-4C196.6,239.3,198.1,235.9,195.5,233.1z M187.7,227c0.5-1.3-1.3-3.4,1.9-3.5c3.1-0.1,2.5,1.9,2.5,3.8
		c-0.3,1.1,0.9,3-1.7,3.2c-1.8,0.1-3.2,0-2.7-2.4C187.8,227.7,187.6,227.3,187.7,227z M189.7,242c-3.2,0-1.4-2.3-2.1-3.4
		c0.7-1.3-1.1-3.6,2.1-3.7c3.2,0,2.4,2.1,2.5,3.8C192.2,240.4,192.4,242,189.7,242z"/>
	<path d="M179.7,244.8c-1.7-8.1-3.5-16.1-5.2-24.2c-0.3-1.7-1.5-1.6-2.6-1.5c-1.4,0.1-3.3-0.9-3.8,1.3c-1.9,8.2-3.6,16.5-5.4,24.7
		c-0.1,0.6-0.3,1.2,0.6,1.4c2.3,0.6,3.9-0.2,4.2-2.6c0.3-2.2,1-3.6,3.7-2.7c2.8-1.2,3.4,0.7,3.6,3c0,0.4,0.1,0.9,0.2,1.3
		c0.8,1.9,2.5,0.8,3.7,1C180.2,246.6,179.8,245.5,179.7,244.8z M171.9,236.9c-0.9-0.2-2.8,0.8-2.7-0.9c0.2-2.9,1-5.8,1.6-8.7
		c0.2,0,0.5,0,0.7,0c0.5,2.8,1,5.5,1.6,8.3C173.4,236.9,172.8,237.1,171.9,236.9z"/>
	<path d="M142.8,244.3c-1.8-7.8-3.5-15.6-5.1-23.4c-0.3-1.4-0.9-2-2.3-1.8c-1.5,0.2-3.7-0.8-4.2,1.7c-1.8,8.1-3.5,16.3-5.3,24.5
		c-0.1,0.5-0.3,1,0.4,1.3c1.8,0.9,4-0.3,4.5-2.3c0.3-1-0.3-2.7,1.1-3c1.6-0.3,3.4-0.4,5,0c1.1,0.3,0.9,2,1.1,3
		c0.2,1.7,0.8,2.7,2.7,2.2C142.6,246.9,143.3,246.3,142.8,244.3z M136,236.9c-1,0.1-2.1,0.2-3.2,0c-0.8-0.1-0.3-0.9-0.2-1.3
		c0.5-2.9,1.1-5.8,1.6-8.8c0.2,0,0.4,0,0.5,0c0.6,2.9,1.1,5.8,1.7,8.8C136.4,236,136.7,236.8,136,236.9z"/>
	<path d="M230.9,244.8c-0.1,1.3-0.5,1.7-1.8,1.7c-3.5-0.1-6.9-0.1-10.4,0c-1.3,0-1.7-0.4-1.7-1.7c0-8.1,0.1-16.2,0-24.3
		c0-1.4,0.6-1.6,1.8-1.6c3.4,0,6.8,0.1,10.2,0c1.9-0.1,1.9,1,1.9,2.4c0,1.3,0,2.5-1.9,2.3c-0.9-0.1-1.8,0-2.7,0
		c-4.9,0-5.4,0.7-4.6,5.7c0.2,0.9,0.5,1.2,1.4,1.2c1.4,0,2.8,0,4.3,0c0.7,0,1.5,0,1.4,1.1c-0.2,0.1-0.3,0.3-0.4,0.4
		c0.1,0.1,0.3,0.2,0.4,0.2v1c-0.1,0.1-0.3,0.2-0.4,0.4c0.2,0.1,0.3,0.1,0.4,0.2c0.3,0.9-0.1,1.4-1,1.4c-0.9,0-1.8,0.1-2.7,0
		c-2.8-0.5-3.4,0.8-3.4,3.5c0,2.7,0.6,3.9,3.5,3.4c1-0.2,2,0.1,2.9,0C230.5,241.4,231.1,242.6,230.9,244.8z"/>
	<path d="M129,154.2c-0.1,3.1-2.6,5.5-5.7,5.4c-3.1-0.1-5.5-2.5-5.5-5.7c0-3.1,2.6-5.5,5.7-5.4C126.6,148.6,129,151.1,129,154.2z"/>
	<path d="M241.4,146.7c-1.2,1.1-1.3,1.8-0.6,3.3c2.7,5.8,0.9,12.2-4.5,16c-1.3,0.9-1.4,1.5-0.9,2.9c3,8.2-2.7,17.1-11.2,17.2
		c-14.8,0.1-29.5,0.6-44.2-1.1c-3.3-0.4-6.7-0.8-9.9-2c-0.5-0.1-1-0.2-1.6-0.3c-2-0.4-4-0.8-6-1.2c-0.5-0.1-1-0.2-1.5-0.3
		c-9.3-1.4-18.7-0.6-28-0.8c-3.4-0.1-3.4,0-3.4-3.6c0-0.6,0.1-1.3,0-1.9c-0.4-3.2-0.2-5.6,4-6.6c3.6-0.9,5.4-4.3,5.5-8.1
		c0.1-4.3,0.1-8.6,0-12.8c-0.1-4.6-3-8.1-7.5-9.1c-1.5-0.3-2.1-0.7-2-2.3c0.2-2.7,0.1-5.4,0-8c-0.1-1.5,0.5-1.9,2-2
		c5.5-0.1,11,0.6,16.5-0.9c4.5-1.2,8.8-2.9,12.1-6.4c1.7-1.8,3-3.8,3.6-6.2c2.5-10.2,8.1-18.7,15.3-26.3c5.4-5.7,9.9-12,11.2-20
		c0.3-1.9,0.2-3.9,0.4-5.8c0.6-6.5,5.1-8.9,10.9-6c7.4,3.8,10.8,11.4,9.7,21.1c-0.8,7.3-2.9,14.1-7,20.2c-0.5,0.7-0.9,1.5-1.2,2.4
		c-2,5.2,0,8.1,5.6,8.1c8.2,0,16.4,0,24.6,0c1.5,0,3-0.2,4.4,0.6c2.2,0.3,4,1.4,5.4,3.1c5,4.6,5.5,12.2,1,17.5
		c-1,1.1-1.1,1.7-0.3,3.1C246.9,135.9,246,142.4,241.4,146.7z"/>
	<path d="M160.3,94.8c-1.1,1-2.5,1.6-3.9,2.1c-3.6,2.4-3.6,2.4-6.1-1.7c-5.6-6.8-12.4-11.7-21.4-12.9c-14.2-2-25.3,3.1-33.4,14.7
		c-1.2,1.7-2,2-3.6,0.9c-0.7-0.5-1.5-0.9-2.3-1.3c-4.2-2.3-4.2-2.3-1.3-6.3c16.9-23.2,50.3-24.4,68.3-2.5c0.3,0.3,0.5,0.7,0.7,1.1
		c1.3,1.5,2.4,3,3.3,4.7C161,94.2,161.3,94.6,160.3,94.8z"/>
	<path d="M106.4,220.5c-0.9,7.1-1.7,14.1-2.6,21.2c0,0.2,0,0.4,0,0.6c-0.2,1.7,1,4.4-2.6,3.6c-0.5,0-1.1,0-1.6,0
		c-1.2,0.4-1-0.5-1.2-1.1c-1-4.5-2.1-9-3.5-13.4c-1,4.4-2.2,8.7-3,13.1c-0.4,2.4-2,1.9-3.5,2.1c-1.9,0.2-1.9-1.1-2-2.4
		c-0.8-7.7-1.6-15.4-2.4-23.1c-0.1-0.9-0.5-2.2,1.1-2c1.2,0.2,3.2-1.2,3.4,1.5c0.3,4.3,0.7,8.6,1.1,13.2c1.3-0.7,1-1.8,1.2-2.6
		c0.8-3.4,1.5-6.8,2.1-10.2c0.2-1.3,0.6-2,2.2-2.1c1.7,0,1.8,1,2.1,2.2c0.8,3.8,1.6,7.7,2.3,11.5c0.1,0.4,0,0.9,1,1
		c0.4-4,0.8-8,1.1-12c0.2-2.5,1.8-3.4,4.1-2.6C106.5,219.3,106.5,219.9,106.4,220.5z"/>
	<path d="M123.1,242.1c1.4,3.5,0.9,4.4-2.7,4.4c-2.9,0-5.9,0-8.8,0c-1.2,0-1.8-0.3-1.8-1.6c0.1-8,0.2-16,0.2-24v-0.6
		c-0.3-1.2,0.5-1.3,1.4-1.3c3.7,0,7.4,0.1,11.1,0.1c0.2,0,0.4,0,0.6,0c1.5,3.5,0.9,4.4-2.5,4.4c-6.1,0-6.1,0-6,6c0,0.3,0,0.5,0,0.8
		c1.1,0,2.3,0,3.4,0c3.8,0,3.8,0,3.5,3.8c-0.6,1.6-1.8,0.6-2.7,0.6c-0.2,0-0.4,0-0.5,0c-0.7,0.1-1.4,0.2-2.1,0.2
		c-1.3-0.1-1.6,0.5-1.7,1.7c-0.2,5.2-0.2,5.2,4.8,5.2c1,0,2.1,0.1,3.2,0.2C122.7,242.1,122.9,242.1,123.1,242.1z"/>
	<path d="M228.8,231.5c0,0.2,0,0.4,0,0.6c-0.1-0.1-0.3-0.1-0.4-0.2C228.5,231.8,228.6,231.6,228.8,231.5z"/>
	<path d="M210.7,246.5c-2.9,0-5.7,0-8.6,0c-1,0-1.7-0.2-1.7-1.4c0-8.4,0-16.7,0-25.1c0-0.4,0.1-0.7,0.5-0.8c0.2,0.5,0.4,0.4,0.6-0.1
		c1.2,0.2,3-1.3,3.5,1.1v20.9c0.1,0.2,0.1,0.3,0.1,0.5c2.5,0.7,5.1-0.1,7.6,0.4c0.2,0,0.4,0,0.6,0.1
		C214.8,245.7,214.3,246.5,210.7,246.5z"/>
	<path d="M228.8,233.6c-0.1,0-0.3-0.1-0.4-0.2c0.1-0.1,0.3-0.2,0.4-0.4C228.7,233.3,228.8,233.4,228.8,233.6z"/>
	<path d="M160.4,232.8c0-3.1,0.1-6.2,0-9.3c-0.1-2.8-1.6-4.3-4.3-4.4c-2.7-0.1-5.5,0-8.3,0c-0.8,0-1.7,0-1.5,1.3
		c0.5,0.2,0.5,0.4,0,0.7c-0.2,4.6-0.2,9.2,0,13.8v2.3c-0.2,2.5-0.2,4.9,0,7.3v0.5c-0.4,2.9,1.8,1.3,2.9,1.6c1.1,0.3,1.9-0.1,1.8-1.5
		c-0.1-1.9,0-3.9,0-5.9c0-0.7-0.4-1.7,1-1.7c1.2-0.1,1.5,0.5,1.7,1.5c0.4,2,1.1,3.9,1.5,5.9c0.6,2.9,2.8,1.8,4.3,1.6
		c1.7-0.2,0.2-1.7,0.3-2.6c0-0.3-0.2-0.7-0.2-1c-0.6-2.8-2.5-5.6,0.5-8.2C160.3,234.3,160.4,233.4,160.4,232.8z M152.4,232.7
		c-1.1-0.1-1.6-0.4-1.5-1.5c0.1-1.1,0-2.1,0-3.2c0-0.6,0-1.3,0-1.9c-0.1-1.5-0.2-2.7,2.1-2.6c2.1,0.1,2.9,0.8,2.7,2.8
		c-0.1,1.1-0.2,2.3,0,3.4C156.1,232.4,154.7,232.9,152.4,232.7z"/>
	<path d="M146.3,220.9v-0.7C146.9,220.5,146.8,220.7,146.3,220.9z"/>
	<path d="M201.7,219.1c-0.2,0.4-0.3,0.5-0.6,0.1C201.3,219.2,201.5,219.1,201.7,219.1z"/>
</g>
</svg>
