<?xml version="1.0" encoding="utf-8"?>
<!-- Generator: Adobe Illustrator 26.1.0, SVG Export Plug-In . SVG Version: 6.00 Build 0)  -->
<svg version="1.1" id="svg2816" xmlns:svg="http://www.w3.org/2000/svg"
	 xmlns="http://www.w3.org/2000/svg" xmlns:xlink="http://www.w3.org/1999/xlink" x="0px" y="0px" viewBox="0 0 315 300"
	 style="enable-background:new 0 0 315 300;" xml:space="preserve">
<style type="text/css">
	.st0{fill:#3498DA;}
	.st1{fill:#3598DA;}
</style>
<g>
	<path class="st0" d="M57.7,106.6c4.7,0,9.4,0,14,0c2.3,0,4.1,1,5.2,3c4.7,8.3,9.5,16.5,14.3,24.8c1.1,1.8,1.1,3.7,0,5.6
		c-4.8,8.3-9.6,16.7-14.3,25c-1.1,1.9-2.7,2.8-4.9,2.8c-9.5,0-19,0-28.5,0c-2.2,0-3.9-1-5-2.9c-4.8-8.3-9.5-16.6-14.3-24.9
		c-1.1-1.9-1.1-3.8,0-5.7c4.8-8.3,9.5-16.5,14.3-24.8c1.1-1.9,2.8-2.9,5-2.9C48.2,106.6,53,106.6,57.7,106.6z M57.7,137.4
		c0.3,0.6,0.6,1.1,0.9,1.5c2.5,4.5,5,8.9,7.5,13.4c0.2,0.3,0.4,0.7,0.8,0.7c1.6,0,3.2,0,4.8,0c0.6,0,0.9-0.5,0.6-1.1
		c-0.1-0.2-0.2-0.4-0.3-0.6c-2.5-4.5-5-9-7.6-13.5c-0.2-0.4-0.3-0.8,0-1.2c2.6-4.6,5.2-9.2,7.7-13.9c0.5-0.9,0.3-1.4-0.8-1.4
		c-1.4,0-2.7,0-4.1,0c-0.6,0-1,0.2-1.3,0.7c-2.6,4.8-5.3,9.5-7.9,14.2c-0.1,0.2-0.1,0.5-0.4,0.5c-0.2,0-0.3-0.3-0.4-0.5
		c-2.7-4.8-5.4-9.6-8-14.3c-0.3-0.5-0.6-0.7-1.1-0.7c-1.4,0-2.8,0-4.2,0c-1.1,0-1.3,0.4-0.8,1.3c2.6,4.6,5.2,9.3,7.8,13.9
		c0.2,0.4,0.2,0.7,0,1.2c-2.6,4.6-5.2,9.3-7.8,13.9c-0.5,0.9-0.3,1.3,0.7,1.3c1.4,0,2.8,0,4.3,0c0.5,0,0.8-0.2,1.1-0.7
		c1.6-2.9,3.2-5.7,4.8-8.6C55.3,141.7,56.5,139.6,57.7,137.4z"/>
	<path class="st1" d="M172.6,131.5c1.9-3.1,4.7-4.7,8.3-4.7c3.7,0,6.4,1.7,7.9,5.2c0.7-1.2,1.6-2.2,2.6-3.1c3.3-2.7,8.9-3,12-0.5
		c1.7,1.4,2.5,3.2,3,5.3c0.3,1.4,0.4,2.8,0.4,4.2c0,5.3,0,10.6,0,15.9c0,0.5-0.2,0.7-0.7,0.7c-1.6,0-3.2,0-4.8,0
		c-0.5,0-0.7-0.1-0.7-0.7c0-4.8,0-9.5,0-14.3c0-1.4-0.1-2.8-0.4-4.2c-0.5-1.8-1.5-3.1-3.4-3.4c-2-0.4-3.8,0-5.2,1.6
		c-1.3,1.5-2,3.3-2,5.2c0,5,0,10,0,15c0,0.6-0.1,0.8-0.7,0.7c-1.6,0-3.1,0-4.7,0c-0.5,0-0.7-0.1-0.7-0.7c0-5,0-9.9,0-14.9
		c0-1-0.1-1.9-0.3-2.9c-0.5-2.4-1.9-3.9-3.9-4.2c-2.5-0.4-4.5,0.5-5.7,2.6c-0.7,1.1-1.1,2.4-1.1,3.7c-0.1,3.9,0,7.7-0.1,11.6
		c0,1.4,0,2.8,0,4.3c0,0.4-0.1,0.5-0.5,0.5c-1.7,0-3.5,0-5.2,0c-0.3,0-0.5-0.1-0.4-0.4c0-0.1,0-0.2,0-0.3c0-8.5,0-17.1,0-25.6
		c0-0.6,0.1-0.8,0.7-0.7c1.6,0,3.3,0,4.9,0c0.4,0,0.5,0.1,0.5,0.5c0,1.2,0,2.3,0,3.5C172.5,131.5,172.6,131.5,172.6,131.5z"/>
	<path class="st0" d="M109.3,154.4c0.2-0.3,0.4-0.7,0.6-1c3.2-5.2,6.5-10.3,9.8-15.5c0.3-0.5,0.3-0.8,0-1.2c-3-5.2-6-10.5-9-15.8
		c-0.1-0.2-0.2-0.4-0.3-0.5c0.2-0.2,0.4-0.1,0.6-0.1c2.2,0,4.3,0,6.5,0c0.5,0,0.7,0.2,0.9,0.6c1.9,3.9,3.8,7.8,5.7,11.6
		c0.1,0.2,0.2,0.4,0.4,0.7c0.3-0.6,0.6-1.2,0.9-1.7c1.9-3.5,3.7-7.1,5.6-10.6c0.2-0.5,0.5-0.6,1-0.6c2.1,0,4.1,0,6.2,0
		c0.1,0.3-0.1,0.5-0.2,0.6c-3.1,5.3-6.2,10.5-9.3,15.7c-0.3,0.4-0.2,0.7,0,1.1c3.1,5.3,6.2,10.6,9.3,15.9c0.1,0.2,0.5,0.5,0.3,0.8
		c-0.1,0.2-0.5,0.1-0.8,0.1c-2,0-4,0-6,0c-0.4,0-0.6-0.1-0.8-0.5c-2.1-4-4.2-8.1-6.3-12.1c-0.1-0.2-0.1-0.5-0.4-0.5
		c-0.2,0-0.3,0.3-0.3,0.5c-2.2,4-4.3,8.1-6.4,12.1c-0.2,0.4-0.4,0.5-0.9,0.5c-2.1,0-4.2,0-6.4,0
		C109.7,154.5,109.6,154.6,109.3,154.4z"/>
	<path class="st1" d="M213,134.5c0-1.8,0-3.4,0-5.1c0-0.4,0.3-0.5,0.5-0.6c2.2-1.1,4.5-1.7,6.9-2c1.9-0.3,3.8-0.2,5.6,0.2
		c3.9,0.9,6.2,3.4,6.8,7.4c0.2,1,0.2,2.1,0.2,3.2c0,5.4,0,10.7,0,16.1c0,0.6-0.2,0.8-0.8,0.8c-1.6,0-3.1,0-4.7,0
		c-0.5,0-0.6-0.1-0.6-0.6c0-1,0-2,0-3.2c-0.4,0.5-0.8,1-1.1,1.4c-1.7,1.9-3.8,2.9-6.3,3c-1.4,0.1-2.8,0-4.2-0.5c-2.9-1-4.5-3-5-6
		c-0.4-2.6,0-5,1.6-7.2c1.3-1.7,3.2-2.5,5.3-3c2.6-0.6,5.2-0.8,7.8-1.2c0.2,0,0.4-0.1,0.6-0.1c1.3-0.2,1.3-0.2,1.2-1.5
		c-0.3-2.5-1.9-4-4.4-4.1c-3.2-0.2-6.2,0.7-8.9,2.5C213.5,134.2,213.3,134.3,213,134.5z M227.1,143.2c0-0.5,0-0.8,0-1.1
		c0.1-0.6-0.2-0.7-0.7-0.6c-1.3,0.2-2.6,0.3-3.9,0.5c-1.3,0.2-2.6,0.3-3.9,0.8c-1.6,0.7-2.3,1.8-2.3,3.7c0,1.6,0.8,2.9,2.3,3.5
		c2.3,1,5.2,0.3,6.9-1.7C226.8,146.7,227.1,144.9,227.1,143.2z"/>
	<path class="st1" d="M155.6,150.9c-0.7,0.7-1.2,1.4-1.9,2c-1.5,1.4-3.3,2.1-5.4,2.2c-1.4,0.1-2.8,0-4.2-0.4c-3-1-5-3.5-5.2-6.6
		c-0.1-1.8,0-3.6,0.8-5.2c1.3-2.6,3.5-3.8,6.1-4.4c2.6-0.6,5.2-0.8,7.8-1.2c0.2,0,0.5-0.1,0.7-0.1c1.3-0.2,1.3-0.2,1.1-1.5
		c-0.3-2.6-1.9-4.1-4.6-4.2c-3.2-0.1-6.1,0.8-8.8,2.5c-0.2,0.1-0.3,0.4-0.5,0.2c-0.1-0.1-0.1-0.4-0.1-0.5c0-1.4,0-2.7,0-4.1
		c0-0.5,0.2-0.7,0.6-0.9c2.7-1.2,5.6-1.9,8.5-2.1c1.4-0.1,2.7,0,4.1,0.4c3.6,0.9,5.8,3.2,6.5,6.8c0.3,1.2,0.3,2.5,0.3,3.7
		c0,5.4,0,10.8,0,16.1c0,0.6-0.1,0.7-0.7,0.7c-1.6,0-3.2,0-4.8,0c-0.4,0-0.5-0.1-0.5-0.5C155.7,152.9,155.6,151.9,155.6,150.9z
		 M155.7,143.3c0-0.4,0-0.8,0-1.3c0.1-0.5-0.2-0.6-0.7-0.6c-1.3,0.2-2.7,0.3-4,0.5c-1.3,0.2-2.6,0.3-3.8,0.8c-1.7,0.7-2.3,2-2.3,3.7
		c0,1.6,0.8,2.9,2.3,3.5c2.1,0.8,4.1,0.6,5.9-0.8C155.1,147.7,155.8,145.6,155.7,143.3z"/>
	<path class="st0" d="M273.8,131.8c0.5-0.6,0.9-1.2,1.3-1.7c1.7-2.1,4-3.1,6.7-3.3c1.4-0.1,2.8,0,4.2,0.4c3,0.9,4.5,3.2,5.3,6.1
		c0.4,1.5,0.5,3.1,0.5,4.7c0,5.3,0,10.5,0,15.8c0,0.5-0.1,0.7-0.7,0.7c-1.6,0-3.2,0-4.8,0c-0.5,0-0.6-0.1-0.6-0.6
		c0-4.8,0-9.5,0-14.3c0-1.1-0.1-2.3-0.3-3.4c-0.5-2-1.4-3.7-3.6-4.2c-2.3-0.6-4.4,0-6,1.8c-1.4,1.5-1.9,3.3-1.9,5.4
		c0,4.9,0,9.8,0,14.7c0,0.6-0.2,0.7-0.7,0.7c-1.6,0-3.3,0-4.9,0c-0.4,0-0.5-0.1-0.5-0.5c0-8.7,0-17.4,0-26.1c0-0.4,0.1-0.5,0.5-0.5
		c1.7,0,3.4,0,5.1,0c0.4,0,0.5,0.1,0.5,0.5C273.8,129.2,273.8,130.4,273.8,131.8z"/>
	<path class="st1" d="M244,132.5c0.5-0.8,0.8-1.6,1.2-2.3c1.8-3,4.7-3.7,7.7-3.1c0.4,0.1,0.6,0.3,0.5,0.7c0,1.7,0,3.3,0,5
		c0,0.5-0.1,0.5-0.5,0.3c-1.3-0.6-2.6-0.8-4-0.5c-2.1,0.4-3.3,1.8-4.1,3.6c-0.5,1.2-0.8,2.5-0.8,3.8c0,4.6,0,9.2,0,13.8
		c0,0.6-0.2,0.7-0.7,0.7c-1.6,0-3.2,0-4.8,0c-0.4,0-0.6-0.1-0.6-0.5c0-8.7,0-17.4,0-26.1c0-0.4,0.1-0.5,0.5-0.5c1.7,0,3.4,0,5.1,0
		c0.4,0,0.5,0.2,0.5,0.6C244,129.5,244,131,244,132.5z"/>
	<path class="st1" d="M262.5,141c0,4.3,0,8.6,0,12.8c0,0.5-0.2,0.7-0.7,0.7c-1.5,0-3.1,0-4.6,0c-0.9,0-0.8,0.1-0.8-0.8
		c0-4.9,0-9.8,0-14.7c0-3.6,0-7.2,0-10.9c0-0.6,0.2-0.7,0.7-0.7c1.6,0,3.1,0,4.7,0c0.6,0,0.8,0.2,0.7,0.8
		C262.5,132.5,262.5,136.7,262.5,141z"/>
	<path class="st1" d="M255.8,117.9c0-2,1.6-3.6,3.7-3.6c2.1,0,3.7,1.6,3.8,3.6c0,2-1.7,3.6-3.8,3.5
		C257.4,121.4,255.8,119.9,255.8,117.9z"/>
</g>
</svg>
