<svg xmlns="http://www.w3.org/2000/svg" width="426.542" height="439.774" viewBox="0 0 426.542 439.774">
  <g id="Group_144" data-name="Group 144" transform="translate(3356.431 -1904.136)">
    <g id="Group_141" data-name="Group 141">
      <g id="Group_140" data-name="Group 140">
        <path id="Path_1236" data-name="Path 1236" d="M-3286.881,1904.136h291.006v66.97H-3284.32Q-3285.6,1937.62-3286.881,1904.136Z" fill="#f25d23"/>
        <path id="Path_1237" data-name="Path 1237" d="M-3200.344,1984.882h59.844v120.264c0,12.478,1.314,25.741.075,38.138-.7,7.06-7.3,14.089-12.63,18.211-3.335,2.579-9.427,7.288-18.336,7.721-12.528.609-21.14-7.7-23.163-9.652-9.344-9.015-8.6-18.122-8.385-30.194q.36-20.069.721-40.136.72-40.135,1.442-80.271Q-3200.56,1996.923-3200.344,1984.882Z" fill="#f25d23"/>
        <path id="Path_1238" data-name="Path 1238" d="M-3121.205,1984.882h60.8v80.258c0,26.064-1.119,52.461.118,78.461.544,11.416-1.77,22.217-6.107,32.767-15.221,37.024-50.381,65.127-89.849,71.816a110.491,110.491,0,0,1-60.94-6.61c-17.768-7.471-33.194-19.931-45.548-34.725a119.747,119.747,0,0,1-18.959-30.687c-2.275-5.491-4.594-11.6-5.331-17.532-.725-5.848-.182-12.1-.182-18.032V2115.17h63.727c1.92.339.678,19.545.652,21.356-.168,12.044.27,21.224,9.6,30.2,8.176,7.873,18.541,14.487,29.37,17.87,8.3,2.593,17.364,3.577,25.675,1.018,8.729-2.688,15.658-8.958,21.461-15.785,6.09-7.164,11.734-13.747,13.346-23.331,1.666-9.9.13-19.927.332-29.887.206-10.174.543-20.351.662-30.539q.467-40.156.934-80.312Z" fill="#f25d23"/>
        <path id="Path_1239" data-name="Path 1239" d="M-3052.684,2185.623a206.015,206.015,0,0,1-13.511,21.232,207.905,207.905,0,0,1-37.639,39.568h105.2v-59.844Z" fill="#f25d23"/>
      </g>
    </g>
    <g id="Group_143" data-name="Group 143">
      <g id="Group_142" data-name="Group 142">
        <path id="Path_1240" data-name="Path 1240" d="M-3331.252,2289.474h10.726v37.556q0,7.776-5.068,12.328a18.445,18.445,0,0,1-12.808,4.552q-8.4,0-13.3-4.091t-4.717-12.052l.074-.221h10.467q0,4.219,2.027,6.143a7.57,7.57,0,0,0,5.454,1.928,6.579,6.579,0,0,0,5.068-2.3,9.055,9.055,0,0,0,2.082-6.315Z" fill="#1d1b1c"/>
        <path id="Path_1241" data-name="Path 1241" d="M-3273.572,2297.766h-15.184v45.37h-10.762v-45.37h-15.111v-8.292h41.057Z" fill="#1d1b1c"/>
        <path id="Path_1242" data-name="Path 1242" d="M-3256.8,2334.843h23.882v8.293h-34.644v-53.662h10.762Z" fill="#1d1b1c"/>
        <path id="Path_1243" data-name="Path 1243" d="M-3189.024,2308.491l10.062-19.017h12.531l-15.922,26.61,16.843,27.052h-13.01l-10.357-19.349-10.356,19.349H-3211.8l16.327-27.052-15.922-26.61h12.458Z" fill="#1d1b1c"/>
        <path id="Path_1244" data-name="Path 1244" d="M-3149.146,2323.676v19.46h-10.762v-53.662h21.377q9.25,0,14.558,4.717a15.818,15.818,0,0,1,5.307,12.421,15.7,15.7,0,0,1-5.307,12.383q-5.307,4.681-14.558,4.681Zm0-8.293h10.615q4.5,0,6.818-2.451a8.717,8.717,0,0,0,2.322-6.247,9.124,9.124,0,0,0-2.3-6.394q-2.3-2.525-6.837-2.525h-10.615Z" fill="#1d1b1c"/>
        <path id="Path_1245" data-name="Path 1245" d="M-3099.98,2321.686v21.45h-10.762v-53.662h20.234q9.177,0,14.356,4.183t5.178,11.665a11.814,11.814,0,0,1-2.175,7.15,15.2,15.2,0,0,1-6.376,4.828,11.547,11.547,0,0,1,6.837,4.681,14.84,14.84,0,0,1,2.083,8.108v3.943a19.484,19.484,0,0,0,.608,4.7,6.458,6.458,0,0,0,2.082,3.63v.774h-11.094a6.065,6.065,0,0,1-1.916-3.944,33.159,33.159,0,0,1-.442-5.233v-3.8a8.526,8.526,0,0,0-2.193-6.247,8.266,8.266,0,0,0-6.174-2.23Zm0-8.293h9.288q4.533,0,6.763-1.916a7.073,7.073,0,0,0,2.23-5.676,7.806,7.806,0,0,0-2.23-5.86q-2.229-2.175-6.579-2.175h-9.472Z" fill="#1d1b1c"/>
        <path id="Path_1246" data-name="Path 1246" d="M-3027.852,2319.548h-22.225v15.295h25.984v8.293h-36.746v-53.662h36.672v8.292h-25.91v13.489h22.225Z" fill="#1d1b1c"/>
        <path id="Path_1247" data-name="Path 1247" d="M-2988.527,2329.131a6.23,6.23,0,0,0-2.193-4.976q-2.193-1.879-7.684-3.538-9.583-2.765-14.485-6.56a12.432,12.432,0,0,1-4.9-10.394,12.873,12.873,0,0,1,5.621-10.78q5.62-4.184,14.355-4.183,8.845,0,14.411,4.7a14.065,14.065,0,0,1,5.381,11.591l-.074.221h-10.43a7.828,7.828,0,0,0-2.488-6.026,9.891,9.891,0,0,0-6.984-2.3,10.321,10.321,0,0,0-6.671,1.916,6.038,6.038,0,0,0-2.359,4.9,5.262,5.262,0,0,0,2.525,4.478,34.9,34.9,0,0,0,8.716,3.7q8.883,2.469,13.453,6.524a13.552,13.552,0,0,1,4.57,10.651,12.753,12.753,0,0,1-5.436,10.872q-5.437,3.981-14.356,3.981a26.2,26.2,0,0,1-15.3-4.515,14.1,14.1,0,0,1-6.339-12.66l.073-.221h10.468q0,4.791,2.93,7.021t8.163,2.23q4.386,0,6.708-1.806A5.806,5.806,0,0,0-2988.527,2329.131Z" fill="#1d1b1c"/>
        <path id="Path_1248" data-name="Path 1248" d="M-2940.651,2329.131a6.23,6.23,0,0,0-2.193-4.976q-2.193-1.879-7.684-3.538-9.583-2.765-14.485-6.56a12.432,12.432,0,0,1-4.9-10.394,12.873,12.873,0,0,1,5.621-10.78q5.62-4.184,14.355-4.183,8.845,0,14.411,4.7a14.065,14.065,0,0,1,5.381,11.591l-.074.221h-10.43a7.828,7.828,0,0,0-2.488-6.026,9.891,9.891,0,0,0-6.984-2.3,10.321,10.321,0,0,0-6.671,1.916,6.038,6.038,0,0,0-2.359,4.9,5.262,5.262,0,0,0,2.525,4.478,34.9,34.9,0,0,0,8.716,3.7q8.883,2.469,13.453,6.524a13.552,13.552,0,0,1,4.57,10.651,12.753,12.753,0,0,1-5.436,10.872q-5.437,3.981-14.356,3.981a26.2,26.2,0,0,1-15.3-4.515,14.1,14.1,0,0,1-6.339-12.66l.073-.221h10.468q0,4.791,2.93,7.021t8.163,2.23q4.386,0,6.708-1.806A5.807,5.807,0,0,0-2940.651,2329.131Z" fill="#1d1b1c"/>
      </g>
    </g>
  </g>
</svg>
