<svg xmlns="http://www.w3.org/2000/svg" width="1052.422" height="224.341" viewBox="0 0 1052.422 224.341">
  <g id="Group_124" data-name="Group 124" transform="translate(348.049 -1380.076)">
    <path id="Path_834" data-name="Path 834" d="M63.231,1459.446q-8.391,20.931-16.779,41.864c-6.989,17.521-14.293,34.929-20.709,52.657-2.117,5.847-5.54,5.936-10.369,6.038-5.014.106-8.135-.6-10.3-6.165-10.746-27.556-22.074-54.886-33.227-82.284-1.411-3.467-3-6.863-5.065-11.572-2.968,4.336-2.222,7.87-2.228,11.152-.045,26.792-.57,53.6.258,80.368.332,10.722-5.929,8.13-11.686,8.417-6.211.31-10.8.81-10.652-8.607.628-39.2.5-78.416.056-117.62-.086-7.646,2.251-9.081,9.326-9,24.844.276,24.789.026,33.762,23.315,9,23.358,18.141,46.66,27.186,70,.694,1.793.754,3.908,3.5,5.069,11.814-28.7,24.112-57.19,35.149-86.165,3.589-9.423,7.879-12.836,18.1-12.321,19.548.985,19.553.3,19.539,20.4-.025,35.288-.224,70.578.165,105.862.082,7.394-1.971,9.462-9.31,9.216-14.33-.481-14.349-.039-14.353-14.381q-.01-38.226-.014-76.453v-9.345Z" fill="#7a7a7a"/>
    <path id="Path_835" data-name="Path 835" d="M680.488,1434.577c0,3.284-.044,5.54.009,7.794.151,6.488-1.853,14.355,1.124,19.078,3.069,4.868,11.458,1.6,17.472,1.742,7.08.164,4.892,5.252,4.433,8.273-.54,3.564,4.212,9.683-4.263,10.453-6.209.564-14.716-3.445-18.047,2.323-2.84,4.915-.694,12.718-.719,19.243-.026,6.855-.05,13.711-.006,20.566.112,17.463,5.513,21.517,22.418,16.874a4.914,4.914,0,0,1,.769,1.682c.575,17.6.182,18.213-12.159,19.29-18.684,1.631-31.47-5.97-32.706-21.311-1.333-16.548-1.2-33.263-.768-49.882.2-7.583-2.139-9.849-9.356-8.961-8.012.986-18.73-3.447-23.422,1.8-3.975,4.45-1.375,14.9-1.428,22.689-.1,15.343-.262,30.692.089,46.027.13,5.711-1.038,8.833-7.412,7.622a10.559,10.559,0,0,0-1.957-.017c-13.576.049-13.578.049-13.573-13.208.007-18.935-.281-37.876.19-56.8.16-6.455-1.561-9.214-8.045-8.011-8.171,1.517-8.787-3-8.677-9.526.1-6.018.436-10.507,8.17-9.031,8.481,1.619,8.759-3.55,8.4-9.751-1.627-28.225,19.374-40.465,40.407-38.333,2.827.287,6.916,0,7.318,3.393a66.363,66.363,0,0,1-.469,16.47c-.228,1.7-2.67-.244-4.1-.4-15.569-1.71-25.558,10.975-20.278,25.619,1.054,2.925,3.071,2.935,5.327,2.984,3.265.07,6.532.031,9.8.027,17.33-.019,17.525-.007,18.664-17.034.278-4.167,1.943-5.556,5.554-6.462C668.588,1438.463,673.8,1436.634,680.488,1434.577Z" fill="#7a7a7a"/>
    <path id="Path_836" data-name="Path 836" d="M398.146,1510.893c-.072,32.222-18.989,51.248-50.866,51.161-29.83-.082-48.032-18.862-47.952-49.477.083-32.093,19.356-51.89,50.533-51.909C380.128,1460.649,398.218,1479.466,398.146,1510.893Zm-23.708,1.236c0-16.709-5.162-26.526-15.992-30.442-14.9-5.386-29.01,1.782-33.737,17.133-6.084,19.76,1.459,39.62,16.476,43.359.628.156,1.289.177,1.931.283C363.173,1545.782,374.445,1534.866,374.438,1512.129Z" fill="#7a7a7a"/>
    <path id="Path_837" data-name="Path 837" d="M582.331,1511.152c-.166,32-19.41,51.145-51.175,50.908-29.845-.223-47.9-19.03-47.724-49.713.187-32.467,19.963-52.205,51.788-51.686C564.7,1461.143,582.492,1480.209,582.331,1511.152Zm-75.15,2.784a46.776,46.776,0,0,0,.659,8c1.988,8.987,6.163,16.632,15.644,19.445,9.39,2.786,18.759,2.818,26.614-4.187,11.819-10.537,11.709-40.469-.135-50.966a24.181,24.181,0,0,0-7.435-4.453C522.83,1474.431,507.117,1488.023,507.181,1513.936Z" fill="#7a7a7a"/>
    <path id="Path_838" data-name="Path 838" d="M409.212,1534.875c9.5,5.216,18.238,9.585,28.247,8.977,5.125-.311,11.162-.91,12.643-7.159,1.535-6.474-2.89-10.27-8.165-12.889-4.948-2.458-10.1-4.508-15.031-6.994-14.127-7.122-19.362-16.345-17.541-30.527,1.482-11.536,11.646-21.507,25.022-24.231a59.043,59.043,0,0,1,12.6-1.5c20.792.342,23.252,3.393,20.413,25.117-7.713-3.834-15.455-7.175-24.237-6.2-4.814.533-9.08,1.729-10.417,7.129-1.416,5.722,1.431,9.482,6.214,11.881,6.1,3.062,12.459,5.618,18.547,8.706,10.862,5.51,16.982,14.248,16.1,26.686-.873,12.283-7.836,20.386-19.157,24.786-13.734,5.338-27.454,4.053-41.22-.133-3.078-.936-4.172-2.376-4.072-5.493C409.345,1547.235,409.212,1541.429,409.212,1534.875Z" fill="#7a7a7a"/>
    <path id="Path_839" data-name="Path 839" d="M224.454,1536.1c1.633,22.005-.839,24.9-22.11,25.907-23.173,1.1-40.05-7.885-48.514-25.814-9.016-19.1-5.149-45.161,8.961-60.386,13.162-14.2,36.593-19.114,56.119-12.166,4.322,1.538,6.521,3.408,6.133,8.248-.39,4.856-.086,9.767-.086,15.573-10.393-5.384-20.314-10.1-31.9-6.085a28.413,28.413,0,0,0-14.05,10.04c-8.2,11.077-8.105,31.016.037,41.377C188.167,1544.41,199.593,1545.242,224.454,1536.1Z" fill="#7a7a7a"/>
    <path id="Path_840" data-name="Path 840" d="M264.872,1475.694c6.774-9.265,14.532-14.647,25.733-14.058,5.245.275,7.768,1.591,7.248,7.336-.465,5.133-.1,10.342-.1,15.669-22.337-5.247-33.053,3.233-33.234,25.763-.112,14.024-.339,28.06.123,42.069.2,6.144-1.714,8.324-7.7,7.478a29.341,29.341,0,0,0-7.816-.042c-6.088.8-7.6-1.6-7.521-7.637q.515-40.6-.069-81.209c-.106-6.708,2.141-8.744,8.275-7.778a6.669,6.669,0,0,0,1.954-.006C260.563,1462.02,267.231,1463.234,264.872,1475.694Z" fill="#7a7a7a"/>
    <path id="Path_841" data-name="Path 841" d="M133.145,1511.035c-.015,13.7-.423,27.409.159,41.08.288,6.767-2.136,8.569-8.255,7.8a41.664,41.664,0,0,0-8.8-.015c-4.444.393-5.428-1.685-5.409-5.745.134-28.369.192-56.74-.043-85.108-.041-5.031,1.877-6.184,6.3-5.805a44.591,44.591,0,0,0,9.773-.019c5.588-.764,6.477,1.886,6.383,6.722C132.987,1483.64,133.159,1497.339,133.145,1511.035Z" fill="#7a7a7a"/>
    <path id="Path_842" data-name="Path 842" d="M121.855,1422.185c7.72-.115,14.237,5.658,14.444,12.795.205,7.073-6.152,13.253-13.81,13.425-7.844.176-14.257-5.5-14.412-12.751C107.924,1428.488,114.256,1422.3,121.855,1422.185Z" fill="#7a7a7a"/>
    <g id="Group_123" data-name="Group 123">
      <path id="Path_843" data-name="Path 843" d="M-241.886,1434.622c0,15.329-.148,30.659.085,45.983.076,5-1.35,6.716-6.653,6.683q-46.5-.286-93,.175c-5.407.049-6.617-2.189-6.6-6.959q.2-46.473.05-92.945c-.023-5.268,1.359-7.475,7.148-7.431q46.01.346,92.024-.051c5.851-.047,7.134,2.4,7.065,7.584-.209,15.651-.075,31.307-.075,46.961Z" fill="#e95227"/>
      <path id="Path_844" data-name="Path 844" d="M-124.035,1434.622c0,15.329-.148,30.659.085,45.983.076,5-1.35,6.716-6.653,6.683q-46.5-.286-93,.175c-5.407.049-6.617-2.189-6.6-6.959q.2-46.473.05-92.945c-.023-5.268,1.359-7.475,7.148-7.431q46.01.346,92.024-.051c5.851-.047,7.134,2.4,7.065,7.584-.209,15.651-.075,31.307-.075,46.961Z" fill="#7db742"/>
      <path id="Path_845" data-name="Path 845" d="M-241.886,1551.575c0,15.329-.148,30.659.085,45.983.076,5-1.35,6.716-6.653,6.683q-46.5-.286-93,.175c-5.407.049-6.617-2.189-6.6-6.959q.2-46.473.05-92.945c-.023-5.268,1.359-7.475,7.148-7.431q46.01.346,92.024-.051c5.851-.047,7.134,2.4,7.065,7.584-.209,15.651-.075,31.307-.075,46.961Z" fill="#34a0d8"/>
      <path id="Path_846" data-name="Path 846" d="M-124.035,1551.575c0,15.329-.148,30.659.085,45.983.076,5-1.35,6.716-6.653,6.683q-46.5-.286-93,.175c-5.407.049-6.617-2.189-6.6-6.959q.2-46.473.05-92.945c-.023-5.268,1.359-7.475,7.148-7.431q46.01.346,92.024-.051c5.851-.047,7.134,2.4,7.065,7.584-.209,15.651-.075,31.307-.075,46.961Z" fill="#fbb716"/>
    </g>
  </g>
</svg>
