<?xml version="1.0" encoding="utf-8"?>
<!-- Generator: Adobe Illustrator 26.1.0, SVG Export Plug-In . SVG Version: 6.00 Build 0)  -->
<svg version="1.1" id="svg2816" xmlns:svg="http://www.w3.org/2000/svg"
	 xmlns="http://www.w3.org/2000/svg" xmlns:xlink="http://www.w3.org/1999/xlink" x="0px" y="0px" viewBox="0 0 315 300"
	 style="enable-background:new 0 0 315 300;" xml:space="preserve">
<style type="text/css">
	.st0{fill:#0A0A0A;}
	.st1{fill:#080808;}
	.st2{fill:#FBC023;}
	.st3{fill:#FBBE1C;}
</style>
<g>
	<path class="st0" d="M142.5,116.4c6.4-6.7,12.1-6.5,17.2,0.3c1.6-1.9,3.1-3.8,5.6-4.6c6.4-2.3,12.5,1.3,12.9,8.5
		c0.4,8.5,0.2,17.1,0,25.6c-0.1,4-3.4,1.9-5.3,2.2c-1.7,0.3-3.9,0.6-3.8-2.5c0.1-6.1,0.2-12.2,0-18.2c-0.1-2.9,1.1-7.3-3.7-7.4
		c-4.6-0.1-4.6,4-4.6,7.4c0,5.5-0.3,11,0.1,16.5c0.3,4.1-1.7,4.3-4.9,4.4c-3.6,0.1-4.8-0.8-4.6-4.5c0.3-5.8,0.1-11.6,0.1-17.4
		c0-2.9,0.1-6.4-4-6.4c-4,0-4.2,3.5-4.3,6.4c-0.2,6.2-0.2,12.4,0,18.7c0.1,4.7-3.2,2.9-5.4,3.2c-2.5,0.4-4-0.1-3.9-3.3
		c0.2-9.7,0.1-19.4,0.1-29.1c0-2.1-0.3-4.3,3-3.8C139.2,112.7,143.2,110.5,142.5,116.4z"/>
	<path class="st1" d="M126.5,129.7c0.3,3.9-0.5,8.2,2.1,12.5c1.7,2.7-2.6,3.7-4.1,5.5c-1.4,1.7-3,0.9-3.9-0.6c-1.6-2.5-2.8-2-5-0.5
		c-4.3,3-9.3,3.5-13.9,0.7c-3.7-2.3-4.7-6.1-4.2-10.2c0.8-5.4,4-8.8,9.4-10.1c2.1-0.5,4.3-0.8,6.4-1.2c1.8-0.4,4.3,0.1,3.6-3.3
		c-0.6-2.9-2.1-4.4-5-4.1c-2,0.2-3.5,1.3-4.2,3.3c-0.4,1.3-1.2,1.9-2.6,1.7c-2.1-0.3-5,0.5-6-1.4c-1.2-2.2,0.9-4.3,2.3-6.1
		c4.8-5.9,17.1-6.6,22.4-1.2c3.3,3.4,2.6,7.7,2.7,11.9C126.5,127.5,126.5,128.4,126.5,129.7z M117.1,133.8c-0.1-1.4,0-2.8-2.5-2.7
		c-4,0.2-7,2.4-7.2,5.9c-0.1,2.5,0.6,4.6,3.5,5C114,142.5,116.9,138.6,117.1,133.8z"/>
	<path class="st1" d="M211.7,128.1c0.4,4.9-0.5,9.5,2.4,14c1.8,2.8-2.7,3.7-4.1,5.6c-1.4,1.8-2.9,0.9-3.9-0.6
		c-1.5-2-2.5-2.3-4.9-0.6c-4.2,3.1-9.2,3.6-13.9,0.9c-4-2.3-4.8-6.4-4.2-10.6c0.7-5.3,4.1-8.5,9.2-9.8c2.1-0.5,4.3-0.8,6.4-1.2
		c1.8-0.3,4.4,0.2,3.7-3.2c-0.6-3-2.3-4.7-5.4-4.2c-1.5,0.2-2.6,1-3.5,2.3c-1.6,2.4-6.1,3.4-8.4,1.9c-1.6-1-0.7-2.3-0.3-3.4
		c2.5-6.4,9.7-9.5,17.9-7.9c6.6,1.3,9.4,5.1,9.3,12.5C211.9,125.4,211.8,126.9,211.7,128.1z M200.1,131.1c-4.5,0.1-7.3,2.6-7.2,6.4
		c0.1,2.6,1.2,4.5,4.1,4.4c3.1,0,5.4-3.7,5.5-8.1C202.5,132,202.3,130.7,200.1,131.1z"/>
	<path class="st1" d="M288.6,117.7c2.4-4.2,5-5.8,8.3-6.2c5.5-0.6,9.8,3.1,10.1,9.4c0.4,8.4,0.3,16.8,0.2,25.1
		c-0.1,4.4-3.6,2-5.6,2.4c-2.1,0.5-3.5,0-3.4-2.8c0.2-5.8,0.2-11.6,0-17.3c-0.1-3.1,0.8-7.2-3.8-8.1c-2.9-0.6-4.9,2.7-5,8.2
		c-0.1,5.6-0.2,11.3,0,16.9c0.2,4.3-2.7,3-4.9,3.2c-2.4,0.2-4.5,0.4-4.4-3.4c0.2-9.5,0.1-19.1,0.1-28.6c0-2.1-0.7-4.7,3-4.2
		C285.7,112.6,289.8,110.6,288.6,117.7z"/>
	<path class="st1" d="M274,129.7c0,5.4-1,9.6-3.5,13.3c-6,8.8-18.8,8.3-23.6-1.2c-3.8-7.3-3.7-15-0.3-22.5c2.4-5.3,6.9-7.8,12.5-7.8
		c5.5,0,9.7,2.6,12.3,7.5C273.3,122.6,274.2,126.6,274,129.7z M264.3,130c-0.2-1.6-0.5-4.5-1.1-7.2c-0.4-1.8-1.6-3.1-3.6-3.2
		c-2.1-0.2-3.7,0.8-4.4,2.8c-1.9,5.6-1.8,11.3,0.1,16.9c0.5,1.6,1.8,2.7,3.6,2.7c1.9,0,3.3-0.8,4.1-2.6
		C264.1,136.8,264.2,134.1,264.3,130z"/>
	<path class="st1" d="M231.3,119.6c-3.3,0-5.6,0-7.9,0c-4.4,0-5.4-1.3-4.5-5.7c0.3-1.3,0.8-1.7,2-1.7c6.7,0,13.3,0,20,0
		c1.6,0,2.4,0.7,2.5,2.3c0.1,2.4-0.3,4.5-1.8,6.5c-3.6,4.8-7,9.8-10.7,15.2c3.6,0.5,6.8,0.8,9.8,2.1c2.6,1.1,4.3,6.4,2.8,8.7
		c-0.7,1.1-1.5,0.5-2.2,0.2c-7-3-14-3.1-21,0c-2,0.9-2.6,0.1-2.7-1.7c-0.2-3.3,0-6.5,2.2-9.4C223.6,130.9,227.1,125.6,231.3,119.6z"
		/>
	<path class="st0" d="M256.4,175.1c0-2.7,0-5.5,0-8.2c0-6.3,0-6.3,6.5-6.6c1.3-0.1,2.6,0,3.9,0c9.6,0.1,15.6,5.3,15.8,13.6
		c0.2,9.5-5.5,15.7-15.3,16.4c-10.9,0.8-10.9,0.8-10.9-9.9C256.4,178.6,256.4,176.9,256.4,175.1z M275.3,175.3
		c0.1-6.1-3.5-9.9-9-9.7c-1.8,0.1-2.9,0.4-2.8,2.7c0.2,4.7,0.1,9.5,0,14.3c0,1.9,0.6,2.4,2.5,2.4C271.2,185,275.2,181,275.3,175.3z"
		/>
	<path class="st0" d="M247.4,176.1c3.8,3.4,3.7,8.2,5.1,12.3c0.3,1,0.4,1.9-0.9,1.7c-2.1-0.3-4.9,1.5-6.1-1.5
		c-0.8-2-1.2-4.1-1.8-6.2c-0.4-1.6-1-3.1-2.8-3.5c-2.1-0.5-3.8-0.6-3.5,2.4c0.2,1.6,0,3.2,0,4.8c0.1,2.4,0.4,4.3-3.4,4.3
		c-3.4-0.1-3.6-1.5-3.6-4.2c0.1-6.8,0.2-13.6,0-20.4c-0.2-3.7,0.6-5.7,4.7-5.3c2.3,0.2,4.6-0.3,6.9-0.1c3.8,0.4,7.7,1.1,9.1,5.4
		C252.8,170,251.3,173.5,247.4,176.1z M237.5,169.7c0.8,1.1-1.7,4.2,2.2,3.9c2.7-0.2,5.4-0.9,5.4-4.3c0-2.9-2.4-3.6-4.9-3.8
		C236.8,165,237.4,167.4,237.5,169.7z"/>
	<path class="st2" d="M132.7,93.6c0,4-0.1,7.3,0,10.7c0.1,2.3-0.5,3.2-3,2.2c-4-1.6-8.1-3.1-12.2-4.4c-1.8-0.6-2.5-1.6-2.5-3.4
		c0.1-6.6,0.1-13.3,0-19.9c0-2.6,0.8-3.1,3.1-2.1c0.9,0.4,1.9,0.6,2.9,1c3.7,1.5,8.8,1.4,11,4.4C134.3,85.2,132.3,90.1,132.7,93.6z"
		/>
	<path class="st2" d="M92.6,94.3c0,3.5,0,6.9,0,10.4c0,1.9-0.6,2.7-2.6,1.9c-4.3-1.6-8.7-3.2-13-4.7c-1.5-0.5-2-1.4-2-2.9
		c0-6.9,0.1-13.8,0-20.8c0-2.3,1-2.3,2.7-1.7c4.2,1.5,8.4,3,12.7,4.3c1.9,0.6,2.4,1.7,2.4,3.5C92.6,87.7,92.6,91,92.6,94.3z"/>
	<path class="st3" d="M31.9,142.5c-5.5-2-10.7-3.8-15.8-5.6c-1.3-0.5-1.7-1.3-1.7-2.7c0-6.9,0-13.8,0-20.7c0-2,0.5-2.6,2.6-1.9
		c4.2,1.5,8.4,2.9,12.7,4.3c1.6,0.5,2.3,1.4,2.2,3.2C31.8,126.8,31.9,134.4,31.9,142.5z"/>
	<path class="st3" d="M34.7,128.9c0.5-3.5-1.8-8.8,0.9-11.8c2.5-2.7,7.6-3.1,11.5-4.5c5-1.7,5-1.7,5,3.6c0,5.8,0,11.6,0,17.4
		c0,1.8-0.3,3-2.2,3.6c-4.3,1.4-8.5,2.9-12.7,4.5c-2.4,0.9-2.7-0.1-2.6-2.1C34.8,136.2,34.7,132.9,34.7,128.9z"/>
	<path class="st3" d="M92.2,124.3c-0.2,3,0.7,6.2,0.2,9.1c-0.1,0.5-0.2,0.9-0.4,1.4c-0.1,0.3-0.6,0.9-0.6,1.1
		c-1.9,2.7-7.1,3.3-10.9,4.7c-5.8,2.1-5.8,2.1-5.8-3.9c0-5.6,0.1-11.2,0-16.8c0-1.9,0.3-3.2,2.4-3.9c4.1-1.2,8.2-2.6,12.3-4.2
		c2.2-0.8,2.8-0.1,2.8,2c0,1.8,0,3.6,0,5.4c0,1,0.1,2.1,0.1,3.1C92.3,122.9,92.3,123.6,92.2,124.3z"/>
	<path class="st3" d="M95.4,93.3c0.5-3.4-1.8-8.5,0.9-11.4c2.5-2.6,7.3-3,11.1-4.4c1-0.3,1.9-0.6,2.9-1c1.8-0.8,2.6-0.4,2.6,1.8
		c-0.1,6.8-0.1,13.6,0,20.4c0,1.9-0.7,2.8-2.5,3.4c-4.1,1.3-8.2,2.8-12.2,4.4c-2.3,0.9-2.8,0-2.7-2.1C95.4,101,95.4,97.5,95.4,93.3z
		"/>
	<path class="st3" d="M34.7,146c5.5,1.8,10.7,3.6,15.8,5.3c1.7,0.5,1.6,1.8,1.6,3.1c0,6.8,0,13.5,0,20.3c0,2.1-0.4,2.9-2.7,2
		c-4-1.6-8.1-3-12.2-4.4c-1.8-0.6-2.6-1.4-2.6-3.4C34.8,161.5,34.7,154,34.7,146z"/>
	<path class="st3" d="M55.3,163.6c0.4-3.4-1.7-8.6,0.9-11.5c2.4-2.6,7.3-3.1,11.1-4.4c5.5-1.9,5.5-1.8,5.5,4.1c0,5.5-0.1,11,0,16.5
		c0.1,2.2-0.7,3.4-2.9,4.1c-4,1.3-8,2.7-11.9,4.2c-2.2,0.9-2.8,0.3-2.8-1.9C55.4,171.3,55.3,167.8,55.3,163.6z"/>
	<path class="st3" d="M72,129.6c-0.1,4.1,0.7,8.6-0.5,12.6c-4-1.3-7.9-2.9-11.9-3.9c-2.4-0.6-4.5-1.8-5.1-4.3
		c-0.6-2.3-0.2-4.7,0-7.1c0.3-4.1,0-8.2-0.1-12.4c-0.1-2.6,0.3-4.1,3.3-2.5c0.6,0.3,1.4,0.4,2.1,0.7c4,1.4,9.2,1.7,11.5,4.5
		c1.7,2,1.2,5,1,7.3C72.2,126.2,72.1,127.9,72,129.6z"/>
	<path class="st3" d="M153,75.8c0,8.1,0,15.7,0,23.3c0,1.5-0.5,2.3-2,2.8c-4.4,1.4-8.7,3-13,4.7c-2.1,0.8-2.5-0.1-2.5-1.9
		c0.1-6.9,0-13.8,0-20.7c0-1.5,0.3-2.5,1.9-2.9C142.5,79.3,147.5,77.6,153,75.8z"/>
	<path class="st0" d="M293.5,190.2c-1.7,0.1-3.4-0.2-5.1-0.5c-2.9-0.5-2.7-2-2.2-4.3c0.6-2.9,2-1.9,3.7-1.4c1.9,0.5,3.9,0.9,6,0.5
		c1.3-0.3,2.5-0.8,2.8-2.3c0.2-1.5-0.5-2.5-1.8-3.1c-2-0.9-4-1.7-5.9-2.7c-3.3-1.7-5.4-4.3-5-8.3c0.4-4.1,3-6.4,6.8-7.5
		c2.8-0.8,5.7-0.9,8.6-0.1c1.8,0.5,3.8,0.3,2.9,3.4c-0.7,2.5-1.5,3.4-4.1,2.2c-0.8-0.4-2-0.2-3-0.3c-1.8,0-3.7,0.1-4.1,2.3
		c-0.3,2,1.4,2.6,2.9,3.2c1.3,0.6,2.7,1.1,4,1.7c4.6,2.2,6.5,5.3,5.9,9.5c-0.6,4.1-4,7.1-8.8,7.7
		C295.8,190.3,294.6,190.2,293.5,190.2z"/>
	<path class="st2" d="M37.9,144.3c10.6-5.6,21.3-5.8,31.4,0.3C59.1,151.2,48.4,150.5,37.9,144.3z"/>
	<path class="st2" d="M77.9,74.1c11.8-5.6,19-5.6,31.7,0.1C99.2,81.1,88.5,80,77.9,74.1z"/>
	<path class="st3" d="M17,109c15.9-5.5,17.3-5.5,32,0.2C38.3,116.3,27.7,115.1,17,109z"/>
	<path class="st2" d="M57.1,109.3c10.6-5.1,21.2-6.4,31.5,0.1C81.6,115.3,71.1,115.4,57.1,109.3z"/>
	<path class="st2" d="M118,74.1c10.7-5.1,21.3-6.1,31.5,0.3C139.3,81.3,128.6,79.9,118,74.1z"/>
</g>
</svg>
