<?xml version="1.0" encoding="utf-8"?>
<!-- Generator: Adobe Illustrator 26.1.0, SVG Export Plug-In . SVG Version: 6.00 Build 0)  -->
<svg version="1.1" id="svg2816" xmlns:svg="http://www.w3.org/2000/svg"
	 xmlns="http://www.w3.org/2000/svg" xmlns:xlink="http://www.w3.org/1999/xlink" x="0px" y="0px" viewBox="0 0 315 300"
	 style="enable-background:new 0 0 315 300;" xml:space="preserve">
<style type="text/css">
	.st0{fill:#10A950;}
	.st1{fill:#12924F;}
	.st2{fill:#22323D;}
	.st3{fill:#B7C3C1;}
</style>
<g>
	<path class="st0" d="M56.6,157.2c-0.7-0.3-1.2-0.8-1.7-1.2c-5.1-4.4-8.6-9.8-10.3-16.4c-0.8-3.2-0.9-6.4-0.6-9.7
		c0.3-3.6,1.1-7.1,2.4-10.5c1.9-4.9,4.9-9.1,8.9-12.6c1.1-0.9,2.1-1.9,2-3.5c0,0,0.1,0,0.1,0c0.1,0.1,0.1,0.3,0.2,0.4
		c0,0.1-0.1,0.1-0.1,0.2c0.2,0.9,0.2,1.8,0.2,2.7c0.1,1.6,0.1,3.2,0.2,4.8c0.1,1.7,0,3.4,0.1,5.1c0.1,3.5,0,7,0.1,10.5
		c0.1,3.1,0,6.1,0.1,9.2c0.1,2,0,4.1-0.1,6.1c0,0.6-0.1,1.2-0.1,1.7c0,2-0.3,3.9-0.3,5.9c-0.2,0-0.1,0.2-0.1,0.3
		c-0.1,1.4-0.2,2.7-0.5,4.1C57.1,155.3,56.8,156.3,56.6,157.2z"/>
	<path class="st1" d="M57.8,149.9c-0.1-2,0.3-3.9,0.3-5.9c0-0.6,0-1.2,0.1-1.7c0.1-2,0.1-4.1,0.1-6.1c-0.1-3.1,0-6.1-0.1-9.2
		c-0.1-3.5,0-7-0.1-10.5c-0.1-1.7,0-3.4-0.1-5.1c-0.1-1.6-0.1-3.2-0.2-4.8c-0.1-0.9-0.1-1.8-0.2-2.7c0-0.1,0-0.1,0.1-0.2
		c0.2,0.5,0.5,1,0.7,1.4c0.7,1.4,1.7,2.7,2.8,3.8c2.3,2.3,4.4,4.9,5.9,7.8c1.9,3.5,3.2,7.3,4,11.2c0.5,2.8,0.6,5.7,0.2,8.5
		c-0.6,5.6-2.6,10.7-6.1,15.1c-1.4,1.9-3.1,3.5-5,4.9c-0.1,0.1-0.2,0.1-0.2,0.1c-0.6-0.4-1-0.9-1.2-1.6
		C58,153.5,57.9,151.7,57.8,149.9z"/>
	<path class="st2" d="M220,123.5c1.9,0,3.8,0,5.7,0c2.6,0,5.1,0.3,7.4,1.5c3.8,1.8,6,4.9,6.8,9c0.6,3.1,0.4,6.1-0.9,9
		c-1.6,3.8-4.6,6.1-8.3,7.5c-2.5,0.9-5.1,1.2-7.7,1.1c-3.6,0-7.1-0.1-10.7-0.1c-0.5,0-0.5-0.2-0.4-0.5c0-0.2,0.1-0.3,0.1-0.5
		c0.2-0.5,0.4-0.8,1-0.9c1.9-0.2,2.3-0.6,2.4-2.5c0.1-1.4,0.1-2.8,0.1-4.2c0-5,0.1-9.9,0-14.9c0-1.4-0.5-1.9-1.8-2.3
		c-0.7-0.2-1.5-0.3-2.2-0.4c-0.4,0-0.5-0.1-0.3-0.5c0.5-1.3,0.6-1.3,1.9-1.2C215.4,123.6,217.7,123.7,220,123.5z M219.9,136.7
		c0,3,0,6.3,0.1,9.6c0.1,1.3,0.6,2.1,1.9,2.6c1.9,0.7,4,0.8,5.9,0.3c3.3-0.7,5.4-2.9,6.6-5.9c1-2.4,1.1-5,0.8-7.6
		c-0.4-3.7-2.1-6.6-5.4-8.5c-2.8-1.6-5.9-1.8-9-1.5c-0.7,0.1-0.9,0.4-0.9,1.1C219.9,130,219.9,133.2,219.9,136.7z"/>
	<path class="st2" d="M259.8,135.7c0.4,0.1,0.8,0.2,1.1,0.3c1.4,0.5,2.7,1.1,3.7,2.3c1.8,1.9,2.2,5.1,0.9,7.6c-1,2-2.7,3.3-4.6,4.2
		c-2.3,1.1-4.7,1.5-7.2,1.5c-3.3,0-6.6-0.1-9.9-0.1c-0.4,0-0.7,0-1.1,0c-0.3,0-0.4-0.1-0.3-0.4c0.1-0.4,0.3-0.8,0.5-1.2
		c0.1-0.2,0.3-0.2,0.4-0.2c0.7,0,1.4-0.2,2-0.4c0.5-0.1,0.8-0.5,0.9-1c0.1-0.6,0.2-1.2,0.2-1.8c0.1-6.2,0.1-12.3,0.1-18.5
		c0-1.8-0.4-2.2-2.2-2.4c-0.5-0.1-1.1-0.2-1.6-0.2c-0.3,0-0.3-0.2-0.3-0.4c0.1-0.4,0.3-0.8,0.5-1.2c0.1-0.1,0.2-0.2,0.4-0.2
		c4.3,0.3,8.7,0,13,0.1c1.4,0,2.8,0.3,4.1,0.8c2.1,0.9,3.4,2.5,3.6,4.8c0.2,2.3-0.7,4.1-2.5,5.4
		C261.1,135.1,260.5,135.4,259.8,135.7z M253,137.5c-0.5,0-1.1,0-1.6,0c-0.3,0-0.5,0.1-0.5,0.5c0,2.9,0,5.8,0.1,8.7
		c0.1,1.4,0.9,2.4,2.3,2.6c1,0.2,1.9,0.2,2.9,0.2c3.1-0.2,5-1.9,5.4-4.9c0.4-3-0.8-5.4-3.9-6.5C256.2,137.6,254.6,137.5,253,137.5z
		 M250.9,130.8C250.9,130.8,250.9,130.8,250.9,130.8c-0.1,1.4-0.1,2.8-0.1,4.1c0,0.3,0.1,0.5,0.5,0.5c1.5,0,3,0.1,4.5,0
		c2-0.2,3.2-1.1,3.7-3c0.1-0.4,0.2-0.9,0.2-1.4c0.1-2.7-1.2-4.4-3.8-5.1c-1.3-0.4-2.7-0.4-4-0.3c-0.8,0-1,0.3-1,1.1
		C250.9,128.1,250.9,129.4,250.9,130.8z"/>
	<path class="st2" d="M87.5,143.2c0,1.6,0,3.2,0,4.9c0,1.1,0.3,1.5,1.4,1.7c0.3,0.1,0.6,0.1,0.9,0.1c0.5,0,0.5,0.3,0.5,0.6
		c0,0.9,0,1-1,0.9c-2.6-0.2-5.3-0.1-7.9,0c-0.4,0-0.6-0.2-0.6-0.5c0-0.2,0-0.4,0-0.6c0-0.3,0.1-0.5,0.5-0.5c0.5-0.1,1-0.2,1.5-0.3
		c0.6-0.1,0.9-0.5,1-1.1c0.1-0.9,0.1-1.9,0.1-2.8c0-2.6,0-5.3,0-7.9c0-0.6-0.2-1-0.8-1.3c-0.6-0.3-1.3-0.6-2-0.8
		c-0.3-0.1-0.6-0.2-0.6-0.6c0-0.4,0.4-0.5,0.7-0.6c1.6-0.2,3.1-0.6,4.6-1.1c0.4-0.1,0.8-0.2,1.2-0.4c0.3-0.1,0.4,0,0.4,0.2
		c0,0.3,0,0.6,0,0.9c0,0.4,0,0.7-0.1,1.1c0,0.2,0,0.3,0.2,0.4c0.2,0.1,0.3,0,0.5-0.1c0.4-0.3,0.8-0.6,1.3-0.9
		c1.1-0.7,2.2-1.3,3.4-1.6c1.9-0.5,3.6,0,5,1.4c0.3,0.3,0.6,0.7,0.8,1.1c0.2,0.3,0.4,0.4,0.7,0.1c1.2-0.9,2.4-1.6,3.7-2.2
		c3.2-1.4,7.1-0.3,8.1,4.3c0.2,0.9,0.3,1.9,0.3,2.8c0,2.5,0,5-0.1,7.5c0,0.8,0.2,1.1,0.9,1.4c0.6,0.2,1.2,0.3,1.8,0.4
		c0.1,0,0.2,0,0.2,0c0.3,0.4,0,0.8,0,1.2c0,0.3-0.2,0.4-0.4,0.3c-1.2-0.1-2.4-0.1-3.6-0.1c-1.6,0-3.2,0-4.8,0.1
		c-0.3,0-0.4,0-0.4-0.3c0-0.1,0-0.1,0-0.2c-0.1-0.9-0.1-0.9,0.8-1.1c1.6-0.3,1.8-0.6,1.8-2.2c0-2.4,0.1-4.8,0-7.2
		c0-0.7-0.1-1.3-0.3-2c-0.7-2.1-2.8-3.1-5.2-2.5c-0.9,0.2-1.8,0.7-2.6,1.2c-0.3,0.2-0.4,0.4-0.3,0.7c0.2,1.1,0.2,2.2,0.2,3.3
		c0,2.3,0,4.7,0,7c0,1,0.3,1.3,1.2,1.5c0.4,0.1,0.8,0.2,1.3,0.3c0.3,0,0.4,0.2,0.4,0.4c0,0.1,0,0.2,0,0.2c0,0.8-0.1,0.9-0.9,0.9
		c-2.6-0.1-5.3-0.1-7.9,0c-0.4,0-0.6-0.2-0.6-0.5c0-0.2,0-0.4,0-0.6c0-0.3,0.2-0.4,0.5-0.5c0.4-0.1,0.9-0.2,1.3-0.3
		c0.7-0.2,1.1-0.5,1.1-1.3c0.2-3,0.3-6.1,0-9.1c-0.2-1.8-1.3-3.2-2.8-3.6c-1.1-0.3-2.1-0.1-3.1,0.3c-0.6,0.2-1.2,0.6-1.8,1
		c-0.4,0.3-0.6,0.7-0.6,1.2C87.4,139.9,87.4,141.5,87.5,143.2C87.4,143.2,87.5,143.2,87.5,143.2z"/>
	<path class="st2" d="M183.8,133.2c0.7,2-0.6,3.6-2.6,3.3c-0.3,0-0.7-0.3-0.9-0.1c-0.2,0.2,0,0.6,0.1,0.9c0.2,1.1,0.2,2.1,0,3.1
		c-0.5,2.4-2.1,3.8-4.2,4.8c-1.1,0.5-2.3,0.8-3.6,0.8c-0.4,0-0.7,0.1-1,0.3c-0.7,0.5-0.7,1.4,0.1,1.9c0.5,0.3,1,0.4,1.5,0.4
		c1.8,0.1,3.7,0.2,5.5,0.5c0.9,0.1,1.8,0.2,2.6,0.7c1.9,1,2.8,3.2,2.2,5.6c-0.5,2-1.7,3.5-3.4,4.6c-3.3,2.3-6.9,3.1-10.8,2
		c-2.1-0.6-3.6-1.9-4.3-4.1c-0.4-1.2-0.1-2.3,0.8-3.2c1-1,2.1-1.8,3.3-2.6c0.1-0.1,0.4-0.2,0.3-0.4c0-0.2-0.3-0.2-0.4-0.3
		c-1-0.4-1.8-1-2.2-2c-0.3-0.8-0.3-1,0.4-1.4c0.8-0.5,1.6-0.9,2.4-1.5c0.4-0.3,0.4-0.5-0.1-0.7c-2.8-1-3.9-3.1-4-5.9
		c0-2.7,1.3-4.6,3.6-5.8c1.3-0.7,2.6-1.1,4.1-1.3c1.7-0.2,3.2,0.2,4.8,0.8c0.8,0.3,1.5,0.5,2.4,0.5
		C181.6,134.3,182.8,134.2,183.8,133.2z M173.5,152.3c-0.3,0-0.6,0-0.9,0c-1.6,0-3.5,1.2-4.1,2.7c-0.2,0.5-0.3,1-0.2,1.5
		c0.1,1.3,0.9,2.2,2,2.9c1.3,0.9,2.9,1.1,4.4,1c1.3,0,2.6-0.2,3.7-1c1-0.7,1.8-1.6,1.9-2.8c0.2-1.8-0.5-3-2.2-3.6
		C176.6,152.5,175.1,152.4,173.5,152.3z M177,139.9c0-1.3-0.2-2.6-1.1-3.7c-1-1.3-2.5-1.8-4.1-1.4c-1.5,0.3-2.3,1.4-2.6,2.9
		c-0.3,1.6-0.1,3.1,0.6,4.6c0.4,0.9,1.1,1.6,2,2c1.7,0.7,4,0.4,4.7-2.2C176.9,141.2,177,140.6,177,139.9z"/>
	<path class="st2" d="M147.1,142.8c0,2.3,0,3.9,0.1,5.5c0,1,0.2,1.2,1.2,1.5c0.4,0.1,0.9,0.1,1.3,0.2c0.2,0,0.3,0.1,0.3,0.3
		c0,0.1,0,0.1,0,0.2c0,1.2-0.1,1.3-1.3,1.2c-2.6-0.1-5.3-0.1-7.9,0c-0.4,0-0.5-0.1-0.6-0.5c0-0.1,0-0.2,0-0.4c0-0.8,0-0.9,0.9-1.1
		c0.2,0,0.4-0.1,0.6-0.1c1.1-0.2,1.3-0.5,1.4-1.6c0.2-3.4,0.1-6.9,0.1-10.3c0-0.5-0.2-0.8-0.6-1c-0.6-0.3-1.2-0.6-1.8-0.8
		c-0.2-0.1-0.4-0.1-0.6-0.2c-0.5-0.3-0.5-0.8,0-1.1c0.2-0.1,0.4-0.2,0.6-0.2c2-0.3,3.9-0.8,5.8-1.5c0.2-0.1,0.3,0,0.4,0.1
		c0.1,0.2,0.1,0.4,0.1,0.7c0,0.6-0.1,1.1-0.1,1.7c0,0.1-0.1,0.3,0.1,0.3c0.1,0.1,0.2-0.1,0.3-0.1c1-0.8,2.1-1.6,3.3-2.1
		c3.8-1.8,7.6,0.3,8.3,4.4c0.2,1,0.2,2,0.2,3c0,2.2,0,4.4,0,6.6c0,0.3,0,0.7,0,1c0,0.5,0.2,0.8,0.7,1c0.6,0.2,1.2,0.4,1.8,0.4
		c0.3,0,0.5,0.2,0.5,0.5c0,0.1,0,0.2,0,0.2c0,1-0.1,1.1-1.1,1.1c-2.7-0.1-5.3-0.1-8,0c-0.4,0-0.5-0.1-0.5-0.4c0-0.1,0-0.2,0-0.2
		c-0.1-1,0-1.1,1-1.2c1.5-0.2,1.8-0.5,1.8-2c0-2.6,0-5.2-0.1-7.8c-0.1-1.7-0.7-3-2.3-3.8c-1.3-0.6-2.6-0.4-3.9,0
		c-0.4,0.1-0.8,0.4-1.1,0.6c-0.7,0.4-1,1-1,1.7C147.1,140.2,147.1,141.8,147.1,142.8z"/>
	<path class="st2" d="M136.7,141.9c0,2.8-0.7,5.2-2.6,7c-2.4,2.3-5.3,3.3-8.6,2.9c-3.2-0.4-5.5-1.9-6.8-4.9c-0.5-1-0.7-2.1-0.8-3.1
		c-0.2-1.5-0.1-2.9,0.3-4.3c0.6-1.9,1.7-3.5,3.4-4.6c2.7-1.7,5.6-2.4,8.7-1.7c3.4,0.8,5.8,3.5,6.3,7
		C136.7,140.8,136.7,141.5,136.7,141.9z M121.8,141.5c0,1,0.2,2.5,0.7,3.9c0.7,1.8,1.7,3.4,3.6,4.2c2.5,1,5.4,0.4,6.2-2.8
		c0.7-2.7,0.6-5.3-0.5-7.9c-0.7-1.7-1.8-3-3.5-3.6c-3-1.1-5.4,0.3-6.2,2.9C121.9,139.1,121.8,140.1,121.8,141.5z"/>
	<path class="st2" d="M205.9,142.3c0,2.5-0.7,4.9-2.8,6.8c-2.4,2.2-5.2,3.1-8.4,2.7c-2.8-0.3-5-1.6-6.4-4.1c-0.6-1.1-1-2.4-1.2-3.6
		c-0.3-1.8-0.2-3.6,0.5-5.3c0.8-2.1,2.4-3.6,4.4-4.6c2.4-1.1,4.8-1.6,7.4-0.9c3.4,0.8,5.9,3.6,6.3,7.1
		C205.9,140.9,205.9,141.5,205.9,142.3z M201.9,143.3c0-0.4,0-0.9-0.1-1.4c-0.2-1.8-0.7-3.5-1.8-5c-1.1-1.4-2.6-2.1-4.4-2.2
		c-2,0-3.7,1.3-4.2,3.4c-0.7,2.9-0.5,5.7,0.9,8.4c0.7,1.4,1.7,2.5,3.2,3c2.6,0.9,5.3,0.1,6.1-3.1
		C201.8,145.5,201.9,144.5,201.9,143.3z"/>
	<path class="st3" d="M57.8,149.9c0.1,1.8,0.2,3.5,0.9,5.2c0.3,0.6,0.6,1.2,1.2,1.6c-0.2,1-0.4,2.1-0.6,3.1
		c-0.3,1.4-0.5,2.8-0.6,4.2c0,0.4-0.1,0.6-0.6,0.5c-0.1,0-0.3,0-0.4,0c-0.3,0-0.4-0.1-0.4-0.4c-0.2-2.1-0.4-4.2-0.7-6.3
		c0-0.2,0-0.5,0-0.7c0.2-1,0.5-1.9,0.7-2.9c0.2-1.4,0.3-2.7,0.5-4.1C57.7,150.2,57.6,150,57.8,149.9z"/>
	<path class="st2" d="M269.7,148c0-1.9,1.6-3.5,3.5-3.5c2,0,3.5,1.6,3.5,3.5c0,1.9-1.6,3.5-3.5,3.5C271.2,151.5,269.7,150,269.7,148
		z M276.4,148c0-1.8-1.4-3.2-3.1-3.2c-1.8,0-3.2,1.4-3.2,3.2c0,1.8,1.4,3.2,3.2,3.2C274.9,151.2,276.3,149.8,276.4,148z"/>
	<path class="st2" d="M274.6,150.2c-0.4,0.1-0.6,0-0.8-0.3c-0.2-0.4-0.4-0.9-0.6-1.3c-0.1-0.4-0.4-0.3-0.7-0.2
		c-0.3,0-0.2,0.3-0.2,0.4c0,0.4,0,0.8,0,1.2c0,0.2,0,0.3-0.2,0.3c-0.2,0-0.3-0.1-0.3-0.3c0-1.3,0-2.6,0-3.9c0-0.2,0-0.3,0.3-0.3
		c0.4,0,0.9,0,1.3,0c0.6,0,0.9,0.3,1,0.8c0.1,0.7,0,1.2-0.6,1.4c-0.2,0.1-0.2,0.2-0.1,0.4C274.1,149.1,274.3,149.6,274.6,150.2z
		 M272.4,147c0,1-0.1,0.8,0.5,0.8c0.9,0,1.1-0.2,1.1-0.8c0-0.6-0.2-0.7-1.1-0.8C272.2,146.2,272.5,146.7,272.4,147z"/>
</g>
</svg>
