<?xml version="1.0" encoding="utf-8"?>
<!-- Generator: Adobe Illustrator 26.1.0, SVG Export Plug-In . SVG Version: 6.00 Build 0)  -->
<svg version="1.1" id="svg2816" xmlns:svg="http://www.w3.org/2000/svg"
	 xmlns="http://www.w3.org/2000/svg" xmlns:xlink="http://www.w3.org/1999/xlink" x="0px" y="0px" viewBox="0 0 315 300"
	 style="enable-background:new 0 0 315 300;" xml:space="preserve">
<style type="text/css">
	.st0{fill:#FDFBFB;}
</style>
<g>
	<path class="st0" d="M41.2,130.7c3.7,0,7.4,0,11.1,0c11,0.1,19.7,8.7,19.7,19.5c0,10.7-8.7,19.3-19.6,19.4c-7.5,0-14.9,0-22.4,0
		c-10.3-0.1-18.6-7.6-19.6-17.7c-1-9.9,6-19,16.1-20.9c1.2-0.2,2.4-0.3,3.6-0.3C33.8,130.7,37.5,130.7,41.2,130.7z M41.1,162.7
		c3.4,0,6.9,0,10.3,0c1,0,2.1,0,3.1-0.2c6.3-1.3,10.7-7.1,10.1-13.2c-0.7-6.8-5.8-11.6-12.7-11.7c-7.1-0.1-14.3-0.1-21.4,0
		c-7.3,0.1-12.8,5.7-12.8,12.7c0,7,5.6,12.4,12.9,12.5C34.1,162.8,37.6,162.7,41.1,162.7z"/>
	<path class="st0" d="M313.1,162.7c-1.5,2.3-2.8,4.3-4,6.3c-0.4,0.6-0.8,0.6-1.4,0.6c-7.6,0-15.2,0.1-22.7-0.1
		c-10.3-0.2-18.6-8.6-18.9-18.9c-0.4-10,7.3-19,17.5-19.8c9.5-0.7,19.1-0.1,29-0.3c-1.5,2.3-2.8,4.4-4.1,6.5
		c-0.4,0.7-1.1,0.4-1.7,0.4c-6.9,0-13.7-0.1-20.6,0c-5.4,0.1-9.3,2.7-11.7,7.6c-0.6,1.2-0.5,1.7,1.1,1.7c10.9-0.1,21.8,0,32.7,0
		c0.6,0,1.2,0,2.2,0c-1.5,2.3-2.8,4.4-4.2,6.4c-0.5,0.7-1.2,0.4-1.8,0.4c-9.5,0-19,0-28.5,0c-2,0-2.1,0.1-1.2,1.9
		c2.4,4.6,6.1,7.2,11.4,7.2c8.5,0,16.9,0,25.4,0C312,162.7,312.4,162.7,313.1,162.7z"/>
	<path class="st0" d="M105.3,157c5.2,4.3,9.9,8.3,15,12.6c-3.8,0-7.1,0-10.5,0c-0.4,0-0.7-0.3-1-0.5c-7-6.1-14-12.2-21-18.3
		c-0.1-0.1-0.3-0.3-0.6-0.7c1.8,0,3.3,0,4.8,0c5.2,0,10.4,0,15.6,0c4,0,6.8-2.7,6.8-6.3c0-3.6-2.9-6.3-6.9-6.3c-7.5,0-15,0-22.6,0
		c-1.5,0-1.7,0.5-1.7,1.8c0.1,9.6,0,19.1,0.1,28.7c0,1.5-0.4,1.9-1.8,1.8c-1.4-0.1-2.8-0.1-4.1,0c-1.3,0.1-1.5-0.3-1.5-1.6
		c0-11.4,0-22.7,0-34.1c0-3.4,0-3.4,3.4-3.4c9.6,0,19.1,0,28.7,0c7,0,12.1,4,13.6,10.3c1.8,7.9-4.1,15.7-12.3,16
		C108.2,157.1,107,157,105.3,157z"/>
	<path class="st0" d="M178.7,169.7c-2.9,0-5.5,0-8.2,0c-0.7,0-0.9-0.5-1.2-0.9c-0.9-1.5-1.8-2.9-2.6-4.4c-0.6-1.2-1.4-1.6-2.7-1.6
		c-5.6,0.1-11.3,0-16.9,0.1c-1.2,0-1.9-0.4-2.5-1.4c-1-1.8-2.2-3.5-3.4-5.3c0.7-0.4,1.3-0.2,1.9-0.2c5.5,0,10.9,0,16.4,0
		c0.9,0,1.6,0,0.8-1.2c-3.3-5.2-6.5-10.4-9.7-15.6c-0.7,0.3-0.9,0.9-1.2,1.4c-5.9,9.3-11.8,18.6-17.7,28c-0.5,0.8-1.1,1.2-2.1,1.2
		c-2.4-0.1-4.7,0-7.1,0c-0.2-0.6,0.2-0.9,0.4-1.3c7.4-11.7,14.9-23.3,22.4-35c2.7-4.1,7.5-4.1,10.1,0c7.5,11.7,14.9,23.3,22.4,35
		C178.2,168.7,178.4,169,178.7,169.7z"/>
	<path class="st0" d="M221.3,130.9c-1.4,2.2-2.7,4.2-4,6.2c-0.4,0.7-1.1,0.5-1.6,0.5c-6.8,0-13.6,0-20.4,0
		c-6.5,0-11.4,4.1-12.7,10.2c-1.5,7.4,4.1,14.8,11.7,14.9c8.5,0.2,17,0.1,25.6,0.1c0.6,0,1.2,0,2.2,0c-1.5,2.3-2.9,4.4-4.2,6.5
		c-0.3,0.5-0.8,0.4-1.2,0.4c-7.7,0-15.4,0.1-23.1-0.1c-10.2-0.3-18.5-9.1-18.5-19.5c0-10.5,8.3-19.1,18.9-19.4
		c8.8-0.2,17.7,0,26.6,0C220.6,130.7,220.8,130.8,221.3,130.9z"/>
	<path class="st0" d="M267.9,162.8c-1.5,2.4-2.9,4.4-4.2,6.5c-0.3,0.5-0.9,0.4-1.3,0.4c-10.9,0-21.9,0-32.8,0
		c-2.6,0-4.1-1.5-4.1-4.1c0-11.1,0-22.3,0-33.4c0-1.1,0.2-1.5,1.4-1.4c1.5,0.1,3.1,0.1,4.6,0c1.2-0.1,1.5,0.4,1.4,1.5
		c0,9.6,0,19.2-0.1,28.8c0,1.4,0.3,1.8,1.8,1.8c10.4-0.1,20.8,0,31.2,0C266.4,162.8,267,162.8,267.9,162.8z"/>
</g>
</svg>
