<?xml version="1.0" encoding="utf-8"?>
<!-- Generator: Adobe Illustrator 26.1.0, SVG Export Plug-In . SVG Version: 6.00 Build 0)  -->
<svg version="1.1" id="svg2816" xmlns:svg="http://www.w3.org/2000/svg"
	 xmlns="http://www.w3.org/2000/svg" xmlns:xlink="http://www.w3.org/1999/xlink" x="0px" y="0px" viewBox="0 0 315 300"
	 style="enable-background:new 0 0 315 300;" xml:space="preserve">
<style type="text/css">
	.st0{fill:#D72C1F;}
	.st1{fill:#636365;}
	.st2{fill:#A41D11;}
	.st3{fill:#FEFEFE;}
	.st4{fill:#AC2115;}
	.st5{fill:#790B00;}
</style>
<g>
	<path class="st0" d="M148.4,18.3c2.9-0.9,5.8-1.9,8.7-2.8c1.2-0.2,2.4-0.3,3.6-0.6c3.2-0.6,6.2,0.1,9.3,0.6
		c2.7,0.9,5.4,1.9,8.1,2.8c1.5,0.7,3,1.3,4.6,1.8c0.4,0.3,0.9,0.5,1.5,0.6c1.1,0.5,2.3,0.9,3.4,1.4c1.3,0.5,2.6,1.2,4.1,1.5
		c1.3,0.7,2.8,1.2,4.2,1.7c1.5,0.7,3.1,1.4,4.7,1.8c1.1,0.6,2.3,1.1,3.5,1.4c1,0.5,2,0.9,3.2,1.2c1.8,1,3.8,1.7,5.8,2.3
		c1.4,0.7,2.9,1.3,4.4,1.7c0.3,0.1,0.6,0.2,0.9,0.3c1.1,0.6,2.3,1.1,3.5,1.4c1.5,0.7,3,1.3,4.6,1.8c2.8,1.3,5.8,2.3,8.7,3.4
		c1.3,0.6,2.6,1.2,4,1.5c0.3,0.3,0.7,0.5,1.2,0.5c1.1,0.4,2.3,0.9,3.4,1.3c1.4,0.6,2.9,1.2,4.4,1.6c1.4,0.6,2.8,1.1,4.2,1.7
		c1.7,0.8,3.4,1.5,4.2,3.4c0.1,0.3,0.1,0.6,0.2,1c-0.3,0.2-0.2,0.6-0.3,0.9c-1.8,2.5-4.5,4-7.2,5.3c-5,2.6-10.2,4.7-15.3,7
		c-11,4.8-22.1,9.6-33.1,14.4c-10.6,4.6-21.2,9.3-31.6,14.2c-6.1,2.9-12.5,3.4-18.9,0.6c-5.1-2.2-10.3-4.5-15.4-6.7
		c-10.1-4.2-20.2-8.4-30.3-12.6c-7-2.9-14-5.8-21-8.8c-4.7-2-9.4-3.8-13.9-6.2c-2.4-1.3-5-2.5-6-5.4c0-1.5,1.1-2.3,2-3.2
		c0.3-0.2,0.6-0.4,0.8-0.6c1.4-0.7,2.7-1.3,4.1-2c1.5-0.6,2.9-1.1,4.4-1.7c1.5-0.6,3-1.2,4.5-1.8c3-1,5.9-2.1,8.7-3.4
		c1.4-0.3,2.7-0.9,4-1.5c1.4-0.6,2.9-1.1,4.3-1.7c0.1,0,0.2,0,0.3-0.1c1.3-0.5,2.5-1,3.8-1.5c1.6-0.6,3.2-1.3,4.9-1.9
		c0.7-0.1,1.4-0.5,2-0.8c0.8-0.1,1.6-0.5,2.3-0.9c1.5-0.4,3-1,4.4-1.7c2.8-0.9,5.6-2.1,8.3-3.2c1.4-0.5,2.7-1.1,4.1-1.6
		c1.2-0.5,2.5-0.9,3.7-1.4c0.4-0.2,0.8-0.3,1.2-0.5c1.3-0.5,2.7-1,4-1.5c2.9-1.1,5.8-2.2,8.7-3.3C145.6,19.4,147,18.8,148.4,18.3z
		 M205.3,41.7c-0.1,0-0.2,0-0.3,0c-0.5,0-0.9,0.1-1.4,0.3c-6.4,2.5-12.7,5-19.1,7.6c-2.8,1.1-5.7,2.3-8.8,3.5
		c2.3,0.9,4.4,1.6,6.3,2.4c6.2,2.4,12.3,4.8,18.5,7.3c1.7,0.7,3.1,0.6,4.5-0.6c0.7,0,1.3-0.3,1.9-0.6c6.9-2.7,13.7-5.4,20.6-8.2
		c1.2-0.5,2.5-1,4-1.7c-8.9-3.5-17.4-6.8-25.9-10.1C205.5,41.6,205.4,41.5,205.3,41.7z M120.7,62.6c3.9,0,8-0.3,12-1.3
		c3.5-0.9,7-1.9,9.8-4.4c2.5-2.2,2.5-5,0-7.2c-1.8-1.6-3.9-2.6-6.1-3.3c-9.8-3.1-19.7-3.1-29.6-0.7c-2.8,0.7-5.6,1.8-7.9,3.6
		c-3.1,2.4-3.1,5.7,0,8.1c1.7,1.3,3.6,2.2,5.6,2.9C109.8,62,115.1,62.5,120.7,62.6z M133,69.6c0,0.1,0,0.2,0,0.3
		c0.2,0,0.4,0,0.5,0.1c9.7,4.1,19.5,8.2,29.2,12.3c0.8,0.3,1.1,0.2,1.6-0.5c1.9-2.8,3.8-5.6,5.7-8.4c2.4-3.5,4.8-7,7.3-10.7
		C162.5,65.1,147.7,67.4,133,69.6z M184.8,39c0-0.3-0.2-0.4-0.4-0.4c-3.3-1.2-6.7-2.3-9.9-3.6c-2.6-1-2.5-0.4-1.3-3
		c0.8-2,1.7-3.9,2.6-6.1c-3.7,1.2-7.2,2.3-10.6,3.5c-1.4,0.5-2.5,0.5-3.8,0c-2-0.9-4.1-1.6-6.1-2.4c-1.7-0.7-3.5-1.3-5.5-2.1
		c1.3,2.5,2.4,4.7,3.6,6.9c0.4,0.8,0.4,1-0.4,1.3c-2.1,0.7-4.2,1.5-6.3,2.3c-2.2,0.8-4.4,1.6-6.6,2.4c5.9,0.7,11.8,1.2,17.7,1.6
		c0.8,0.1,1.3,0.3,1.7,1.1c0.9,1.8,2,3.5,3,5.2c0.8,1.3,1.4,2.7,2.5,3.9c1.1-2.7,2.2-5.4,3.3-8c0.2-0.4,0.2-1,0.9-1
		c0.9,0,1.7-0.2,2.6-0.3C176,39.9,180.4,39.4,184.8,39z"/>
	<path class="st1" d="M110,274.6c-3.6,0.5-7.3,1.1-11,0.8c-0.9-0.1-1.7-0.1-2.6-0.2c-0.2,0-0.4,0-0.6,0l0,0
		c-1.2-0.3-2.5-0.6-3.7-0.8c-1.4-0.5-2.9-1-4.3-1.5c-3.1-1.6-6-3.3-8.6-5.5c-0.1-0.1-0.2-0.1-0.3-0.2c-1.3-1.3-2.5-2.7-3.8-4
		c-0.1-0.1-0.2-0.3-0.3-0.4c-0.9-1.3-1.8-2.6-2.7-4c-0.5-1-0.9-2.2-1.7-3c0.1-0.6-0.3-1.1-0.5-1.6c-0.4-1.3-0.8-2.6-1.3-4
		c-0.3-1.4-0.6-2.9-0.9-4.3c-0.1-1.4-0.2-2.9-0.3-4.3c0-0.4,0-0.8,0-1.2c0-0.1,0-0.2,0-0.3c0.3-0.9,0.3-1.9,0.3-2.9
		c0.3-1.6,0.6-3.3,0.9-4.9c0.4-1.3,0.9-2.5,1.3-3.8c0.2-0.6,0.4-1.1,0.6-1.7c0.7-0.8,1-1.7,1.4-2.6c0.9-1.4,1.9-2.8,2.8-4.2
		c1.3-1.4,2.6-2.8,3.9-4.2c0.3-0.1,0.5-0.3,0.6-0.6c2.6-2.2,5.6-3.9,8.6-5.5c1.2-0.4,2.5-0.8,3.7-1.3c4.6-1.3,9.4-1.4,14.1-1
		c2.5,0.5,5,1.2,7.5,2c3,1.3,5.7,3,8.4,4.9c0.6,0.5,1.2,1,1.7,1.5c1.1,1.2,2.1,2.3,3.2,3.5c0.2,0.3,0.4,0.5,0.6,0.8
		c1.8,2.6,3.3,5.5,4.6,8.4c0.4,1.4,0.8,2.9,1.3,4.3c0.2,1.3,0.5,2.5,0.7,3.8c0.1,1.6,0.3,3.3-0.1,4.9c-0.4,0.9-0.7,1.8-1.4,2.6
		c-1.5,1.6-3.5,2.1-5.6,2.2c-1.5,0-2.9,0-4.4,0c-1.4-0.1-2.8-0.1-4.3,0c-1.5-0.2-2.9-0.1-4.4,0c-1.4-0.1-2.8-0.1-4.3,0
		c-1.5,0-2.9,0-4.4,0c-1.4-0.1-2.8-0.1-4.3,0c-1.5,0-2.9,0-4.4,0c-1.4-0.1-2.8-0.1-4.3,0c-1.5,0-2.9,0-4.4,0c-1.3,0-2.6,0-3.9-0.1
		c-0.6,0-0.7,0.1-0.5,0.6c0.4,1.1,0.6,2.3,1.3,3.3c1.5,3.7,4.1,6.5,7.6,8.4c0.4,0.2,0.8,0.4,1.1,0.6c0.9,0.6,1.9,0.9,2.8,1.2
		c1.5,0.7,3.1,0.9,4.7,1c1.4,0.1,2.9,0.2,4.3,0c1.3-0.1,2.6-0.2,3.8-0.7c1.7-0.3,3.3-0.9,4.7-1.8c0.2,0,0.4-0.1,0.5-0.3
		c1.3-0.8,2.5-1.9,4-2.4c1.1-0.3,2.3-0.3,3.5-0.3c3.8,1,5.6,3.4,5.4,7.5c-0.1,0.2-0.1,0.4-0.2,0.6c-0.5,1.4-1.6,2.4-2.6,3.5
		c0,0,0,0,0,0c-0.1,0.1-0.2,0.2-0.3,0.3c-0.5,0.4-0.9,0.7-1.4,1.1c-1.5,1-2.9,1.9-4.4,2.9l0,0c-1.4,0.6-2.8,1.2-4.3,1.8
		C112.6,273.9,111.3,274.3,110,274.6z M105.5,234.7c4.8,0,9.7,0.2,14.5,0.4c0.3,0,0.7,0.5,0.7-0.2c0-2-1.2-3.5-2.3-4.9
		c-0.3-0.7-0.8-1.3-1.4-1.7c-0.7-1.1-1.7-1.9-2.8-2.6c-0.7-0.7-1.5-1.3-2.4-1.7c-0.6-0.5-1.3-0.9-2-1.1c-1.3-0.7-2.6-1.3-4-1.5
		c-1.5-0.6-3-0.8-4.6-0.9c-1.6-0.1-3.1,0-4.6,0.6c-1.7,0.2-3.2,0.9-4.6,1.7c-0.8,0.3-1.6,0.8-2.2,1.4c-0.9,0.4-1.6,1-2.1,1.8
		c-0.8,0.7-1.4,1.5-2,2.3c-0.4,0.7-1,1.3-1.3,2c-0.7,1.4-2,3.2-1.5,4.8c0,0.1,1.9,0,2,0C91.6,234,98.6,234.7,105.5,234.7z"/>
	<path class="st1" d="M29.4,219.8c0-1.4,0-2.9,0-4.3c0-1.4,0.1-2.7,0.6-4c0.5-0.7,1-1.3,1.4-2c2.6-2.1,5.5-2.6,8.6-1.4
		c2.7,1.6,4.3,3.8,4.1,7.3c1.3-1.6,2.7-2.5,4.1-3.4c1.6-1,3.4-1.6,5.1-2.6c1.4-0.4,2.7-0.8,4.1-1.2c1.7-0.3,3.5-0.6,5.2-0.8
		c3.1-0.3,5.7,0.5,7.7,3c0.1,0.2,0.3,0.4,0.4,0.7c0.7,1.6,1,3.2,0.7,4.9c-0.9,2.7-2.6,4.6-5.3,5.5c-1.4,0.1-2.9,0.3-4.3,0.4
		c-2,0.3-3.7,1.2-5.4,2.2c-3.4,2-5.6,5.2-7.6,8.4c-0.8,1.2-1.6,2.4-2.1,3.8c-0.8,1.5-1.6,3.1-2,4.8c-0.1,0.2-0.1,0.4-0.2,0.6
		c-0.1,0.2-0.2,0.4-0.3,0.6c0,1.2,0,2.3,0,3.5c0,1.4,0,2.9,0,4.3c-0.1,1.4-0.1,2.9,0,4.3c0,1.4,0,2.9,0,4.3c-0.1,1.4-0.1,2.9,0,4.3
		c0,1.4,0,2.9,0,4.3c0,0.6,0,1.2,0,1.7c-0.3,0.9-0.6,1.7-0.8,2.6l0,0c-0.1,0-0.1,0.1-0.1,0.2c-0.8,1.2-1.8,2.2-3.1,3
		c-1.3,0.5-2.8,0.8-4.2,0.8c-1.6-0.3-2.9-1-4.2-1.9c-0.6-0.8-1.1-1.6-1.7-2.3c-0.5-1.3-0.7-2.7-0.6-4.1c0-1.4,0-2.9,0-4.3
		c0-1.4,0-2.9,0-4.3c0-1.4,0-2.9,0-4.3c0-1.4,0-2.9,0-4.3c0-1.4,0-2.9,0-4.3c0-1.4,0-2.9,0-4.3c0-1.4,0-2.9,0-4.3c0-1.4,0-2.9,0-4.3
		c0-1.4,0-2.9,0-4.3c0-1.4,0-2.9,0-4.3C29.4,222.7,29.4,221.3,29.4,219.8z"/>
	<path class="st1" d="M222.6,275.8c-1.6-0.1-3.1-0.4-4.5-1.1c-1.1-0.8-2-1.7-2.7-2.9c-0.6-1.4-0.9-2.8-0.9-4.3c0-1.4,0-2.9,0-4.3
		c0-1.4,0-2.9,0-4.3c0-1.4,0-2.9,0-4.3c0-1.4,0-2.9,0-4.3c0-1.4,0-2.9,0-4.3c0-1.4,0-2.9,0-4.3c0-1.4,0-2.9,0-4.3c0-1.4,0-2.9,0-4.3
		c0-1.4,0-2.9,0-4.3c0-1.4,0-2.9,0-4.3c0-1.4,0-2.9,0-4.3c0-1.4,0-2.9,0-4.3c0-1.5,0.3-3,0.9-4.3c0.7-1,1.4-1.8,2.3-2.6
		c1.3-0.8,2.8-1.1,4.3-1.2c1.5,0.1,3,0.5,4.3,1.2c0.8,0.8,1.7,1.6,2.3,2.6c0.6,1.4,0.9,2.8,0.9,4.3c0,1.4,0,2.9,0,4.3
		c0,1.4,0,2.9,0,4.3c0,1.4,0,2.9,0,4.3c0,1.4,0,2.9,0,4.3c0,1.4,0,2.9,0,4.3c0,1.4,0,2.9,0,4.3c0,1.4,0,2.9,0,4.3c0,1.4,0,2.9,0,4.3
		c0,1.4,0,2.9,0,4.3c0,1.4,0,2.9,0,4.3c0,1.4,0,2.9,0,4.3c0,1.4,0,2.9,0,4.3c0,0.5,0,1,0,1.5c0,0.3-0.1,0.6-0.1,0.8
		c-0.2,0.7-0.5,1.4-0.7,2c-0.7,1.1-1.6,2.1-2.6,2.9C225,275.3,223.8,275.5,222.6,275.8z"/>
	<path class="st1" d="M172.2,275.7c-2-0.1-4.1-0.1-6.1-0.2c-1.5-0.3-3.1-0.6-4.6-0.9c-1.4-0.5-2.7-0.9-4.1-1.4
		c-3.2-1.5-6.2-3.3-8.9-5.6c-0.2-0.2-0.4-0.3-0.6-0.5c-1.2-1.2-2.3-2.5-3.5-3.7c-0.1-0.1-0.2-0.2-0.3-0.3c-1-1.4-1.9-2.9-2.9-4.3
		c-0.4-0.8-0.8-1.5-1.2-2.3c-0.3-0.7-0.6-1.4-0.9-2c-0.5-1.4-0.9-2.9-1.4-4.3c-0.2-1.1-0.4-2.1-0.7-3.2c0-0.1,0-0.3-0.2-0.3l0.1,0
		c0-0.1,0-0.2,0-0.3l0-0.1l-0.1-0.1c-0.1-2.3-0.1-4.6-0.2-7c0-0.4,0-0.8,0.1-1.2c0-0.1,0-0.2,0-0.3c0-0.2,0.1-0.4,0.1-0.6
		c0.3-1.5,0.7-3.1,1-4.6c0.4-1.2,0.7-2.3,1.1-3.5c0.3-0.8,0.7-1.6,1-2.4c0.4-0.8,0.9-1.7,1.3-2.5c2-3.2,4.4-6.1,7.1-8.7
		c1.5-1.1,2.9-2.2,4.4-3.3c1.4-0.7,2.8-1.5,4.3-2.2c1.2-0.4,2.3-0.8,3.5-1.3c0.1,0,0.2-0.1,0.3-0.1c0.2,0,0.4-0.1,0.6-0.1
		c4.6-1.2,9.2-1.4,13.9-0.7c1,0.2,1.9,0.5,2.9,0.7c1.8,0.7,3.6,1.3,5.5,2c0.6,0.3,1.2,0.6,1.8,1c0.9,0.5,1.8,1.1,2.7,1.7
		c0.1-0.3,0.1-0.4,0.1-0.5c0-8.2,0-16.4,0-24.6c0-1,0-1.9,0.3-2.8c0.6-1.8,1.8-3.2,3.3-4.3c1.5-0.7,3-1.1,4.6-1.1
		c3,0.6,5.3,2.2,6.5,5.2c0.4,2.8,0.4,5.5,0.3,8.3c-0.2,0.1-0.2,0.2,0,0.4c0,2.5,0,4.9,0,7.4c0,5.9,0,11.8,0,17.6
		c0,5.7-0.1,11.4-0.2,17c0,2.8-0.1,5.7-0.1,8.5c-0.1,7.8,0.5,15.5,0.6,23.3c0,1.2-0.2,2.4-0.4,3.6c-0.8,1.4-1.8,2.6-3,3.6
		c-1.2,0.4-2.3,1-3.6,1.1c-1.5-0.1-3-0.3-4.3-1.1c-1.1-0.8-2.1-1.7-2.8-2.9c-0.7-1.8-0.7-1.8-2.4-0.8c-1.2,0.7-2.5,1.3-3.8,2
		c-1.4,0.5-2.9,1-4.3,1.5C176.6,275.1,174.4,275.4,172.2,275.7z M166.3,260c1.2,0.5,2.5,0.6,3.8,0.5c1.5,0.1,2.9,0,4.3-0.6
		c0.9-0.1,1.8-0.4,2.6-0.9c0.7-0.3,1.5-0.6,2-1.1c1.6-0.7,2.9-1.9,4.1-3.2c0.1-0.1,0.2-0.2,0.3-0.3c1.3-1.2,2.2-2.7,2.9-4.3
		c1.7-3.2,2.3-6.6,2-10.1c0-0.2,0-0.4,0-0.6c0-0.1,0-0.2,0-0.3c-0.1-2.4-0.8-4.6-2-6.7c-1.5-3.4-4-5.9-7.1-7.8
		c-0.4-0.2-0.8-0.5-1.3-0.7c-1.4-0.7-2.8-1.2-4.3-1.4c-1.1-0.3-2.3-0.4-3.5-0.4c-1.5,0-2.9,0.1-4.3,0.6c-0.9,0.2-1.8,0.5-2.6,1
		c-0.8,0.2-1.6,0.6-2.2,1.2c-1.6,0.8-2.9,2-4.1,3.4c-1.3,1.3-2.3,2.7-2.9,4.5c-1.5,2.7-2,5.6-2,8.7c-0.2,1.7,0.3,3.3,0.6,4.9
		c0.3,1.2,0.7,2.4,1.3,3.5c0,0.2,0,0.4,0.3,0.3l-0.1,0l0,0.1c0.6,1.7,1.6,3.1,2.9,4.3c1.1,1.5,2.5,2.6,4.1,3.4
		c0.6,0.4,1.1,0.9,1.9,0.9C163.9,259.7,165.2,259.8,166.3,260z"/>
	<path class="st1" d="M266.3,275.5c-8.3,0.5-16.8-2.3-23.8-7.1c-2.1-1.4-4.1-2.9-4.9-5.4c-0.4-1.4-0.3-2.8-0.2-4.2
		c1.3-3.5,3.7-5.6,7.5-5.7c0.8,0.2,1.6,0.4,2.4,0.6c0.6,0.4,1.1,0.7,1.7,1.1c0.9,0.9,2,1.7,3.2,2.3c2.7,1.8,5.7,3.1,8.9,3.7
		c0.3,0,0.6,0,0.9,0.1c2.1,0.2,4.2,0.3,6.1-0.3c2.2-0.7,4.5-1.1,6-3.1c0.9-0.8,1.6-1.7,1.7-2.9c0.2-1.3-0.4-2.2-1.4-2.9
		c-2.7-2-5.8-3-9-3.7c-1.3-0.4-2.6-0.6-4-0.7c-1.5-0.5-3.1-0.8-4.7-1.1c-0.6-0.2-1.2-0.4-1.8-0.5c-0.8-0.4-1.7-0.7-2.6-0.9
		c-1.4-0.7-2.9-1.4-4.3-2.1c-0.6-0.4-1.1-0.7-1.7-1.1c-0.8-0.7-1.6-1.3-2.4-2c-0.8-0.9-1.5-1.7-2.3-2.6c-1.7-2.6-2.6-5.4-2.9-8.4
		c0-0.2,0-0.4,0-0.6c0-0.1,0-0.2,0-0.3c0.1-1.2,0.2-2.3,0.3-3.5c0.2-0.8,0.4-1.5,0.6-2.3c0.5-0.6,0.6-1.3,0.9-2
		c1-1.4,1.9-2.9,2.9-4.3c0.2-0.1,0.5-0.3,0.6-0.6c2.4-2.5,5.3-4.1,8.4-5.5c1.5-0.4,3-0.9,4.5-1.3c4.5-0.9,9-0.9,13.5,0
		c1.2,0.4,2.5,0.7,3.7,1.1c1.5,0.6,2.9,1.3,4.4,1.9c1.3,0.8,2.6,1.6,4,2.4c0.9,0.7,1.9,1.3,2.8,2c0.6,0.9,1.2,1.7,1.9,2.6
		c0.2,0.6,0.3,1.2,0.5,1.7c0.3,1.5-0.1,2.9-0.4,4.3c-0.1,0.1-0.2,0.3,0,0.4c-3.4,4.2-6.6,4.8-11.2,2c-0.6-0.3-1.1-0.7-1.7-1
		c-2.7-1.7-5.4-3.1-8.7-3.3c-1.8-0.4-3.5-0.1-5.2,0.3c-2.4,0.3-4.4,1.5-6.1,3.2c-0.8,0.8-1.1,1.8-0.6,2.9c0.7,1.2,1.7,1.9,3,2.3
		c1.4,0.9,3,1.3,4.6,1.7c0.9,0.4,1.9,0.6,2.9,0.6c2,0.8,4.2,1.1,6.3,1.5c1.1,0.3,2.2,0.7,3.2,1c3.2,1.3,6.3,2.6,9.2,4.5
		c0.6,0.5,1.1,1,1.7,1.4l0.1,0.1c0,0,0.1,0,0.1,0c0.8,1,1.6,1.9,2.4,2.9c0.3,0.4,0.5,0.9,0.8,1.3c0.6,1.5,1.3,2.9,1.9,4.4
		c0.8,3,0.7,5.9,0,8.9c-1.4,6.1-6.6,11.1-12.1,13.6C274,274.4,270.1,275.3,266.3,275.5z"/>
	<path class="st2" d="M63.6,54.1c1,2.9,3.6,4.1,6,5.4c4.5,2.4,9.2,4.3,13.9,6.2c7,2.9,14,5.9,21,8.8c10.1,4.2,20.2,8.3,30.3,12.6
		c5.2,2.2,10.3,4.5,15.4,6.7c6.4,2.8,12.8,2.3,18.9-0.6c10.5-4.9,21-9.7,31.6-14.2c11.1-4.7,22.1-9.6,33.1-14.4
		c5.2-2.2,10.3-4.4,15.3-7c2.7-1.4,5.4-2.8,7.2-5.3c0,0.3,0,0.6,0,0.9c0,5.9,0,11.8,0.1,17.6c-0.1,0.6-0.4,1.2-0.7,1.7
		c-0.9,1.2-2.2,2-3.4,3c-0.7,0.2-1.2,0.6-1.7,1.1c-1,0.5-2.1,1-3.1,1.5c-5.5,2.7-11.1,5.1-16.8,7.6c-10.8,4.7-21.7,9.3-32.5,14
		c-10.1,4.4-20.1,8.9-30,13.5c-4.6,2.1-9.5,2.8-14.6,1.4c-3.3-0.9-6.3-2.5-9.5-3.8c-6.4-2.8-12.9-5.4-19.4-8.1
		c-7.9-3.3-15.8-6.6-23.6-9.8c-6.2-2.6-12.3-5.1-18.4-7.7c-3.4-1.4-6.9-2.9-10.3-4.4c-2.1-1.2-4.2-2.3-6.2-3.5
		c-0.2-0.2-0.4-0.4-0.6-0.5c-0.9-0.7-1.7-1.5-2.1-2.6c0-0.5,0-1,0-1.4C63.6,66.5,63.6,60.3,63.6,54.1z"/>
	<path class="st3" d="M120.7,62.6c-5.6-0.1-11-0.6-16.1-2.4c-2-0.7-3.9-1.6-5.6-2.9c-3.1-2.4-3.1-5.6,0-8.1c2.3-1.8,5-2.9,7.9-3.6
		c9.9-2.4,19.8-2.4,29.6,0.7c2.2,0.7,4.3,1.7,6.1,3.3c2.4,2.2,2.4,5,0,7.2c-2.8,2.5-6.3,3.6-9.8,4.4
		C128.7,62.3,124.6,62.6,120.7,62.6z"/>
	<path class="st3" d="M133,69.6c14.7-2.3,29.5-4.5,44.4-6.8c-2.5,3.6-4.9,7.2-7.3,10.7c-1.9,2.8-3.9,5.6-5.7,8.4
		c-0.4,0.7-0.8,0.8-1.6,0.5c-9.7-4.1-19.5-8.2-29.2-12.3c-0.2-0.1-0.4-0.1-0.5-0.1C133,69.8,133,69.7,133,69.6z"/>
	<path class="st3" d="M184.8,39c-4.4,0.4-8.8,0.8-13.2,1.3c-0.9,0.1-1.7,0.2-2.6,0.3c-0.7,0-0.7,0.6-0.9,1c-1.1,2.6-2.2,5.3-3.3,8
		c-1.1-1.2-1.7-2.6-2.5-3.9c-1.1-1.7-2.1-3.4-3-5.2c-0.4-0.8-0.9-1-1.7-1.1c-5.9-0.5-11.7-0.9-17.7-1.6c2.2-0.8,4.4-1.6,6.6-2.4
		c2.1-0.8,4.2-1.6,6.3-2.3c0.8-0.3,0.9-0.5,0.4-1.3c-1.2-2.2-2.3-4.4-3.6-6.9c2,0.8,3.8,1.4,5.5,2.1c2,0.8,4.1,1.5,6.1,2.4
		c1.3,0.6,2.5,0.5,3.8,0c3.4-1.2,6.9-2.3,10.6-3.5c-0.9,2.2-1.8,4.1-2.6,6.1c-1.1,2.7-1.3,2,1.3,3c3.3,1.3,6.6,2.4,9.9,3.6
		C184.6,38.7,184.8,38.7,184.8,39z"/>
	<path class="st4" d="M205,62.2c-1.4,1.1-2.8,1.3-4.5,0.6c-6.1-2.5-12.3-4.9-18.5-7.3c-2-0.8-4-1.5-6.3-2.4c3.2-1.3,6-2.4,8.8-3.5
		c6.4-2.5,12.7-5,19.1-7.6c0.5-0.2,0.9-0.3,1.4-0.3C205,48.5,205,55.4,205,62.2z"/>
	<path class="st5" d="M205,62.2c0-6.8,0-13.7,0-20.5c0.1,0,0.2,0,0.3,0c0.1,0,0.2,0,0.3,0c8.5,3.3,17,6.6,25.9,10.1
		c-1.5,0.7-2.8,1.2-4,1.7c-6.9,2.7-13.7,5.4-20.6,8.2C206.3,61.9,205.7,62.2,205,62.2z"/>
	<path class="st0" d="M72.4,80.7c3.4,1.5,6.9,2.9,10.3,4.4c6.1,2.6,12.3,5.2,18.4,7.7c7.9,3.3,15.8,6.6,23.6,9.8
		c6.5,2.7,12.9,5.4,19.4,8.1c3.1,1.3,6.1,2.9,9.5,3.8c5,1.4,10,0.7,14.6-1.4c10-4.6,20-9.2,30-13.5c10.8-4.7,21.7-9.3,32.5-14
		c5.6-2.5,11.3-4.8,16.8-7.6c1.6,1.1,3.5,1.3,5.1,2.1c0.5,0.2,1,0.5,1.5,0.7c0.8,0.8,1.8,1.3,2.4,2.3c0.1,0.6,0.3,1.2,0,1.8
		c0,0.1-0.1,0.2-0.1,0.3c-0.1,0.2-0.2,0.4-0.3,0.6c-2.4,2.5-5.5,4.1-8.6,5.6c-5.8,2.8-11.7,5.3-17.6,7.9
		c-8.8,3.8-17.6,7.7-26.4,11.4c-11.2,4.8-22.4,9.6-33.4,14.9c-3.2,1.6-6.6,2.6-10.2,2.8c-5.1,0.3-9.7-1.5-14.2-3.6
		c-6.3-2.9-12.8-5.5-19.2-8.2c-6.3-2.7-12.7-5.2-19-7.9c-8-3.3-16-6.7-24-10.1c-5.5-2.3-11-4.4-16.1-7.5c-1.7-1.1-3.3-2.2-4-4.3
		c0.1-0.4,0.2-0.8,0.3-1.2c0.7-1.1,1.8-1.7,2.6-2.6c1.2-0.6,2.5-1.2,3.7-1.7C70.9,81.3,71.7,81,72.4,80.7z"/>
	<path class="st2" d="M63.5,87c0.6,2.1,2.2,3.2,4,4.3c5.1,3.1,10.7,5.2,16.1,7.5c8,3.4,16,6.7,24,10.1c6.3,2.6,12.7,5.2,19,7.9
		c6.4,2.7,12.9,5.3,19.2,8.2c4.5,2.1,9.1,4,14.2,3.6c3.6-0.2,7-1.2,10.2-2.8c10.9-5.4,22.2-10.1,33.4-14.9
		c8.8-3.8,17.6-7.6,26.4-11.4c5.9-2.6,11.8-5.1,17.6-7.9c3.1-1.5,6.2-3.1,8.6-5.6c0,5.5,0,11,0.1,16.5c0,1.9-0.4,3.3-1.8,4.6
		c-0.8,0.6-1.5,1.1-2.3,1.7c-1.1,0.7-2.4,1-3.3,2c-0.7,0.1-1.2,0.5-1.9,0.8c-3.6,1.7-7.2,3.4-10.9,5c-6.1,2.7-12.3,5.3-18.5,8
		c-6,2.6-12.1,5.2-18.1,7.8c-5.7,2.5-11.4,5-17.1,7.5c-4.5,2.1-9,4.3-13.6,6.3c-6.1,2.8-12.4,3.1-18.7,0.4c-3-1.3-6-2.7-9.1-4
		c-6.2-2.6-12.4-5.2-18.6-7.8c-8-3.4-16.1-6.7-24.1-10.1c-5.5-2.3-11.1-4.6-16.6-6.9c-3.7-1.5-7.3-3.1-11-4.6
		c-1.2-1.1-2.8-1.4-4-2.4c-1.5-1.1-3.3-2.1-3.5-4.3c0-1.1,0-2.1,0-3.2c0-1.6,0-3.3,0-4.9c0-1.3,0-2.5,0-3.8c0-1.6,0-3.3,0-4.9
		C63.5,88.8,63,87.8,63.5,87z"/>
	<path class="st0" d="M70.7,113c3.7,1.5,7.3,3.1,11,4.6c5.5,2.3,11.1,4.6,16.6,6.9c8,3.4,16.1,6.7,24.1,10.1
		c6.2,2.6,12.4,5.2,18.6,7.8c3,1.3,6,2.7,9.1,4c6.3,2.7,12.5,2.3,18.7-0.4c4.6-2,9-4.3,13.6-6.3c5.7-2.6,11.4-5,17.1-7.5
		c6-2.6,12.1-5.2,18.1-7.8c6.2-2.7,12.3-5.3,18.5-8c3.6-1.6,7.2-3.3,10.9-5c0.6-0.3,1.2-0.7,1.9-0.8c2.8,1,5.7,1.9,7.7,4.4
		c0.1,0.4,0.2,0.8,0.3,1.2c-0.2,0.2-0.3,0.3-0.2,0.6c-0.1,0.3-0.2,0.5-0.3,0.8c-3.4,3.5-7.9,5.4-12.2,7.4
		c-7.7,3.5-15.4,6.8-23.2,10.2c-6.6,2.9-13.2,5.6-19.8,8.5c-6.4,2.8-12.8,5.5-19.1,8.4c-4.6,2-9,4.3-13.6,6.3
		c-6.2,2.7-12.5,2.8-18.8,0c-5.8-2.6-11.6-5-17.4-7.5c-6.9-2.9-13.9-5.8-20.8-8.6c-7.8-3.3-15.6-6.5-23.5-9.8
		c-6.4-2.7-12.8-5.2-18.9-8.4c-2.2-1.2-4.3-2.5-5.5-4.9c0-1.3,0.8-2.3,1.7-3.2c0.5-0.1,0.8-0.5,1.2-0.7
		C67.7,114.5,69.2,113.7,70.7,113z"/>
	<path class="st1" d="M228.7,193.8c-0.7,1-1.4,1.8-2.3,2.6c-2.9,1.7-5.8,1.6-8.7,0c-0.9-0.8-1.7-1.6-2.3-2.6c-0.6-1.4-1-2.8-0.9-4.3
		c0.1-1.5,0-2.9,0.3-4.3c1.3-3.6,4-5.3,7.8-5.4c1.1,0.4,2.3,0.5,3.4,1.1c0.2,0.1,0.4,0.3,0.6,0.4c1.2,1,2.1,2.4,2.6,3.8
		c0.3,1.4,0.3,2.9,0.3,4.3c0,0.5,0,1,0,1.5c-0.1,0.3-0.1,0.6-0.2,0.8C229.2,192.5,228.9,193.2,228.7,193.8z"/>
	<path class="st2" d="M195.5,165.6c-2.8,1.1-5.7,2.3-8.4,3.7c-2.9,1.1-5.6,2.4-8.4,3.8c-1.4,0.4-2.7,1.1-4.1,1.8
		c-1.1,0.5-2.1,1.1-3.2,1.6c-0.6,0.3-1.2,0.6-1.8,0.8c-1.3,0.5-2.7,1-4,1.5c-1.4,0.3-2.7,0.6-4.1,0.9c-1.9,0.2-3.8,0.3-5.7,0
		c-1.1-0.2-2.1-0.4-3.2-0.7c-1.3-0.5-2.7-1-4-1.5c-2.9-1.5-5.9-2.8-9-4c-2.8-1.2-5.5-2.5-8.4-3.5c-1.3-0.7-2.6-1.3-4.1-1.7
		c-0.7-0.3-1.4-0.8-2.3-0.9c-0.8-0.6-1.7-0.8-2.6-1.1c-1.4-0.7-2.8-1.3-4.3-1.8c-2.7-1.3-5.4-2.4-8.1-3.4c-3-1.4-6.1-2.6-9.2-3.8
		c-1.3-0.6-2.6-1.3-4.1-1.7c-3.1-1.3-6.1-2.7-9.2-3.8c-1.2-0.7-2.5-1.2-3.8-1.7c-0.1-0.1-0.2-0.1-0.3-0.1c-1.3-0.7-2.6-1.3-4-1.7
		c-1.5-0.8-3-1.4-4.6-2c-0.3-0.3-0.7-0.5-1.2-0.5c-1.1-0.5-2.3-1.1-3.4-1.6c-1.3-0.7-2.5-1.4-3.8-2.1c-0.3-0.2-0.6-0.4-0.9-0.6
		c-1.2-1-2.3-2-2.3-3.8c0-1.6,0-3.3,0-4.9c0-1.3,0-2.5,0-3.8c0-1.6,0-3.3,0-4.9c0-1.3,0-2.5,0-3.8c0-0.5,0.1-0.9,0.1-1.4
		c1.2,2.4,3.2,3.7,5.5,4.9c6.1,3.2,12.6,5.7,18.9,8.4c7.8,3.3,15.6,6.5,23.5,9.8c6.9,2.9,13.9,5.7,20.8,8.6
		c5.8,2.5,11.7,4.9,17.4,7.5c6.3,2.8,12.6,2.7,18.8,0c4.6-2,9-4.3,13.6-6.3c6.3-2.8,12.7-5.6,19.1-8.4c6.6-2.9,13.2-5.6,19.8-8.5
		c7.7-3.4,15.5-6.7,23.2-10.2c4.3-2,8.8-3.9,12.3-7.4c0,6.1,0.1,12.1,0.1,18.2c0,0.5-0.3,1-0.4,1.5c-1.1,1-2.1,1.9-3.2,2.9
		c-1,0.6-2.1,1.2-3.1,1.8c-0.6,0.3-1.2,0.6-1.7,0.9c-1.4,0.7-2.9,1.4-4.3,2c-0.8,0.2-1.6,0.6-2.3,1.1c-0.7,0.2-1.4,0.4-2,0.9
		c-1.4,0.3-2.7,1.1-4,1.7c-1.5,0.7-3,1.1-4.4,2c-1.5,0.4-2.9,1.1-4.3,1.8c-2.8,1.1-5.7,2.2-8.4,3.7c-1.7,0.5-3.3,1.2-4.9,2
		c-0.7,0.3-1.3,0.6-2,0.9c-0.7,0.3-1.4,0.6-2,0.9c-1.6,0.5-3.1,1.2-4.6,2c-1.4,0.5-2.7,1.1-4,1.7l0,0
		C198.7,164.1,197.1,164.9,195.5,165.6z"/>
</g>
</svg>
