<?xml version="1.0" encoding="utf-8"?>
<!-- Generator: Adobe Illustrator 26.1.0, SVG Export Plug-In . SVG Version: 6.00 Build 0)  -->
<svg version="1.1" id="svg2816" xmlns:svg="http://www.w3.org/2000/svg"
	 xmlns="http://www.w3.org/2000/svg" xmlns:xlink="http://www.w3.org/1999/xlink" x="0px" y="0px" viewBox="0 0 315 300"
	 style="enable-background:new 0 0 315 300;" xml:space="preserve">
<style type="text/css">
	.st0{fill:#013B57;}
	.st1{fill:#1080CB;}
	.st2{fill:#023C58;}
	.st3{fill:#93D6F4;}
	.st4{fill:#86CEF0;}
	.st5{fill:#7AC5EC;}
	.st6{fill:#6DBDE8;}
	.st7{fill:#60B5E4;}
	.st8{fill:#53ACE0;}
	.st9{fill:#208BD1;}
	.st10{fill:#399BD8;}
	.st11{fill:#47A4DC;}
	.st12{fill:#2D93D4;}
</style>
<g>
	<path class="st0" d="M89.3,135.6c4.8-2.3,10-3.1,15.1-4.4c0.1,0.2,0,0.3-0.1,0.4c-3.7,5.6-7.6,11-11.8,16.2
		c-0.2,0.3-0.5,0.5-0.9,0.7c-5.7,2.8-10.5,6.7-13.5,12.5c-0.3,0.6-0.5,1.1-0.8,1.7c-0.1,0.2-0.1,0.4-0.4,0.4
		c0.2-1.3,0.5-2.5,0.7-3.7c2.7-13,6.6-25.7,11.8-37.9c4.8-11.4,10.3-22.6,16.7-33.2c2.7-4.5,5.7-8.9,9.3-12.9c0,0,0-0.1,0.1-0.2
		c-0.4,0.1-0.6,0.4-0.8,0.6c-5.2,4.7-9.5,10.2-13.5,16c-7.6,11.2-13.6,23.3-18.3,36c-2.4,6.5-4.2,13.3-5.7,20.1
		c-1.3,5.9-2.3,11.9-2.9,17.9c-0.6,6-0.8,12.1-0.3,18.1c0.3,3.4,0.8,6.8,1.9,10.1c0.2,0.6-0.2,0.6-0.5,0.8c-0.4,0.2-0.4-0.3-0.4-0.5
		c-1-2.5-1.4-5.2-1.8-7.9c-0.3-2-0.5-4-0.7-6c0-1-0.1-2-0.2-2.9c-0.1-1.2-0.1-2.4-0.1-3.6c-0.2-2.2-0.1-4.3,0-6.5
		c0-1.2,0.1-2.3-0.1-3.5c-0.6-3.9-1.3-7.9-2.3-11.7c-0.5-1.8-0.9-3.7-1.6-5.4c-0.1-0.4-0.2-0.7-0.4-1c-0.8-1.2-0.9-2.5-0.6-3.9
		c0.3-1,0.4-2.1,0.6-3.2c0.2-0.7,0.3-1.4,0.6-2.2c1.6,3,3.4,5.8,4.6,9c0-0.2,0.1-0.2,0-0.3c-0.9-3.7-1.9-7.4-3.6-10.9
		c-0.2-0.4-0.3-0.7-0.1-1.2c0.2-0.6,0.3-1.1,0.5-1.7c0.4-1.3,0.9-2.6,1.4-4.1c1.5,2.8,3.1,5.4,4.3,8.4c0-0.3,0-0.4,0-0.5
		c-0.8-3.1-1.6-6.2-2.8-9.1c-0.3-0.7-0.7-1.4-0.4-2.2c0.5-2.4,1.2-4.8,1.8-7.2c0.2-0.7,0.4-1.4,0.6-2.1c0.6-1.7,1.2-3.4,1.7-5.2
		c0.5-1.3,1.1-2.6,1.6-4c0.4-1.1,1-2.2,1.4-3.4c1.2-2.5,2.4-5.1,3.6-7.6c0.1-0.3,0.2-0.5,0.4-0.8c1.2-2.1,2.3-4.2,3.5-6.2
		c1.4-2.3,2.9-4.6,4.5-6.9c0.7-1,1.5-2,2.2-2.9c1.2-1.6,2.6-3.1,3.9-4.6c1-1,2-1.9,3-2.9c1.3-1,2.5-2,3.8-2.9
		c2.1-1.4,4.3-2.5,6.9-2.8c3.4-0.5,6.2,0.6,8.7,2.8c3.1,2.8,4.7,6.4,5.3,10.4c0.7,5.1-0.1,10.1-1.4,15c-2,7.4-5.2,14.3-8.7,21
		c-2.3,4.3-4.8,8.5-7.4,12.7c-0.2,0.4-0.5,0.6-1,0.8c-6.1,2.1-11.8,5-17.3,8.1c-0.1,0-0.1,0.1-0.1,0.1c-0.1,0-0.1,0.1-0.2,0.1
		C89.1,135.7,89.2,135.7,89.3,135.6z M75.7,136.1c0-0.1,0-0.1,0-0.2c0,0,0,0-0.1,0.1C75.6,136.1,75.6,136.1,75.7,136.1
		C75.6,136.2,75.7,136.2,75.7,136.1z M73.2,145.9C73.2,145.9,73.2,145.9,73.2,145.9C73.2,145.9,73.2,145.9,73.2,145.9
		C73.2,145.8,73.2,145.9,73.2,145.9C73.2,145.9,73.2,145.9,73.2,145.9z"/>
	<path class="st1" d="M100.4,70.3c-1,1-2,1.9-3,2.9c-0.3,0-0.6,0-0.9,0c-14.8,0-29.6,0-44.4,0c-11.1,0-22.3,0-33.4,0
		c-4.2,0-7.5,3.5-7.2,7.4c0,2.4,0,4.7,0,7.1c0,2.4,0,4.7,0,7.1c0,2.5,0,5,0,7.5c0,2.5,0,4.9,0,7.4c0,2.4,0,4.8,0,7.2
		c0,2.5,0,4.9,0,7.4c0,2.5,0,5,0,7.5c0,2.3,0,4.7,0,7c0,2.4,0,4.7,0,7.1c0,1,0.1,1.1,1.1,1.1c18.2,0,36.4,0,54.5,0
		c0.3,0,0.7,0,1-0.1c0.7,1.7,1.1,3.6,1.6,5.4c1,3.9,1.7,7.8,2.3,11.7c0.2,1.1,0.1,2.3,0.1,3.5c-0.1,2.2-0.1,4.3,0,6.5
		c0.1,1.2,0,2.4,0.1,3.6c0.1,1,0.1,2,0.2,2.9c-0.2,0-0.4,0-0.6,0c-17.7,0-35.3,0-53,0c-4.8,0-8.7-3-9.9-7.5
		c-0.2-0.8-0.3-1.7-0.3-2.5c0-30.1,0-60.1,0-90.2c0-5.5,4.5-10,10-10c27.1,0,54.2,0,81.2,0C100.1,70.3,100.2,70.3,100.4,70.3z"/>
	<path class="st2" d="M175.4,180.6c2.8,3.1,5.2,6.5,8.3,9.3c1.4,1.3,2.8,2.5,4.6,3.3c2.8,1.4,5.7,1.5,8.7,0.5
		c0.9-0.3,0.6,0.5,0.9,0.8c0.3,0.4-0.1,0.5-0.3,0.6c-3,1.2-6.2,1.5-9.4,1.3c-4.4-0.3-8.4-1.7-11.9-4.4c-2.3-1.8-4.3-4-6.2-6.3
		c-1.3-1.5-2.7-3.1-4.3-4.4c-0.7-0.5-1.4-0.9-2.2-1.1c-6.1-1.5-10.9-5-14.6-10c-3.9-5.2-5.5-11.1-4.9-17.5
		c1.1-11.6,10-21.1,21.5-22.9c6.8-1,13.2-0.1,19.1,3.7c6.1,3.9,10.1,9.4,11.5,16.6c2.7,13.8-6.2,27.3-20,30.2
		C175.7,180.5,175.6,180.6,175.4,180.6z M151.2,155.4c0,4.3,0.5,8.6,2.3,12.6c2.9,6.4,7.5,10.8,14.9,11.3c4.3,0.3,8.4-0.6,11.9-3.2
		c4.4-3.3,6.7-7.8,7.8-13.1c0.8-3.8,0.9-7.7,0.5-11.6c-0.4-3.7-1.3-7.2-3-10.5c-5.2-9.6-15.1-11.1-22.8-7.8
		c-4.4,1.9-7.2,5.4-9.2,9.7C151.8,146.8,151.3,151.1,151.2,155.4z"/>
	<path class="st2" d="M108.2,173.9c0-2,0-4.1,0-6.1c0-0.5,0.1-0.6,0.6-0.6c0.9,0,0.9,0,0.9,0.9c0.3,6.9,6.3,12,13.2,11.2
		c1.9-0.2,3.8-0.7,5.3-1.9c3.4-2.6,4.2-7.5,1.8-11.3c-1.1-1.8-2.8-3.2-4.4-4.4c-2.1-1.6-4.4-3-6.6-4.4c-1.9-1.2-3.8-2.4-5.6-3.9
		c-3.5-3-5-6.8-4.9-11.3c0.1-7,5.2-11.7,11.4-12.3c3-0.3,5.9,0.2,8.7,1.1c0.9,0.3,1.8,0.6,2.7,0.7c0.8,0.1,1-0.1,1.3-0.8
		c0.2-0.5,1-0.8,1.4-0.5c0.2,0.1,0.1,0.2,0.1,0.4c0,3.6,0,7.2,0,10.7c0,0.3-0.1,0.4-0.4,0.4c0,0,0,0-0.1,0c-1,0-1,0-1.2-0.9
		c-0.5-3.2-1.9-5.9-4.8-7.6c-3.4-2-7-2.2-10.5-0.7c-4.9,2-5.1,6.9-3.5,10.3c1,2.1,2.7,3.5,4.5,4.9c2.8,2.1,5.8,3.7,8.7,5.6
		c2,1.3,4,2.8,5.8,4.5c5.7,5.4,5.3,14.4-0.2,19.6c-3.7,3.5-8,4.5-12.9,3.6c-2.3-0.4-4.5-1.2-6.7-1.9c-0.2-0.1-0.3-0.1-0.5-0.1
		c-1.3-0.4-1.9-0.1-2.5,1.1c-0.3,0.5-1,0.8-1.5,0.6c-0.3-0.1-0.2-0.3-0.2-0.5C108.2,178,108.2,175.9,108.2,173.9z"/>
	<path class="st0" d="M216.6,180.4c-5.1,0-10.3,0-15.4,0c-0.5,0-0.7-0.1-0.6-0.6c0,0,0,0,0-0.1c-0.1-0.7,0.2-1,0.9-1
		c0.1,0,0.3,0,0.4-0.1c2.3-0.5,3.1-1.5,3.4-3.9c0.1-0.8,0.1-1.5,0.1-2.3c0-11.8,0-23.6,0-35.4c0-0.8-0.1-1.6-0.1-2.4
		c-0.1-1.4-0.9-2.4-2.2-2.9c-0.9-0.3-1.8-0.5-2.8-0.5c-0.4,0-0.5-0.1-0.5-0.5c0-1.1,0-1.1,1-1.1c4.9,0,9.8,0,14.7,0c0.9,0,0.9,0,1,1
		c0,0.1,0,0.2,0,0.2c0,0.2,0,0.4-0.3,0.4c-0.1,0-0.3,0-0.4,0c-2.6,0.4-3.6,1.4-3.8,4.1c-0.1,0.8-0.1,1.6-0.1,2.4
		c0,11.6-0.1,23.1-0.1,34.7c0,0.7,0,1.4,0.2,2.1c0.5,2.3,2.1,3.4,4.3,3.6c3.8,0.4,7.6,0.4,11.3-0.5c2.5-0.6,3.9-2.2,4.5-4.7
		c0-0.2,0-0.5,0.3-0.5c0.4,0,0.8,0,1.2,0c0.1,0,0.1,0.2,0,0.3c-0.2,2.4-0.5,4.8-0.7,7.2c0,0.2-0.1,0.3-0.3,0.3c-0.1,0-0.3,0-0.4,0
		C226.8,180.4,221.7,180.4,216.6,180.4z"/>
	<path class="st2" d="M282,167.2c0.2-5.7,2.3-10.5,6.9-14.1c2.5-2,5.4-2.5,8.5-2.2c1.1,0.1,2.2,0.3,3.3,0.7c2,0.7,3.1,2.3,3.5,4.3
		c0.1,0.7-0.1,1.5-0.4,2.1c-0.4,0.7-0.9,1.3-1.4,1.9c-3.2,3.4-7.1,5.6-11.7,6.7c-1.2,0.3-2.4,0.5-3.5,0.7c-0.3,0-0.5,0.1-0.4,0.4
		c0.3,2,0.7,3.9,1.8,5.7c1.8,2.9,4.6,3.8,7.8,3.5c3.9-0.4,6.9-2.3,9-5.7c0.2-0.3,0.3-0.3,0.5-0.1c0.8,0.8,0.8,0.8,0.3,1.9
		c-0.7,1.5-1.6,3-2.6,4.3c-1.1,1.4-2.5,2.4-4.3,2.9c-2.8,0.7-5.6,1.1-8.4,0.4c-4.2-1-6.7-3.9-7.9-7.9c-0.3-0.9-0.5-1.9-0.6-2.8
		C282.1,169.1,282,168.1,282,167.2z M286.6,165.8c2.2-0.3,5.8-1.4,7.7-2.5c0.9-0.5,1.7-1.1,2.3-1.9c2.3-2.7,1.1-6.6-2.4-7.5
		c-2.1-0.5-3.7,0.4-4.9,2C287.1,158.9,286.4,162.2,286.6,165.8z"/>
	<path class="st2" d="M261.9,164.8c0-3.4,0-6.7,0-10.1c0-0.5-0.1-0.6-0.6-0.6c-1.3,0-2.7,0-4.1,0c-0.4,0-0.6-0.1-0.6-0.6
		c0-0.2,0-0.4,0-0.6c0-0.2,0.1-0.3,0.3-0.3c4.5-0.6,6.9-3.5,8.2-7.6c0.1-0.2,0-0.6,0.3-0.7c0.4-0.1,0.8-0.1,1.2,0
		c0.2,0,0.1,0.4,0.1,0.5c0,2.1,0,4.2,0,6.3c0,0.5,0.1,0.6,0.6,0.6c2.2,0,4.4,0,6.6,0c0.5,0,0.7,0.1,0.6,0.6c0,0.2,0,0.4,0,0.6
		c0.1,1.2,0.1,1.2-1.1,1.2c-2.1,0-4.1,0-6.2,0c-0.4,0-0.6,0.1-0.6,0.5c0,6.4,0,12.8,0,19.2c0,0.4,0,0.8,0.1,1.2
		c0.4,2,1.6,2.8,3.6,2.4c2-0.4,3.5-1.4,5-2.7c0.6-0.5,1.2-1,1.7-1.6c0.2-0.2,0.4-0.2,0.6,0c1,0.8,1,0.8,0.1,1.8
		c-2.1,2.1-4.3,4-7.1,5.2c-1.4,0.6-2.9,0.9-4.5,0.8c-2.3-0.1-3.9-1.5-4.2-3.8c-0.3-2-0.3-4-0.3-6C261.8,169.1,261.8,167,261.9,164.8
		C261.8,164.8,261.8,164.8,261.9,164.8z"/>
	<path class="st2" d="M249.3,163.3c0,3.8,0,7.7,0,11.5c0,0.6,0.1,1.3,0.3,1.9c0.3,0.8,0.8,1.4,1.7,1.6c0.9,0.2,1.9,0.3,2.9,0.2
		c0.5,0,0.7,0.2,0.6,0.6c0,0.2,0,0.4,0,0.6c0,0.2-0.1,0.3-0.3,0.3c-0.1,0-0.2,0-0.2,0c-4.6,0-9.3,0-13.9,0c-0.3,0-0.7,0.1-0.6-0.4
		c0.1-0.4-0.4-1.1,0.6-1.1c0.9,0,1.8,0,2.7-0.3c0.5-0.1,0.8-0.4,1-1c0.2-0.8,0.3-1.7,0.3-2.5c0.1-5.3,0.1-10.7,0.1-16
		c0-0.7,0-1.3-0.2-2c-0.3-1.6-1.4-2.3-3-2.2c-0.9,0.1-1.8,0.2-2.7,0.3c-0.3,0.1-0.4,0-0.4-0.4c0-1.3-0.1-1.3,1.2-1.6
		c2.7-0.6,5.3-1.2,8-1.8c0.6-0.1,1.2-0.1,1.8-0.1c0.4,0,0.3,0.3,0.3,0.5c0,2.5,0,4.9,0,7.4C249.2,160.4,249.2,161.9,249.3,163.3
		C249.3,163.3,249.3,163.3,249.3,163.3z"/>
	<path class="st2" d="M244.1,139c1.7,0,3.3,1.6,3.4,3.3c0,1.4-1.1,2.4-2.5,2.2c-1.5-0.2-2.8-1.3-3.2-2.8
		C241.5,140.3,242.5,139,244.1,139z"/>
	<path class="st3" d="M11.6,80.6c-0.3-3.9,3-7.4,7.2-7.4c11.1,0,22.3,0,33.4,0c14.8,0,29.6,0,44.4,0c0.3,0,0.6,0,0.9,0
		c-1.3,1.5-2.7,3-3.9,4.6c-0.7,1-1.6,1.9-2.2,2.9c-0.2-0.4-0.6-0.2-0.9-0.2C64.2,80.6,37.9,80.6,11.6,80.6z"/>
	<path class="st4" d="M11.6,80.6c26.3,0,52.6,0,78.9,0c0.3,0,0.7-0.2,0.9,0.2c-1.5,2.3-3,4.6-4.5,6.9c-25.1,0-50.2,0-75.3,0
		C11.6,85.3,11.6,82.9,11.6,80.6z"/>
	<path class="st5" d="M11.6,87.7c25.1,0,50.2,0,75.3,0c-1.2,2.1-2.3,4.2-3.5,6.2c-0.1,0.2-0.3,0.5-0.4,0.8c-0.3,0-0.7,0.1-1,0.1
		c-23.5,0-46.9,0-70.4,0C11.6,92.4,11.6,90,11.6,87.7z"/>
	<path class="st6" d="M11.6,94.8c23.5,0,46.9,0,70.4,0c0.4,0,0.7-0.1,1-0.1c-1.2,2.5-2.4,5.1-3.6,7.6c-22.6,0-45.2,0-67.8,0
		C11.6,99.8,11.6,97.3,11.6,94.8z"/>
	<path class="st7" d="M11.6,102.3c22.6,0,45.2,0,67.8,0c-0.3,1.2-0.9,2.3-1.4,3.4c-0.5,1.3-1,2.7-1.6,4c-0.3,0-0.6,0-0.9,0
		c-21.3,0-42.6,0-64,0C11.6,107.2,11.6,104.7,11.6,102.3z"/>
	<path class="st8" d="M11.6,109.7c21.3,0,42.6,0,64,0c0.3,0,0.6,0,0.9,0c-0.6,1.7-1.2,3.4-1.7,5.2c-0.2,0.7-0.4,1.4-0.6,2.1
		c-20.8,0-41.7,0-62.5,0C11.6,114.5,11.6,112.1,11.6,109.7z"/>
	<path class="st9" d="M68.2,146.8c-0.3,0.1-0.6,0.1-1,0.1c-18.2,0-36.4,0-54.5,0c-1,0-1.1-0.1-1.1-1.1c0-2.4,0-4.7,0-7.1
		c18.8,0,37.5,0,56.3,0c-0.2,1.1-0.4,2.1-0.6,3.2c-0.3,1.4-0.3,2.7,0.6,3.9C68,146.2,68.1,146.5,68.2,146.8z"/>
	<path class="st10" d="M11.6,131.7c0-2.5,0-5,0-7.5c19.6,0,39.2,0,58.9,0c0.6,0,1.2,0,1.8-0.1c-0.3,0.8,0.1,1.5,0.4,2.2
		c1.3,2.9,2.1,6,2.8,9.1c0,0.1,0,0.2,0,0.5c-1.1-3-2.7-5.6-4.3-8.4c-0.5,1.5-0.9,2.8-1.4,4.1c-0.4,0-0.9,0.1-1.3,0.1
		C49.6,131.8,30.6,131.7,11.6,131.7z"/>
	<path class="st11" d="M72.3,124.1c-0.6,0.1-1.2,0.1-1.8,0.1c-19.6,0-39.2,0-58.9,0c0-2.5,0-4.9,0-7.4c20.8,0,41.7,0,62.5,0
		C73.5,119.3,72.8,121.7,72.3,124.1z"/>
	<path class="st12" d="M11.6,131.7c19,0,38,0,57,0c0.4,0,0.9-0.1,1.3-0.1c-0.2,0.6-0.3,1.1-0.5,1.7c-0.2,0.4-0.1,0.8,0.1,1.2
		c1.7,3.5,2.7,7.2,3.6,10.9c0,0.1,0,0.1,0,0.3c-1.1-3.2-3-6-4.6-9c-0.4,0.8-0.4,1.5-0.6,2.2c-18.8,0-37.5,0-56.3,0
		C11.6,136.4,11.6,134.1,11.6,131.7z"/>
	<path class="st10" d="M75.7,136.1C75.7,136.2,75.6,136.2,75.7,136.1c-0.1,0-0.1,0-0.1-0.1c0,0,0,0,0.1-0.1
		C75.7,136,75.7,136.1,75.7,136.1z"/>
	<path class="st12" d="M73.2,145.9C73.2,145.9,73.2,145.9,73.2,145.9C73.2,145.9,73.2,145.8,73.2,145.9
		C73.2,145.9,73.2,145.9,73.2,145.9C73.2,145.9,73.2,145.9,73.2,145.9z"/>
</g>
</svg>
