<svg xmlns="http://www.w3.org/2000/svg" width="121.215" height="100.089" viewBox="0 0 121.215 100.089">
  <g id="Group_419" data-name="Group 419" transform="translate(160.44 -267.69)">
    <g id="Group_418" data-name="Group 418" transform="translate(-159.94 268.19)">
      <g id="Group_397" data-name="Group 397" transform="translate(20.861 9.432)">
        <g id="Group_393" data-name="Group 393" transform="translate(3.147 44.563)">
          <path id="Path_2489" data-name="Path 2489" d="M-116.694,344.475h-8.334a1.178,1.178,0,0,1-.852-.364l-12.347-12.9a1.186,1.186,0,0,1-.327-.816V324.02l-4.694-6.118a1.161,1.161,0,0,1-.245-.7l-.152-11.164a1.178,1.178,0,0,1,1.162-1.195h.016A1.179,1.179,0,0,1-141.287,306l.146,10.774,4.7,6.124a1.181,1.181,0,0,1,.243.717v6.3l11.672,12.2h7.608l8.094-3.159a1.179,1.179,0,0,1,1.526.67,1.178,1.178,0,0,1-.669,1.526l-8.3,3.24A1.188,1.188,0,0,1-116.694,344.475Z" transform="translate(143.644 -304.841)" fill="#19323f" stroke="#19323f" stroke-width="1"/>
        </g>
        <g id="Group_394" data-name="Group 394" transform="translate(0 20.791)">
          <path id="Path_2490" data-name="Path 2490" d="M-129.191,316.7a.748.748,0,0,1-.044.25,1.176,1.176,0,0,1-1.134.869,1.1,1.1,0,0,1-.309-.029l-9.576-2.593-1.5-.413a1.174,1.174,0,0,1-.722-.545l-.147-.236v-.015l-2.667-4.7-.339-.589a1.206,1.206,0,0,1-.147-.589V297.4a1.193,1.193,0,0,1,.457-.943l9.34-7.175.442-.339a1.176,1.176,0,0,1,1.65.221,1.174,1.174,0,0,1-.206,1.65l-.5.383-8.825,6.777v9.826l2.755,4.847,6.895,1.856.015.015A7.314,7.314,0,0,0-129.191,316.7Z" transform="translate(145.78 -288.705)" fill="#19323f" stroke="#19323f" stroke-width="1"/>
        </g>
        <g id="Group_395" data-name="Group 395" transform="translate(9.782)">
          <path id="Path_2491" data-name="Path 2491" d="M-109.381,275.458a1.181,1.181,0,0,1-.295,1.12,1.128,1.128,0,0,1-.545.324l-.633.177-11.418,3.079-1.046.28-1.134.619-12.051,6.585-.25,8.073,8.574,2.77h-3.447a7.351,7.351,0,0,0-2.681.5l-3.433-1.1-.589-.192a1.177,1.177,0,0,1-.81-1.164l.015-.56.295-9.06a1.2,1.2,0,0,1,.6-1l5.657-3.094,2.151-1.179,6.1-3.329c.059-.029.133-.059.206-.088l.177-.044,13.1-3.536a1.205,1.205,0,0,1,.958.147.776.776,0,0,1,.206.177A1.223,1.223,0,0,1-109.381,275.458Z" transform="translate(139.14 -274.592)" fill="#19323f" stroke="#19323f" stroke-width="1"/>
        </g>
        <g id="Group_396" data-name="Group 396" transform="translate(16.599 48.245)">
          <path id="Path_2492" data-name="Path 2492" d="M-119.275,330.735a1.183,1.183,0,0,1-.044,1.665,1.2,1.2,0,0,1-.81.324,1.22,1.22,0,0,1-.854-.368L-134.2,318.463a1.2,1.2,0,0,1-.309-.913,1.144,1.144,0,0,1,.471-.84l11.8-8.78h1.635a2.744,2.744,0,0,0,1.532-.589,1.16,1.16,0,0,1-.354,1.444l-12.139,9.016Z" transform="translate(134.513 -307.34)" fill="#19323f" stroke="#19323f" stroke-width="1"/>
        </g>
      </g>
      <g id="Group_398" data-name="Group 398" transform="translate(5.289 2.57)">
        <path id="Path_2493" data-name="Path 2493" d="M-123.843,285.6-137,272.292H-156.35v-2.357h20.337l13.846,14.011Z" transform="translate(156.35 -269.935)" fill="#19323f" stroke="#19323f" stroke-width="1"/>
      </g>
      <g id="Group_399" data-name="Group 399" transform="translate(5.283 48.368)">
        <rect id="Rectangle_99" data-name="Rectangle 99" width="2.357" height="16.749" transform="translate(0 2.357) rotate(-89.705)" fill="#19323f" stroke="#19323f" stroke-width="1"/>
      </g>
      <g id="Group_400" data-name="Group 400">
        <path id="Path_2494" data-name="Path 2494" d="M-152.648,270.753a3.721,3.721,0,0,0-3.536-2.563,3.75,3.75,0,0,0-3.757,3.742,3.754,3.754,0,0,0,3.757,3.757,3.734,3.734,0,0,0,3.55-2.578,3.873,3.873,0,0,0,.192-1.179A3.477,3.477,0,0,0-152.648,270.753Zm-3.536,2.578a1.4,1.4,0,0,1-1.4-1.4,1.4,1.4,0,0,1,1.4-1.385,1.383,1.383,0,0,1,1.385,1.385A1.386,1.386,0,0,1-156.183,273.332Z" transform="translate(159.94 -268.19)" fill="#19323f" stroke="#19323f" stroke-width="1"/>
      </g>
      <g id="Group_401" data-name="Group 401" transform="translate(5.289 84.062)">
        <path id="Path_2495" data-name="Path 2495" d="M-136.011,337.711H-156.35v-2.357H-137l9.905-10.1,1.683,1.65Z" transform="translate(156.35 -325.25)" fill="#19323f" stroke="#19323f" stroke-width="1"/>
      </g>
      <g id="Group_402" data-name="Group 402" transform="translate(0 91.591)">
        <path id="Path_2496" data-name="Path 2496" d="M-152.633,332.938a3.734,3.734,0,0,0-3.55-2.578,3.754,3.754,0,0,0-3.757,3.757,3.75,3.75,0,0,0,3.757,3.742,3.721,3.721,0,0,0,3.536-2.563,3.478,3.478,0,0,0,.206-1.179A3.873,3.873,0,0,0-152.633,332.938Zm-3.55,2.563a1.4,1.4,0,0,1-1.4-1.385,1.408,1.408,0,0,1,1.4-1.4,1.4,1.4,0,0,1,1.385,1.4A1.383,1.383,0,0,1-156.183,335.5Z" transform="translate(159.94 -330.36)" fill="#19323f" stroke="#19323f" stroke-width="1"/>
      </g>
      <g id="Group_403" data-name="Group 403" transform="translate(0 45.803)">
        <path id="Path_2497" data-name="Path 2497" d="M-152.633,301.858a3.739,3.739,0,0,0-3.55-2.578,3.75,3.75,0,0,0-3.757,3.742,3.763,3.763,0,0,0,3.757,3.757,3.721,3.721,0,0,0,3.536-2.563,3.628,3.628,0,0,0,.206-1.193A3.445,3.445,0,0,0-152.633,301.858Zm-3.55,2.563a1.408,1.408,0,0,1-1.4-1.4,1.4,1.4,0,0,1,1.4-1.385,1.383,1.383,0,0,1,1.385,1.385A1.4,1.4,0,0,1-156.183,304.422Z" transform="translate(159.94 -299.28)" fill="#19323f" stroke="#19323f" stroke-width="1"/>
      </g>
      <g id="Group_404" data-name="Group 404" transform="translate(58.929 9.62)">
        <rect id="Rectangle_100" data-name="Rectangle 100" width="2.357" height="23.704" fill="#19323f" stroke="#19323f" stroke-width="1"/>
        <path id="Path_2498" data-name="Path 2498" d="M-117.583,303.72v37.936h-2.357V303.543a3.088,3.088,0,0,1,.825-.1h.059A4.155,4.155,0,0,1-117.583,303.72Z" transform="translate(119.94 -261.129)" fill="#19323f" stroke="#19323f" stroke-width="1"/>
      </g>
      <g id="Group_405" data-name="Group 405" transform="translate(44.847 13)">
        <path id="Path_2499" data-name="Path 2499" d="M-125.138,289.34a1.18,1.18,0,0,1-1.123-.821l-3.182-9.969a1.178,1.178,0,0,1,.765-1.481,1.18,1.18,0,0,1,1.482.765l3.182,9.968a1.18,1.18,0,0,1-.765,1.482A1.173,1.173,0,0,1-125.138,289.34Z" transform="translate(129.499 -277.014)" fill="#19323f" stroke="#19323f" stroke-width="1"/>
      </g>
      <g id="Group_410" data-name="Group 410" transform="translate(59.782 9.432)">
        <g id="Group_406" data-name="Group 406" transform="translate(0 44.563)">
          <path id="Path_2500" data-name="Path 2500" d="M-101.547,344.475h-8.334a1.188,1.188,0,0,1-.429-.08l-8.3-3.24a1.18,1.18,0,0,1-.67-1.526,1.181,1.181,0,0,1,1.528-.67l8.094,3.159h7.608l11.672-12.2v-6.3a1.181,1.181,0,0,1,.243-.717l4.7-6.124L-85.288,306a1.179,1.179,0,0,1,1.179-1.162h.016a1.178,1.178,0,0,1,1.162,1.195l-.152,11.164a1.18,1.18,0,0,1-.245.7l-4.694,6.118v6.373a1.186,1.186,0,0,1-.327.816l-12.347,12.9A1.178,1.178,0,0,1-101.547,344.475Z" transform="translate(119.361 -304.841)" fill="#19323f" stroke="#19323f" stroke-width="1"/>
        </g>
        <g id="Group_407" data-name="Group 407" transform="translate(22.998 20.791)">
          <path id="Path_2501" data-name="Path 2501" d="M-87.176,297.4v10.71a1.206,1.206,0,0,1-.147.589l-.339.589-2.652,4.67v.044l-.162.236a1.145,1.145,0,0,1-.707.545l-1.5.413-9.576,2.593a1.1,1.1,0,0,1-.309.029,1.164,1.164,0,0,1-1.134-.869,1.428,1.428,0,0,1-.044-.339,1.191,1.191,0,0,1,.869-1.1l2.784-.751,7.823-2.107,2.74-4.847v-9.826l-8.81-6.777-.5-.383a1.176,1.176,0,0,1-.221-1.65,1.176,1.176,0,0,1,1.65-.221l.442.339,9.34,7.175A1.193,1.193,0,0,1-87.176,297.4Z" transform="translate(103.75 -288.705)" fill="#19323f" stroke="#19323f" stroke-width="1"/>
        </g>
        <g id="Group_408" data-name="Group 408">
          <path id="Path_2502" data-name="Path 2502" d="M-89.571,296.525a1.177,1.177,0,0,1-.81,1.164l-.575.192-3.816,1.223a7.3,7.3,0,0,0-2.961-.619h-2.784l8.574-2.77-.265-8.073-12.051-6.585-1.134-.619-1.046-.28-11.418-3.079-.633-.177a1.085,1.085,0,0,1-.545-.324,1.14,1.14,0,0,1-.28-1.12,1.056,1.056,0,0,1,.28-.5.775.775,0,0,1,.206-.177,1.205,1.205,0,0,1,.958-.147l13.1,3.536.177.044a.9.9,0,0,1,.177.074.054.054,0,0,1,.044.015l6.084,3.329,2.151,1.179,5.657,3.094a1.143,1.143,0,0,1,.6,1l.295,9.06Z" transform="translate(119.361 -274.592)" fill="#19323f" stroke="#19323f" stroke-width="1"/>
        </g>
        <g id="Group_409" data-name="Group 409" transform="translate(7.415 48.583)">
          <path id="Path_2503" data-name="Path 2503" d="M-98.759,317.441a1.154,1.154,0,0,1-.324.913L-112.3,332.247a1.2,1.2,0,0,1-.854.368,1.229,1.229,0,0,1-.81-.324,1.183,1.183,0,0,1-.044-1.665l12.3-12.935-12.139-9.016a1.182,1.182,0,0,1-.471-1.1,2.278,2.278,0,0,0,.987.25h2.283l11.815,8.78A1.194,1.194,0,0,1-98.759,317.441Z" transform="translate(114.328 -307.57)" fill="#19323f" stroke="#19323f" stroke-width="1"/>
        </g>
      </g>
      <g id="Group_411" data-name="Group 411" transform="translate(80.747 2.57)">
        <path id="Path_2504" data-name="Path 2504" d="M-103.454,285.6l-1.676-1.657,13.846-14.011h20.337v2.357H-90.3Z" transform="translate(105.13 -269.935)" fill="#19323f" stroke="#19323f" stroke-width="1"/>
      </g>
      <g id="Group_412" data-name="Group 412" transform="translate(98.176 48.368)">
        <rect id="Rectangle_101" data-name="Rectangle 101" width="16.749" height="2.357" transform="translate(0 0.086) rotate(-0.294)" fill="#19323f" stroke="#19323f" stroke-width="1"/>
      </g>
      <g id="Group_413" data-name="Group 413" transform="translate(112.717)">
        <path id="Path_2505" data-name="Path 2505" d="M-79.688,268.19a3.721,3.721,0,0,0-3.536,2.563,3.478,3.478,0,0,0-.206,1.179,3.873,3.873,0,0,0,.192,1.179,3.734,3.734,0,0,0,3.55,2.578,3.754,3.754,0,0,0,3.757-3.757A3.75,3.75,0,0,0-79.688,268.19Zm0,5.142a1.386,1.386,0,0,1-1.385-1.4,1.383,1.383,0,0,1,1.385-1.385,1.386,1.386,0,0,1,1.4,1.385A1.39,1.39,0,0,1-79.688,273.332Z" transform="translate(83.43 -268.19)" fill="#19323f" stroke="#19323f" stroke-width="1"/>
      </g>
      <g id="Group_414" data-name="Group 414" transform="translate(83.992 84.062)">
        <path id="Path_2506" data-name="Path 2506" d="M-71.99,337.711H-92.329l-10.6-10.811,1.683-1.65,9.905,10.1H-71.99Z" transform="translate(102.927 -325.25)" fill="#19323f" stroke="#19323f" stroke-width="1"/>
      </g>
      <g id="Group_415" data-name="Group 415" transform="translate(112.717 91.591)">
        <path id="Path_2507" data-name="Path 2507" d="M-79.688,330.36a3.734,3.734,0,0,0-3.55,2.578,3.873,3.873,0,0,0-.192,1.179,3.478,3.478,0,0,0,.206,1.179,3.721,3.721,0,0,0,3.536,2.563,3.75,3.75,0,0,0,3.757-3.742A3.754,3.754,0,0,0-79.688,330.36Zm0,5.142a1.383,1.383,0,0,1-1.385-1.385,1.4,1.4,0,0,1,1.385-1.4,1.4,1.4,0,0,1,1.4,1.4A1.386,1.386,0,0,1-79.688,335.5Z" transform="translate(83.43 -330.36)" fill="#19323f" stroke="#19323f" stroke-width="1"/>
      </g>
      <g id="Group_416" data-name="Group 416" transform="translate(112.717 45.803)">
        <path id="Path_2508" data-name="Path 2508" d="M-79.688,299.28a3.739,3.739,0,0,0-3.55,2.578,3.445,3.445,0,0,0-.192,1.164,3.629,3.629,0,0,0,.206,1.193,3.721,3.721,0,0,0,3.536,2.563,3.763,3.763,0,0,0,3.757-3.757A3.75,3.75,0,0,0-79.688,299.28Zm0,5.142a1.4,1.4,0,0,1-1.385-1.4,1.383,1.383,0,0,1,1.385-1.385,1.386,1.386,0,0,1,1.4,1.385A1.4,1.4,0,0,1-79.688,304.422Z" transform="translate(83.43 -299.28)" fill="#19323f" stroke="#19323f" stroke-width="1"/>
      </g>
      <g id="Group_417" data-name="Group 417" transform="translate(69.833 13)">
        <path id="Path_2509" data-name="Path 2509" d="M-111.359,289.34a1.173,1.173,0,0,1-.359-.056,1.18,1.18,0,0,1-.765-1.482l3.182-9.968a1.18,1.18,0,0,1,1.482-.765,1.178,1.178,0,0,1,.765,1.481l-3.182,9.969A1.18,1.18,0,0,1-111.359,289.34Z" transform="translate(112.539 -277.014)" fill="#19323f" stroke="#19323f" stroke-width="1"/>
      </g>
    </g>
    <path id="Path_1300" data-name="Path 1300" d="M-102.881,307.141a1.191,1.191,0,0,0-.869,1.1,7.225,7.225,0,0,0,3.654-1.856Z" transform="translate(26.591 18.077)" fill="#19323f" stroke="#19323f" stroke-width="1"/>
    <path id="Path_2510" data-name="Path 2510" d="M-85.463,291.429a7.3,7.3,0,0,0-2.961-.619h-43.254a7.351,7.351,0,0,0-2.681.5,7.344,7.344,0,0,0-4.67,6.851v10.254a7.293,7.293,0,0,0,2.063,5.1l.015.015a7.314,7.314,0,0,0,4.567,2.18,5.693,5.693,0,0,0,.707.044h13.215a2.745,2.745,0,0,0,1.532-.589,14.854,14.854,0,0,0,3.418-3.86,4.11,4.11,0,0,1,2.608-1.783,3.088,3.088,0,0,1,.825-.1h.059a4.155,4.155,0,0,1,1.473.28,4.092,4.092,0,0,1,1.959,1.606c.9,1.37,2.46,3.477,3.963,4.2a2.278,2.278,0,0,0,.987.25h13.215a6.969,6.969,0,0,0,1.37-.133,1.191,1.191,0,0,1,.869-1.1l2.784-.751a7.293,7.293,0,0,0,2.328-5.348V298.161A7.34,7.34,0,0,0-85.463,291.429Zm-35.888,2.667h-9.193a4.958,4.958,0,0,0-4.965,4.965v9.193a.787.787,0,0,1-.81.751.777.777,0,0,1-.766-.751V299.06a6.526,6.526,0,0,1,6.512-6.526h9.222a.764.764,0,0,1,.766.781A.773.773,0,0,1-121.351,294.1Z" transform="translate(9.895 10.704)" fill="#19323f" stroke="#19323f" stroke-width="1"/>
  </g>
</svg>
