<svg xmlns="http://www.w3.org/2000/svg" width="122.217" height="113.416" viewBox="0 0 122.217 113.416">
  <g id="Group_392" data-name="Group 392" transform="translate(-1167.316 -400.351)">
    <g id="Group_368" data-name="Group 368" transform="translate(1231.483 401.351)">
      <g id="Group_358" data-name="Group 358">
        <g id="Group_348" data-name="Group 348">
          <path id="Path_2465" data-name="Path 2465" d="M1249.063,415.456h-14.1v-14.1h14.1Zm-12.587-1.517h11.071V402.868h-11.071Z" transform="translate(-1234.959 -401.351)" fill="#19323f" stroke="#19323f" stroke-width="2"/>
        </g>
        <g id="Group_349" data-name="Group 349" transform="translate(0 41.603)">
          <path id="Path_2466" data-name="Path 2466" d="M1249.063,459.348h-14.1v-14.1h14.1Zm-12.587-1.517h11.071V446.76h-11.071Z" transform="translate(-1234.959 -445.243)" fill="#19323f" stroke="#19323f" stroke-width="2"/>
        </g>
        <g id="Group_350" data-name="Group 350" transform="translate(0 20.801)">
          <path id="Path_2467" data-name="Path 2467" d="M1249.063,437.4h-14.1V423.3h14.1Zm-12.587-1.517h11.071V424.814h-11.071Z" transform="translate(-1234.959 -423.297)" fill="#19323f" stroke="#19323f" stroke-width="2"/>
        </g>
        <g id="Group_351" data-name="Group 351" transform="translate(21.473)">
          <path id="Path_2468" data-name="Path 2468" d="M1271.717,415.456h-14.1v-14.1h14.1Zm-12.587-1.517H1270.2V402.868H1259.13Z" transform="translate(-1257.613 -401.351)" fill="#19323f" stroke="#19323f" stroke-width="2"/>
        </g>
        <g id="Group_352" data-name="Group 352" transform="translate(21.473 41.603)">
          <path id="Path_2469" data-name="Path 2469" d="M1271.717,459.348h-14.1v-14.1h14.1Zm-12.587-1.517H1270.2V446.76H1259.13Z" transform="translate(-1257.613 -445.243)" fill="#19323f" stroke="#19323f" stroke-width="2"/>
        </g>
        <g id="Group_353" data-name="Group 353" transform="translate(21.473 20.801)">
          <path id="Path_2470" data-name="Path 2470" d="M1271.717,437.4h-14.1V423.3h14.1Zm-12.587-1.517H1270.2V424.814H1259.13Z" transform="translate(-1257.613 -423.297)" fill="#19323f" stroke="#19323f" stroke-width="2"/>
        </g>
        <g id="Group_357" data-name="Group 357" transform="translate(42.945)">
          <g id="Group_354" data-name="Group 354">
            <path id="Path_2471" data-name="Path 2471" d="M1294.371,415.456h-14.1v-14.1h14.1Zm-12.588-1.517h11.071V402.868h-11.071Z" transform="translate(-1280.267 -401.351)" fill="#19323f" stroke="#19323f" stroke-width="2"/>
          </g>
          <g id="Group_355" data-name="Group 355" transform="translate(0 41.603)">
            <path id="Path_2472" data-name="Path 2472" d="M1294.371,459.348h-14.1v-14.1h14.1Zm-12.588-1.517h11.071V446.76h-11.071Z" transform="translate(-1280.267 -445.243)" fill="#19323f" stroke="#19323f" stroke-width="2"/>
          </g>
          <g id="Group_356" data-name="Group 356" transform="translate(0 20.801)">
            <path id="Path_2473" data-name="Path 2473" d="M1294.371,437.4h-14.1V423.3h14.1Zm-12.588-1.517h11.071V424.814h-11.071Z" transform="translate(-1280.267 -423.297)" fill="#19323f" stroke="#19323f" stroke-width="2"/>
          </g>
        </g>
      </g>
      <g id="Group_359" data-name="Group 359" transform="translate(49.239 13.346)">
        <rect id="Rectangle_85" data-name="Rectangle 85" width="1.517" height="8.213" fill="#19323f"/>
      </g>
      <g id="Group_360" data-name="Group 360" transform="translate(34.819 27.104)">
        <rect id="Rectangle_86" data-name="Rectangle 86" width="8.884" height="1.517" fill="#19323f"/>
      </g>
      <g id="Group_361" data-name="Group 361" transform="translate(13.346 27.104)">
        <rect id="Rectangle_87" data-name="Rectangle 87" width="8.885" height="1.517" fill="#19323f"/>
      </g>
      <g id="Group_362" data-name="Group 362" transform="translate(6.294 34.148)">
        <rect id="Rectangle_88" data-name="Rectangle 88" width="1.517" height="8.214" fill="#19323f"/>
      </g>
      <g id="Group_363" data-name="Group 363" transform="translate(13.346 47.897)">
        <rect id="Rectangle_89" data-name="Rectangle 89" width="8.884" height="1.517" fill="#19323f"/>
      </g>
      <g id="Group_364" data-name="Group 364" transform="translate(34.819 47.897)">
        <rect id="Rectangle_90" data-name="Rectangle 90" width="8.389" height="1.517" fill="#19323f"/>
      </g>
      <g id="Group_365" data-name="Group 365" transform="translate(2.293 2.391)">
        <path id="Path_2474" data-name="Path 2474" d="M1246.9,413.391h-9.518v-9.517h9.518Zm-8-1.517h6.485v-6.484h-6.485Z" transform="translate(-1237.378 -403.874)" fill="#19323f"/>
      </g>
      <g id="Group_366" data-name="Group 366" transform="translate(23.765 2.391)">
        <path id="Path_2475" data-name="Path 2475" d="M1269.55,413.391h-9.518v-9.517h9.518Zm-8-1.517h6.485v-6.484h-6.485Z" transform="translate(-1260.032 -403.874)" fill="#19323f"/>
      </g>
      <g id="Group_367" data-name="Group 367" transform="translate(13.346 6.294)">
        <rect id="Rectangle_91" data-name="Rectangle 91" width="8.885" height="1.517" fill="#19323f"/>
      </g>
    </g>
    <g id="Group_389" data-name="Group 389" transform="translate(1168.316 457.059)">
      <g id="Group_379" data-name="Group 379">
        <g id="Group_369" data-name="Group 369">
          <path id="Path_2476" data-name="Path 2476" d="M1182.421,474.229h-14.1v-14.1h14.1Zm-12.588-1.517H1180.9V461.641h-11.072Z" transform="translate(-1168.316 -460.124)" fill="#19323f" stroke="#19323f" stroke-width="1"/>
        </g>
        <g id="Group_370" data-name="Group 370" transform="translate(0 41.603)">
          <path id="Path_2477" data-name="Path 2477" d="M1182.421,518.121h-14.1v-14.1h14.1Zm-12.588-1.516H1180.9V505.533h-11.072Z" transform="translate(-1168.316 -504.016)" fill="#19323f" stroke="#19323f" stroke-width="2"/>
        </g>
        <g id="Group_371" data-name="Group 371" transform="translate(0 20.801)">
          <path id="Path_2478" data-name="Path 2478" d="M1182.421,496.175h-14.1v-14.1h14.1Zm-12.588-1.517H1180.9V483.587h-11.072Z" transform="translate(-1168.316 -482.07)" fill="#19323f" stroke="#19323f" stroke-width="2"/>
        </g>
        <g id="Group_372" data-name="Group 372" transform="translate(21.473)">
          <path id="Path_2479" data-name="Path 2479" d="M1205.075,474.229h-14.1v-14.1h14.1Zm-12.587-1.517h11.071V461.641h-11.071Z" transform="translate(-1190.971 -460.124)" fill="#19323f" stroke="#19323f" stroke-width="1"/>
        </g>
        <g id="Group_373" data-name="Group 373" transform="translate(21.473 41.603)">
          <path id="Path_2480" data-name="Path 2480" d="M1205.075,518.121h-14.1v-14.1h14.1Zm-12.587-1.516h11.071V505.533h-11.071Z" transform="translate(-1190.971 -504.016)" fill="#19323f" stroke="#19323f" stroke-width="2"/>
        </g>
        <g id="Group_374" data-name="Group 374" transform="translate(21.473 20.801)">
          <path id="Path_2481" data-name="Path 2481" d="M1205.075,496.175h-14.1v-14.1h14.1Zm-12.587-1.517h11.071V483.587h-11.071Z" transform="translate(-1190.971 -482.07)" fill="#19323f" stroke="#19323f" stroke-width="2"/>
        </g>
        <g id="Group_378" data-name="Group 378" transform="translate(42.945)">
          <g id="Group_375" data-name="Group 375">
            <path id="Path_2482" data-name="Path 2482" d="M1227.729,474.229h-14.1v-14.1h14.1Zm-12.588-1.517h11.072V461.641h-11.072Z" transform="translate(-1213.624 -460.124)" fill="#19323f" stroke="#19323f" stroke-width="2"/>
          </g>
          <g id="Group_376" data-name="Group 376" transform="translate(0 41.603)">
            <path id="Path_2483" data-name="Path 2483" d="M1227.729,518.121h-14.1v-14.1h14.1Zm-12.588-1.516h11.072V505.533h-11.072Z" transform="translate(-1213.624 -504.016)" fill="#19323f" stroke="#19323f" stroke-width="2"/>
          </g>
          <g id="Group_377" data-name="Group 377" transform="translate(0 20.801)">
            <path id="Path_2484" data-name="Path 2484" d="M1227.729,496.175h-14.1v-14.1h14.1Zm-12.588-1.517h11.072V483.587h-11.072Z" transform="translate(-1213.624 -482.07)" fill="#19323f" stroke="#19323f" stroke-width="2"/>
          </g>
        </g>
      </g>
      <g id="Group_380" data-name="Group 380" transform="translate(49.239 13.346)">
        <rect id="Rectangle_92" data-name="Rectangle 92" width="1.517" height="8.213" fill="#19323f"/>
      </g>
      <g id="Group_381" data-name="Group 381" transform="translate(34.82 27.104)">
        <rect id="Rectangle_93" data-name="Rectangle 93" width="8.884" height="1.517" fill="#19323f"/>
      </g>
      <g id="Group_382" data-name="Group 382" transform="translate(13.346 27.104)">
        <rect id="Rectangle_94" data-name="Rectangle 94" width="8.885" height="1.517" fill="#19323f"/>
      </g>
      <g id="Group_383" data-name="Group 383" transform="translate(6.295 34.148)">
        <rect id="Rectangle_95" data-name="Rectangle 95" width="1.517" height="8.214" fill="#19323f"/>
      </g>
      <g id="Group_384" data-name="Group 384" transform="translate(13.347 47.897)">
        <rect id="Rectangle_96" data-name="Rectangle 96" width="8.884" height="1.517" fill="#19323f"/>
      </g>
      <g id="Group_385" data-name="Group 385" transform="translate(34.82 47.897)">
        <rect id="Rectangle_97" data-name="Rectangle 97" width="8.389" height="1.517" fill="#19323f"/>
      </g>
      <g id="Group_386" data-name="Group 386" transform="translate(2.294 2.391)">
        <path id="Path_2485" data-name="Path 2485" d="M1180.253,472.164h-9.517v-9.517h9.517Zm-8-1.517h6.484v-6.484h-6.484Z" transform="translate(-1170.736 -462.647)" fill="#19323f"/>
      </g>
      <g id="Group_387" data-name="Group 387" transform="translate(23.766 2.391)">
        <path id="Path_2486" data-name="Path 2486" d="M1202.908,472.164h-9.518v-9.517h9.518Zm-8-1.517h6.485v-6.484h-6.485Z" transform="translate(-1193.39 -462.647)" fill="#19323f"/>
      </g>
      <g id="Group_388" data-name="Group 388" transform="translate(13.346 6.294)">
        <rect id="Rectangle_98" data-name="Rectangle 98" width="8.885" height="1.517" fill="#19323f"/>
      </g>
    </g>
    <g id="Group_390" data-name="Group 390" transform="translate(1226.661 457.991)">
      <path id="Path_2487" data-name="Path 2487" d="M1250.668,490.589v-1.907h30.84V463.737h3.553v26.853Z" transform="translate(-1250.668 -463.737)" fill="#19323f" stroke="#19323f" stroke-width="3"/>
    </g>
    <g id="Group_391" data-name="Group 391" transform="translate(1197.238 428.153)">
      <path id="Path_2488" data-name="Path 2488" d="M1234.952,423.3v1.948H1205.4v25.487h-3.4V423.3Z" transform="translate(-1201.994 -423.297)" fill="#19323f" stroke="#19323f" stroke-width="3"/>
    </g>
  </g>
</svg>
