<svg xmlns="http://www.w3.org/2000/svg" width="120.581" height="114.744" viewBox="0 0 120.581 114.744">
  <g id="Group_295" data-name="Group 295" transform="translate(-6393.827 -4338.861)">
    <path id="Path_2403" data-name="Path 2403" d="M6546.98,4459.654h0c.632,0-.161.632-.161,0v-2.894a1.147,1.147,0,0,0-1.146-1.146h-20.66a3.71,3.71,0,0,1-3.706-3.706v-2.893a3.711,3.711,0,0,1,3.417-3.695,1.38,1.38,0,0,1,.17-.011h20.572a1.516,1.516,0,0,0,1.514-1.514l.339-2.543h2.06l.161,2.543a4.077,4.077,0,0,1-4.073,4.073h-20.453a1.148,1.148,0,0,0-1.147,1.146v2.893a1.148,1.148,0,0,0,1.147,1.147h20.66a3.709,3.709,0,0,1,3.705,3.705v2.063c0,1.946,2.069.683.161.83-.056.008.625-.33.567-.33l-3.126.33c-.834,0,3.251-1.164,3.251-.33Z" transform="translate(-80.451 -61.384)" fill="#19323f" stroke="#19323f" stroke-width="1"/>
    <g id="Group_268" data-name="Group 268" transform="translate(6394.327 4396.125)">
      <path id="Path_2404" data-name="Path 2404" d="M6512.629,4551.59H6395.607a1.28,1.28,0,0,1-1.28-1.28v-54.421a1.28,1.28,0,0,1,1.28-1.28h117.022a1.28,1.28,0,0,1,1.279,1.28v54.421A1.28,1.28,0,0,1,6512.629,4551.59Zm-115.742-2.56h114.462v-51.862H6396.887Z" transform="translate(-6394.327 -4494.609)" fill="#19323f" stroke="#19323f" stroke-width="1"/>
    </g>
    <g id="Group_292" data-name="Group 292" transform="translate(6402.375 4404.387)">
      <g id="Group_269" data-name="Group 269" transform="translate(0 0)">
        <path id="Path_2405" data-name="Path 2405" d="M6426.189,4527.488h-8.572a1.28,1.28,0,0,1-1.279-1.28v-7.723a1.279,1.279,0,0,1,1.279-1.28h8.572a1.28,1.28,0,0,1,1.28,1.28v7.723A1.28,1.28,0,0,1,6426.189,4527.488Zm-7.292-2.56h6.013v-5.163H6418.9Z" transform="translate(-6416.338 -4517.206)" fill="#19323f"/>
      </g>
      <g id="Group_270" data-name="Group 270" transform="translate(11.539 0)">
        <path id="Path_2406" data-name="Path 2406" d="M6457.748,4527.488h-8.572a1.279,1.279,0,0,1-1.279-1.28v-7.723a1.279,1.279,0,0,1,1.279-1.28h8.572a1.28,1.28,0,0,1,1.28,1.28v7.723A1.28,1.28,0,0,1,6457.748,4527.488Zm-7.292-2.56h6.012v-5.163h-6.012Z" transform="translate(-6447.896 -4517.206)" fill="#19323f"/>
      </g>
      <g id="Group_271" data-name="Group 271" transform="translate(23.076 0)">
        <path id="Path_2407" data-name="Path 2407" d="M6489.3,4527.488h-8.572a1.28,1.28,0,0,1-1.28-1.28v-7.723a1.28,1.28,0,0,1,1.28-1.28h8.572a1.28,1.28,0,0,1,1.28,1.28v7.723A1.28,1.28,0,0,1,6489.3,4527.488Zm-7.292-2.56h6.013v-5.163h-6.013Z" transform="translate(-6479.452 -4517.206)" fill="#19323f"/>
      </g>
      <g id="Group_272" data-name="Group 272" transform="translate(34.615 0)">
        <path id="Path_2408" data-name="Path 2408" d="M6520.861,4527.488h-8.572a1.28,1.28,0,0,1-1.279-1.28v-7.723a1.28,1.28,0,0,1,1.279-1.28h8.572a1.279,1.279,0,0,1,1.279,1.28v7.723A1.279,1.279,0,0,1,6520.861,4527.488Zm-7.292-2.56h6.012v-5.163h-6.012Z" transform="translate(-6511.01 -4517.206)" fill="#19323f"/>
      </g>
      <g id="Group_273" data-name="Group 273" transform="translate(46.152 0)">
        <path id="Path_2409" data-name="Path 2409" d="M6552.418,4527.488h-8.573a1.28,1.28,0,0,1-1.28-1.28v-7.723a1.28,1.28,0,0,1,1.28-1.28h8.573a1.28,1.28,0,0,1,1.28,1.28v7.723A1.28,1.28,0,0,1,6552.418,4527.488Zm-7.293-2.56h6.013v-5.163h-6.013Z" transform="translate(-6542.566 -4517.206)" fill="#19323f"/>
      </g>
      <g id="Group_274" data-name="Group 274" transform="translate(57.691 0)">
        <path id="Path_2410" data-name="Path 2410" d="M6583.976,4527.488H6575.4a1.28,1.28,0,0,1-1.28-1.28v-7.723a1.28,1.28,0,0,1,1.28-1.28h8.572a1.279,1.279,0,0,1,1.279,1.28v7.723A1.279,1.279,0,0,1,6583.976,4527.488Zm-7.292-2.56h6.012v-5.163h-6.012Z" transform="translate(-6574.124 -4517.206)" fill="#19323f"/>
      </g>
      <g id="Group_275" data-name="Group 275" transform="translate(69.23 0)">
        <path id="Path_2411" data-name="Path 2411" d="M6615.533,4527.488h-8.571a1.28,1.28,0,0,1-1.28-1.28v-7.723a1.279,1.279,0,0,1,1.28-1.28h8.571a1.28,1.28,0,0,1,1.28,1.28v7.723A1.28,1.28,0,0,1,6615.533,4527.488Zm-7.292-2.56h6.013v-5.163h-6.013Z" transform="translate(-6605.682 -4517.206)" fill="#19323f"/>
      </g>
      <g id="Group_276" data-name="Group 276" transform="translate(80.767 0)">
        <path id="Path_2412" data-name="Path 2412" d="M6647.09,4527.488h-8.572a1.28,1.28,0,0,1-1.28-1.28v-7.723a1.28,1.28,0,0,1,1.28-1.28h8.572a1.28,1.28,0,0,1,1.279,1.28v7.723A1.28,1.28,0,0,1,6647.09,4527.488Zm-7.293-2.56h6.013v-5.163H6639.8Z" transform="translate(-6637.238 -4517.206)" fill="#19323f"/>
      </g>
      <g id="Group_277" data-name="Group 277" transform="translate(92.305 0)">
        <path id="Path_2413" data-name="Path 2413" d="M6678.647,4527.488h-8.572a1.28,1.28,0,0,1-1.28-1.28v-7.723a1.28,1.28,0,0,1,1.28-1.28h8.572a1.28,1.28,0,0,1,1.28,1.28v7.723A1.28,1.28,0,0,1,6678.647,4527.488Zm-7.292-2.56h6.013v-5.163h-6.013Z" transform="translate(-6668.795 -4517.206)" fill="#19323f"/>
      </g>
      <g id="Group_278" data-name="Group 278" transform="translate(0 12.367)">
        <path id="Path_2414" data-name="Path 2414" d="M6426.189,4561.311h-8.572a1.279,1.279,0,0,1-1.279-1.28v-7.723a1.28,1.28,0,0,1,1.279-1.28h8.572a1.281,1.281,0,0,1,1.28,1.28v7.723A1.28,1.28,0,0,1,6426.189,4561.311Zm-7.292-2.559h6.013v-5.164H6418.9Z" transform="translate(-6416.338 -4551.029)" fill="#19323f"/>
      </g>
      <g id="Group_279" data-name="Group 279" transform="translate(11.539 12.367)">
        <path id="Path_2415" data-name="Path 2415" d="M6457.748,4561.311h-8.572a1.279,1.279,0,0,1-1.279-1.28v-7.723a1.28,1.28,0,0,1,1.279-1.28h8.572a1.28,1.28,0,0,1,1.28,1.28v7.723A1.28,1.28,0,0,1,6457.748,4561.311Zm-7.292-2.559h6.012v-5.164h-6.012Z" transform="translate(-6447.896 -4551.029)" fill="#19323f"/>
      </g>
      <g id="Group_280" data-name="Group 280" transform="translate(23.076 12.367)">
        <path id="Path_2416" data-name="Path 2416" d="M6489.3,4561.311h-8.572a1.28,1.28,0,0,1-1.28-1.28v-7.723a1.28,1.28,0,0,1,1.28-1.28h8.572a1.281,1.281,0,0,1,1.28,1.28v7.723A1.28,1.28,0,0,1,6489.3,4561.311Zm-7.292-2.559h6.013v-5.164h-6.013Z" transform="translate(-6479.452 -4551.029)" fill="#19323f"/>
      </g>
      <g id="Group_281" data-name="Group 281" transform="translate(34.615 12.367)">
        <path id="Path_2417" data-name="Path 2417" d="M6520.861,4561.311h-8.572a1.28,1.28,0,0,1-1.279-1.28v-7.723a1.28,1.28,0,0,1,1.279-1.28h8.572a1.28,1.28,0,0,1,1.279,1.28v7.723A1.279,1.279,0,0,1,6520.861,4561.311Zm-7.292-2.559h6.012v-5.164h-6.012Z" transform="translate(-6511.01 -4551.029)" fill="#19323f"/>
      </g>
      <g id="Group_282" data-name="Group 282" transform="translate(46.152 12.367)">
        <path id="Path_2418" data-name="Path 2418" d="M6552.418,4561.311h-8.573a1.28,1.28,0,0,1-1.28-1.28v-7.723a1.28,1.28,0,0,1,1.28-1.28h8.573a1.281,1.281,0,0,1,1.28,1.28v7.723A1.28,1.28,0,0,1,6552.418,4561.311Zm-7.293-2.559h6.013v-5.164h-6.013Z" transform="translate(-6542.566 -4551.029)" fill="#19323f"/>
      </g>
      <g id="Group_283" data-name="Group 283" transform="translate(57.691 12.367)">
        <path id="Path_2419" data-name="Path 2419" d="M6583.976,4561.311H6575.4a1.28,1.28,0,0,1-1.28-1.28v-7.723a1.28,1.28,0,0,1,1.28-1.28h8.572a1.28,1.28,0,0,1,1.279,1.28v7.723A1.279,1.279,0,0,1,6583.976,4561.311Zm-7.292-2.559h6.012v-5.164h-6.012Z" transform="translate(-6574.124 -4551.029)" fill="#19323f"/>
      </g>
      <g id="Group_284" data-name="Group 284" transform="translate(69.23 12.367)">
        <path id="Path_2420" data-name="Path 2420" d="M6615.533,4561.311h-8.571a1.279,1.279,0,0,1-1.28-1.28v-7.723a1.28,1.28,0,0,1,1.28-1.28h8.571a1.281,1.281,0,0,1,1.28,1.28v7.723A1.28,1.28,0,0,1,6615.533,4561.311Zm-7.292-2.559h6.013v-5.164h-6.013Z" transform="translate(-6605.682 -4551.029)" fill="#19323f"/>
      </g>
      <g id="Group_285" data-name="Group 285" transform="translate(80.767 12.367)">
        <path id="Path_2421" data-name="Path 2421" d="M6647.09,4561.311h-8.572a1.28,1.28,0,0,1-1.28-1.28v-7.723a1.281,1.281,0,0,1,1.28-1.28h8.572a1.28,1.28,0,0,1,1.279,1.28v7.723A1.28,1.28,0,0,1,6647.09,4561.311Zm-7.293-2.559h6.013v-5.164H6639.8Z" transform="translate(-6637.238 -4551.029)" fill="#19323f"/>
      </g>
      <g id="Group_286" data-name="Group 286" transform="translate(92.305 12.367)">
        <path id="Path_2422" data-name="Path 2422" d="M6678.647,4561.311h-8.572a1.28,1.28,0,0,1-1.28-1.28v-7.723a1.28,1.28,0,0,1,1.28-1.28h8.572a1.28,1.28,0,0,1,1.28,1.28v7.723A1.28,1.28,0,0,1,6678.647,4561.311Zm-7.292-2.559h6.013v-5.164h-6.013Z" transform="translate(-6668.795 -4551.029)" fill="#19323f"/>
      </g>
      <g id="Group_287" data-name="Group 287" transform="translate(0 24.734)">
        <path id="Path_2423" data-name="Path 2423" d="M6426.189,4595.135h-8.572a1.28,1.28,0,0,1-1.279-1.28v-7.723a1.279,1.279,0,0,1,1.279-1.28h8.572a1.28,1.28,0,0,1,1.28,1.28v7.723A1.28,1.28,0,0,1,6426.189,4595.135Zm-7.292-2.56h6.013v-5.164H6418.9Z" transform="translate(-6416.338 -4584.853)" fill="#19323f"/>
      </g>
      <g id="Group_288" data-name="Group 288" transform="translate(11.539 24.734)">
        <path id="Path_2424" data-name="Path 2424" d="M6457.748,4595.135h-8.572a1.279,1.279,0,0,1-1.279-1.28v-7.723a1.279,1.279,0,0,1,1.279-1.28h8.572a1.28,1.28,0,0,1,1.28,1.28v7.723A1.28,1.28,0,0,1,6457.748,4595.135Zm-7.292-2.56h6.012v-5.164h-6.012Z" transform="translate(-6447.896 -4584.853)" fill="#19323f"/>
      </g>
      <g id="Group_289" data-name="Group 289" transform="translate(23.076 24.734)">
        <path id="Path_2425" data-name="Path 2425" d="M6489.3,4595.135h-8.572a1.28,1.28,0,0,1-1.28-1.28v-7.723a1.28,1.28,0,0,1,1.28-1.28h8.572a1.28,1.28,0,0,1,1.28,1.28v7.723A1.28,1.28,0,0,1,6489.3,4595.135Zm-7.292-2.56h6.013v-5.164h-6.013Z" transform="translate(-6479.452 -4584.853)" fill="#19323f"/>
      </g>
      <g id="Group_290" data-name="Group 290" transform="translate(34.615 24.734)">
        <path id="Path_2426" data-name="Path 2426" d="M6567.014,4595.135h-54.725a1.28,1.28,0,0,1-1.279-1.28v-7.723a1.28,1.28,0,0,1,1.279-1.28h54.725a1.28,1.28,0,0,1,1.28,1.28v7.723A1.28,1.28,0,0,1,6567.014,4595.135Zm-53.445-2.56h52.165v-5.164h-52.165Z" transform="translate(-6511.01 -4584.853)" fill="#19323f"/>
      </g>
      <g id="Group_291" data-name="Group 291" transform="translate(92.305 24.734)">
        <path id="Path_2427" data-name="Path 2427" d="M6678.647,4595.135h-8.572a1.28,1.28,0,0,1-1.28-1.28v-7.723a1.28,1.28,0,0,1,1.28-1.28h8.572a1.28,1.28,0,0,1,1.28,1.28v7.723A1.28,1.28,0,0,1,6678.647,4595.135Zm-7.292-2.56h6.013v-5.164h-6.013Z" transform="translate(-6668.795 -4584.853)" fill="#19323f"/>
      </g>
    </g>
    <g id="Group_294" data-name="Group 294" transform="translate(6425.705 4339.362)">
      <g id="Group_293" data-name="Group 293" transform="translate(0 0)">
        <path id="Path_2429" data-name="Path 2429" d="M6491.366,4381.817a11.256,11.256,0,0,1-7.322-2.742,8.926,8.926,0,0,1-1.841-2.139c-.085-.126-.173-.254-.264-.384a3.69,3.69,0,0,1-.421-.837,2.448,2.448,0,0,0-.111-.265,1.865,1.865,0,0,1-.172-.48,12.828,12.828,0,0,1-1.053-4.533c-.6-8.886,6.256-11.8,9.715-12.9a15.425,15.425,0,0,1,3.784-11.418,20.272,20.272,0,0,1,15.277-6.762,17.856,17.856,0,0,1,12.433,4.924,17.3,17.3,0,0,1,5.18,10.007,13.107,13.107,0,0,1,6.506.258c4.726,1.311,8.015,5.444,8.585,10.787.044.417.072.7.089.927a8.881,8.881,0,0,1,4.206,2.6,1.278,1.278,0,0,1,.272.254,7.552,7.552,0,0,1,1.747,4.731c0,.2-.008.393-.022.585-.173,2.136-1.8,3.888-3.01,5.02a10.915,10.915,0,0,1-6.225,2.35l-.064,0Zm-7.647-7.463c.084.174.14.319.187.439a1.607,1.607,0,0,0,.13.292c.1.142.191.278.283.411a6.585,6.585,0,0,0,1.317,1.576,8.665,8.665,0,0,0,5.756,2.187l47.227-.005a8.5,8.5,0,0,0,4.574-1.661c.517-.484,2.095-1.962,2.207-3.352.009-.122.015-.252.015-.385a4.983,4.983,0,0,0-1.02-2.916,1.281,1.281,0,0,1-.234-.226,6.473,6.473,0,0,0-3.894-2.167,1.28,1.28,0,0,1-1.062-1.289,9.1,9.1,0,0,0-.089-1.648c-.456-4.276-3.032-7.568-6.724-8.592a10.434,10.434,0,0,0-5.866-.079l-.262.067c-.214.049-.361.087-.421.1a1.279,1.279,0,0,1-1.671-1.144,14.744,14.744,0,0,0-4.551-9.832,15.307,15.307,0,0,0-10.663-4.213,17.683,17.683,0,0,0-13.335,5.87,12.759,12.759,0,0,0-3.065,10.475,1.28,1.28,0,0,1-.909,1.423c-4.4,1.27-9.383,3.62-8.912,10.576a10.283,10.283,0,0,0,.847,3.685A2.059,2.059,0,0,1,6483.719,4374.354Zm-2.46.668.006.014Zm2.409-.771.022.044Z" transform="translate(-6480.146 -4339.362)" fill="#19323f" stroke="#19323f" stroke-width="1"/>
      </g>
      <path id="Path_2430" data-name="Path 2430" d="M6549.854,4367.2a1.28,1.28,0,0,1-1.276-1.207,8.939,8.939,0,0,0-2.76-5.961,9.3,9.3,0,0,0-6.478-2.558,10.587,10.587,0,0,0-8.932,4.646,1.28,1.28,0,0,1-2.175-1.349,13.193,13.193,0,0,1,11.107-5.856,11.842,11.842,0,0,1,8.248,3.27,11.49,11.49,0,0,1,3.545,7.662,1.28,1.28,0,0,1-1.2,1.351Z" transform="translate(-6510.529 -4349.228)" fill="#19323f" stroke="#19323f" stroke-width="1"/>
    </g>
  </g>
</svg>
