<svg xmlns="http://www.w3.org/2000/svg" width="120.715" height="63.832" viewBox="0 0 120.715 63.832">
  <g id="Group_317" data-name="Group 317" transform="translate(-767.805 -350.156)">
    <g id="Group_189" data-name="Group 189" transform="translate(768.055 350.839)">
      <path id="Path_1289" data-name="Path 1289" d="M972.351,501.887q-.664-.663-1.36-1.281a1.564,1.564,0,0,0-2.142.072l-.023.023a1.566,1.566,0,0,0,.068,2.278q.623.554,1.217,1.148a28.286,28.286,0,0,1-34.262,44.426,28.434,28.434,0,0,1-10.139-10.12L911.77,514.4a21.322,21.322,0,1,0-.568,20.486l4.394-7.573,4.027,6.941-2.41,4.153a28.272,28.272,0,0,1-24.418,14,28.088,28.088,0,0,1-19.628-7.922,6.858,6.858,0,0,1-1.293,3.12,31.46,31.46,0,0,0,36.8,3.673A31.618,31.618,0,0,0,919.95,540l1.5-2.593,1.525,2.627a31.439,31.439,0,0,0,27.133,15.54,31.45,31.45,0,0,0,22.238-53.688Zm-63.884,31.4a18.151,18.151,0,1,1-15.67-27.313,18.1,18.1,0,0,1,16.157,9.871l4.812,8.311Z" transform="translate(-861.347 -492.675)" fill="#19323f" stroke="#19323f" stroke-width="0.5"/>
      <path id="Path_1290" data-name="Path 1290" d="M789.622,382.808a21.257,21.257,0,0,0-19.774,11.574l-3.828,6.6-4.027-6.939,1.716-2.961A28.314,28.314,0,0,1,801.7,378.921a1.532,1.532,0,0,1,.152-.467,3.249,3.249,0,0,1,1.546-1.3c.215-.1.424-.221.636-.331a1.736,1.736,0,0,1,.045-.225,31.466,31.466,0,0,0-43.166,12.993l-.754,1.3-.754-1.3a31.458,31.458,0,1,0-55.156,30.243,1.568,1.568,0,0,0,2.463.316l.025-.025a1.568,1.568,0,0,0,.244-1.9,28.293,28.293,0,0,1,39.463-38.136,28.386,28.386,0,0,1,10.168,10.993l2.178,3.755,1.369,2.36L770.431,414.9a21.318,21.318,0,1,0,19.191-32.087Zm-.8,39.45a18.138,18.138,0,0,1-15.658-8.964l-5.311-9.153,4.812-8.311a18.151,18.151,0,1,1,16.157,26.428Z" transform="translate(-700.055 -372.66)" fill="#19323f" stroke="#19323f" stroke-width="0.5"/>
      <g id="Group_187" data-name="Group 187" transform="translate(74.338 24.632)">
        <path id="Path_1291" data-name="Path 1291" d="M1967.513,796.121a10.638,10.638,0,0,1-.347,2.806,6.764,6.764,0,0,1-.987,2.166,4.537,4.537,0,0,1-1.563,1.389,4.607,4.607,0,0,1-4.149,0,4.532,4.532,0,0,1-1.563-1.389,6.753,6.753,0,0,1-.987-2.166,11.584,11.584,0,0,1-.009-5.593,6.523,6.523,0,0,1,.978-2.139,4.333,4.333,0,0,1,3.656-1.855,4.4,4.4,0,0,1,2.074.484,4.485,4.485,0,0,1,1.563,1.371,6.676,6.676,0,0,1,.987,2.139A10.434,10.434,0,0,1,1967.513,796.121Zm-3,0a8.976,8.976,0,0,0-.128-1.563,5.071,5.071,0,0,0-.375-1.252,2.328,2.328,0,0,0-.613-.832,1.307,1.307,0,0,0-.859-.3,1.344,1.344,0,0,0-.868.3,2.278,2.278,0,0,0-.622.832,4.831,4.831,0,0,0-.365,1.252,9.6,9.6,0,0,0-.119,1.563,9.764,9.764,0,0,0,.119,1.572,4.826,4.826,0,0,0,.365,1.261,2.366,2.366,0,0,0,.622.841,1.318,1.318,0,0,0,.868.311,1.283,1.283,0,0,0,.859-.311,2.42,2.42,0,0,0,.613-.841,5.062,5.062,0,0,0,.375-1.261A9.133,9.133,0,0,0,1964.516,796.121Z" transform="translate(-1957.57 -789.34)" fill="#19323f"/>
        <path id="Path_1292" data-name="Path 1292" d="M2163.755,799.273a4.812,4.812,0,0,1-.329,1.865,3.7,3.7,0,0,1-.877,1.3,3.545,3.545,0,0,1-1.243.758,4.177,4.177,0,0,1-1.407.247h-1.261v4.716h-2.87V795.215h4.021a5.074,5.074,0,0,1,1.4.2,3.58,3.58,0,0,1,1.28.667,3.356,3.356,0,0,1,.932,1.252A4.68,4.68,0,0,1,2163.755,799.273Zm-2.742.055a1.638,1.638,0,0,0-.42-1.261,1.464,1.464,0,0,0-1.024-.384h-.932v3.381h.932a1.35,1.35,0,0,0,1.024-.448A1.813,1.813,0,0,0,2161.013,799.328Z" transform="translate(-2144.051 -794.868)" fill="#19323f"/>
        <path id="Path_1293" data-name="Path 1293" d="M2307.1,792.776a2.328,2.328,0,0,0-.768-.594,2.094,2.094,0,0,0-.914-.21,1.392,1.392,0,0,0-.886.311,1.231,1.231,0,0,0-.393,1.025,1.166,1.166,0,0,0,.4.943,6.266,6.266,0,0,0,1.188.742c.293.148.6.32.929.522a4.264,4.264,0,0,1,.893.741,3.738,3.738,0,0,1,.672,1.053,3.639,3.639,0,0,1,.267,1.456,4.76,4.76,0,0,1-.331,1.84,3.717,3.717,0,0,1-.892,1.318,3.761,3.761,0,0,1-1.3.787,4.446,4.446,0,0,1-1.521.265,5.061,5.061,0,0,1-2.129-.439,5.232,5.232,0,0,1-1.544-1.024l1.5-2.193a3.345,3.345,0,0,0,.969.7,2.535,2.535,0,0,0,1.115.265,1.251,1.251,0,0,0,.9-.347,1.427,1.427,0,0,0-.073-1.983,6.251,6.251,0,0,0-1.28-.8,8.732,8.732,0,0,1-1-.567,3.694,3.694,0,0,1-.823-.749,3.3,3.3,0,0,1-.557-1.024,4.276,4.276,0,0,1-.2-1.389,4.422,4.422,0,0,1,.357-1.855,3.645,3.645,0,0,1,.932-1.27,3.839,3.839,0,0,1,1.28-.731,4.408,4.408,0,0,1,1.417-.238,4.972,4.972,0,0,1,1.9.345,4,4,0,0,1,1.407.944Z" transform="translate(-2280.49 -789.34)" fill="#19323f"/>
      </g>
      <g id="Group_188" data-name="Group 188" transform="translate(18.038 24.979)">
        <path id="Path_1294" data-name="Path 1294" d="M1014.208,801.722a10.2,10.2,0,0,1-.32,2.65,5.615,5.615,0,0,1-.978,2.029,4.355,4.355,0,0,1-1.672,1.3,5.812,5.812,0,0,1-2.4.457H1005.2V795.215h3.637a5.818,5.818,0,0,1,2.4.457,4.323,4.323,0,0,1,1.672,1.307,5.708,5.708,0,0,1,.978,2.047A10.467,10.467,0,0,1,1014.208,801.722Zm-2.943,0a5.335,5.335,0,0,0-.667-2.952,2.007,2.007,0,0,0-1.727-1h-.713V805.6h.713a2.007,2.007,0,0,0,1.727-1A5.172,5.172,0,0,0,1011.265,801.722Z" transform="translate(-1005.197 -795.215)" fill="#19323f"/>
        <path id="Path_1295" data-name="Path 1295" d="M1187.625,808.156V795.215h6.251v2.577h-3.455v2.541h3.18v2.413h-3.18v2.778h3.674v2.632Z" transform="translate(-1176.84 -795.215)" fill="#19323f"/>
        <path id="Path_1296" data-name="Path 1296" d="M1313.193,808.156h-3.71l-3.126-12.941h3.308l1.755,9.468h.036l1.736-9.468h3.18Z" transform="translate(-1288.553 -795.215)" fill="#19323f"/>
      </g>
    </g>
    <g id="Group_190" data-name="Group 190" transform="translate(775.828 349.655)">
      <path id="Path_1297" data-name="Path 1297" d="M831.543,1224.224l8.869,1.609-5.828,6.877Z" transform="translate(-832.543 -1173.701)" fill="#19323f" stroke="#19323f" stroke-width="0.5"/>
      <path id="Path_1298" data-name="Path 1298" d="M2338.215,360.748l8.994-.607-5.022-7.485Z" transform="translate(-2248.149 -351.656)" fill="#19323f" stroke="#19323f" stroke-width="0.5"/>
    </g>
  </g>
</svg>
