<svg xmlns="http://www.w3.org/2000/svg" xmlns:xlink="http://www.w3.org/1999/xlink" width="147.397" height="38.478" viewBox="0 0 147.397 38.478">
  <defs>
    <clipPath id="clip-path">
      <path id="Path_2184" data-name="Path 2184" d="M50.871,160.451,38.311,153.2a2.648,2.648,0,0,0-2.643,0l-12.56,7.248a2.626,2.626,0,0,0-1.308,2.277v14.5a2.626,2.626,0,0,0,1.308,2.277l6.28,3.637v7.405a.787.787,0,0,0,.785.785.738.738,0,0,0,.393-.1l20.279-11.7a2.626,2.626,0,0,0,1.308-2.277v-14.5a2.539,2.539,0,0,0-1.282-2.3Z" transform="translate(-21.8 -152.85)"/>
    </clipPath>
  </defs>
  <g id="DialogFlow" transform="translate(-21.8 -152.85)">
    <g id="Group_227" data-name="Group 227" transform="translate(21.8 152.85)">
      <g id="Group_226" data-name="Group 226" transform="translate(0)" clip-path="url(#clip-path)">
        <path id="Path_2180" data-name="Path 2180" d="M52.253,184.9l-15.177,8.766L21.9,184.9v17.532l7.588,4.37v8.766l22.765-13.136Z" transform="translate(-21.874 -176.514)" fill="#ed6d23"/>
        <g id="Group_225" data-name="Group 225" transform="translate(0 -0.379)">
          <path id="Path_2181" data-name="Path 2181" d="M37.077,168.932,21.9,160.166,37.077,151.4l15.177,8.766Z" transform="translate(-21.874 -151.4)" fill="#f8981d"/>
          <path id="Path_2182" data-name="Path 2182" d="M36.815,192.814,22,184.257l-.1.052,15.177,8.766,15.177-8.766-.366-.209Z" transform="translate(-21.874 -175.543)" fill="#f8981d"/>
          <path id="Path_2183" data-name="Path 2183" d="M37,193.918v-.1L21.9,185.1l-.1.052Z" transform="translate(-21.8 -176.282)" fill="#f8981d"/>
        </g>
      </g>
    </g>
    <path id="Path_2185" data-name="Path 2185" d="M276.448,202.333h-2.277l-2.931-9.054-2.9,9.054h-2.25l-3.794-11.8h2.3l2.617,8.923h.026l2.9-8.923h2.277l2.9,8.923h.026l2.617-8.923h2.277Zm-24.911-10.388a6.191,6.191,0,0,1,8.74,0,6.2,6.2,0,0,1,1.7,4.475,6.269,6.269,0,0,1-1.7,4.475,6.191,6.191,0,0,1-8.74,0,6.2,6.2,0,0,1-1.7-4.475A6.313,6.313,0,0,1,251.538,191.945Zm1.649,7.588a3.721,3.721,0,0,0,5.26.157l.157-.157a4.716,4.716,0,0,0,0-6.175,3.721,3.721,0,0,0-5.26-.157l-.157.157a4.716,4.716,0,0,0,0,6.175Zm-5.05,2.8h-2.224V185.089h2.224Zm-5.652-17.375a4.2,4.2,0,0,1,1.779.314l-.759,1.91a2.218,2.218,0,0,0-1.021-.183,1.908,1.908,0,0,0-1.413.523,1.936,1.936,0,0,0-.549,1.492v1.492h3.061v2.015H240.5v9.786h-2.224v-9.786h-2.224v-2.015h2.224v-1.57a3.763,3.763,0,0,1,1.151-2.878,4.307,4.307,0,0,1,3.061-1.1ZM228.3,207.88a5.354,5.354,0,0,1-3.428-1.047,5.937,5.937,0,0,1-1.91-2.407l2.015-.837a3.4,3.4,0,0,0,3.3,2.25,3.785,3.785,0,0,0,2.878-1.1,4.11,4.11,0,0,0,1.047-2.983v-1.125h-.1a4.6,4.6,0,0,1-1.648,1.439,4.717,4.717,0,0,1-2.381.576,5.194,5.194,0,0,1-3.951-1.805,6.9,6.9,0,0,1,0-8.949,5.194,5.194,0,0,1,3.951-1.805,5,5,0,0,1,2.381.576A4.6,4.6,0,0,1,232.1,192.1h.1v-1.648h2.12v11.2a5.845,5.845,0,0,1-1.753,4.605,5.922,5.922,0,0,1-4.265,1.622Zm.183-7.222a3.543,3.543,0,0,0,2.669-1.151,4.961,4.961,0,0,0,0-6.228,3.6,3.6,0,0,0-5.1-.183,1.58,1.58,0,0,0-.209.209,4.887,4.887,0,0,0,0,6.175,3.471,3.471,0,0,0,2.643,1.178Zm-17.977-8.766a6.191,6.191,0,0,1,8.74,0,6.2,6.2,0,0,1,1.7,4.475,6.269,6.269,0,0,1-1.7,4.475,5.762,5.762,0,0,1-4.37,1.806,5.837,5.837,0,0,1-4.37-1.779,6.2,6.2,0,0,1-1.7-4.475A6.376,6.376,0,0,1,210.508,191.893Zm1.648,7.588a3.721,3.721,0,0,0,5.26.157l.157-.157a4.716,4.716,0,0,0,0-6.175,3.721,3.721,0,0,0-5.26-.157l-.157.157a4.249,4.249,0,0,0-1.151,3.088,4.361,4.361,0,0,0,1.151,3.088Zm-5.26,2.8h-2.224V185.037H206.9Zm-10.153.393a4.677,4.677,0,0,1-3.14-1.073,3.563,3.563,0,0,1-1.256-2.878,3.494,3.494,0,0,1,1.492-3.009,6.995,6.995,0,0,1,6.882-.366v-.34a2.662,2.662,0,0,0-.89-2.093,3.2,3.2,0,0,0-2.2-.785,3.791,3.791,0,0,0-1.753.445,2.412,2.412,0,0,0-1.073,1.256l-2.015-.863A4.474,4.474,0,0,1,194.416,191a5.37,5.37,0,0,1,3.192-.916,5.44,5.44,0,0,1,3.768,1.335,4.736,4.736,0,0,1,1.492,3.742v7.144h-2.12v-1.648h-.1a4.442,4.442,0,0,1-3.9,2.015Zm.34-2.015a3.5,3.5,0,0,0,2.486-1.021,3.19,3.19,0,0,0,1.125-2.407,4.337,4.337,0,0,0-2.826-.759,3.649,3.649,0,0,0-2.434.706,2.109,2.109,0,0,0-.811,1.648,1.546,1.546,0,0,0,.759,1.361,3.457,3.457,0,0,0,1.7.471Zm-6.856-13.136a1.573,1.573,0,1,1,0-2.224,1.616,1.616,0,0,1,.471,1.1A1.581,1.581,0,0,1,190.229,187.523Zm0,14.758h-2.2v-11.8h2.2Zm-18.029,0V185.037h5.286a8.6,8.6,0,0,1,6.359,2.407,9.335,9.335,0,0,1,0,12.455,8.6,8.6,0,0,1-6.359,2.407H172.2Zm2.224-2.093h3.062a6.563,6.563,0,0,0,4.736-1.7,6.485,6.485,0,0,0,1.753-4.789,6.383,6.383,0,0,0-1.753-4.789,6.469,6.469,0,0,0-4.736-1.727h-3.062Z" transform="translate(-111.045 -23.617)" fill="#767676"/>
  </g>
</svg>
