<svg id="django" xmlns="http://www.w3.org/2000/svg" width="147.866" height="51.59" viewBox="0 0 147.866 51.59">
  <path id="Path_1416" data-name="Path 1416" d="M199.141,164.623a20.3,20.3,0,0,0-2.5-.489,30.1,30.1,0,0,1-3.153-.924c-.272-.109-.381-.217-.381-.489V155.6a26.481,26.481,0,0,0,3.207,1.3,16.6,16.6,0,0,0,8.154.6c3.044-.6,4.621-2.5,4.838-5.654,0-.326.054-.652.054-.979.054-.435-.054-.489-.489-.326a13.051,13.051,0,0,1-10.111-.217,9.47,9.47,0,0,1-5.382-5.708,14.992,14.992,0,0,1,0-10.655c1.522-4.077,4.675-6.415,8.644-7.719a30.748,30.748,0,0,1,10.438-1.25,50.143,50.143,0,0,1,8.535,1.033c.381.054.489.163.272.6-.815,1.631-1.577,3.262-2.338,4.893a.652.652,0,0,1-.815.435c-1.25-.272-1.3-.163-1.25,1.033.054,1.25.109,2.5.109,3.751.054,3.7.109,7.393.109,11.09a28.977,28.977,0,0,1-.707,7.176c-1.25,4.838-4.349,7.719-9.133,8.97a12.724,12.724,0,0,1-3.207.489c-.109,0-.163,0-.217.109C202.348,164.623,200.772,164.623,199.141,164.623Zm10.166-27.4h-.163v-5.11c0-.544-.163-.652-.652-.6a16.221,16.221,0,0,0-2.283.217c-2.392.489-4.295,1.631-5.11,4.077a8.672,8.672,0,0,0-.054,5.382,4.744,4.744,0,0,0,4.077,3.642,8.244,8.244,0,0,0,3.642-.272.562.562,0,0,0,.489-.652C209.307,141.682,209.307,139.453,209.307,137.224Z" transform="translate(-99.223 -113.033)" fill="#0b2f22"/>
  <path id="Path_1417" data-name="Path 1417" d="M46.5,103.054V139.64c0,.6-.163.761-.707.815a48.243,48.243,0,0,1-10.818.924,18.507,18.507,0,0,1-8.154-1.9,10.751,10.751,0,0,1-5.6-7.991A2.674,2.674,0,0,0,21,130.344v-3.805c.163-.054.109-.272.109-.381.652-4.349,2.718-7.774,6.741-9.785a15.462,15.462,0,0,1,10-1.25c.272.054.544.163.544-.326,0-3.914,0-7.883-.054-11.8C41.06,103.054,43.778,103.054,46.5,103.054Zm-8.1,25.224V122.3c0-.381-.109-.544-.489-.6a13.6,13.6,0,0,0-2.555-.272,5.783,5.783,0,0,0-5.708,4.023,9.173,9.173,0,0,0-.109,5.273,5.3,5.3,0,0,0,3.7,3.914,12.071,12.071,0,0,0,4.838.163c.381-.054.272-.326.272-.544C38.4,132.3,38.4,130.29,38.4,128.279Z" transform="translate(-21 -103)" fill="#0b2f22"/>
  <path id="Path_1418" data-name="Path 1418" d="M270.776,139.953c-.163.87-.326,1.74-.544,2.609a11.686,11.686,0,0,1-10.166,8.97,15.508,15.508,0,0,1-7.719-.6,10.838,10.838,0,0,1-7.285-7.556,16.739,16.739,0,0,1,.326-10.927,11.162,11.162,0,0,1,7.719-7.121,15.957,15.957,0,0,1,9.568.109c4.566,1.522,7.013,4.838,7.883,9.459a11.774,11.774,0,0,0,.217,1.359Zm-18.157-1.631a8.9,8.9,0,0,0,.652,3.86,4.533,4.533,0,0,0,3.751,3.044,4.338,4.338,0,0,0,4.24-1.9,8.032,8.032,0,0,0,1.2-3.7,10.8,10.8,0,0,0-.924-5.98,4.194,4.194,0,0,0-3.86-2.392,4.4,4.4,0,0,0-4.023,2.283A9.256,9.256,0,0,0,252.618,138.322Z" transform="translate(-122.91 -112.88)" fill="#0b2f22"/>
  <path id="Path_1419" data-name="Path 1419" d="M84.854,103.1v7.665c0,.489-.109.652-.652.652H77.189c-.326,0-.489-.054-.489-.435V103.1Z" transform="translate(-46.42 -103.046)" fill="#0b2f22"/>
  <path id="Path_1420" data-name="Path 1420" d="M144.054,138.914V127.281c0-.381.109-.544.489-.6A49.3,49.3,0,0,1,157.156,125a15.6,15.6,0,0,1,6.252,1.2,7.109,7.109,0,0,1,4.349,6.089c.109,1.087.163,2.229.163,3.316v15c0,.544-.163.652-.707.652q-3.425-.082-6.85,0c-.489,0-.6-.163-.6-.6V136.3c0-.652-.054-1.25-.109-1.9-.217-1.848-1.359-2.772-3.37-2.881a13.438,13.438,0,0,0-3.588.381c-.489.109-.544.326-.544.761v17.777c0,.6-.109.815-.761.761q-3.425-.082-6.85,0c-.489,0-.544-.109-.544-.6C144.054,146.743,144.054,142.828,144.054,138.914Z" transform="translate(-77.134 -113.038)" fill="#0b2f22"/>
  <path id="Path_1421" data-name="Path 1421" d="M99.231,133.513v-5.871c0-.381.217-.489.489-.6a25.263,25.263,0,0,1,8.97-2.174,16.824,16.824,0,0,1,6.143.652,5.58,5.58,0,0,1,4.023,5.219c.109,1.577.109,3.153.109,4.73v14.406c0,.489-.054.707-.652.815a87.043,87.043,0,0,1-11.253.815,15.4,15.4,0,0,1-5.436-.87,5.979,5.979,0,0,1-3.968-5.491c-.217-2.609.163-5,2.229-6.85a11.366,11.366,0,0,1,4.784-2.392,37.4,37.4,0,0,1,6.469-1.087c.326-.054.435-.109.435-.489a8.77,8.77,0,0,1,0-1.2c0-1.413-.6-2.011-2.011-2.066a19.514,19.514,0,0,0-8.046,1.413C100.753,132.86,99.992,133.187,99.231,133.513Zm12.666,9.35V140.58c0-.381-.109-.435-.489-.381-.544.109-1.033.109-1.577.217a11.042,11.042,0,0,0-3.7,1.033,2.355,2.355,0,0,0-1.25,2.772c.163.924.924,1.468,2.066,1.631a18.4,18.4,0,0,0,4.566-.217c.326-.054.326-.163.326-.435C111.9,144.385,111.9,143.624,111.9,142.863Z" transform="translate(-55.959 -112.964)" fill="#0b2f22"/>
  <path id="Path_1422" data-name="Path 1422" d="M62.1,159.324c.652-.326,1.2-.6,1.74-.924a10.457,10.457,0,0,0,5.871-8.752,57.784,57.784,0,0,0,.326-6.85V126.652c0-.489.109-.652.652-.652,2.283.054,4.621,0,6.9,0,.435,0,.6.054.6.6,0,6.034,0,12.014-.054,18.048a46.572,46.572,0,0,1-.544,8.263,12.819,12.819,0,0,1-7.23,9.622,1.523,1.523,0,0,1-1.522,0C66.666,161.444,64.438,160.411,62.1,159.324Z" transform="translate(-39.757 -113.497)" fill="#0b2f22"/>
</svg>
