<svg xmlns="http://www.w3.org/2000/svg" width="147.898" height="36.812" viewBox="0 0 147.898 36.812">
  <g id="Etherium" transform="translate(-60.3 -166.348)">
    <path id="Path_1509" data-name="Path 1509" d="M97.3,251.248V251.1c.152-.121.091-.273.091-.425v-8.683c3.734-2.186,7.438-4.372,11.172-6.588,0,.03.03.03.03.061-.972,1.4-1.973,2.793-2.945,4.19-2.672,3.734-5.343,7.5-7.985,11.233-.091.121-.213.182-.213.364Z" transform="translate(-25.767 -48.088)" fill="#2f2d2d"/>
    <path id="Path_1511" data-name="Path 1511" d="M60.6,185.159a12.017,12.017,0,0,1,.759-1.366q5.055-8.379,10.14-16.759a.861.861,0,0,1,.243-.334c.091.091.061.213.061.334V180.18c-3.309,1.488-6.588,3.006-9.9,4.493A3.748,3.748,0,0,1,60.6,185.159Z" transform="translate(-0.209 -0.245)" fill="#737070"/>
    <path id="Path_1512" data-name="Path 1512" d="M97.361,179.935V166.789c0-.121.03-.243-.061-.334.121-.243.152,0,.182.03.425.7.82,1.366,1.245,2.064,3.249,5.4,6.5,10.778,9.746,16.182.061.091.091.182.152.273-.091-.03-.182-.03-.243-.061-1.488-.668-2.975-1.336-4.463-2.034-1.852-.85-3.674-1.7-5.526-2.52a2.116,2.116,0,0,0-1.032-.364Z" transform="translate(-25.767)" fill="#2f2d2d"/>
    <path id="Path_1513" data-name="Path 1513" d="M71.594,211.1v11.81c-.121.03-.182-.061-.273-.121-3.582-2.095-7.165-4.22-10.747-6.345-.121-.061-.395-.091-.213-.364a3.462,3.462,0,0,0,1.305-.516Q66.675,213.331,71.594,211.1Z" transform="translate(0 -31.165)" fill="#323130"/>
    <path id="Path_1514" data-name="Path 1514" d="M97.5,223.114V211.395c.395-.03.7.243,1.032.364,1.852.82,3.7,1.67,5.526,2.52,1.488.668,2.975,1.366,4.463,2.034.091.03.182.03.243.061.061.243-.152.213-.273.273-3.036,1.791-6.042,3.582-9.078,5.374A16.534,16.534,0,0,1,97.5,223.114Z" transform="translate(-25.906 -31.369)" fill="#171717"/>
    <path id="Path_1515" data-name="Path 1515" d="M71.833,242.058v8.683c0,.152.061.3-.091.425-.607-.7-1.093-1.488-1.639-2.247-3.127-4.4-6.254-8.774-9.381-13.176a1.741,1.741,0,0,0-.121-.213.03.03,0,0,0,.03-.03c2,1.184,4.008,2.368,6.042,3.552C68.4,240.024,70.1,241.056,71.833,242.058Z" transform="translate(-0.209 -48.157)" fill="#737070"/>
    <g id="Group_245" data-name="Group 245">
      <path id="Path_1510" data-name="Path 1510" d="M507.219,228.409c-.03,0-.061.03-.091.03a.475.475,0,0,1-.546.152c-.243-.091-.273-.3-.273-.547v-5.526a5,5,0,0,0-.364-2,2.993,2.993,0,0,0-2.55-1.973,3.127,3.127,0,0,0-2.975,1.336,6.515,6.515,0,0,0-1.123,3.947v4.1a1.36,1.36,0,0,1-.03.364.433.433,0,0,1-.455.334.422.422,0,0,1-.425-.334,1.865,1.865,0,0,1-.03-.425v-5.525a4.175,4.175,0,0,0-.486-2.095,2.945,2.945,0,0,0-2.823-1.731,3.264,3.264,0,0,0-3.157,1.913,6.078,6.078,0,0,0-.546,2.945v4.675c0,.3-.121.547-.455.577-.273.03-.486-.213-.486-.577V218.39c0-.395.182-.607.486-.607s.455.213.455.638v1.4a4.36,4.36,0,0,1,4.068-2.216,4,4,0,0,1,3.582,2.793,6.52,6.52,0,0,1,.911-1.4,4.107,4.107,0,0,1,7.165,1.943,1.983,1.983,0,0,0,.152.607Z" transform="translate(-299.521 -35.662)" fill="#40403f" stroke="#40403f" stroke-width="1"/>
      <path id="Path_1516" data-name="Path 1516" d="M392.943,223.664h-4.311c-.213,0-.334,0-.3.273a4.537,4.537,0,0,0,3.34,3.856,4.232,4.232,0,0,0,4.463-1.579c.334-.425.577-.516.82-.334s.243.455-.061.88A5.044,5.044,0,0,1,392,228.8a5.342,5.342,0,0,1-4.615-4.524,5.874,5.874,0,0,1,2.641-6.042,5.025,5.025,0,0,1,6.71,1.579,6.022,6.022,0,0,1,1.063,3.1c.03.577-.121.729-.7.729C395.767,223.664,394.37,223.664,392.943,223.664Zm-.364-.941h3.977c.273,0,.3-.061.273-.334a6.758,6.758,0,0,0-.395-1.336,4.146,4.146,0,0,0-4.675-2.49,4.57,4.57,0,0,0-3.37,3.916c-.03.243.121.213.273.213C389.938,222.723,391.243,222.723,392.579,222.723Z" transform="translate(-227.719 -35.654)" fill="#40403f" stroke="#40403f" stroke-width="1"/>
      <path id="Path_1517" data-name="Path 1517" d="M168.868,223.813h-4.311c-.152,0-.3-.03-.273.213a4.739,4.739,0,0,0,3.218,3.916,4.352,4.352,0,0,0,4.584-1.548c.03-.03.061-.091.091-.121.243-.334.516-.425.729-.213.3.243.182.516.03.789a4.837,4.837,0,0,1-2.732,1.973,5.284,5.284,0,0,1-6.831-4.584,5.823,5.823,0,0,1,1.275-4.584,4.976,4.976,0,0,1,8.076.364,6.021,6.021,0,0,1,1.063,3.1c.03.607-.121.759-.729.759C171.692,223.813,170.3,223.813,168.868,223.813Zm-.334-.941h3.977c.243,0,.334-.061.273-.3a8.639,8.639,0,0,0-.334-1.184,4.192,4.192,0,0,0-5.1-2.581,4.773,4.773,0,0,0-3.066,3.825c-.03.273.121.213.273.213C165.893,222.871,167.2,222.871,168.534,222.871Z" transform="translate(-71.742 -35.802)" fill="#40403f" stroke="#40403f" stroke-width="1"/>
      <path id="Path_1518" data-name="Path 1518" d="M307.314,223.589H303c-.152,0-.3-.03-.273.213a4.616,4.616,0,0,0,3.249,3.886,4.316,4.316,0,0,0,4.584-1.579c.061-.061.091-.152.152-.213a.457.457,0,0,1,.638-.152c.273.182.273.395.121.668a3.755,3.755,0,0,1-1.245,1.336,5.294,5.294,0,0,1-8.319-3.309,5.812,5.812,0,0,1,2.459-6.254,4.978,4.978,0,0,1,6.649,1.305,5.924,5.924,0,0,1,1.214,3.37c.03.516-.152.668-.638.668C310.2,223.589,308.771,223.589,307.314,223.589Zm-.334-.941h3.977c.243,0,.334-.061.273-.3a5.266,5.266,0,0,0-.425-1.336,4.208,4.208,0,0,0-4.979-2.429,4.754,4.754,0,0,0-3.1,3.856c-.03.273.121.213.273.213Z" transform="translate(-168.139 -35.578)" fill="#40403f" stroke="#40403f" stroke-width="1"/>
      <path id="Path_1519" data-name="Path 1519" d="M254.3,199.583a5.015,5.015,0,0,1,2.611-2,4.067,4.067,0,0,1,5.1,2.884,6.17,6.17,0,0,1,.243,1.67v5.677c0,.425-.182.638-.486.638s-.455-.213-.455-.638v-5.677a4.37,4.37,0,0,0-.668-2.368,3.393,3.393,0,0,0-5.677.182,5.345,5.345,0,0,0-.759,2.945c.03,1.609.03,3.218.03,4.827,0,.486-.152.7-.455.7-.334,0-.486-.213-.486-.729v-18.7c.061-.243.182-.425.486-.395a.422.422,0,0,1,.455.425V199.34A.365.365,0,0,1,254.3,199.583Z" transform="translate(-134.406 -15.489)" fill="#40403f" stroke="#40403f" stroke-width="1"/>
      <path id="Path_1520" data-name="Path 1520" d="M449.024,227.092c-.152.243-.243.395-.334.516a4.009,4.009,0,0,1-7.317-1.063,5.387,5.387,0,0,1-.273-1.7v-5.708c0-.395.152-.638.425-.638.3,0,.486.243.486.638v5.738a4.138,4.138,0,0,0,.88,2.641,3.238,3.238,0,0,0,5.252-.455,7.43,7.43,0,0,0,.85-3.674c.03-1.4,0-2.793,0-4.159v-.3a.458.458,0,0,1,.911.03v9.806c0,.395-.182.638-.486.607-.334-.03-.455-.273-.455-.577v-1.275A.839.839,0,0,0,449.024,227.092Z" transform="translate(-265.189 -36.319)" fill="#40403f" stroke="#40403f" stroke-width="1"/>
      <path id="Path_1521" data-name="Path 1521" d="M216.593,214.985v-4.493c0-.273-.061-.334-.334-.334-.607.03-1.214,0-1.852,0-.395,0-.607-.182-.607-.455,0-.3.213-.455.607-.455.607,0,1.214-.03,1.791,0,.273,0,.364-.061.364-.364-.03-.941,0-1.882,0-2.823v-.3c.061-.273.182-.455.486-.455s.425.182.455.486v.85c0,.729.03,1.488,0,2.216-.03.364.121.425.425.395.577-.03,1.154,0,1.731,0h.273a.447.447,0,0,1,.455.516.43.43,0,0,1-.486.425c-.668,0-1.366.03-2.034,0-.3,0-.364.091-.364.364v8.8c0,.546-.152.82-.486.789-.3,0-.455-.273-.455-.789C216.593,217.9,216.593,216.442,216.593,214.985Z" transform="translate(-106.898 -27.126)" fill="#40403f" stroke="#40403f" stroke-width="1"/>
      <path id="Path_1522" data-name="Path 1522" d="M356.911,220.7a6.507,6.507,0,0,1,1.457-1.548,3.923,3.923,0,0,1,2.156-.82c.395-.03.638.121.668.395.03.3-.152.486-.577.546a4.319,4.319,0,0,0-3.643,4.068c-.152,1.488-.03,2.975-.061,4.463v.759c0,.3-.152.546-.455.546-.334,0-.455-.213-.455-.546v-9.776c.03-.3.182-.486.486-.486.273,0,.425.182.425.486V220.7Z" transform="translate(-205.926 -36.179)" fill="#40403f" stroke="#40403f" stroke-width="1"/>
    </g>
    <path id="Path_1523" data-name="Path 1523" d="M60.53,235.461c0-.03-.03-.03-.03-.061a.111.111,0,0,1,.091.03C60.561,235.43,60.561,235.461,60.53,235.461Z" transform="translate(-0.14 -48.088)" fill="#737070"/>
    <path id="Path_1524" data-name="Path 1524" d="M134.3,235.369c.03,0,.091-.03.091,0,.03.03,0,.061-.03.061Z" transform="translate(-51.534 -48.057)" fill="#2f2d2d"/>
  </g>
</svg>
