<svg xmlns="http://www.w3.org/2000/svg" width="115.647" height="52.142" viewBox="0 0 115.647 52.142">
  <g id="GIT" transform="translate(-75.775 -177.6)">
    <path id="Path_1973" data-name="Path 1973" d="M103.808,197.138c1.733,1.733,3.39,3.39,5.073,5.048.251.226.2.427.126.7a4,4,0,1,0,3.064-2.813.826.826,0,0,1-.9-.251c-1.657-1.683-3.315-3.34-5-5a.825.825,0,0,1-.276-.9,3.966,3.966,0,0,0-4.7-4.721.734.734,0,0,1-.8-.2c-1.758-1.783-3.516-3.541-5.3-5.3-.3-.276-.276-.427,0-.728,1.406-1.381,2.813-2.813,4.219-4.219a3.366,3.366,0,0,1,5.1.025q11.188,11.15,22.351,22.326a3.365,3.365,0,0,1,0,5.224q-11.075,11.075-22.175,22.15a3.386,3.386,0,0,1-5.274,0q-11.15-11.113-22.276-22.25a3.386,3.386,0,0,1,0-5.274Q84.533,193.5,92,186.013c.326-.326.477-.326.779,0q2.524,2.6,5.123,5.123a.767.767,0,0,1,.226.9,3.847,3.847,0,0,0,1.909,4.5.724.724,0,0,1,.427.753q-.038,6.63,0,13.26a.743.743,0,0,1-.452.753,3.936,3.936,0,0,0-1.909,4.445,4.06,4.06,0,0,0,3.817,3.014,4.012,4.012,0,0,0,2.26-7.358.693.693,0,0,1-.427-.653c.025-4.5,0-8.965.025-13.461C103.783,197.364,103.783,197.314,103.808,197.138Z" transform="translate(0)" fill="#ef402f"/>
    <path id="Path_1974" data-name="Path 1974" d="M349.664,255.781a5.869,5.869,0,0,1-3.089-4.319,6.977,6.977,0,0,1,5.952-8.488,15.192,15.192,0,0,1,5.927.1,6.718,6.718,0,0,0,1.231.025c1.959,0,3.943.025,5.9,0,.4,0,.527.126.5.5a21.63,21.63,0,0,0,0,2.21c.025.477-.176.578-.6.6-.929.05-1.858.126-2.888.2a7.4,7.4,0,0,1,1.231,2.536,6.332,6.332,0,0,1-4.847,7.584,12.285,12.285,0,0,1-5.651.151.545.545,0,0,0-.7.276c-.3.527-.628,1.03-1,1.607,1.557.1,3.039.176,4.52.276a33.259,33.259,0,0,1,5.9.728c3.114.753,4.068,2.863,3.667,5.826-.4,2.988-2.511,4.445-5.173,5.224a21.993,21.993,0,0,1-7.685.578,15,15,0,0,1-4.068-.8,4.1,4.1,0,0,1-1.708-6.906c.251-.251.5-.527.753-.8a9.837,9.837,0,0,1-.8-.628,2.7,2.7,0,0,1-.05-3.767c.452-.553,1-1.03,1.507-1.532C348.886,256.585,349.262,256.208,349.664,255.781Zm5.8-9.242c-2.587,0-3.993,1.683-3.566,4.244.226,1.356,1.13,2.084,2.838,2.336a3.488,3.488,0,0,0,4.043-2.109C359.333,249.051,358.655,246.439,355.465,246.54Zm-.1,21.371a9.281,9.281,0,0,0,3.667-.6,1.677,1.677,0,0,0,1.08-1.808c-.176-.779-.829-.929-1.507-1.03-2.336-.276-4.671-.377-7.032-.527-.126,0-.251-.025-.352.075a2.776,2.776,0,0,0-.9,2.135,1.734,1.734,0,0,0,1.457,1.381A11.61,11.61,0,0,0,355.365,267.911Z" transform="translate(-202.234 -48.774)" fill="#362b15"/>
    <path id="Path_1975" data-name="Path 1975" d="M483.931,233.157c0,1.507-.025,3.039,0,4.546.025,1.657.779,2.386,2.436,2.386a8.632,8.632,0,0,0,2.762-.477c.276-.1.452-.1.552.251.251.879.5,1.758.8,2.637.075.226.075.352-.176.452a13.037,13.037,0,0,1-8.539,1.1,4.359,4.359,0,0,1-3.516-4.043,29.167,29.167,0,0,1-.1-3.918c-.025-2.511-.025-5.048,0-7.559,0-.5-.151-.653-.628-.6-.628.025-1.281,0-1.909.025-.3,0-.452-.025-.427-.377.025-.879,0-1.758,0-2.637,0-.2-.025-.377.276-.427,3.265-.4,4.169-2.336,4.621-4.8.251-1.331.2-1.331,1.532-1.331.6,0,1.231.025,1.833,0,.352-.025.452.1.452.452-.025,1.582,0,3.164-.025,4.721,0,.477.126.628.628.628,1.507-.025,3.039,0,4.545-.025.377,0,.527.075.5.5-.025.929-.025,1.884,0,2.813.025.427-.126.5-.527.5-1.557-.025-3.114,0-4.671-.025-.4,0-.5.1-.5.5.075,1.557.05,3.139.075,4.7Z" transform="translate(-299.108 -30.545)" fill="#362b15"/>
    <path id="Path_1976" data-name="Path 1976" d="M441.605,250.912c0,2.486.025,5-.025,7.484,0,.6.226.829.779.9.578.075,1.381-.075,1.683.326.276.352.1,1.1.1,1.657,0,1.231,0,1.231-1.205,1.231h-9.091c-.4,0-.578-.075-.552-.527a12.75,12.75,0,0,0,0-1.959c-.025-.427.151-.578.552-.6.427-.025.854-.1,1.281-.151a.671.671,0,0,0,.7-.779c-.025-3.717-.025-7.408,0-11.125a.84.84,0,0,0-.678-.929c-.427-.126-.829-.326-1.281-.427-.477-.126-.6-.352-.527-.829.126-.678.226-1.381.3-2.059.025-.326.151-.427.477-.427,2.31.025,4.621.025,6.956,0,.427,0,.5.151.5.527C441.605,245.789,441.605,248.35,441.605,250.912Z" transform="translate(-267.732 -48.751)" fill="#362b15"/>
    <path id="Path_1977" data-name="Path 1977" d="M442.889,210.556a3.085,3.085,0,0,1-3.39-3.441c0-2.11,1.231-3.29,3.39-3.315a3.38,3.38,0,1,1,0,6.756Z" transform="translate(-272.38 -19.621)" fill="#362b15"/>
  </g>
</svg>
