<svg xmlns="http://www.w3.org/2000/svg" width="122.167" height="52.067" viewBox="0 0 122.167 52.067">
  <g id="go_lang" data-name="go lang" transform="translate(0)">
    <path id="Path_1423" data-name="Path 1423" d="M95.328,124.541a9.882,9.882,0,0,1,1.222-2.881,18.071,18.071,0,0,1,2.532-3.536,14.272,14.272,0,0,1,2.226-2.052,16.917,16.917,0,0,1,1.441-1,12.868,12.868,0,0,1,3.536-1.571c.044,0,.087-.044.175-.044a12.975,12.975,0,0,1,3.361-.786,17.531,17.531,0,0,1,4.54-.087,15.378,15.378,0,0,1,2.881.655,12.841,12.841,0,0,1,3.274,1.659,18.092,18.092,0,0,1,2.183,1.921,11.85,11.85,0,0,1,1.79,2.4,12.231,12.231,0,0,1,1.353,3.841,17.064,17.064,0,0,1,.306,3.318,24.487,24.487,0,0,1-.262,2.575,15.224,15.224,0,0,1-.873,3.143,11.273,11.273,0,0,1-.96,1.921,13.087,13.087,0,0,1-1.833,2.488,18.173,18.173,0,0,1-1.833,1.833,18.265,18.265,0,0,1-5.413,3.23c-.611.218-1.222.393-1.833.611a16.418,16.418,0,0,1-2.925.524c-.262.044-.48.044-.742.087a13.035,13.035,0,0,1-3.885-.349A12.345,12.345,0,0,1,101,140.6a14.1,14.1,0,0,1-3.754-3.448,12.917,12.917,0,0,1-1.135-1.833,15.154,15.154,0,0,1-.742-1.964c-.044-.044-.044-.131-.087-.175a20.793,20.793,0,0,1-2.75,3.972,15.848,15.848,0,0,1-2.139,2.052,15.506,15.506,0,0,1-3.056,1.877,16.19,16.19,0,0,1-2.881,1.048,17.482,17.482,0,0,1-3.318.524,13.286,13.286,0,0,1-3.929-.306,11.5,11.5,0,0,1-3.361-1.222,16.034,16.034,0,0,1-2.314-1.484,13.692,13.692,0,0,1-2.226-2.27A9.69,9.69,0,0,1,68,135.235a10.68,10.68,0,0,1-1-3.23,19.16,19.16,0,0,1-.306-3.143,13.911,13.911,0,0,1,.262-2.314,13.551,13.551,0,0,1,1.135-3.71,14.4,14.4,0,0,1,1.833-3.187,18.645,18.645,0,0,1,2.925-3.23,16.4,16.4,0,0,1,2.706-1.964,16.776,16.776,0,0,1,3.4-1.484c.96-.306,1.964-.524,2.968-.742.48-.087,1-.087,1.484-.131a6.148,6.148,0,0,0,1.79,0,12.411,12.411,0,0,1,5.02,1.31,12.735,12.735,0,0,1,4.671,3.929,16.952,16.952,0,0,1,1.528,2.75c.087.175.044.262-.131.349a3.367,3.367,0,0,1-1.266.437c-.349.087-.7.175-1,.262-1.266.349-2.575.655-3.841,1.048a7.847,7.847,0,0,0-.96.262.791.791,0,0,1-.96-.306,5.673,5.673,0,0,0-1.4-1.31,6.931,6.931,0,0,0-2.794-1,6.064,6.064,0,0,0-3.492.567,8.869,8.869,0,0,0-4.1,3.492,9.228,9.228,0,0,0-1.222,3.536,6.905,6.905,0,0,0,.306,3.4,6,6,0,0,0,2.1,2.968,6.568,6.568,0,0,0,4.191,1.222,7.53,7.53,0,0,0,2.575-.524,12.183,12.183,0,0,0,1.441-.829A8.438,8.438,0,0,0,88.169,131c-.044-.131-.131-.087-.175-.087h-7.2c-1,0-1.091-.567-.829-1.266.393-1.091.96-2.1,1.4-3.143l.524-1.048a1.3,1.3,0,0,1,.873-.786c.131.131.306.044.437.044H95.285C95.066,124.715,95.328,124.846,95.328,124.541Zm16.151-4.714a8.4,8.4,0,0,0-3.536.829,7.685,7.685,0,0,0-2.357,1.571,9.256,9.256,0,0,0-2.706,5.413,7.5,7.5,0,0,0,.175,2.794,5.913,5.913,0,0,0,1.048,2.1,7.172,7.172,0,0,0,1.79,1.659,7.532,7.532,0,0,0,2.4.873,6.93,6.93,0,0,0,4.5-.611,9.867,9.867,0,0,0,2.27-1.528,7.918,7.918,0,0,0,2.27-3.187,8.2,8.2,0,0,0,.611-3.972,6.563,6.563,0,0,0-1.659-3.754A5.961,5.961,0,0,0,111.479,119.826Z" transform="translate(-45.016 -102.911)" fill="#73ccdc"/>
    <path id="Path_1424" data-name="Path 1424" d="M212.8,119.358c-.306,0-.524.218-.786.349a2.646,2.646,0,0,1-1.528.48.807.807,0,0,1-.829-.655.832.832,0,0,0-.218-.437.6.6,0,0,1-.131-.742,2.8,2.8,0,0,1,2.008-1.615,3.394,3.394,0,0,1,1.31-.175c.218,0,.262-.044.262-.262-.087-1.091-.131-2.183-.218-3.274-.087-.7-.131-1.4-.175-2.1-.087-1.528-.218-3.012-.218-4.54a20.793,20.793,0,0,1,.524-5.195c.044-.218.087-.393-.262-.48a3.1,3.1,0,0,1-2.183-3.23,4.01,4.01,0,0,1,3.012-3.448,3.825,3.825,0,0,1,2.925.48c.131.087.218.131.349,0a12.715,12.715,0,0,1,5.282-2.575A28.281,28.281,0,0,1,226.2,91.2a20.891,20.891,0,0,1,4.671-.044,15.932,15.932,0,0,1,7.028,1.877,8.172,8.172,0,0,1,1.266.873.411.411,0,0,0,.567.044,3.7,3.7,0,0,1,4.06.044,3.656,3.656,0,0,1,1.746,3.187,3.209,3.209,0,0,1-2.052,3.012c-.306.131-.393.262-.306.611a34.947,34.947,0,0,1,.7,4.278c.306,2.925.218,5.849.262,8.774,0,.786.044,1.571.044,2.314,0,.306.218.306.393.306a3.985,3.985,0,0,1,1.877.611,2.344,2.344,0,0,1,.96,1.091.569.569,0,0,1,.044.524c-.306.349-.349.829-.655,1.179a.943.943,0,0,1-.96.218,4.926,4.926,0,0,1-1.528-.742c.087.567.087,1.048.131,1.528a45.6,45.6,0,0,1,.131,5.98,20.336,20.336,0,0,1-2.052,8.73,11.534,11.534,0,0,1-1.877,2.532,6.648,6.648,0,0,1,1.7,1.79,1.923,1.923,0,0,1,.349,1.528,2.028,2.028,0,0,1-1.4,1.266c-.7.218-1.179-.262-1.615-.742-.437-.437-.829-.96-1.266-1.4s-.524-.393-1.048-.175a18.054,18.054,0,0,1-4.8,1.484,26.345,26.345,0,0,1-5.544.393,21.036,21.036,0,0,1-7.29-1.441,1.262,1.262,0,0,0-1.048.131,4.708,4.708,0,0,0-1.615,1.135,5.275,5.275,0,0,1-1.31.873,1.031,1.031,0,0,1-1.441-.349c-.131-.218-.349-.175-.48-.306a1.619,1.619,0,0,1-.218-1.615,4.163,4.163,0,0,1,1.441-1.571c.262-.218.7-.349.742-.611.044-.175-.393-.48-.611-.7a10.885,10.885,0,0,1-2.575-5.5,23.1,23.1,0,0,1-.393-4.889c.044-1.615.131-3.187.262-4.8A12.54,12.54,0,0,0,212.8,119.358Zm31.124-7.508c-.131-2.488-.044-4.845-.306-7.2a35.777,35.777,0,0,0-1-5.238,10.186,10.186,0,0,0-5.326-6.5,17.87,17.87,0,0,0-7.2-1.615,24.256,24.256,0,0,0-5.326.306,24.569,24.569,0,0,0-4.365,1.091,10.659,10.659,0,0,0-6.373,5.762,18.571,18.571,0,0,0-1.441,6.9,36.455,36.455,0,0,0,.131,4.365c.087.873.087,1.79.175,2.663.175,1.615.262,3.23.306,4.845a32.32,32.32,0,0,1-.218,4.1c-.131,1.615-.262,3.187-.306,4.8a23.258,23.258,0,0,0,.48,6.5,9.94,9.94,0,0,0,4.234,6.329,17.475,17.475,0,0,0,9.167,2.75,26.763,26.763,0,0,0,5.282-.218,21.082,21.082,0,0,0,4.933-1.31,11.237,11.237,0,0,0,6.111-5.98,20.532,20.532,0,0,0,1.484-6.9,67.177,67.177,0,0,0-.218-8.381c-.087-1.266-.131-2.488-.175-3.754C243.877,114.12,243.921,112.941,243.921,111.85ZM239.73,94.215a9.192,9.192,0,0,1,1.091,1.179.275.275,0,0,0,.349.131,1.166,1.166,0,0,1,1.179,1.921c-.044.087-.131.131-.087.262.262.655.48,1.353.7,2.008.044.175.131.131.218.131a3.244,3.244,0,0,0,2.1-2.706,3.631,3.631,0,0,0-1.135-2.663,3.4,3.4,0,0,0-2.27-1A4.348,4.348,0,0,0,239.73,94.215Zm-23.441.567a3.94,3.94,0,0,0-2.183-.611,3.8,3.8,0,0,0-2.575,1.31,3.173,3.173,0,0,0-.742,3.012,2.949,2.949,0,0,0,1.7,1.833c.437.218.437.218.568-.262a5.133,5.133,0,0,1,.306-.873.5.5,0,0,0-.218-.742,1.145,1.145,0,0,1-.567-1.4,1.1,1.1,0,0,1,1.31-.829,1.421,1.421,0,0,1,.611.175c.131.044.175.087.306-.044A16.365,16.365,0,0,1,216.289,94.782Zm-2.008,47.275a4.262,4.262,0,0,1,.742-1.31c.044-.087.044-.262.262-.175.175.087.044.218,0,.349a7.591,7.591,0,0,0-.48.786c-.087.218-.262.393-.044.655a.775.775,0,0,0,.786.306,2.875,2.875,0,0,0,1.135-.611,7.3,7.3,0,0,1,2.532-1.659,16.585,16.585,0,0,1-2.706-1.659c-.131-.087-.218-.087-.306,0a8.8,8.8,0,0,0-1.7,1.4A1.2,1.2,0,0,0,214.281,142.057Zm27.806-.306a1.156,1.156,0,0,0,.218-1.615,6.045,6.045,0,0,0-1.659-1.833c-.175-.131-.262-.044-.393.087a10.6,10.6,0,0,1-1.4,1.048c-.175.131-.524.218-.567.393-.044.218.306.306.437.436.567.524,1,1.179,1.571,1.659a1.017,1.017,0,0,0,1.31.175c.131-.087.175-.175.087-.306a3.386,3.386,0,0,0-.611-1.179.164.164,0,0,1,0-.262c.087-.087.175,0,.262.044a1.327,1.327,0,0,1,.218.306A5.869,5.869,0,0,1,242.087,141.752Zm-29.2-23.921v-.786c0-.175-.044-.262-.218-.218a4.157,4.157,0,0,0-2.488.829,1.245,1.245,0,0,0-.567.96c0,.262.087.437.393.262l.262-.131c.087-.044.131-.175.218-.087a.216.216,0,0,1-.044.306.371.371,0,0,1-.218.131c-.349.087-.306.306-.175.48a.68.68,0,0,0,.742.306,14.659,14.659,0,0,0,1.877-.873c.131-.044.131-.131.131-.262A1.757,1.757,0,0,0,212.884,117.83Zm33.394,1.877c.218.044.393-.131.524-.437.131-.349-.218-.262-.306-.393-.087-.087-.306-.218-.175-.349.131-.175.262.044.349.087.131.087.262.175.393.087.175-.087.175-.306.131-.48-.044-.087-.087-.218-.131-.306a3.418,3.418,0,0,0-2.619-1.31c-.131,0-.218.044-.175.175.131.655.044,1.31.175,1.964,0,.044,0,.131.044.131A3.415,3.415,0,0,0,246.278,119.707Z" transform="translate(-125.337 -91.05)" fill="#0c1111"/>
    <path id="Path_1425" data-name="Path 1425" d="M17.163,139.71c.131-.218.349-.437.48-.655a1.33,1.33,0,0,1,1.31-.655H36.108c.524,0,.567,0,.437.524-.087.306-.044.786-.567.873H17.207C17.119,139.753,17.119,139.753,17.163,139.71Z" transform="translate(-17.094 -117.731)" fill="#74cddc"/>
    <path id="Path_1426" data-name="Path 1426" d="M46.183,130.044a1.475,1.475,0,0,1-1.441,1.4H31.167c-.131,0-.349.087-.393-.087-.087-.175.131-.218.218-.349.131-.306.437-.437.524-.742.087-.175.306-.218.48-.262a.47.47,0,0,0,.349.087C36.929,130.087,41.556,130.087,46.183,130.044Z" transform="translate(-24.768 -112.998)" fill="#73ccdc"/>
    <path id="Path_1427" data-name="Path 1427" d="M42.29,148.416H39.234c-.131,0-.306,0-.349-.131s.044-.218.131-.306a.6.6,0,0,0,.131-.175c.218-.873.873-.96,1.615-.917q3.4.066,6.81,0c.349,0,.437.087.393.393a4.214,4.214,0,0,0,0,.742c0,.218-.044.349-.262.393a.416.416,0,0,0-.306-.087H42.6C42.464,148.373,42.377,148.329,42.29,148.416Z" transform="translate(-29.343 -122.509)" fill="#74cddc"/>
    <path id="Path_1428" data-name="Path 1428" d="M17.1,141.6H35.87c-.131.087-.262.044-.393.044-5.98,0-12,0-17.985.044C17.406,141.687,17.231,141.775,17.1,141.6Z" transform="translate(-17.074 -119.534)" fill="#5fc4bc"/>
    <path id="Path_1429" data-name="Path 1429" d="M47.73,129.987H33.849c-.131,0-.262.044-.349-.087H47.25C47.425,129.944,47.6,129.856,47.73,129.987Z" transform="translate(-26.315 -112.941)" fill="#5fc4bc"/>
    <path id="Path_1430" data-name="Path 1430" d="M115.621,140.6c-.044.306-.262.175-.393.175H103.137a.755.755,0,0,1-.437-.044h12.441C115.315,140.731,115.49,140.775,115.621,140.6Z" transform="translate(-65.308 -118.971)" fill="#5fc4bc"/>
    <path id="Path_1431" data-name="Path 1431" d="M46.7,150.33c.087-.087.175-.044.262-.044h4.8c.087,0,.218-.044.306.087C50.279,150.33,48.49,150.33,46.7,150.33Z" transform="translate(-33.753 -124.422)" fill="#69c6bf"/>
    <path id="Path_1432" data-name="Path 1432" d="M106.19,112.158a6.148,6.148,0,0,1-1.79,0A12.241,12.241,0,0,1,106.19,112.158Z" transform="translate(-66.266 -102.925)" fill="#5fc4bc"/>
    <path id="Path_1433" data-name="Path 1433" d="M17.111,141.4v.131C16.98,141.444,17.067,141.444,17.111,141.4Z" transform="translate(-17.041 -119.421)" fill="#5fc4bc"/>
    <path id="Path_1434" data-name="Path 1434" d="M248.14,112.231v3.4c.044,1.266.044,2.488.175,3.754a67.183,67.183,0,0,1,.218,8.381,21,21,0,0,1-1.484,6.9,10.963,10.963,0,0,1-6.111,5.98,19.145,19.145,0,0,1-4.933,1.31,26.766,26.766,0,0,1-5.282.218,17.6,17.6,0,0,1-9.167-2.75,10.283,10.283,0,0,1-4.234-6.33,23.256,23.256,0,0,1-.48-6.5c.044-1.615.175-3.187.306-4.8a32.314,32.314,0,0,0,.218-4.1c-.044-1.615-.131-3.23-.306-4.845-.087-.873-.087-1.79-.175-2.663a29.181,29.181,0,0,1-.131-4.365,17.911,17.911,0,0,1,1.44-6.9,10.792,10.792,0,0,1,6.373-5.762,24.567,24.567,0,0,1,4.365-1.091,24.256,24.256,0,0,1,5.326-.306,17.87,17.87,0,0,1,7.2,1.615,10.318,10.318,0,0,1,5.326,6.5,34.7,34.7,0,0,1,1,5.238C248.1,107.386,248.009,109.787,248.14,112.231Zm-13.619-8.643a1.307,1.307,0,0,0-1.048-1.441,3.024,3.024,0,0,0-2.226.087,1.518,1.518,0,0,0-1.048,1.222c-.044.131-.087.218-.262.218a2.239,2.239,0,0,0-1.266,1,1.609,1.609,0,0,0,.786,2.4c.262.087.262.175.262.349a3.406,3.406,0,0,0,.306,1.833c.349.655.96.917,1.484.524.48-.393.7-.393,1.179.044a1.1,1.1,0,0,0,1.7-.7,7.792,7.792,0,0,0-.044-1.746c-.044-.218,0-.262.262-.218a1.467,1.467,0,0,0,1.4-2.445A3.237,3.237,0,0,0,234.521,103.588Zm4.234-9.429a5.809,5.809,0,0,0-4.54,1.659,4.4,4.4,0,0,0,.655,6.722,5.2,5.2,0,0,0,4.714.611,4.425,4.425,0,0,0,3.361-5.107A4.334,4.334,0,0,0,238.755,94.159ZM225.7,103.894a3.915,3.915,0,0,0,.96-.087,5.29,5.29,0,0,0,3.143-1.746,4.292,4.292,0,0,0,1-3.1,4.109,4.109,0,0,0-1.833-3.4,5.355,5.355,0,0,0-5.893-.131,4.411,4.411,0,0,0-2.052,5.413A4.646,4.646,0,0,0,225.7,103.894Z" transform="translate(-129.556 -91.431)" fill="#73ccdc"/>
    <path id="Path_1435" data-name="Path 1435" d="M279.1,97.4a3.9,3.9,0,0,1,2.139-.7,3.046,3.046,0,0,1,2.27,1,3.631,3.631,0,0,1,1.135,2.663,3.228,3.228,0,0,1-2.1,2.706c-.087.044-.175.044-.218-.131-.218-.7-.437-1.353-.7-2.008-.044-.131.044-.175.087-.262a1.132,1.132,0,0,0,.131-1.441,1.062,1.062,0,0,0-1.31-.48.33.33,0,0,1-.349-.131A13.736,13.736,0,0,0,279.1,97.4Z" transform="translate(-164.707 -94.234)" fill="#73ccdc"/>
    <path id="Path_1436" data-name="Path 1436" d="M218.2,98.86a16.588,16.588,0,0,0-1.441,1.615c-.087.175-.175.087-.306.044a1.421,1.421,0,0,0-.611-.175,1.1,1.1,0,0,0-1.31.829,1.145,1.145,0,0,0,.568,1.4c.349.218.349.393.218.742a5.139,5.139,0,0,0-.306.873c-.131.48-.131.48-.567.262a2.838,2.838,0,0,1-1.7-1.833,3.173,3.173,0,0,1,.742-3.012,3.472,3.472,0,0,1,2.575-1.31A3.943,3.943,0,0,1,218.2,98.86Z" transform="translate(-127.252 -95.128)" fill="#73ccdc"/>
    <path id="Path_1437" data-name="Path 1437" d="M220.284,203.42a1.365,1.365,0,0,1,.087-2.008,8.805,8.805,0,0,1,1.7-1.4c.131-.087.218-.087.306,0a14.031,14.031,0,0,0,2.706,1.659,7.725,7.725,0,0,0-2.532,1.659,2.875,2.875,0,0,1-1.135.611.775.775,0,0,1-.786-.306c-.218-.262-.044-.48.044-.655.131-.262.349-.524.48-.786.044-.087.175-.218,0-.349-.175-.087-.175.087-.262.175C220.764,202.5,220.415,202.9,220.284,203.42Z" transform="translate(-131.34 -152.413)" fill="#f4d1a1"/>
    <path id="Path_1438" data-name="Path 1438" d="M279.7,202.733c-.175-.349-.306-.7-.437-1-.044-.131-.175-.218-.218-.306s-.131-.131-.262-.044c-.087.087-.044.175,0,.262a6.039,6.039,0,0,1,.611,1.179c.044.131.044.218-.087.306a1.016,1.016,0,0,1-1.31-.175c-.567-.48-1-1.135-1.571-1.659-.175-.175-.48-.262-.436-.437s.349-.262.567-.393a10.6,10.6,0,0,0,1.4-1.048c.087-.087.218-.218.393-.087a6.046,6.046,0,0,1,1.659,1.833A1.167,1.167,0,0,1,279.7,202.733Z" transform="translate(-162.954 -152.032)" fill="#f4d1a1"/>
    <path id="Path_1439" data-name="Path 1439" d="M213.374,151.1a3.76,3.76,0,0,1-.087.917c-.044.131-.044.218-.131.262a14.653,14.653,0,0,1-1.877.873.708.708,0,0,1-.742-.306c-.131-.218-.175-.437.175-.48.087,0,.131-.087.218-.131a.187.187,0,0,0,.044-.306c-.087-.087-.175,0-.218.087l-.262.131c-.306.175-.393,0-.393-.262a1.245,1.245,0,0,1,.567-.96,3.889,3.889,0,0,1,2.488-.829c.175,0,.262.044.218.218Z" transform="translate(-125.826 -124.324)" fill="#f4d0a0"/>
    <path id="Path_1440" data-name="Path 1440" d="M291.437,152.741a3.681,3.681,0,0,1-1.833-.786c-.044,0-.044-.087-.044-.131-.131-.655,0-1.31-.175-1.964-.044-.131.044-.218.175-.175a3.287,3.287,0,0,1,2.619,1.31,2.121,2.121,0,0,1,.131.306.413.413,0,0,1-.131.48c-.131.087-.262-.044-.393-.087-.131-.087-.218-.262-.349-.087-.087.131.087.262.175.349.131.131.48.044.305.393A.5.5,0,0,1,291.437,152.741Z" transform="translate(-170.496 -124.084)" fill="#f4d0a0"/>
    <path id="Path_1441" data-name="Path 1441" d="M247.7,116.688a1.4,1.4,0,0,1,1.048-1.222,3.006,3.006,0,0,1,2.226-.087,1.375,1.375,0,0,1,1.048,1.441c-.087.044-.087.175-.087.262a3.135,3.135,0,0,1-2.183.786,2.227,2.227,0,0,1-2.008-.742A1.485,1.485,0,0,1,247.7,116.688Z" transform="translate(-147.013 -104.661)" fill="#060606"/>
    <path id="Path_1442" data-name="Path 1442" d="M259.693,97.3a4.37,4.37,0,0,1,4.191,3.929,4.425,4.425,0,0,1-3.361,5.107,5.445,5.445,0,0,1-4.714-.611A4.373,4.373,0,0,1,255.153,99,5.681,5.681,0,0,1,259.693,97.3Zm-.829,8.949A10.752,10.752,0,0,0,260,106.16a4.856,4.856,0,0,0,3.012-1.833,3.992,3.992,0,0,0,.567-3.361,4.049,4.049,0,0,0-1.528-2.488,4.433,4.433,0,0,0-3.536-.829,5.046,5.046,0,0,0-3.536,2.052,3.831,3.831,0,0,0-.742,3.056A4.337,4.337,0,0,0,258.864,106.247Z" transform="translate(-150.494 -94.571)" fill="#0b1213"/>
    <path id="Path_1443" data-name="Path 1443" d="M230.94,107.555a4.642,4.642,0,0,1-4.671-3.1,4.411,4.411,0,0,1,2.052-5.413,5.354,5.354,0,0,1,5.893.131,4.22,4.22,0,0,1,1.833,3.4,4,4,0,0,1-1,3.1,5.29,5.29,0,0,1-3.143,1.746A1.959,1.959,0,0,1,230.94,107.555Zm-4.583-4.671a3.946,3.946,0,0,0,1.79,3.623,4.655,4.655,0,0,0,3.318.742,5.592,5.592,0,0,0,2.837-1.135,4.311,4.311,0,0,0-.7-6.984,5.2,5.2,0,0,0-3.623-.437A4.325,4.325,0,0,0,226.356,102.884Z" transform="translate(-134.793 -95.093)" fill="#0b1213"/>
    <path id="Path_1444" data-name="Path 1444" d="M245.389,118.6v.48a1.859,1.859,0,0,0-1.441,1.571,1.085,1.085,0,0,0,1.179,1.31,3.614,3.614,0,0,0,1.179-.306,2.9,2.9,0,0,1,2.1-.175,10.86,10.86,0,0,1,1.266.48,1.138,1.138,0,0,0,1.484-.524c.306-.48.218-.917-.262-1.441a6.05,6.05,0,0,0-1.353-1,.321.321,0,0,1,.087-.262,4.539,4.539,0,0,1,1.571,1.135,1.408,1.408,0,0,1,.262,1.659,1.44,1.44,0,0,1-1.659.786c-.262-.087-.306,0-.262.218a7.791,7.791,0,0,1,.044,1.746,1.126,1.126,0,0,1-1.7.7c-.48-.437-.7-.393-1.179-.044-.524.437-1.135.175-1.484-.524a3.276,3.276,0,0,1-.306-1.833c0-.218,0-.306-.262-.349a1.576,1.576,0,0,1-.786-2.4,1.842,1.842,0,0,1,1.266-1A.345.345,0,0,0,245.389,118.6Zm2.139,4.583c-.044.829.087,1.353.7,1.615a.892.892,0,0,0,1.091-.611c.131-.611-.087-1.266,0-1.877,0-.087,0-.175-.131-.218a11.67,11.67,0,0,0-1.135-.393c-.262-.044-.48.044-.437.349A7.5,7.5,0,0,1,247.528,123.183Zm-.218-1.528c-.655.175-1.222.349-1.833.524-.087,0-.131.044-.175.175a2.782,2.782,0,0,0,.349,2.052.554.554,0,0,0,.7.349c.349-.131.786-.306.829-.7A22.751,22.751,0,0,1,247.309,121.656Z" transform="translate(-144.702 -106.574)" fill="#1f1f1e"/>
    <path id="Path_1445" data-name="Path 1445" d="M250.062,119.4a6.05,6.05,0,0,1,1.353,1c.48.524.568.96.262,1.441a1.138,1.138,0,0,1-1.484.524,10.86,10.86,0,0,1-1.266-.48,2.9,2.9,0,0,0-2.1.175,3.614,3.614,0,0,1-1.179.306,1.083,1.083,0,0,1-1.179-1.31,1.758,1.758,0,0,1,1.441-1.571,2.227,2.227,0,0,0,2.008.742A3.149,3.149,0,0,0,250.062,119.4Z" transform="translate(-145.184 -107.025)" fill="#f4d1a1"/>
    <path id="Path_1446" data-name="Path 1446" d="M259.237,106.576a4.362,4.362,0,0,1-4.627-3.536,3.831,3.831,0,0,1,.742-3.056,4.96,4.96,0,0,1,3.536-2.052,4.8,4.8,0,0,1,3.536.829,4.048,4.048,0,0,1,1.528,2.488,4.151,4.151,0,0,1-.567,3.361,4.856,4.856,0,0,1-3.012,1.833A5.333,5.333,0,0,1,259.237,106.576Zm-.96-3.972a1.507,1.507,0,0,0-1.4-1.571,1.423,1.423,0,0,0-1.441,1.528,1.486,1.486,0,0,0,1.441,1.571A1.414,1.414,0,0,0,258.277,102.6Z" transform="translate(-150.867 -94.899)" fill="#fff"/>
    <path id="Path_1447" data-name="Path 1447" d="M226.8,103.367a4.28,4.28,0,0,1,3.623-4.147,5.2,5.2,0,0,1,3.623.437,4.039,4.039,0,0,1,2.139,3.23,4.086,4.086,0,0,1-1.441,3.754,5.234,5.234,0,0,1-2.837,1.135,4.882,4.882,0,0,1-3.318-.742A4.213,4.213,0,0,1,226.8,103.367Zm3.8.306a1.549,1.549,0,0,0-1.484-1.571,1.5,1.5,0,0,0-1.441,1.615,1.436,1.436,0,0,0,1.441,1.571A1.588,1.588,0,0,0,230.593,103.673Z" transform="translate(-135.232 -95.575)" fill="#fff"/>
    <path id="Path_1448" data-name="Path 1448" d="M252.6,127.114a7.669,7.669,0,0,0,.087-1.179c0-.306.175-.393.437-.349a11.661,11.661,0,0,1,1.135.393c.131.044.131.131.131.218a8.99,8.99,0,0,1,0,1.877.873.873,0,0,1-1.091.611C252.687,128.467,252.6,127.944,252.6,127.114Z" transform="translate(-149.774 -110.505)" fill="#fafaf9"/>
    <path id="Path_1449" data-name="Path 1449" d="M249.459,125.6c-.131.829-.044,1.615-.131,2.445-.044.393-.437.567-.829.7a.616.616,0,0,1-.7-.349,3.093,3.093,0,0,1-.349-2.052c0-.087.087-.131.175-.175A18.184,18.184,0,0,1,249.459,125.6Z" transform="translate(-146.852 -110.518)" fill="#fafaf9"/>
    <path id="Path_1450" data-name="Path 1450" d="M259.435,106.725a1.479,1.479,0,0,1-1.4,1.571,1.46,1.46,0,0,1-1.44-1.571,1.4,1.4,0,0,1,1.44-1.528A1.44,1.44,0,0,1,259.435,106.725Zm-1.091.349c.044.175.087.393.306.393.262,0,.349-.175.349-.393a.357.357,0,0,0-.349-.393C258.431,106.681,258.387,106.856,258.344,107.074Z" transform="translate(-152.026 -99.021)" fill="#060606"/>
    <path id="Path_1451" data-name="Path 1451" d="M231.781,107.513c-.087.917-.567,1.571-1.44,1.571a1.413,1.413,0,0,1-1.441-1.571,1.5,1.5,0,0,1,1.441-1.615A1.619,1.619,0,0,1,231.781,107.513Zm-1.135.349a.351.351,0,0,0,.349.437.357.357,0,0,0,.349-.393.391.391,0,0,0-.306-.437A.346.346,0,0,0,230.646,107.862Z" transform="translate(-136.42 -99.416)" fill="#060606"/>
    <path id="Path_1452" data-name="Path 1452" d="M260.6,108.993c.044-.218.087-.393.306-.393a.382.382,0,0,1,.349.393.357.357,0,0,1-.349.393C260.687,109.386,260.644,109.167,260.6,108.993Z" transform="translate(-154.282 -100.939)" fill="#fafaf9"/>
    <path id="Path_1453" data-name="Path 1453" d="M232.889,109.941c0-.218.087-.393.349-.349.262,0,.306.175.306.437s-.131.393-.349.393A.425.425,0,0,1,232.889,109.941Z" transform="translate(-138.663 -101.494)" fill="#fafaf9"/>
  </g>
</svg>
