<svg xmlns="http://www.w3.org/2000/svg" width="147.397" height="41.78" viewBox="0 0 147.397 41.78">
  <g id="HubSpot" transform="translate(-44.5 -256)">
    <path id="Path_1694" data-name="Path 1694" d="M366.628,256.03c.358.119.746.149,1.1.3a4.2,4.2,0,0,1,2.536,4.774.388.388,0,0,0,.149.388c3.043,2.357,6.087,4.744,9.16,7.1,1.283,1.014,2.566,2,3.849,3.014a.311.311,0,0,0,.477,0,10.585,10.585,0,0,1,4.625-2.029c.179-.03.239-.09.239-.269v-4.446c0-.179-.06-.239-.209-.328a3.833,3.833,0,0,1,1.253-7.131,3.865,3.865,0,0,1,4.237,2.477,3.8,3.8,0,0,1-1.731,4.625.4.4,0,0,0-.239.418c0,1.4.03,2.8,0,4.237,0,.328.089.388.388.477a10.388,10.388,0,0,1,8.325,7.638,10.645,10.645,0,0,1-8.235,13.4,10.414,10.414,0,0,1-8.384-1.85c-.209-.149-.3-.149-.477.03-1.164,1.193-2.357,2.387-3.551,3.551a.529.529,0,0,0-.149.507,3.469,3.469,0,1,1-3.312-2.745,1.323,1.323,0,0,1,.6.09c.3.119.448,0,.627-.209,1.164-1.193,2.357-2.357,3.551-3.551a.3.3,0,0,0,.06-.448,10.762,10.762,0,0,1-1.76-6.863,10.425,10.425,0,0,1,1.581-4.744c.119-.209.09-.3-.09-.418-4.267-3.312-8.563-6.654-12.83-9.966a.281.281,0,0,0-.388-.03,4.228,4.228,0,1,1-2.506-7.967.226.226,0,0,0,.119-.06C365.941,256.03,366.3,256.03,366.628,256.03Zm18.141,24.109a5.49,5.49,0,1,0,5.52-5.49A5.5,5.5,0,0,0,384.769,280.139Z" transform="translate(-222.709)" fill="#f4795c"/>
    <path id="Path_1695" data-name="Path 1695" d="M44.53,279.2H49.3c.269,0,.358.06.358.358v11.129c0,.239.06.328.3.328h10.2c.269,0,.3-.09.3-.328V279.528c0-.239.06-.328.3-.328h4.446c.388,0,.388,0,.388.388V307.1c0,.149-.03.209-.179.209H60.642c-.239,0-.179-.119-.179-.269V296.207c0-.239-.03-.3-.3-.3H49.93c-.239,0-.3.06-.3.3v10.771c0,.239-.03.328-.3.328H44.5Q44.545,293.253,44.53,279.2Z" transform="translate(0 -16.278)" fill="#35485c"/>
    <path id="Path_1696" data-name="Path 1696" d="M201.893,288.95a13.848,13.848,0,0,1,1.313-1.074,7.688,7.688,0,0,1,4.953-1.194,9.886,9.886,0,0,1,7.161,3.67,10.354,10.354,0,0,1,2.417,7.37,10.081,10.081,0,0,1-4.923,8.235,10.625,10.625,0,0,1-6.773,1.671,9.29,9.29,0,0,1-6.415-3.372,11.018,11.018,0,0,1-2.566-6.355c-.03-.448-.06-.925-.06-1.373v-16.47c0-.269.03-.358.328-.358,1.432.03,2.835.03,4.267,0,.269,0,.3.09.3.328Zm5.7,2.775a5.52,5.52,0,1,0,5.49,5.52A5.527,5.527,0,0,0,207.592,291.725Z" transform="translate(-106.998 -16.629)" fill="#35485c"/>
    <path id="Path_1697" data-name="Path 1697" d="M345.406,321v8.951c0,.269-.06.328-.328.3h-4.326c-.149,0-.269,0-.269-.209,0-5.818-.03-11.637.03-17.485A10.285,10.285,0,0,1,344,304.771a9.257,9.257,0,0,1,7.519-2.417,10.733,10.733,0,0,1,7.042,3.551,9.548,9.548,0,0,1,2.6,5.968,10.266,10.266,0,0,1-4.834,9.876,9.324,9.324,0,0,1-8.175,1.1,6.623,6.623,0,0,1-2.536-1.581A.725.725,0,0,0,345.406,321Zm5.669-2.745a5.535,5.535,0,1,0-5.52-5.55A5.552,5.552,0,0,0,351.075,318.258Z" transform="translate(-207.663 -32.48)" fill="#35485c"/>
    <path id="Path_1698" data-name="Path 1698" d="M285.767,286.531a9.089,9.089,0,0,0-2.685-1.939,4.482,4.482,0,0,0-3.342-.269,2.719,2.719,0,0,0-1.939,2.447,3.381,3.381,0,0,0-.03.776,2.016,2.016,0,0,0,.865,1.522,8.47,8.47,0,0,0,2.477,1.134,31.646,31.646,0,0,1,3.968,1.462,7.269,7.269,0,0,1,4.267,6.147,8.791,8.791,0,0,1-.507,4.386,7.553,7.553,0,0,1-4.744,4.356,10.55,10.55,0,0,1-12.054-3.4c-.09-.119-.09-.179,0-.269,1.1-1.134,2.208-2.268,3.282-3.431.149-.149.179-.06.269.03a9.668,9.668,0,0,0,1.731,1.76,4.776,4.776,0,0,0,4.744.627,3.047,3.047,0,0,0,1.939-2.924,2.747,2.747,0,0,0-1.253-2.208,10.861,10.861,0,0,0-2.864-1.313,24.311,24.311,0,0,1-3.76-1.552,6.5,6.5,0,0,1-3.61-4.834,8.216,8.216,0,0,1,1.76-7.072,8.1,8.1,0,0,1,4.505-2.566,10.049,10.049,0,0,1,9.071,2.178,6.57,6.57,0,0,1,.985,1.044c.06.09.119.149.03.269l-3.043,3.581Z" transform="translate(-159.602 -16.209)" fill="#35485c"/>
    <path id="Path_1699" data-name="Path 1699" d="M143.831,309.622c-.03,1.611.09,3.61-.03,5.609a8.772,8.772,0,0,1-3.73,6.833,9.1,9.1,0,0,1-14.322-5.7,8.771,8.771,0,0,1-.149-1.76V303c0-.269.06-.3.328-.3h4.267c.269,0,.3.09.3.328v11.637A4.03,4.03,0,0,0,133,318.6a4.219,4.219,0,0,0,5.967-3.819V303.028c0-.3.09-.328.358-.328h4.237c.239,0,.3.06.3.3C143.831,305.057,143.831,307.146,143.831,309.622Z" transform="translate(-56.902 -32.766)" fill="#35485c"/>
    <path id="Path_1700" data-name="Path 1700" d="M508.723,286.3v5.341c0,.209.03.269.269.269h3.939c.209,0,.3.06.3.269v3.73c0,.209-.06.269-.269.269h-3.909c-.239,0-.3.03-.3.3v8.146a4.856,4.856,0,0,0,.09.925,2.544,2.544,0,0,0,2.327,2.148,13.769,13.769,0,0,0,2.715.06c.089,0,.179-.03.269.03-.388,1.4-.776,2.835-1.164,4.267-.03.09-.06.149-.179.149a9.547,9.547,0,0,1-6.027-.865,5.654,5.654,0,0,1-2.864-4.207,9.181,9.181,0,0,1-.119-1.581V288.806a.369.369,0,0,1,.269-.418c1.492-.656,2.984-1.313,4.446-2A.714.714,0,0,1,508.723,286.3Z" transform="translate(-322.256 -21.259)" fill="#35485c"/>
  </g>
</svg>
