<svg xmlns="http://www.w3.org/2000/svg" width="155.686" height="43.318" viewBox="0 0 155.686 43.318">
  <g id="Hyperledger_Fabric" data-name="Hyperledger Fabric" transform="translate(-134.607 -67.173)">
    <path id="Path_1525" data-name="Path 1525" d="M192.06,149.1a8.952,8.952,0,0,0-1.485-.814.808.808,0,0,1-.431-1.246c.814-1.725,1.629-3.449,2.491-5.174a.786.786,0,0,1,1.245-.431c.623.287,1.2.575,1.82.862a.758.758,0,0,1,.431,1.1c-.91,1.916-1.82,3.784-2.778,5.7Z" transform="translate(-28.857 -38.605)" fill="#98d6d7"/>
    <path id="Path_1526" data-name="Path 1526" d="M327.625,119.541a4.819,4.819,0,0,1,4.12,4.168,5.115,5.115,0,0,1-2.97,5.557,9.3,9.3,0,0,1-3.784.862h-6.563c-.431,0-.527-.1-.527-.527V110.775c0-.479.144-.575.575-.575h6.659a6.467,6.467,0,0,1,3.737,1.006,4.618,4.618,0,0,1-.192,7.856C328.391,119.206,328.056,119.35,327.625,119.541Zm-6.946,4.695v3.018c0,.24,0,.431.335.431,1.533-.048,3.114.1,4.647-.1a3.409,3.409,0,0,0,3.114-2.251,3.308,3.308,0,0,0-2.539-4.359,27.575,27.575,0,0,0-5.269-.192c-.335,0-.287.24-.287.431Q320.678,122.727,320.678,124.236Zm0-8.814v2.587c0,.24,0,.431.335.383,1.485-.048,2.922.1,4.407-.1a2.8,2.8,0,0,0,2.635-2.922,2.744,2.744,0,0,0-2.826-2.826c-1.389-.048-2.731,0-4.12-.048-.335,0-.431.144-.431.431C320.678,113.793,320.678,114.607,320.678,115.422Z" transform="translate(-95.488 -22.415)" fill="#f15a4d"/>
    <path id="Path_1527" data-name="Path 1527" d="M362.271,120.974c1.868,3.018,3.737,5.988,5.653,9.054h-3.305c-.24,0-.287-.24-.383-.383-1.533-2.635-3.066-5.269-4.6-7.952a.682.682,0,0,0-.766-.431,12.79,12.79,0,0,1-1.916,0c-.479-.048-.623.1-.623.575.048,2.539,0,5.078.048,7.617,0,.479-.1.623-.623.575a7.689,7.689,0,0,0-1.485,0c-.527.048-.671-.1-.671-.671.048-3.928,0-7.856,0-11.784v-6.946c0-.431.1-.527.527-.527h6.946a5.767,5.767,0,0,1,4.79,1.964,5.468,5.468,0,0,1-3.4,8.862C362.51,120.926,362.414,120.926,362.271,120.974Zm-5.844-5.317v2.826c0,.192-.1.431.24.431a27.721,27.721,0,0,0,5.269-.192,2.69,2.69,0,0,0,2.06-1.581,3.076,3.076,0,0,0-2.3-4.455,33.77,33.77,0,0,0-4.934-.144c-.335,0-.287.192-.287.383C356.426,113.837,356.426,114.747,356.426,115.657Z" transform="translate(-114.086 -22.363)" fill="#f1594c"/>
    <path id="Path_1528" data-name="Path 1528" d="M291.887,129.966c-1.581,0-1.581,0-2.2-1.485-.383-1.006-.814-1.964-1.2-2.97a.583.583,0,0,0-.623-.431H279.24a.618.618,0,0,0-.623.431c-.527,1.341-1.1,2.683-1.581,4.024a.569.569,0,0,1-.623.431,16.91,16.91,0,0,0-2.2,0c-.431,0-.575-.048-.335-.527,1.341-2.97,2.635-5.94,3.976-8.958,1.437-3.305,2.922-6.611,4.359-9.868.192-.431.383-.623.862-.575.623.1,1.389-.24,1.82.1s.527,1.054.766,1.629c2.539,5.892,5.03,11.784,7.569,17.629.192.479.144.575-.383.527A6.108,6.108,0,0,1,291.887,129.966Zm-8.24-16.335c-.1.1-.144.144-.144.192-1.15,2.826-2.347,5.653-3.5,8.431-.192.431,0,.431.335.431h6.994C286.09,119.619,284.845,116.649,283.647,113.631Z" transform="translate(-72.492 -22.301)" fill="#f1594c"/>
    <path id="Path_1529" data-name="Path 1529" d="M401.1,119.3c.192-4.12,1.772-7.521,5.844-9.341a9.384,9.384,0,0,1,11.353,1.772c.192.192.287.383-.048.575-.575.383-1.15.862-1.677,1.293-.144.144-.24.192-.479,0-4.168-3.737-10.06-2.108-11.641,3.257a8.536,8.536,0,0,0,1.15,7.713c2.4,3.353,8.192,3.928,10.826.431.192-.287.383-.24.575-.048.527.431,1.054.814,1.581,1.2.335.24.335.383.1.623a8.934,8.934,0,0,1-5.7,3.018,10.194,10.194,0,0,1-11.784-8.91C401.148,120.4,401.148,119.919,401.1,119.3Z" transform="translate(-138.832 -21.74)" fill="#f1594c"/>
    <path id="Path_1530" data-name="Path 1530" d="M248.688,120.064v-9.389c0-.431.144-.575.575-.575h11.4c.479,0,.623.144.575.623a7.2,7.2,0,0,0,0,1.437c.048.431-.144.527-.527.527h-8.671c-.479,0-.671.1-.623.623.048,1.677.048,3.4,0,5.078,0,.383.1.527.527.527h8.1c.431,0,.575.1.575.527a8.188,8.188,0,0,0,0,1.533c.048.383-.1.527-.527.527h-8c-.527,0-.671.1-.671.671.048,2.443,0,4.934,0,7.377,0,.479-.144.623-.575.575a9.8,9.8,0,0,0-1.677,0c-.431.048-.527-.144-.479-.527Z" transform="translate(-59.425 -22.363)" fill="#f15a4d"/>
    <path id="Path_1531" data-name="Path 1531" d="M412.359,81.48v2.156a.425.425,0,0,1-.287.479,8.015,8.015,0,0,1-5.844.527,4.466,4.466,0,0,1-3.21-3.88c-.431-2.922,1.006-5.222,3.641-5.892a6.58,6.58,0,0,1,4.934.623c.431.24.575.527.1.862a.661.661,0,0,0-.144.192c-.287.287-.527.719-.862.91-.383.192-.671-.335-1.006-.479a3.121,3.121,0,0,0-4.12,1.389,3.208,3.208,0,0,0,1.437,4.311,4.005,4.005,0,0,0,3.066-.1c.287-.1.192-.287.192-.527-.048-1.15-.048-1.15-1.15-1.15-.431,0-.671-.048-.575-.575v-.287c0-1.15,0-1.15,1.15-1.2h2.3c.335,0,.431.1.431.431a11.215,11.215,0,0,0-.048,2.2Z" transform="translate(-139.791 -3.899)" fill="#292b2d"/>
    <path id="Path_1532" data-name="Path 1532" d="M380.988,80.125V75.718c0-.192-.1-.431.287-.431a28.9,28.9,0,0,1,4.982.192,4.347,4.347,0,0,1,3.784,4.407,4.674,4.674,0,0,1-3.593,4.886,16.492,16.492,0,0,1-4.072.24c-1.341.048-1.341,0-1.341-1.341,0-1.2,0-2.347-.048-3.545Zm2.2.048h0v2.443c0,.24,0,.431.335.383.527-.048,1.1-.048,1.677-.1a2.619,2.619,0,0,0,2.539-2.683,2.577,2.577,0,0,0-1.916-2.731,9.914,9.914,0,0,0-2.4-.192c-.287,0-.24.192-.24.335Z" transform="translate(-128.349 -4.221)" fill="#272a2b"/>
    <path id="Path_1533" data-name="Path 1533" d="M392.478,120v9.437c0,.431-.1.575-.527.527a10.364,10.364,0,0,0-1.725,0c-.479.048-.527-.144-.527-.575V110.565c0-.479.1-.623.575-.575a9.8,9.8,0,0,0,1.677,0c.431-.048.527.144.527.527Z" transform="translate(-132.893 -22.302)" fill="#f1574b"/>
    <path id="Path_1534" data-name="Path 1534" d="M450.936,84.521h-2.3c-.287,0-.383-.1-.527-.335-.527-1.054-1.15-2.108-1.677-3.162-.287-.575-.719-.335-1.054-.335-.24,0-.144.287-.144.431v3.018c0,.335-.1.431-.431.431-.575-.048-1.341.24-1.677-.144-.287-.287-.1-1.054-.1-1.581,0-2.491,0-4.982-.048-7.425,0-.527.144-.623.623-.623a34.618,34.618,0,0,1,4.455.144,2.519,2.519,0,0,1,2.251,1.82,2.918,2.918,0,0,1-.671,3.066,2.786,2.786,0,0,1-1.246.623C449.26,81.79,450.074,83.132,450.936,84.521Zm-4.6-5.7a4.859,4.859,0,0,0,1.15-.1.928.928,0,0,0,.719-.958.984.984,0,0,0-.766-1.006,3.93,3.93,0,0,0-1.054-.1c-1.15,0-1.15,0-1.15,1.15C445.236,78.82,445.236,78.82,446.337,78.82Z" transform="translate(-160.644 -3.97)" fill="#292b2c"/>
    <path id="Path_1535" data-name="Path 1535" d="M333.61,80.975c.766,1.246,1.485,2.4,2.156,3.593.1.144.287.287.192.431s-.287.048-.431.048c-.671,0-1.533.192-2.012-.1-.527-.287-.719-1.15-1.006-1.725s-.623-1.1-.862-1.677c-.24-.527-.671-.383-1.006-.335-.383.048-.192.383-.192.623,0,.958,0,1.916.048,2.874,0,.335-.1.431-.431.431-.479-.048-.958,0-1.437,0-.287,0-.383-.1-.383-.383,0-3.018,0-5.988-.048-9.006,0-.192-.048-.383.24-.383a39.183,39.183,0,0,1,4.742.1,2.864,2.864,0,0,1,2.108,4.359A2.818,2.818,0,0,1,333.61,80.975ZM331.454,79.3h.862c.1,0,.144-.048.24-.048a1.023,1.023,0,0,0-.048-2.012,7.832,7.832,0,0,0-1.054-.1c-1.1,0-1.1,0-1.054,1.1C330.4,79.346,330.4,79.346,331.454,79.3Z" transform="translate(-100.85 -4.256)" fill="#282a2c"/>
    <path id="Path_1536" data-name="Path 1536" d="M257.027,80.072v4.359c0,.431-.1.527-.527.479a5.411,5.411,0,0,0-1.246,0c-.335,0-.479-.1-.431-.431V81.174c0-.24,0-.431-.335-.431-1.15.048-2.251.048-3.4,0-.335,0-.431.1-.431.431.048,1.1,0,2.2.048,3.305,0,.335-.1.479-.431.431a13.438,13.438,0,0,0-1.389,0c-.287,0-.383-.1-.383-.383V75.521c0-.24.048-.383.335-.383h1.437c.335,0,.431.1.431.431v2.874c0,.24,0,.383.335.383,1.15-.048,2.251-.048,3.4-.048.383,0,.431-.144.431-.479-.048-.862,0-1.677-.048-2.539-.048-.575.144-.719.671-.671a4.237,4.237,0,0,0,1.1,0c.383-.048.431.1.431.431-.048,1.581-.048,3.066,0,4.551Z" transform="translate(-59.333 -4.12)" fill="#272a2b"/>
    <path id="Path_1537" data-name="Path 1537" d="M428.945,84.572h-3.066c-.287,0-.383-.1-.383-.383,0-2.97-.048-5.94-.1-8.91,0-.287.048-.431.383-.431,2.012,0,3.976,0,5.988-.048.239,0,.335.1.335.335v.048c0,.527.192,1.15-.048,1.533-.287.383-.958.1-1.437.144a23.3,23.3,0,0,1-2.587,0c-.287,0-.431.1-.383.383,0,.1.048.24.048.335.1,1.006.048,1.006,1.1,1.006h2.683c.287,0,.431.048.383.383-.048.527.192,1.2-.1,1.533s-.958.1-1.485.144c-.766.048-1.485,0-2.251,0-.287,0-.383.048-.383.383-.048,1.581-.048,1.581,1.533,1.533.958,0,1.868,0,2.826-.048.335,0,.479.1.431.431-.048.527.24,1.2-.1,1.533-.24.24-.958.1-1.437.1a13.435,13.435,0,0,0-1.964,0Z" transform="translate(-151.491 -3.973)" fill="#2a2c2e"/>
    <path id="Path_1538" data-name="Path 1538" d="M363.484,80.474c-.048-1.581.048-3.114-.1-4.695-.048-.335.048-.479.479-.479h5.8c.383,0,.479.144.479.479,0,1.533,0,1.533-1.533,1.533-.862,0-1.725.048-2.587,0-.287,0-.383.1-.383.383,0,1.341,0,1.341,1.389,1.341h2.491c.335,0,.431.1.431.431C370,81.1,370,81.1,368.37,81.1c-.766,0-1.485.048-2.252,0-.383,0-.479.144-.431.479V82.1c0,1.054,0,1.054,1.054.958,1.1-.1,2.2,0,3.305-.048.239,0,.335.048.335.335.144,1.725.144,1.725-1.581,1.725-1.629,0-3.257,0-4.886.048-.383,0-.479-.1-.479-.479C363.484,83.2,363.484,81.863,363.484,80.474Z" transform="translate(-119.179 -4.234)" fill="#292b2d"/>
    <path id="Path_1539" data-name="Path 1539" d="M310.6,80.086V75.775c0-.479.144-.575.575-.575h5.749c.335,0,.383.144.383.383a10.793,10.793,0,0,0,0,1.246c0,.335-.1.383-.383.383h-3.593c-.335,0-.479.048-.479.431,0,1.293,0,1.293,1.293,1.293h2.539c.287,0,.479.048.431.383-.048.527.239,1.2-.1,1.533s-1.006.1-1.533.1c-.719,0-1.437.048-2.108,0-.383,0-.479.144-.479.479,0,1.437,0,1.437,1.437,1.437.91,0,1.82,0,2.731-.048.383,0,.575.1.527.479a4.614,4.614,0,0,0,0,.814c0,.719,0,.719-.719.766-1.916,0-3.784,0-5.7.048-.383,0-.527-.1-.527-.479,0-1.389,0-2.874-.048-4.359Z" transform="translate(-91.685 -4.182)" fill="#292b2c"/>
    <path id="Path_1540" data-name="Path 1540" d="M183.6,99.5c.1.048.287.1.479.192,2.874,1.341,5.749,2.731,8.575,4.072a.864.864,0,0,1,.479,1.341c-.287.575-.575,1.15-.862,1.772a.806.806,0,0,1-1.15.431c-2.922-1.389-5.844-2.778-8.814-4.168a.85.85,0,0,1-.431-1.246c.287-.623.575-1.2.862-1.82A.946.946,0,0,1,183.6,99.5Z" transform="translate(-24.568 -16.841)" fill="#f1594c"/>
    <path id="Path_1541" data-name="Path 1541" d="M175.681,141.368a2.16,2.16,0,0,1-.144.527c-.24.527-.527,1.054-.766,1.581-.335.671-.671.814-1.389.479-2.539-1.2-5.03-2.4-7.569-3.593-.335-.144-.671-.335-1.054-.479a.849.849,0,0,1-.479-1.246c.24-.575.527-1.15.814-1.725.335-.671.671-.766,1.341-.479,2.635,1.246,5.317,2.539,7.952,3.784.24.144.527.24.766.383A.723.723,0,0,1,175.681,141.368Z" transform="translate(-15.4 -36.002)" fill="#f1594c"/>
    <path id="Path_1542" data-name="Path 1542" d="M142.762,108.056a2.324,2.324,0,0,1-1.006-.383c-.383-.192-.814-.383-1.2-.575a.849.849,0,0,1-.479-1.245c.383-.862.814-1.725,1.246-2.587.958-2.012,1.916-3.976,2.874-5.988.335-.719.719-.814,1.437-.479.575.24,1.1.527,1.677.766a.844.844,0,0,1,.431,1.293c-1.341,2.826-2.731,5.7-4.072,8.527C143.433,107.72,143.241,108.1,142.762,108.056Z" transform="translate(-2.793 -15.337)" fill="#98d6d7"/>
    <path id="Path_1543" data-name="Path 1543" d="M179.532,125.668a3.64,3.64,0,0,1-.527-.192c-.527-.24-1.054-.527-1.581-.766a.844.844,0,0,1-.479-1.293c.91-1.868,1.82-3.737,2.683-5.6.479-.958.958-1.964,1.389-2.922.335-.671.671-.814,1.341-.479l1.581.719c.766.383.91.766.527,1.533-1.054,2.156-2.108,4.311-3.114,6.515-.335.671-.623,1.341-.958,2.012A1.1,1.1,0,0,1,179.532,125.668Z" transform="translate(-21.983 -24.518)" fill="#98d6d7"/>
    <path id="Path_1544" data-name="Path 1544" d="M211.946,106.372a5.371,5.371,0,0,1-.24.623c-1.341,2.778-2.635,5.557-3.976,8.287-.335.671-.766.862-1.437.527-.527-.24-1.054-.527-1.581-.766-.671-.335-.766-.671-.479-1.341.814-1.725,1.677-3.5,2.491-5.222.527-1.1,1.054-2.251,1.629-3.353.335-.671.671-.766,1.341-.431.575.287,1.15.527,1.725.814A.958.958,0,0,1,211.946,106.372Z" transform="translate(-36.193 -19.45)" fill="#98d6d7"/>
    <path id="Path_1545" data-name="Path 1545" d="M174.977,88.726a.8.8,0,0,1-.144.575c-1.341,2.826-2.731,5.653-4.072,8.527-.335.671-.719.814-1.389.479a15.246,15.246,0,0,1-1.533-.766c-.719-.383-.862-.719-.527-1.437,1.006-2.108,2.06-4.263,3.066-6.371.335-.719.671-1.437,1.006-2.108a.836.836,0,0,1,1.293-.479c.575.287,1.2.527,1.772.814A.723.723,0,0,1,174.977,88.726Z" transform="translate(-16.949 -10.331)" fill="#98d6d7"/>
    <path id="Path_1546" data-name="Path 1546" d="M294.539,75.3a22.5,22.5,0,0,1,2.491.1,2.933,2.933,0,0,1,.1,5.749,12.322,12.322,0,0,1-2.3.1c-.479,0-.527.144-.527.527.048.958,0,1.916,0,2.874,0,.335-.1.431-.431.431-.575-.048-1.246.192-1.629-.048-.383-.287-.144-1.006-.144-1.533-.048-2.587-.048-5.174-.1-7.76,0-.335.144-.383.383-.383C293.1,75.3,293.772,75.3,294.539,75.3Zm-.24,2.97v.862c0,.192,0,.287.24.287a8.155,8.155,0,0,0,1.868-.1,1.052,1.052,0,0,0-.048-2.06,3.259,3.259,0,0,0-.958-.1C294.3,77.12,294.3,77.12,294.3,78.27Z" transform="translate(-81.995 -4.234)" fill="#292b2d"/>
    <path id="Path_1547" data-name="Path 1547" d="M166.131,114.319a4.984,4.984,0,0,1-.383.958,11.5,11.5,0,0,1-.527,1.1c-.335.719-.719.814-1.437.479-2.4-1.15-4.79-2.3-7.186-3.4-.479-.24-.958-.431-1.389-.671a.861.861,0,0,1-.431-1.246c.287-.575.527-1.2.814-1.772a.879.879,0,0,1,1.246-.479c2.922,1.389,5.844,2.778,8.814,4.168A.9.9,0,0,1,166.131,114.319Z" transform="translate(-10.45 -21.888)" fill="#f1594c"/>
    <path id="Path_1548" data-name="Path 1548" d="M181.965,80.208c-.192.048-.431-.1-.623-.192-2.778-1.293-5.509-2.635-8.287-3.928-.862-.431-.958-.719-.527-1.581a15.246,15.246,0,0,1,.766-1.533.808.808,0,0,1,1.246-.431c2.922,1.389,5.8,2.731,8.671,4.12a.813.813,0,0,1,.431,1.2c-.287.623-.575,1.246-.91,1.868A.8.8,0,0,1,181.965,80.208Z" transform="translate(-19.625 -2.723)" fill="#f1594c"/>
    <path id="Path_1549" data-name="Path 1549" d="M269.2,75.248h2.347a.581.581,0,0,1,.575.335c.575,1.054,1.2,2.108,1.868,3.257.623-1.054,1.246-2.06,1.82-3.114a.863.863,0,0,1,.91-.527c.623.048,1.293,0,2.012,0a36.96,36.96,0,0,1-2.2,3.353,6.325,6.325,0,0,0-1.437,4.886c.048.479.24,1.15-.1,1.437-.287.24-.91.048-1.389.1-.527.048-.814-.048-.719-.671.048-.24-.048-.479,0-.719a6.251,6.251,0,0,0-1.533-5.03C270.637,77.547,269.966,76.446,269.2,75.248Z" transform="translate(-70.117 -4.182)" fill="#292b2c"/>
    <path id="Path_1550" data-name="Path 1550" d="M347.448,80.074V75.715c0-.335.048-.527.431-.479.575.048,1.293-.24,1.629.144.335.335.1,1.054.1,1.581,0,1.82.048,3.641,0,5.461,0,.431.1.575.527.575,1.006-.048,2.012,0,3.018,0,.335,0,.431.1.431.431-.048.527.192,1.15-.1,1.485s-.958.1-1.485.1h-4.168c-.383,0-.431-.1-.431-.431.1-1.533.1-3.018.048-4.5Z" transform="translate(-110.856 -4.17)" fill="#282a2c"/>
    <path id="Path_1551" data-name="Path 1551" d="M199.448,130.2a1.883,1.883,0,0,1-.1.287l-.862,1.868a.823.823,0,0,1-1.2.431c-1.772-.814-3.545-1.677-5.317-2.539a.844.844,0,0,1-.431-1.293c.287-.575.527-1.15.814-1.677a.889.889,0,0,1,1.341-.431c1.725.814,3.4,1.629,5.126,2.443A.858.858,0,0,1,199.448,130.2Z" transform="translate(-29.587 -31.011)" fill="#f1594c"/>
    <path id="Path_1552" data-name="Path 1552" d="M210.849,89.9c.1.048.287.1.479.192,1.677.766,3.305,1.581,4.934,2.347.814.383.91.719.527,1.533-.24.527-.479,1.054-.766,1.581a.813.813,0,0,1-1.2.431c-1.772-.862-3.593-1.677-5.365-2.539a.778.778,0,0,1-.383-1.15c.287-.623.623-1.293.91-1.916A.868.868,0,0,1,210.849,89.9Z" transform="translate(-38.736 -11.84)" fill="#f1594c"/>
    <path id="Path_1553" data-name="Path 1553" d="M160.18,88.889a1.953,1.953,0,0,1-.1.335c-.287.623-.575,1.293-.91,1.916a.75.75,0,0,1-1.1.383c-1.82-.862-3.641-1.725-5.413-2.587a.741.741,0,0,1-.383-1.1c.287-.623.575-1.293.91-1.916a.806.806,0,0,1,1.15-.431c1.82.862,3.641,1.725,5.413,2.587A.839.839,0,0,1,160.18,88.889Z" transform="translate(-9.146 -9.488)" fill="#f1594c"/>
    <path id="Path_1554" data-name="Path 1554" d="M142.651,125.63c-.048.1-.048.24-.1.335-.287.623-.575,1.246-.91,1.868a.806.806,0,0,1-1.15.431c-1.82-.862-3.641-1.725-5.413-2.587a.77.77,0,0,1-.383-1.1c.287-.623.575-1.293.91-1.916a.778.778,0,0,1,1.15-.383c1.82.862,3.593,1.725,5.365,2.539A.913.913,0,0,1,142.651,125.63Z" transform="translate(0 -28.647)" fill="#f1594c"/>
    <path id="Path_1555" data-name="Path 1555" d="M157.592,73.365a1.326,1.326,0,0,1,.144-.623c.766-1.629,1.533-3.257,2.3-4.838.383-.766.766-.91,1.581-.527.527.24,1.054.479,1.533.719a.808.808,0,0,1,.431,1.246c-.814,1.677-1.629,3.353-2.443,5.078-.383.766-.671.862-1.485.479-.575-.24-1.1-.527-1.677-.766A.737.737,0,0,1,157.592,73.365Z" transform="translate(-11.97)" fill="#98d6d7"/>
    <path id="Path_1556" data-name="Path 1556" d="M155.877,131.713a10.293,10.293,0,0,1-1.533-.623c-1.341-.623-1.581-.814-.814-2.252.719-1.437,1.389-2.874,2.06-4.311.383-.766.719-.862,1.533-.527a16.082,16.082,0,0,1,1.581.766.832.832,0,0,1,.431,1.246c-.814,1.725-1.629,3.4-2.443,5.126A.835.835,0,0,1,155.877,131.713Z" transform="translate(-9.632 -29.509)" fill="#98d6d7"/>
    <path id="Path_1557" data-name="Path 1557" d="M197.121,92.554a4.992,4.992,0,0,1-.575-.24,15.245,15.245,0,0,1-1.533-.766c-.671-.335-.766-.623-.479-1.341.24-.575.527-1.15.814-1.725l1.581-3.305c.335-.719.671-.814,1.389-.479.575.24,1.1.527,1.677.766.623.287.766.671.479,1.245l-2.443,5.174A.979.979,0,0,1,197.121,92.554Z" transform="translate(-31.14 -9.033)" fill="#98d6d7"/>
  </g>
</svg>
