<svg xmlns="http://www.w3.org/2000/svg" width="121.216" height="130.369" viewBox="0 0 121.216 130.369">
  <g id="Group_347" data-name="Group 347" transform="translate(-1920.734 -2260.893)">
    <g id="Group_341" data-name="Group 341" transform="translate(1945.746 2334.589)">
      <path id="Path_2458" data-name="Path 2458" d="M2035.74,2427.3h-24.8l-.223-7.763h-5.687v7.763H1974v16.254l6.9-.419v-8.939h24.135v9.358h5.911v-9.358h24.135v9.358h6.4V2427.3Z" transform="translate(-1972.522 -2412.03)" fill="#fff" stroke="#19323f" stroke-width="1"/>
      <path id="Path_2459" data-name="Path 2459" d="M1978.991,2442.4h-6.267c-.952,0-1.724.952-1.724,0v-17.378a1.724,1.724,0,0,1,1.724-1.724h29.306v-6.623c0-.952,1.181,0,2.133,0h5.032c.952,0,2.193-.952,2.193,0v6.623H2040.2a1.724,1.724,0,0,1,1.724,1.724v17.394c0,.952-1.535,0-2.487,0h-5.64c-.952,0-1.724.952-1.724,0v-8.774h-20.687v7.635a1.724,1.724,0,0,1-1.724,1.724h-5.911a1.724,1.724,0,0,1-1.724-1.724v-7.635h-20.687v8.758C1981.344,2443.352,1979.943,2442.4,1978.991,2442.4Zm-4.543-2.127h3.448v-8.355a1.724,1.724,0,0,1,1.724-1.724h24.135a1.724,1.724,0,0,1,1.724,1.724v7.635h2.463v-7.635a1.724,1.724,0,0,1,1.724-1.724H2033.8a1.724,1.724,0,0,1,1.724,1.724v8.657h2.955v-13.829h-28.814a1.724,1.724,0,0,1-1.724-1.724v-6.479h-2.463v6.479a1.724,1.724,0,0,1-1.724,1.724h-29.306Z" transform="translate(-1971 -2410)" fill="#19323f" stroke="#19323f" stroke-width="1"/>
    </g>
    <g id="Group_345" data-name="Group 345" transform="translate(1937.947 2361.147)">
      <g id="Group_342" data-name="Group 342" transform="translate(57.504)">
        <path id="Path_2460" data-name="Path 2460" d="M2091.407,2496.691a13.277,13.277,0,1,1,13.277-13.277A13.292,13.292,0,0,1,2091.407,2496.691Zm0-23.106a9.829,9.829,0,1,0,9.829,9.829A9.84,9.84,0,0,0,2091.407,2473.585Z" transform="translate(-2075.068 -2467.075)" fill="#19323f" stroke="#19323f" stroke-width="1"/>
      </g>
      <g id="Group_343" data-name="Group 343" transform="translate(29.661 2.44)">
        <path id="Path_2461" data-name="Path 2461" d="M2029.925,2496.691a13.277,13.277,0,1,1,13.277-13.277A13.292,13.292,0,0,1,2029.925,2496.691Zm0-23.106a9.829,9.829,0,1,0,9.829,9.829A9.84,9.84,0,0,0,2029.925,2473.585Z" transform="translate(-2016.026 -2469.515)" fill="#19323f" stroke="#19323f" stroke-width="1"/>
      </g>
      <g id="Group_344" data-name="Group 344" transform="translate(0 3.062)">
        <path id="Path_2462" data-name="Path 2462" d="M1968.443,2496.691a13.277,13.277,0,1,1,13.277-13.277A13.292,13.292,0,0,1,1968.443,2496.691Zm0-23.106a9.829,9.829,0,1,0,9.829,9.829A9.84,9.84,0,0,0,1968.443,2473.585Z" transform="translate(-1955.166 -2470.137)" fill="#19323f" stroke="#19323f" stroke-width="1"/>
      </g>
      <circle id="Ellipse_5" data-name="Ellipse 5" cx="3" cy="3" r="3" transform="translate(71.287 13.246)" fill="#19323f"/>
      <circle id="Ellipse_6" data-name="Ellipse 6" cx="3" cy="3" r="3" transform="translate(40.287 13.246)" fill="#19323f"/>
      <circle id="Ellipse_7" data-name="Ellipse 7" cx="3" cy="3" r="3" transform="translate(10.287 13.246)" fill="#19323f"/>
    </g>
    <g id="Group_346" data-name="Group 346" transform="translate(1921.234 2261.393)">
      <path id="Path_2464" data-name="Path 2464" d="M2020.819,2343.812h-74.21a1.718,1.718,0,0,1-1.212-.5,25.756,25.756,0,0,1,1.591-51.463c.189,0,.379,0,.574.007a36.377,36.377,0,0,1,72.008,10.29q.628-.039,1.249-.039a20.852,20.852,0,0,1,0,41.7Zm-73.047-3.448h73.047a17.4,17.4,0,1,0-3-34.541,1.724,1.724,0,0,1-1.994-2.012,32.93,32.93,0,1,0-65.069-9.94,1.721,1.721,0,0,1-1.858,1.515c-.7-.059-1.322-.088-1.914-.088a22.309,22.309,0,0,0-.351,44.614A1.716,1.716,0,0,1,1947.772,2340.364Z" transform="translate(-1921.234 -2261.393)" fill="#19323f" stroke="#19323f" stroke-width="1"/>
    </g>
  </g>
</svg>
