<svg xmlns="http://www.w3.org/2000/svg" width="262.682" height="365.096" viewBox="0 0 262.682 365.096">
  <g id="Group_109" data-name="Group 109" transform="translate(4527.938 -1310.316)">
    <g id="Group_108" data-name="Group 108">
      <path id="Path_711" data-name="Path 711" d="M-4339.273,1533.441h-98.782q67.823-75.228,135.644-150.471c-.154-5.876-.29-11.769-.444-17.663q-30.414.231-60.844.445.128-25.854.222-51.689-14.605-.205-29.21-.427c.137,3.348.291,6.679.427,10.027a78.042,78.042,0,0,0-12.862-6.969,79.9,79.9,0,0,0-29.226-6.338h-29.21A65.267,65.267,0,0,0-4505,1323.441a65.034,65.034,0,0,0-22.941,34.026v100.969a57.637,57.637,0,0,0,13.563,24.631,60.219,60.219,0,0,0,13.528,10.471c17.167,9.993,35.649,10.984,46.223,10.676l-26.391,29.671c.154,5.944.29,11.905.444,17.867l177.067.666q.2-29.67.427-59.324-18.09-.641-36.2-1.3Zm-119.28-49.725a32.477,32.477,0,0,1-13.955-5c-11.035-7.226-13.8-19.012-14.383-21.814V1358.56a34.581,34.581,0,0,1,7.618-15.7c9.31-10.761,22.292-11.837,25.093-12.008h25.947a38.6,38.6,0,0,1,19.182,8.08c11.974,9.617,13.836,23.35,14.178,26.373h-82.213q-.1,35.667-.222,71.316h34.675v-53.209h97.04q-45.352,50.579-90.72,101.174Z" fill="#4892cf"/>
      <rect id="Rectangle_42" data-name="Rectangle 42" width="184.48" height="4.979" transform="translate(-4486.891 1566.224)" fill="#4892cf"/>
      <g id="Group_106" data-name="Group 106">
        <path id="Path_712" data-name="Path 712" d="M-4495.461,1610.08a4.48,4.48,0,0,0-.826,3.229,4.482,4.482,0,0,0,1.652,2.854,2.688,2.688,0,0,0,1.953-.151,2.76,2.76,0,0,0,1.427-2.553,9.031,9.031,0,0,0-.9-3.229,9.4,9.4,0,0,0-3.38-3.68,10.976,10.976,0,0,0-6.458-1.351,14.18,14.18,0,0,0-7.059,1.727,13.85,13.85,0,0,0-5.482,5.782c-1.755,3.351-1.7,6.945-1.685,10.634a14.451,14.451,0,0,0,.218,2.981,10.493,10.493,0,0,0,1.071,2.731,14.6,14.6,0,0,0,4.187,4.974c3.421,2.479,7.392,1.93,11.378,1.885a11.631,11.631,0,0,0,3.83-1.5,12.539,12.539,0,0,0,5.182-6.834,1.137,1.137,0,0,0-.826-.9,1.147,1.147,0,0,0-1.277.6,11.264,11.264,0,0,1-.976,1.652,8.966,8.966,0,0,1-8.106,3.874,9.546,9.546,0,0,1-2.608-.356,8.027,8.027,0,0,1-2.49-1.349,10.352,10.352,0,0,1-3.9-6.165,18.485,18.485,0,0,1-.231-3.075c-.093-4.911.416-10.9,5.322-13.478A8.262,8.262,0,0,1-4495.461,1610.08Z" fill="#4892cf"/>
        <path id="Path_713" data-name="Path 713" d="M-4439.581,1651.259a2.8,2.8,0,0,0-.517,2.021,2.8,2.8,0,0,0,1.034,1.787,1.683,1.683,0,0,0,1.222-.095,1.724,1.724,0,0,0,.893-1.6,5.631,5.631,0,0,0-.564-2.021,5.865,5.865,0,0,0-2.115-2.3,6.878,6.878,0,0,0-4.043-.846,8.883,8.883,0,0,0-4.419,1.081,8.677,8.677,0,0,0-3.432,3.62c-1.1,2.1-1.063,4.347-1.055,6.657a9.029,9.029,0,0,0,.137,1.866,6.552,6.552,0,0,0,.67,1.71,9.141,9.141,0,0,0,2.621,3.113c2.142,1.552,4.628,1.208,7.123,1.18a7.267,7.267,0,0,0,2.4-.94,7.85,7.85,0,0,0,3.243-4.278.712.712,0,0,0-.517-.564.718.718,0,0,0-.8.376,6.983,6.983,0,0,1-.611,1.034,5.614,5.614,0,0,1-5.075,2.426,5.987,5.987,0,0,1-1.632-.223,5.02,5.02,0,0,1-1.559-.845,6.489,6.489,0,0,1-2.441-3.859,11.58,11.58,0,0,1-.144-1.925c-.058-3.075.26-6.823,3.331-8.437A5.173,5.173,0,0,1-4439.581,1651.259Z" fill="#4892cf"/>
        <path id="Path_714" data-name="Path 714" d="M-4463.021,1609.328a13.319,13.319,0,0,0-18.848-.3c-5.45,5.5-6.339,17-1.052,22.907,3.184,3.555,7.1,4.092,11.65,3.809a10.385,10.385,0,0,0,6.226-2.61c3.849-3.158,5.418-7.372,5.375-12.235C-4459.709,1616.519-4459.872,1612.7-4463.021,1609.328Zm-2.415,15.469a12.274,12.274,0,0,1-2.97,6.972,6.876,6.876,0,0,1-3.985,2.366,6.145,6.145,0,0,1-5.472-2.542,12.913,12.913,0,0,1-2.236-5.843c-1-5.939-.828-13.735,4.381-17.725a3.668,3.668,0,0,1,.742-.466,6.032,6.032,0,0,1,5.9,1.072c3.23,2.628,3.872,6.9,3.877,10.828A41.7,41.7,0,0,1-4465.436,1624.8Z" fill="#4892cf"/>
        <path id="Path_715" data-name="Path 715" d="M-4419.245,1650.92a8.382,8.382,0,0,0-11.861-.188c-3.429,3.459-3.989,10.7-.662,14.415,2,2.237,4.47,2.574,7.331,2.4a6.544,6.544,0,0,0,3.919-1.642,9.319,9.319,0,0,0,3.382-7.7C-4417.161,1655.446-4417.263,1653.045-4419.245,1650.92Zm-1.52,9.735a7.717,7.717,0,0,1-1.869,4.387,4.326,4.326,0,0,1-2.507,1.489,3.867,3.867,0,0,1-3.444-1.6,8.132,8.132,0,0,1-1.407-3.678c-.626-3.737-.521-8.642,2.757-11.154a2.291,2.291,0,0,1,.467-.293,3.8,3.8,0,0,1,3.71.675c2.032,1.654,2.436,4.343,2.439,6.814A26.273,26.273,0,0,1-4420.765,1660.655Z" fill="#4892cf"/>
        <path id="Path_716" data-name="Path 716" d="M-4366.373,1609.328a13.319,13.319,0,0,0-18.848-.3c-5.449,5.5-6.339,17-1.052,22.907,3.184,3.555,7.1,4.092,11.65,3.809a10.389,10.389,0,0,0,6.227-2.61c3.849-3.158,5.417-7.372,5.374-12.235C-4363.061,1616.519-4363.224,1612.7-4366.373,1609.328Zm-2.415,15.469a12.267,12.267,0,0,1-2.97,6.972,6.874,6.874,0,0,1-3.984,2.366,6.146,6.146,0,0,1-5.473-2.542,12.924,12.924,0,0,1-2.236-5.843c-.995-5.939-.828-13.735,4.381-17.725a3.668,3.668,0,0,1,.742-.466,6.032,6.032,0,0,1,5.9,1.072c3.23,2.628,3.873,6.9,3.877,10.828A41.524,41.524,0,0,1-4368.788,1624.8Z" fill="#4892cf"/>
        <path id="Path_717" data-name="Path 717" d="M-4455.923,1606.363l9.688-1.127q-.114,3.492-.226,6.984a18.093,18.093,0,0,1,3.042-3.492,18.2,18.2,0,0,1,5.294-3.267h6.646a7.451,7.451,0,0,1,3.379,2.028,7.708,7.708,0,0,1,2.028,5.182v19.262a4.969,4.969,0,0,0,.826.938,5.015,5.015,0,0,0,1.2.789h1.8v1.879h-13.519v-2.255h2.855a2.016,2.016,0,0,0,1.388-.563,1.989,1.989,0,0,0,.564-1.126V1612.97a5.923,5.923,0,0,0-1.24-3.3,5.907,5.907,0,0,0-2.778-1.953l-2.591.038a15.677,15.677,0,0,0-3.98,2.29,15.839,15.839,0,0,0-4.243,5.182v16.634a3.869,3.869,0,0,0,.676.976,3.87,3.87,0,0,0,1.314.9h1.54v1.877h-13.48v-2.029h2.75a3.623,3.623,0,0,0,1.268-.787,3.655,3.655,0,0,0,.863-1.276v-21.141a2.391,2.391,0,0,0-.563-1.2,2.4,2.4,0,0,0-1.277-.751h-3.266Q-4455.942,1607.395-4455.923,1606.363Z" fill="#4892cf"/>
        <path id="Path_718" data-name="Path 718" d="M-4414.953,1648.89l5.96-.693q-.069,2.148-.139,4.3a11.17,11.17,0,0,1,1.871-2.148,11.167,11.167,0,0,1,3.257-2.01h4.089a4.572,4.572,0,0,1,2.079,1.248,4.741,4.741,0,0,1,1.248,3.187v11.851a3.014,3.014,0,0,0,.508.577,3.084,3.084,0,0,0,.739.485h1.11v1.156h-8.317v-1.387h1.756a1.243,1.243,0,0,0,.854-.346,1.231,1.231,0,0,0,.347-.693v-11.458a3.655,3.655,0,0,0-.763-2.033,3.636,3.636,0,0,0-1.709-1.2l-1.594.023a9.677,9.677,0,0,0-2.449,1.409,9.747,9.747,0,0,0-2.61,3.188v10.234a2.339,2.339,0,0,0,.416.6,2.4,2.4,0,0,0,.808.555h.948v1.155h-8.294v-1.249h1.692a2.221,2.221,0,0,0,.78-.484,2.236,2.236,0,0,0,.531-.785v-13.006a1.469,1.469,0,0,0-.346-.739,1.484,1.484,0,0,0-.785-.462h-2.01Z" fill="#4892cf"/>
        <path id="Path_719" data-name="Path 719" d="M-4319.339,1648.89l5.959-.693q-.069,2.148-.138,4.3a11.124,11.124,0,0,1,1.871-2.148,11.172,11.172,0,0,1,3.257-2.01h4.089a4.578,4.578,0,0,1,2.079,1.248,4.73,4.73,0,0,1,1.247,3.187v11.851a3.107,3.107,0,0,0,.508.577,3.1,3.1,0,0,0,.74.485h1.109v1.156h-8.317v-1.387h1.757a1.244,1.244,0,0,0,.854-.346,1.218,1.218,0,0,0,.346-.693v-11.458a3.64,3.64,0,0,0-.762-2.033,3.635,3.635,0,0,0-1.71-1.2l-1.593.023a9.679,9.679,0,0,0-2.449,1.409,9.76,9.76,0,0,0-2.61,3.188v10.234a2.344,2.344,0,0,0,.415.6,2.406,2.406,0,0,0,.809.555h.947v1.155h-8.293v-1.249h1.692a2.239,2.239,0,0,0,.78-.484,2.24,2.24,0,0,0,.531-.785v-13.006a1.471,1.471,0,0,0-.346-.739,1.487,1.487,0,0,0-.786-.462h-2.01C-4319.355,1649.737-4319.347,1649.313-4319.339,1648.89Z" fill="#4892cf"/>
        <path id="Path_720" data-name="Path 720" d="M-4359.312,1606.363l9.687-1.127q-.113,3.492-.225,6.984a18.135,18.135,0,0,1,3.041-3.492,18.214,18.214,0,0,1,5.294-3.267h6.646a7.458,7.458,0,0,1,3.38,2.028,7.7,7.7,0,0,1,2.027,5.182v19.262a5.076,5.076,0,0,0,.826.938,5.047,5.047,0,0,0,1.2.789h1.8v1.879h-13.519v-2.255h2.855a2.018,2.018,0,0,0,1.388-.563,1.989,1.989,0,0,0,.563-1.126V1612.97a5.925,5.925,0,0,0-1.239-3.3,5.918,5.918,0,0,0-2.778-1.953l-2.591.038a15.686,15.686,0,0,0-3.98,2.29,15.823,15.823,0,0,0-4.243,5.182v16.634a3.852,3.852,0,0,0,.676.976,3.865,3.865,0,0,0,1.314.9h1.54v1.877h-13.481v-2.029h2.751a3.621,3.621,0,0,0,1.267-.787,3.647,3.647,0,0,0,.864-1.276v-21.141a2.4,2.4,0,0,0-.563-1.2,2.4,2.4,0,0,0-1.277-.751h-3.267Q-4359.33,1607.395-4359.312,1606.363Z" fill="#4892cf"/>
        <path id="Path_721" data-name="Path 721" d="M-4417.737,1613.722v-7.737h23.13l.338.791-17.648,26.734,11.94.037a5.248,5.248,0,0,0,2.591-1.126,5.264,5.264,0,0,0,1.577-2.178v-3.53h1.578v8.825h-24.444v-1.505l17.5-25.906h-11.64a5.8,5.8,0,0,0-1.765,1.164,5.82,5.82,0,0,0-1.389,2.1v2.4Z" fill="#4892cf"/>
        <path id="Path_722" data-name="Path 722" d="M-4323.172,1606.363l11.264-.9-.113,26.3a5.848,5.848,0,0,0,.789,1.013,5.8,5.8,0,0,0,1.126.9h3.1v1.747h-16.166v-1.807h4.336a2.464,2.464,0,0,0,1.089-.654,2.475,2.475,0,0,0,.657-1.333v-21.1a2.3,2.3,0,0,0-.563-1.52,2.4,2.4,0,0,0-1.971-.732h-3.6Z" fill="#4892cf"/>
        <path id="Path_723" data-name="Path 723" d="M-4315.742,1594.509a3.969,3.969,0,0,1,2.972.1c.89.41,1.07,1.762,1.032,2.614a3.788,3.788,0,0,1-1.522,2.825,4.674,4.674,0,0,1-3.1.756c-.6,0-1.229-.984-1.453-1.436a3.53,3.53,0,0,1-.323-2.176A3.57,3.57,0,0,1-4315.742,1594.509Z" fill="#4892cf"/>
        <path id="Path_724" data-name="Path 724" d="M-4330.752,1649.1l6.969-.558-.07,16.272a3.582,3.582,0,0,0,.488.628,3.619,3.619,0,0,0,.7.557h1.917v1.081h-10v-1.118h2.683a1.531,1.531,0,0,0,.674-.4,1.537,1.537,0,0,0,.406-.825V1651.68a1.423,1.423,0,0,0-.348-.941,1.493,1.493,0,0,0-1.22-.453h-2.23Z" fill="#4892cf"/>
        <path id="Path_725" data-name="Path 725" d="M-4326.155,1641.768a2.458,2.458,0,0,1,1.838.063c.551.253.663,1.09.639,1.617a2.342,2.342,0,0,1-.941,1.748,2.894,2.894,0,0,1-1.919.468c-.373,0-.76-.609-.9-.889a2.182,2.182,0,0,1-.2-1.346A2.209,2.209,0,0,1-4326.155,1641.768Z" fill="#4892cf"/>
        <path id="Path_726" data-name="Path 726" d="M-4275.881,1631.635c-.112-.383-.6-.547-.753-.606a1.676,1.676,0,0,0-1.047,0,2.767,2.767,0,0,1-1.577,1.582,2.7,2.7,0,0,1-1.653,0,2.016,2.016,0,0,1-1.129-.676,1.808,1.808,0,0,1-.3-1.277v-19.077a9.06,9.06,0,0,0-1.724-3.306,9.087,9.087,0,0,0-4.059-2.776h-6.906a17.118,17.118,0,0,0-2.929,1.5,9.908,9.908,0,0,0-3.983,3.906,5.378,5.378,0,0,0-.6,2.853,2.512,2.512,0,0,0,.83,1.953,2.1,2.1,0,0,0,1.953.153c.623-.265.929-.771,1.5-1.73a6.051,6.051,0,0,0,.747-1.576c.464-1.63-.294-2.43.229-3.377.288-.529.765-.729,1.724-1.129,1.176-.489,3.412-1.424,5.559-.377a5.334,5.334,0,0,1,1.876,1.577,5.357,5.357,0,0,1,.977,2.253v7.512c-1.294.329-2.953.741-4.883,1.2-2.282.547-3.488.812-5.253,1.353-2.494.764-3.759,1.159-4.659,2.029a6.791,6.791,0,0,0-1.876,3.977c.053,1.276.1,2.553.153,3.829a5.759,5.759,0,0,0,1.5,2.783,5.788,5.788,0,0,0,3.153,1.647l4.582-.071a10.371,10.371,0,0,0,2.553-.753,10.889,10.889,0,0,0,4.283-3.453,5.528,5.528,0,0,0,1.047,2.4,5.62,5.62,0,0,0,2.406,1.806h3.829a6.663,6.663,0,0,0,2.33-1.206,9.078,9.078,0,0,0,1.423-1.576C-4275.9,1632.158-4275.805,1631.876-4275.881,1631.635Zm-11.377-3.2a17.643,17.643,0,0,1-1.73,1.953,9.675,9.675,0,0,1-2.964,2.253,5.515,5.515,0,0,1-2.965.6,4.761,4.761,0,0,1-2.706-1.164,4.777,4.777,0,0,1-1.424-2.4,5.32,5.32,0,0,1,.336-3.53,5.922,5.922,0,0,1,2.664-2.553,19.838,19.838,0,0,1,8.789-2.365Z" fill="#4892cf"/>
        <path id="Path_727" data-name="Path 727" d="M-4376.115,1649l5.914-.77v14.4a3.615,3.615,0,0,0,.845,1.8,3.59,3.59,0,0,0,1.351.958h3.6a5.847,5.847,0,0,0,1.915-1.07,5.846,5.846,0,0,0,1.464-1.859v-10.93a1.335,1.335,0,0,0-.281-1.01,1.39,1.39,0,0,0-1.183-.451l-1.633-.112v-1.07l6.251-.658v16.259a1.388,1.388,0,0,0,.282.9,1.386,1.386,0,0,0,.845.507h1.014v1.353h-5.127v-2.705a8.386,8.386,0,0,1-1.463,1.521,8.382,8.382,0,0,1-2.253,1.3h-5.351a4.526,4.526,0,0,1-2.421-1.352,4.6,4.6,0,0,1-1.183-3.1v-11.49a1.436,1.436,0,0,0-.507-.845,1.458,1.458,0,0,0-1.126-.281h-1.084Z" fill="#4892cf"/>
        <path id="Path_728" data-name="Path 728" d="M-4353.9,1639.142l6.683-.826-.225,25.908a2.012,2.012,0,0,0,.45.976,2.058,2.058,0,0,0,1.2.676l1.427-.075.15,1.352h-9.162q-.113-.714-.225-1.427l1.727-.075a1.321,1.321,0,0,0,.9-.376,1.31,1.31,0,0,0,.376-.826v-23.355c-.3-.176-.625-.353-.976-.525-.285-.14-.561-.265-.826-.376l-1.5.15Z" fill="#4892cf"/>
        <path id="Path_729" data-name="Path 729" d="M-4379.175,1648.754q.019,2.854.038,5.707l-1.239-.037c.364.01-.572-2.459-.723-2.716a4.6,4.6,0,0,0-3.132-2.122c-2.481-.405-6.232,2.424-3.5,4.733,1.87,1.578,4.608,1.912,6.751,3a5.317,5.317,0,0,1,1.952,1.389,4.55,4.55,0,0,1,.864,1.8,6.011,6.011,0,0,1-.563,4.205,6.07,6.07,0,0,1-3.492,2.628,7.3,7.3,0,0,1-4.882-.037,7.175,7.175,0,0,1-2.553-1.652l-.188,1.614h-1.127v-6.872h1.02c.028,0-.031,1.671,0,1.82a3.954,3.954,0,0,0,.592,1.307,5.334,5.334,0,0,0,2.179,2.19,5.65,5.65,0,0,0,2.71.38,4.588,4.588,0,0,0,2.327-.62,2.729,2.729,0,0,0,1.18-1.958c.188-1.81-1.349-2.808-2.809-3.417l-4.022-1.679c-1.357-.566-2.832-1.242-3.444-2.58a5.668,5.668,0,0,1,1.059-5.655,5.918,5.918,0,0,1,3.23-1.615,6.724,6.724,0,0,1,4.881.226,5.418,5.418,0,0,1,1.577,1.239Z" fill="#4892cf"/>
        <path id="Path_730" data-name="Path 730" d="M-4338.173,1643.873a7.046,7.046,0,0,1-.826,2.741,7.232,7.232,0,0,1-3.191,3l-.038,1.2,1.915.15v13.48a3.017,3.017,0,0,0,.9,2.028,3.272,3.272,0,0,0,1.5.676,5.423,5.423,0,0,0,3.6-.151,5.14,5.14,0,0,0,2.628-2.778.909.909,0,0,0-.3-1.052c-.332-.143-.762.246-.864.338-.324.293-.3.515-.563.864a2.251,2.251,0,0,1-1.089.751,2.37,2.37,0,0,1-1.915-.3,2.3,2.3,0,0,1-.751-.9,2.632,2.632,0,0,1-.263-1.088c-.034-.9-.047-5.494,0-11.791h4.845v-1.8h-4.732v-5.367Z" fill="#4892cf"/>
        <path id="Path_731" data-name="Path 731" d="M-4279.864,1666.288a4.28,4.28,0,0,0-2.588-1.123q-3.829-.2-7.659-.394c-1.657.1-3.738-1.622-1.956-3.126a3.292,3.292,0,0,1,2.051-.651c.731-.021,1.462.079,2.192.053a6.453,6.453,0,0,0,5.361-3.355,6.437,6.437,0,0,0,.611-4.138,4.712,4.712,0,0,0-.763-2.016c-.541-.683-.645-.841.163-1.415.141-.1.759-.529,1.012-.335.164.118.017.359.17.618.247.411.953.4,1.13.394a1.949,1.949,0,0,0,1.576-.788,1.461,1.461,0,0,0,.224-1.242,1.518,1.518,0,0,0-.9-.788,2.987,2.987,0,0,0-2.759.247c-.671.45-.974,1.435-1.755,1.736-1,.387-1.864-.864-2.68-1.245-3.585-1.671-8.065.717-9.086,4.4a7.346,7.346,0,0,0-.216,3.533,4.015,4.015,0,0,0,2.05,2.779c.273.131,1.059.268,1.212.538.3.53-.819,1.117-1.132,1.37a4.565,4.565,0,0,0-1.476,1.8,2.986,2.986,0,0,0,1.222,3.545c1.354.8-.638.964-1.263,1.52a3.554,3.554,0,0,0-1.018,1.859,3.664,3.664,0,0,0,0,2.082,4.349,4.349,0,0,0,2.03,2.142,8.166,8.166,0,0,0,2.594,1.123h5.912c.329-.082.8-.206,1.353-.394,1.776-.606,3.571-1.218,4.729-2.818a4.641,4.641,0,0,0,1.012-3.206A4.421,4.421,0,0,0-4279.864,1666.288Zm-12.612-9.741a6.886,6.886,0,0,1-.059-3.947,4.2,4.2,0,0,1,1.183-2.135,3.7,3.7,0,0,1,2.706-.906,3.641,3.641,0,0,1,1.576.564,4.86,4.86,0,0,1,1.912,2.365,6.146,6.146,0,0,1-.053,4.565,4.21,4.21,0,0,1-1.465,2.141,3.78,3.78,0,0,1-2.817.559,3.776,3.776,0,0,1-1.859-1.012A4.539,4.539,0,0,1-4292.476,1656.547Zm9.781,16.083a6.33,6.33,0,0,1-.638.468c-2.726,1.772-6.974,2.122-9.537-.109-2.547-2.218-.778-5.811,2.462-5.559l5.722.445c1.95.152,4.128,1.786,2.734,3.933A3.793,3.793,0,0,1-4282.695,1672.63Z" fill="#4892cf"/>
      </g>
      <g id="Group_107" data-name="Group 107">
        <path id="Path_732" data-name="Path 732" d="M-4276.963,1319.145a11.707,11.707,0,0,0-11.706,11.712,11.707,11.707,0,0,0,11.706,11.707,11.708,11.708,0,0,0,11.707-11.707A11.708,11.708,0,0,0-4276.963,1319.145Zm0,22.9a11.181,11.181,0,0,1-11.182-11.183,11.18,11.18,0,0,1,11.182-11.182,11.181,11.181,0,0,1,11.183,11.182A11.182,11.182,0,0,1-4276.963,1342.04Z" fill="#4892cf"/>
        <path id="Path_733" data-name="Path 733" d="M-4275.458,1331.666a3.753,3.753,0,0,0,1.564-.5,3.644,3.644,0,0,0,1.5-1.695,3.2,3.2,0,0,0,.249-1.688,3.387,3.387,0,0,0-1-1.884,4.5,4.5,0,0,0-2.133-1.25l-7.08.314q.039,6.008.065,12.027h2.009v-5.268c1.021,0,2.041.007,3.069.007q1.718,2.66,3.442,5.326h2.2Q-4273.514,1334.359-4275.458,1331.666Zm-5.267-1.44q.039-1.944.065-3.887,2.446.039,4.888.066a4.475,4.475,0,0,1,.622.438c.465.386.89.739.942,1.25a1.646,1.646,0,0,1-.5,1.191,2.732,2.732,0,0,1-1.322.877Q-4278.373,1330.2-4280.725,1330.226Z" fill="#4892cf"/>
      </g>
    </g>
  </g>
</svg>
