<svg xmlns="http://www.w3.org/2000/svg" width="615.455" height="451.966" viewBox="0 0 615.455 451.966">
  <g id="Group_226" data-name="Group 226" transform="translate(8351.236 15997.896)">
    <g id="Group_125" data-name="Group 125" transform="translate(-9743.063 -17330.158)">
      <path id="Path_847" data-name="Path 847" d="M1391.826,1643.129c3.935-4.926,9.23-7.339,15.331-8.293,1.431-.223,2.7-.669,2.389-2.572-.521-3.184,1.794-2.387,3.534-2.554,2.64-.253,1.883,1.633,1.95,2.957.246,4.834.456,9.67.664,14.506.113,2.61,1.4,3.857,4.064,3.6.617-.06,1.246-.009,1.869-.009q167.231,0,334.461.095c3.827,0,5.122-.976,4.782-4.723-.269-2.96.1-5.974-.07-8.948-.134-2.308,1.146-2.275,2.781-2.257,1.7.019,3.223-.185,3.087,2.383-.164,3.1-.016,6.216.069,9.323.057,2.069.965,3.754,3.153,3.995,8.037.886,15.238-.888,21.438-7.181-5.061-1.81-9.76-3.429-14.68-1.716-2.369.825-2.392-.442-2.746-1.886-.409-1.666-1.236-3.4,1.4-4.089a22.02,22.02,0,0,1,12.489.432c5.445,1.715,10.848,3.684,16.71,3.382,1.094-.056,2.392.283,1.7,1.552-.773,1.409.857,4.5-2.207,4.2-4.585-.452-7.919,1.709-11.083,4.385a28.387,28.387,0,0,1-21.367,7.049c-4.175-.349-8.3-.124-12.447-.116q-169.474.327-338.949.172c-3.247,0-6.576.172-8.783-2.913-.619-.866-1.282-.4-1.97-.235-9.679,2.313-12.465,1.352-17.567-6.054Zm17.965,1.68c-.247-4.626-.274-4.767-1.954-4.457a21.5,21.5,0,0,0-8.678,3.2c-.783.549-1.717,1.041-1.29,2.363.685,2.125,4.653,3.72,8.145,3.2C1408.73,1648.72,1410.493,1647.574,1409.791,1644.809Z"/>
      <path id="Path_848" data-name="Path 848" d="M1391.826,1684.19c4.464-.971,6.9,1.057,8.882,5.007,3.157,6.284,6.935,12.257,10.759,18.9,4.28-7.367,8.56-14.116,12.164-21.207,1.749-3.442,4.263-2.7,6.828-2.631,1.566.041.959,1.494.961,2.34.039,12.44-.047,24.88.086,37.318.029,2.634-1.43,2.305-3.065,2.334-1.685.03-3.053.246-3.008-2.35.162-9.326.064-18.656.064-28.819-3.6,6.174-6.841,11.739-10.087,17.3-2.243,3.844-5.588,3.909-7.794.138-2.691-4.6-5.35-9.224-8.05-13.823-.46-.783-.679-2.276-1.959-1.7-1.119.507-.21,1.705-.2,2.624.126,8.325.142,16.652.239,24.978.017,1.414-.761,1.558-1.877,1.654-1.317.113-2.741-.524-3.946.485Z"/>
      <path id="Path_849" data-name="Path 849" d="M1813.194,1784.228c-1.325-2.327-.877-3.65,1.676-5.117,5.293-3.042,5.824-5.07,4.133-11.052-.361-1.278-1.338-2.612.835-3.24,2.241-.647,1.983,1.217,2.386,2.347,1.985,5.552,2.064,5.625,7.956,5.625q16.825,0,33.65,0c4.619,0,7.307-2.481,7.476-7.142.131-3.6.016-7.21.034-10.815.006-1.2-.312-2.558,1.716-2.555,2.223,0,1.457,1.6,1.487,2.637.088,3.1.032,6.206.032,9.531,1.417-.57,2.626-1.183,3.905-1.549,4.972-1.423,9.991,1.8,9.654,6.726-.254,3.719,1.578,3.331,4.182,3.045-.675-2.582-1.154-5.142.715-7.54,2.751-3.533,6.558-3.663,9.376-.167,2.3,2.853,2.32,6.172,2,9.56-.149,1.585-1.328,1.514-2.489,1.508-3.49-.017-6.979-.005-10.469-.005q-31.593,0-63.187-.028c-3.216-.008-6.15-.483-8.224,3.211-1.2,2.138-4.01,3.377-6.1,5.02Zm58.234-11.244c3.844-.364,7.155-.556,10.421-1.052,1.19-.18,3.1-.141,3.138-1.966.032-1.8-1.476-2.871-2.994-3.458a5.864,5.864,0,0,0-5.669.862A14.419,14.419,0,0,0,1871.428,1772.984Zm29.749-2.2c-.613-1.943-.72-4.615-3.554-4.8a2.783,2.783,0,0,0-2.7,2.993c.453,2.287,2.912,2.709,4.868,3.321C1900.81,1772.612,1901.486,1772.134,1901.177,1770.784Z"/>
      <path id="Path_850" data-name="Path 850" d="M1725.628,1784.228c-3.776-2.761-7.645-5.519-11.97-7.2-6.71-2.615-8.066-12.4-4.8-18.324,3.013-5.462,10.915-7.458,16.645-4.038,4.658,2.779,5.695,7.334,5.28,12.272-.371,4.422-2.079,8.165-6.631,9.912-.689.265-1.355.591-2.247.983,3.425,1.889,6.472,4.175,10.538,2.877a1,1,0,0,1,1.422.687c.486,1.2-.121,1.994-.755,2.835Zm1.541-18.611c-.018-5.681-3.257-9.227-8.369-9.163-5.289.067-8.076,3.115-8.121,8.882-.043,5.6,3.271,9.34,8.284,9.34C1724.558,1774.675,1727.189,1771.771,1727.169,1765.617Z"/>
      <path id="Path_851" data-name="Path 851" d="M1980.844,1784.228c-.924-1.989-.483-3.148,1.78-3.886a9.88,9.88,0,0,0,4.937-3.819c-.809-.812-1.714-.374-2.485-.526-2.327-.459-4.971-.747-5.612-3.483a7.147,7.147,0,0,1,3.131-7.777c2.406-1.693,4.7-1.119,6.634.98a10.392,10.392,0,0,1,.152,13.588c-1.756,2.125-4.357,3.08-6.292,4.923Zm5.216-11.769c1.117.013,2.419.748,2.277-1.015-.154-1.918-.875-3.873-2.9-4.156-1.79-.251-2.927,1.532-2.964,3.089C1982.411,1773.05,1984.919,1771.942,1986.06,1772.459Z"/>
      <path id="Path_852" data-name="Path 852" d="M1857.418,1643.37c-5.165-1.773-9.979-3.289-14.966-1.62-2.21.739-2.175-.331-2.481-1.791-.345-1.644-1.527-3.371,1.175-4.143a21.471,21.471,0,0,1,12.832.446c5.193,1.687,10.38,3.461,15.963,3.309,1.241-.034,2.955-.157,2.219,1.765-.54,1.412.765,4.21-2.405,4.038a11.885,11.885,0,0,0-6.488,1.212c-1.884,1.006-1.633,1.809-.077,2.846,1.867,1.245,3.946,1.326,6.08,1.341,9.827.07,9.827.081,9.827-9.575,0-7.711.085-15.424-.054-23.133-.04-2.216.716-2.694,2.763-2.632,1.961.059,3.18.034,3.136,2.693-.194,11.553.118,23.111-.642,34.658-.2,2.986-.928,4.471-4.393,4.116-3.95-.4-7.97-.082-11.957-.189-3.868-.1-7.4-1.153-9.842-4.41-.81-1.081-1.424-1.009-2.394-.286-6.051,4.509-13.058,5.095-20.255,4.787-5.446-.233-7.726-2.652-8.078-8.077-.643-9.929-.489-19.867-.586-29.8-.023-2.293.094-3.556,3.062-3.555,2.912,0,2.79,1.384,2.782,3.4-.041,8.954-.01,17.909.037,26.864.023,4.567.615,4.956,5.208,5.172C1845.354,1651.149,1851.82,1649.09,1857.418,1643.37Z"/>
      <path id="Path_853" data-name="Path 853" d="M1894.014,1715.886c0-1.865.02-3.731-.005-5.6-.032-2.289.907-5.061-3.349-4.638-1.841.182-.859-1.91-1.057-2.976-.246-1.321.24-2.286,1.784-2,2.664.5,2.752-1.042,2.652-3-.109-2.109-.08-4.229-.01-6.341a9.741,9.741,0,0,1,13.592-8.685c2.3.927.839,2.116.667,3.268-.193,1.3-.318,2.312-2.288,1.894-5.662-1.2-6.237-.669-6.491,4.962-.356,7.88-.346,7.646,7.5,7.98,3.7.158,4.876-.934,4.315-4.459a22.859,22.859,0,0,1-.027-4.47c.3-7.436,6.96-11.723,13.951-9.168,2.192.8,1.516,1.916,1.169,3.46-.389,1.727-.925,2.189-2.732,1.715-5.652-1.484-6.531-.744-6.626,5.074-.008.5,0,.995,0,1.493-.01,6.1-.011,6.164,6.12,6.213,1.911.016,2.962.219,2.941,2.568-.02,2.22-.831,2.643-2.854,2.661-6.208.053-6.207.138-6.207,6.492,0,3.731-.179,7.473.061,11.189.166,2.585-1.055,2.755-3.09,2.769-1.989.013-2.877-.382-2.8-2.641.175-4.968-.034-9.949.1-14.92.055-2.089-.222-3.01-2.74-3.015-9.077-.018-9.077-.137-9.077,9,0,3.109-.149,6.227.048,9.324.151,2.366-1.2,2.236-2.785,2.217-1.531-.017-2.982.251-2.8-2.167C1894.169,1721.37,1894.014,1718.622,1894.014,1715.886Z"/>
      <path id="Path_854" data-name="Path 854" d="M1888.642,1725.825c-6.051.907-6.051.907-7.894-4-2.374-6.322-2.374-6.322-9.231-6.322-.623,0-1.246-.008-1.869,0-3.232.048-7.146-.987-9.495.476-2.108,1.312-2.485,5.378-3.649,8.219-.69,1.686-4.921,2.955-6.288,1.894-.821-.637-.248-1.324,0-1.974,4.876-12.683,9.826-25.338,14.583-38.065,1.071-2.867,3.2-1.561,4.947-1.868,1.943-.342,3.078.285,3.845,2.331C1878.5,1699.58,1883.553,1712.585,1888.642,1725.825Zm-19.559-35.053c-2.651,7.023-4.952,13.117-7.4,19.594,4.559,0,8.752-.021,12.945.012,1.448.011,1.671-.54,1.182-1.813C1873.649,1702.94,1871.543,1697.293,1869.083,1690.772Z"/>
      <path id="Path_855" data-name="Path 855" d="M1798.179,1723.788c-3.275,1.729-6.641,2.823-10.322,1.914-6.112-1.509-8.892-6.29-8.306-14.242.461-6.254,4.839-11.028,10.611-11.57,9.48-.891,13.992,3.171,14.055,12.709.032,4.968.14,9.943-.066,14.9-.2,4.762-2.179,8.727-6.754,10.726a16.99,16.99,0,0,1-14.757-.561c-2.376-1.17-.279-3.1-.011-4.592.38-2.118,1.629-.55,2.492-.272a27.12,27.12,0,0,0,3.825,1.352C1796.142,1735.3,1798.813,1732.331,1798.179,1723.788Zm.228-9.771c-.051-6.7-1.606-8.968-6.167-8.972-4.855-.005-6.9,2.368-6.917,8.011-.012,4.967,2.533,7.8,6.976,7.762C1796.649,1720.783,1798.443,1718.784,1798.407,1714.017Z"/>
      <path id="Path_856" data-name="Path 856" d="M1573,1723.634c-1.8.76-3.116,1.447-4.508,1.875-6.568,2.017-12.285-1.736-12.664-8.524-.262-4.7.061-9.44-.1-14.154-.081-2.366,1.263-2.177,2.83-2.2,1.747-.027,3.155-.092,3.042,2.419-.178,3.966-.113,7.948-.023,11.921.09,4.006,1.837,5.893,5.171,5.835,3.937-.068,6.18-2.242,6.186-6.01.006-3.975.089-7.952-.037-11.922-.059-1.835.6-2.54,2.338-2.205,1.344.258,3.549-1.027,3.527,1.847-.062,8.192.382,16.426-.312,24.564-.928,10.878-10.528,15.731-20.582,11.082-1.695-.783-2.119-1.466-1.489-3.326.753-2.221,1.262-3.464,3.815-1.7a8.98,8.98,0,0,0,5.373,1.149c4.824-.127,6.388-1.382,7.136-6.2C1572.909,1726.747,1572.89,1725.379,1573,1723.634Z"/>
      <path id="Path_857" data-name="Path 857" d="M1661.44,1705.077c0-5.97.075-11.942-.041-17.91-.041-2.091.225-3.116,2.761-3.051,7.228.186,14.466.157,21.695.01,2.223-.045,2.616.725,2.667,2.74.056,2.238-.779,2.654-2.8,2.6-5.109-.132-10.228.061-15.336-.092-2.185-.066-3.13.362-2.956,2.8a86.431,86.431,0,0,1,.02,9.7c-.078,1.9.44,2.588,2.466,2.518,4.483-.157,8.981.07,13.463-.1,2.173-.082,2.637.641,2.67,2.7.037,2.258-.844,2.634-2.821,2.579-4.486-.125-8.98.04-13.466-.077-1.808-.047-2.364.521-2.312,2.313.118,4.1-.1,8.215.087,12.311.112,2.47-1.377,2.192-2.862,2.108-1.454-.081-3.339.7-3.279-2.113C1661.532,1717.767,1661.44,1711.421,1661.44,1705.077Z"/>
      <path id="Path_858" data-name="Path 858" d="M1986.243,1666.4c4.922-2.223,10.106-4.106,13.61-9.189-2.908-.5-5.55-.789-8.107-1.422-6.029-1.493-8.106-5.248-6.343-11.137,1.528-5.106,5.961-9.62,9.923-9.44,5.286.241,8.037,4,9.943,8.38,3.1,7.129,1.647,14.242-3.786,19.859a30.4,30.4,0,0,1-7.785,5.69C1988.843,1671.7,1988.824,1671.669,1986.243,1666.4Zm11.09-15.808c4.392.339,4.449.23,3.063-4.084a9.476,9.476,0,0,0-2.368-4.1,3.36,3.36,0,0,0-4.949-.175c-1.834,1.49-3.13,3.584-2.812,5.743.341,2.3,3.047,2.037,4.855,2.579A7.992,7.992,0,0,0,1997.333,1650.594Z"/>
      <path id="Path_859" data-name="Path 859" d="M1754.926,1715.787c-2.367,0-4.734-.013-7.1.01-.712.006-1.642-.267-2.008.535a2.424,2.424,0,0,0,.582,2.4c2.026,2.939,6.871,3.844,11.621,2.339,1.221-.387,2.835-2.561,3.905.7.918,2.8-.341,3.511-2.459,4.206a22.2,22.2,0,0,1-11.424.554c-4.874-.976-7.884-4.735-8.18-9.766a45.4,45.4,0,0,1-.012-4.84c.368-7.618,6.641-12.769,14.519-11.961,7.035.721,11.2,6.589,10.235,14.208-.168,1.331-.64,1.651-1.828,1.63C1760.16,1715.753,1757.543,1715.785,1754.926,1715.787Zm-2.733-4.924c1.364,0,2.732.055,4.092-.021.793-.044,1.876.463,2.294-.606.394-1.008-.171-1.879-.817-2.685-2.494-3.114-8.351-3.328-10.963-.347-.743.848-1.423,1.9-.972,3.018.481,1.189,1.738.543,2.647.617C1749.706,1710.939,1750.953,1710.863,1752.193,1710.863Z"/>
      <path id="Path_860" data-name="Path 860" d="M1949.985,1716.611c0,2.112.1,4.23-.043,6.331-.075,1.086.865,2.779-.918,3.138-1.324.266-3.129.888-4.074-.635s-1.639-.458-2.358-.052a13.078,13.078,0,0,1-7.185,1.468c-5.526-.234-7.849-2.481-7.945-7.648-.09-4.876,2.522-7.67,7.711-8.081,1.981-.157,3.995.068,5.969-.13,1.028-.1,2.723,1.033,3.021-.968a3.691,3.691,0,0,0-2.264-4.244c-2.953-1.34-5.972-.835-8.726.192-2.411.9-2.652-.387-3.19-1.955-.559-1.633-.229-2.539,1.637-2.819,1.954-.293,3.855-1,5.813-1.2,8.58-.861,12.546,2.786,12.552,11.387Q1949.986,1714,1949.985,1716.611Zm-11.522-.863c-.234.015-1.585.1-2.934.193-1.548.11-2.565.776-2.59,2.481a2.759,2.759,0,0,0,2.148,3.042,10.322,10.322,0,0,0,8.139-1.411c1.337-.864,1.1-2.141.954-3.307-.183-1.486-1.5-.888-2.378-.982C1941.07,1715.685,1940.323,1715.748,1938.463,1715.748Z"/>
      <path id="Path_861" data-name="Path 861" d="M1596.887,1713.584c0-8.287,5.06-13.669,12.847-13.673,8.088-.005,12.79,4.941,12.846,13.513.054,8.258-4.96,13.53-12.9,13.561C1601.438,1727.017,1596.885,1722.248,1596.887,1713.584Zm19.727.917c.29-5.455-2.323-9.12-6.7-9.391s-6.836,1.9-7.071,6.236c-.355,6.56,1.759,10,6.322,10.29C1614.489,1721.972,1616.309,1720.228,1616.614,1714.5Z"/>
      <path id="Path_862" data-name="Path 862" d="M1703.463,1726.985c-8.228.028-12.865-4.81-12.839-13.4.025-8.255,5.119-13.661,12.889-13.679,8-.018,12.982,5.169,12.958,13.5C1716.448,1721.6,1711.312,1726.959,1703.463,1726.985Zm-7.018-13.762c.033,5.348,2.721,8.481,7.243,8.441,5.06-.045,7.082-2.34,6.961-7.9-.111-5.069-3.153-8.647-7.362-8.658C1698.507,1705.091,1696.409,1707.581,1696.445,1713.223Z"/>
      <path id="Path_863" data-name="Path 863" d="M1950.8,1776.027c-6.479,0-12.965-.192-19.434.069-4.225.171-8.07-1.977-12.459-1.235-2.415.408-4.682-1.788-5.264-4.465-.619-2.852,1.547-4.252,3.693-5.359a23.875,23.875,0,0,1,4.183-1.533c.915-.271,1.981-.07,1.912-1.617-.063-1.426,1.11-1.387,2.139-1.361,1.533.038,1.3,1.171,1.339,2.139.009.248,0,.5,0,.745,0,11.074-.389,9.283,9.428,9.358,11.088.084,22.18-.114,33.264.1,3.2.062,3.986-.87,3.82-3.916-.256-4.707-.043-9.44-.02-14.162.005-1.217-.282-2.6,1.737-2.5,1.8.091,1.45,1.385,1.441,2.43-.053,6.209-.209,12.417-.187,18.626.007,2.076-.676,2.755-2.793,2.723C1966,1775.957,1958.4,1776.027,1950.8,1776.027Zm-30.526-4.343c2.378-.031,3.67-.594,3.5-2.8-.089-1.159.01-2.384-1.731-2.007-1.894.41-4.484.534-4.816,2.646C1916.949,1771.3,1919.177,1771.617,1920.277,1771.684Z"/>
      <path id="Path_864" data-name="Path 864" d="M1450.237,1713.284c0-3.353-.043-6.706.028-10.057.02-.965-.61-2.582,1.22-2.508,1.316.053,3.245-1.015,3.871.912.536,1.65.957,1.216,1.956.523,6.5-4.509,16.3-1.862,15.952,9.486-.122,3.97-.193,7.957.042,11.916.155,2.6-1.1,2.729-3.106,2.75-1.979.022-2.91-.36-2.8-2.629.189-3.964.105-7.945.037-11.918-.071-4.159-1.988-6.482-5.122-6.4a6.373,6.373,0,0,0-6.281,6.616c-.007,3.6-.1,7.206.036,10.8.09,2.282-.07,3.607-3.048,3.592-2.854-.014-2.867-1.357-2.808-3.4C1450.306,1719.743,1450.237,1716.513,1450.237,1713.284Z"/>
      <path id="Path_865" data-name="Path 865" d="M1996.64,1727.01a24.745,24.745,0,0,1-7.921-1.12c-2.1-.717-2.839-1.647-1.989-4.072.789-2.25,1.21-2.556,3.4-1.352a13.4,13.4,0,0,0,9.4,1.219,2.336,2.336,0,0,0,2.1-2.178c.149-1.219-.82-1.777-1.787-2.06-2.372-.694-4.785-1.247-7.166-1.911-3.481-.971-6.167-2.64-6.1-6.83.064-4.071,1.953-6.807,6.073-7.838a19.24,19.24,0,0,1,10.664.391c2.348.748,3.1,1.857,2.2,4.321-.756,2.069-1.466,2.24-3.333,1.169a10.865,10.865,0,0,0-7.554-1.336,2.654,2.654,0,0,0-2.423,2.424c-.108,1.384,1.117,1.882,2.168,2.189,2.139.625,4.341,1.031,6.49,1.622,4.892,1.343,6.408,3,6.425,6.871.017,4.066-2.181,6.927-6.415,8A25.194,25.194,0,0,1,1996.64,1727.01Z"/>
      <path id="Path_866" data-name="Path 866" d="M1507.192,1707.81c-2.6-1.493-5.345-2.67-8.4-2.515-1.558.079-3.469.13-3.659,2.335-.178,2.057,1.625,2.266,3,2.646,2.27.626,4.633.942,6.872,1.654,2.593.823,4.731,2.285,5.053,5.33.352,3.323-.349,6.327-3.53,7.965-5.33,2.746-10.817,2.348-16.179.038-2.915-1.255-.571-3.3-.216-4.753.567-2.32,1.855-.323,2.739.026a15.914,15.914,0,0,0,9.453,1.138,2.233,2.233,0,0,0,2.025-2.261c.069-1.266-.845-1.76-1.8-2.039-2.258-.663-4.56-1.174-6.827-1.806-4.716-1.313-6.668-3.567-6.434-7.356.249-4.034,2.966-6.826,7.393-7.6a21.738,21.738,0,0,1,6.693-.013C1509.062,1701.362,1509.584,1702.309,1507.192,1707.81Z"/>
      <path id="Path_867" data-name="Path 867" d="M1629.823,1715.92c0-1.988-.026-3.977.007-5.965.038-2.311.6-4.737-3.32-4.271-2,.237-.972-1.824-1.139-2.855-.178-1.092-.214-2.458,1.558-2.142,3.121.556,3.029-1.345,2.916-3.48-.1-1.983,0-3.977-.026-5.965-.1-6.831,6.74-11.209,14.354-8.353,2.184.818.635,2.272.5,3.4-.16,1.357-.747,2.012-2.485,1.58-6.076-1.511-6.873-.79-6.893,5.534,0,.373,0,.746,0,1.119,0,6.035,0,6.095,5.92,6.1,1.842,0,2.892.07,2.938,2.468.049,2.532-.967,2.758-3.054,2.74-5.8-.05-5.8.037-5.8,5.838,0,3.977-.118,7.959.046,11.929.09,2.16-.669,2.723-2.738,2.688-1.9-.032-3.022-.2-2.831-2.545C1629.985,1721.153,1629.823,1718.53,1629.823,1715.92Z"/>
      <path id="Path_868" data-name="Path 868" d="M1809.971,1713.484c0-3.356-.054-6.713.033-10.066.025-.959-.682-2.565,1.044-2.659,1.338-.073,3.288-.986,3.976.881.761,2.067,1.462.75,2.289.279,8-4.555,15.3-.413,15.342,8.708.02,4.474-.158,8.957.067,13.419.124,2.458-1.243,2.177-2.773,2.2-1.566.019-2.914.178-2.813-2.192.173-4.094.165-8.206-.01-12.3-.1-2.325-.383-4.826-3-5.938-2.8-1.191-5.021.179-7.186,1.784a3.826,3.826,0,0,0-1.525,3.533c.084,4.224-.073,8.454.075,12.675.07,1.986-.568,2.614-2.513,2.461-1.627-.127-3.214.281-3.057-2.345C1810.127,1720.453,1809.971,1716.964,1809.971,1713.484Z"/>
      <path id="Path_869" data-name="Path 869" d="M1935.218,1646.319c.077,4.764-1.513,8.045-5.576,9.694-4.548,1.847-9.083,1.771-12.942-1.509-3.3-2.805-3.593-6.653-2.266-10.549,1.126-3.3,3.982-6,3.247-10-.138-.752.095-2.7,2.159-2.106,5.825,1.66,11.35,3.786,14.3,9.614A7.993,7.993,0,0,1,1935.218,1646.319Zm-10.379,5.009c2.805-.092,5.538-2.065,5.528-3.989-.013-2.576-3.995-7.511-6-7.441-1.624.056-5.829,5.364-5.787,7.305C1918.621,1649.322,1921.819,1651.427,1924.839,1651.328Z"/>
      <path id="Path_870" data-name="Path 870" d="M1516.855,1712.847c0-1.366-.089-2.739.021-4.1.162-1.991-.033-3.4-2.667-2.991-1.982.308-1.724-1.29-1.7-2.5.021-1.166-.373-2.86,1.632-2.559,2.991.448,2.846-1.348,2.725-3.308-.054-.866.081-1.749-.027-2.6-.273-2.173.379-3.075,2.813-3.052,2.384.022,3.547.584,3.117,3.106a4.4,4.4,0,0,0-.005.744c.017,5.011.017,5.033,5.031,5.054,1.774.008,3.426-.324,3.29,2.516-.1,2.112-.684,2.687-2.769,2.7-5.553.019-5.552.121-5.552,5.613v2.98c0,6.619-.006,6.749,6.592,7.038,2.565.113,1.607,2.1,2.126,3.189.714,1.5-.745,1.78-1.837,2.041-8.072,1.929-12.622-1.547-12.784-9.769C1516.832,1715.579,1516.855,1714.213,1516.855,1712.847Z"/>
      <path id="Path_871" data-name="Path 871" d="M1891.065,1636.215c0-6.082.116-12.167-.058-18.244-.068-2.352.937-2.63,2.848-2.518,1.646.095,3.087-.257,3.06,2.351q-.194,18.245.006,36.491c.034,2.782-1.479,2.439-3.268,2.573-2.221.166-2.674-.753-2.632-2.78C1891.144,1648.132,1891.065,1642.173,1891.065,1636.215Z"/>
      <path id="Path_872" data-name="Path 872" d="M1952.276,1649.464a18.332,18.332,0,0,1-4.9,12.109,44.327,44.327,0,0,1-9.317,7.372c-2.262,1.465-3.484,1.3-4.936-1.122-1.2-2-.65-2.723,1.085-3.578a30.727,30.727,0,0,0,8.635-6.4c3.247-3.39,4.788-7.156,2.942-11.824-.634-1.6-.886-3.365-1.591-4.929-.926-2.056-.813-3.122,1.644-4.028,2.425-.893,3.243-.347,3.949,1.938A55.655,55.655,0,0,1,1952.276,1649.464Z"/>
      <path id="Path_873" data-name="Path 873" d="M1980.682,1649.658a19.463,19.463,0,0,1-6.342,13.418,49.791,49.791,0,0,1-8.391,6.156c-1.85,1.161-2.919.99-4.146-1s-1.5-3.016.992-4.128a26.828,26.828,0,0,0,8.6-6.436c3.1-3.323,4.583-6.993,2.82-11.517-.626-1.606-.873-3.37-1.58-4.933-1-2.208-.841-3.255,1.807-4.234,2.8-1.036,3.09.33,3.763,2.237A49.729,49.729,0,0,1,1980.682,1649.658Z"/>
      <path id="Path_874" data-name="Path 874" d="M1821.657,1650.093a16.006,16.006,0,0,1-4.046,10.657c-2.781,3.414-6.379,5.814-10.016,8.218-2.329,1.54-3.6,1.18-4.915-1.229-.884-1.618-1.175-2.407.81-3.323a30.083,30.083,0,0,0,5.626-3.58c7.52-5.8,8.573-9.475,4.768-19.331-1.275-3.3.1-3.961,2.631-4.8,1.544-.51,2.052.123,2.447,1.29C1820.27,1641.86,1821.7,1645.7,1821.657,1650.093Z"/>
      <path id="Path_875" data-name="Path 875" d="M1591.348,1772.436a16.064,16.064,0,0,0,10.072,2.139,3.394,3.394,0,0,0,3.395-3.281c.194-1.982-1.189-2.928-2.829-3.4-2.263-.646-4.615-.991-6.86-1.687-2.356-.73-4.28-2.005-4.458-4.852-.183-2.944.526-5.448,3.3-6.94,3.939-2.117,7.9-1.688,11.84.039,1.462.64,1.566,1.556.953,2.978-.736,1.706-1.571.573-2.292.224a14.216,14.216,0,0,0-6.528-1.215c-2.252.022-3.591,1.087-3.866,3.184-.286,2.191,1.449,3.005,3.156,3.509,2.137.631,4.344,1.023,6.5,1.59,2.62.689,4.439,2.123,4.636,5.078.2,3-.745,5.435-3.5,6.83-4.428,2.239-8.912,1.8-13.291-.174C1589.169,1775.38,1590.685,1773.9,1591.348,1772.436Z"/>
      <path id="Path_876" data-name="Path 876" d="M1967.367,1713.152c0-3.232-.069-6.466.043-9.694.032-.935-.8-2.55.923-2.7,1.343-.115,3.428-.931,3.991.773.7,2.109,1.369.988,2.186.415a8.758,8.758,0,0,1,5.678-1.345c4.333.2,5.009,1.247,3.358,5.2-.476,1.141-.709,1.66-2.334,1.066-5.614-2.054-8.367.076-8.368,6.093,0,3.356-.093,6.716.033,10.067.081,2.142-.1,3.338-2.88,3.315-2.633-.021-2.731-1.145-2.662-3.128C1967.451,1719.867,1967.367,1716.508,1967.367,1713.152Z"/>
      <path id="Path_877" data-name="Path 877" d="M1721.132,1713.161c0-3.354-.045-6.709.032-10.062.019-.84-.631-2.292.914-2.348,1.359-.048,3.427-.927,3.987.777.7,2.126,1.437.951,2.2.41a8.672,8.672,0,0,1,5.686-1.332c4.225.179,4.928,1.314,3.314,5.227-.483,1.169-.714,1.618-2.306,1.026-5.586-2.079-8.345.063-8.346,6.113,0,3.354-.093,6.712.033,10.062.081,2.141-.122,3.248-2.874,3.325-3.181.089-2.645-1.684-2.639-3.508C1721.139,1719.621,1721.132,1716.391,1721.132,1713.161Z"/>
      <path id="Path_878" data-name="Path 878" d="M1957.412,1636.043c0-5.827.1-11.656-.051-17.478-.062-2.317.439-3.1,2.981-3.182,2.919-.1,2.8,1.339,2.793,3.349-.048,11.653-.076,23.306.022,34.958.019,2.274-.394,3.154-2.977,3.223-2.927.078-2.812-1.388-2.791-3.392C1957.452,1647.7,1957.412,1641.869,1957.412,1636.043Z"/>
      <path id="Path_879" data-name="Path 879" d="M1535.3,1713.341c0-3.348-.035-6.7.023-10.044.016-.9-.5-2.323.8-2.5,1.35-.183,3.269-.926,4.08.625.764,1.464,1.211,1.384,2.295.54a8.171,8.171,0,0,1,5.661-1.357c4.336.191,4.871,1.1,3.3,5.145-.483,1.243-.6,1.707-2.221,1.139-5.678-1.991-8.467.077-8.467,5.942,0,3.6-.125,7.2.046,10.786.1,2.13-.579,2.762-2.691,2.672-1.847-.078-3.032-.126-2.884-2.534C1535.453,1720.3,1535.3,1716.814,1535.3,1713.341Z"/>
      <path id="Path_880" data-name="Path 880" d="M1438.4,1713.337c0-3.467.132-6.941-.042-10.4-.133-2.632,1.513-2.292,3.136-2.291,1.506,0,2.86-.3,2.8,2.153q-.266,10.581,0,21.173c.069,2.661-1.462,2.207-3.049,2.294-1.869.1-3.035-.148-2.9-2.53C1438.549,1720.281,1438.4,1716.8,1438.4,1713.337Z"/>
      <path id="Path_881" data-name="Path 881" d="M1769.08,1713.675c0-3.6.126-7.2-.046-10.784-.109-2.282,1.123-2.369,2.765-2.238,1.475.118,3.285-.645,3.229,2.147q-.211,10.6,0,21.2c.046,2.3-1.147,2.358-2.77,2.239-1.474-.109-3.358.634-3.222-2.15C1769.208,1720.624,1769.08,1717.146,1769.08,1713.675Z"/>
      <path id="Path_882" data-name="Path 882" d="M1484.589,1713.6c0,3.471-.134,6.95.046,10.412.121,2.324-1.186,2.32-2.786,2.22-1.49-.093-3.265.595-3.209-2.169q.214-10.6,0-21.2c-.044-2.3,1.17-2.327,2.788-2.218,1.494.1,3.341-.608,3.2,2.169C1484.455,1706.408,1484.588,1710.01,1484.589,1713.6Z"/>
      <path id="Path_883" data-name="Path 883" d="M1955.44,1713.391c0-3.472.151-6.952-.05-10.411-.15-2.594,1.392-2.3,3.053-2.351,1.8-.053,3.013,0,2.955,2.455q-.244,10.408,0,20.826c.063,2.607-1.408,2.3-3.061,2.351-1.789.053-3.1.009-2.951-2.459C1955.595,1720.343,1955.44,1716.862,1955.44,1713.391Z"/>
      <path id="Path_884" data-name="Path 884" d="M1631.5,1768.72c-1.156-3.588-3.394-3.351-5.643-2.889-1.062.218-2.127,1.062-2.675-.685-.614-1.959,1.013-1.98,2.056-2.277,5.936-1.689,9.231.688,9.338,6.645.139,7.777.139,7.787-7.4,8.278-2.918.19-5.221-.551-5.533-3.974-.3-3.354,1.731-4.7,4.64-5.064A46.027,46.027,0,0,1,1631.5,1768.72Zm-2.756,2.787c-1.222.4-3.191-.846-3.512,1.483-.217,1.578,1.031,1.74,2.191,1.677,1.573-.087,3.529-.05,3.763-2.047C1631.4,1770.768,1629.588,1771.925,1628.743,1771.507Z"/>
      <path id="Path_885" data-name="Path 885" d="M1648.519,1770.487c.022-4.9,2.495-7.746,6.875-7.92,4.446-.176,6.907,2.1,7.3,6.575.147,1.672-.144,2.572-2.1,2.445a58.463,58.463,0,0,0-6.337,0c-.723.031-1.927-.61-2.079.75-.107.965.738,1.567,1.528,1.915a7.2,7.2,0,0,0,5.111.1c1.055-.328,1.83-.829,2.311.6a1.639,1.639,0,0,1-1.182,2.3C1654.332,1779.264,1647.608,1777.242,1648.519,1770.487Zm11.028-1.877c-1.8-3.038-3.581-3.6-6.02-2.489-.9.409-1.568.907-1.313,1.9s1.232.54,1.886.569C1655.681,1768.657,1657.267,1768.61,1659.547,1768.61Z"/>
      <path id="Path_886" data-name="Path 886" d="M1745.674,1772.334c0,1.241.011,2.482,0,3.723-.01.843-.425,1.677-1.283,1.368-2.492-.9-4.765.545-7.164.438-2.728-.121-4.5-1.245-4.707-4.166s1.462-4.34,4.062-4.865c1.081-.217,2.235-.042,3.344-.156.752-.077,1.91.507,2.076-.839.126-1.018-.725-1.6-1.491-1.934a4.972,4.972,0,0,0-4,.063c-1.337.577-2.12.237-2.53-1.124-.467-1.55.791-1.624,1.677-1.806,5.766-1.18,9.89-.835,10.025,6.692.016.869,0,1.738,0,2.606Zm-7.088,2.353c1.359-.282,3.336-.065,3.419-2.005.091-2.15-1.853-.967-2.829-1.051-1.173-.1-3.007-.738-3.06,1.521C1736.076,1774.863,1737.479,1774.556,1738.586,1774.687Z"/>
      <path id="Path_887" data-name="Path 887" d="M1772.632,1772.085c0,.993-.078,1.993.016,2.976.19,1.975-.706,3.089-2.531,2.261-1.794-.813-3.054.407-4.574.509-3.654.245-5.742-.983-6.076-3.9-.352-3.08,1.589-4.989,5.323-5.227a4.854,4.854,0,0,0,1.114-.022c1.029-.331,2.961.938,2.977-.984.015-1.755-1.757-2.142-3.368-2.1a1.492,1.492,0,0,1-.372,0c-1.4-.335-3.87,2.242-4.065-.892-.152-2.451,2.592-1.987,4.254-2.092C1771.312,1762.232,1772.632,1764,1772.632,1772.085Zm-7.16,2.6c1.448-.125,3.226-.141,3.481-1.947.278-1.973-1.552-1.144-2.387-1.1-1.262.062-3.286-.995-3.487,1.448C1762.945,1774.7,1764.329,1774.6,1765.472,1774.68Z"/>
      <path id="Path_888" data-name="Path 888" d="M1686.675,1770.3c-.083,4.654-3.325,7.929-7.7,7.778-4.354-.15-7.156-3.276-7.074-7.893.084-4.8,3.02-7.717,7.678-7.622C1684.062,1762.653,1686.759,1765.593,1686.675,1770.3Zm-3.6.884c.008-3.4-1.02-5.539-4.142-5.542-2.582,0-3.583,1.74-3.494,4.214.1,2.759.88,4.848,4.2,4.828C1682.429,1774.667,1683.269,1773.084,1683.073,1771.183Z"/>
      <path id="Path_889" data-name="Path 889" d="M1696.366,1752.3c.877.643,2.939-.225,2.969,1.8.029,1.957-1.412,1.92-2.9,1.636-2.122-.406-2.791.861-2.328,2.57.446,1.644-1.856,4.567,2.05,4.763,1.089.054,2.632-.6,2.578,1.57-.055,2.135-1.6,1.548-2.67,1.487-1.723-.1-2.106.657-2.042,2.193.1,2.352,0,4.713.034,7.07.018,1.267-.2,2.108-1.8,2.135s-1.829-.782-1.8-2.069c.049-1.983.1-3.975-.02-5.952-.086-1.361.954-3.3-1.864-3.533-.9-.073-.935-2.356-.324-2.475,3.606-.7,2-3.409,2.168-5.276C1690.748,1754.506,1692.807,1752.242,1696.366,1752.3Z"/>
      <path id="Path_890" data-name="Path 890" d="M1644.252,1778.106c-3.381-.045-4.949-2.044-5.51-5.536-.367-2.288,2.072-5.549-2-6.843-.475-.151,2.775-7.571,3.412-7.647,1.446-.172,2.434.127,2.269,1.938-.147,1.624-.343,3.36,2.291,3.068,1.02-.113,2.331-.364,2.322,1.475-.009,1.735-1.175,1.722-2.287,1.577-2.147-.281-2.7.868-2.309,2.588.456,2.03-1.6,5.056,2.011,5.863,1.3.29,2.956-.229,2.746,1.865C1647.006,1778.371,1645.185,1777.711,1644.252,1778.106Z"/>
      <path id="Path_891" data-name="Path 891" d="M1617.436,1778.1c-3.546.064-5.23-1.92-5.609-5.694-.235-2.331,1.686-5.475-2.084-6.762,1.073-2.518,1.846-5.243,3.373-7.448.57-.823,2.652-.113,2.341,1.938-.331,2.187.385,3.3,2.793,2.944,1.111-.165,1.9.156,1.845,1.587-.052,1.471-.991,1.641-2.011,1.473-2.661-.437-2.99,1.162-2.577,3.047.427,1.943-1.7,5.2,2.376,5.417,1.511.079,2.509.3,2.3,1.953C1619.961,1778.288,1618.334,1777.761,1617.436,1778.1Z"/>
      <path id="Path_892" data-name="Path 892" d="M1755.446,1778.1c-3.733.008-5.367-1.928-5.772-5.772-.248-2.358,1.583-5.475-2.13-6.855-.219-.081-.2-1.643-.076-1.675,2.87-.733,2.021-3.077,2.36-4.976.2-1.13,1.412-.679,2.22-.741.973-.075,1.324.5,1.24,1.371-.225,2.339-.066,4.269,3.18,3.628,1.212-.24,1.371.618,1.383,1.607.013,1.15-.552,1.645-1.589,1.452-2.978-.554-3.29,1.151-2.957,3.392.315,2.122-1.333,5.525,3.116,5.062,1.52-.158,1.773,1.015,1.754,1.811C1758.125,1778.5,1756,1777.332,1755.446,1778.1Z"/>
      <path id="Path_893" data-name="Path 893" d="M1406.35,1622.329c-1.28,2.02-2.394,4.2-5.212,3.252a3.5,3.5,0,0,1-2.613-3.625,3.362,3.362,0,0,1,2.306-3.424c2.848-1,4.344.749,5.476,3.373.923-2.538,2.141-4.072,4.746-3.535a3.468,3.468,0,0,1,2.962,3.711,3.623,3.623,0,0,1-2.808,3.523C1408.467,1626.359,1407.326,1624.5,1406.35,1622.329Z"/>
      <path id="Path_894" data-name="Path 894" d="M1999.937,1776.035c-1.245,0-2.49-.008-3.735,0-1.28.01-2.484.12-2.5-1.806-.025-2.328,1.582-1.767,2.832-1.752,1.61.019,3.218.192,4.827.293,2.124.133,2.261-.8,1.487-2.5a10.079,10.079,0,0,0-3.738-4.525c-1.549-.968-1.172-1.888-.436-3.07.962-1.545,1.753-.165,2.4.212,3.478,2.028,5.165,5.334,5.715,9.13.337,2.326-.58,4.166-3.486,4.021C2002.181,1775.989,2001.058,1776.035,1999.937,1776.035Z"/>
      <path id="Path_895" data-name="Path 895" d="M1775.528,1770.127c0-.123,0-.247,0-.37,0-6.964.56-7.541,7.357-6.944.995.087,2.81-.084,2.427,1.9-.266,1.374-.773,2.171-2.7,1.666-2.493-.654-3.966.682-3.847,3.457.084,1.971-.024,3.95.028,5.923.032,1.183-.258,1.771-1.631,1.753-1.389-.017-1.657-.682-1.639-1.827C1775.551,1773.83,1775.53,1771.978,1775.528,1770.127Z"/>
      <path id="Path_896" data-name="Path 896" d="M1804.306,1769.841c-1.974,1.863-3.71,3.568-5.538,5.17-.35.307-5.067-4.2-5.16-4.892-.11-.82,4.514-5.809,5.047-5.387C1800.557,1766.238,1802.278,1767.973,1804.306,1769.841Z" fill="#891739"/>
      <path id="Path_897" data-name="Path 897" d="M1764.558,1666.238c-1.315-.289-1.122.993-1.59,1.559-1.65,2-3.661,2.171-5.48.613-1.894-1.621-1.786-3.779-.021-5.489,1.853-1.8,3.749-1.431,5.428.482.481.549.351,1.86,1.675,1.452Q1764.564,1665.547,1764.558,1666.238Z"/>
      <path id="Path_898" data-name="Path 898" d="M1923.2,1623.769c1.626.68,1.326-1.015,1.886-1.59,1.667-1.712,3.468-2.012,5.22-.412a3.482,3.482,0,0,1,.352,5.275c-1.685,1.859-3.646,1.735-5.533.041-.578-.52-.467-2.138-1.958-1.322Z"/>
      <path id="Path_899" data-name="Path 899" d="M1481.177,1687.865c2.515.338,4.152,1.318,4.121,3.707-.029,2.211-1.2,3.739-3.6,3.8-2.369.057-3.649-1.269-3.777-3.577C1477.784,1689.347,1479.446,1688.439,1481.177,1687.865Z"/>
      <path id="Path_900" data-name="Path 900" d="M1775.777,1691.515c-.137,2.443-1.328,3.845-3.721,3.846s-3.674-1.451-3.7-3.769a3.332,3.332,0,0,1,3.5-3.574A3.5,3.5,0,0,1,1775.777,1691.515Z"/>
      <path id="Path_901" data-name="Path 901" d="M1958.305,1687.914c2.263.238,3.763,1.3,3.791,3.676.026,2.3-1.156,3.708-3.553,3.778s-3.672-1.386-3.807-3.587C1954.593,1689.44,1956.125,1688.3,1958.305,1687.914Z"/>
      <path id="Path_902" data-name="Path 902" d="M1973.563,1629c-2.426-.074-3.817-1.44-3.826-3.672a3.536,3.536,0,0,1,3.754-3.765,3.437,3.437,0,0,1,3.744,3.723C1977.267,1627.62,1975.925,1628.892,1973.563,1629Z"/>
      <path id="Path_903" data-name="Path 903" d="M1855.333,1628.938c-1.554-.1-2.727-1.554-2.656-3.811a3.415,3.415,0,0,1,3.872-3.557,3.526,3.526,0,0,1,3.622,3.891C1860.054,1627.6,1858.659,1629.058,1855.333,1628.938Z"/>
      <path id="Path_904" data-name="Path 904" d="M1789.482,1669.3c-2.594-.012-3.9-1.228-3.971-3.583a3.42,3.42,0,0,1,3.6-3.815,3.459,3.459,0,0,1,3.8,3.639A3.353,3.353,0,0,1,1789.482,1669.3Z"/>
      <path id="Path_905" data-name="Path 905" d="M1445.014,1691.325c-.024,2.871-1.37,4.1-3.728,4.034a3.447,3.447,0,0,1-3.573-3.9,3.375,3.375,0,0,1,3.657-3.445C1443.642,1688.038,1445.118,1689.2,1445.014,1691.325Z"/>
      <path id="Path_906" data-name="Path 906" d="M1764.558,1666.238q.006-.692.012-1.383c.377-2.438,1.96-3.324,4.2-2.9a3.578,3.578,0,0,1,2.967,3.717,3.4,3.4,0,0,1-3.083,3.552C1766.438,1669.49,1764.768,1668.8,1764.558,1666.238Z"/>
      <path id="Path_907" data-name="Path 907" d="M1923.2,1623.769l-.033,1.992c-.593,2.545-2.457,2.869-4.527,2.322-1.751-.462-2.469-1.889-2.39-3.682a3.465,3.465,0,0,1,3.118-3.538C1921.4,1620.575,1922.972,1621.422,1923.2,1623.769Z"/>
      <path id="Path_908" data-name="Path 908" d="M1922.472,1757.331c-.887-.459-1.284.363-1.907.67a2.128,2.128,0,0,1-2.951-.693,1.964,1.964,0,0,1,.3-2.687,1.832,1.832,0,0,1,2.913-.067,1.292,1.292,0,0,0,1.6.466Q1922.453,1756.175,1922.472,1757.331Z"/>
      <path id="Path_909" data-name="Path 909" d="M1922.472,1757.331q-.02-1.156-.04-2.311c.942-1.652,2.089-1.374,3.191-.245a1.754,1.754,0,0,1,.093,2.616C1924.668,1758.486,1923.524,1758.874,1922.472,1757.331Z"/>
      <path id="Path_910" data-name="Path 910" d="M1898.809,1757.331c-.888-.459-1.285.363-1.908.67a2.129,2.129,0,0,1-2.951-.693,1.964,1.964,0,0,1,.3-2.687,1.832,1.832,0,0,1,2.913-.067,1.293,1.293,0,0,0,1.6.466Q1898.788,1756.175,1898.809,1757.331Z"/>
      <path id="Path_911" data-name="Path 911" d="M1898.809,1757.331q-.021-1.156-.04-2.311c.941-1.652,2.089-1.374,3.191-.245a1.755,1.755,0,0,1,.093,2.616C1901,1758.486,1899.86,1758.874,1898.809,1757.331Z"/>
    </g>
    <g id="Group_130" data-name="Group 130" transform="translate(-9743.063 -17330.158)">
      <g id="Group_129" data-name="Group 129">
        <g id="Group_126" data-name="Group 126">
          <path id="Path_912" data-name="Path 912" d="M1727.287,1545.214a9.669,9.669,0,0,1-3.121-.119,20.158,20.158,0,0,1-2.906-1,35.049,35.049,0,0,0-3.692-1.215,4.551,4.551,0,0,0-2.644-.024c-.464.16-.649.338-.738.524-.207.429.054.99.428,1.548a11.636,11.636,0,0,0,3.478,3.049,25.6,25.6,0,0,1,2.93,2.192c1.723,1.6,1.919,3.585,2.573,3.478.4-.066.65-.812.69-.93a2.005,2.005,0,0,0,.048-1.071c-.084-.363-.211-.438-.715-1.263a4,4,0,0,1-.571-1.119,1.745,1.745,0,0,1,.214-1.31c.164-.228.288-.234,1.167-.668a15.268,15.268,0,0,1,1.453-.738c.623-.214.9-.172,1.144-.452A1.268,1.268,0,0,0,1727.287,1545.214Z" fill="#891739"/>
          <path id="Path_913" data-name="Path 913" d="M1724.5,1548.144c.271-.389.715-.1,2.1-.5a8.238,8.238,0,0,0,2.144-.977,15.443,15.443,0,0,0,3.168-3.049,3.038,3.038,0,0,0,.738-2c-.064-.488-.269-.436-.81-1.762a4.78,4.78,0,0,1-.381-1.334,4.118,4.118,0,0,1,0-.929l6.836,3.6a22.986,22.986,0,0,0-2.525,1.048,4.829,4.829,0,0,0-2.072,1.429,2.856,2.856,0,0,0-.572,1.525c-.013.773.441,1.653,2.263,2.977,1.072.778,2.269,1.442,6.551,3.025.957.354,1.756.638,2.31.834q-2.239,4.608-4.478,9.218c-1.718-.909-3.071-1.7-3.978-2.239,0,0-1.464-.877-3.692-2-1.43-.721-2.04-.967-2.763-.81a3.18,3.18,0,0,0-1.906,1.548,2.848,2.848,0,0,0-.309,1.025c-.2,2.006,1.943,3.478,2.12,3.6l-7.813-3.1,1.048.024a6.556,6.556,0,0,0,2.12-.81,3.732,3.732,0,0,0,1.334-1.1c.612-.925.41-2.05.1-3.668a20.111,20.111,0,0,0-.714-2.6C1724.656,1549.21,1724.179,1548.6,1724.5,1548.144Z" fill="#891739"/>
          <path id="Path_914" data-name="Path 914" d="M1730.065,1535.234l10.354,5.177a2.512,2.512,0,0,0,1.048-1.08,3.513,3.513,0,0,0-.19-2.668,8.673,8.673,0,0,0-1.4-2.572,6.277,6.277,0,0,0-1.778-1.747,5.6,5.6,0,0,0-3.4-.731,5.3,5.3,0,0,0-2.985,1.143A5.179,5.179,0,0,0,1730.065,1535.234Z" fill="#891739"/>
          <path id="Path_915" data-name="Path 915" d="M1719.521,1559.689l10.259,5.113a4.692,4.692,0,0,1-1.175,2.1,5.091,5.091,0,0,1-3.176,1.4,6.421,6.421,0,0,1-3.145-.445,7.111,7.111,0,0,1-2.921-2.1,4.619,4.619,0,0,1-1.4-3.176A4.185,4.185,0,0,1,1719.521,1559.689Z" fill="#891739"/>
          <path id="Path_916" data-name="Path 916" d="M1745.58,1552.051q-2.406,4.762-4.811,9.527l1.81.906,4.764-9.338Z" fill="#891739"/>
          <path id="Path_917" data-name="Path 917" d="M1748.343,1553.575q-2.262,4.646-4.526,9.29l7.766,3.906a10.461,10.461,0,0,0-.524-1.81,19.666,19.666,0,0,1-1.1-2.43,4.3,4.3,0,0,1,.19-2.525,4.587,4.587,0,0,1,1.906-2.1,6.566,6.566,0,0,1,3.573-1.048Z" fill="#891739"/>
          <path id="Path_918" data-name="Path 918" d="M1757.776,1557.624c-1.36.525-2.49.9-3.287,1.144-1.519.47-2.043.552-2.478,1.1a3.7,3.7,0,0,0-.381,2.859,9.236,9.236,0,0,0,1.668,4.192l9.909,4.43a2.7,2.7,0,0,1,.952.858,2.973,2.973,0,0,1,.334,2.382q-1.453,4.477-2.906,8.956l8.051,5.241a5.185,5.185,0,0,0,3.24-2.621q2.881-5.121,5.764-10.242a6.109,6.109,0,0,0-.9-7.48Z" fill="#891739"/>
          <path id="Path_919" data-name="Path 919" d="M1713.187,1541.137c.517-.319,1.154-.438,3.523.05a36.155,36.155,0,0,1,3.95,1.055q2.074.372,4.13.746a125.313,125.313,0,0,1-20.042-9.643c-2.179-1.323-4.03-2.567-5.613-3.7-.189-.139-.4-.288-.626-.458-1.583-1.134-4.349-3.174-10.051-7.294-8.051-5.811-7.852-5.583-11.305-8.13-3.652-2.687-8.847-6.528-15.245-11.812-3.911-3.225-6.767-5.752-10.032-8.638-4.408-3.891-7.692-6.926-11.055-10.031-3.762-3.483-6.369-5.951-10.549-9.912-5.453-5.174-8.369-7.941-12.32-11.812-2.139-2.1-2.04-2.04-8.767-8.767-8.18-8.2-12.28-12.3-14.35-14.36-5.652-5.612-7.821-7.7-11.3-11.563-2.458-2.707-4.409-5.016-5.722-6.6-.17,2.07-.339,4.15-.508,6.219-.2,2.429,7.862,10.022,9.534,12.111,3.234,4.06,6.5,8.1,9.871,12.051a428.575,428.575,0,0,0,58.793,56.942c11.683,9.325,24.022,17.554,36.452,25.674,2.149,1.414,4.309,2.817,6.458,4.23,7.354,4.786,14.708,9.6,21.933,14.638-.458-.647-.926-1.294-1.393-1.94-1.911-1.414-3.424-2.7-4.528-3.672-1.8-1.593-2.458-2.349-2.428-3.334A2.653,2.653,0,0,1,1713.187,1541.137Zm-55.489-37.168c-14.409-12.131-29.625-23.505-41.258-38.532,8.757,8.13,17.544,16.221,26.56,24.053,15.584,13.533,31.884,26.261,47.916,39.258C1678.974,1521.642,1668.3,1512.9,1657.7,1503.969Z" fill="#891739"/>
        </g>
        <g id="Group_127" data-name="Group 127">
          <path id="Path_920" data-name="Path 920" d="M1671.825,1543.723a9.7,9.7,0,0,0,3.12-.12,20.081,20.081,0,0,0,2.906-1,35.132,35.132,0,0,1,3.692-1.215,4.56,4.56,0,0,1,2.644-.024,1.135,1.135,0,0,1,.739.524c.206.43-.055.99-.429,1.549a11.64,11.64,0,0,1-3.478,3.049,25.742,25.742,0,0,0-2.93,2.191c-1.722,1.6-1.918,3.585-2.572,3.478-.4-.066-.651-.812-.691-.929a2,2,0,0,1-.047-1.072c.084-.363.21-.438.714-1.263a4,4,0,0,0,.572-1.119,1.747,1.747,0,0,0-.215-1.31c-.163-.227-.288-.234-1.167-.667a15.117,15.117,0,0,0-1.453-.739c-.623-.213-.9-.172-1.143-.452A1.266,1.266,0,0,1,1671.825,1543.723Z" fill="#891739"/>
          <path id="Path_921" data-name="Path 921" d="M1674.612,1546.652c-.271-.389-.715-.1-2.1-.5a8.224,8.224,0,0,1-2.144-.977,15.4,15.4,0,0,1-3.168-3.048,3.049,3.049,0,0,1-.739-2c.064-.489.27-.437.81-1.763a4.737,4.737,0,0,0,.381-1.334,4.112,4.112,0,0,0,0-.929l-6.836,3.6a23.013,23.013,0,0,1,2.525,1.048,4.83,4.83,0,0,1,2.072,1.429,2.847,2.847,0,0,1,.572,1.525c.013.773-.44,1.654-2.263,2.977-1.071.778-2.268,1.443-6.55,3.025-.958.354-1.756.639-2.311.834q2.24,4.609,4.478,9.218c1.718-.909,3.071-1.7,3.978-2.239,0,0,1.465-.877,3.692-2,1.43-.721,2.04-.967,2.763-.81a3.171,3.171,0,0,1,1.906,1.549,2.822,2.822,0,0,1,.31,1.024c.2,2.007-1.943,3.478-2.12,3.6l7.812-3.1-1.048.024a6.554,6.554,0,0,1-2.119-.81,3.713,3.713,0,0,1-1.334-1.1c-.613-.925-.41-2.049-.1-3.668a19.943,19.943,0,0,1,.715-2.6C1674.456,1547.718,1674.932,1547.113,1674.612,1546.652Z" fill="#891739"/>
          <path id="Path_922" data-name="Path 922" d="M1669.046,1533.742l-10.354,5.177a2.515,2.515,0,0,1-1.048-1.08,3.513,3.513,0,0,1,.191-2.668,8.685,8.685,0,0,1,1.4-2.572,6.266,6.266,0,0,1,1.779-1.747,5.6,5.6,0,0,1,3.4-.731,5.289,5.289,0,0,1,2.985,1.144A5.171,5.171,0,0,1,1669.046,1533.742Z" fill="#891739"/>
          <path id="Path_923" data-name="Path 923" d="M1679.59,1558.2l-10.258,5.113a4.681,4.681,0,0,0,1.175,2.1,5.088,5.088,0,0,0,3.176,1.4,6.41,6.41,0,0,0,3.144-.445,7.118,7.118,0,0,0,2.922-2.1,4.622,4.622,0,0,0,1.4-3.176A4.177,4.177,0,0,0,1679.59,1558.2Z" fill="#891739"/>
          <path id="Path_924" data-name="Path 924" d="M1653.531,1550.559l4.812,9.528-1.81.9-4.764-9.338Z" fill="#891739"/>
          <path id="Path_925" data-name="Path 925" d="M1650.768,1552.083l4.526,9.29-7.765,3.906a10.4,10.4,0,0,1,.524-1.81,19.454,19.454,0,0,0,1.095-2.43,4.286,4.286,0,0,0-.19-2.525,4.586,4.586,0,0,0-1.906-2.1,6.568,6.568,0,0,0-3.573-1.048Z" fill="#891739"/>
          <path id="Path_926" data-name="Path 926" d="M1641.336,1556.133c1.359.524,2.489.9,3.287,1.143,1.518.47,2.043.552,2.477,1.1a3.7,3.7,0,0,1,.381,2.858,9.242,9.242,0,0,1-1.667,4.192l-9.909,4.431a2.686,2.686,0,0,0-.953.857,2.981,2.981,0,0,0-.334,2.382l2.907,8.956-8.052,5.241a5.189,5.189,0,0,1-3.239-2.62l-5.764-10.243a6.1,6.1,0,0,1,.905-7.479Z" fill="#891739"/>
          <path id="Path_927" data-name="Path 927" d="M1821.3,1418.775c-1.3,1.583-3.254,3.891-5.712,6.608-3.493,3.851-5.652,5.941-11.305,11.553-2.079,2.06-6.169,6.16-14.359,14.36-6.728,6.737-6.628,6.668-8.768,8.767-3.94,3.872-6.866,6.638-12.319,11.813-4.18,3.96-6.787,6.428-10.549,9.911-3.363,3.1-6.647,6.14-11.046,10.031-3.264,2.886-6.13,5.414-10.041,8.638-6.388,5.284-11.583,9.125-15.245,11.812-3.443,2.548-3.254,2.319-11.3,8.13-6.558,4.737-9.235,6.728-10.668,7.752-.467.339-.955.677-1.472,1.035-1.841,1.264-4.011,2.638-6.558,4.08a129.174,129.174,0,0,1-17.634,8.23c1.373-.249,2.756-.5,4.13-.746a36.131,36.131,0,0,1,3.95-1.055c2.369-.488,3.016-.368,3.533-.05a2.645,2.645,0,0,1,1.184,2.05c.03.985-.627,1.742-2.428,3.334-1.094.975-2.617,2.259-4.528,3.672-.458.647-.925,1.294-1.393,1.941,6.478-4.508,13.056-8.847,19.644-13.146,2.11-1.384,4.229-2.767,6.339-4.15,13.245-8.628,26.421-17.325,38.86-27.247a427.441,427.441,0,0,0,58.793-56.941c3.373-3.951,6.647-7.981,9.881-12.051,1.662-2.09,9.723-9.683,9.524-12.111Zm-79.889,83.7c-10.6,8.926-21.276,17.674-33.208,24.779,16.022-13,32.322-25.724,47.906-39.258,9.016-7.832,17.813-15.922,26.56-24.053C1771.034,1478.971,1755.818,1490.345,1741.409,1502.476Z" fill="#891739"/>
        </g>
        <g id="Group_128" data-name="Group 128">
          <path id="Path_928" data-name="Path 928" d="M1785.772,1408.645a47.459,47.459,0,0,0-4.488-3.543,17.15,17.15,0,0,1,1.731-.119c3.155.089,4.946-.448,3.364-4.379-.667-1.642-1.642-2.11-2.786-2.886-.548-.378-2.021-.259-1.583-1.075,1.254-2.348-1.035-2.358-1.88-2.726-4.578-1.991-5.732-4.827-3.255-8.817-2.239-1.393-4.259-.07-6.319.468-1.114.288-2.488.925-1.652-1.274.269-.717,1.443-1.433.388-2.18-.985-.7-1.9.269-2.657.806-1.263.9-2.846,2.837-3.791.468-1.025-2.537-3.174-3.095-4.8-4.567-1.393-1.274-3.612-1.244-4.687-3.175,3.394-1.124,5.483,1.383,8.061,2.18,1.015.318,2.557,1.611,2.995.626,1.244-2.846,3.3-.995,5.056-1.025-.588-5.045-4.628-6.876-7.772-9.414-.568-.457-1.991-.079-1.553-1.433.388-1.2,1.224,0,1.791-.139,2.349-.547,5.076.309,7.006-1.831-.915-1.194-2.8-3.145-2.567-3.433,2.2-2.757-.349-2.976-1.792-3.891a10.768,10.768,0,0,0-4.806-1.453c.358-1.383,2.11-1.025,2.6-2.269-1.92-1.184-3.533-2.647-5.951-2.816-2.2-.149-2.507-2.737-4.07-3.821,2.488-2.15-.109-2.886-1.134-3.861.458-1.862,3.97-1.812,2.766-3.882-1.005-1.721-3.353-.736-5.135-.189a22.647,22.647,0,0,0-3.184.826c-.955.478-1.881,1.841-2.876.956-1.234-1.1.418-2.14.736-3.225.239-.786,1.115-1.652.379-2.348-.8-.757-1.752-.348-2.647.318-3.334,2.478-6.917,4.687-8.161,9.066-1.681-3.4,1.314-6.478.388-9.762-.318-1.135.418-2.339-2.089-2.528-2.578-.189-2.279,1.6-2.637,2.418-.478,1.1.039,2.627-1.254,3.822-.777-2.259.288-5.016-1.354-6.19-2.318-.707-.965,3.254-3.134,1.612-2.637-2-1.831.458-2.12,1.333-.279.856.846,1.861-.3,2.817-1.384-1.125-1.284-3.473-3.454-4.249-.477,4.159-.567,8.219,1.294,11.9.965,1.911.518,2.647-1.085,3.414-2.846-5.205-12.041-8.29-17.6-5.951.845,2.169,3.383,1.841,4.716,3.174,1.2,1.184,4.19,1.055,3.3,4.03a15.255,15.255,0,0,0-16,2.588c2.159,2.02,5.065.617,7.423,1.622.687.3,1.6.358,1.413,1.353-.169.866-.995.289-1.493.438-4.876,1.5-10.637,1.453-13.215,7.165,4.528,1.274,9.364-2.727,13.992.975-6.668,1.443-15.076,8.777-13.206,11.235,1.045-.348,2.06-.856,3.045-.338-.816,1.831-1.632,3.632-2.507,5.583,3.96-.02,6.568-2.936,10.1-3.623,0,2.876-2.786,3.055-3.881,4.678-.776,1.164-2.368,2.5-1.194,3.831,1.125,1.274,2.339-.359,3.393-1.005a30.821,30.821,0,0,1,13.544-4.508,34.722,34.722,0,0,0-7.861,13.364c-.279.946-1.572,2.05-.378,3.026,1.124.915,2.557.448,3.871.069a7.5,7.5,0,0,0,3.652-2.915,56.31,56.31,0,0,1,6.13-6.1c1.164-1.1,3.005-2.706,3.264.936a6.011,6.011,0,0,0,1.721,3.184,5.637,5.637,0,0,0,4.29,1.871c1.263-.02,2.507-1.154,2.408-1.931-.3-2.4,1.333-4.856-.4-7.224a2.477,2.477,0,0,1,.02-2.886,1.869,1.869,0,0,1,1.642-.508c1.3.468.636,1.712.636,2.578.04,24.44-.009,48.891.07,73.341.01,2.468-.716,3.344-3.164,3.831a60.863,60.863,0,0,0-17.843,6.14c2.876,1.981,5.582,1.095,8.15.2,4.269-1.483,8.439-1.782,12.688-.02a12.349,12.349,0,0,0,9.434-.05,16.015,16.015,0,0,1,11.971-.05,13.153,13.153,0,0,0,9.444.259c2.627-.936,5.284-1.354,7.991-.289a1.693,1.693,0,0,0,2.05-.308c2.12-2.219,4.747-3.951,6.6-6.787-3.334-1.025-6.578-.6-9.743-.876-1.363-.119-2.856.01-2.856-2.03-.019-13.106-.059-26.2-.019-39.3,0-.786-.249-2.338,1.323-2.089,1.542.238,1.562,1.422.826,2.527-.5.747-.1,1.433-.139,2.14-.08,1.582-.488,3.513,1.632,4a3.211,3.211,0,0,0,3.851-2.159c.766-1.871,1.721-1.184,2.736-.17,1.563,1.553,3.095,3.145,4.8,4.528a2.794,2.794,0,0,0,3.174.319c1.234-.747.17-1.881-.089-2.618-.806-2.239-1.931-4.358-3.095-6.886,2.966.4,3.6,3.443,6.08,3.991a3.562,3.562,0,0,0-.836-4.15c-1.3-1.473-2.647-2.906-3.98-4.359-.747-.268-1.493-.537-2.538-.925,1.334-.309,2.339-.826,3.145.3.925.349,1.881.637,2.766,1.065,1.951.926,3.354-1.682,5.275-.746C1788.21,1410.834,1786.847,1409.729,1785.772,1408.645Zm-73.113-54.076c-.049-.05-.109-.09-.169-.149h-.01c-.059-.05-.119-.1-.169-.149a1.989,1.989,0,0,1-.149-.17.351.351,0,0,1-.11-.139,1,1,0,0,1-.139-.239,1.244,1.244,0,0,1-.09-.248c0-.03-.01-.05-.01-.08a1.293,1.293,0,0,1-.029-.269,3.921,3.921,0,0,1,.766-1.93v3.164c.089.119.189.229.278.349C1712.769,1354.669,1712.719,1354.619,1712.659,1354.569Zm34.89,34.312c1.055-.288,1.483.3,1.552,1.264h.02v.03c1.821.687,2.776,1.97,2.975,4.339-1.88-1.2-3.214-2.239-2.975-4.339-.01,0-.01-.01-.02-.01v-.02c-.677-.02-1.433.219-1.9-.468A.921.921,0,0,1,1747.549,1388.881Zm-12.569,1.334c-.109-1.095-.02-2.209-.02-3.324s-.079-2.219,0-3.324c.07-.905-.348-1.91.846-2.6s1.413.518,2.08.806a1.891,1.891,0,0,1,.826,2.777c-1.652,1.691-1.473,3.263-.766,5.264.3.846.716,2.438-1.373,2.707C1734.214,1392.812,1735.08,1391.2,1734.98,1390.215Zm22.938,33.526c0,10.658-.08,21.326.04,31.993.03,2.409-.607,3.155-3.1,3.125-5.951-.069-11.942-.487-17.873.448-1.711.279-2.059-.358-2.059-1.94.059-12.5.049-25,.059-37.5,0-1.005-.02-1.941,1.155-2.458,2.239-.975,4.438-2.02,7.314-1.95-2.08,3.064-4.07,5.861-4.966,9.214-.209.786-1.065,1.622-.139,2.339a2.583,2.583,0,0,0,2.816-.06c2.388-1.164,3.791-3.4,5.573-5.2,2.119-2.15,3.363-2.418,4.687.7.995,2.349,2.876,2.836,5.045,1.165-.288-1.971.8-4.011-.418-5.991a1.257,1.257,0,0,1,1.045-1.921c1.582-.189.936,1.155.955,1.781C1758.107,1419.561,1757.978,1421.651,1757.918,1423.741Z" fill="#891739"/>
          <path id="Path_929" data-name="Path 929" d="M1761.282,1474.091c-2.149,1.992-4.256,4.033-6.463,5.959-1.366,1.192-2.9.311-4.23-.136-4.454-1.5-8.883-2.095-13.352-.2a12.137,12.137,0,0,1-9.367-.044,15.544,15.544,0,0,0-11.889-.041,13.358,13.358,0,0,1-10.453-.129,14.34,14.34,0,0,0-10.81.061,14.962,14.962,0,0,1-11.191-.1,13.8,13.8,0,0,0-10.45.047,13.947,13.947,0,0,1-10.82.029,14.366,14.366,0,0,0-11.521.163c-3.777,1.593-6.544.8-8.974-2.328a39.352,39.352,0,0,1-3.241-3.858c6.371,2.794,12.13.176,18.073-1.065,1.752-.366,3.887.6,5.732,1.274a14.376,14.376,0,0,0,10.468,0,14.5,14.5,0,0,1,11.173-.033,13.98,13.98,0,0,0,10.81-.051,14.691,14.691,0,0,1,10.805.032,14.615,14.615,0,0,0,11.172-.081,13.037,13.037,0,0,1,10.071-.011,16.21,16.21,0,0,0,11.911-.023,12.564,12.564,0,0,1,9.36-.086A21.186,21.186,0,0,0,1761.282,1474.091Z" fill="#891739"/>
          <path id="Path_930" data-name="Path 930" d="M1652.293,1486.78a8.678,8.678,0,0,1,7.325-.74c4.889,1.746,9.83,2.538,14.829.3,3.046-1.364,6.086-.783,9.051.278a15.3,15.3,0,0,0,11.241.1,14.081,14.081,0,0,1,10.84.006,14.46,14.46,0,0,0,10.875,0c3.205-1.234,6.516-1.762,9.759-.315,4.921,2.2,9.7,1.2,14.479-.352a7.133,7.133,0,0,1,6.567.562c-5.2,5.606-11.308,8.518-18.883,6.187-4.466-1.374-8.689-1.729-13.027.074a12.355,12.355,0,0,1-9.418-.225,15.612,15.612,0,0,0-11.58.022,12.226,12.226,0,0,1-9.423.185c-4.34-1.839-8.553-1.306-13.019-.056C1664.339,1494.924,1657.937,1492.336,1652.293,1486.78Z" fill="#891739"/>
          <path id="Path_931" data-name="Path 931" d="M1730.565,1500.808a19.147,19.147,0,0,1-8.618,3.84c-7.461,1.436-14.439,2.474-21.7-.333-.956-.37-2.455.271-3.568.752-5.067,2.189-10.053,1.808-15.113-.046a8.046,8.046,0,0,0-5.4-.284c-3.288,1.015-4.4-2.394-7.222-3.659,5.474-2.018,10.22-3.429,15.277-1.292a13.515,13.515,0,0,0,10.421-.015,14.293,14.293,0,0,1,10.775-.075,14.069,14.069,0,0,0,11.132-.014C1721.3,1497.66,1725.714,1499.092,1730.565,1500.808Z" fill="#891739"/>
          <path id="Path_932" data-name="Path 932" d="M1689.158,1514.344c11.76-3.378,12.7-3.37,21.47.161-3.539,1.869-6.78,3.584-10.025,5.293a2.11,2.11,0,0,1-2.129-.153C1695.592,1518.011,1692.714,1516.369,1689.158,1514.344Z" fill="#891739"/>
          <path id="Path_933" data-name="Path 933" d="M1701.922,1435.344c-1.194,3.065-2.418,6.13-3.642,9.195-.229.03-.468.05-.7.08q-4.492,1.462-9,2.916c3.732-4.588,7.454-9.185,11.215-13.753.5-.607,1.1-1.692,2.05-.906C1702.549,1433.463,1702.24,1434.518,1701.922,1435.344Z" fill="#891739"/>
          <path id="Path_934" data-name="Path 934" d="M1712.482,1354.426c-1.023-.868-.861-1.769.064-3.228v3.163Z" fill="#891739"/>
          <path id="Path_935" data-name="Path 935" d="M1712.546,1354.361l.283.348-.347-.284Z" fill="#891739"/>
        </g>
        <path id="Path_936" data-name="Path 936" d="M1687.264,1430.159l-1.762,1.016-2.179-3.782-22.978-39.785-3.831-6.638-1.662-2.876-15.066-26.1-.02-.03-.916-1.592,1.145-2.08.159.268.01-.01c1.005.24,1.154,1.165,1.542,1.842q20.421,35.436,40.791,70.913a12.505,12.505,0,0,1,1.562,3.3Z" fill="#891739"/>
        <path id="Path_937" data-name="Path 937" d="M1709.186,1440.29c-.627-1.373-1.681-.259-2.487.1-2.847,1.244-5.066,3.742-8.33,4.16.319.806-.348.7-.786.806-3.005,1.861-6.429,2.558-9.752,3.553-2.588,1.483-4.847,1.184-7-.995-2.209-2.249-5-2.767-8.15-2.687-6.469.169-12.937-.02-19.405-.11-.986-.02-2.21.458-2.946-1.025,11.365-4.6,22.5-4.348,33.8,1.344-.348-3.682-.08-7.205-.269-10.608v-.01a29.243,29.243,0,0,0-.448-4.866l-29.635-51.34-.746-1.283-.319-.547-.019-.05-2.19-3.792-.03-.05-.617-1.054-.01-.03-11.185-19.375a2.193,2.193,0,0,0-.647-.329c-.229.7-.467,1.394-.7,2.09v.01c-1.284,3.752-2.6,7.434-3.7,11.195-5.921,20.052-10.22,40.363-9.146,61.43.488,9.464,2.12,18.718,6.847,27.127a15.321,15.321,0,0,1,2.249,6.518c.139,1.941.01,4.916,2.229,5.494,4.319,1.134,8.538,3.433,13.375,1.8,4.339-1.463,8.807-2.548,13.384-.488,3.463,1.562,6.946,1.125,10.509-.05,2.3-.766,4.647-1.612,7.264-1.025,7.763,1.722,8.151,1.811,11.156-5.781,3.234-8.18,7.215-15.335,16.141-18.41C1708.33,1441.773,1709.644,1441.3,1709.186,1440.29Zm-71.1,19.962a1.523,1.523,0,0,1-1.274-.447c-.268-1.7.747-2.946,1.9-4.19C1638.572,1457.2,1640.084,1459.068,1638.084,1460.252Zm29.834-5.274a234.98,234.98,0,0,1-24.7,5.3c-1.483.209-2.169-.1-2.319-1.861-.587-7.035-.667-7.045,6.528-7.453,3.593-.209,7.185-.368,10.778-.547a.277.277,0,0,0,.01.089c2.975,0,5.96-.04,8.936.02.846.02,2.319-.537,2.189,1.095C1669.242,1452.8,1669.948,1454.461,1667.918,1454.978Zm3.284-.925c.03-4.19.129-4.22,10.21-2.936C1678.029,1452.082,1674.655,1453.058,1671.2,1454.053Z" fill="#891739"/>
        <line id="Line_10" data-name="Line 10" x1="1.144" y2="2.08" transform="translate(1638.85 1348.29)" fill="#891739"/>
      </g>
    </g>
  </g>
</svg>
