<svg xmlns="http://www.w3.org/2000/svg" width="1283.594" height="373.334" viewBox="0 0 1283.594 373.334">
  <g id="Group_117" data-name="Group 117" transform="translate(3415.275 -1308.836)">
    <g id="Group_113" data-name="Group 113">
      <g id="Group_112" data-name="Group 112">
        <path id="Path_759" data-name="Path 759" d="M-3362.265,1446.8a284.884,284.884,0,0,1-11.683,49.314c-2.623,7.921-4.966,15.95-3.343,24.527.376,1.989.054,4.106.054,6.729-18.8-20.916-36.9-41.553-37.781-70.875-.247-8.48-1.2-17.53,3.246-26.021,2.225,3.987,1.72,8.48,3.332,12.328,3.214,7.717,6.267,15.521,9.867,23.066,5.2,10.877,8.04,22.442,10.781,34.072l2.042-.032c-1.118-18.369,5.944-34.115,15.639-49.045,2.515-3.891,4.826-7.911,7.9-12.973C-3362.211,1441.535-3361.9,1444.222-3362.265,1446.8Z" fill="#4f91cd"/>
        <path id="Path_760" data-name="Path 760" d="M-3345.39,1579.984c-.935.978-1.978.312-2.88-.269-9.377-6.027-18.974-11.722-28.084-18.154-20.2-14.263-38.679-36.007-37.342-62.211,4.267,6.82,8.011,13.075,13.717,18.753,12.781,12.758,24.732,25.639,35.65,40.062.506-.065,1.022-.129,1.538-.183-4.128-11.157-7.213-22.561-5.289-34.545,1.72-10.716,4.095-21.325,6.7-32.073,2.376,8.341,4.859,16.595,5.794,25.312,1.816,16.811,2.408,33.782,6.277,50.324a84.328,84.328,0,0,0,3.59,10.06C-3345.358,1578.039-3344.455,1579.017-3345.39,1579.984Z" fill="#4f91cd"/>
        <path id="Path_761" data-name="Path 761" d="M-3298.914,1619.226c-8.556-1.247-15.682-2.063-22.711-3.386-10.014-1.883-20.45-3.177-29.589-7.96a96.76,96.76,0,0,1-25.391-18.916,144.13,144.13,0,0,1-10.186-11.489c-.912-1.2-10.123-15.225-9.06-16.188.28-.252,1.633,1.576,1.879,1.8,2.508,2.288,5.41,4.211,8.076,6.314,3.045,2.4,6.112,4.783,9.34,6.935,1.538,1.026,3.113,2,4.733,2.891,7.859,4.327,16.187,7.668,24.379,11.293,5.883,2.6,11.523,6.432,16.936,10.138,1.692,1.158,6.358,5.609,8.384,5.511,5.114-.255-4.418-9.5-5.211-10.6-6.295-8.7-9.681-19.193-11.551-29.672a119.408,119.408,0,0,1-1.68-15.192c-.242-4.973-.42-10.325-3.663-14.407,2.031,2.556,4.9,4.505,6.683,7.246a154.013,154.013,0,0,1,13.6,25.063c3.612,8.756,5.666,18.09,9.713,26.678A102.325,102.325,0,0,0-3298.914,1619.226Z" fill="#4f91cd"/>
        <path id="Path_762" data-name="Path 762" d="M-3349.41,1392.189c-1.741,10.243-6.019,18.939-11.673,27.355-9.2,13.693-20.507,26.15-26.021,42.133-.4,1.172-.806,2.343-1.5,4.342-3.783-16.961-12.307-31.847-14.736-48.453-2.171-14.758.86-29.031,7.846-42.327q1.725-3.289,3.547-6.535a8.247,8.247,0,0,1,1.376-1.333c-2.752,24.915,5.933,49.12,2.107,74.013,4.041-10.017,8.007-19.669,15.359-27.6A226.508,226.508,0,0,1-3349.41,1392.189Z" fill="#4f91cd"/>
        <path id="Path_763" data-name="Path 763" d="M-2946.648,1443.007c-2.827,5.654-3.956,12.167-5.912,18.434-1.827-1.236-2.45-2.978-3.149-4.762-4.654-11.952-12.318-22.077-19.916-32.159s-13.6-20.744-16.284-34.663c16.66,15.015,34.642,27.279,38.661,50.936-3.525-24.678,4.88-48.239,3.784-72.508a46.629,46.629,0,0,1,9.792,20.239C-2935.308,1407.452-2937.91,1425.552-2946.648,1443.007Z" fill="#4f91cd"/>
        <path id="Path_764" data-name="Path 764" d="M-3308.448,1583.8c.011,0,.011.01.022.01s.01-.032.01-.043Z" fill="#4f91cd"/>
        <path id="Path_765" data-name="Path 765" d="M-2961.685,1404.98c-1.032.386-1.741-.4-2.214-1.075-7.126-10.147-17.9-16.177-26.968-24.109-9.544-8.351-17.735-17.842-20.83-30.794,14.091,12.909,32.353,20.712,43.67,37.179-1.773-2.581-2.044-8.213-2.794-11.287q-1.5-6.132-2.909-12.284c-2-8.811-2.385-17.647-7.475-25.449-1.391-2.133-1.993-4.675-3.2-6.9.71,1.305,3.991,1.539,5.212,2.245,4.792,2.768,8.6,8.033,11.887,12.382,4.139,5.478,5.145,10.735,6.343,17.231,2.483,13.457.785,27.032.1,40.564C-2960.911,1403.507-2960.567,1404.571-2961.685,1404.98Z" fill="#4f91cd"/>
        <path id="Path_766" data-name="Path 766" d="M-3109.625,1503.209c-6.492,7.76-12.9,15.66-22.883,19.261-8.449,6.524-18.466,9.394-28.666,10.565-20.959,2.4-40.618-1.623-57.321-15.381-21.572-17.777-32.772-39.962-30.171-68.778,2.4-26.57,15.736-46.283,37.254-60.019a76.206,76.206,0,0,1,31.162-11.686,70.926,70.926,0,0,1,19.587.258,64.611,64.611,0,0,1,11.724,2.4c4.351,1.523,8.621,3.793,12.875,5.586a42.361,42.361,0,0,1,6.78,3.971,104.574,104.574,0,0,1,12.668,9.7c4.9,4.419,9.289,9.932,2.477,15.088-4.385,3.321-9.232,6.03-13.606,9.372-6.731,5.143-10.865-4.711-15.877-7.517-10.161-5.688-20.1-9.14-31.9-8.167A45.758,45.758,0,0,0-3203.6,1420.7c-15.392,14.876-20.744,40.07-6.793,61.287a46.211,46.211,0,0,0,57.676,17.133,47.3,47.3,0,0,1,5.073-1.644c4.428-4.042,8.889-8.051,13.274-12.146,1.29-1.2,2.333-1.15,3.73-.161,6.664,4.708,13.392,9.34,20.089,14.005C-3109.045,1500.231-3108.271,1501.6-3109.625,1503.209Z" fill="#4f91cd"/>
        <rect id="Rectangle_43" data-name="Rectangle 43" width="0.011" height="0.011" transform="translate(-3143.171 1383.87)" fill="#4f91cd"/>
        <path id="Path_767" data-name="Path 767" d="M-3310.329,1308.911c-15.295,18.347-25.86,39.758-47.153,52.258C-3351.936,1333.116-3339.016,1317.456-3310.329,1308.911Z" fill="#4f91cd"/>
        <path id="Path_768" data-name="Path 768" d="M-2983.418,1359.181c-10.082-6.4-19.164-13.93-26.129-23.754-5.235-7.373-10.018-15.069-16.359-21.593-1.064-1.1-2.967-2.236-2.214-3.934.978-2.214,2.988-.344,4.105.021,18.595,6.041,31.536,17.918,37.222,37.018C-2985.578,1350.991-2984.536,1355.107-2983.418,1359.181Z" fill="#4f91cd"/>
        <path id="Path_769" data-name="Path 769" d="M-2983.375,1359.213l-.032.022c0-.022-.011-.033-.011-.054C-2983.407,1359.192-2983.386,1359.2-2983.375,1359.213Z" fill="#4f91cd"/>
        <path id="Path_770" data-name="Path 770" d="M-3047,1527.487a189.322,189.322,0,0,1-23.445,29.119c-9.318,9.358-19.9,16.687-31.28,23.341a141.655,141.655,0,0,1-75.766,18.621,136.934,136.934,0,0,1-41.22-7.911c-25.886-9.386-48.548-26.147-65.936-47.414-1.84-2.25-3.667-4.52-5.4-6.853a99.247,99.247,0,0,1-13.96-25.266c-.644-1.777-1.1-3.619-1.816-5.37-.541-1.332-1.223-2.6-1.825-3.908-4.087-8.867-5.908-19.934-6.917-29.592a137.87,137.87,0,0,1,.524-31.026c.911-7.448,1.677-14.6,3.691-21.858a141.252,141.252,0,0,1,7.26-20.05,147.827,147.827,0,0,1,22.961-36.063,139,139,0,0,1,10.907-11.278c10.265-9.469,21.849-18.29,34.339-24.617a148.583,148.583,0,0,1,41.69-13.315,134.6,134.6,0,0,1,27.875-1.9c9.256.333,17.932,2.807,27.072,3.753,5.77.6,11.228,2.786,16.633,4.759a145.277,145.277,0,0,1,18.448,8.221,147.67,147.67,0,0,1,33.04,24.109,163.982,163.982,0,0,1,27,34.507,11.774,11.774,0,0,1,1.2,4.949c.18,2.161-1.563,2.468-3.253,2.812-5.81,1.184-11.116,3.963-16.242,6.842-3.81,2.141-9.625,7.741-12.664,2.2-13.575-24.742-33.686-41.993-60.116-51.828-2.644-.989-5.352-1.817-8.028-2.709a109.569,109.569,0,0,0-39.651-2.665,108.277,108.277,0,0,0-46.906,16.531c-20.754,13.165-37.655,34.019-45.525,57.352-2.233,6.621-4.688,13.329-5.315,20.327a128.7,128.7,0,0,0,1.236,34.8,115.6,115.6,0,0,0,8.5,26.049c2.172,4.816,5.074,9.3,7.632,13.93,6.309,7.653,12.253,15.639,20.067,21.916,28.633,22.991,60.492,32.256,96.746,22.84q5.4-1.4,10.8-2.816a8.234,8.234,0,0,1,5.137-1.225c6.159-4.88,13.78-7.2,20.154-11.866,13.586-9.953,25.312-21.475,33.2-36.48,1.632-3.1,4.016-5.792,7.806-4.581,2.175.695,4.147,2.074,6.236,2.995,2.938,1.294,5.936,2.386,8.74,3.97,1.839,1.038,3.639,2.161,5.575,3.018,1.8.8,3.913,1.04,5.117,2.777,1.354,1.955.393,3.891-.829,5.664C-3044.681,1523.995-3045.839,1525.733-3047,1527.487Z" fill="#4f91cd"/>
        <path id="Path_771" data-name="Path 771" d="M-3034.763,1651.246c-1.009.268-2.891,3.178-3.757,3.966-11.81,10.748-30.075,13.584-45.3,12.383-8.177-.646-16-3.376-23.3-7.013a148.272,148.272,0,0,1-18.3-11.009c-5.405-3.746-10.44-8.3-16.153-11.565a4.719,4.719,0,0,0-1.786-.465c-3.852-.477-8.159-1.638-12.032-1.248-1.763.172-3.988-.215-4.622,1.816-.656,2.117,1.386,3.053,2.966,3.837,13.489,6.718,25.151,16.123,37.05,25.173a22.159,22.159,0,0,1,4.267,4.052c1.515,1.988,5.234,3.719,1.655,6.933-2.838,2.536-5.234,4.987-9.082.483-11.168-13.091-24.506-23.764-38.662-33.481-6.374-4.374-11.135-4.794-17.788-.6-14.694,9.287-28.333,19.766-39.318,33.471-1.655,2.063-3.117,6.674-7.76,2.5-5.084-4.59-5.374-4.342-.215-9.05,11.2-10.2,22.775-19.874,36.34-26.849,1.73-.893,3.525-1.656,5.224-2.591,1.375-.752,3.4-1.537,2.966-3.321-1.19-4.944-17.1-.476-20.194.793-9.093,3.736-15.725,11.911-24.124,16.9a92.951,92.951,0,0,1-32.468,12.053,52.574,52.574,0,0,1-19.515-.612,69.6,69.6,0,0,1-16.942-6.05,59.692,59.692,0,0,1-7.75-4.6c-1.949-1.4-3.383-4.111-5.6-5.023a66.138,66.138,0,0,0,34.693,3.971c12.072-1.788,22.977-7.35,34.064-12.14,8.848-3.823,18.615-8.329,28.157-9.995,3.728-.651,7.526-.649,11.279-1.069,6.344-.71,12.772-.928,18.971.853,9.05,2.6,17.186.656,25.721-.967,5.04-.957,10.189-1.516,15.23.3,9.738.2,18.949,2.934,27.935,6.266,16.32,6.068,31.763,14.881,49.433,16.218C-3053.4,1656.328-3044.4,1653.8-3034.763,1651.246Z" fill="#4f91cd"/>
        <path id="Path_772" data-name="Path 772" d="M-2926.527,1448.467a90.218,90.218,0,0,1-8.932,38.361,82.53,82.53,0,0,1-17.09,23.743c-3.88,3.784-6.932,8.438-11.146,13.651-.731-7.116-.064-13.285-1.2-19.369-1.558-8.3-4.245-16.241-6.7-24.227a187.2,187.2,0,0,1-7.406-33.277c-.408-3.514-.709-7.05-1.128-11.189,12.253,16.445,22.088,33.3,24.388,53.6a18.065,18.065,0,0,1-.537,5.837c-.194.881-.065,1.859,1.106,2.053,1.129.182,1.527-.624,1.752-1.559.989-4.159,1.924-8.33,2.978-12.479a93.547,93.547,0,0,1,6.2-16.434c1.633-3.482,3.74-6.7,5.073-10.3,2.321-6.255,4.794-12.188,6.7-18.573,1.086-3.622,2.193-7.448,2.1-11.264.086,3.214,2.322,6.019,2.848,9.19A76.492,76.492,0,0,1-2926.527,1448.467Z" fill="#4f91cd"/>
        <path id="Path_773" data-name="Path 773" d="M-2984.407,1330.257c-.021,0-.043-.011-.064-.011l.032-.043C-2984.428,1330.225-2984.418,1330.236-2984.407,1330.257Z" fill="#4f91cd"/>
        <path id="Path_774" data-name="Path 774" d="M-2946.337,1557.822c-.949,1.66-.93,3.583-1.463,5.375-1.689,5.666-7.095,11.571-10.82,16.028a106.129,106.129,0,0,1-14.165,14.019c-12.879,10.554-27.414,17.624-43.759,20.436-8.2,1.419-16.37,3.321-25.764,3.461,12.79-15.252,18.025-33.341,24.721-50.711a96.4,96.4,0,0,1,17.727-29.449c.877-.995,1.4,3.5,1.4,3.612-.033,2.175-.945,4.3-1.584,6.346-2.9,9.284-3.428,18.94-5.92,28.294a58.07,58.07,0,0,1-7.657,16.682,78.864,78.864,0,0,1-5.5,7.4c-1.027,1.231-4.815,3.753-3.172,5.431,1.5,1.537,3.633-.451,5.138-1.58a171.835,171.835,0,0,1,16.868-11.533c5.634-3.261,11.749-5.327,17.606-8.144a145.153,145.153,0,0,0,19.576-11.376C-2957.673,1568.362-2949.7,1563.7-2946.337,1557.822Z" fill="#4f91cd"/>
        <path id="Path_775" data-name="Path 775" d="M-2987.095,1615.486c-.782.226-2.127,3.912-2.783,4.675-2.359,2.743-6.6,4.821-9.559,6.9-8.427,5.9-16.939,11.471-27.089,13.858-12,2.828-24.523,2.272-36.537-.137-9.943-1.989-19.8-4.418-29.709-6.578a19.975,19.975,0,0,1-6.728-3.107c6.427-3.1,12.694-5.008,18.218-8.577,9.8-6.341,17.982-14.521,26.463-22.4,6.417-5.955,12.21-12.748,20.959-16.832-9.168,20.723-18.208,40.639-42.983,46.626,14.4-3.479,29.32-3.329,44.025-4.044,12.729-.618,29.021-1.123,40.017-8.259C-2990.915,1616.383-2989.279,1616.118-2987.095,1615.486Z" fill="#4f91cd"/>
        <path id="Path_776" data-name="Path 776" d="M-2929.01,1511.9c-1.491,4.431-2.121,9.528-5.074,13.316-2.581,3.31-3.7,7.489-6.405,10.686-3.02,3.57-6.243,6.979-9.583,10.25-12.544,12.288-27.043,21.284-41.923,30.41-1.322.806-2.591,1.945-5.074,1.58,1.871-6.051,4.687-11.694,5.762-17.907,2.136-12.346,3.232-24.835,4.589-37.281.687-6.307,1.438-12.609,2.426-18.877.812-5.146,1.141-11.7,4.378-16.016-.264.352.627,4.872.637,5.667.076,5.877,2.189,11.257,3.534,16.893a76.346,76.346,0,0,1,2.074,21.722,53.978,53.978,0,0,1-4.353,19.175c-.57,1.258-1.516,2.493-.3,4.406.348.549,6.325-7.194,6.771-7.762q4.206-5.359,8.707-10.478c7.384-8.4,15.83-15.728,23.2-24.09,2.174-2.436,3.829-5.04,5.8-7.631,1.062-1.4,6.212-7,5.7-8.777C-2926.678,1502.3-2927.462,1507.3-2929.01,1511.9Z" fill="#4f91cd"/>
        <rect id="Rectangle_44" data-name="Rectangle 44" width="0.011" height="0.011" transform="translate(-3143.171 1383.87)" fill="#4f91cd"/>
        <path id="Path_777" data-name="Path 777" d="M-3240.185,1632.049c-1.17-.329-4.545,1.361-5.78,1.707-1.827.51-3.665.954-5.495,1.408-4.192,1.04-8.316,2.375-12.512,3.417-8.1,2.01-16.623,4.282-24.954,4.985-8.873.749-18.139.916-26.843-1.236-8.786-2.174-18.194-5.779-25.495-11.237-4.443-3.321-8.448-7.175-12.6-10.846a21.229,21.229,0,0,1-4.525-5.589c6.729,3.45,13.092,7.234,20.444,8.835a149.5,149.5,0,0,0,18.521,2.772c14.016,1.253,28.013,3.3,42.089,3.731.731.022,1.451.032,2.181.054l2.1.1c.011-.773.011-1.537.011-2.31-16.3-5.622-24.151-19.111-30.88-33.546-1.6-3.439-5.4-5.976-4.5-10.48a77.479,77.479,0,0,1,13.94,10.459c5.89,5.406,11.8,10.823,17.359,16.563C-3267.142,1621.129-3255.115,1627.846-3240.185,1632.049Z" fill="#4f91cd"/>
        <path id="Path_778" data-name="Path 778" d="M-3329.708,1350.013c.054,7.652-4.213,13.241-8.459,18.949-6.793,9.147-15.725,15.9-24.721,22.571a72.9,72.9,0,0,0-15.9,16.7,2.205,2.205,0,0,1-2.107-2.472c-.107-13.887-1.58-27.8.473-41.671,1.795-12.135,8.449-21.314,17.466-29.085a11.442,11.442,0,0,1,5.127-2.612c-1,6.89-5.922,12.318-7.029,19.218A258.41,258.41,0,0,1-3372.9,1385a2.356,2.356,0,0,0,2.268,1.129c6.535-9.856,15.757-16.681,25.42-23.173C-3339.693,1359.245-3334.147,1355.333-3329.708,1350.013Z" fill="#4f91cd"/>
        <path id="Path_779" data-name="Path 779" d="M-3308.416,1583.762l-.43-.206.4.241Z" fill="#4f91cd"/>
        <path id="Path_780" data-name="Path 780" d="M-3279.879,1460.119l-.3-.409s.258-.43.269-.43A.712.712,0,0,1-3279.879,1460.119Z" fill="#4f91cd"/>
        <path id="Path_781" data-name="Path 781" d="M-2984.438,1330.2l-.427-.23.39.267Z" fill="#4f91cd"/>
        <path id="Path_782" data-name="Path 782" d="M-2983.4,1359.239l.365.207-.336-.236Z" fill="#4f91cd"/>
      </g>
    </g>
    <g id="Group_116" data-name="Group 116">
      <g id="Group_114" data-name="Group 114">
        <path id="Path_783" data-name="Path 783" d="M-2717.265,1393.206v45.652q0,11.578-7.655,17.864t-20.038,6.285q-12.334,0-19.92-6.285t-7.585-17.864v-45.652h13.847v45.617q0,6.8,3.639,10.176t10.019,3.375q6.474,0,10.16-3.351t3.687-10.2v-45.617Z"/>
        <path id="Path_784" data-name="Path 784" d="M-2693.73,1410.881l.615,7.325a18.692,18.692,0,0,1,6.285-6.1,16.309,16.309,0,0,1,8.365-2.174q7.75,0,12.1,4.867t4.348,15.265v31.947h-13.847V1430.04q0-5.157-2.079-7.317t-6.286-2.154a10.608,10.608,0,0,0-4.915,1.114,10.121,10.121,0,0,0-3.639,3.147v37.185h-13.8v-51.134Z"/>
        <path id="Path_785" data-name="Path 785" d="M-2637.208,1398.641h-13.8v-10.35h13.8Zm0,63.374h-13.8v-51.134h13.8Z"/>
        <path id="Path_786" data-name="Path 786" d="M-2609.467,1398.357v12.524h8.6v9.688h-8.6v26.039q0,2.977,1.228,4.254a4.381,4.381,0,0,0,3.308,1.276,12.787,12.787,0,0,0,1.867-.118,16.491,16.491,0,0,0,1.82-.4l1.181,9.971a27.719,27.719,0,0,1-4.064,1.064,24.516,24.516,0,0,1-4.3.354q-7.136,0-10.987-3.922t-3.852-12.429v-26.087h-7.467v-9.688h7.467v-12.524Z"/>
        <path id="Path_787" data-name="Path 787" d="M-2569.439,1463.007q-11.06,0-17.675-7.089t-6.616-18.005v-1.891q0-11.388,6.261-18.761t16.8-7.325q10.35,0,16.068,6.238t5.718,16.871v7.514h-30.529l-.094.284a13.255,13.255,0,0,0,3.379,8.282,10.552,10.552,0,0,0,8.152,3.249,26.52,26.52,0,0,0,7.608-.922,34.968,34.968,0,0,0,6.617-2.906l3.733,8.526a25.447,25.447,0,0,1-8.176,4.25A35.471,35.471,0,0,1-2569.439,1463.007Zm-1.229-42.438a7.185,7.185,0,0,0-6.049,2.93,15.247,15.247,0,0,0-2.741,7.7l.142.236h16.918v-1.228a11.065,11.065,0,0,0-2.056-7.018Q-2566.509,1420.568-2570.668,1420.569Z"/>
        <path id="Path_788" data-name="Path 788" d="M-2542.974,1436.873q0-12.1,5.222-19.518t14.721-7.419a14.31,14.31,0,0,1,6.9,1.654,16.594,16.594,0,0,1,5.388,4.726v-28.025h13.847v73.724h-11.862l-1.134-6.238a16.938,16.938,0,0,1-5.695,5.387,15.137,15.137,0,0,1-7.538,1.843q-9.4,0-14.626-6.9t-5.222-18.241Zm13.752,1q0,6.753,2.268,10.626t7.373,3.875a10.7,10.7,0,0,0,5.2-1.213,9.639,9.639,0,0,0,3.639-3.54V1425.7a10.659,10.659,0,0,0-3.615-3.78,9.585,9.585,0,0,0-5.128-1.355,7.781,7.781,0,0,0-7.4,4.517q-2.338,4.519-2.339,11.791Z"/>
        <path id="Path_789" data-name="Path 789" d="M-2405.357,1462.015h-13.752l-27.788-47.023-.284.048v46.975h-13.8v-68.809h13.8l27.788,46.975.284-.047v-46.928h13.752Z"/>
        <path id="Path_790" data-name="Path 790" d="M-2363.58,1462.015a29.031,29.031,0,0,1-1.3-3.686,25.727,25.727,0,0,1-.78-3.97,19.024,19.024,0,0,1-5.6,6.191,13.99,13.99,0,0,1-8.294,2.457q-8.034,0-12.382-4.135t-4.347-11.271a13.48,13.48,0,0,1,5.789-11.649q5.788-4.136,16.895-4.136h7.7v-4.064a7.955,7.955,0,0,0-1.938-5.718,7.536,7.536,0,0,0-5.718-2.032,7.5,7.5,0,0,0-5.175,1.63,5.75,5.75,0,0,0-1.819,4.513l-13.327-.047-.047-.283q-.332-6.475,5.623-11.177t15.643-4.7q9.168,0,14.886,4.655t5.719,13.256v21.124a40,40,0,0,0,.543,6.758,34.027,34.027,0,0,0,1.725,6.286Zm-12.618-9.216a11.834,11.834,0,0,0,6.474-1.8,9.353,9.353,0,0,0,3.828-4.158v-7.231h-7.7q-4.395,0-6.664,2.2a7.13,7.13,0,0,0-2.268,5.316,5.313,5.313,0,0,0,1.7,4.112A6.594,6.594,0,0,0-2376.2,1452.8Z"/>
        <path id="Path_791" data-name="Path 791" d="M-2325.206,1398.357v12.524h8.6v9.688h-8.6v26.039q0,2.977,1.228,4.254a4.384,4.384,0,0,0,3.309,1.276,12.782,12.782,0,0,0,1.866-.118,16.442,16.442,0,0,0,1.82-.4l1.181,9.971a27.719,27.719,0,0,1-4.064,1.064,24.516,24.516,0,0,1-4.3.354q-7.136,0-10.987-3.922t-3.852-12.429v-26.087h-7.467v-9.688h7.467v-12.524Z"/>
        <path id="Path_792" data-name="Path 792" d="M-2293.307,1398.641h-13.8v-10.35h13.8Zm0,63.374h-13.8v-51.134h13.8Z"/>
        <path id="Path_793" data-name="Path 793" d="M-2284.091,1435.975q0-11.436,6.38-18.738t17.674-7.3q11.343,0,17.77,7.277t6.427,18.762v.993q0,11.531-6.4,18.785t-17.7,7.254q-11.342,0-17.746-7.254t-6.4-18.785Zm13.752.969q0,6.983,2.458,11.208t7.939,4.222a8.4,8.4,0,0,0,7.821-4.245q2.481-4.248,2.481-11.185v-.992q0-6.794-2.5-11.091a8.483,8.483,0,0,0-7.893-4.292,8.377,8.377,0,0,0-7.821,4.316,22.018,22.018,0,0,0-2.481,11.067Z"/>
        <path id="Path_794" data-name="Path 794" d="M-2214.715,1410.881l.614,7.325a18.7,18.7,0,0,1,6.285-6.1,16.311,16.311,0,0,1,8.365-2.174q7.75,0,12.1,4.867t4.348,15.265v31.947h-13.847V1430.04q0-5.157-2.079-7.317t-6.285-2.154a10.6,10.6,0,0,0-4.915,1.114,10.107,10.107,0,0,0-3.639,3.147v37.185h-13.8v-51.134Z"/>
        <path id="Path_795" data-name="Path 795" d="M-2145.056,1447.932a4.822,4.822,0,0,0-2.2-3.923q-2.2-1.655-8.152-2.93-9.074-1.844-13.681-5.458a11.851,11.851,0,0,1-4.608-9.854,14.088,14.088,0,0,1,5.553-11.224q5.553-4.606,14.863-4.607,9.783,0,15.572,4.584a13.54,13.54,0,0,1,5.553,11.578l-.095.284h-13.327a6.738,6.738,0,0,0-1.961-5.01,7.839,7.839,0,0,0-5.742-1.937,7.869,7.869,0,0,0-5.269,1.63,5.149,5.149,0,0,0-1.914,4.088,4.65,4.65,0,0,0,2.008,3.875q2.009,1.512,8.152,2.694,9.452,1.89,14.036,5.553a12.2,12.2,0,0,1,4.584,10.09,13.437,13.437,0,0,1-5.907,11.271q-5.907,4.371-15.6,4.371-10.207,0-16.138-5.175t-5.648-11.791l.095-.283h12.618q.141,4.111,2.693,5.954a11.122,11.122,0,0,0,6.664,1.843,9.587,9.587,0,0,0,5.836-1.512A4.874,4.874,0,0,0-2145.056,1447.932Z"/>
      </g>
      <g id="Group_115" data-name="Group 115">
        <path id="Path_796" data-name="Path 796" d="M-2720.986,1562.559l.092.27q-.861,9.861-7.023,15.509t-16.522,5.649q-10.941,0-17.649-7.9t-6.708-20.461v-10.669q0-12.513,6.708-20.46t17.649-7.945q10.44,0,16.566,5.537t6.979,15.575l-.092.27h-5.042q-1.08-8.146-5.6-12.469t-12.806-4.322a16.631,16.631,0,0,0-13.8,6.657q-5.2,6.658-5.2,17.049V1555.6q0,10.525,5.2,17.162a16.651,16.651,0,0,0,13.8,6.634q8.28,0,12.828-4.22t5.583-12.617Z"/>
        <path id="Path_797" data-name="Path 797" d="M-2702.482,1583.042h-5.361v-70.228h5.361Z"/>
        <path id="Path_798" data-name="Path 798" d="M-2681.55,1520.377h-5.36v-7.563h5.36Zm0,62.665h-5.36v-48.709h5.36Z"/>
        <path id="Path_799" data-name="Path 799" d="M-2662.1,1534.333l.5,8.059a17.089,17.089,0,0,1,6.233-6.617,17.709,17.709,0,0,1,9.3-2.343,15.6,15.6,0,0,1,9.343,2.7,14.865,14.865,0,0,1,5.378,8.238,18.59,18.59,0,0,1,6.281-8.035,16.654,16.654,0,0,1,9.927-2.905q7.783,0,12.018,5.178t4.231,16.026v28.406h-5.4v-28.553q0-9.021-3.175-12.742a11,11,0,0,0-8.846-3.722q-6.259,0-9.679,3.925a18.622,18.622,0,0,0-4.232,10.059q0,.315.022.9c.015.391.022.676.022.857v29.274h-5.444v-28.553q0-8.84-3.219-12.653a10.967,10.967,0,0,0-8.846-3.811q-5.721,0-9.072,2.909a15.471,15.471,0,0,0-4.7,7.826v34.282h-5.448v-48.709Z"/>
        <path id="Path_800" data-name="Path 800" d="M-2554.108,1583.042q-.537-2.474-.763-4.276a29.411,29.411,0,0,1-.227-3.647,21.51,21.51,0,0,1-7.2,6.349,20.391,20.391,0,0,1-10.129,2.519q-7.114,0-11.053-3.78a13.384,13.384,0,0,1-3.939-10.13,12.55,12.55,0,0,1,5.832-10.805q5.826-4.05,15.733-4.05h10.757v-6.032a10.379,10.379,0,0,0-3.354-8.194q-3.354-2.971-9.383-2.971a14.951,14.951,0,0,0-9.343,2.836,8.462,8.462,0,0,0-3.712,6.933l-4.955-.046-.087-.27q-.275-5.445,4.972-9.747t13.348-4.3q8.057,0,12.964,4.1t4.907,11.749v23.949a41.171,41.171,0,0,0,.3,5,31.4,31.4,0,0,0,.964,4.817Zm-17.691-3.827a19.274,19.274,0,0,0,10.263-2.722,16.124,16.124,0,0,0,6.438-6.955v-10.174h-10.848q-7.338,0-11.729,3.127t-4.388,7.767a8.368,8.368,0,0,0,2.726,6.46Q-2576.619,1579.217-2571.8,1579.215Z"/>
        <path id="Path_801" data-name="Path 801" d="M-2526.916,1521.863v12.47h10.713v4.412h-10.713v31.737q0,4.774,1.732,6.776a5.8,5.8,0,0,0,4.615,2q1.305,0,2.543-.112t2.861-.383l.808,4.006a13.989,13.989,0,0,1-3.285.9,24.043,24.043,0,0,1-3.873.314,10.088,10.088,0,0,1-7.988-3.241q-2.86-3.238-2.861-10.264v-31.737h-8.418v-4.412h8.418v-12.47Z"/>
        <path id="Path_802" data-name="Path 802" d="M-2486.49,1583.987a19.541,19.541,0,0,1-15.192-6.752q-6.057-6.753-6.055-17.106v-2.477q0-10.445,6.007-17.332a18.656,18.656,0,0,1,14.564-6.888q8.956,0,14.09,5.673t5.133,15.127v4.591h-34.393v1.3a21.471,21.471,0,0,0,4.366,13.745,13.928,13.928,0,0,0,11.48,5.525,23.528,23.528,0,0,0,8.6-1.4,16.9,16.9,0,0,0,6.076-4.006l2.3,3.692a19.54,19.54,0,0,1-6.956,4.6A26.623,26.623,0,0,1-2486.49,1583.987Zm-.676-45.962a12.891,12.891,0,0,0-10.037,4.557,19.549,19.549,0,0,0-4.728,11.425l.092.225h28.54v-1.348a15.494,15.494,0,0,0-3.738-10.6A12.784,12.784,0,0,0-2487.166,1538.025Z"/>
        <path id="Path_803" data-name="Path 803" d="M-2388.212,1562.559l.091.27q-.861,9.861-7.023,15.509t-16.522,5.649q-10.939,0-17.648-7.9t-6.709-20.461v-10.669q0-12.513,6.709-20.46t17.648-7.945q10.44,0,16.566,5.537t6.979,15.575l-.091.27h-5.043q-1.08-8.146-5.605-12.469t-12.806-4.322a16.632,16.632,0,0,0-13.8,6.657q-5.2,6.658-5.2,17.049V1555.6q0,10.525,5.2,17.162a16.651,16.651,0,0,0,13.8,6.634q8.281,0,12.828-4.22t5.583-12.617Z"/>
        <path id="Path_804" data-name="Path 804" d="M-2370.341,1542.662a17.907,17.907,0,0,1,6.481-6.8,18.042,18.042,0,0,1,9.457-2.432q7.7,0,11.816,4.772t4.118,14.811v30.027h-5.4v-30.177q0-7.938-3.132-11.389a11.048,11.048,0,0,0-8.619-3.451,14.553,14.553,0,0,0-9.252,2.909,16.9,16.9,0,0,0-5.469,7.737v34.371h-5.4v-70.228h5.4Z"/>
        <path id="Path_805" data-name="Path 805" d="M-2293.589,1583.042q-.537-2.474-.764-4.276a29.6,29.6,0,0,1-.226-3.647,21.513,21.513,0,0,1-7.2,6.349,20.39,20.39,0,0,1-10.128,2.519q-7.115,0-11.053-3.78a13.383,13.383,0,0,1-3.939-10.13,12.552,12.552,0,0,1,5.831-10.805q5.828-4.05,15.734-4.05h10.757v-6.032a10.378,10.378,0,0,0-3.354-8.194q-3.355-2.971-9.383-2.971a14.948,14.948,0,0,0-9.343,2.836,8.46,8.46,0,0,0-3.713,6.933l-4.954-.046-.088-.27q-.274-5.445,4.973-9.747t13.347-4.3q8.058,0,12.964,4.1t4.907,11.749v23.949a41.37,41.37,0,0,0,.3,5,31.373,31.373,0,0,0,.965,4.817Zm-17.692-3.827a19.278,19.278,0,0,0,10.264-2.722,16.121,16.121,0,0,0,6.438-6.955v-10.174h-10.848q-7.34,0-11.729,3.127t-4.389,7.767a8.369,8.369,0,0,0,2.726,6.46Q-2316.1,1579.217-2311.281,1579.215Z"/>
        <path id="Path_806" data-name="Path 806" d="M-2270.088,1534.333l.494,8.508a17.359,17.359,0,0,1,6.325-6.955,17.627,17.627,0,0,1,9.43-2.454q7.926,0,12.065,4.84t4.143,15.1v29.667h-5.4v-29.68q0-8.391-3.127-11.864t-8.89-3.473a13.915,13.915,0,0,0-9.252,3,16.712,16.712,0,0,0-5.155,7.96v34.057h-5.4v-48.709Z"/>
        <path id="Path_807" data-name="Path 807" d="M-2225.653,1559.093q0-11.66,4.973-18.66a16.031,16.031,0,0,1,13.844-7,17.046,17.046,0,0,1,8.956,2.275,18.209,18.209,0,0,1,6.259,6.414l.632-7.788h4.545v48.079q0,9.408-5.2,14.857t-14.473,5.446a35.445,35.445,0,0,1-7.472-.855,29.285,29.285,0,0,1-6.935-2.341l1.4-4.547a27.383,27.383,0,0,0,6.076,2.183,30.22,30.22,0,0,0,6.843.744q7.114,0,10.739-4.1t3.621-11.389v-6.122a17.069,17.069,0,0,1-6.255,5.695,18.589,18.589,0,0,1-8.824,2q-8.781,0-13.753-6.528t-4.973-17.421Zm5.4.95q0,8.819,3.6,14.086t10.713,5.267a14.977,14.977,0,0,0,8.711-2.41,15.575,15.575,0,0,0,5.378-6.639v-22.6a17.135,17.135,0,0,0-5.152-7,13.714,13.714,0,0,0-8.846-2.726,11.871,11.871,0,0,0-10.76,5.877q-3.645,5.879-3.647,15.193Z"/>
        <path id="Path_808" data-name="Path 808" d="M-2153.9,1583.987a19.541,19.541,0,0,1-15.192-6.752q-6.057-6.753-6.055-17.106v-2.477q0-10.445,6.007-17.332a18.657,18.657,0,0,1,14.564-6.888q8.956,0,14.09,5.673t5.133,15.127v4.591h-34.393v1.3a21.471,21.471,0,0,0,4.366,13.745,13.928,13.928,0,0,0,11.48,5.525,23.528,23.528,0,0,0,8.6-1.4,16.9,16.9,0,0,0,6.076-4.006l2.3,3.692a19.554,19.554,0,0,1-6.957,4.6A26.624,26.624,0,0,1-2153.9,1583.987Zm-.676-45.962a12.891,12.891,0,0,0-10.037,4.557,19.555,19.555,0,0,0-4.728,11.425l.092.225h28.54v-1.348a15.494,15.494,0,0,0-3.738-10.6A12.784,12.784,0,0,0-2154.572,1538.025Z"/>
      </g>
    </g>
  </g>
</svg>
