<svg xmlns="http://www.w3.org/2000/svg" width="144" height="40.372" viewBox="0 0 144 40.372">
  <g id="Maria_DB" data-name="Maria DB" transform="translate(41.287 -89.177)">
    <g id="Group_241" data-name="Group 241" transform="translate(19.215 101.177)">
      <path id="Path_1839" data-name="Path 1839" d="M36.7,190.326c-1.67,3.34-3.3,6.681-5.188,10.412l-5.366-10.731c-.746,2.523-.711,4.762-1.137,6.965-.142.675-.213,1.386-.32,2.1-.107.6.071,1.492-.959,1.315s-.533-1.066-.462-1.6q.746-5.49,1.6-10.98a3.42,3.42,0,0,1,.6-2.2c2.025,4.015,3.944,7.889,6.005,12.011,2.025-4.122,3.98-8,5.9-11.869h.391l.64,4.584c.426,2.914.888,5.828,1.279,8.706.071.5.462,1.244-.5,1.386-.888.142-.888-.6-.959-1.137-.426-2.949-.817-5.9-1.244-8.848A2.448,2.448,0,0,0,36.7,190.326Z" transform="translate(-23.087 -185.103)" fill="#aa7b4e"/>
      <path id="Path_1840" data-name="Path 1840" d="M191.84,200.1c-3.3-.071-3.3-.071-3.3-3.376,0-3.482.036-6.929-.036-10.412,0-.995.284-1.35,1.279-1.315a44.057,44.057,0,0,1,5.295.284c3.731.569,6.076,3.447,6.041,7.462a6.7,6.7,0,0,1-6.148,7.107C193.972,199.991,192.906,200.027,191.84,200.1Zm-1.848-7.675v4.939c0,.6-.036,1.208.853,1.173a22.609,22.609,0,0,0,4.9-.284c2.559-.64,3.944-2.878,3.8-5.97a5.459,5.459,0,0,0-4.8-5.437c-1.208-.178-2.452-.107-3.7-.213-.888-.071-1.137.284-1.1,1.1C189.992,189.26,189.992,190.823,189.992,192.422Z" transform="translate(-129.722 -184.711)" fill="#aa7b4e"/>
      <path id="Path_1841" data-name="Path 1841" d="M238.85,191.746c1.741.959,2.985,2.2,2.772,4.3a4.188,4.188,0,0,1-3.7,3.7c-4.833.959-5.295.6-5.295-4.158,0-3.056.071-6.112-.036-9.168-.036-1.279.391-1.706,1.6-1.564.995.107,1.99.036,2.985.213,3.269.64,4.229,3.447,2.168,6.041C239.17,191.355,238.993,191.533,238.85,191.746Zm-4.9,3.767c.64.959-.959,3.02,1.777,2.878,2.949-.142,4.264-.853,4.3-2.736,0-1.919-1.67-2.949-4.548-2.985C232.952,192.67,234.622,194.589,233.947,195.513Zm.071-6.752c.5.782-.924,2.523,1.35,2.452,2.132-.071,3.411-.959,3.447-2.452.036-1.528-1.173-2.31-3.447-2.381C233.343,186.31,234.373,187.838,234.018,188.761Z" transform="translate(-158.148 -184.604)" fill="#aa7b4e"/>
      <path id="Path_1842" data-name="Path 1842" d="M86.346,205.2c-3.625,2.452-6.361,2.345-8.6-.284a5.764,5.764,0,0,1,.284-7.853c2.31-2.381,5.081-2.381,8.209,0,.426-.178.213-.6.249-.888.036-.569.355-.675.817-.64s.6.32.6.711v9.7c0,.533-.32.711-.782.675C86.1,206.584,86.807,205.553,86.346,205.2Zm.178-3.98a4.319,4.319,0,1,0-8.635-.178,4.442,4.442,0,0,0,4.335,4.619A4.392,4.392,0,0,0,86.523,201.218Z" transform="translate(-57.416 -191.34)" fill="#aa7b4e"/>
      <path id="Path_1843" data-name="Path 1843" d="M157.153,205.335c-3.518,2.416-6.219,2.381-8.457-.107a5.76,5.76,0,0,1,0-7.853c2.2-2.487,5.117-2.523,8.564-.071a8.238,8.238,0,0,0,.071-.853c0-.5.142-.782.711-.746.569,0,.711.284.711.782v9.523c0,.462-.071.817-.64.853C156.869,206.863,157.544,205.726,157.153,205.335Zm.178-3.944a4.32,4.32,0,1,0-8.635-.249A4.444,4.444,0,0,0,153,205.8,4.391,4.391,0,0,0,157.331,201.39Z" transform="translate(-103.066 -191.476)" fill="#aa7b4e"/>
      <path id="Path_1844" data-name="Path 1844" d="M116.267,195.56c.284.036.64,0,.711.391.178.924.5.426.853.107a2.757,2.757,0,0,1,.853-.569c.64-.249,1.528-.284,1.741.284.249.675-.426.959-1.173,1.1-1.848.355-1.99,1.99-2.132,3.411-.142,1.706-.071,3.411-.107,5.117,0,.533.249,1.279-.711,1.315-.924.036-.817-.64-.817-1.244v-8.635C115.486,196.27,115.344,195.56,116.267,195.56Z" transform="translate(-82.648 -191.367)" fill="#aa7b4e"/>
      <path id="Path_1845" data-name="Path 1845" d="M137.205,201.712v4.406c0,.569,0,1.1-.782,1.066-.711-.036-.64-.533-.64-.995v-8.955c0-.5-.142-1.1.711-1.137.817-.036.746.569.746,1.1C137.205,198.691,137.205,200.184,137.205,201.712Z" transform="translate(-95.731 -191.869)" fill="#aa7b4e"/>
      <path id="Path_1846" data-name="Path 1846" d="M135.6,184.2c.6.107,1.137.391,1.173,1.1a1.14,1.14,0,1,1-2.274.107C134.461,184.7,134.887,184.307,135.6,184.2Z" transform="translate(-94.907 -184.2)" fill="#aa7b4e"/>
    </g>
    <g id="Group_240" data-name="Group 240" transform="translate(-41.287 89.177)">
      <path id="Path_1838" data-name="Path 1838" d="M115.241,62.794a17.71,17.71,0,0,1-4.919,1.052,11.2,11.2,0,0,0-8.888,5.36c-1.391,2.035-2.68,4.139-4,6.242a14.9,14.9,0,0,1-8.718,6.479c-2.035.611-4.139,1.052-6.208,1.526-5.665,1.323-10.55,3.8-13.6,9.023a5.082,5.082,0,0,1-4.478,2.51,17.552,17.552,0,0,0-5.631.814c-.78.305-1.967.645-1.9,1.391.068.984,1.255,1.086,2.2,1.119.068,0,.1.136.2.2a3.38,3.38,0,0,1-.373.339c-.543.441-1.527.678-1.221,1.594.271.78,1.153.78,1.866.916a7.142,7.142,0,0,0,.848.068,14.122,14.122,0,0,0,9.668-3.257A13.189,13.189,0,0,1,78.6,95.529a102.416,102.416,0,0,1,10.719,1.086c1.221.136,1.357.577.746,1.459-.984,1.527-2,3.019-3.257,4.885,4.206-.611,8.04-1.018,10.414-4.783a7.885,7.885,0,0,1,1.934-2.307,1.148,1.148,0,0,1,1.73.068,5.9,5.9,0,0,0,7.293.475c-2.273-2.341-2.51-5.088-1.628-8.107a93.7,93.7,0,0,0,2.816-11.432,9.717,9.717,0,0,1,4.206-6.784,18.111,18.111,0,0,0,2.273-2,5.275,5.275,0,0,0,1.526-3.664C117.514,62.862,116.733,62.217,115.241,62.794Zm-8.854,33.379c-1.628.237-3.494.2-4-1.119-.611-1.628,1.357-2.51,2.476-3.765A19.963,19.963,0,0,0,106.387,96.173Zm9.566-29.411a4.728,4.728,0,0,1-2.1,2.341c-3.494,1.866-4.953,4.919-5.563,8.684A39.524,39.524,0,0,1,105.268,88.1a14.375,14.375,0,0,1-3.358,4.783c-.339.271-.645.78-1.119.645-.509-.17-.271-.78-.407-1.187-.1-.305-.136-.645-.339-1.56-2.171,5.292-4.783,9.566-10.923,10.719,1.934-2.68,3.426-5.122,3.935-7.972a7.606,7.606,0,0,0,.237-3.121c-1.255.78-1.425,1.967-1.764,2.951a2.572,2.572,0,0,1-2.849,2,52.7,52.7,0,0,1-6.547-.543c-4.478-.678-8.582-.1-12.348,2.578a14.582,14.582,0,0,1-10.109,2.985c-.271-.034-.543-.068-.984-.1.611-1.052,1.967-1.187,2.239-2.442-.712-.339-1.425-.1-2.1-.2-.271-.034-.611-.068-.712-.339-.1-.407.271-.611.577-.678a17.149,17.149,0,0,1,2.273-.577,7.039,7.039,0,0,1,1.7-.068A8.161,8.161,0,0,0,70.6,91.764c2.951-4.681,7.938-6.377,13.06-7.531a50.818,50.818,0,0,0,5.529-1.425A18.056,18.056,0,0,0,99.84,73.819a32.4,32.4,0,0,1,3.562-5.5,9.815,9.815,0,0,1,7.9-3.494c1.425-.034,2.816-.441,4.206.509C116.258,65.813,116.225,66.186,115.953,66.763Z" transform="translate(-56.892 -62.586)" fill="#12376a"/>
      <path id="Path_1847" data-name="Path 1847" d="M193.172,147.2a21.538,21.538,0,0,0,1.526,4.885c-1.628.237-3.494.2-4-1.119C190.119,149.3,192.052,148.455,193.172,147.2Z" transform="translate(-145.238 -118.497)" fill="#c1986b"/>
      <path id="Path_1848" data-name="Path 1848" d="M208,74.343A1.649,1.649,0,0,1,206.13,75.7c-.373-.1-1.052.068-.95-.577.17-1.052,1.052-1.357,1.968-1.459C207.656,73.6,208.1,73.7,208,74.343Z" transform="translate(-154.871 -69.894)" fill="#12376a"/>
      <path id="Path_1849" data-name="Path 1849" d="M117.863,69.384c-1.391-.95-2.782-.543-4.206-.509a9.86,9.86,0,0,0-7.9,3.494,32.406,32.406,0,0,0-3.562,5.5,18.056,18.056,0,0,1-10.652,8.989c-1.832.611-3.7.984-5.529,1.425-5.122,1.153-10.109,2.883-13.06,7.531a8.161,8.161,0,0,1-7.938,4.206,9.464,9.464,0,0,0-1.7.068,17.152,17.152,0,0,0-2.273.577c-.305.1-.678.271-.577.678.068.305.407.305.712.339.678.1,1.425-.136,2.1.2-.305,1.221-1.628,1.391-2.239,2.442.441.034.712.068.984.1a14.582,14.582,0,0,0,10.109-2.985c3.765-2.68,7.87-3.257,12.348-2.578a46.908,46.908,0,0,0,6.547.543,2.593,2.593,0,0,0,2.849-2c.339-1.018.509-2.171,1.764-2.951a7.606,7.606,0,0,1-.237,3.121,19.925,19.925,0,0,1-3.935,7.972c6.14-1.153,8.752-5.461,10.923-10.719a12.314,12.314,0,0,0,.339,1.56c.136.407-.1,1.018.407,1.187.475.17.78-.373,1.119-.645a13.462,13.462,0,0,0,3.358-4.783,39.524,39.524,0,0,0,3.019-10.312c.611-3.765,2.069-6.818,5.563-8.684a4.728,4.728,0,0,0,2.1-2.341C118.576,70.266,118.609,69.893,117.863,69.384Zm-5.5,1.73a1.649,1.649,0,0,1-1.866,1.357c-.373-.1-1.052.068-.95-.577.17-1.052,1.052-1.357,1.967-1.459C112.029,70.368,112.47,70.469,112.368,71.114Zm1.357,1.526-.17-.034a4.981,4.981,0,0,1,1.018-1.967,4.3,4.3,0,0,1,.373-.441,11.6,11.6,0,0,1,1.086-1.119l.1.136a11.912,11.912,0,0,0-.848.882c-.271.305-.577.678-.848,1.052A3.759,3.759,0,0,0,113.725,72.64Zm.543.2-.17-.034a3.906,3.906,0,0,1,.543-1.323,12.231,12.231,0,0,1,1.119-1.425c.068-.034.1-.1.136-.136.339-.373.645-.645.645-.678l.1.136s-.407.407-.916.95h0a10.984,10.984,0,0,0-.916,1.187A3.906,3.906,0,0,0,114.267,72.844Zm.916.339a4.654,4.654,0,0,1,.645-2.137.851.851,0,0,1,.136-.237,14.179,14.179,0,0,1,.814-1.289l.136.1a10.279,10.279,0,0,0-.882,1.391.105.105,0,0,1-.034.068,4.734,4.734,0,0,0-.678,2.137Zm.882-.17-.17.034a3.5,3.5,0,0,1,.373-1.628c0-.034.034-.068.034-.1a12.412,12.412,0,0,1,.95-1.7l.136.1C117.388,69.757,115.93,71.894,116.065,73.014Z" transform="translate(-59.243 -66.665)" fill="#c1986b"/>
      <g id="Group_216" data-name="Group 216" transform="translate(54.312 2.413)">
        <path id="Path_1850" data-name="Path 1850" d="M219.612,69.8a11.915,11.915,0,0,0-.848.882c-.271.305-.577.678-.848,1.052a4.23,4.23,0,0,0-.746,1.527l-.17-.034a4.981,4.981,0,0,1,1.018-1.967,4.3,4.3,0,0,1,.373-.441,11.6,11.6,0,0,1,1.086-1.119Z" transform="translate(-217 -69.7)" fill="#12376a"/>
      </g>
      <g id="Group_217" data-name="Group 217" transform="translate(54.855 2.549)">
        <path id="Path_1851" data-name="Path 1851" d="M221.178,70.27s-.407.407-.916.95h0a10.988,10.988,0,0,0-.916,1.187,3.884,3.884,0,0,0-.577,1.289l-.17-.034a3.906,3.906,0,0,1,.543-1.323,12.233,12.233,0,0,1,1.119-1.425c.068-.034.1-.1.136-.136.339-.373.645-.645.645-.678Z" transform="translate(-218.6 -70.1)" fill="#12376a"/>
      </g>
      <g id="Group_218" data-name="Group 218" transform="translate(55.937 2.854)">
        <path id="Path_1852" data-name="Path 1852" d="M223.559,71.068a10.277,10.277,0,0,0-.882,1.391.105.105,0,0,1-.034.068,4.734,4.734,0,0,0-.678,2.137h-.17a4.654,4.654,0,0,1,.645-2.137.851.851,0,0,1,.136-.237A14.167,14.167,0,0,1,223.389,71Z" transform="translate(-221.792 -71)" fill="#12376a"/>
      </g>
      <g id="Group_219" data-name="Group 219" transform="translate(56.639 2.956)">
        <path id="Path_1853" data-name="Path 1853" d="M224.044,74.692l-.17.034a3.5,3.5,0,0,1,.373-1.628c0-.034.034-.068.034-.1a12.41,12.41,0,0,1,.95-1.7l.136.1C225.367,71.436,223.908,73.573,224.044,74.692Z" transform="translate(-223.861 -71.3)" fill="#12376a"/>
      </g>
    </g>
  </g>
</svg>
