<svg xmlns="http://www.w3.org/2000/svg" width="143.999" height="64.686" viewBox="0 0 143.999 64.686">
  <g id="MySQL" transform="translate(-25.276 -41.846)">
    <path id="Path_1866" data-name="Path 1866" d="M93.6,180.32a6.674,6.674,0,0,0,.092-2.521c-.046-.871.321-.962,1.054-.962,3.666.046,7.333,0,11,0,2.429,0,3.346-1.146,2.979-3.483-.092-.642-.5-.412-.825-.412h-7.424a7.678,7.678,0,0,1-5.041-1.558,4.41,4.41,0,0,1-1.742-3.62c0-3.529.046-7.058,0-10.586,0-.642.183-.825.825-.779a19.893,19.893,0,0,0,2.337,0c.733-.046.917.229.871.917-.046,3.345,0,6.737,0,10.082,0,1.65.6,2.337,2.246,2.337,2.7.046,5.454,0,8.158.046.779,0,.687-.458.687-.917,0-3.8.046-7.608,0-11.411,0-.871.137-1.237,1.1-1.146.917.137,2.154-.367,2.75.183.642.6.183,1.879.183,2.841.046,4.9,0,9.762,0,14.665,0,3.575-1.146,5.087-4.629,6.1-.137.046-.275.092-.275.229Z" transform="translate(-37.012 -73.788)" fill="#07658e"/>
    <path id="Path_1867" data-name="Path 1867" d="M39.356,159.981l5.637-16.223c.137-.367.229-.687.367-1.054.962-2.612,2.75-3.483,5.408-2.658,1.787.55,2.475,1.512,2.521,3.575.046,3.62,0,7.2,0,10.816,0,2.933-.046,5.912,0,8.845,0,.779-.229,1.008-.962.962-1.008-.092-2.337.412-2.933-.229-.5-.6-.137-1.879-.137-2.841V144.445c-.458.275-.458.687-.55,1.008-1.925,5.454-3.8,10.953-5.729,16.407-.779,2.2-2.108,2.979-4.308,2.7a3.416,3.416,0,0,1-2.887-2.658c-1.329-3.85-2.7-7.7-4.033-11.549-.687-1.925-1.375-3.9-2.108-6a1.53,1.53,0,0,0-.183,1.054v17.827c0,.825-.137,1.192-1.054,1.1-.962-.137-2.246.412-2.841-.229-.55-.6-.137-1.833-.137-2.75V143.94c.046-2.521.917-3.575,3.3-3.987a3.721,3.721,0,0,1,4.537,2.7c1.833,5.316,3.62,10.678,5.408,15.994.183.5.321,1.008.5,1.512C39.219,159.981,39.265,159.981,39.356,159.981Z" transform="translate(0 -64.86)" fill="#06648d"/>
    <path id="Path_1868" data-name="Path 1868" d="M208.239,168.243h-4.125a1.29,1.29,0,0,1-.962-.458c-.733-.871-1.512-1.7-2.154-2.566a1.518,1.518,0,0,0-1.558-.642,30.89,30.89,0,0,1-6.829.138c-3.62-.229-5.958-2.2-5.912-5.958.046-3.987.046-8.02,0-12.007-.046-3.758,2.246-5.683,5.82-5.912a63.318,63.318,0,0,1,8.341,0c3.85.275,5.866,2.383,5.82,5.958-.046,3.987,0,8.02,0,12.007,0,1.833-.321,3.529-2.016,4.629-.55.321-.046.55.092.779C205.856,165.448,206.956,166.731,208.239,168.243Zm-10.632-6.966c-.871-1.008-1.6-1.833-2.291-2.7-.275-.321-.825-.642-.642-1.054.183-.367.779-.092,1.237-.183A4.555,4.555,0,0,1,201,159.673c.229.367.5,1.008.962.917.642-.137.779-.871.917-1.467a5.838,5.838,0,0,0,.046-.917v-11c0-2.016-.962-2.979-3.025-3.025h-5.5c-2.475,0-3.391.917-3.391,3.346V157.7a7.423,7.423,0,0,0,.046,1.008,2.606,2.606,0,0,0,2.8,2.521C195.04,161.323,196.186,161.277,197.606,161.277Z" transform="translate(-87.444 -65.378)" fill="#e59104"/>
    <path id="Path_1869" data-name="Path 1869" d="M236.374,88.594c-1.833-2.429-4.216-3.758-6.462-5.316a10.544,10.544,0,0,1-3.941-4.95c-.321-.871-.046-1.192.687-1.558a12.558,12.558,0,0,1,5.316-1.237c.275,0,.6.137.733-.137.183-.321-.137-.6-.367-.779-2.521-2.154-4.766-4.72-8.066-5.683a3.9,3.9,0,0,1-2.566-2.7c-1.375-3.666-2.658-7.333-3.941-11-2.383-6.874-6.324-12.649-12.557-16.682a9.685,9.685,0,0,0-4.858-1.329,2.356,2.356,0,0,1-1.741-.917,11.911,11.911,0,0,0-4.216-2.8,1.11,1.11,0,0,0-1.421.092,1.357,1.357,0,0,0-.275,1.421,6.949,6.949,0,0,0,.917,2.154,24.821,24.821,0,0,1,3.666,8.982,14.538,14.538,0,0,0,2.566,6.141,2.978,2.978,0,0,1,.183,2.841,22.848,22.848,0,0,0-.917,9.945,17.993,17.993,0,0,0,.917,3.758,3.2,3.2,0,0,0,.642,1.237c.183.183.367.5.642.412.367-.092.229-.458.229-.687.137-1.283.275-2.566.458-3.85a8.518,8.518,0,0,1,1.925-4.125,54.922,54.922,0,0,0,6.645,14.849c-2.75-2.841-5.5-5.729-6.416-9.807a.651.651,0,0,1-.275.092c-.138,1.1-.275,2.154-.412,3.254a4.631,4.631,0,0,1-.321,1.375,1.565,1.565,0,0,1-2.75.6,6.672,6.672,0,0,1-1.65-2.8,21.665,21.665,0,0,1-.687-11.961c.229-1.146.458-2.246.733-3.391a.937.937,0,0,0-.137-.779c-1.971-2.8-2.658-6.049-3.437-9.3a18.069,18.069,0,0,0-2.337-5.041,13.38,13.38,0,0,1-1.421-2.8,5.459,5.459,0,0,1-.275-2.108c.183-2.337,1.787-3.391,3.987-2.612a10.378,10.378,0,0,1,4.216,2.75,2.626,2.626,0,0,0,1.925.962,10.631,10.631,0,0,1,6.233,2.475,36,36,0,0,1,12.374,18.148c1.008,3.254,2.291,6.37,3.483,9.578a2.941,2.941,0,0,0,1.467,1.6,25.5,25.5,0,0,1,9.67,8.8c.458.733.275.962-.412,1.237-1.65.642-3.483.642-5.133,1.283-.733.275-.733.5-.321,1.054a7.855,7.855,0,0,0,1.787,1.7c2.337,1.65,3.85,3.987,5.454,6.233A1.6,1.6,0,0,1,236.374,88.594Z" transform="translate(-67.098 10.7)" fill="#0b6890"/>
    <path id="Path_1870" data-name="Path 1870" d="M153.32,140.776h6c.6,0,.733.183.779.733.092,2.7.092,2.7-2.566,2.7H149.2c-.5,0-1.008.046-1.512.092a1.672,1.672,0,0,0-1.558,1.833v2.337c.046,1.741.779,2.475,2.475,2.521,2.062.046,4.125-.092,6.233.137a6.826,6.826,0,0,1,3.575,1.558,3.932,3.932,0,0,1,1.512,3.208v2.933a5.461,5.461,0,0,1-4.766,5.683,18.7,18.7,0,0,1-3.575.183h-8.57c-.733,0-1.008-.137-1.008-.917,0-2.612,0-2.612,2.566-2.612h8.157c2.383,0,3.071-.733,3.071-3.116v-.733c.229-2.8-1.146-3.071-3.116-3.162-1.6-.092-3.208,0-4.766-.046a6.983,6.983,0,0,1-3.987-1.375,4.264,4.264,0,0,1-1.879-3.666v-2.933a5.217,5.217,0,0,1,5.316-5.362c2.016-.046,3.987,0,5.958,0Z" transform="translate(-63.231 -65.408)" fill="#e59104"/>
    <path id="Path_1871" data-name="Path 1871" d="M235.7,150.272v-8.662c0-.687.183-.962.917-.917a18.353,18.353,0,0,0,2.246,0c.733-.046.917.275.871.917-.046,5.408,0,10.861,0,16.315,0,2.521.687,3.208,3.208,3.254,3.208.046,6.37.046,9.578,0,.733,0,1.054.137,1.054,1.008-.046,2.521,0,2.566-2.566,2.521a85.127,85.127,0,0,1-9.67-.183,6.431,6.431,0,0,1-4.4-2.062,5.993,5.993,0,0,1-1.237-3.987C235.7,155.726,235.7,153.022,235.7,150.272Z" transform="translate(-113.989 -65.372)" fill="#e59104"/>
    <path id="Path_1872" data-name="Path 1872" d="M213,56.572a14.213,14.213,0,0,0-1.237-2.658c-.183-.229-.55-.642-.275-.871a.978.978,0,0,1,1.283.046A2.3,2.3,0,0,1,213,56.572Z" transform="translate(-78.046 -1.044)" fill="#0b6890"/>
  </g>
</svg>
