<svg xmlns="http://www.w3.org/2000/svg" width="144" height="30.246" viewBox="0 0 144 30.246">
  <g id="Nginix" transform="translate(-28.9 -116)">
    <path id="Path_1873" data-name="Path 1873" d="M113.043,136.042h-6.095a8.139,8.139,0,0,1-2.306-.11,3.335,3.335,0,0,1-2.416-2.91,3.234,3.234,0,0,1,3.185-3.24h17.736a.589.589,0,0,1-.11.329c-2.581,5.216-5.216,10.488-7.8,15.7a.368.368,0,0,1-.384.22H97.943a.415.415,0,0,1-.384-.22c-2.691-4.777-5.436-9.554-8.126-14.331a.5.5,0,0,1,0-.549q4.118-7.33,8.072-14.661a.489.489,0,0,1,.439-.275h17.516a.411.411,0,0,1,.439.275c1.318,2.581,2.306,5.326,3.459,7.962.384.879.769,1.812,1.1,2.691.055.11.055.22.11.329h-6.04a.368.368,0,0,1-.384-.22c-.714-1.483-1.483-3.02-2.2-4.5-.11-.165-.165-.275-.384-.275h-9.993a.3.3,0,0,0-.329.22c-1.537,2.855-3.13,5.656-4.722,8.511a.327.327,0,0,0,0,.384c1.537,2.745,3.13,5.436,4.667,8.181a.368.368,0,0,0,.384.22H110.9a.368.368,0,0,0,.384-.22C111.89,138.4,112.439,137.25,113.043,136.042Z" transform="translate(-27.258)" fill="#019901"/>
    <path id="Path_1874" data-name="Path 1874" d="M35.16,126.768v16.088a3.085,3.085,0,0,1-2.251,3.075,3.152,3.152,0,0,1-4.008-2.965V119.245a3.093,3.093,0,0,1,2.361-3.13,2.969,2.969,0,0,1,2.965.824L36.7,119.41l15.759,15.759a.594.594,0,0,0,.275.22V119.3a3.085,3.085,0,0,1,2.251-3.075,3.145,3.145,0,0,1,4.008,2.91v23.721a3.093,3.093,0,0,1-2.361,3.13,2.969,2.969,0,0,1-2.965-.824c-1.373-1.373-2.8-2.745-4.173-4.173-4.667-4.667-9.389-9.334-14.057-14.057-.055-.055-.11-.165-.165-.22C35.215,126.768,35.215,126.768,35.16,126.768Z" transform="translate(0 -0.006)" fill="#019901"/>
    <path id="Path_1875" data-name="Path 1875" d="M198.585,126.863c-.11.11-.22.165-.275.275-6.04,6.04-12.135,12.08-18.175,18.12a3.2,3.2,0,0,1-3.624.714,2.947,2.947,0,0,1-1.812-2.581V119.505a3.152,3.152,0,0,1,4.667-2.855,3.011,3.011,0,0,1,1.592,2.745v16.253c.11-.11.22-.165.275-.275,6.04-6.04,12.08-12.025,18.065-18.065a3.28,3.28,0,0,1,2.471-1.043,3.154,3.154,0,0,1,3.02,2.965v24a3.134,3.134,0,0,1-6.26.22V127.357A1.694,1.694,0,0,0,198.585,126.863Z" transform="translate(-65.743 -0.101)" fill="#019901"/>
    <path id="Path_1876" data-name="Path 1876" d="M239.364,116.2a3.039,3.039,0,0,1,2.306,1.043l6.424,6.424,2.965,2.965c.165.165.22.165.384,0,3.13-3.13,6.315-6.26,9.444-9.444a3.146,3.146,0,1,1,4.5,4.393l-4.5,4.5c-1.647,1.647-3.349,3.295-5,4.942-.165.165-.165.22,0,.384,3.185,3.13,6.315,6.26,9.5,9.389a3.1,3.1,0,0,1,.6,3.679,3.146,3.146,0,0,1-5,.769c-2.416-2.416-4.832-4.832-7.3-7.248-.769-.714-1.483-1.483-2.2-2.2-.165-.165-.22-.165-.439,0-3.13,3.13-6.26,6.2-9.389,9.334a3.326,3.326,0,0,1-2.2,1.043,3.119,3.119,0,0,1-3.02-1.867,3.024,3.024,0,0,1,.659-3.459c.824-.879,1.7-1.7,2.581-2.581,2.306-2.306,4.612-4.557,6.919-6.864.165-.165.22-.275,0-.439-3.185-3.13-6.314-6.26-9.5-9.389a2.932,2.932,0,0,1-.824-3.075,3.049,3.049,0,0,1,2.251-2.2.935.935,0,0,1,.384-.055A1.209,1.209,0,0,1,239.364,116.2Z" transform="translate(-93.454 -0.088)" fill="#019901"/>
    <path id="Path_1877" data-name="Path 1877" d="M156.5,147.9v-6.424c0-.22.055-.275.275-.275h5.711c.22,0,.275.055.275.275v12.684a3.309,3.309,0,0,1-2.91,3.24,3.215,3.215,0,0,1-3.24-2.361,4.266,4.266,0,0,1-.11-.879Z" transform="translate(-57.536 -11.363)" fill="#019901"/>
    <path id="Path_1878" data-name="Path 1878" d="M156.455,123.124v-3.9a3.213,3.213,0,0,1,3.349-3.13,3.291,3.291,0,0,1,2.91,3.075c.055,2.691,0,5.326,0,8.017,0,.165-.055.22-.22.22H156.62c-.22,0-.22-.11-.22-.22C156.455,125.759,156.455,124.441,156.455,123.124Z" transform="translate(-57.491 -0.04)" fill="#019901"/>
  </g>
</svg>
