<svg xmlns="http://www.w3.org/2000/svg" width="122.059" height="20.84" viewBox="0 0 122.059 20.84">
  <g id="nuxt" transform="translate(-12.957 -111.074)">
    <path id="Path_1358" data-name="Path 1358" d="M110.777,135.89v-9.75c0-.675.253-1.013.8-1.1a.815.815,0,0,1,.971.76v12.325c0,.549-.084,1.055-.675,1.224a1.112,1.112,0,0,1-1.308-.549c-2.364-3.123-4.769-6.2-7.175-9.328-.169-.211-.338-.464-.633-.8,0,.3-.042.506-.042.675v8.695a1.975,1.975,0,0,1-.084.718.791.791,0,0,1-.886.591.781.781,0,0,1-.8-.633,2.055,2.055,0,0,1-.042-.506V126.224c0-.929.633-1.435,1.393-1.14.3.084.422.338.591.549,2.448,3.208,4.9,6.458,7.386,9.666A3.963,3.963,0,0,1,110.777,135.89Z" transform="translate(-50.825 -8.048)" fill="#304e60"/>
    <path id="Path_1359" data-name="Path 1359" d="M46.317,140.015c-.253,0-.506.042-.76.042H34.2c-.169,0-.338-.042-.506-.042-.844-.3-1.055-.591-1.1-1.6a3.358,3.358,0,0,1,.464-1.055c1.055-1.857,2.153-3.756,3.208-5.614.929-1.688,1.9-3.377,2.828-5.065.3-.506.591-.971.886-1.477.464.38.591,1.013.971,1.477a1.084,1.084,0,0,0,.211.506c1.224,2.195,2.49,4.347,3.714,6.542.886,1.562,1.857,3.081,2.617,4.727A1.5,1.5,0,0,1,46.317,140.015Zm-.633-1.6c-1.9-3.377-3.756-6.627-5.656-9.961-1.9,3.377-3.756,6.627-5.656,9.961Z" transform="translate(-11.352 -8.164)" fill="#304e60"/>
    <path id="Path_1360" data-name="Path 1360" d="M283.268,124.592a6.258,6.258,0,0,1,4.01,1.477,1.093,1.093,0,0,1,.464.971.991.991,0,0,1-.549.8.91.91,0,0,1-1.013-.211,4.873,4.873,0,0,0-4.39-.971,2.623,2.623,0,0,0-1.224.633,1.8,1.8,0,0,0,.38,2.828,9.016,9.016,0,0,0,2.7.971c.718.169,1.393.422,2.068.633,2.786,1.013,3,4.727,1.1,6.373a5.5,5.5,0,0,1-3.334,1.308,6.967,6.967,0,0,1-5.149-1.646c-.084-.042-.127-.127-.211-.169a1,1,0,0,1-.127-1.393.938.938,0,0,1,1.435-.042,5.36,5.36,0,0,0,3.461,1.393,4.459,4.459,0,0,0,2.195-.549,1.827,1.827,0,0,0-.042-3.25,8.678,8.678,0,0,0-2.659-.929,7.3,7.3,0,0,1-2.406-.929,3.468,3.468,0,0,1-1.815-3.5,3.677,3.677,0,0,1,2.11-3.081A5.026,5.026,0,0,1,283.268,124.592Z" transform="translate(-153.04 -7.808)" fill="#04c392"/>
    <path id="Path_1361" data-name="Path 1361" d="M152.6,130.218c0,1.393.084,2.786,0,4.179a5.545,5.545,0,0,1-11.016.3,8.2,8.2,0,0,1-.084-1.013v-7.64a1.015,1.015,0,0,1,1.9-.591,1.348,1.348,0,0,1,.127.8v7.471a3.579,3.579,0,0,0,2.532,3.588,3.639,3.639,0,0,0,4.727-3.588c.042-2.49,0-4.98,0-7.471,0-.929.3-1.351.929-1.351s.929.464.929,1.351c0,1.351,0,2.659-.042,3.967Z" transform="translate(-74.288 -7.99)" fill="#2f4c5f"/>
    <path id="Path_1362" data-name="Path 1362" d="M183.808,133.672c-.8,1.1-1.562,2.153-2.364,3.208-.506.675-.971,1.351-1.477,2.026-.422.549-.929.675-1.393.338s-.507-.844-.084-1.393l3.8-5.192a.675.675,0,0,0,0-.971l-3.8-5.065a.974.974,0,0,1-.084-1.308.992.992,0,0,1,1.646.127c.929,1.224,1.815,2.448,2.7,3.63.38.506.718.971,1.1,1.477.211-.042.253-.253.38-.38,1.182-1.6,2.364-3.166,3.545-4.769.506-.675,1.182-.675,1.6-.042.3.464.084.844-.169,1.224l-3.8,5.065a.626.626,0,0,0,0,.929c1.308,1.688,2.575,3.419,3.841,5.149a1.021,1.021,0,0,1,.127,1.224.941.941,0,0,1-1.055.38,1.107,1.107,0,0,1-.675-.549c-1.224-1.646-2.448-3.25-3.672-4.9C183.977,133.841,183.893,133.8,183.808,133.672Z" transform="translate(-95.493 -7.983)" fill="#2f4c5f"/>
    <path id="Path_1363" data-name="Path 1363" d="M28.634,117.036c-.3.506-.591.971-.886,1.477-.718-1.013-1.266-2.153-1.9-3.25-.422-.76-.844-1.477-1.351-2.321-3.292,5.825-6.542,11.523-9.834,17.305H21.29c.042.971.253,1.308,1.1,1.6-.211,0-.422.042-.591.042H14.706a1.514,1.514,0,0,1-1.435-2.448c1.9-3.377,3.8-6.711,5.74-10.045,1.393-2.448,2.786-4.9,4.179-7.386a1.453,1.453,0,0,1,2.7-.042c.886,1.477,1.688,2.955,2.532,4.432a.953.953,0,0,0,.338.464C28.676,116.91,28.676,116.994,28.634,117.036Z" transform="translate(0)" fill="#04c392"/>
    <path id="Path_1364" data-name="Path 1364" d="M218.243,132.808v-5.4c0-.422-.084-.549-.506-.549-1.013.042-1.984,0-3,0-.718,0-1.14-.338-1.14-.929s.422-.929,1.14-.929h9.075c.76,0,1.14.338,1.182.886a.929.929,0,0,1-.971.971c-1.055,0-2.068.042-3.123,0-.422,0-.549.127-.549.549v10.721c0,.507-.084.929-.591,1.14a1.025,1.025,0,0,1-1.477-1.013C218.243,136.48,218.243,134.623,218.243,132.808Z" transform="translate(-115.957 -8.048)" fill="#2f4c5f"/>
    <path id="Path_1365" data-name="Path 1365" d="M50.1,121.247c.042-.042.042-.084.084-.169.338-.633.675-1.266,1.055-1.9a1.422,1.422,0,0,1,2.532-.084,14.949,14.949,0,0,1,.8,1.393c2.532,4.432,5.023,8.864,7.555,13.3a1.424,1.424,0,0,1-1.182,2.279,41.059,41.059,0,0,1-4.558,0,1.509,1.509,0,0,0,1.182-1.562H60.61c-2.743-4.812-5.4-9.5-8.1-14.224-.506.886-1.013,1.646-1.477,2.448C50.691,122.26,50.564,121.627,50.1,121.247Z" transform="translate(-21.466 -4.211)" fill="#058978"/>
    <path id="Path_1366" data-name="Path 1366" d="M255.036,130.742v4.39a4.56,4.56,0,0,1-3.292,4.263,4.483,4.483,0,0,1-5.107-1.731c-.464-.675-.464-1.182.084-1.562.464-.338,1.055-.211,1.519.422a2.622,2.622,0,0,0,4.136.169,2.8,2.8,0,0,0,.633-1.9v-8.441a1.188,1.188,0,0,1,.169-.844.989.989,0,0,1,1.14-.464.926.926,0,0,1,.76,1.013c-.042,1.6-.042,3.123-.042,4.685Z" transform="translate(-134.854 -8.049)" fill="#04c392"/>
  </g>
</svg>
