<svg xmlns="http://www.w3.org/2000/svg" width="147.398" height="36.21" viewBox="0 0 147.398 36.21">
  <g id="Open_AI" data-name="Open AI" transform="translate(-16.396 -158.5)">
    <path id="Path_2233" data-name="Path 2233" d="M32.394,158.5a8.763,8.763,0,0,1,6.262,2.473,1.349,1.349,0,0,0,1.316.421,9.151,9.151,0,0,1,10.051,11.182,1.386,1.386,0,0,0,.289,1.342,9.1,9.1,0,0,1-4.657,14.261,1.4,1.4,0,0,0-1.026.921,9.131,9.131,0,0,1-14.708,3.1,1.452,1.452,0,0,0-1.316-.421,9.169,9.169,0,0,1-10.314-8.472,7.079,7.079,0,0,1,.263-2.684,1.4,1.4,0,0,0-.289-1.342,9.148,9.148,0,0,1,2.052-13.05A8.375,8.375,0,0,1,23,164.973a1.175,1.175,0,0,0,.895-.816A9.079,9.079,0,0,1,32.394,158.5Zm-.447,32.336c.105.079.158.158.237.184a6.8,6.8,0,0,0,10.761-5.341c.053-1.71,0-3.447.026-5.157v-2.894c0-.263.053-.526-.237-.71-.895-.526-1.789-1.026-2.71-1.552a1.98,1.98,0,0,0-.158,1.052c0,2.763-.053,5.525.026,8.314a2.089,2.089,0,0,1-1.184,2.1c-2.026,1.105-4,2.289-6,3.447A2,2,0,0,0,31.947,190.836Zm-3.236-12.945V176.76c0-2.815.026-5.657-.026-8.472a1.821,1.821,0,0,1,1.105-1.868c2.052-1.131,4.052-2.315,6.078-3.5a1.849,1.849,0,0,0,.71-.5c-.079-.289-.342-.395-.579-.526a6.769,6.769,0,0,0-10.367,5.262c-.132,2.815-.026,5.657-.026,8.472a.636.636,0,0,0,.342.658C26.79,176.786,27.658,177.286,28.711,177.891Zm-7.972,3.841a6.649,6.649,0,0,0,2.552,6.288,6.54,6.54,0,0,0,7.551.553c2.1-1.158,4.157-2.368,6.209-3.578,1.394-.816,1.105-.342,1.131-2,0-.684,0-1.368-.026-2.079a3.013,3.013,0,0,0-1.052.474c-2.421,1.394-4.868,2.763-7.262,4.21a1.819,1.819,0,0,1-2.1,0c-2.026-1.21-4.078-2.368-6.13-3.552A1.544,1.544,0,0,0,20.738,181.733Zm9.63-9.419a4.509,4.509,0,0,0,1.237-.605c2.368-1.368,4.762-2.71,7.1-4.1a1.819,1.819,0,0,1,2.1,0c2.079,1.237,4.183,2.421,6.288,3.631.184.105.368.316.631.21.026-.053.079-.105.105-.158.026-.105.026-.237.053-.342a6.79,6.79,0,0,0-9.867-6.473c-.658.316-1.263.71-1.894,1.079-1.71,1-3.447,1.973-5.157,2.973-.263.158-.605.263-.579.684C30.368,170.182,30.368,171.208,30.368,172.313Zm5.71-1.263a2.935,2.935,0,0,0,.816.605c2.473,1.421,4.946,2.868,7.42,4.262a1.753,1.753,0,0,1,1.052,1.815c-.053.737,0,1.447,0,2.184v5.157c0,.684.079.71.71.395a2.878,2.878,0,0,0,.395-.21,6.778,6.778,0,0,0,.421-11.393c-.447-.316-.947-.579-1.421-.868-1.947-1.131-3.894-2.236-5.841-3.368-.263-.158-.526-.395-.868-.158C37.893,170.024,37,170.524,36.078,171.05Zm-13-3.526a1.481,1.481,0,0,0-.789.316,6.749,6.749,0,0,0-.395,11.6c2.342,1.473,4.789,2.789,7.183,4.183.21.105.395.263.658.132.921-.526,1.842-1.052,2.789-1.6a2.075,2.075,0,0,0-.789-.579c-2.447-1.421-4.868-2.868-7.367-4.236a1.983,1.983,0,0,1-1.158-2.026c.053-2.263.026-4.552,0-6.815A1.581,1.581,0,0,0,23.08,167.525Zm15.129,9.051v-1.737a.73.73,0,0,0-.395-.71c-1.052-.579-2.079-1.184-3.1-1.789a.793.793,0,0,0-.895,0c-1,.605-2,1.184-3.026,1.737a.782.782,0,0,0-.447.763c.026,1.158.026,2.342,0,3.5a.74.74,0,0,0,.421.763c1.052.579,2.079,1.184,3.1,1.789a.762.762,0,0,0,.816,0c1.026-.605,2.052-1.21,3.1-1.789a.76.76,0,0,0,.421-.789C38.183,177.733,38.209,177.155,38.209,176.576Z" transform="translate(0 0)"/>
    <path id="Path_2234" data-name="Path 2234" d="M170.99,201.63a23.478,23.478,0,0,1,.184-3.526,8.26,8.26,0,0,1,7.762-7.1,12.077,12.077,0,0,1,4.341.289,7.948,7.948,0,0,1,6.13,6.867,24.346,24.346,0,0,1,0,7.314,8.074,8.074,0,0,1-6.42,6.92,11.353,11.353,0,0,1-5.788-.105,8.036,8.036,0,0,1-5.973-6.525A19.194,19.194,0,0,1,170.99,201.63Zm3.894.158c0,.921-.053,1.868,0,2.789a4.948,4.948,0,0,0,3.394,4.71,6.528,6.528,0,0,0,4.131-.053,4.519,4.519,0,0,0,2.631-2.289,7.094,7.094,0,0,0,.71-3.026c.026-1.395,0-2.789,0-4.183a7.242,7.242,0,0,0-.368-2.236,4.7,4.7,0,0,0-3.71-3.315,7.571,7.571,0,0,0-2.184-.079,4.762,4.762,0,0,0-4.42,3.947A14.791,14.791,0,0,0,174.884,201.788Z" transform="translate(-113.915 -23.897)"/>
    <path id="Path_2235" data-name="Path 2235" d="M257.817,225.916a1.8,1.8,0,0,0-.132.947v5.5c0,.737-.026.737-.71.737h-2.447c-.421,0-.605-.158-.553-.553a3.512,3.512,0,0,0,0-.526V212.945c-.026-.395.132-.605.553-.579q1.223.039,2.447,0c.421,0,.579.158.579.579a5.678,5.678,0,0,0,.053,1.342.217.217,0,0,0,.316-.132A5.2,5.2,0,0,1,262.553,212a6.051,6.051,0,0,1,6.262,5.631,21.628,21.628,0,0,1,0,5.052c-.684,5.078-5.683,6.288-8.788,5a4.025,4.025,0,0,1-1.737-1.289A2.018,2.018,0,0,1,257.817,225.916Zm7.288-5.788c0-.605.053-1.237,0-1.842a3.46,3.46,0,0,0-1.737-2.868A3.713,3.713,0,0,0,257.791,218a13.126,13.126,0,0,0,0,4.183,3.692,3.692,0,0,0,7.314-.316C265.158,221.285,265.105,220.707,265.105,220.128Z" transform="translate(-175.063 -39.421)"/>
    <path id="Path_2236" data-name="Path 2236" d="M456.7,192.594h1.237c.816,0,.737-.079,1.026.763.684,1.894,1.368,3.789,2.026,5.683,1.6,4.447,3.184,8.867,4.789,13.313.079.237.184.5.263.737.105.289-.026.447-.342.447h-2.894c-.395,0-.474-.237-.579-.526-.342-1.105-.737-2.21-1.052-3.342a.753.753,0,0,0-.868-.631q-3.67.04-7.341,0a.732.732,0,0,0-.816.579c-.316,1.052-.658,2.1-1,3.157-.237.737-.237.737-1.026.737h-2.263c-.631,0-.684-.079-.474-.658.395-1.131.789-2.236,1.21-3.368,1.921-5.367,3.868-10.735,5.788-16.1.289-.789.289-.789,1.105-.789Zm3.289,13.419c-1.105-3.5-2.184-6.867-3.236-10.235-1.237,3.394-2.368,6.762-3.42,10.235Z" transform="translate(-317.512 -25.122)"/>
    <path id="Path_2237" data-name="Path 2237" d="M532.173,202.938V196.2c0-.71-.026-.737-.711-.737H528.41c-.658,0-.658-.026-.684-.684v-1.5c0-.763.026-.789.763-.789H540.04c.368-.026.526.132.526.5-.026.631-.026,1.289,0,1.921.026.447-.211.526-.579.526-1.052-.026-2.1,0-3.157,0-.763,0-.763,0-.789.763v13.392c0,.816,0,.842.816.842h3.052c.605,0,.605.026.632.631v1.842c0,.342-.158.474-.474.474H528.594c-.895,0-.895,0-.895-.842v-1.5c.026-.605.026-.605.658-.605h2.789c1.079,0,1,.079,1-.974C532.173,207.305,532.173,205.121,532.173,202.938Z" transform="translate(-376.774 -25.046)"/>
    <path id="Path_2238" data-name="Path 2238" d="M387.272,214.285c.316.026.342-.132.421-.263a3.919,3.919,0,0,1,2.631-1.868,6.643,6.643,0,0,1,3.368-.026,4.876,4.876,0,0,1,3.736,4.447,14.209,14.209,0,0,1,.079,1.473v9.1c.026.447-.158.631-.631.605-.763-.026-1.526,0-2.263,0-.816,0-.842,0-.842-.816v-7.867c0-.368,0-.763-.026-1.131a2.8,2.8,0,0,0-2.973-2.789,2.974,2.974,0,0,0-3.315,2.657,9.312,9.312,0,0,0-.053,1.21v7.867c0,.842,0,.842-.868.868h-2.263c-.395,0-.605-.158-.579-.553v-14.34c0-.342.132-.553.5-.553h2.526c.368,0,.5.184.5.553A12.826,12.826,0,0,1,387.272,214.285Z" transform="translate(-270.656 -39.367)"/>
    <path id="Path_2239" data-name="Path 2239" d="M329,221.357H324.45c-.605,0-.632.053-.632.658a3.428,3.428,0,0,0,4.341,3.578,4.88,4.88,0,0,0,2.868-1.579.6.6,0,0,1,.947-.105,14.181,14.181,0,0,0,1.368.789c.316.158.316.342.132.631A5.786,5.786,0,0,1,331,227.488a8.592,8.592,0,0,1-7.446-.105,5.819,5.819,0,0,1-3.289-5.025,18.225,18.225,0,0,1,.079-4.789,6.324,6.324,0,0,1,5.736-5.394,9.134,9.134,0,0,1,3.052.105,6.188,6.188,0,0,1,5.052,6.183c.026.763.026,1.526,0,2.263,0,.605-.026.631-.631.631-1.526.026-3.052,0-4.552,0Zm-1.736-2.5h2.973c.263,0,.526,0,.553-.395.053-1.421-.395-3.21-2.342-3.736a4.324,4.324,0,0,0-2.315,0,2.877,2.877,0,0,0-2.026,1.894,4.956,4.956,0,0,0-.289,1.631c0,.579.026.605.579.605C325.345,218.884,326.318,218.858,327.265,218.858Z" transform="translate(-223.831 -39.493)"/>
  </g>
</svg>
