<svg xmlns="http://www.w3.org/2000/svg" width="144" height="59.28" viewBox="0 0 144 59.28">
  <g id="PostgreSQL" transform="translate(-51.373 -21.026)">
    <g id="Group_223" data-name="Group 223" transform="translate(51.373 21.026)">
      <path id="Path_1885" data-name="Path 1885" d="M111.982,21.117c.366,0,.7-.033,1.065-.033a25.151,25.151,0,0,1,6.891.5h0c.067.033.1.067.166.1.366.1.732.233,1.1.333h.133a.652.652,0,0,0,.6.166,20.353,20.353,0,0,1,4.927,3.063c1.4,1.3,2.7,2.63,3.1,4.594a.932.932,0,0,0,.067.666l.033.033c.033.533.033,1.065.067,1.6-.033.732-.033,1.5-.067,2.23a9.968,9.968,0,0,0-.3,2.2c-.2.832-.366,1.631-.566,2.463,0,.1-.033.2-.033.3a.269.269,0,0,0-.133.3c-.033.133-.033.3-.067.433-.133.4-.266.832-.4,1.232a.922.922,0,0,1-.033.3c-.033.033-.067.1-.1.133-.1.366-.233.732-.333,1.1a.2.2,0,0,0-.033.133.793.793,0,0,0-.166.6l-.9,2.3a.3.3,0,0,1-.033.166.269.269,0,0,0-.133.3c-.067.166-.233.266-.166.466a7.085,7.085,0,0,0-.6,1.365c-.067.166-.233.266-.166.466a.269.269,0,0,0-.133.3,1.478,1.478,0,0,0-.333.732.183.183,0,0,0-.133.2c-.067.166-.233.266-.166.466-.9,1.664-1.8,3.329-2.73,5.06a16.13,16.13,0,0,0,3.362-.067,5.444,5.444,0,0,1,.732-.067.21.21,0,0,0,.266-.133h.067c.766.067,1.531-.4,2.3-.033.1,0,.2.033.3.033a2.378,2.378,0,0,1,.965,2.3,11.58,11.58,0,0,1-.965,2.3c-.2.266-.4.5-.6.766-.5.466-1.032.932-1.531,1.365-.166.1-.3.2-.466.3-.832.3-1.664.6-2.5.932-.7.133-1.4.233-2.1.366a2.2,2.2,0,0,0-.466.033.757.757,0,0,0-.6.1h-1.2c-.5-.233-1.032-.033-1.631-.3.233.466-.067.732-.033,1.065,0,.4-.033.8-.033,1.232l-.1.3c0,.266-.033.5-.033.766a10.869,10.869,0,0,0-.3,2.3c-.033.133-.033.3-.067.433a.062.062,0,0,0,0,.1,1.825,1.825,0,0,0-.133.832l-.1.3v.633a16.867,16.867,0,0,1-1.3,4.594c-.3.433-.6.9-.9,1.332-.366.333-.732.633-1.1.965-.4.266-.8.5-1.2.766-.766.3-1.565.566-2.33.866-.133.033-.3.067-.433.1-.067-.033-.1-.033-.133.033l-1.9.4c-.7,0-1.4.033-2.1.033-.1,0-.2-.033-.266-.033-.666-.2-1.365-.4-2.031-.566a9.629,9.629,0,0,1-2.264-1.6,12.035,12.035,0,0,1-1.4-2.463c-.1-.7-.233-1.4-.333-2.1-.166-1.531-.3-3.063-.466-4.594V67.423a.1.1,0,0,0,0-.133,4.243,4.243,0,0,0-.033-.633V64.727a7.1,7.1,0,0,1-2.43,1h-2.3c-.766-.133-1.531-.266-2.3-.433-.133,0-.266-.033-.4-.033-.1-.133-.2-.133-.366-.133a.922.922,0,0,1-.3-.033.269.269,0,0,0-.3-.133.122.122,0,0,0-.1-.033c-.1-.133-.2-.133-.366-.133a.2.2,0,0,0-.133-.033c-.067-.033-.1-.067-.166-.1a2.549,2.549,0,0,1-1.3-1.065c-.4.333-.8.666-1.165.965-.266.133-.5.233-.766.366-.067.033-.133.1-.2.133l-1.3.1a5.359,5.359,0,0,1-2.33-.866,14.8,14.8,0,0,1-2.2-2.364c-.433-.732-.9-1.5-1.332-2.23-.266-.566-.533-1.132-.832-1.7a3.354,3.354,0,0,0-.4-.866,4.38,4.38,0,0,0-.5-1.3.269.269,0,0,0-.133-.3h0a.386.386,0,0,0-.133-.333c0-.067,0-.1-.033-.133-.366-1.032-.732-2.031-1.065-3.063-.2-.6-.366-1.2-.566-1.764a14.655,14.655,0,0,0-.6-2.064c-.2-.766-.4-1.531-.632-2.3-.1-.4-.166-.8-.266-1.232-.033-.033-.067-.1-.1-.133.067-.333-.166-.6-.166-.932a.427.427,0,0,0-.133-.466,15.041,15.041,0,0,0-.4-2.064c-.133-.7-.266-1.4-.366-2.064L73,36.7V34.4c.033-.133.033-.3.067-.433v-.033a9.353,9.353,0,0,0,.133-1.664c.166-.832.366-1.664.533-2.5a1.15,1.15,0,0,0,.233-.666c.233-.533.5-1.1.732-1.631h0c.033-.067.067-.1.1-.166.033-.033.067-.1.033-.133a.727.727,0,0,1,.133-.166l1.1-1.5a6.149,6.149,0,0,1,.466-.466l.9-.8a.584.584,0,0,0,.166-.133l.3-.2c.067-.033.1-.067.166-.1l.3-.2c.067-.033.1-.067.166-.1h0c.366-.2.766-.4,1.132-.6l1.2-.4a16.383,16.383,0,0,1,2.6-.6c.067-.033.133-.033.166-.067.033,0,.1-.033.133-.033.566,0,1.132-.033,1.7-.033h2.3l2.3.3c.766.166,1.531.3,2.3.466.866.233,1.764.433,2.6.7a.917.917,0,0,0,.965-.166c.466-.2.932-.433,1.4-.633a.2.2,0,0,0,.133-.033H97.5l.067-.033c.633-.2,1.265-.366,1.9-.566.7-.067,1.4-.133,2.131-.2a30.159,30.159,0,0,1,4.594.333c.8.5,1.531-.033,2.3-.166.832-.2,1.631-.366,2.463-.566.266-.033.5-.033.766-.067A.394.394,0,0,0,111.982,21.117ZM100.83,62.5a38.873,38.873,0,0,0,.033,3.961,36.135,36.135,0,0,0,.5,7.091c.466,2.164,1.431,3.995,3.629,4.894a7.859,7.859,0,0,0,4.794.133c3.1-.7,5.26-2.364,5.959-5.593.3-1.431.5-2.9.7-4.361.266-2,.566-4.028.732-6.059.033-.566.366-.7.8-.6a12.441,12.441,0,0,0,5.426-.333,9.513,9.513,0,0,0,4.86-2.9,1.594,1.594,0,0,0,.366-1.764,1.408,1.408,0,0,0-1.465-.732,14.421,14.421,0,0,0-1.664.266,12.183,12.183,0,0,1-4.527.067c-.6-.133-.633-.333-.333-.832a50.531,50.531,0,0,0,5.06-10.02,37.821,37.821,0,0,0,2.8-12.117c.1-2.7-.5-5.093-2.73-6.958a16.083,16.083,0,0,0-9.021-3.762,24.32,24.32,0,0,0-8.356.666,3.264,3.264,0,0,1-1.465.266,18.044,18.044,0,0,0-6.125-.3,8,8,0,0,0-3.7,1.132,2.127,2.127,0,0,1-2.164.433,25.631,25.631,0,0,0-7.224-1.5,16.206,16.206,0,0,0-5.659.5,9.164,9.164,0,0,0-4.627,2.73,12.3,12.3,0,0,0-2.63,6.858,24.069,24.069,0,0,0,.5,8.023,78.137,78.137,0,0,0,3.662,13.183,21.8,21.8,0,0,0,3.928,7.157c1.631,1.764,3.529,2.23,5.426.732a11.388,11.388,0,0,0,1.4-1.431c1.265-1.431,2.53-2.863,3.8-4.328.166-.2.333-.466.7-.266a7.188,7.188,0,0,0,2.863.766,4.151,4.151,0,0,1-3.2,2.264c-.766.2-1.531.333-2.264.6-.632.266-1.2.666-1.232,1.4a1.8,1.8,0,0,0,.965,1.6A8.454,8.454,0,0,0,100.83,62.5Z" transform="translate(-73 -21.026)" fill="#0a0a0a"/>
      <path id="Path_1886" data-name="Path 1886" d="M104.056,66.144c-2.6,2.5-7.324,2.364-9.521.932a1.737,1.737,0,0,1-.965-1.6c.033-.732.6-1.132,1.232-1.4a13.344,13.344,0,0,1,2.264-.6,4.151,4.151,0,0,0,3.2-2.264,6.9,6.9,0,0,1-2.863-.766c-.366-.2-.533.067-.7.266-1.265,1.431-2.5,2.9-3.8,4.328a11.337,11.337,0,0,1-1.4,1.431c-1.864,1.5-3.8,1.032-5.426-.732a21.8,21.8,0,0,1-3.928-7.157A82.341,82.341,0,0,1,78.49,45.4a24.068,24.068,0,0,1-.5-8.023,12.3,12.3,0,0,1,2.63-6.858,8.936,8.936,0,0,1,4.627-2.73,17.116,17.116,0,0,1,5.659-.5,25.392,25.392,0,0,1,7.224,1.5,2.127,2.127,0,0,0,2.164-.433,8.874,8.874,0,0,1,3.7-1.132,18.044,18.044,0,0,1,6.125.3,3.8,3.8,0,0,0,1.465-.266,25.238,25.238,0,0,1,8.356-.666,16.419,16.419,0,0,1,9.022,3.762,8.081,8.081,0,0,1,2.73,6.958,38.232,38.232,0,0,1-2.8,12.117,52.4,52.4,0,0,1-5.06,10.02c-.333.5-.266.7.333.832a12.92,12.92,0,0,0,4.527-.067,13.35,13.35,0,0,1,1.664-.266,1.408,1.408,0,0,1,1.465.732,1.617,1.617,0,0,1-.366,1.764,9.513,9.513,0,0,1-4.86,2.9,12.472,12.472,0,0,1-5.426.333c-.466-.1-.766.033-.8.6-.166,2.031-.466,4.028-.732,6.059-.2,1.465-.366,2.929-.7,4.361-.7,3.2-2.863,4.894-5.959,5.593a7.866,7.866,0,0,1-4.794-.133c-2.2-.9-3.163-2.73-3.629-4.894a35.956,35.956,0,0,1-.5-7.091C104.09,68.84,103.923,67.575,104.056,66.144Zm25.6-4.361a7.111,7.111,0,0,0-1.864.2c-1.764.133-3.562.366-5.16-.7-.133-.1-.266-.067-.433-.033a1.646,1.646,0,0,0-1.5,1.864c-.033.533.233.7.666.766a9.867,9.867,0,0,0,3.129,0,8.556,8.556,0,0,0,5.16-2.1c0-.033.033-.033.033-.067v-.033A.122.122,0,0,1,129.656,61.783Zm-7.823-21.538a18.573,18.573,0,0,0-6.691-8.722,15.492,15.492,0,0,0-10.153-2.763,9.038,9.038,0,0,0-5.626,2.23c-3.3,2.9-4.194,6.791-4.694,11.019a19.82,19.82,0,0,1,2.43-1,12.376,12.376,0,0,1,2.463-.466,4.2,4.2,0,0,1,4.661,3.129,17.381,17.381,0,0,1,.566,3.2,16.033,16.033,0,0,1-.766,7.923,45.063,45.063,0,0,0-1.764,4.594c-.1.366-.033.4.266.4,2-.067,3.3,1.931,3.229,3.6-.1,2.763-.1,5.526.033,8.256a27.346,27.346,0,0,0,.533,5.46c.466,1.731,1.365,3.229,3.262,3.662a7.67,7.67,0,0,0,3.961-.433,5.025,5.025,0,0,0,3.7-3.7,55.178,55.178,0,0,0,1.032-6.225c.333-2.63.666-5.26.832-7.89a2.917,2.917,0,0,1,1.831-2.6,1.047,1.047,0,0,0,.5-.266c-1.9-2.3-3.029-5.06-4.394-7.657a18.187,18.187,0,0,1-2.2-6.725,4.3,4.3,0,0,1,3.029-4.76A19.175,19.175,0,0,1,121.833,40.244Zm-26.2,19.008a8.5,8.5,0,0,1-2.9-6.958,52.169,52.169,0,0,0,.3-6.025,27.238,27.238,0,0,1,0-4.661c.4-4.061,1.465-7.79,4.228-10.919.266-.3.3-.433-.166-.566a22.771,22.771,0,0,0-9.92-1.032,7.879,7.879,0,0,0-6.858,5.626,16.843,16.843,0,0,0-.566,7.923,76.563,76.563,0,0,0,3.2,13.083,26.676,26.676,0,0,0,3.8,8.123c1.8,2.364,2.963,2.264,4.661.233C92.8,62.449,94.236,60.851,95.634,59.253Zm17.81-30.76c-.033.166.067.2.166.266a19.134,19.134,0,0,1,8.589,8.356,8.9,8.9,0,0,1,1.431,5.559c-.1.766-.2,1.5-.3,2.264a27.591,27.591,0,0,0,.2,7.024,10.15,10.15,0,0,1-.9,5.426c-.1.233-.6.566-.166.8.366.2.433-.333.566-.566,3.7-6.258,6.425-12.85,7.024-20.174a5.881,5.881,0,0,0-1.431-4.894,14.394,14.394,0,0,0-3.3-2.563C121.567,27.894,117.572,27.827,113.444,28.493ZM103.391,49.3a27.627,27.627,0,0,0-.8-5.26,2.3,2.3,0,0,0-2.064-1.831A8.654,8.654,0,0,0,94.8,43.873c-.266.166-.166.4-.2.6-.067.932.133,1.864.133,2.83.033,2.1-.466,4.161-.3,6.258a6.476,6.476,0,0,0,5.659,5.859c.366.033.433-.133.5-.4a29.465,29.465,0,0,1,1.531-4.028A14.409,14.409,0,0,0,103.391,49.3Zm17.843,7.191c.965-2.064.766-4.061.533-6.092a16.557,16.557,0,0,1-.133-4.627c.166-1.065.233-2.164.366-3.262.033-.4-.067-.533-.5-.533q-1.1-.05-2.2,0a2.749,2.749,0,0,0-2.83,3,10.119,10.119,0,0,0,.4,2.23C117.772,50.5,119.669,53.327,121.234,56.49ZM95.4,65.578a6.47,6.47,0,0,0,2.23.732,6.326,6.326,0,0,0,6.225-2.5,1.586,1.586,0,0,0-.433-2.031c-.6-.5-.965-.433-1.6.266-.2.2-.366.433-.533.632a5.264,5.264,0,0,1-2.8,2.131C97.532,65.045,96.533,65.278,95.4,65.578Z" transform="translate(-76.226 -24.673)" fill="#fefefe"/>
      <path id="Path_1887" data-name="Path 1887" d="M155.564,44.842a15.681,15.681,0,0,0-3.961.333,4.3,4.3,0,0,0-3.029,4.76,17.6,17.6,0,0,0,2.2,6.725c1.365,2.6,2.5,5.326,4.394,7.657-.133.166-.333.166-.5.266a2.917,2.917,0,0,0-1.831,2.6c-.166,2.63-.5,5.26-.832,7.89a44.147,44.147,0,0,1-1.032,6.225,5.131,5.131,0,0,1-3.7,3.7,7.708,7.708,0,0,1-3.961.433c-1.9-.433-2.8-1.931-3.262-3.662a27.112,27.112,0,0,1-.533-5.46c-.133-2.763-.133-5.526-.033-8.256.067-1.664-1.232-3.662-3.229-3.6-.3,0-.366-.033-.266-.4.466-1.6,1.165-3.063,1.764-4.594a15.658,15.658,0,0,0,.766-7.923,20.033,20.033,0,0,0-.566-3.2,4.2,4.2,0,0,0-4.661-3.129,10.387,10.387,0,0,0-2.463.466,19.822,19.822,0,0,0-2.43,1c.5-4.194,1.4-8.089,4.694-11.019a9.114,9.114,0,0,1,5.626-2.23,15.405,15.405,0,0,1,10.153,2.763A18.282,18.282,0,0,1,155.564,44.842Z" transform="translate(-109.958 -29.271)" fill="#2f6091"/>
      <path id="Path_1888" data-name="Path 1888" d="M99.029,64.089c-1.431,1.6-2.863,3.2-4.228,4.827-1.7,2.031-2.9,2.1-4.661-.233a27.43,27.43,0,0,1-3.8-8.123,79.814,79.814,0,0,1-3.2-13.083,16.843,16.843,0,0,1,.566-7.923,7.917,7.917,0,0,1,6.858-5.626,22.771,22.771,0,0,1,9.92,1.032c.5.133.433.266.166.566-2.763,3.129-3.828,6.891-4.228,10.919a27.239,27.239,0,0,0,0,4.661,45.374,45.374,0,0,1-.266,6.025A8.336,8.336,0,0,0,99.029,64.089Z" transform="translate(-79.62 -29.51)" fill="#2f6091"/>
      <path id="Path_1889" data-name="Path 1889" d="M184.8,31.75c4.095-.666,8.089-.6,11.851,1.5a16.514,16.514,0,0,1,3.3,2.563,5.744,5.744,0,0,1,1.431,4.894c-.6,7.324-3.362,13.915-7.024,20.174-.133.233-.2.766-.566.566-.433-.233.067-.566.166-.8a10.15,10.15,0,0,0,.9-5.426,27.549,27.549,0,0,1-.2-7.024c.133-.766.2-1.5.3-2.264a8.9,8.9,0,0,0-1.431-5.559,19.129,19.129,0,0,0-8.589-8.356C184.9,31.95,184.8,31.916,184.8,31.75Z" transform="translate(-147.582 -27.93)" fill="#2f6091"/>
      <path id="Path_1890" data-name="Path 1890" d="M136.653,80.709a15.137,15.137,0,0,1-1.232,5.693,27.9,27.9,0,0,0-1.531,4.028c-.067.266-.133.433-.5.4a6.506,6.506,0,0,1-5.659-5.859c-.166-2.1.333-4.161.3-6.258,0-.932-.2-1.9-.133-2.83,0-.2-.1-.433.2-.6a8.842,8.842,0,0,1,5.726-1.664,2.3,2.3,0,0,1,2.064,1.831A30.858,30.858,0,0,1,136.653,80.709Zm-3.063-4.261c.8,0,1.7-.533,1.631-.965-.1-.666-.666-.8-1.232-.9a.922.922,0,0,0-.3-.033c-.566-.033-1.165-.1-1.465.5-.166.366.433,1.132,1,1.365A1.794,1.794,0,0,0,133.591,76.448Z" transform="translate(-109.489 -56.083)" fill="#2f6091"/>
      <path id="Path_1891" data-name="Path 1891" d="M198.655,87.437c-1.531-3.163-3.462-5.992-4.361-9.288a10.474,10.474,0,0,1-.4-2.23,2.767,2.767,0,0,1,2.83-3,16.129,16.129,0,0,1,2.2,0c.433,0,.533.133.5.533-.133,1.1-.2,2.164-.366,3.262a16.559,16.559,0,0,0,.133,4.627A10.71,10.71,0,0,1,198.655,87.437Zm-1.831-13.749a3.6,3.6,0,0,0-.6,0c-.466.1-1.1.233-1.1.766s.6.8,1.1.9a1.6,1.6,0,0,0,1.4-.632c.2-.233.333-.533.166-.766C197.589,73.589,197.19,73.655,196.824,73.689Z" transform="translate(-153.647 -55.621)" fill="#2f6091"/>
      <path id="Path_1892" data-name="Path 1892" d="M130.6,135.605c1.165-.3,2.131-.533,3.1-.8a5.264,5.264,0,0,0,2.8-2.131,4.869,4.869,0,0,1,.533-.633c.666-.7,1.032-.732,1.6-.266a1.677,1.677,0,0,1,.433,2.031,6.326,6.326,0,0,1-6.225,2.5A5.418,5.418,0,0,1,130.6,135.605Z" transform="translate(-111.425 -94.701)" fill="#326191"/>
      <path id="Path_1893" data-name="Path 1893" d="M215.549,131.433a8.716,8.716,0,0,1-5.16,2.131,9.868,9.868,0,0,1-3.129,0c-.433-.1-.7-.233-.666-.766a1.646,1.646,0,0,1,1.5-1.864.5.5,0,0,1,.433.033c1.6,1.065,3.4.8,5.16.7a5.973,5.973,0,0,1,1.864-.233Z" transform="translate(-162.119 -94.323)" fill="#326191"/>
      <path id="Path_1894" data-name="Path 1894" d="M142.586,78.278a1.025,1.025,0,0,1-.366-.067c-.6-.233-1.2-1-1-1.365.3-.633.9-.533,1.465-.5.1,0,.2.033.3.033.566.1,1.132.266,1.232.9C144.284,77.745,143.385,78.278,142.586,78.278Z" transform="translate(-118.484 -57.913)" fill="#fefefe"/>
      <path id="Path_1895" data-name="Path 1895" d="M199.3,75.27c.366,0,.766-.067.965.266.166.233.033.533-.166.766a1.562,1.562,0,0,1-1.4.633c-.5-.1-1.1-.366-1.1-.9s.6-.666,1.1-.766A3.6,3.6,0,0,1,199.3,75.27Z" transform="translate(-156.121 -57.203)" fill="#fbfbfb"/>
    </g>
    <g id="Group_222" data-name="Group 222" transform="translate(112.781 43.146)">
      <path id="Path_1896" data-name="Path 1896" d="M224,228.964a6.147,6.147,0,0,1,2.83-5.659,7.319,7.319,0,0,1,5.726-.732,5.467,5.467,0,0,1,4.294,4.128c.666,2.53.5,4.96-1.431,6.991-.2.233-.2.366.033.533l1.2,1c.2.166.433.366.133.6-.266.2-.4.832-.965.333-.4-.366-.866-.7-1.265-1.065a.6.6,0,0,0-.732-.067c-2.763,1.165-6.924.766-8.722-2.031A7.148,7.148,0,0,1,224,228.964Zm11.818-.133c0-.133-.033-.4-.033-.666a4.932,4.932,0,0,0-3.862-4.627,5.258,5.258,0,0,0-5.892,2.3,6.709,6.709,0,0,0-.666,4.028,4.693,4.693,0,0,0,3.063,4.294,5.315,5.315,0,0,0,5.759-.9A5.169,5.169,0,0,0,235.818,228.831Z" transform="translate(-164.61 -222.31)" fill="#2f6091"/>
      <path id="Path_1897" data-name="Path 1897" d="M197.118,235.716a6.793,6.793,0,0,1-3.1-.633,3.76,3.76,0,0,1-2.131-3.5c-.033-.233.133-.333.333-.366h.732c.266,0,.366.1.366.366a2.954,2.954,0,0,0,2.8,2.929,6.909,6.909,0,0,0,3.4-.2,2.12,2.12,0,0,0,1.431-2.4,1.818,1.818,0,0,0-1.5-1.864c-1.3-.433-2.663-.566-3.995-.9a8.921,8.921,0,0,1-.9-.233,3.215,3.215,0,0,1-1.431-5.326,3.494,3.494,0,0,1,1.964-.932,8.168,8.168,0,0,1,4.96.366,3.371,3.371,0,0,1,2,2.963c.033.233-.067.4-.333.4h-.666a.393.393,0,0,1-.433-.4,2.584,2.584,0,0,0-2.563-2.43,7.573,7.573,0,0,0-2.6.1,2,2,0,0,0-1.764,2.2c0,1.132.6,1.764,1.864,2.031,1.365.3,2.7.6,4.061.932.366.1.7.2,1.065.333a2.642,2.642,0,0,1,1.731,2.264,3.46,3.46,0,0,1-3.063,4.128A14.87,14.87,0,0,1,197.118,235.716Z" transform="translate(-143.188 -222.403)" fill="#2f6091"/>
      <path id="Path_1898" data-name="Path 1898" d="M135.71,241.885v2.83a2.919,2.919,0,0,1-3.2,3.229,6.8,6.8,0,0,1-2.164-.166,2.037,2.037,0,0,1-1.565-1.565c-.033-.166-.233-.433.1-.5.266-.067.633-.233.766.133a1.674,1.674,0,0,0,1.332,1.265,4.15,4.15,0,0,0,2.763-.233,2.852,2.852,0,0,0,.965-2.73c-.1-.233-.266-.133-.4-.033a3.831,3.831,0,0,1-3.562.666,2.658,2.658,0,0,1-2.2-2.1,3.94,3.94,0,0,1,1.065-4.161c1.132-.832,3.795-.932,4.627.2.1.133.2.266.366.2.133-.067.1-.233.1-.333-.033-.4.2-.466.5-.466.366,0,.466.166.466.5.033,1.132.033,2.2.033,3.262Zm-.932-.433a2.7,2.7,0,1,0-5.393-.033,2.475,2.475,0,0,0,2.763,2.8A2.519,2.519,0,0,0,134.778,241.453Z" transform="translate(-100.823 -232.701)" fill="#0a0a0a"/>
      <path id="Path_1899" data-name="Path 1899" d="M51.026,227.97c-1.631-.033-3.262,0-4.894,0-.4,0-.533.133-.533.566.033,1.565,0,3.129,0,4.727v4.727c0,.5.266.5.632.5s.632,0,.632-.5c-.033-1.065,0-2.131-.033-3.229-.033-.533.1-.766.7-.732q1.748.05,3.5,0A2.862,2.862,0,0,0,53.889,231,2.79,2.79,0,0,0,51.026,227.97Zm.6,4.96a3.637,3.637,0,0,1-1.465.2c-.932.033-1.864,0-2.763,0-.466,0-.6-.166-.566-.6.033-.533,0-1.065,0-1.6V229.2c0-.3.1-.433.433-.433,1.265.033,2.53,0,3.762.067a1.707,1.707,0,0,1,1.7,1.6C52.89,231.7,52.524,232.564,51.625,232.93Z" transform="translate(-45.6 -226.076)" fill="#0a0a0a"/>
      <path id="Path_1900" data-name="Path 1900" d="M265.884,229.658c0-1.864.033-3.728,0-5.593,0-.566.2-.666.7-.666s.666.133.666.666c-.033,3.4,0,6.758-.033,10.153,0,.566.167.7.732.7,2.2-.033,4.361,0,6.558,0,.366,0,.633.033.633.533,0,.466-.133.632-.6.632-2.4,0-4.794.033-7.224.033-1.631,0-1.431.166-1.431-1.4C265.884,232.987,265.884,231.323,265.884,229.658Z" transform="translate(-192.547 -223.037)" fill="#2f6091"/>
      <path id="Path_1901" data-name="Path 1901" d="M170.124,242.114h-2.663c-.4,0-.533.2-.466.566a2.52,2.52,0,0,0,1.631,2c1.1.366,2.9.3,3.462-1.265a.81.81,0,0,1,.965-.266c.2.133.067.266.033.4a2.77,2.77,0,0,1-1.964,1.864,3.776,3.776,0,0,1-4.894-5.027,3.272,3.272,0,0,1,3.1-2.1,3.394,3.394,0,0,1,3.6,1.831,4.347,4.347,0,0,1,.4,1.6c0,.333-.133.433-.466.433-.9-.033-1.831-.033-2.73-.033Zm-.466-.666c.732,0,1.465-.033,2.23,0,.5.033.566-.166.433-.6a2.689,2.689,0,0,0-2.8-1.9,2.589,2.589,0,0,0-2.5,2.064c-.067.333.033.433.366.433C168.127,241.415,168.893,241.449,169.658,241.449Z" transform="translate(-125.883 -232.963)" fill="#0a0a0a"/>
      <path id="Path_1902" data-name="Path 1902" d="M98.955,245.373a6.362,6.362,0,0,1-1.964-.233,2,2,0,0,1-1.431-1.665c-.033-.233-.067-.5.266-.5.266,0,.632-.2.7.266a1.582,1.582,0,0,0,1.6,1.365,4.485,4.485,0,0,0,2.3-.166,1.113,1.113,0,0,0,.766-1.2,1.034,1.034,0,0,0-.965-.932c-1.065-.2-2.131-.3-3.163-.566a1.526,1.526,0,0,1-1.3-1.5,1.752,1.752,0,0,1,1.2-1.931,5.91,5.91,0,0,1,3.562-.033,1.925,1.925,0,0,1,1.4,1.631c.033.233.033.466-.3.466-.266,0-.633.133-.666-.3a1.605,1.605,0,0,0-1.731-1.3,3.966,3.966,0,0,0-1.764.2,1.043,1.043,0,0,0-.732,1.1.9.9,0,0,0,.866.866c.932.166,1.864.3,2.8.466,1.265.266,1.964.8,1.8,2.131a1.9,1.9,0,0,1-1.332,1.565A4.242,4.242,0,0,1,98.955,245.373Z" transform="translate(-78.915 -232.793)" fill="#0a0a0a"/>
      <path id="Path_1903" data-name="Path 1903" d="M74.762,245.457A3.377,3.377,0,0,1,71.1,241.8a3.435,3.435,0,0,1,3.662-3.7,3.4,3.4,0,0,1,3.762,3.7C78.524,244.125,77.159,245.424,74.762,245.457Zm2.763-3.562c0-1.2-.2-2.164-1.232-2.663a3.024,3.024,0,0,0-3.129.1c-1.2.766-1.265,2.563-.9,3.728a2.163,2.163,0,0,0,.766,1.132,3.014,3.014,0,0,0,3.163.2A2.442,2.442,0,0,0,77.525,241.9Z" transform="translate(-62.611 -232.844)" fill="#0a0a0a"/>
      <path id="Path_1904" data-name="Path 1904" d="M118.439,237.626c0-.7-.033-1.365,0-2.064.033-.433-.133-.633-.566-.566-.166.033-.4.067-.533-.1a.469.469,0,0,1-.033-.466c.067-.2.266-.2.433-.166.633.1.766-.2.7-.766-.033-.333,0-.666,0-1-.033-.4.166-.5.533-.5s.433.166.433.466c-.033.433,0,.9,0,1.332,0,.333.1.466.433.466a5.37,5.37,0,0,1,.732,0c.266,0,.466.067.466.4,0,.3-.166.366-.433.366-1.165.067-1.165.067-1.165,1.265v3.163c0,.8.3,1.065,1.1,1.032.266,0,.5-.067.533.3a.419.419,0,0,1-.466.5c-1.431.033-2.1-.233-2.1-1.764A18.39,18.39,0,0,1,118.439,237.626Z" transform="translate(-93.406 -228.774)" fill="#0a0a0a"/>
      <path id="Path_1905" data-name="Path 1905" d="M158.094,238.632c.033.233-.067.4-.366.366h-.067c-1.7-.266-2.53.965-2.53,2.5v3.163c0,.4-.166.5-.533.5-.4,0-.466-.2-.466-.533v-2.93H154.1v-2.9c0-.3-.033-.566.4-.566.333,0,.6,0,.566.466,0,.067-.033.2.1.233.133.067.2-.067.266-.166a2.539,2.539,0,0,1,2.33-.766C158.193,238.066,158.06,238.4,158.094,238.632Z" transform="translate(-117.979 -232.777)" fill="#0a0a0a"/>
    </g>
  </g>
</svg>
