<svg xmlns="http://www.w3.org/2000/svg" width="146.03" height="35.714" viewBox="0 0 146.03 35.714">
  <g id="Selenium" transform="translate(-90.3 -249.395)">
    <path id="Path_2092" data-name="Path 2092" d="M90.3,267.284V250.026c0-.535.094-.63.6-.63h30.3c.189,0,.378-.031.472.189.094.189-.063.315-.157.441-1.26,1.764-2.551,3.5-3.811,5.259-.882,1.2-1.764,2.425-2.645,3.622-.63.882-1.26,1.732-1.89,2.614a2.2,2.2,0,0,1-.252.315c-.252.22-.409.22-.63-.031-.976-1.1-1.984-2.173-2.96-3.275-.283-.315-.5-.315-.756.031-.535.661-1.039,1.354-1.575,2.016-.22.283-.22.472.063.756,1.417,1.449,2.8,2.9,4.22,4.346.378.378.724.756,1.1,1.134.283.283.441.283.693-.031,1.732-1.953,3.464-3.874,5.165-5.826,1.323-1.48,2.614-2.96,3.937-4.409.567-.63,1.1-1.26,1.638-1.89.126-.126.22-.283.441-.22s.189.283.189.441v29.729c0,.472-.031.5-.535.5H90.835c-.472,0-.5-.063-.5-.535-.031-5.763-.031-11.526-.031-17.289Zm9.385,13.888a7.866,7.866,0,0,0,2.96-.441,4.27,4.27,0,0,0,2.9-3.118,3.985,3.985,0,0,0-1.827-4.535,15,15,0,0,0-3.842-1.323A6.7,6.7,0,0,1,97.732,271a1.007,1.007,0,0,1-.346-1.449,1.538,1.538,0,0,1,.976-.724,4.153,4.153,0,0,1,1.764-.094,6.3,6.3,0,0,1,3.149,1.26c.283.22.441.189.63-.094.346-.5.724-1.008,1.071-1.512.252-.378.22-.535-.157-.819a7.724,7.724,0,0,0-3.149-1.417,7.606,7.606,0,0,0-5.385.63,3.9,3.9,0,0,0-2.2,3.653,3.811,3.811,0,0,0,.031.6,3.306,3.306,0,0,0,1.323,2.393,8.655,8.655,0,0,0,3.338,1.386,16.958,16.958,0,0,1,2.74.787c.819.346,1.165.945.913,1.638a1.663,1.663,0,0,1-.85.882,4.8,4.8,0,0,1-3.244.157,6.124,6.124,0,0,1-2.645-1.386c-.283-.252-.409-.22-.63.063l-1.228,1.7a.317.317,0,0,0,.031.472c.22.189.409.378.63.535A8.578,8.578,0,0,0,99.685,281.172Zm14.549-4.818h3.59c.378,0,.441-.063.441-.441a7.543,7.543,0,0,0-.567-2.992,4.689,4.689,0,0,0-2.3-2.551,5.64,5.64,0,0,0-5.165-.031,5.2,5.2,0,0,0-2.929,3.811,5.978,5.978,0,0,0,.535,4.157,5.367,5.367,0,0,0,4.063,2.834,7.079,7.079,0,0,0,3.338-.283,8.709,8.709,0,0,0,1.89-.913c.252-.157.252-.346.094-.6-.22-.315-.472-.661-.693-1.008-.252-.346-.346-.378-.693-.157a5.351,5.351,0,0,1-2.834.787,2.872,2.872,0,0,1-2.74-2.047c-.157-.472-.094-.567.409-.567Z" fill="#26b24c"/>
    <path id="Path_2093" data-name="Path 2093" d="M496.8,300.064v-6.172c0-.567,0-.567.535-.567.976.031.819-.157.976.85.094.661.126.661.693.346a13.468,13.468,0,0,1,2.645-1.228,4.9,4.9,0,0,1,2.929-.094,2.677,2.677,0,0,1,1.606,1.386c.157.315.315.315.567.126a11.507,11.507,0,0,1,3.086-1.449,4.182,4.182,0,0,1,3.968.6,2.679,2.679,0,0,1,.756,1.2,5.136,5.136,0,0,1,.252,1.953v9.227c0,.567,0,.567-.567.567h-.724c-.378,0-.441-.063-.441-.441v-9.353a2.153,2.153,0,0,0-2.74-2.3,9.017,9.017,0,0,0-3.433,1.354c-.22.126-.22.346-.22.567v9.889c0,.189-.094.283-.315.283h-1.008c-.378,0-.441-.063-.441-.441v-5.417c0-1.386.031-2.771,0-4.157a2.064,2.064,0,0,0-1.1-1.921,2.922,2.922,0,0,0-1.638-.189,9.515,9.515,0,0,0-3.149,1.165.908.908,0,0,0-.535.945c.031,3.181.031,6.33.031,9.511,0,.441-.063.5-.5.5h-.913c-.22,0-.315-.094-.315-.315v-.5C496.8,304,496.8,302.048,496.8,300.064Z" transform="translate(-278.483 -29.882)" fill="#35b34e"/>
    <path id="Path_2094" data-name="Path 2094" d="M278.916,301.179H274.79c-.252,0-.409.031-.378.315a4.657,4.657,0,0,0,1.921,3.811,4.167,4.167,0,0,0,2.11.661,12.245,12.245,0,0,0,4.126-.6c.252-.063.346,0,.346.252.031.22.063.472.094.693a.383.383,0,0,1-.283.5,12.469,12.469,0,0,1-5.511.567,5.238,5.238,0,0,1-3.811-2.866,8.547,8.547,0,0,1-.756-3.149,9.964,9.964,0,0,1,.189-2.74,6.083,6.083,0,0,1,2.708-4.22,5.732,5.732,0,0,1,4.755-.472,4.13,4.13,0,0,1,2.614,2.456,10.044,10.044,0,0,1,.567,4.409c0,.315-.157.441-.472.441-1.354-.063-2.74-.063-4.094-.063Zm-.787-1.354h3.4c.283,0,.378-.094.346-.378a8,8,0,0,0-.409-2.425,3.22,3.22,0,0,0-.724-1.323,3.817,3.817,0,0,0-5.007.283,6.123,6.123,0,0,0-1.291,3.4c-.063.315.063.409.378.409C275.924,299.825,277.026,299.825,278.128,299.825Z" transform="translate(-124.907 -30.305)" fill="#38b44e"/>
    <path id="Path_2095" data-name="Path 2095" d="M342.1,301.073h-4.062c-.315,0-.409.094-.378.409a4.894,4.894,0,0,0,1.165,3.118,3.613,3.613,0,0,0,2.614,1.228,9.08,9.08,0,0,0,2.771-.189c.567-.126,1.1-.283,1.638-.441.22-.063.283,0,.315.189.031.157.031.315.063.5.063.63.031.724-.6.913a13.418,13.418,0,0,1-4.314.535,5.406,5.406,0,0,1-3.748-1.638,5.879,5.879,0,0,1-1.26-2.3,8.9,8.9,0,0,1-.346-3.4,7.931,7.931,0,0,1,1.543-4.629,4.952,4.952,0,0,1,2.488-1.638,6.093,6.093,0,0,1,2.708-.189,4.228,4.228,0,0,1,3.338,2.362,8.984,8.984,0,0,1,.661,4.724c-.031.315-.157.441-.5.441C344.813,301.042,343.459,301.073,342.1,301.073Zm-.756-1.354h3.4c.283,0,.378-.094.378-.378a6.887,6.887,0,0,0-.661-2.96,2.582,2.582,0,0,0-2.362-1.543,5.309,5.309,0,0,0-1.008.031,3.381,3.381,0,0,0-2.834,2.11,8.627,8.627,0,0,0-.567,2.362c-.031.283.063.378.346.378Z" transform="translate(-168.287 -30.199)" fill="#38b44e"/>
    <path id="Path_2096" data-name="Path 2096" d="M459.3,300.866v6.267c0,.472-.031.5-.472.5h-.6c-.283.031-.378-.126-.409-.378,0-.315-.031-.63-.063-.945-.031-.22-.126-.315-.346-.189-.85.409-1.7.819-2.582,1.165a7.134,7.134,0,0,1-4.283.441,2.867,2.867,0,0,1-1.984-2.11,9.817,9.817,0,0,1-.157-2.141v-8.786c0-.5,0-.5.5-.5h.724c.472,0,.5.031.5.535v9.353a3,3,0,0,0,.315,1.291,1.7,1.7,0,0,0,1.638.976,7.73,7.73,0,0,0,2.551-.409c.882-.315,1.732-.724,2.614-1.1.252-.094.283-.315.283-.535v-9.542c0-.5.063-.567.535-.567a7.658,7.658,0,0,0,.85,0c.283-.031.378.094.378.378v6.3Z" transform="translate(-245.326 -30.685)" fill="#38b44e"/>
    <path id="Path_2097" data-name="Path 2097" d="M381.363,300.109v-6.172c0-.535,0-.567.567-.567h.441c.441,0,.472.031.5.472.031.22.031.441.063.661.031.346.126.378.441.252.6-.283,1.228-.567,1.827-.819a9,9,0,0,1,3.842-.85,3.165,3.165,0,0,1,2.267.945,3.339,3.339,0,0,1,.913,2.33v10.078c0,.315-.126.441-.441.441h-.913c-.315.031-.409-.126-.409-.409v-9.322a2.6,2.6,0,0,0-.724-1.984,2,2,0,0,0-1.543-.5,11.315,11.315,0,0,0-4.283,1.2c-.031,0-.063.031-.094.031-.724.157-.819.63-.819,1.323.031,3.023.031,6.047,0,9.038,0,.472,0,.5-.5.5h-.756c-.409,0-.441-.031-.441-.441C381.363,304.266,381.363,302.187,381.363,300.109Z" transform="translate(-199.357 -29.927)" fill="#38b44e"/>
    <path id="Path_2098" data-name="Path 2098" d="M318.532,282.809v-9.574c0-.535,0-.535.535-.535h.756c.409,0,.441.031.441.441V292.32c0,.535,0,.535-.567.535h-.882c-.22,0-.315-.094-.315-.283v-.315C318.532,289.108,318.532,285.958,318.532,282.809Z" transform="translate(-156.334 -15.966)" fill="#38b44e"/>
    <path id="Path_2099" data-name="Path 2099" d="M231.889,296a11.713,11.713,0,0,1-3.149-.22,9.527,9.527,0,0,1-2.456-.535.374.374,0,0,1-.283-.409v-.882c0-.378.157-.5.535-.409l1.228.283a19.75,19.75,0,0,0,3.055.378,8.773,8.773,0,0,0,1.575.031,4.848,4.848,0,0,0,2.771-.976,2.887,2.887,0,0,0,.976-2.614,3.294,3.294,0,0,0-2.3-2.74,20.919,20.919,0,0,0-2.488-.819,9.157,9.157,0,0,1-3.874-2.11,3.872,3.872,0,0,1-.724-1.134,5.487,5.487,0,0,1-.346-2.834,4.263,4.263,0,0,1,.819-1.953,5.243,5.243,0,0,1,2.677-1.984,6.842,6.842,0,0,1,1.953-.315,13.4,13.4,0,0,1,2.519.094,11.965,11.965,0,0,1,2.614.472c.189.063.283.157.283.346v1.071c0,.189-.094.252-.283.283a3.959,3.959,0,0,1-1.039-.157,14.977,14.977,0,0,0-3.748-.346,4.368,4.368,0,0,0-3.118,1.354,2.772,2.772,0,0,0-.724,1.669,2.809,2.809,0,0,0,1.039,2.645,7.208,7.208,0,0,0,1.764.913c.724.252,1.449.441,2.141.693a16.747,16.747,0,0,1,2.079.819,4.52,4.52,0,0,1,2.425,2.456,5.953,5.953,0,0,1,.409,2.078,4.729,4.729,0,0,1-1.228,3.181,6.2,6.2,0,0,1-2.74,1.512A7.416,7.416,0,0,1,231.889,296Zm.693-19.116a6.748,6.748,0,0,0-1.953.189,5.057,5.057,0,0,0-2.992,1.7,4.629,4.629,0,0,0-1.071,3.59,4.077,4.077,0,0,0,.787,2.2,6.862,6.862,0,0,0,2.866,1.953c1.1.441,2.267.693,3.37,1.134A3.7,3.7,0,0,1,236.2,290.3a3.2,3.2,0,0,1-.409,2.456,3.819,3.819,0,0,1-2.834,1.606,13.82,13.82,0,0,1-3.779-.094c-.913-.094-1.8-.346-2.708-.5-.252-.031-.315.031-.315.252v.693c-.031.283.094.409.378.472a22.341,22.341,0,0,0,2.456.441,24.718,24.718,0,0,0,3.4.252,7.607,7.607,0,0,0,3.5-.913,4.162,4.162,0,0,0,1.8-1.953,4.985,4.985,0,0,0,.378-2.33,4.169,4.169,0,0,0-2.078-3.559,12.861,12.861,0,0,0-3.5-1.386,10.421,10.421,0,0,1-2.992-1.26,3.1,3.1,0,0,1-1.2-3.4,3.514,3.514,0,0,1,2.488-2.425,8.128,8.128,0,0,1,3.59-.157,20.593,20.593,0,0,1,2.362.409q.378.094.378-.283v-.787c0-.189-.063-.283-.252-.315A18.049,18.049,0,0,0,232.582,276.888Z" transform="translate(-92.965 -18.736)" fill="#b6dcad"/>
    <path id="Path_2100" data-name="Path 2100" d="M429.3,300.534v-6.361c0-.472.031-.472.472-.472h.913c.378,0,.5.126.5.5v12.66c0,.409-.126.535-.535.535h-1.039c-.22,0-.315-.094-.315-.315v-6.55Zm.094,0V306.8c0,.283.094.409.378.378a5.558,5.558,0,0,1,.724,0c.472,0,.5,0,.5-.5V294.235c0-.252-.094-.346-.346-.315h-.661c-.661,0-.6-.063-.6.567Z" transform="translate(-232.241 -30.352)" fill="#38b44e"/>
    <path id="Path_2101" data-name="Path 2101" d="M429.734,277.7a1.092,1.092,0,0,1,1.134,1.2,1,1,0,0,1-1.1,1.071c-.724,0-1.165-.378-1.165-1.039A1.1,1.1,0,0,1,429.734,277.7Z" transform="translate(-231.761 -19.391)" fill="#38b44e"/>
    <path id="Path_2102" data-name="Path 2102" d="M107.228,317.194a8.636,8.636,0,0,1-5.165-1.512c-.22-.157-.409-.346-.63-.535a.316.316,0,0,1-.031-.472l1.228-1.7c.22-.283.346-.315.63-.063a5.967,5.967,0,0,0,2.645,1.386,4.609,4.609,0,0,0,3.244-.157,1.663,1.663,0,0,0,.85-.882,1.253,1.253,0,0,0-.913-1.638,20.9,20.9,0,0,0-2.74-.787,8.459,8.459,0,0,1-3.338-1.386,3.306,3.306,0,0,1-1.323-2.393,3.81,3.81,0,0,1-.031-.6,3.9,3.9,0,0,1,2.2-3.653,8.345,8.345,0,0,1,8.534.787c.378.283.409.441.157.819-.346.5-.693,1.008-1.071,1.512-.189.283-.346.315-.63.094a6.135,6.135,0,0,0-3.149-1.26,4.729,4.729,0,0,0-1.764.094,1.623,1.623,0,0,0-.976.724,1.007,1.007,0,0,0,.346,1.449,7.227,7.227,0,0,0,2.141.756,15,15,0,0,1,3.842,1.323,3.969,3.969,0,0,1,1.827,4.535,4.218,4.218,0,0,1-2.9,3.118A7,7,0,0,1,107.228,317.194Z" transform="translate(-7.544 -36.022)" fill="#f7fbf6"/>
    <path id="Path_2103" data-name="Path 2103" d="M150.906,320.588h-3.559c-.5,0-.567.063-.409.567a2.9,2.9,0,0,0,2.74,2.047,4.945,4.945,0,0,0,2.834-.787c.346-.22.441-.189.693.157.22.346.441.661.693,1.008a.375.375,0,0,1-.094.6,6.567,6.567,0,0,1-1.89.913,7.545,7.545,0,0,1-3.338.283,5.263,5.263,0,0,1-4.063-2.834,5.978,5.978,0,0,1-.535-4.157,5.318,5.318,0,0,1,2.929-3.811,5.64,5.64,0,0,1,5.165.031,4.8,4.8,0,0,1,2.3,2.551,7.44,7.44,0,0,1,.567,2.992c0,.378-.063.441-.441.441Zm-1.417-1.858h2.362c.22,0,.409-.063.346-.346a3.807,3.807,0,0,0-.252-.787,2.757,2.757,0,0,0-5.1.661c-.094.378,0,.472.378.472Z" transform="translate(-36.672 -44.233)" fill="#f7fbf6"/>
    <path id="Path_2104" data-name="Path 2104" d="M232.914,277.186a19.688,19.688,0,0,1,4.283.535.282.282,0,0,1,.252.315v.787c0,.283-.094.346-.378.283a15.454,15.454,0,0,0-2.362-.409,9.183,9.183,0,0,0-3.59.157,3.46,3.46,0,0,0-2.488,2.425,3.1,3.1,0,0,0,1.2,3.4,10.421,10.421,0,0,0,2.992,1.26,13.959,13.959,0,0,1,3.5,1.386,4.238,4.238,0,0,1,2.078,3.559,4.859,4.859,0,0,1-.378,2.33,4.149,4.149,0,0,1-1.8,1.953,7.238,7.238,0,0,1-3.5.913,24.723,24.723,0,0,1-3.4-.252c-.819-.126-1.638-.252-2.456-.441-.283-.063-.409-.189-.378-.472v-.693c0-.22.063-.315.315-.252.913.157,1.8.409,2.708.5a13.819,13.819,0,0,0,3.779.094,3.875,3.875,0,0,0,2.834-1.606,3.2,3.2,0,0,0,.409-2.456,3.755,3.755,0,0,0-2.614-2.645c-1.1-.441-2.267-.693-3.37-1.134a6.24,6.24,0,0,1-2.866-1.953,3.989,3.989,0,0,1-.787-2.2,4.666,4.666,0,0,1,1.071-3.59,5.057,5.057,0,0,1,2.992-1.7C231.591,277.249,232.253,277.155,232.914,277.186Z" transform="translate(-93.297 -19.035)" fill="#26b24c"/>
    <path id="Path_2105" data-name="Path 2105" d="M429.6,301.01v-6.047c0-.63-.063-.567.6-.567h.661c.252,0,.346.094.346.315v12.439c0,.5,0,.5-.5.5a5.558,5.558,0,0,0-.724,0c-.283.031-.378-.094-.378-.378Z" transform="translate(-232.443 -30.828)" fill="#38b44e"/>
    <path id="Path_2106" data-name="Path 2106" d="M155.971,323.579H153.7c-.378,0-.472-.094-.378-.472a2.757,2.757,0,0,1,5.1-.661,3.286,3.286,0,0,1,.252.787c.063.283-.094.346-.346.346Z" transform="translate(-43.154 -49.083)" fill="#38b44e"/>
  </g>
</svg>
