<svg xmlns="http://www.w3.org/2000/svg" xmlns:xlink="http://www.w3.org/1999/xlink" width="153" height="31.222" viewBox="0 0 153 31.222">
  <defs>
    <linearGradient id="linear-gradient" y1="-0.889" x2="1" y2="1.889" gradientUnits="objectBoundingBox">
      <stop offset="0" stop-color="#2383ae"/>
      <stop offset="1" stop-color="#6dd7b9"/>
    </linearGradient>
  </defs>
  <g id="Tailwindcss" transform="translate(-8.627 -19.516)">
    <path id="Path_1337" data-name="Path 1337" d="M20.3,29.924q2.6-10.408,13.007-10.408c10.408,0,11.706,7.8,16.908,9.1q5.2,1.3,9.1-3.9-2.6,10.406-13.006,10.406c-10.408,0-11.706-7.8-16.908-9.1q-5.2-1.3-9.1,3.9ZM7.294,45.534Q9.9,35.126,20.3,35.126c10.408,0,11.706,7.8,16.908,9.1q5.2,1.3,9.1-3.9-2.6,10.408-13.007,10.408c-10.408,0-11.706-7.8-16.908-9.1q-5.2-1.3-9.1,3.9Z" transform="translate(1.333 0)" fill-rule="evenodd" fill="url(#linear-gradient)"/>
    <path id="Path_1338" data-name="Path 1338" d="M51.048,28.344H47.643V26.3H56.83v2.04h-3.4V37.6H51.048Zm10.229,8.209a4.333,4.333,0,0,1-1.1.9A3.145,3.145,0,0,1,58.6,37.8a3.812,3.812,0,0,1-1.053-.143,2.44,2.44,0,0,1-.873-.442,2.124,2.124,0,0,1-.593-.767,2.61,2.61,0,0,1-.223-1.117,2.353,2.353,0,0,1,.381-1.392,2.576,2.576,0,0,1,1-.838,4.992,4.992,0,0,1,1.385-.427,12.568,12.568,0,0,1,1.562-.158l1.06-.048v-.411a1.163,1.163,0,0,0-.42-1.042,1.74,1.74,0,0,0-.989-.283q-1.318,0-1.5,1l-2.025-.189a2.6,2.6,0,0,1,1.139-1.876,4.587,4.587,0,0,1,2.472-.578,4.939,4.939,0,0,1,1.616.229,2.639,2.639,0,0,1,1.069.655,2.546,2.546,0,0,1,.587,1.036,4.753,4.753,0,0,1,.182,1.37V37.6H61.277V36.556Zm-.048-2.641-.983.048a5.476,5.476,0,0,0-1.124.143,1.958,1.958,0,0,0-.655.277.825.825,0,0,0-.308.387,1.518,1.518,0,0,0-.079.491.8.8,0,0,0,.283.648,1.206,1.206,0,0,0,.789.238,2.28,2.28,0,0,0,1.394-.4,1.751,1.751,0,0,0,.491-.561,1.729,1.729,0,0,0,.189-.846v-.427Zm3.94-4.571h2.219V37.6H65.169ZM65.14,26.3h2.278V28.3H65.14Zm4.145,0H71.5V37.6H69.285ZM72.5,29.34H74.9l1.157,5.472,1.581-5.393h1.933l1.489,5.409,1.157-5.472h2.312l-2.408,8.255H79.97L78.5,32.171l-1.489,5.441H74.9L72.5,29.357Zm13.043,0h2.219V37.6H85.54ZM85.51,26.3h2.278V28.3H85.51Zm4.13,3.037h2.155v1.139a3.056,3.056,0,0,1,1.161-1.06,3.115,3.115,0,0,1,1.4-.332,2.721,2.721,0,0,1,2.092.736,3.329,3.329,0,0,1,.682,2.317V37.6H94.913V32.442a1.6,1.6,0,0,0-.334-1.187,1.232,1.232,0,0,0-.886-.316,2,2,0,0,0-.737.127,1.971,1.971,0,0,0-.578.363,1.936,1.936,0,0,0-.372.53,1.534,1.534,0,0,0-.149.672V37.6H89.624V29.342Zm15.009,7.165a2.978,2.978,0,0,1-2.565,1.345,3.011,3.011,0,0,1-2.6-1.17,5.381,5.381,0,0,1-.855-3.241,5.941,5.941,0,0,1,.247-1.763,4.114,4.114,0,0,1,.7-1.376,3.157,3.157,0,0,1,1.124-.893,3.616,3.616,0,0,1,2.729-.092,2.938,2.938,0,0,1,1.149.855V26.309H106.8V37.6H104.65V36.51Zm-.048-3.131a4.2,4.2,0,0,0-.149-1.266,1.9,1.9,0,0,0-.435-.774,1.532,1.532,0,0,0-.625-.372,2.65,2.65,0,0,0-.672-.086,1.7,1.7,0,0,0-.689.143,1.539,1.539,0,0,0-.57.442,2.172,2.172,0,0,0-.387.789,5.056,5.056,0,0,0,.006,2.412,2.544,2.544,0,0,0,.372.807,1.38,1.38,0,0,0,.554.442,1.746,1.746,0,0,0,.682.149,1.865,1.865,0,0,0,1.3-.459,1.936,1.936,0,0,0,.466-.767,3.809,3.809,0,0,0,.149-1.161V33.39Zm17.334.316a5.231,5.231,0,0,1-.42,1.668,4.11,4.11,0,0,1-.934,1.328,4.154,4.154,0,0,1-1.458.877,5.859,5.859,0,0,1-2,.316,5.585,5.585,0,0,1-2.257-.427,4.437,4.437,0,0,1-1.63-1.2,5.157,5.157,0,0,1-.99-1.876,8.362,8.362,0,0,1-.332-2.427,7.737,7.737,0,0,1,.363-2.467,5.394,5.394,0,0,1,1.045-1.866,4.512,4.512,0,0,1,1.647-1.187,5.543,5.543,0,0,1,2.189-.411,5.907,5.907,0,0,1,1.876.268,3.7,3.7,0,0,1,1.347.774,3.893,3.893,0,0,1,.878,1.218,6.432,6.432,0,0,1,.49,1.6l-2.345.3a3.2,3.2,0,0,0-.67-1.566,1.989,1.989,0,0,0-1.578-.569,2.345,2.345,0,0,0-2.065,1.02,5.052,5.052,0,0,0-.707,2.886,4.767,4.767,0,0,0,.753,2.895,2.382,2.382,0,0,0,2.019,1.012,2.082,2.082,0,0,0,1.608-.561,2.819,2.819,0,0,0,.64-1.605Zm3.45.223a2.048,2.048,0,0,0,.67,1.519,2.745,2.745,0,0,0,1.75.476,3.181,3.181,0,0,0,.935-.119,1.811,1.811,0,0,0,.618-.316,1.117,1.117,0,0,0,.339-.466,1.608,1.608,0,0,0,.1-.585,1.246,1.246,0,0,0-.331-.831,2.119,2.119,0,0,0-1.221-.561l-1.474-.268a8.33,8.33,0,0,1-1.537-.411,3.551,3.551,0,0,1-1.117-.655,2.619,2.619,0,0,1-.688-.989,3.7,3.7,0,0,1-.238-1.392,3.022,3.022,0,0,1,.325-1.423,2.918,2.918,0,0,1,.9-1.027,4.286,4.286,0,0,1,1.385-.625,6.9,6.9,0,0,1,1.775-.213,6.445,6.445,0,0,1,2.059.283,3.687,3.687,0,0,1,1.331.752,2.926,2.926,0,0,1,.752,1.084,5.205,5.205,0,0,1,.328,1.28l-2.233.283a2.2,2.2,0,0,0-.67-1.345,2.349,2.349,0,0,0-1.513-.411,3.891,3.891,0,0,0-.99.1,1.992,1.992,0,0,0-.625.268.923.923,0,0,0-.334.387,1.172,1.172,0,0,0-.1.459,1.2,1.2,0,0,0,.357.948,2.662,2.662,0,0,0,1.211.491l1.551.3a5.416,5.416,0,0,1,2.695,1.176,3.1,3.1,0,0,1,.855,2.348,3.352,3.352,0,0,1-.277,1.37,3.067,3.067,0,0,1-.825,1.091,3.871,3.871,0,0,1-1.368.728,6.4,6.4,0,0,1-1.933.261,5.51,5.51,0,0,1-3.539-.989,3.9,3.9,0,0,1-1.34-2.981h2.391Zm10.274,0a2.048,2.048,0,0,0,.67,1.519,2.753,2.753,0,0,0,1.75.476,3.2,3.2,0,0,0,.938-.119,1.784,1.784,0,0,0,.618-.316,1.117,1.117,0,0,0,.34-.466,1.608,1.608,0,0,0,.1-.585,1.251,1.251,0,0,0-.332-.831,2.124,2.124,0,0,0-1.221-.561l-1.474-.268a8.331,8.331,0,0,1-1.537-.411A3.552,3.552,0,0,1,134.4,31.7a2.64,2.64,0,0,1-.689-.989,3.676,3.676,0,0,1-.238-1.392,3.022,3.022,0,0,1,.325-1.423,3.1,3.1,0,0,1,.9-1.042,3.994,3.994,0,0,1,1.385-.625,6.905,6.905,0,0,1,1.775-.213,6.445,6.445,0,0,1,2.059.283,3.7,3.7,0,0,1,1.331.752A2.891,2.891,0,0,1,142,28.13a5.274,5.274,0,0,1,.328,1.28l-2.233.283a2.2,2.2,0,0,0-.67-1.345,2.349,2.349,0,0,0-1.513-.411,3.891,3.891,0,0,0-.99.1,1.992,1.992,0,0,0-.625.268.923.923,0,0,0-.334.387,1.146,1.146,0,0,0-.1.459,1.2,1.2,0,0,0,.357.948,2.662,2.662,0,0,0,1.212.491l1.566.313a5.416,5.416,0,0,1,2.695,1.176,3.1,3.1,0,0,1,.855,2.348,3.336,3.336,0,0,1-.277,1.368,3.053,3.053,0,0,1-.825,1.091,3.87,3.87,0,0,1-1.37.73,6.36,6.36,0,0,1-1.931.261,5.517,5.517,0,0,1-3.541-.989,3.826,3.826,0,0,1-1.322-2.981Z" transform="translate(19.077 3.176)" fill="#24292e" fill-rule="evenodd"/>
  </g>
</svg>
