<svg xmlns="http://www.w3.org/2000/svg" width="147.397" height="37.5" viewBox="0 0 147.397 37.5">
  <g id="WIX" transform="translate(-69.386 -169.2)">
    <path id="Path_1783" data-name="Path 1783" d="M245.347,194.659c.157-.565.283-1.068.408-1.57,1.131-4.271,2.261-8.543,3.361-12.814.345-1.288.628-2.607,1.068-3.894a10.635,10.635,0,0,1,1.7-3.235,4.987,4.987,0,0,1,2.7-1.727,7.274,7.274,0,0,1,2.952-.345,6.951,6.951,0,0,1,3.863,1.445,6.45,6.45,0,0,1,1.413,1.916,18.054,18.054,0,0,1,1.539,4.366c.974,3.706,1.947,7.443,2.921,11.149.408,1.539.817,3.046,1.225,4.617a.739.739,0,0,0,.157-.408c1.162-4.46,2.293-8.92,3.455-13.348.565-2.167,1.1-4.366,1.7-6.533a6.356,6.356,0,0,1,5.245-4.711,11.183,11.183,0,0,1,2.7-.188c.188,0,.251.031.188.22-1.539,5.779-3.078,11.589-4.617,17.368-1.319,4.931-2.607,9.862-3.926,14.824-.408,1.57-.848,3.172-1.256,4.742-.031.094,0,.157-.157.188a15.522,15.522,0,0,1-3.612-.22,6.114,6.114,0,0,1-4.428-3.675,28.031,28.031,0,0,1-1.319-4.177c-.785-3.172-1.57-6.313-2.355-9.485-.722-2.858-1.413-5.747-2.136-8.574a6.4,6.4,0,0,0-.345-1.1c-.188-.377-.408-.722-.911-.691a.909.909,0,0,0-.754.5,5.7,5.7,0,0,0-.44,1.225c-.6,2.23-1.131,4.491-1.7,6.721-.754,2.984-1.476,5.936-2.2,8.92-.44,1.79-.848,3.58-1.413,5.308a14.844,14.844,0,0,1-.785,1.947,5.887,5.887,0,0,1-2.67,2.575,7.075,7.075,0,0,1-2.764.722c-.754.063-1.508.031-2.261.031-.157,0-.188-.063-.22-.188-1.445-5.5-2.921-11.024-4.366-16.52q-2.073-7.82-4.146-15.609c-.408-1.6-.848-3.172-1.256-4.774-.031-.094-.126-.251.126-.251a10.01,10.01,0,0,1,4.177.6,6.179,6.179,0,0,1,3.832,4.24c.471,1.665.879,3.329,1.319,4.994.722,2.8,1.445,5.559,2.167,8.354.6,2.293,1.193,4.554,1.759,6.847C245.284,194.471,245.316,194.534,245.347,194.659Z" transform="translate(-111.447 -0.114)" fill="#1e1e1c"/>
    <path id="Path_1784" data-name="Path 1784" d="M464.208,206.8a16.172,16.172,0,0,1-3.486,0,8.317,8.317,0,0,1-4.114-1.35,11.425,11.425,0,0,1-1.947-1.947,71.007,71.007,0,0,1-4.24-5.842c-.785-1.1-1.539-2.23-2.324-3.329a1.176,1.176,0,0,0-.785-.6,1,1,0,0,0-.974.534c-.974,1.413-1.947,2.827-2.952,4.24-1.036,1.476-2.041,3.015-3.172,4.46A20.648,20.648,0,0,1,438.3,205.1a6.867,6.867,0,0,1-3.329,1.508,17.781,17.781,0,0,1-3.423.283,6.975,6.975,0,0,1-1.382-.094c.22-.314.408-.628.628-.942,3.015-4.491,6.062-8.982,9.077-13.474.879-1.319,1.759-2.638,2.638-3.926a.286.286,0,0,0,0-.377q-5.135-7.632-10.27-15.232c-.691-1.005-1.35-2.01-2.041-3.046a.336.336,0,0,1-.094-.157,12.649,12.649,0,0,1,1.853-.157,13.518,13.518,0,0,1,3.392.314,6.719,6.719,0,0,1,3.612,2.293,58,58,0,0,1,3.926,5.214c1.1,1.6,2.23,3.2,3.329,4.805.063.094.126.157.188.251a.865.865,0,0,0,1.445-.031c.5-.691.974-1.382,1.476-2.073,1.445-2.041,2.827-4.114,4.3-6.124a22.157,22.157,0,0,1,2.387-2.764,5.839,5.839,0,0,1,3.015-1.57,13.7,13.7,0,0,1,4.083-.251c.345.031.691.063,1.068.126-.534.817-1.1,1.633-1.633,2.418-3.58,5.339-7.192,10.678-10.773,16.018a.286.286,0,0,0,0,.377q5.983,8.857,11.966,17.776A1.979,1.979,0,0,1,464.208,206.8Z" transform="translate(-247.425 -0.193)" fill="#1e1e1c"/>
    <path id="Path_1785" data-name="Path 1785" d="M405.753,189.2v24.592a12.521,12.521,0,0,1-.377,3.58,3.64,3.64,0,0,1-1.57,2.1,6.4,6.4,0,0,1-3.361.942c-.44,0-.848,0-1.288-.031-.126,0-.157-.031-.157-.157V195.136a2.859,2.859,0,0,1,1.727-2.8c.911-.44,1.822-.817,2.7-1.288a6.772,6.772,0,0,0,2.23-1.79C405.69,189.2,405.721,189.2,405.753,189.2Z" transform="translate(-226.092 -13.719)" fill="#1e1e1c"/>
    <path id="Path_1786" data-name="Path 1786" d="M92.349,195.017c-.5.785-.974,1.57-1.476,2.356-1.382,2.23-2.732,4.46-4.114,6.658a5.427,5.427,0,0,1-3.8,2.45,6.669,6.669,0,0,1-1.382.094c-2.1,0-4.177.094-6.25.031a1.986,1.986,0,0,1-1.1-.283.879.879,0,0,1-.377-1.036,5.169,5.169,0,0,1,.754-1.57c2.324-4.083,4.491-8.26,6.752-12.374.471-.879.974-1.79,1.445-2.7.063-.094.094-.157-.063-.251a11.541,11.541,0,0,1-3.518-2.732A38.116,38.116,0,0,1,74.7,179.47c-1.131-1.822-2.073-3.769-3.109-5.653a16.49,16.49,0,0,0-1.476-2.356c-.157-.188-.345-.377-.5-.6a.94.94,0,0,1,.126-1.351,1.453,1.453,0,0,1,.785-.251c2.167,0,4.3-.031,6.47,0a4.23,4.23,0,0,1,2.167.785,16.285,16.285,0,0,1,3.58,3.141c.345.408.722.848,1.068,1.256l.565-1.225a8.64,8.64,0,0,1,1.162-1.947,4.65,4.65,0,0,1,2.607-1.665,3.1,3.1,0,0,1,.754-.094h6.941a4.223,4.223,0,0,1,3.109,1.445,9.487,9.487,0,0,1,1.539,2.544,8.534,8.534,0,0,1,.345.785c.063.126.094.157.188.031a20.5,20.5,0,0,1,1.727-1.979,13.05,13.05,0,0,1,3.8-2.827,3.94,3.94,0,0,1,1.6-.314h5.967a1.6,1.6,0,0,1,.534.094.875.875,0,0,1,.628,1.256,2.342,2.342,0,0,1-.22.377,12.67,12.67,0,0,0-2.041,3.109c-1.1,2.1-2.2,4.177-3.455,6.187a35.053,35.053,0,0,1-4.114,5.465,11.518,11.518,0,0,1-3.392,2.607c-.157.063-.157.126-.094.251,2.8,5.151,5.5,10.364,8.417,15.484a4.61,4.61,0,0,1,.471,1.068.993.993,0,0,1-.785,1.35,2.9,2.9,0,0,1-.911.094c-1.319,0-2.638,0-3.957-.031-.754-.031-1.476-.031-2.23-.031a5.85,5.85,0,0,1-5.371-3.046c-1.7-2.8-3.392-5.59-5.151-8.323C92.475,195.142,92.443,195.048,92.349,195.017ZM111.7,175.387c.063,0,.063-.063.063-.094.22-.408.408-.817.66-1.225a15.888,15.888,0,0,1,2.2-3.361.684.684,0,0,0,.157-.251c.094-.283.031-.44-.251-.5a1.467,1.467,0,0,0-.534-.094h-6.03a.612.612,0,0,0-.251.031,4.579,4.579,0,0,0-1.979.817,15.573,15.573,0,0,0-2.984,2.575c-.565.628-1.1,1.256-1.633,1.916-.188.251-.408.188-.534-.094-.063-.126-.094-.283-.157-.408a11.883,11.883,0,0,0-1.6-2.984,4.011,4.011,0,0,0-2.356-1.539,7.1,7.1,0,0,0-1.633-.031H89.585a4.1,4.1,0,0,0-1.508.126,4.3,4.3,0,0,0-2.575,2.1,16.089,16.089,0,0,0-1.288,2.67c-.157.408-.345.44-.628.094a23.875,23.875,0,0,0-1.633-1.916,15.259,15.259,0,0,0-3.486-2.858,3.977,3.977,0,0,0-1.979-.534H71.306a4.73,4.73,0,0,0-.942.031c-.5.094-.6.377-.314.754.126.188.314.345.44.5a18.553,18.553,0,0,1,1.7,2.7c.974,1.853,1.947,3.737,3.046,5.528a41.729,41.729,0,0,0,4.3,5.9,10.929,10.929,0,0,0,3.737,2.8c.22.094.251.251.126.5-1.193,2.2-2.387,4.428-3.549,6.627-.534.974-1.036,1.979-1.57,2.952-.063.126-.157.251-.22.408-1.036,1.916-2.1,3.832-3.172,5.716a4.726,4.726,0,0,0-.5,1.068c-.094.314,0,.471.314.6a2.71,2.71,0,0,0,.879.126c2.073-.031,4.114-.031,6.187-.063a6.194,6.194,0,0,0,1.508-.188,5.38,5.38,0,0,0,3.329-2.575c1.822-2.952,3.612-5.936,5.465-8.857.22-.345.408-.345.628,0,.471.754.942,1.476,1.413,2.23,1.445,2.356,2.889,4.711,4.366,7.067a4.908,4.908,0,0,0,1.225,1.319,5.27,5.27,0,0,0,3.392,1.005c1.288,0,2.575.031,3.832.031a27.761,27.761,0,0,0,2.8-.031c.722-.094.848-.345.565-1.005-.22-.5-.5-.974-.785-1.476-2.8-4.962-5.433-10.019-8.134-15.044-.126-.251-.094-.377.188-.5a8.149,8.149,0,0,0,1.445-.817,15.939,15.939,0,0,0,3.361-3.3,49.369,49.369,0,0,0,4.774-7.381,4.268,4.268,0,0,0,.565-1.068Z" fill="#24231f"/>
    <path id="Path_1787" data-name="Path 1787" d="M399.17,177.5c0-.471-.031-.879,0-1.319a20.427,20.427,0,0,1,.22-2.387,5.158,5.158,0,0,1,1.036-2.575A4.389,4.389,0,0,1,403,169.738a10.737,10.737,0,0,1,2.638-.251c.094,0,.22-.031.22.126a10.066,10.066,0,0,1-.377,3.2,3.745,3.745,0,0,1-1.445,1.884,11.084,11.084,0,0,1-2.544,1.382,7.586,7.586,0,0,0-2.261,1.35Z" transform="translate(-226.199 -0.193)" fill="#ffcd08"/>
    <path id="Path_1788" data-name="Path 1788" d="M79.255,199.581c.534-.974,1.036-1.979,1.57-2.952,1.193-2.2,2.387-4.428,3.549-6.627.157-.283.126-.408-.126-.5a10.929,10.929,0,0,1-3.737-2.8,35.932,35.932,0,0,1-4.3-5.9c-1.1-1.79-2.073-3.675-3.046-5.528a16.208,16.208,0,0,0-1.7-2.7c-.126-.188-.314-.345-.44-.5-.314-.408-.188-.66.314-.754a4.731,4.731,0,0,1,.942-.031h5.182a3.891,3.891,0,0,1,1.979.534,15.259,15.259,0,0,1,3.486,2.858c.565.6,1.1,1.256,1.633,1.916.251.314.471.283.628-.094a16.089,16.089,0,0,1,1.288-2.67,4.3,4.3,0,0,1,2.575-2.1,6.117,6.117,0,0,1,1.508-.126c.691.031,1.382,0,2.041,0h3.2a9.459,9.459,0,0,1,1.633.031,3.786,3.786,0,0,1,2.356,1.539,12.45,12.45,0,0,1,1.6,2.984c.063.126.094.283.157.408.126.283.345.314.534.094a23.873,23.873,0,0,1,1.633-1.916,16.584,16.584,0,0,1,2.984-2.575,4.579,4.579,0,0,1,1.979-.817c.094,0,.188-.031.251-.031h6.03a1.6,1.6,0,0,1,.534.094c.283.094.377.251.251.5a.684.684,0,0,1-.157.251,15.888,15.888,0,0,0-2.2,3.361l-.66,1.225c-.063,0-.094.031-.063.094h0c-.126.031-.188.157-.251.22a19.276,19.276,0,0,1-4.868,4.146,43.064,43.064,0,0,1-7.6,3.361c-1.947.691-3.894,1.288-5.81,2.1a25.333,25.333,0,0,0-7.381,4.46c-.785.722-1.633,1.413-2.387,2.167a38.98,38.98,0,0,0-3.769,4.428C80.2,198.324,79.726,198.952,79.255,199.581ZM90.75,179.888a3.17,3.17,0,0,0-.5-1.476,1.068,1.068,0,0,0-1.57-.377,1.376,1.376,0,0,0-.534.942,3.023,3.023,0,0,0,.188,1.665c.22.66.471.848,1.162.785C90.341,181.3,90.75,180.925,90.75,179.888Zm5.119,0c0,.911.251,1.288.974,1.445a1.854,1.854,0,0,0,.44.063.889.889,0,0,0,1.036-.691,4.853,4.853,0,0,0,.188-.722,2.2,2.2,0,0,0-.126-1.413,1.076,1.076,0,0,0-1.005-.722,1.02,1.02,0,0,0-1.005.628A2.581,2.581,0,0,0,95.869,179.888Zm2.67-3.3c-.094-.063-.157-.031-.251-.031H97.031c-.691,0-.722,0-.785.722v.063c-.031.157.031.188.188.188a3.587,3.587,0,0,0,1.382-.345A3.325,3.325,0,0,0,98.539,176.591Zm-10.521-.063a.859.859,0,0,0,.126.157,2.946,2.946,0,0,0,2.073.785c.126,0,.126-.031.126-.157-.031-.22-.063-.44-.094-.628A.219.219,0,0,0,90,176.5c-.44.031-.848.031-1.288.031Zm5.308,5.653a1.507,1.507,0,0,0,1.005-.345c.063-.031.157-.094.094-.157-.063-.094-.126,0-.188.031a1.6,1.6,0,0,1-1.884,0c-.063-.031-.126-.126-.188-.031s.031.126.094.157A1.807,1.807,0,0,0,93.325,182.181Z" transform="translate(-1.008 -1.423)" fill="#ffcd08"/>
    <path id="Path_1789" data-name="Path 1789" d="M89.018,211.67c.471-.628.911-1.256,1.382-1.884a42.48,42.48,0,0,1,3.769-4.428c.754-.754,1.6-1.445,2.387-2.167a25.333,25.333,0,0,1,7.381-4.46c1.884-.817,3.863-1.413,5.81-2.1a43.064,43.064,0,0,0,7.6-3.361,19.276,19.276,0,0,0,4.868-4.146c.063-.094.126-.22.251-.22a7.054,7.054,0,0,1-.6,1.193,51.981,51.981,0,0,1-4.774,7.381,17.583,17.583,0,0,1-3.361,3.3,9.433,9.433,0,0,1-1.445.817c-.283.126-.314.251-.188.5,2.732,5.025,5.339,10.082,8.134,15.044a10.983,10.983,0,0,1,.785,1.476c.283.66.157.942-.565,1.005a20.7,20.7,0,0,1-2.8.031c-1.288-.031-2.575-.031-3.832-.031a5.667,5.667,0,0,1-3.392-1.005,4.455,4.455,0,0,1-1.225-1.319c-1.445-2.356-2.889-4.711-4.366-7.067-.471-.754-.942-1.476-1.413-2.23-.22-.314-.408-.314-.628,0-1.884,2.921-3.675,5.9-5.465,8.857a5.38,5.38,0,0,1-3.329,2.575,8.245,8.245,0,0,1-1.508.188c-2.073.031-4.114.031-6.187.063a2.71,2.71,0,0,1-.879-.126c-.314-.126-.408-.283-.314-.6a3.677,3.677,0,0,1,.5-1.068c1.1-1.884,2.136-3.8,3.172-5.716A3.961,3.961,0,0,1,89.018,211.67Z" transform="translate(-10.771 -13.513)" fill="#fff"/>
    <path id="Path_1790" data-name="Path 1790" d="M204.073,188.694c-.031-.063,0-.094.063-.094C204.136,188.631,204.136,188.694,204.073,188.694Z" transform="translate(-92.378 -13.307)" fill="#fff"/>
    <path id="Path_1791" data-name="Path 1791" d="M128.338,194.139c0,1.036-.377,1.413-1.288,1.508-.691.063-.942-.126-1.162-.785a3.342,3.342,0,0,1-.188-1.665,1.5,1.5,0,0,1,.534-.942,1.063,1.063,0,0,1,1.57.377A3.5,3.5,0,0,1,128.338,194.139Zm-1.319-1.35c-.157.345.063.817-.5.911.5,0,.471.408.534.754.094-.345,0-.754.534-.785C127.082,193.574,127.082,193.2,127.019,192.789Zm-.157,2.1c-.314-.031-.345-.251-.345-.5-.126.157,0,.44-.345.5.314,0,.314.22.314.471C126.58,195.144,126.548,194.893,126.862,194.893Z" transform="translate(-38.596 -15.674)" fill="#1b1913"/>
    <path id="Path_1792" data-name="Path 1792" d="M150.495,194.173a3.359,3.359,0,0,1,.471-1.445,1.067,1.067,0,0,1,1.005-.628,1.088,1.088,0,0,1,1.005.722,2.2,2.2,0,0,1,.126,1.413c-.063.251-.126.471-.188.722a.873.873,0,0,1-1.036.691,2.121,2.121,0,0,1-.44-.063C150.746,195.461,150.463,195.115,150.495,194.173Zm1.79-.44c-.5-.094-.408-.534-.471-.848-.031.377-.094.754-.565.848.534,0,.408.408.534.691C151.783,194.079,151.814,193.733,152.285,193.733Zm.314,1.193c-.283-.031-.22-.283-.283-.44-.031.22-.094.408-.377.44.314,0,.283.283.377.471A.372.372,0,0,1,152.6,194.927Z" transform="translate(-55.633 -15.708)" fill="#1b1913"/>
    <path id="Path_1793" data-name="Path 1793" d="M153.976,188.052a1.816,1.816,0,0,1-.722.565,4.258,4.258,0,0,1-1.382.345c-.157,0-.22-.031-.188-.188v-.063c.063-.722.094-.722.785-.722h1.256A.277.277,0,0,1,153.976,188.052Z" transform="translate(-56.445 -12.884)" fill="#1b1913"/>
    <path id="Path_1794" data-name="Path 1794" d="M125.5,187.931h.691c.44,0,.848,0,1.288-.031a.219.219,0,0,1,.251.188,2.176,2.176,0,0,1,.094.628c0,.094,0,.157-.126.157a3.092,3.092,0,0,1-2.073-.785A.859.859,0,0,1,125.5,187.931Z" transform="translate(-38.49 -12.827)" fill="#1b1913"/>
    <path id="Path_1795" data-name="Path 1795" d="M139.817,204.882a1.783,1.783,0,0,1-1.068-.314c-.063-.031-.157-.094-.094-.157.063-.094.126,0,.188.031a1.6,1.6,0,0,0,1.884,0c.063-.031.126-.126.188-.031.063.063-.063.126-.094.157A2.108,2.108,0,0,1,139.817,204.882Z" transform="translate(-47.499 -24.124)" fill="#24231f"/>
    <path id="Path_1796" data-name="Path 1796" d="M128.9,194.4c.031.408.031.785.565.879-.534.031-.44.44-.534.785-.094-.345-.031-.754-.534-.754C128.965,195.217,128.777,194.714,128.9,194.4Z" transform="translate(-40.48 -17.285)" fill="#e2e1df"/>
    <path id="Path_1797" data-name="Path 1797" d="M127.991,200c-.314,0-.283.251-.377.471,0-.251,0-.471-.314-.471.345-.063.22-.345.345-.5C127.645,199.751,127.677,199.971,127.991,200Z" transform="translate(-39.725 -20.784)" fill="#e2e1df"/>
    <path id="Path_1798" data-name="Path 1798" d="M153.868,195.448c-.471,0-.5.345-.534.691-.126-.283-.031-.722-.534-.691.471-.094.534-.44.565-.848C153.46,194.914,153.334,195.354,153.868,195.448Z" transform="translate(-57.216 -17.423)" fill="#e2e1df"/>
    <path id="Path_1799" data-name="Path 1799" d="M155.691,200.14c-.251.063-.314.22-.314.471-.094-.188-.031-.471-.377-.471.283-.031.345-.22.377-.44C155.471,199.888,155.408,200.108,155.691,200.14Z" transform="translate(-58.725 -20.921)" fill="#e2e1df"/>
  </g>
</svg>
