<?xml version="1.0" encoding="utf-8"?>
<!-- Generator: Adobe Illustrator 26.1.0, SVG Export Plug-In . SVG Version: 6.00 Build 0)  -->
<svg version="1.1" id="svg2816" xmlns:svg="http://www.w3.org/2000/svg"
	 xmlns="http://www.w3.org/2000/svg" xmlns:xlink="http://www.w3.org/1999/xlink" x="0px" y="0px" viewBox="0 0 315 300"
	 style="enable-background:new 0 0 315 300;" xml:space="preserve">
<style type="text/css">
	.st0{fill:#007ACB;}
</style>
<path class="st0" d="M255.1,52.4c0,64.7,0,129.4,0,194.1c0,0.9-0.2,1.1-1.1,1.1c-64.7,0-129.4,0-194.1,0c0-64.6,0-129.1,0-193.7
	c0-1.2,0.3-1.5,1.5-1.5C126,52.4,190.5,52.4,255.1,52.4z M209.7,231.8c3.5,0.1,6.9-0.1,10.2-1c5.6-1.5,10.6-4,14.5-8.4
	c4.2-4.9,5.6-10.7,5.4-17c-0.3-8.3-3.5-15-10.4-19.8c-5.2-3.7-10.9-6.2-16.6-8.7c-3.2-1.4-6.5-2.7-9.4-4.9
	c-4.8-3.7-4.3-11.2,0.9-13.6c3.9-1.8,9.4-0.9,12.5,2c1.2,1.1,2.1,2.5,3,3.8c0.5,0.7,0.9,0.8,1.7,0.3c3.4-2.3,6.8-4.5,10.2-6.8
	c2.8-1.9,2.8-1.9,0.8-4.6c-3.5-4.9-7.9-8.5-13.8-10.2c-4.2-1.2-8.4-1.2-12.7-1.1c-6,0.2-11.5,2.2-16,6.2c-7.9,6.9-9.1,15.9-6.9,25.5
	c1.5,6.4,5.8,11,11.3,14.5c4.5,2.9,9.3,4.9,14.1,7c3.2,1.4,6.4,2.9,9.4,4.9c4.9,3.3,4.9,11.3-0.7,14.2c-1.9,1-3.9,1.6-6,1.8
	c-5,0.4-9.7-0.5-13.7-3.8c-2.2-1.8-4-3.9-5.6-6.3c-0.3-0.4-0.4-0.9-1.2-0.5c-4.4,2.6-8.9,5.2-13.4,7.7c-0.6,0.4-0.7,0.7-0.4,1.3
	c2.6,4.4,5.8,8.5,10.2,11.3C194.1,230,201.6,232.1,209.7,231.8z M128.4,194.7c0,11.7,0,23.3,0,35c0,0.9,0.2,1.2,1.1,1.2
	c5.1-0.1,10.2-0.1,15.4,0c1.3,0,1.5-0.3,1.5-1.5c0-23.1,0-46.3,0-69.4c0-1,0.2-1.3,1.2-1.3c7.7,0,15.4,0,23.1,0
	c0.9,0,1.2-0.2,1.2-1.1c-0.1-4.6-0.2-9.2-0.2-13.8c0-0.9-0.3-1.1-1.1-1.1c-22.1,0-44.2,0-66.3,0c-1,0-1.1,0.3-1.1,1.2
	c0,4.5,0,8.9-0.1,13.4c0,1.2,0.3,1.4,1.4,1.4c7.6,0,15.1,0,22.7-0.1c1.2,0,1.4,0.4,1.3,1.4C128.4,171.6,128.4,183.1,128.4,194.7z"/>
</svg>
