<?xml version="1.0" encoding="utf-8"?>
<!-- Generator: Adobe Illustrator 26.1.0, SVG Export Plug-In . SVG Version: 6.00 Build 0)  -->
<svg version="1.1" id="svg2816" xmlns:svg="http://www.w3.org/2000/svg"
	 xmlns="http://www.w3.org/2000/svg" xmlns:xlink="http://www.w3.org/1999/xlink" x="0px" y="0px" viewBox="0 0 315 300"
	 style="enable-background:new 0 0 315 300;" xml:space="preserve">
<style type="text/css">
	.st0{fill:#030303;}
</style>
<g>
	<path class="st0" d="M254.5,148c15.9,5.2,21.3,18.7,27.9,31.1c3.6,6.8,7.1,13.6,10.6,20.4c0.5,0.9,0.9,1.9,1.4,2.8
		c1.3,2,0.5,2.5-1.6,2.5c-13.3,0-26.6-0.1-39.9,0c-2.4,0-2.9-1.6-3.7-3c-7.2-13.2-14.4-26.4-21.5-39.6c-3.3-6-8.1-9.5-15.2-9.6
		c-2.7,0-3.5,0.7-3.4,3.4c0.1,14.9,0,29.9,0.1,44.8c0,3-0.6,4.1-3.8,4c-10.9-0.2-21.9-0.2-32.8,0c-2.7,0-3.5-0.8-3.4-3.5
		c0.1-40.6,0.1-81.3,0-121.9c0-2.8,0.9-3.4,3.5-3.4c24.7,0.3,49.4-0.4,74.1,0.5c3.7,0.1,7.4,0.5,11,1.3c19.6,4,30.5,19.9,27.3,39.9
		C282.2,134.5,271.5,143.8,254.5,148z M209,114.3c0,4.2,0,7.8,0,11.3c0,1.3-0.2,2.7,1.9,2.7c8.7-0.2,17.4,0.7,25.9-1.9
		c5.5-1.7,8.7-6,8.6-11.9c-0.1-6.1-3.2-10-9-11.5c-4.8-1.2-9.7-0.9-14.5-0.9c-4.1,0-9.6-1.4-12,0.6
		C207.2,105.1,209.4,110.8,209,114.3z"/>
	<path class="st0" d="M158.9,204.7c-12.9,0-25.8-0.1-38.6,0.1c-2.1,0-2.8-1-3.3-2.7c-1.5-5.1-3.2-10.1-4.6-15.2
		c-0.6-2.4-1.5-3.4-4.2-3.3c-13,0.1-26,0.1-39,0c-2.4,0-3.3,0.9-3.9,3c-1.4,5.1-3.2,10.1-4.5,15.3c-0.6,2.3-1.6,3-4,3
		c-11.4-0.1-22.8-0.1-34.2,0c-2.8,0-3.2-0.6-2.2-3.3C36,160.6,51.4,119.6,66.7,78.7c0.8-2,1.7-2.7,3.8-2.7c12.7,0.1,25.4,0.1,38.1,0
		c1.9,0,2.9,0.6,3.6,2.4c15.6,41.8,31.3,83.6,46.9,125.4C159.2,203.9,159.1,204,158.9,204.7z M74.9,155.5c8.5,0,16.6-0.1,24.7,0.1
		c3.3,0.1,3.1-1.1,2.3-3.6c-3.6-11.5-7-23.1-10.6-34.6c-0.7-2.3-0.8-4.9-2.7-7C84.1,125.4,79.5,140.3,74.9,155.5z"/>
</g>
</svg>
