<?xml version="1.0" encoding="utf-8"?>
<!-- Generator: Adobe Illustrator 26.1.0, SVG Export Plug-In . SVG Version: 6.00 Build 0)  -->
<svg version="1.1" id="svg2816" xmlns:svg="http://www.w3.org/2000/svg"
	 xmlns="http://www.w3.org/2000/svg" xmlns:xlink="http://www.w3.org/1999/xlink" x="0px" y="0px" viewBox="0 0 315 300"
	 style="enable-background:new 0 0 315 300;" xml:space="preserve">
<style type="text/css">
	.st0{fill:#61C9F6;}
	.st1{fill:#7B7B7B;}
	.st2{fill:#04599C;}
	.st3{fill:#34B8F4;}
</style>
<g>
	<path class="st0" d="M90.7,112.1c-5.6,5.6-11.3,11.2-16.9,16.8c-9.3,9.3-18.6,18.5-27.7,27.8c-1.7,1.8-2.8,1.8-4.4,0
		c-2.3-2.6-4.7-5.1-7.2-7.6c-1.2-1.2-1.3-2-0.1-3.2c11.2-11.2,22.4-22.4,33.6-33.5c0.6-0.6,1.3-1.1,2.3-1.1c6.7,0,13.5,0,20.2,0
		C90.5,111.6,90.6,111.8,90.7,112.1z"/>
	<path class="st1" d="M254.8,154.7c-3.2,0-6.3,0.1-9.5,0c-2.1-0.1-2.4,0.8-2,2.6c1,3.7,3.3,6.4,7.1,7.4c4,1.1,7.3,0,10.1-2.9
		c0.7-0.7,1-2,2.5-1.7c3,0.6,3.5,2,1.5,4.4c-4.1,4.9-9.5,6.1-15.4,4.9c-5.8-1.2-9.2-5.2-10.6-10.9c-1.4-5.6-0.6-10.9,3-15.5
		c3.8-5,10.4-6.8,16.5-4.5c5.4,2,9.2,7.9,9,14c-0.1,1.7-0.6,2.3-2.3,2.3C261.3,154.6,258,154.7,254.8,154.7z M252.4,150.6
		c2.3,0,4.6-0.1,6.8,0c2.4,0.1,2.5-0.9,1.8-2.8c-1.4-3.6-4.6-5.7-8.7-5.6c-3.9,0.1-7.4,2.8-8.5,6.4c-0.5,1.5,0,1.9,1.4,1.9
		C247.6,150.6,250,150.6,252.4,150.6z"/>
	<path class="st1" d="M121.3,147.5c0-6.1,0.1-12.2,0-18.3c0-2.2,0.7-2.8,2.8-2.8c6.3,0.1,12.7,0.1,19,0c1.9,0,3,0.2,3,2.6
		c0,2.3-1.2,2.4-2.9,2.4c-4.6-0.1-9.2,0.1-13.7-0.1c-2.2-0.1-3.2,0.5-3.1,2.9c0.2,2.8,0.2,5.7,0,8.5c-0.1,2.2,0.6,3.1,2.9,3
		c4-0.2,8.1,0,12.1-0.1c1.9-0.1,2.7,0.4,2.7,2.5c0,2.2-0.9,2.5-2.8,2.5c-3.8-0.1-7.7,0.2-11.5-0.1c-3-0.2-3.7,0.9-3.6,3.7
		c0.2,4,0,8.1,0.1,12.1c0.1,1.9-0.5,2.7-2.5,2.7c-2,0-2.7-0.6-2.6-2.6C121.3,160.1,121.3,153.8,121.3,147.5z"/>
	<path class="st1" d="M184.9,165.4c-3.3,3-6.6,4.7-10.7,4.4c-5.1-0.3-8.7-2.7-9.7-7.7c-1.5-7.3-0.5-14.8-0.6-22.2
		c0-2.1,1.9-1.2,3-1.4c1.5-0.2,2.1,0.5,2.1,2.1c-0.1,4.3,0,8.5,0,12.8c0,1.1,0,2.2,0,3.3c0.1,5.5,2.5,8.4,6.9,8.5
		c4.5,0.1,8.6-3.6,8.8-8.4c0.2-5.2,0.2-10.5,0.1-15.7c0-2.1,0.8-2.5,2.7-2.6c2,0,2.6,0.7,2.6,2.7c-0.1,8.1,0,16.1-0.1,24.2
		c0,1.3,1.1,3.2-1.5,3.6C186.2,169.3,184.7,168.6,184.9,165.4z"/>
	<path class="st1" d="M209.9,169.8c-5.8,0-8.8-2.9-9-8.3c-0.2-4.8-0.2-9.6,0-14.4c0.1-2.6-0.2-4.3-3.4-3.8c-1.4,0.2-2-0.7-1.9-2
		c0.1-1.1-0.4-2.9,1.4-2.7c4.9,0.6,3.9-2.8,3.8-5.4c-0.2-2.7,0.9-3.5,3.4-3.2c1.3,0.1,2,0.5,2,1.9c0,0.8,0,1.5,0,2.3
		c0,4.3,0,4.3,4.2,4.3c1.7,0,3.2-0.3,3.3,2.3c0,2.5-1.4,2.7-3.2,2.4c-3.5-0.5-4.5,0.9-4.3,4.3c0.3,4.3,0,8.7,0.1,13.1
		c0.1,3.4,1.8,4.8,5.1,4.4c1-0.1,2.3-1.1,2.3,0.9c0,1.4,0.6,3.2-1.6,3.7C211.1,169.8,210.2,169.8,209.9,169.8z"/>
	<path class="st2" d="M61.7,176.4c-0.7-0.7-1.5-1.5-2.2-2.2c0.4,0.3,0.8,0.6,1.2,0.9C61.1,175.6,61.4,176,61.7,176.4z"/>
	<path class="st2" d="M90.4,183.5H71.6c-0.9,0-1.7-0.1-2.6-0.1h0c-0.1,0-0.2,0-0.3,0c-0.1,0-0.1,0-0.2,0c-0.3-0.3-0.6-0.7-1-1
		c-0.8-0.8-1.7-1.7-2.5-2.6c-1.1-1.1-2.2-2.3-3.4-3.5c-0.3-0.4-0.7-0.9-1-1.3c3.7-3.5,7.4-7,11.1-10.5c0-0.1,0.1-0.2,0.1-0.2l8,8.5
		C83.4,176.3,86.9,179.9,90.4,183.5z"/>
	<path class="st0" d="M91,144.8c-6.6,6.6-12.7,12.9-18.8,19.1c-4.2-3-7.2-7.4-11.3-10.6c2.4-2.5,4.8-5,7.2-7.5c0.5-0.6,1.1-1,2-1H91
		z"/>
	<path class="st1" d="M222.2,153.7c0-1.7,0-3.5,0-5.2c0-2.7,0.9-6-3.9-5.3c-1.4,0.2-1.3-1.2-1.3-2.1c0-1-0.4-2.7,1.2-2.5
		c5.1,0.7,4-2.7,4-5.5c0-1.7-0.2-3.2,2.4-3.2c2.1,0.1,3.1,0.6,2.8,2.8c-0.1,0.7,0.1,1.5,0,2.3c-0.5,3,0.9,3.8,3.7,3.6
		c1.5-0.1,3.7-1,3.7,2.1c0,1.9-0.5,2.7-2.6,2.7c-4.8,0-4.8,0.1-4.8,4.9c0,4-0.1,8.1,0,12.1c0.1,3.6,1.8,5,5.2,4.6
		c1-0.1,2.3-1.1,2.3,0.9c0,1.4,0.7,3.1-1.5,3.8c-5.5,1.7-10.9-2-11.1-7.7C222.1,159.2,222.2,156.5,222.2,153.7
		C222.2,153.7,222.2,153.7,222.2,153.7z"/>
	<path class="st3" d="M72.1,163.9c0,0.1-0.1,0.3-0.1,0.4c0,0.1-0.1,0.2-0.1,0.2c-3.7,3.5-7.4,7-11.1,10.5c-0.4-0.3-0.8-0.6-1.2-0.9
		l-9.5-9.7c0-0.1,0-0.2,0.1-0.3c0.1-0.3,0.4-0.7,0.7-1c3.4-3.2,6.7-6.5,10-9.8C64.9,156.5,67.9,160.9,72.1,163.9z"/>
	<path class="st1" d="M277.9,142.3c2.8-3,5.6-4.8,9.4-4.7c2.8,0.1,3,1.6,3,3.9c0,3-1.8,1.6-3.1,1.4c-4.8-0.5-8.9,3.1-9.2,8.5
		c-0.3,4.8-0.1,9.6-0.1,14.4c0,1.9,0.1,3.3-2.6,3.3c-2.8,0-2.5-1.6-2.5-3.4c0-7.7-0.1-15.5,0.1-23.2c0-1.4-1.4-3.6,1.8-4
		C277.4,138.3,277.9,139.7,277.9,142.3z"/>
	<path class="st1" d="M156.8,147.9c0,6.1,0,12.2,0,18.3c0,1.8-0.2,2.8-2.4,2.8c-2.1,0-2.6-0.8-2.6-2.7c0.1-12.4,0.1-24.8,0-37.3
		c0-2,0.6-2.6,2.6-2.7c2.3,0,2.4,1.1,2.4,2.9C156.7,135.5,156.8,141.7,156.8,147.9z"/>
</g>
</svg>
