<?xml version="1.0" encoding="utf-8"?>
<!-- Generator: Adobe Illustrator 26.1.0, SVG Export Plug-In . SVG Version: 6.00 Build 0)  -->
<svg version="1.1" id="svg2816" xmlns:svg="http://www.w3.org/2000/svg"
	 xmlns="http://www.w3.org/2000/svg" xmlns:xlink="http://www.w3.org/1999/xlink" x="0px" y="0px" viewBox="0 0 315 300"
	 style="enable-background:new 0 0 315 300;" xml:space="preserve">
<style type="text/css">
	.st0{fill:#65DAFA;}
	.st1{fill:#68DAFA;}
</style>
<g>
	<path class="st0" d="M85.8,119.7c0.2,2.7-0.2,5.3-0.8,7.8c-0.3,1.3,0.1,1.7,1.2,2c3.9,1.1,7.5,2.8,10.7,5.3
		c1.9,1.5,3.3,3.2,3.9,5.6c1,4.2-1.2,7.1-4.3,9.5c-3,2.3-6.4,3.8-10,4.9c-1.4,0.4-1.9,0.9-1.5,2.5c1,3.5,1,7.1,0.8,10.7
		c-0.5,7.5-6.2,11-13.2,8.2c-3.7-1.5-6.8-3.9-9.8-6.5c-1-0.8-1.5-0.7-2.4,0.1c-2.9,2.6-6,5-9.6,6.4c-7.3,2.9-12.9-0.8-13.3-8.6
		c-0.2-3.5,0-7,0.9-10.4c0.3-1.2,0.2-1.8-1.2-2.2c-3.6-1-7.1-2.6-10.1-4.9c-6.3-4.8-6.3-11.2,0.2-15.8c3.1-2.2,6.5-3.7,10-4.7
		c1.2-0.4,1.4-0.9,1.1-2c-1.1-4.1-1.4-8.2-0.7-12.4c1-6.3,6-9.3,12.1-7.2c4,1.4,7.4,3.8,10.4,6.7c1.1,1.1,1.8,1,2.9,0
		c3-2.8,6.2-5.2,10.1-6.5c6.6-2.3,11.8,0.9,12.5,7.9C85.9,117.3,85.8,118.5,85.8,119.7z M61.6,154.8
		C61.6,154.8,61.6,154.8,61.6,154.8c2,0,3.9,0,5.9,0c0.9,0,1.5-0.3,2-1c2.3-3.4,4.3-7,6.1-10.6c0.3-0.5,0.4-1,0.1-1.6
		c-1.9-3.6-3.9-7.2-6.1-10.6c-0.5-0.8-1.2-1-2.1-1.1c-3.8-0.3-7.5-0.3-11.3,0c-1.3,0.1-2.1,0.5-2.7,1.5c-2,3.1-3.8,6.2-5.5,9.5
		c-0.5,1-0.6,1.8,0,2.9c1.7,3.3,3.5,6.4,5.4,9.5c0.8,1.3,1.7,1.8,3.2,1.7C58.2,154.8,59.9,154.8,61.6,154.8z M40.8,119.4
		c-0.1,2.7,0.6,5.3,1,7.9c0.1,0.8,0.5,1.1,1.3,0.9c2.9-0.7,5.8-1.1,8.8-1.3c0.6,0,0.9-0.4,1.2-0.8c1.8-2.3,3.6-4.6,5.5-6.8
		c0.4-0.5,0.6-0.9,0.1-1.4c-3.4-3-6.8-5.9-11.4-6.9c-2.4-0.5-4.6,0.7-5.6,3C41,115.6,40.7,117.5,40.8,119.4z M82.5,119.5
		c0-0.8,0.1-1.6,0-2.4c-0.4-4.8-2.8-8-8.5-5.7c-3.7,1.4-6.5,4-9.4,6.5c-0.6,0.5-0.2,0.9,0.2,1.3c1.9,2.1,3.7,4.3,5.3,6.6
		c0.4,0.6,0.9,1.1,1.8,1.1c2.8,0.2,5.6,0.6,8.3,1.2c0.8,0.2,1.2,0,1.4-0.9C82.1,124.7,82.5,122.1,82.5,119.5z M25.8,142.2
		c0,1.1,0.3,2.2,1.1,3.1c3.2,3.8,7.7,5.2,12.1,6.7c0.7,0.2,0.9-0.4,1-0.8c0.9-2.8,2-5.5,3.2-8.2c0.3-0.6,0.2-1.1,0-1.6
		c-1-2.7-2.1-5.3-3.1-8c-0.2-0.6-0.5-1-1.2-0.8c-4.3,1.4-8.4,2.9-11.6,6.3C26.3,139.8,25.8,140.9,25.8,142.2z M97.7,142.3
		c-0.2-1.2-0.6-2.3-1.4-3.2c-3.2-3.5-7.5-5.1-11.8-6.5c-0.8-0.3-0.9,0.3-1.1,0.9c-1,2.6-2,5.2-3.1,7.8c-0.2,0.5-0.3,1.1-0.1,1.6
		c1.1,2.8,2.2,5.6,3.2,8.5c0.2,0.6,0.5,0.8,1.1,0.6c3.8-1.2,7.5-2.7,10.6-5.3C96.5,145.5,97.5,144.1,97.7,142.3z M40.8,165.1
		c0,0.7-0.1,1.5,0,2.2c0.6,5.1,3,8.2,9.1,5.6c3.4-1.4,6.1-3.8,8.8-6.1c0.6-0.5,0.3-1-0.1-1.4c-2-2.1-3.8-4.4-5.5-6.8
		c-0.3-0.4-0.6-0.6-1.1-0.7c-3-0.3-5.9-0.7-8.8-1.3c-0.7-0.2-1.2,0-1.4,0.9C41.3,160,40.8,162.5,40.8,165.1z M82.5,165.1
		c0.1-2.4-0.4-4.9-0.8-7.4c-0.2-1-0.6-1.4-1.7-1.2c-2.2,0.4-4.4,0.9-6.7,1.1c-0.9,0.1-2.1-0.2-2.8,0.8c-1.8,2.4-3.7,4.8-5.7,7.1
		c-0.4,0.4-0.6,0.8,0,1.3c3.2,2.9,6.5,5.6,10.7,6.9c3.1,0.9,5.3-0.2,6.5-3.2C82.5,168.7,82.5,167,82.5,165.1z M73.3,154.2
		c2.2-0.1,4.1-0.6,6-1c0.9-0.2,0.9-0.8,0.7-1.4c-0.5-1.5-1.1-2.9-1.6-4.4c-0.3-0.9-0.7-0.9-1.2-0.1C76,149.5,74.8,151.7,73.3,154.2z
		 M78,138.4c0.8-2.3,1.5-4.1,2.1-5.8c0.2-0.7,0.1-1.2-0.8-1.3c-1.9-0.2-3.8-0.8-5.9-0.8C74.8,133,76.2,135.4,78,138.4z M45.5,138.1
		c1.4-2.4,2.7-4.5,3.9-6.7c0.4-0.8,0-1-0.7-1c-1.7,0-3.3,0.6-5,0.8c-0.6,0.1-0.7,0.6-0.5,1C43.9,134.2,44.4,136.1,45.5,138.1z
		 M49.9,154.1c-1.3-2.4-2.6-4.6-3.8-6.8c-0.5-0.9-0.9-0.7-1.2,0.1c-0.6,1.5-1.1,3-1.6,4.4c-0.2,0.5-0.3,1.1,0.4,1.2
		C45.7,153.6,47.7,154.1,49.9,154.1z M66.2,158.2c-2.9,0-5.4,0-7.9,0c-0.6,0-1.1,0.1-0.6,0.8c1.1,1.4,2.3,2.8,3.5,4.1
		c0.3,0.4,0.6,0.4,1,0C63.5,161.7,64.9,160.2,66.2,158.2z M66.5,126.5c-1.6-1.9-2.8-3.4-4.1-4.9c-0.4-0.5-0.8-0.7-1.4,0
		c-1.1,1.3-2.2,2.6-3.3,3.9c-0.2,0.2-0.4,0.4-0.3,0.7c0.1,0.3,0.5,0.3,0.7,0.3C60.8,126,63.3,126.2,66.5,126.5z"/>
	<path class="st1" d="M220.6,148.6c0-5.6,0-10.6,0-15.7c0-1.1-0.1-2,1.6-2c1.6,0,1.5,0.9,1.5,1.9c0,6.3,0,12.7,0,19
		c0,0.6,0.5,1.7-0.5,1.9c-1.1,0.1-2.4,0.6-3.3-0.8c-2.7-4.2-5.6-8.3-8.4-12.4c-0.8-1.1-1.6-2.3-2.8-3.3c0,0.9,0,1.8,0,2.7
		c0,4.1,0,8.2,0,12.3c0,1.2-0.3,1.7-1.6,1.7c-1.4,0-1.7-0.4-1.7-1.7c0.1-6.4,0-12.8,0.1-19.2c0-0.7-0.5-1.8,0.7-1.9
		c1.1-0.1,2.3-0.5,3.2,0.8c2.3,3.5,4.6,6.9,7,10.3C217.6,144.2,219,146.2,220.6,148.6z"/>
	<path class="st1" d="M125.4,143.5c3.4,2.5,5,6.1,7.2,9.3c0.2,0.3,0.4,0.6,0,0.9c-0.6,0.5-3.4-0.1-3.9-0.9c-1.5-2.2-3-4.5-4.5-6.7
		c-1.5-2.1-5-3.1-7.4-2.2c-0.8,0.3-0.6,0.9-0.6,1.4c0,2.4-0.1,4.7,0,7.1c0.1,1.3-0.6,1.4-1.6,1.4c-1,0-1.7,0-1.7-1.4
		c0.1-6.7,0-13.5,0-20.2c0-0.6,0-1.3,0.9-1.3c4.2,0.1,8.3-0.4,12.5,0.3c3,0.5,4.8,2.6,5.1,5.7c0.2,2.5-1.5,5-4.1,6
		C126.8,143.1,126.2,143.3,125.4,143.5z M120.5,141c1.2,0,2.4,0.1,3.5,0c2.6-0.1,4.2-1.6,4.1-3.9c0-2-1.6-3.4-4.2-3.5
		c-1.7-0.1-3.4,0-5.1,0c-3.2,0-2.9-0.4-2.9,3C116,141,116,141,120.5,141z"/>
	<path class="st1" d="M242.5,153.8c-1.3-0.1-2.8,0.8-3.3-1.3c-0.2-0.7-0.7,0-1,0.2c-2,1.5-4.3,1.7-6.6,1.4c-2-0.2-3.8-1.9-4.1-3.7
		c-0.3-2.2,0.7-4.1,2.7-5.2c2.1-1.1,4.4-0.9,6.6-1.4c0.9-0.2,2.2,0.2,2.2-1.4c0-1.5-0.7-2.4-2.2-2.8c-2.7-0.7-4.1-0.2-5.8,2.2
		c-0.7,1-1.7,0.6-2.5,0.4c-0.9-0.2-0.4-1-0.2-1.6c0.5-1.5,1.6-2.4,3-3c2.1-0.8,4.2-0.8,6.3-0.5c2.7,0.4,4.1,2.1,4.2,4.9
		c0,1.6,0,3.1,0,4.7c0,1.2,0.1,2.4,0,3.5C241.8,151.4,242.3,152.5,242.5,153.8z M238.9,147.3c-0.2-0.4,0.5-1.6-0.7-1.4
		c-2.1,0.3-4.2,0.8-6.2,1.4c-1,0.3-1.6,1.1-1.6,2.3c0,1.1,0.7,1.8,1.6,2.2C235.1,153.1,238.8,150.7,238.9,147.3z"/>
	<path class="st1" d="M160.7,137c1,0,2,0,3,0.3c2.1,0.7,3.2,2.1,3.3,4.4c0.1,2.8,0,5.6,0.1,8.4c0,0.7,0.1,1.4,0.2,2.2
		c0.1,0.5,0.9,1.3-0.1,1.5c-0.8,0.2-2.1,0.6-2.5-0.5c-0.5-1.2-0.9-0.9-1.6-0.4c-2,1.4-4.2,1.5-6.5,1.2c-2-0.3-3.7-2-4-3.9
		c-0.3-2,0.8-4,2.7-5c2.2-1.1,4.6-0.9,6.9-1.5c0.7-0.2,1.6,0,1.8-0.9c0.2-1,0-1.9-0.8-2.6c-1.9-1.7-5.9-1.2-6.9,1
		c-0.7,1.5-1.7,1.1-2.6,0.9c-0.8-0.1-0.5-0.9-0.3-1.4c0.7-2.2,2.8-3.6,5.7-3.8C159.6,137,160.2,137,160.7,137z M164.1,147.3
		c-0.2-0.4,0.5-1.5-0.7-1.4c-2.1,0.3-4.1,0.7-6.1,1.2c-1,0.3-1.7,1.2-1.7,2.3c0,1.1,0.6,1.8,1.5,2.2
		C159.9,152.8,164.2,151.2,164.1,147.3z"/>
	<path class="st1" d="M286.3,146.4c-1.7,0-3.4,0-5.1,0c-0.8,0-1.1,0.2-0.9,1.1c0.4,2.2,1.9,4,3.9,4.3c2.1,0.4,3.6-0.3,4.8-2.5
		c0.8-1.5,2-0.7,2.8-0.4c1,0.4,0.2,1.3-0.1,1.8c-1.6,2.9-5,4.2-8.6,3.3c-3.4-0.8-5.6-3.4-5.9-7.1c-0.4-4.4,1.3-8.1,4.7-9.4
		c5.2-2,10.7,0.9,10.7,7.9c0,0.9-0.6,0.9-1.2,0.9C289.7,146.4,288,146.4,286.3,146.4z M284.8,144c1.1,0,2.1-0.1,3.2,0
		c1.5,0.1,1.6-0.7,1.2-1.8c-0.6-1.8-2.5-3-4.6-2.9c-1.9,0.1-3.7,1.6-4.1,3.5c-0.2,0.9,0.1,1.3,1,1.2C282.6,144,283.7,144,284.8,144z
		"/>
	<path class="st1" d="M143.9,146.4c-1.6,0-3.3,0-4.9,0c-0.9,0-1.1,0.4-1.1,1.2c0.2,1.8,1.9,3.7,3.7,4.1c2,0.4,3.8-0.4,4.9-2.2
		c0.6-1,2.2-1.4,3.1-0.8c0.4,0.3,0.2,0.6,0.1,0.9c-0.5,1.2-1.1,2.4-2.2,3.1c-2.6,1.8-5.4,1.9-8.2,0.8c-2.7-1.1-4.1-3.2-4.4-6.1
		c-0.3-2.3-0.1-4.6,1-6.7c1.7-3.2,5.5-4.7,9.1-3.5c3.2,1.1,5.6,5,5.1,8.3c-0.1,0.8-0.6,0.8-1.2,0.8
		C147.3,146.4,145.6,146.4,143.9,146.4C143.9,146.4,143.9,146.4,143.9,146.4z M142.5,144c1.2,0,2.4,0,3.5,0c0.9,0,1.2-0.3,1-1.2
		c-0.5-2.1-2.1-3.5-4.4-3.5c-2.3,0-4.1,1.4-4.6,3.5c-0.2,0.9,0.1,1.2,1,1.2C140.2,144,141.3,144,142.5,144z"/>
	<path class="st1" d="M170.5,145.5c0-4.5,1.8-7.3,5.4-8.3c3.7-1,7.2,0.5,8.5,3.6c0.2,0.5,0.7,1.2-0.3,1.5c-0.8,0.2-1.8,0.9-2.3-0.4
		c-0.8-2-2.3-2.9-4.4-2.6c-1.8,0.2-3.1,1.7-3.6,3.9c-0.4,1.9-0.3,3.7,0.2,5.5c0.6,1.9,2.1,3,4,3.1c1.9,0,3.4-0.9,3.9-2.8
		c0.4-1.7,1.5-1.3,2.4-1c1.4,0.4,0.5,1.4,0.2,2.1c-1.4,3.3-4.3,4.7-8,4.1c-3.3-0.6-5.7-3.4-5.9-7.1
		C170.5,146.5,170.5,146,170.5,145.5z"/>
	<path class="st1" d="M268.1,150c1.5-4.1,2.8-7.8,4.2-11.4c0.4-1.2,1.8-1.8,2.9-1.3c0.9,0.4,0.2,1,0.1,1.4c-1.5,4-3,8-4.6,12
		c-0.2,0.6-0.5,1.1-0.7,1.7c-0.3,0.9-0.6,1.5-1.7,1.5c-1.1,0-1.7-0.2-2.1-1.4c-1.7-4.5-3.4-8.9-5.1-13.4c-0.2-0.5-0.9-1.2-0.1-1.8
		c0.8-0.5,2.6,0,2.9,0.9c0.8,2.3,1.6,4.5,2.5,6.8C266.8,146.6,267.4,148.1,268.1,150z"/>
	<path class="st1" d="M190.8,134.4c0,0.4,0,0.9,0,1.3c-0.2,1.2,0.3,1.6,1.5,1.5c0.8-0.1,1.5-0.1,1.4,1.1c0,1.1-0.6,1.3-1.5,1.2
		c-1.1-0.1-1.5,0.3-1.5,1.4c0.1,2.8,0,5.5,0,8.3c0,1.2,0.3,2.1,1.8,2c1.5-0.1,1.2,1,1.3,1.8c0.2,1.1-0.8,0.9-1.3,1
		c-3.2,0.4-4.6-0.9-4.7-4.3c-0.1-2.9-0.1-5.7,0-8.6c0-1.1-0.1-1.7-1.4-1.7c-0.7,0-0.6-0.6-0.6-1.1c0-0.5-0.1-1.2,0.7-1.1
		c1.5,0.1,1.5-0.9,1.4-1.8c-0.2-1.6,0.2-2.7,1.9-3.4c1.1-0.4,1.1-0.2,1.1,0.7C190.8,133.3,190.8,133.9,190.8,134.4z"/>
	<path class="st0" d="M246.6,145.7c0-1.3,0-2.7,0-4c0-1,0.3-2.2-1.5-2.1c-0.7,0.1-0.5-0.7-0.6-1.2c0-0.4,0-1.1,0.6-1
		c1.8,0.2,1.6-1.1,1.4-2.1c-0.3-1.8,0.7-2.6,2.1-3.3c0.7-0.3,0.9-0.2,0.9,0.6c0,1.1,0.1,2.3,0,3.4c-0.1,1.1,0.3,1.6,1.4,1.5
		c0.8-0.1,1.4,0,1.4,1.1c0,1-0.5,1.3-1.3,1.2c-1.1-0.1-1.5,0.3-1.5,1.4c0.1,2.9,0,5.7,0,8.6c0,1.2,0.5,2,1.8,1.8
		c1.5-0.3,1,0.9,1.2,1.5c0.4,0.8-0.3,1-1,1.2c-2.9,0.6-4.9-0.9-5-3.8C246.6,148.7,246.7,147.2,246.6,145.7
		C246.7,145.7,246.7,145.7,246.6,145.7z"/>
	<path class="st0" d="M257.9,145.6c0,2.4,0,4.7,0,7.1c0,1-0.4,1.2-1.3,1.2c-0.9,0-1.5,0-1.5-1.2c0.1-4.7,0-9.4,0-14.1
		c0-1.2,0.6-1.2,1.5-1.2c0.9,0,1.3,0.2,1.3,1.2C257.8,140.9,257.9,143.2,257.9,145.6z"/>
	<path class="st0" d="M255.1,132.6c-0.1-1,0-1.7,1.3-1.7c1.3,0,1.5,0.5,1.4,1.6c0,1,0,1.8-1.4,1.8
		C255.1,134.3,255,133.6,255.1,132.6z"/>
	<path class="st0" d="M61.7,149.2c-4,0-7-2.9-7-6.9c0-3.9,3.2-7.1,7.1-7.1c3.7,0,7.2,3.4,7.1,7C68.7,145.8,65.7,149.5,61.7,149.2z"
		/>
</g>
</svg>
