<?xml version="1.0" encoding="utf-8"?>
<!-- Generator: Adobe Illustrator 26.1.0, SVG Export Plug-In . SVG Version: 6.00 Build 0)  -->
<svg version="1.1" id="svg2816" xmlns:svg="http://www.w3.org/2000/svg"
	 xmlns="http://www.w3.org/2000/svg" xmlns:xlink="http://www.w3.org/1999/xlink" x="0px" y="0px" viewBox="0 0 315 300"
	 style="enable-background:new 0 0 315 300;" xml:space="preserve">
<g>
	<g>
		<path d="M124.5,225c-0.7,0.7-0.5,1.4-0.5,2.1c0,2.3,0,4.6,0,6.9c0,0.9-0.1,1.8-1.3,1.7c-1,0-1.1-0.8-1.1-1.7c0-0.3,0-0.6,0-0.8
			c0-4-0.1-7.9,0-11.9c0-1-0.7-2.7,1-3c1.4-0.3,1.6,1.3,2.1,2.2c1.6,3.1,3.1,6.2,4.7,9.3c0.3,0.5,0.4,1.4,1.1,1.4
			c0.8,0,0.9-0.9,1.2-1.5c1.7-3.4,3.3-6.7,4.9-10.1c0.4-0.8,0.7-1.6,1.8-1.3c1,0.3,0.9,1.2,0.9,1.9c0,4.5,0,9.1,0,13.6
			c0,0.9,0,1.8-1.1,1.9c-1.3,0.1-1.3-1-1.3-1.9c0-3.1,0-6.1,0-9.5c-1.1,1-1.3,2.2-1.9,3.2c-1.1,2.1-2.1,4.2-3.1,6.4
			c-0.3,0.6-0.6,1.3-1.4,1.3c-0.9,0-1.1-0.7-1.4-1.3c-1.2-2.3-2.3-4.6-3.4-6.9C125.2,226.2,124.9,225.7,124.5,225z"/>
		<path d="M163.1,218.1c0.9,0.1,1.8,0.1,2.7,0.2c2.1,0.3,3.6,1.4,4.3,3.5c0.7,2.1,0.5,4.2-1.3,5.7c-1.1,0.9-1.1,1.5-0.3,2.6
			c0.8,1.2,1.6,2.5,2.3,3.7c0.4,0.7,0.5,1.4-0.3,1.8c-0.7,0.4-1.3,0.1-1.8-0.6c-1-1.6-2.1-3.1-2.9-4.8c-0.7-1.4-1.9-1.2-3-1.1
			c-1.5,0.2-0.8,1.4-0.8,2.2c-0.1,1,0,2.1,0,3.1c0,0.8-0.4,1.4-1.2,1.4c-0.7,0-1.2-0.4-1.2-1.2c0-5,0-10,0-15c0-0.9,0.5-1.2,1.3-1.3
			C161.5,218.2,162.3,218.2,163.1,218.1C163.1,218.2,163.1,218.2,163.1,218.1z M161.8,223.5c0.2,1.5-0.9,3.6,2.2,3.3
			c2.6-0.2,4.1-1.1,4.2-3.1c0.1-2.1-1.5-3.2-4.3-3.4C160.8,220.2,162.2,222.4,161.8,223.5z"/>
		<path d="M112.2,218c2.3-0.1,4,0.9,5.3,2.8c0.4,0.6,0.8,1.3,0,1.8c-0.7,0.5-1.3,0.2-1.8-0.5c-1.4-2-3.4-2.3-5.6-1.7
			c-1.1,0.3-1.9,1-1.9,2.2c0,1.2,0.6,1.9,1.7,2.4c1,0.5,2.2,0.5,3.3,0.7c3.3,0.6,5.1,2.5,4.9,5.4c-0.1,2.7-2.3,4.7-5.6,4.8
			c-2.7,0.1-5.1-0.5-6.8-2.9c-0.4-0.6-0.9-1.3-0.1-1.8c0.8-0.5,1.4-0.3,1.9,0.5c1.5,2.1,3.6,2.5,5.9,1.8c1.2-0.4,2.1-1.1,2.2-2.5
			c0.1-1.3-0.7-2.3-1.8-2.8c-0.8-0.3-1.7-0.5-2.6-0.6c-1.4-0.2-2.6-0.7-3.6-1.4c-2.6-1.9-2.4-5.6,0.3-7.2
			C109.2,218.3,110.6,218,112.2,218z"/>
		<path d="M142.8,235.7c-0.9-0.2-1.2-0.9-0.9-1.7c2.1-5,4.1-10,6.3-15c0.5-1.2,1.7-1.2,2.2,0c2.2,5,4.2,10,6.3,15
			c0.3,0.7,0.1,1.3-0.6,1.6c-0.8,0.3-1.5,0-1.6-0.8c-0.5-3.1-2.7-3.2-5.1-2.9c-0.5,0-1,0.1-1.5,0c-1.9-0.3-3.2,0.3-3.6,2.4
			C144.2,235,143.9,235.7,142.8,235.7z M149.4,222.1c-0.6,1.6-1,2.6-1.5,3.6c-1.9,4.7-1.8,4.8,3.4,4.2c1-0.1,1.2-0.4,0.8-1.3
			C151.2,226.7,150.4,224.6,149.4,222.1z"/>
		<path d="M215.8,232.3c1.4-3.3,2.7-6.2,3.9-9.1c0.5-1.2,1.1-2.4,1.5-3.6c0.3-0.8,0.7-1.6,1.8-1.1c1,0.5,0.6,1.3,0.3,2
			c-1.5,3.5-3.1,7-4.6,10.5c-0.6,1.3-1.1,2.5-1.7,3.8c-0.3,0.6-0.5,1.1-1.3,1.1c-0.7,0-0.9-0.5-1.2-1c-2.1-4.8-4.2-9.7-6.3-14.5
			c-0.3-0.6-0.6-1.4,0.3-1.8c1-0.5,1.5,0.2,1.9,1.1c1.4,3.3,2.8,6.7,4.2,10C214.9,230.3,215.3,231.1,215.8,232.3z"/>
		<path d="M177.5,227.7c0-1.9,0-3.9,0-5.8c0-1.1-0.3-1.5-1.4-1.5c-1,0.1-2.1,0-3.1,0c-0.7,0-1.3-0.3-1.3-1c-0.1-0.8,0.4-1.2,1.2-1.2
			c4,0,7.9,0,11.9,0c0.6,0,1.1,0.3,1.1,1c0,0.8-0.4,1.1-1.2,1.2c-0.3,0-0.6,0-0.8,0c-3.8,0.1-3.8,0.1-3.8,4c0,3.1,0,6.1,0,9.2
			c0,0.9,0.2,2-1.1,2c-1.5,0.1-1.2-1.2-1.3-2.1C177.5,231.6,177.6,229.7,177.5,227.7C177.6,227.7,177.6,227.7,177.5,227.7z"/>
		<path d="M199,227.9c0-2,0-4,0-6.1c0-1.1-0.4-1.5-1.5-1.4c-1,0.1-2.1,0-3.1,0c-0.7,0-1.3-0.3-1.3-1c0-0.8,0.5-1.2,1.2-1.2
			c3.9,0,7.8,0,11.7,0c0.7,0,1.2,0.3,1.2,1.1c0,0.8-0.5,1.1-1.2,1.1c-0.1,0-0.3,0-0.4,0c-4.2,0.2-4.2,0.2-4.2,4.4c0,3,0,6,0,9
			c0,0.9,0,1.8-1.1,1.9c-1.3,0.1-1.3-1-1.3-1.9C199,231.8,199,229.9,199,227.9C199,227.9,199,227.9,199,227.9z"/>
	</g>
	<g>
		<path d="M141.6,79.7c14.9,0,29.8,0,44.7,0c1.6,0,2.4-0.3,2.9-2c4-13.1,16.3-21.1,30-19.9c13.1,1.2,23.7,11.7,25.3,25
			c1.8,14.7-8.4,28.5-22.9,31.2c-3.1,0.6-3.1,0.6-3.1,3.9c0,16.1-0.2,32.2,0.1,48.3c0.1,8-6,13.7-13.6,13.5
			c-11.4-0.3-22.7-0.1-34.1-0.1c-0.9,0-2.4-0.4-2.1,1.4c0.3,1.4-1.3,3.7,1.8,3.9c2.4,0.1,4.6,0.9,6.6,2.4c2.6,1.9,3.7,4.7,3.8,7.8
			c0.1,2.7,0,5.4,0,8.2c0,1.1-0.3,1.6-1.5,1.6c-18.1,0-36.2,0-54.4,0c-1.3,0-1.5-0.6-1.5-1.6c0-2.6,0-5.3,0-7.9
			c0.1-5,2.7-8.4,7.5-9.8c0.9-0.3,1.9-0.6,2.9-0.6c1.6,0,1.9-0.7,1.8-2.2c-0.1-3,0-3.1-3.2-3.1c-11.9,0-23.8,0-35.8,0
			c-7.7,0-12.9-5.2-12.9-13c0-24.6,0-49.2,0-73.8c0-7.8,5.2-13.1,13.1-13.1C112,79.7,126.8,79.7,141.6,79.7
			C141.6,79.7,141.6,79.7,141.6,79.7z M151.3,175.2c18,0,36,0,53.9,0c5.5,0,8.9-3.2,8.9-8.5c0-16.8,0-33.6,0-50.4
			c0-1.4-0.3-1.8-1.8-2.1c-14.3-2.1-24.4-13.8-24.5-28.1c0-1.8-0.7-2-2.2-2c-29.5,0-59,0-88.4,0c-5.7,0-8.8,3.1-8.8,9
			c0,24.3,0,48.6,0,73c0,6.1,3,9.1,9.1,9.1C115.5,175.2,133.4,175.2,151.3,175.2z M192.3,86.1c0,13.2,10.6,24,23.8,24.1
			c13.3,0.1,24.2-10.6,24.3-23.8c0.1-13.3-10.6-24.2-23.8-24.3C203.1,62,192.4,72.6,192.3,86.1z M152.5,200.3
			C152.5,200.3,152.5,200.4,152.5,200.3c6.6,0,13.2,0,19.8,0c4.2,0,4.2,0,4.2-4.3c0-4.4-2-6.8-6.5-6.9c-11.8-0.1-23.5-0.1-35.3,0
			c-4.6,0-6.7,2.4-6.7,7c0,0.8,0.1,1.5,0,2.3c-0.2,1.5,0.4,1.9,1.9,1.9C137.5,200.3,145,200.3,152.5,200.3z M152.3,184.7
			c2.9,0,5.8,0,8.8,0c3.4,0,3.3,0,3.4-3.4c0-1.2-0.2-1.7-1.6-1.7c-7,0.1-13.9,0.1-20.9,0c-1.5,0-1.8,0.6-1.7,1.8c0,0.5,0.1,1,0,1.5
			c-0.2,1.5,0.3,1.9,1.8,1.9C145.5,184.6,148.9,184.7,152.3,184.7z"/>
		<path d="M198.6,77c0.1-1.5,0.6-2,1.3-2.6c9.1-6.2,23.7-6.2,32.9,0c1.2,0.8,2,1.9,1.1,3.3c-0.8,1.2-2,1.3-3.3,0.5
			c-9.5-5.5-19-5.5-28.5,0c-0.9,0.5-1.6,0.7-2.5,0.1C198.8,77.9,198.6,77.2,198.6,77z"/>
		<path d="M229.7,84.4c0,1.8-1.8,2.7-3.5,1.7c-2.1-1.2-4.3-2.2-6.7-2.7c-4.6-0.9-8.8,0.1-12.8,2.5c-1.7,1-3.3,0.6-3.7-1
			c-0.3-1.2,0.3-1.9,1.2-2.6c6.7-4.7,17.3-4.7,24.1-0.1C229.1,82.7,229.8,83.3,229.7,84.4z"/>
		<path d="M216.1,106.8c-3.1-0.1-5.7-2.9-5.5-5.9c0.2-3.2,2.8-5.7,5.8-5.7c3.2,0.1,5.8,2.8,5.7,5.9
			C222,104.4,219.4,106.9,216.1,106.8z M217.7,101c-0.1-0.8-0.5-1.3-1.4-1.3c-0.9,0-1.4,0.6-1.3,1.5c0.1,0.8,0.6,1.3,1.4,1.2
			C217.2,102.3,217.7,101.8,217.7,101z"/>
		<path d="M216.6,87.5c2.7,0,5.2,0.9,7.4,2.4c1.2,0.8,2,1.9,1,3.3c-0.9,1.4-2.2,1.2-3.4,0.4c-3.6-2.4-7.1-2.3-10.7,0.1
			c-1.2,0.8-2.4,1-3.3-0.3c-1-1.4-0.3-2.4,0.9-3.3C211,88.3,213.7,87.4,216.6,87.5z"/>
	</g>
</g>
</svg>
