<?xml version="1.0" encoding="utf-8"?>
<!-- Generator: Adobe Illustrator 26.1.0, SVG Export Plug-In . SVG Version: 6.00 Build 0)  -->
<svg version="1.1" id="svg2816" xmlns:svg="http://www.w3.org/2000/svg"
	 xmlns="http://www.w3.org/2000/svg" xmlns:xlink="http://www.w3.org/1999/xlink" x="0px" y="0px" viewBox="0 0 315 300"
	 style="enable-background:new 0 0 315 300;" xml:space="preserve">
<style type="text/css">
	.st0{fill:#F0523A;}
	.st1{fill:#040404;}
	.st2{fill:#020202;}
	.st3{fill:#FDFCFB;}
</style>
<path class="st0" d="M61.8,94.4c7.7,0,15.4-0.1,23,0c4.1,0,8.1,0.9,11.6,3.3c4.1,2.8,6.7,6.7,7.7,11.5c0.7,3.1,0.7,6.3,0.7,9.5
	c0,13.6,0,27.2-0.1,40.8c0,4.1-0.6,8.2-2.9,11.9c-2.9,4.7-7.1,7.6-12.6,8.6c-2.4,0.4-4.8,0.6-7.1,0.6c-14,0-27.9,0-41.9,0
	c-3.7,0-7.4-0.3-10.8-2c-5.7-2.7-9.1-7.2-10.4-13.4c-0.5-2.5-0.6-5-0.6-7.5c0-14.1,0-28.3,0-42.4c0-3.8,0.5-7.5,2.3-10.8
	c2.8-5.3,7.2-8.4,13.1-9.5c2.6-0.5,5.1-0.5,7.7-0.5C48.4,94.4,55.1,94.4,61.8,94.4C61.8,94.4,61.8,94.4,61.8,94.4z M59.3,134.9
	c-9-5.7-17.5-12.2-25.6-19.2c0.1,0.3,0.3,0.6,0.5,0.9c4.2,5.6,8.6,11,13.3,16.2c4.9,5.5,10.2,10.7,16,15.2c0.6,0.4,0.5,0.6-0.1,0.9
	c-3,1.7-6.2,2.7-9.5,3c-8.7,0.9-16.6-1.5-24-6.1c-0.8-0.5-1.6-1-2.3-1.5c0.1,0.4,0.2,0.7,0.4,1c2,2.8,4.1,5.4,6.7,7.7
	c7.3,6.5,15.6,10.7,25.5,11.4c5.1,0.4,10.1-0.4,14.7-2.8c1.6-0.8,3.2-1.6,4.9-2.1c4.6-1.3,8.8,0.3,11.1,4.3c0.2,0.3,0.2,0.9,0.7,0.7
	c0.4-0.1,0.4-0.6,0.5-0.9c0.2-1.6,0.2-3.2-0.1-4.8c-0.7-4-2.3-7.6-4.8-10.8c-0.3-0.4-0.3-0.7-0.2-1.1c1.4-5.1,1.2-10.2-0.2-15.2
	c-2.8-9.9-8.7-17.6-17.1-23.5c-0.6-0.4-1.2-0.9-2.1-1.1c0.3,0.7,0.7,1.1,1,1.6c5.3,8.2,7.7,17,5.3,26.8c-0.6,2.3-0.7,2.4-2.7,1.1
	c-9.5-6.3-18.3-13.5-26.6-21.3c-0.9-0.9-1.7-2-2.9-2.6C47.2,120.4,52.9,127.9,59.3,134.9z"/>
<path class="st1" d="M133.8,150.4c1.1,0,2.2,0,3.3,0c0.4,0,0.6,0.1,0.7,0.5c0.9,4.6,4,7.1,8.2,8.5c4,1.2,8,1.3,11.9,0
	c2.8-0.9,5.2-2.6,6.4-5.4c1.6-3.5,0.3-7.5-3.2-9.7c-2.5-1.6-5.3-2.3-8.1-3c-4.3-1.1-8.6-1.9-12.7-3.8c-3.8-1.7-6.9-4.1-8.2-8.3
	c-2.1-6.5,0.2-13.4,5.9-17.3c4.5-3.1,9.6-4.1,15-3.9c4.2,0.1,8.3,1.1,11.8,3.5c4.3,2.8,6.8,6.8,7.3,12c0.1,0.7-0.1,1-0.9,1
	c-2-0.1-4,0-6.1,0c-0.5,0-0.8-0.1-0.9-0.7c-0.7-4.2-3.3-6.9-7.3-8.1c-4.4-1.4-8.8-1.2-13,1c-3.5,1.9-5.2,5.6-4.2,9.2
	c0.6,2.1,2.1,3.4,3.9,4.4c2.8,1.5,5.8,2.2,8.8,3c4.3,1.1,8.6,2,12.5,4.1c3.6,1.9,6.4,4.4,7.4,8.4c1.9,8.1-1.2,15.8-9.4,19.2
	c-7.6,3.1-15.3,3.2-22.9,0c-6-2.5-9.5-7.2-10.3-13.7c-0.1-0.8,0.2-0.9,0.8-0.9C131.7,150.4,132.7,150.4,133.8,150.4z"/>
<path class="st1" d="M266.5,148.6c0,5.6,0,11.1,0,16.7c0,0.7-0.1,0.9-0.9,0.9c-1.9-0.1-3.9-0.1-5.8,0c-0.8,0-1-0.3-1-1
	c0-11.1,0-22.2,0-33.3c0-0.9-0.2-1.1-1.1-1.1c-1.4,0.1-2.7,0-4.1,0c-0.5,0-0.7-0.1-0.6-0.6c0-1.6,0-3.2,0-4.8c0-0.6,0.2-0.7,0.7-0.7
	c1.2,0,2.3,0,3.5,0c1.6,0,1.6,0,1.6-1.7c0-1.8,0-3.7,0.3-5.5c0.7-3.9,2.9-6.4,6.8-7.2c2.6-0.6,5.2-0.5,7.9-0.2
	c0.5,0.1,0.6,0.3,0.6,0.7c0,1.6,0,3.1,0,4.7c0,0.6-0.2,0.7-0.7,0.6c-1-0.2-2-0.2-3-0.2c-2.6,0.1-4.1,1.4-4.3,4.1
	c-0.1,1.4,0,2.8-0.1,4.2c0,0.4,0.2,0.6,0.6,0.6c4.4,0,8.8,0,13.2,0c0.7,0,0.6-0.4,0.6-0.8c0-2.7,0-5.5,0-8.2c0-0.7,0.2-0.9,0.9-0.9
	c2,0,3.9,0,5.9,0c0.6,0,0.9,0.1,0.8,0.8c0,2.7,0,5.5,0,8.2c0,0.8,0.2,0.9,0.9,0.9c2.1-0.1,4.2,0,6.3,0c0.5,0,0.8,0.1,0.8,0.7
	c0,1.6,0,3.2,0,4.8c0,0.6-0.2,0.7-0.7,0.7c-2.2,0-4.4,0-6.6,0c-0.5,0-0.7,0.1-0.7,0.7c0,8.1,0,16.1,0.1,24.2c0,2.8,1.8,4.4,4.8,4.5
	c0.8,0,1.6-0.1,2.4-0.1c0.5,0,0.7,0,0.7,0.6c0,1.6,0,3.3,0,4.9c0,0.5-0.2,0.7-0.6,0.7c-2.8,0.3-5.6,0.4-8.3-0.3
	c-3.9-1-5.9-3.4-6.4-7.7c-0.1-1.3-0.2-2.5-0.2-3.8c0-7.5,0-15,0-22.6c0-0.8-0.2-1-1-1c-4.1,0.1-8.2,0-12.3,0c-0.9,0-1.1,0.2-1.1,1.1
	C266.5,137.5,266.5,143,266.5,148.6C266.5,148.6,266.5,148.6,266.5,148.6z"/>
<path class="st1" d="M205.1,134.7c-0.7,2.6-1.5,5.1-2.2,7.7c-2.2,7.7-4.4,15.4-6.6,23.1c-0.2,0.6-0.4,0.7-1,0.7c-2.1,0-4.2,0-6.3,0
	c-0.6,0-0.8-0.2-1-0.8c-1.4-5.2-2.9-10.5-4.4-15.7c-2.2-8-4.5-16.1-6.7-24.1c-0.2-0.8,0-0.9,0.7-0.9c2,0,3.9,0,5.9,0
	c0.5,0,0.8,0.1,0.9,0.7c2.2,9.3,4.5,18.7,6.7,28c0.4,1.5,0.7,3,1.3,4.5c0.2-0.5,0.3-1,0.5-1.5c2.8-10.2,5.6-20.5,8.3-30.7
	c0.2-0.7,0.5-0.9,1.2-0.9c1.8,0.1,3.7,0,5.5,0c0.6,0,0.9,0.1,1.1,0.8c2.6,9.6,5.3,19.3,7.9,28.9c0.3,1.1,0.6,2.3,1.2,3.4
	c0.4-1.6,0.8-3.2,1.2-4.8c2.2-9.1,4.4-18.3,6.6-27.4c0.2-0.6,0.3-0.9,1.1-0.9c1.9,0.1,3.8,0.1,5.7,0c0.7,0,0.9,0.1,0.7,0.9
	c-1.8,6.3-3.5,12.7-5.3,19c-1.9,6.9-3.8,13.7-5.7,20.6c-0.2,0.8-0.6,1.1-1.4,1c-1.9-0.1-3.8-0.1-5.7,0c-0.7,0-1.1-0.1-1.3-0.9
	c-2.8-9.9-5.7-19.9-8.5-29.8c-0.1-0.3-0.2-0.5-0.3-0.8C205.2,134.7,205.1,134.7,205.1,134.7z"/>
<path class="st2" d="M239.4,145.3c0-6.5,0-13.1,0-19.6c0-0.9,0.3-1.1,1.1-1c1.9,0.1,3.9,0,5.8,0c0.6,0,0.7,0.2,0.7,0.7
	c0,13.3,0,26.7,0,40c0,0.5-0.1,0.7-0.7,0.7c-2.1,0-4.2,0-6.3,0c-0.8,0-0.7-0.4-0.7-0.9C239.4,158.7,239.4,152,239.4,145.3z"/>
<path class="st1" d="M243.2,118.1c-2.5,0-4.6-2-4.6-4.5c0-2.5,2-4.5,4.5-4.5c2.6,0,4.6,1.9,4.6,4.4
	C247.8,116.1,245.8,118.1,243.2,118.1z"/>
<path class="st3" d="M59.3,134.9c-6.4-7-12.1-14.5-17.6-22.2c1.2,0.6,2,1.7,2.9,2.6c8.3,7.8,17.1,15,26.6,21.3
	c2,1.3,2.1,1.3,2.7-1.1c2.5-9.8,0-18.5-5.3-26.8c-0.3-0.5-0.7-0.9-1-1.6c0.9,0.2,1.5,0.7,2.1,1.1c8.4,5.9,14.3,13.6,17.1,23.5
	c1.4,5,1.6,10.1,0.2,15.2c-0.1,0.4-0.1,0.7,0.2,1.1c2.5,3.2,4.2,6.8,4.8,10.8c0.3,1.6,0.3,3.2,0.1,4.8c-0.1,0.4-0.1,0.9-0.5,0.9
	c-0.5,0.1-0.5-0.4-0.7-0.7c-2.3-4-6.5-5.6-11.1-4.3c-1.8,0.5-3.3,1.3-4.9,2.1c-4.6,2.3-9.6,3.1-14.7,2.8
	c-9.9-0.7-18.2-4.9-25.5-11.4c-2.5-2.3-4.7-4.9-6.7-7.7c-0.2-0.3-0.3-0.6-0.4-1c0.8,0.5,1.6,1,2.3,1.5c7.4,4.6,15.3,7,24,6.1
	c3.4-0.4,6.5-1.4,9.5-3c0.6-0.3,0.6-0.5,0.1-0.9c-5.9-4.5-11.1-9.7-16-15.2c-4.7-5.2-9.1-10.6-13.3-16.2c-0.2-0.3-0.4-0.6-0.5-0.9
	C41.8,122.7,50.3,129.2,59.3,134.9z"/>
</svg>
