<svg xmlns="http://www.w3.org/2000/svg" width="153" height="41.31" viewBox="0 0 153 41.31">
  <g id="Angular" transform="translate(-45.172 -212.944)">
    <path id="Path_1302" data-name="Path 1302" d="M112.5,213.3c2.411.8,4.793,1.578,7.2,2.411,3.932,1.32,7.835,2.7,11.766,3.989.545.172.66.373.574.976-.517,3.874-.976,7.749-1.464,11.594-.43,3.5-.89,7-1.349,10.5-.086.746-.2,1.521-.287,2.267a.624.624,0,0,1-.4.574L112.616,254.4a.215.215,0,0,1-.143.029c-.23-.23-.143-.517-.143-.8V238.583c1.665,0,3.329,0,4.994-.029a.79.79,0,0,1,.861.6c.717,1.693,1.464,3.386,2.21,5.08.086.2.115.459.43.459h3.932a.992.992,0,0,0-.2-.574c-2.9-6.17-5.8-12.369-8.7-18.539-1.177-2.5-2.353-4.994-3.559-7.49,0-1.349,0-2.726.029-4.075C112.386,213.759,112.3,213.5,112.5,213.3Z" transform="translate(-47.863 -0.254)" fill="#b63032"/>
    <path id="Path_1303" data-name="Path 1303" d="M64.638,213.047c-.23.2-.143.488-.143.717,0,1.349-.029,2.726-.029,4.075-.086.172-.172.316-.258.488-3.243,7.2-6.486,14.435-9.758,21.639-.66,1.464-1.32,2.927-2.009,4.42,1.349,0,2.612-.029,3.874,0,.488,0,.66-.2.832-.631.66-1.665,1.349-3.329,2.009-5.022.115-.287.23-.459.574-.459,1.578.029,3.157.029,4.735.029v15.038c0,.258-.086.545.143.8-.23.258-.373,0-.517-.086-5.166-2.841-10.36-5.711-15.526-8.581a.935.935,0,0,1-.517-.8c-.574-4.994-1.177-10.016-1.751-15.009-.373-3.157-.717-6.342-1.119-9.5-.057-.459.2-.488.488-.6q8.093-2.884,16.186-5.74c.746-.258,1.464-.545,2.21-.775C64.265,213.047,64.437,212.817,64.638,213.047Z" transform="translate(0 0)" fill="#e23437"/>
    <path id="Path_1304" data-name="Path 1304" d="M204.367,257.766V272.46c0,.43-.057.6-.545.6-1.722,0-1.722.029-1.722-1.722V254.954c0-.517.115-.66.66-.717a2.724,2.724,0,0,1,2.784,1.349c3.272,4.42,6.629,8.782,9.958,13.173a.835.835,0,0,0,.517.459V254.925c0-.545.115-.689.689-.689,1.607.029,1.607,0,1.607,1.636,0,5.481,0,10.963.029,16.444,0,.574-.143.66-.717.717a2.664,2.664,0,0,1-2.726-1.349c-3.3-4.506-6.687-8.925-10.044-13.374A3.405,3.405,0,0,1,204.367,257.766Z" transform="translate(-111.892 -29.423)" fill="#b63032"/>
    <path id="Path_1305" data-name="Path 1305" d="M535.334,264.23c1.119,1.521,2.181,2.985,3.243,4.448,1.033,1.435,2.095,2.87,3.214,4.42h-2.985c-.258,0-.344-.2-.459-.373-1.837-2.583-3.645-5.194-5.481-7.749a2.482,2.482,0,0,1-.2-1.751c0-.258.43-.2.66-.258A8.281,8.281,0,0,0,536.6,261.7a3.306,3.306,0,0,0,1.435-3.243,2.168,2.168,0,0,0-2.038-2.038c-1.98-.23-3.989-.057-5.969-.115-.373,0-.344.23-.344.459v15.641c0,.517-.086.775-.66.689-.6-.086-1.377.258-1.722-.115-.373-.373-.115-1.148-.115-1.751,0-5.424,0-10.848-.029-16.243,0-.545.115-.689.689-.689,2.583.029,5.137.029,7.72.029a7.055,7.055,0,0,1,1.722.2,3.722,3.722,0,0,1,3.1,2.726,4.714,4.714,0,0,1-1.291,4.907A9.611,9.611,0,0,1,535.334,264.23Z" transform="translate(-343.619 -29.487)" fill="#b63132"/>
    <path id="Path_1306" data-name="Path 1306" d="M353.069,261.245c-.057,1.607.086,3.53-.057,5.481-.258,3.53-2.009,5.51-5.453,6.17a12.177,12.177,0,0,1-5.568-.23,5.977,5.977,0,0,1-4.448-5.338,49.349,49.349,0,0,1-.115-5.826c-.029-2.267,0-4.534-.029-6.8,0-.43.115-.574.545-.545.6.057,1.378-.23,1.751.115.373.373.115,1.148.115,1.722v9.442a9.541,9.541,0,0,0,.2,2.009c.517,2.3,2.009,3.473,4.649,3.673a8.075,8.075,0,0,0,2.353-.172,4.331,4.331,0,0,0,3.616-4.448c.057-3.846.057-7.691.029-11.537,0-.6.115-.832.775-.8,1.665.057,1.665.029,1.665,1.665C353.069,257.514,353.069,259.207,353.069,261.245Z" transform="translate(-208.363 -29.343)" fill="#b73334"/>
    <path id="Path_1307" data-name="Path 1307" d="M462.37,250.75c-.545,1.349-1.062,2.554-1.578,3.788-1.636,3.989-3.272,7.978-4.907,12a.786.786,0,0,1-.918.6c-.6-.057-1.205,0-1.865,0,3.1-7.06,6.2-14.062,9.327-21.237,3.157,7.146,6.228,14.177,9.356,21.266-.832,0-1.607-.029-2.353,0-.344,0-.4-.23-.517-.459-.66-1.636-1.349-3.272-2.009-4.936a.69.69,0,0,0-.746-.517c-1.693.029-3.386-.029-5.08.029-.574,0-.574-.172-.43-.6.459-1.349.459-1.378,1.923-1.378h2.784c.4,0,.488-.086.316-.488C464.608,256.145,463.518,253.505,462.37,250.75Z" transform="translate(-290.859 -23.498)" fill="#b73334"/>
    <path id="Path_1308" data-name="Path 1308" d="M286.163,256.495a14.85,14.85,0,0,0-6.285-.861c-3.9.258-6.256,2.64-6.371,6.543a13.6,13.6,0,0,0,.2,3.243,6.247,6.247,0,0,0,6.084,5.194,12.961,12.961,0,0,0,3.329-.143c.488-.086.66-.258.66-.8-.029-1.693,0-3.386-.029-5.08,0-.4.086-.6.517-.545.6.057,1.378-.2,1.751.115.4.316.115,1.119.115,1.722.029,1.808,0,3.616,0,5.424,0,.316,0,.545-.4.66a14.7,14.7,0,0,1-9.671-.143,7.217,7.217,0,0,1-4.62-5.338,13.564,13.564,0,0,1-.029-6.945c.89-3.444,3.329-5.166,6.687-5.711a17.379,17.379,0,0,1,7.49.4c.373.115.6.23.545.689C286.106,255.433,286.163,255.921,286.163,256.495Z" transform="translate(-161 -28.984)" fill="#b73334"/>
    <path id="Path_1309" data-name="Path 1309" d="M406.957,263.674V254.92c0-.488.086-.66.6-.6.574.057,1.32-.172,1.665.115.373.316.115,1.091.115,1.665,0,4.821.029,9.614,0,14.435,0,.517.115.66.631.631,2.87-.029,5.74,0,8.61-.029.517,0,.66.115.631.66-.029,1.32,0,1.32-1.349,1.32-3.358,0-6.715-.029-10.073.029-.66,0-.89-.115-.89-.832C407.015,269.413,406.957,266.543,406.957,263.674Z" transform="translate(-257.917 -29.476)" fill="#b63032"/>
    <path id="Path_1310" data-name="Path 1310" d="M82.625,250.662c-1.578,0-3.157,0-4.735-.029-.344,0-.459.172-.574.459-.66,1.665-1.349,3.329-2.009,5.022-.172.43-.344.631-.832.631-1.263-.029-2.525,0-3.874,0,.689-1.492,1.32-2.956,2.009-4.42,3.243-7.2,6.486-14.435,9.757-21.639.086-.172.172-.316.258-.488,1.177,2.5,2.382,4.994,3.559,7.49,2.9,6.17,5.8,12.369,8.7,18.539a.992.992,0,0,1,.2.574H91.148c-.316,0-.344-.258-.43-.459-.746-1.693-1.492-3.386-2.21-5.08a.817.817,0,0,0-.861-.6Zm3.932-3.76L82.768,238.9c0-.029-.086-.029-.115-.029-1.263,2.583-2.267,5.309-3.415,7.949-.115.287.057.316.258.316h6.945C86.585,247.132,86.7,247.1,86.556,246.9Z" transform="translate(-18.131 -12.304)" fill="#fefbfb"/>
    <path id="Path_1311" data-name="Path 1311" d="M112.493,260.4c.029,0,.115,0,.115.029l3.788,8.007a20.093,20.093,0,0,1-3.214.144c-.545.057-.717-.144-.689-.689C112.521,265.394,112.493,262.9,112.493,260.4Z" transform="translate(-47.998 -33.837)" fill="#b63132"/>
    <path id="Path_1312" data-name="Path 1312" d="M103.823,260.4c0,2.5.029,4.994,0,7.462,0,.545.143.746.689.689a17.231,17.231,0,0,0,3.214-.143c.172.2.029.23-.143.23h-6.945c-.2,0-.4-.029-.258-.316C101.585,265.709,102.56,263.012,103.823,260.4Z" transform="translate(-39.329 -33.837)" fill="#e23437"/>
  </g>
</svg>
