<svg xmlns="http://www.w3.org/2000/svg" width="89.07" height="41.73" viewBox="0 0 89.07 41.73">
  <g id="AR" transform="translate(-19.903 -76)">
    <path id="Path_2269" data-name="Path 2269" d="M196.81,99.309c5.148,1.683,6.9,6.054,9.032,10.068,1.165,2.2,2.3,4.4,3.432,6.6.162.291.291.615.453.906.421.647.162.809-.518.809-4.306,0-8.612-.032-12.917,0-.777,0-.939-.518-1.2-.971q-3.5-6.41-6.96-12.82a5.4,5.4,0,0,0-4.921-3.108c-.874,0-1.133.227-1.1,1.1.032,4.824,0,9.68.032,14.5,0,.971-.194,1.327-1.23,1.295-3.529-.065-7.09-.065-10.619,0-.874,0-1.133-.259-1.1-1.133q.049-19.716,0-39.464c0-.906.291-1.1,1.133-1.1,8,.1,15.993-.13,23.989.162a18.773,18.773,0,0,1,3.561.421c6.345,1.295,9.874,6.442,8.838,12.917C205.777,94.939,202.313,97.95,196.81,99.309ZM182.079,88.4v3.658c0,.421-.065.874.615.874,2.817-.065,5.633.227,8.385-.615a3.749,3.749,0,0,0,2.784-3.853,3.587,3.587,0,0,0-2.914-3.723,19.089,19.089,0,0,0-4.694-.291c-1.327,0-3.108-.453-3.885.194C181.5,85.421,182.209,87.266,182.079,88.4Z" transform="translate(-100.958)" fill="#030303"/>
    <path id="Path_2270" data-name="Path 2270" d="M64.9,117.666c-4.176,0-8.353-.032-12.5.032-.68,0-.906-.324-1.068-.874-.486-1.651-1.036-3.27-1.489-4.921-.194-.777-.486-1.1-1.36-1.068q-6.313.049-12.626,0a1.113,1.113,0,0,0-1.263.971c-.453,1.651-1.036,3.27-1.457,4.953-.194.745-.518.971-1.295.971q-5.536-.049-11.072,0c-.906,0-1.036-.194-.712-1.068q7.576-19.91,14.989-39.788A1.128,1.128,0,0,1,36.283,76q6.167.049,12.335,0a1.065,1.065,0,0,1,1.165.777q7.576,20.3,15.184,40.6C65,117.407,64.967,117.439,64.9,117.666ZM37.708,101.738c2.752,0,5.374-.032,8,.032,1.068.032,1-.356.745-1.165-1.165-3.723-2.266-7.478-3.432-11.2a5.167,5.167,0,0,0-.874-2.266C40.686,91.993,39.2,96.817,37.708,101.738Z" fill="#030303"/>
  </g>
</svg>
