<svg xmlns="http://www.w3.org/2000/svg" width="146.032" height="53.914" viewBox="0 0 146.032 53.914">
  <g id="AWS_SageMaker" data-name="AWS SageMaker" transform="translate(17.41 -187.165)">
    <g id="Group_233" data-name="Group 233" transform="translate(-17.41 187.165)">
      <g id="Group_232" data-name="Group 232">
        <path id="Path_2114" data-name="Path 2114" d="M208.227,162.629c0-8.048.056-16.1-.028-24.143a2.666,2.666,0,0,1,2.814-2.786c16.123.056,32.275.028,48.4.028a2.365,2.365,0,0,1,2.673,2.617c0,16.1-.028,32.191.028,48.286a2.708,2.708,0,0,1-3.011,2.983c-16.011-.056-32.022-.028-48.061-.028-2,0-2.842-.844-2.842-2.814Q208.241,174.7,208.227,162.629Zm41.842-10.777a10.81,10.81,0,0,1,0-1.351,2.058,2.058,0,0,0-1.154-2.195c-2.448-1.548-4.868-3.152-7.288-4.727a1.605,1.605,0,0,0-1.97-.028c-1.154.788-2.392,1.491-3.517,2.307a1.4,1.4,0,0,1-1.913.028c-1.154-.844-2.392-1.576-3.6-2.364a1.48,1.48,0,0,0-1.829-.028c-2.561,1.66-5.121,3.32-7.654,4.981a1.725,1.725,0,0,0-.9,1.716c.056,1.126-.028,2.279.028,3.4a1.58,1.58,0,0,1-.7,1.435c-.957.7-1.885,1.463-2.842,2.167a2.357,2.357,0,0,0-1.069,2.139c.028,2.251.028,4.474,0,6.725a2.2,2.2,0,0,0,.929,1.913c1.041.76,2.026,1.576,3.039,2.364a1.562,1.562,0,0,1,.647,1.379c-.056,1.154.028,2.336-.028,3.489a1.552,1.552,0,0,0,.844,1.548c2.87,1.688,5.74,3.349,8.582,5.009a1.709,1.709,0,0,0,1.857,0c.985-.591,1.97-1.126,2.955-1.716a1.1,1.1,0,0,1,1.323,0c.929.563,1.913,1.069,2.87,1.66a1.649,1.649,0,0,0,1.913.056c2.9-1.688,5.8-3.349,8.667-5.037a1.538,1.538,0,0,0,.816-1.491c-.056-1.1.056-2.223-.028-3.32a1.93,1.93,0,0,1,.957-1.857c.9-.647,1.745-1.351,2.645-2a2.364,2.364,0,0,0,1.041-2.139,26.38,26.38,0,0,1,.028-4.474c.281-2.42-.394-4.249-2.617-5.431A3.4,3.4,0,0,1,250.069,151.852Z" transform="translate(-208.198 -135.7)" fill="#856cb0"/>
        <path id="Path_2130" data-name="Path 2130" d="M269.109,171.081a3.431,3.431,0,0,0,2.026,4.193c2.195,1.154,2.9,2.983,2.617,5.431a33.879,33.879,0,0,0-.028,4.474,2.365,2.365,0,0,1-1.041,2.139c-.9.647-1.745,1.351-2.645,2a1.956,1.956,0,0,0-.957,1.857c.084,1.1-.028,2.223.028,3.32a1.518,1.518,0,0,1-.816,1.491c-2.9,1.688-5.8,3.349-8.667,5.037a1.649,1.649,0,0,1-1.913-.056c-.929-.591-1.913-1.1-2.87-1.66a1.191,1.191,0,0,0-1.322,0c-.985.591-1.97,1.126-2.955,1.716a1.656,1.656,0,0,1-1.857,0c-2.87-1.688-5.74-3.348-8.582-5.009a1.576,1.576,0,0,1-.844-1.548c.028-1.154-.028-2.335.028-3.489a1.472,1.472,0,0,0-.647-1.379c-1.013-.788-2.026-1.6-3.039-2.364a2.139,2.139,0,0,1-.929-1.913c.028-2.251.028-4.474,0-6.725a2.387,2.387,0,0,1,1.069-2.139c.957-.7,1.885-1.463,2.842-2.167a1.523,1.523,0,0,0,.7-1.435c-.056-1.126.028-2.279-.028-3.4a1.771,1.771,0,0,1,.9-1.716c2.561-1.66,5.121-3.32,7.654-4.981a1.52,1.52,0,0,1,1.829.028c1.182.788,2.448,1.519,3.6,2.364a1.368,1.368,0,0,0,1.913-.028c1.126-.816,2.364-1.519,3.517-2.307a1.566,1.566,0,0,1,1.97.028c2.42,1.6,4.84,3.18,7.288,4.727a2.058,2.058,0,0,1,1.154,2.195C269.081,170.181,269.109,170.631,269.109,171.081Zm-16.152,1.745c0-1.351-.028-2.7,0-4.024a1.327,1.327,0,0,0-.7-1.322c-.985-.619-1.97-1.238-2.926-1.885a.862.862,0,0,0-1.154,0,7.215,7.215,0,0,1-.985.619,1.383,1.383,0,0,0-.76,1.379c.028,1.548.028,3.123,0,4.671,0,.929-.535,1.576-1.266,1.548s-1.238-.647-1.238-1.576V169.2c0-.253.056-.591-.366-.563-.619.028-1.688,1.238-1.8,1.857-.366,2.279.253,4.024,2.532,4.924.084.028.141.113.2.169.366.281.76.619,1.21.253.872-.732,2.364-.675,2.729-2.082a1.7,1.7,0,0,0,0-.535v-3.039c0-.9.478-1.491,1.182-1.491.76-.028,1.294.563,1.323,1.491.028.957,0,1.913,0,2.87,0,3.208.309,2.729-2.392,4.024a3.34,3.34,0,0,0-2.139,4,1.178,1.178,0,0,0,.7,1.126c.9.422,1.773.9,2.645,1.323a1.548,1.548,0,0,1,.9,1.238,12.954,12.954,0,0,1-.028,2.336c0,1.013.084,1.069.957.563.7-.394,1.322-.675,1.407-1.716.141-1.773-.338-3.011-2.026-3.658a.986.986,0,0,1-.225-.141c-.7-.563-.872-1.238-.422-1.857a1.231,1.231,0,0,1,1.829-.225c.816.478,1.6,1.041,2.42,1.548a1.775,1.775,0,0,1,.9,1.716c-.028,1.913.028,3.827-.028,5.74-.028.816.281,1.041,1.041,1.013a5.87,5.87,0,0,0,2.758-.507,1.79,1.79,0,0,1,2.364.675,1.9,1.9,0,0,1-.113,2.336,1.757,1.757,0,0,1-2.42.45c-.985-.619-2.026-.366-3.039-.422a.474.474,0,0,0-.563.535,12.861,12.861,0,0,0,.113,3.461c.253.844,1.463,1.013,2.223,1.548.113.084.253.141.394.225a1.015,1.015,0,0,0,1.182-.028,40.853,40.853,0,0,1,4.812-2.758c2.054-.872,2.842-2.223,2.448-4.361a3.02,3.02,0,0,1,1.632-3.6c.141-.056.225-.2.338-.281.281-.253.31-.535-.028-.732a4.442,4.442,0,0,0-2.448-1.013,1.813,1.813,0,0,1-1.942-1.632,2.014,2.014,0,0,1,1.069-2,1.894,1.894,0,0,1,2.476.591c.591,1.154,1.716,1.519,2.645,2.167.591.422.76.253.76-.422-.028-1.6-.028-3.236,0-4.84a1.523,1.523,0,0,0-.7-1.435c-1.041-.788-2.082-1.6-3.123-2.42a1.584,1.584,0,0,1-.732-1.351c.056-1.407.113-1.266-1.323-1.266-.31,0-.591-.028-.9,0-1.21.113-2.42-.253-3.6.394a1.831,1.831,0,0,1-2.448-.591,2.028,2.028,0,0,1,.113-2.42,2.142,2.142,0,0,1,2.617-.31,2.429,2.429,0,0,0,1.266.422c1.154-.028,2.336,0,3.489,0,.281,0,.647.056.732-.338.113-.366-.225-.507-.478-.675-1.942-1.266-3.911-2.532-5.853-3.827a.93.93,0,0,0-1.154,0c-.985.675-2,1.322-3.011,1.942a1.269,1.269,0,0,0-.647,1.182c.028,2.335,0,4.671,0,7.007,0,.309-.056.7.225.844,1.1.591,1.97,1.576,3.349,1.576a1.946,1.946,0,0,1,1.97,1.6,1.985,1.985,0,0,1-3.6,1.379,3.879,3.879,0,0,0-1.8-1.632c-.478-.281-.957-.591-1.463-.844a1.818,1.818,0,0,1-1.154-1.913C252.986,175.415,252.957,174.12,252.957,172.826Zm0,20.485v-2.5c0-.957-.113-.985-.957-.506-2.026,1.126-4.08,2.279-6.106,3.377a1.178,1.178,0,0,1-1.745-.478,1.2,1.2,0,0,1,.591-1.716,22.329,22.329,0,0,1,2.11-1.182,2.031,2.031,0,0,0,1.435-2.336c-.141-2.983.478-2.195-2.307-3.658a1.142,1.142,0,0,0-1.323.056c-.816.563-1.632,1.1-2.476,1.632-.788.478-1.407.394-1.829-.2-.478-.7-.338-1.351.478-1.913s1.632-1.1,2.476-1.632a1.2,1.2,0,0,0,.647-1.182c-.028-.76-.028-1.491,0-2.251a1.04,1.04,0,0,0-.478-.985c-.788-.563-1.576-1.1-2.336-1.66a.747.747,0,0,0-1.041.028,16.582,16.582,0,0,1-1.913,1.491,1.852,1.852,0,0,0-.929,1.942c.028.619.281.647.732.394.591-.338,1.182-.7,1.773-1.041.985-.591,1.716-.507,2.11.169.394.7.084,1.407-.844,1.97-.957.563-1.913,1.1-2.87,1.632a1.732,1.732,0,0,0-.281,2.926c.9.732,1.857,1.407,2.73,2.167a1.128,1.128,0,0,0,1.519.084c.816-.506,1.66-.985,2.5-1.407a1.132,1.132,0,0,1,1.716.535,1.176,1.176,0,0,1-.591,1.66,14.125,14.125,0,0,1-2.195,1.238c-1.632.563-2.054,1.688-1.829,3.264.084.535.169.872.675,1.126a14.622,14.622,0,0,1,2.026,1.182,1.269,1.269,0,0,0,1.576-.028c.985-.619,2-1.182,3.039-1.745.872-.478,1.6-.338,1.97.281.394.647.056,1.435-.816,1.913-.619.338-1.266.675-1.885,1.041-.2.113-.478.225-.31.535a2.369,2.369,0,0,0,2.139.732c.732-.422,1.435-.844,2.167-1.266a1.132,1.132,0,0,0,.647-1.182C252.929,195.055,252.957,194.183,252.957,193.311Z" transform="translate(-227.238 -154.93)" fill="#f4eff6"/>
        <path id="Path_2131" data-name="Path 2131" d="M270.893,180c0,1.294.028,2.561,0,3.855a1.889,1.889,0,0,0,1.154,1.913c.506.253.985.563,1.463.844a4.034,4.034,0,0,1,1.8,1.632,1.985,1.985,0,0,0,3.6-1.379,1.946,1.946,0,0,0-1.97-1.6c-1.351,0-2.251-.985-3.348-1.576-.281-.141-.225-.535-.225-.844v-7.007a1.269,1.269,0,0,1,.647-1.182c1.013-.647,2.026-1.266,3.011-1.942a.894.894,0,0,1,1.154,0c1.942,1.294,3.911,2.561,5.853,3.827.253.169.591.281.478.675s-.45.338-.732.338h-3.489a2.516,2.516,0,0,1-1.266-.422,2.1,2.1,0,0,0-2.617.309,2.028,2.028,0,0,0-.113,2.42,1.831,1.831,0,0,0,2.448.591c1.182-.647,2.392-.31,3.6-.394.309-.028.591,0,.9,0,1.435,0,1.379-.113,1.323,1.266a1.583,1.583,0,0,0,.732,1.351c1.041.816,2.054,1.632,3.123,2.42a1.523,1.523,0,0,1,.7,1.435c-.056,1.6-.028,3.236,0,4.84,0,.675-.169.816-.76.422-.929-.647-2.054-1.013-2.645-2.167a1.873,1.873,0,0,0-2.476-.591,2.014,2.014,0,0,0-1.069,2,1.855,1.855,0,0,0,1.942,1.632,4.327,4.327,0,0,1,2.448,1.013c.338.2.31.478.028.732a1.063,1.063,0,0,1-.338.281,3.02,3.02,0,0,0-1.632,3.6,3.589,3.589,0,0,1-2.448,4.361,40.852,40.852,0,0,0-4.812,2.758,1.015,1.015,0,0,1-1.182.028c-.141-.084-.281-.141-.394-.225-.76-.535-1.97-.7-2.223-1.548a12.86,12.86,0,0,1-.113-3.461.485.485,0,0,1,.563-.535c1.013.056,2.054-.2,3.039.422a1.812,1.812,0,0,0,2.42-.45,1.9,1.9,0,0,0,.113-2.336,1.79,1.79,0,0,0-2.364-.675,5.541,5.541,0,0,1-2.758.507c-.76.028-1.069-.2-1.041-1.013.056-1.913,0-3.827.028-5.74a1.878,1.878,0,0,0-.9-1.716c-.816-.506-1.6-1.041-2.42-1.548a1.231,1.231,0,0,0-1.829.225c-.45.619-.281,1.294.422,1.857a.613.613,0,0,0,.225.141c1.716.647,2.167,1.885,2.026,3.658-.084,1.069-.7,1.351-1.407,1.716-.872.478-.985.422-.957-.563a16.13,16.13,0,0,0,.028-2.336,1.494,1.494,0,0,0-.9-1.238c-.9-.422-1.745-.9-2.645-1.323-.507-.225-.619-.591-.7-1.126a3.407,3.407,0,0,1,2.139-4c2.7-1.294,2.392-.816,2.392-4.024,0-.957.028-1.913,0-2.87-.028-.929-.563-1.519-1.323-1.491-.732.028-1.182.591-1.182,1.491v3.039a3.384,3.384,0,0,1,0,.535c-.366,1.407-1.857,1.323-2.729,2.082-.45.366-.844.028-1.21-.253-.084-.056-.141-.141-.2-.169-2.279-.9-2.9-2.645-2.532-4.924.084-.619,1.182-1.829,1.8-1.857.422,0,.366.31.366.563V179.3c0,.929.506,1.548,1.238,1.576s1.266-.619,1.266-1.548c0-1.548.028-3.123,0-4.671a1.284,1.284,0,0,1,.76-1.379,7.218,7.218,0,0,0,.985-.619.894.894,0,0,1,1.154,0c.957.647,1.942,1.266,2.926,1.885a1.351,1.351,0,0,1,.7,1.322C270.865,177.331,270.893,178.653,270.893,180Z" transform="translate(-245.174 -162.108)" fill="#876eb1"/>
        <path id="Path_2132" data-name="Path 2132" d="M259.318,228.022c0,.872-.028,1.745,0,2.589a1.176,1.176,0,0,1-.647,1.182c-.732.422-1.435.844-2.167,1.266a2.369,2.369,0,0,1-2.139-.732c-.141-.31.141-.422.31-.535.619-.366,1.266-.7,1.885-1.041.872-.478,1.182-1.266.816-1.913s-1.126-.76-1.97-.281c-1.013.563-2.026,1.126-3.039,1.745a1.308,1.308,0,0,1-1.576.028,18.114,18.114,0,0,0-2.026-1.182c-.506-.253-.591-.619-.675-1.126-.225-1.576.2-2.7,1.829-3.264a14.123,14.123,0,0,0,2.195-1.238,1.176,1.176,0,0,0,.591-1.66,1.154,1.154,0,0,0-1.716-.535c-.844.45-1.688.9-2.5,1.407a1.126,1.126,0,0,1-1.52-.084c-.9-.76-1.829-1.435-2.729-2.167a1.721,1.721,0,0,1,.281-2.926c.957-.535,1.913-1.1,2.87-1.632s1.266-1.266.844-1.97-1.126-.76-2.11-.169c-.591.338-1.182.7-1.773,1.041-.45.253-.675.225-.732-.394a1.811,1.811,0,0,1,.929-1.942A12.073,12.073,0,0,0,246.458,211a.722.722,0,0,1,1.041-.028c.76.563,1.548,1.1,2.335,1.66a1.068,1.068,0,0,1,.478.985c-.028.76-.028,1.491,0,2.251a1.268,1.268,0,0,1-.647,1.182c-.844.535-1.66,1.069-2.476,1.632s-.957,1.21-.478,1.913c.394.591,1.041.675,1.829.2.844-.507,1.66-1.041,2.476-1.632a1.1,1.1,0,0,1,1.323-.056c2.786,1.463,2.167.675,2.307,3.658a2.063,2.063,0,0,1-1.435,2.335,13.01,13.01,0,0,0-2.11,1.182,1.2,1.2,0,0,0-.591,1.716,1.178,1.178,0,0,0,1.745.478c2.054-1.126,4.08-2.251,6.106-3.377.844-.478.957-.45.957.507Z" transform="translate(-233.599 -189.641)" fill="#876eb1"/>
      </g>
    </g>
    <g id="Group_248" data-name="Group 248" transform="translate(42.883 197.631)">
      <g id="Group_234" data-name="Group 234" transform="translate(0 16.059)">
        <path id="Path_2115" data-name="Path 2115" d="M413.895,397.405v1.745c0,1.6-.056,3.236.028,4.84.028.844-.366.929-1.041.9-.591-.028-1.182.169-1.182-.844.056-3.349.028-6.7,0-10.046,0-.647.253-.732.844-.816,1.52-.225,2.251.394,2.758,1.773a42.565,42.565,0,0,0,1.885,3.968c.084.2.141.507.45.478.281-.028.338-.281.45-.506.76-1.6,1.6-3.208,2.307-4.84a1.229,1.229,0,0,1,1.351-.844c1.745.028,1.745,0,1.745,1.745,0,2.983-.056,5.994.028,8.976.028,1.182-.675.9-1.322.957-.816.084-.929-.31-.929-1.013.028-1.857.028-3.714.028-5.571,0-.253.112-.647-.169-.732-.394-.113-.394.366-.507.591-.563,1.069-1.069,2.138-1.576,3.208-.225.45-.506.732-1.041.647-.619-.084-1.379.31-1.8-.591-.619-1.379-1.322-2.729-2-4.08A1.842,1.842,0,0,1,413.895,397.405Z" transform="translate(-373.059 -392.425)" fill="#313b48"/>
        <path id="Path_2117" data-name="Path 2117" d="M349.493,408.552c-.141,1.322.253,2.983-.253,4.615a3.573,3.573,0,0,1-3.18,2.645,6.758,6.758,0,0,1-3.348-.366,1.152,1.152,0,0,1-.619-1.548c.169-.338.45-.225.7-.169a10.625,10.625,0,0,0,2.308.338,1.891,1.891,0,0,0,1.97-2.082c0-.45-.141-.591-.591-.394-3.067,1.407-4.924-.788-5.065-3.067a6.083,6.083,0,0,1,.45-3.152,3.234,3.234,0,0,1,4.671-1.491c.366.2.563.366.985-.028.45-.422,1.154-.253,1.717-.113.507.113.253.675.253,1.013C349.521,405.907,349.493,407.089,349.493,408.552Zm-2.392-.816v-1.519a.8.8,0,0,0-.253-.732,1.844,1.844,0,0,0-2.786.76,4.639,4.639,0,0,0,0,2.9A1.607,1.607,0,0,0,346,410.184c.844-.141,1.266-.591,1.1-1.463A3.847,3.847,0,0,1,347.1,407.736Z" transform="translate(-322.529 -399.801)" fill="#313b48"/>
        <path id="Path_2119" data-name="Path 2119" d="M278.884,392.2a19.3,19.3,0,0,1,2.223.394c.366.084.732.2.816.7.169,1.238,0,1.435-1.238,1.154a6.993,6.993,0,0,0-2.42-.169c-.647.084-1.266.31-1.379,1.069s.422,1.126,1.041,1.351c.844.31,1.688.619,2.5.985a3.12,3.12,0,0,1,2.195,3.236,3.468,3.468,0,0,1-2.645,3.236,8.644,8.644,0,0,1-4.784-.141,1.474,1.474,0,0,1-.647-1.913c.2-.281.394-.113.647-.056a10.9,10.9,0,0,0,3.011.366,2.284,2.284,0,0,0,1.21-.31,1.168,1.168,0,0,0,.084-2.054,24.017,24.017,0,0,0-3.039-1.294,3.148,3.148,0,0,1-2.054-3.574,3.25,3.25,0,0,1,2.786-2.758C277.758,392.313,278.321,392.284,278.884,392.2Z" transform="translate(-274.374 -391.75)" fill="#313b48"/>
        <path id="Path_2120" data-name="Path 2120" d="M502.816,394.624c-.957,1.1-1.857,2.195-2.814,3.236-.478.506-.45.844,0,1.351.9.985,1.745,2.026,2.617,3.067.141.169.422.338.338.591-.084.281-.422.141-.647.169a2.935,2.935,0,0,1-3.348-1.576,15.164,15.164,0,0,0-1.323-1.688c-.112-.141-.253-.281-.45-.169-.141.084-.141.253-.141.394,0,.788-.028,1.548,0,2.336.028.535-.169.732-.731.732-1.914-.056-1.688.2-1.688-1.688,0-3.292.028-6.584-.028-9.848,0-.7.2-.929.928-.929,1.491.028,1.491,0,1.491,1.52v4.924c0,.2-.084.45.141.563.309.141.422-.141.563-.338.478-.591.929-1.182,1.407-1.745A3.13,3.13,0,0,1,502.816,394.624Z" transform="translate(-432.631 -390.6)" fill="#313b48"/>
        <path id="Path_2123" data-name="Path 2123" d="M467.629,408.836v2.336c0,.338.2.844-.253.957-.535.141-1.238.338-1.6-.113-.422-.478-.647-.31-1.041-.084a3.3,3.3,0,0,1-2.054.507A2.472,2.472,0,0,1,460.2,409.9a2.772,2.772,0,0,1,2.673-2.729,12.209,12.209,0,0,1,1.435,0c.394,0,.957.338.985-.45.028-.647,0-1.322-.844-1.435a8.25,8.25,0,0,0-2.758.169c-.281.056-.7.422-.816-.084-.112-.478-.338-1.182.31-1.435a6.546,6.546,0,0,1,5.149-.141,2.529,2.529,0,0,1,1.294,2.392c.056.844,0,1.745,0,2.645Zm-3.292-.366c-1.21,0-1.8.422-1.829,1.21a1.123,1.123,0,0,0,1.21,1.154,1.47,1.47,0,0,0,1.632-1.379C465.434,408.5,464.871,408.442,464.336,408.47Z" transform="translate(-407.912 -399.746)" fill="#313b48"/>
        <path id="Path_2124" data-name="Path 2124" d="M315.96,408.647c0,.788.028,1.548,0,2.336,0,.366.225.9-.281,1.013-.535.113-1.238.31-1.6-.141-.394-.45-.619-.281-.957-.084a3.5,3.5,0,0,1-2.054.507,2.438,2.438,0,0,1-2.476-2.448,2.7,2.7,0,0,1,2.561-2.814,13.686,13.686,0,0,1,1.519-.028c.366,0,.9.338.957-.394.056-.647.084-1.323-.76-1.491a8.279,8.279,0,0,0-2.758.141c-.31.028-.788.563-.929-.112-.113-.478-.281-1.182.394-1.407a6.717,6.717,0,0,1,5.065-.141,2.134,2.134,0,0,1,1.266,2.026c.056,1.013,0,2.026,0,3.039Zm-2.307.591c.141-.872-.478-.9-1.154-.9-1.041,0-1.66.422-1.688,1.182a1.1,1.1,0,0,0,1.182,1.154A1.43,1.43,0,0,0,313.653,409.238Z" transform="translate(-298.957 -399.614)" fill="#313b48"/>
        <path id="Path_2126" data-name="Path 2126" d="M381.588,408.434h-1.97c-.535,0-.619.281-.507.7a1.836,1.836,0,0,0,1.632,1.351,6.708,6.708,0,0,0,2.589-.141c.281-.056.732-.366.816.113.113.478.309,1.069-.31,1.435a4.682,4.682,0,0,1-7.091-3.292,5.637,5.637,0,0,1,.309-2.814,3.779,3.779,0,1,1,7.175,2.364c-.141.31-.422.281-.675.281ZM380.6,407c.31,0,.591-.028.9,0,.76.084.957-.281.76-.957a1.284,1.284,0,0,0-1.1-1.041,1.736,1.736,0,0,0-1.8.7,1.088,1.088,0,0,0-.281,1.069c.169.394.563.169.872.225A4.966,4.966,0,0,0,380.6,407Z" transform="translate(-347.9 -399.711)" fill="#313b48"/>
        <path id="Path_2127" data-name="Path 2127" d="M530.565,408.462H528.6c-.478,0-.647.169-.507.675a1.827,1.827,0,0,0,1.688,1.379,6.66,6.66,0,0,0,2.476-.141c.281-.056.7-.394.816.113.113.45.281,1.041-.225,1.407-1.913,1.435-5.937.338-6.781-1.885a5.644,5.644,0,0,1,.141-4.53,4.142,4.142,0,0,1,5.768-1.576c1.351.844,1.6,3.067,1.238,4.193-.113.366-.366.394-.7.394-.619-.028-1.266-.028-1.942-.028Zm-.957-1.435h.9c.816,0,.985-.281.7-1.041a1.618,1.618,0,0,0-2.758-.394c-.281.338-.619.76-.422,1.21.169.45.675.169,1.041.225A3.39,3.39,0,0,0,529.609,407.027Z" transform="translate(-454.95 -399.739)" fill="#313b48"/>
        <path id="Path_2129" data-name="Path 2129" d="M559.4,408.371V404.8c0-.366-.056-.844.478-.732s1.351-.478,1.576.45c.169.647.394.619.816.225a3.342,3.342,0,0,1,.647-.45c.563-.281,1.294-.563,1.773-.141.45.394.141,1.126.169,1.716,0,.394-.366.31-.619.31a6.851,6.851,0,0,0-1.688.141.858.858,0,0,0-.732,1.013c.056,1.463,0,2.926.028,4.39.028.675-.113.957-.872.929-1.773-.084-1.548.225-1.576-1.576v-2.7Z" transform="translate(-479.194 -400.183)" fill="#313b48"/>
      </g>
      <g id="Group_247" data-name="Group 247" transform="translate(0 0)">
        <path id="Path_2116" data-name="Path 2116" d="M71.847,407.889c0-1.1-.028-2.223,0-3.32,0-.31-.225-.872.281-.9.563-.028,1.323-.394,1.745.253.31.478.507.31.844.141a4.164,4.164,0,0,1,3.264-.563,1.671,1.671,0,0,1,.76.422c.422.45.76.366,1.238.084a4.719,4.719,0,0,1,2.758-.647,2.213,2.213,0,0,1,2.11,2.167c.028,2,0,4,.028,6.022,0,.507-.225.7-.7.675-2.11-.056-1.716.225-1.745-1.576-.028-1.322,0-2.645,0-3.939,0-1.1-.31-1.435-1.266-1.407-1.266,0-1.576.281-1.576,1.379,0,1.548-.028,3.123,0,4.671.028.647-.169.929-.872.9-1.857-.056-1.632.2-1.632-1.632v-4.052c0-1.013-.281-1.294-1.182-1.294-1.266.028-1.66.338-1.66,1.323,0,1.576-.028,3.18,0,4.755.028.647-.169.9-.844.872-1.885-.056-1.576.169-1.6-1.548C71.847,409.718,71.847,408.818,71.847,407.889Z" transform="translate(-59.877 -400.445)" fill="#313b48"/>
        <path id="Path_2118" data-name="Path 2118" d="M38.894,404.793c-1.351,0-1.407,0-1.857-1.773-.2-.816-.591-.985-1.323-.929a13.931,13.931,0,0,1-2.167,0,.844.844,0,0,0-1.013.732c-.028.113-.084.225-.113.338-.506,1.773-.591,1.829-2.476,1.632-.45-.056-.591-.169-.422-.619,1.238-3.489,2.476-6.978,3.686-10.468a.787.787,0,0,1,.7-.591c2.11-.2,2.279-.113,2.926,1.829l2.955,8.442C40.329,404.793,40.329,404.793,38.894,404.793Zm-4.165-4.418a4.555,4.555,0,0,1,.619,0c.7.056.929-.169.675-.872-.366-1.041-.619-2.11-.957-3.152-.056-.2-.113-.45-.366-.422-.2.028-.2.253-.253.422-.31.985-.591,2-.9,2.983-.281.929-.225,1.041.732,1.041Z" transform="translate(-29.455 -393.043)" fill="#313b48"/>
        <path id="Path_2121" data-name="Path 2121" d="M223.855,407.87c0-1.1-.028-2.223,0-3.32,0-.338-.253-.929.31-.957s1.323-.394,1.716.31c.253.45.422.366.76.169a5.034,5.034,0,0,1,2.082-.76c1.913-.225,2.983.647,3.039,2.589.028,1.069,0,2.139,0,3.236v1.351c0,1.829.338,1.66-1.773,1.688-.563,0-.732-.225-.7-.76q.042-2.279,0-4.558c0-.563.028-1.21-.591-1.463a2.246,2.246,0,0,0-2.139.253c-.31.2-.281.507-.281.788,0,1.6-.028,3.236,0,4.84.028.7-.169.957-.9.929-1.8-.056-1.519.2-1.548-1.491C223.827,409.727,223.855,408.8,223.855,407.87Z" transform="translate(-169.114 -400.397)" fill="#313b48"/>
        <path id="Path_2122" data-name="Path 2122" d="M195.345,407.772c0,2.223-.872,3.686-2.476,4.333a4.649,4.649,0,0,1-4.9-.929,5.615,5.615,0,0,1-.338-6.191,4.4,4.4,0,0,1,5.4-1.266C194.81,404.508,195.317,406.084,195.345,407.772Zm-5.994.2a3.852,3.852,0,0,0,.141,1.323,1.577,1.577,0,0,0,1.576,1.238,1.5,1.5,0,0,0,1.576-1.182,4.5,4.5,0,0,0-.084-3.151,1.429,1.429,0,0,0-1.351-.985,1.514,1.514,0,0,0-1.548.844A3.663,3.663,0,0,0,189.351,407.969Z" transform="translate(-142.574 -400.411)" fill="#313b48"/>
        <path id="Path_2125" data-name="Path 2125" d="M132.16,408.746v2.533c0,.338.141.844-.31.929-.535.084-1.182.281-1.6-.2-.338-.366-.506-.31-.872-.084a3.327,3.327,0,0,1-2.476.478,2.309,2.309,0,0,1-2.054-2.139,2.516,2.516,0,0,1,1.519-2.758,4.867,4.867,0,0,1,2.532-.31c.366.028.929.31.985-.366.056-.619.028-1.323-.76-1.52a7.457,7.457,0,0,0-2.842.141c-.281.028-.675.507-.816-.028-.113-.478-.31-1.069.253-1.463a6.854,6.854,0,0,1,5.374-.028,2.124,2.124,0,0,1,.957,1.548A25.841,25.841,0,0,1,132.16,408.746Zm-3.236-.225c-1.266-.028-1.829.394-1.829,1.21a1.014,1.014,0,0,0,1.1,1.126,1.559,1.559,0,0,0,1.745-1.379C130.021,408.549,129.43,408.521,128.924,408.521Z" transform="translate(-97.987 -400.485)" fill="#313b48"/>
        <path id="Path_2128" data-name="Path 2128" d="M160.385,412.783c-.76,0-1.491.028-2.251,0-.45-.028-1.1.31-1.266-.281a1.907,1.907,0,0,1,.31-1.942c1.1-1.182,2.139-2.42,3.208-3.63.056-.056.113-.141.169-.2.169-.169.394-.338.253-.591-.113-.225-.366-.113-.563-.113-.872,0-1.745-.028-2.589.028-.76.028-.7-.45-.7-.929,0-.507-.056-.929.7-.929,1.66.056,3.348,0,5.037.028.394,0,.985-.253,1.126.225a1.857,1.857,0,0,1-.225,1.857c-1.126,1.266-2.251,2.533-3.377,3.827-.169.2-.507.338-.394.647.141.366.506.2.788.2.872,0,1.745.028,2.589,0,.675-.028.816.281.788.872-.028.507.084,1.041-.732.985C162.3,412.755,161.342,412.783,160.385,412.783Z" transform="translate(-120.922 -401.033)" fill="#313b48"/>
      </g>
    </g>
  </g>
</svg>
