<svg xmlns="http://www.w3.org/2000/svg" width="147.398" height="42.337" viewBox="0 0 147.398 42.337">
  <g id="Azure" transform="translate(-25.7 -215.2)">
    <path id="Path_1949" data-name="Path 1949" d="M75.5,265.96a36.328,36.328,0,0,1,4.418-.841q9.545-1.7,19.091-3.366c.6-.105,1.21-.21,1.92-.342-1.578-1.893-3.1-3.681-4.6-5.47-2.761-3.287-5.548-6.6-8.31-9.887a.881.881,0,0,1-.237-1q3.313-8.993,6.574-18.039a.338.338,0,0,1,.263-.316c.394.684.815,1.367,1.21,2.051q10.492,18.144,21.011,36.315a1.863,1.863,0,0,1,.447.947Q96.34,265.934,75.5,265.96Z" transform="translate(-36.705 -8.476)" fill="#2688c9"/>
    <path id="Path_1950" data-name="Path 1950" d="M25.7,252.791a7.786,7.786,0,0,0,1.289-2.025q6.153-10.61,12.28-21.247a4.029,4.029,0,0,1,.894-1.1c5.049-4.234,10.1-8.441,15.173-12.675.131-.105.237-.316.473-.263h0c-.71,1.893-1.657,3.708-2.524,5.522q-7.3,15.659-14.594,31.292a1.063,1.063,0,0,1-1.183.736C33.825,253,30.118,253,26.436,253a6.518,6.518,0,0,1-.71-.079A.2.2,0,0,1,25.7,252.791Z" transform="translate(0 -0.198)" fill="#2688c9"/>
    <path id="Path_1951" data-name="Path 1951" d="M254.2,289.117c.973-2.524,1.867-4.917,2.787-7.284q3.195-8.362,6.364-16.751a.874.874,0,0,1,1.052-.684c.736.053,1.6-.184,2.183.131s.631,1.289.894,1.972l8.441,21.852c.289.763.289.789-.552.763-.789-.026-1.736.316-2.288-.131-.526-.421-.631-1.341-.894-2.051-.526-1.367-1.026-2.735-1.525-4.1a.788.788,0,0,0-.868-.631c-3.1.026-6.18.026-9.282,0-.421,0-.631.105-.763.526-.657,1.946-1.394,3.866-2.051,5.811-.158.447-.342.6-.815.578C256.014,289.09,255.173,289.117,254.2,289.117Zm10.913-21.536c-.184.579-.316,1.21-.552,1.814-1.157,3.156-2.288,6.337-3.471,9.493-.184.526-.184.684.447.684,2.367.026,4.733.053,7.126,0,.684,0,.71-.158.5-.763C267.821,275.075,266.3,271.393,265.113,267.58Z" transform="translate(-168.414 -36.235)" fill="#2a88c9"/>
    <path id="Path_1952" data-name="Path 1952" d="M543.191,303.759a8.371,8.371,0,0,0,0,1.157c.263,1.289-.394,1.893-1.525,2.314-3.024,1.1-6.022,1.42-8.941-.263a7.66,7.66,0,0,1-3.6-6.074,11.01,11.01,0,0,1,1.946-8.441,7.643,7.643,0,0,1,10.545-1.5,5.74,5.74,0,0,1,2.419,4.865c-.026.947-.053,1.92,0,2.866.053.657-.131.894-.841.894-3.419-.026-6.863,0-10.282,0-1.078,0-1.131.053-.947,1.131.6,3.6,3.261,5.47,6.89,4.891A10.537,10.537,0,0,0,543.191,303.759Zm-6.5-6.627h4.234c.289,0,.552.026.579-.421a4.4,4.4,0,0,0-5.364-4.654c-2.393.552-3.5,2.314-4.076,4.523-.131.526.053.552.473.552Z" transform="translate(-370.943 -54.743)" fill="#2a88c9"/>
    <path id="Path_1953" data-name="Path 1953" d="M421.359,306.308c-2.1,2.971-4.917,3.392-7.757,2.6-2.261-.631-3.34-2.34-3.813-4.523a11.335,11.335,0,0,1-.237-2.5c-.026-3.34-.026-6.705-.053-10.045,0-.552.105-.789.71-.736.71.079,1.657-.289,2.051.158.342.394.105,1.315.131,2,.053,3.1-.079,6.206.105,9.335a6.574,6.574,0,0,0,.158,1,3.678,3.678,0,0,0,2.63,3.024,4.337,4.337,0,0,0,4.47-1.052,5.23,5.23,0,0,0,1.551-3.734c0-3.313.026-6.6,0-9.914,0-.578.158-.841.763-.763a7.137,7.137,0,0,0,1.5,0c.579-.053.71.158.71.736-.026,5.049,0,10.1,0,15.147,0,1.762,0,1.762-1.814,1.762-1.131,0-1.131,0-1.131-1.157C421.359,307.2,421.359,306.755,421.359,306.308Z" transform="translate(-282.876 -55.898)" fill="#2a88c9"/>
    <path id="Path_1954" data-name="Path 1954" d="M352.043,293.736c-2.945,0-5.733-.026-8.546.026-.736,0-.92-.184-.894-.894.053-1.525,0-1.525,1.525-1.525h11.228c.289,0,.736-.21.894.184a1.064,1.064,0,0,1-.263,1.052c-2.551,3.5-5.075,6.995-7.626,10.518-.815,1.1-1.6,2.235-2.5,3.471h2.866c2.288,0,4.549.026,6.837,0,.447,0,.631.105.631.579.026,1.841.026,1.841-1.788,1.841H342.55c-.289,0-.71.184-.841-.158a1.155,1.155,0,0,1,.237-1.131c1.1-1.473,2.183-2.971,3.261-4.47l6.548-8.993A1.488,1.488,0,0,1,352.043,293.736Z" transform="translate(-232.861 -56.079)" fill="#2a88c9"/>
    <path id="Path_1955" data-name="Path 1955" d="M489.874,293.787a12.353,12.353,0,0,1,1.446-2.156,4.565,4.565,0,0,1,4.523-1.394c.237.026.447.131.421.473-.026.71,0,1.446,0,2.156,0,.368-.158.342-.447.263-2.472-.815-4.181-.026-5.207,2.367a8.269,8.269,0,0,0-.71,3.261c0,2.919-.026,5.838,0,8.757,0,.473-.105.71-.631.657-.71-.079-1.63.289-2.077-.131-.473-.421-.131-1.367-.158-2.077-.026-4.917,0-9.808-.026-14.726,0-.579.131-.815.736-.763a11.611,11.611,0,0,0,1.657,0c.368-.026.5.105.5.5C489.848,291.894,489.874,292.84,489.874,293.787Z" transform="translate(-339.951 -55.236)" fill="#2a88c9"/>
    <path id="Path_1956" data-name="Path 1956" d="M140.1,215.279c.026-.026.026-.053.053-.079v.053c-.026,0-.053,0-.053.026Z" transform="translate(-84.317)" fill="#2688c9"/>
  </g>
</svg>
