<svg xmlns="http://www.w3.org/2000/svg" width="147.397" height="33.217" viewBox="0 0 147.397 33.217">
  <g id="Big_Commerce" data-name="Big Commerce" transform="translate(-57.8 -449.7)">
    <path id="Path_1657" data-name="Path 1657" d="M57.8,482.372c5.5-4.1,11.091-8.111,16.68-12.238v7.28c0,.573,0,.573.573.573h6.019a3.6,3.6,0,0,0,1.347-.229,2.952,2.952,0,0,0,2.064-2.579,3.13,3.13,0,0,0-.888-2.694,2.427,2.427,0,0,0-.545-.4c-.115-.057-.2-.115-.315-.172a.162.162,0,0,1,0-.287.624.624,0,0,1,.229-.143,2.665,2.665,0,0,0,1.318-2.092,3,3,0,0,0-2.579-3.353,7.708,7.708,0,0,0-1.433-.086c.115-.086.172-.143.258-.2,5.359-3.926,10.747-7.853,16.107-11.779,1.892-1.376,3.783-2.751,5.646-4.127.057-.057.143-.057.172-.143h.4a.88.88,0,0,1,.229.688v17.6c-.115-.057-.172-.172-.258-.229a5.288,5.288,0,0,0-3.124-1.863,6.457,6.457,0,0,0-6.248,1.949,5.647,5.647,0,0,0-1.462,3.5,6.261,6.261,0,0,0,.631,3.525,5.851,5.851,0,0,0,4.041,3.153,6.741,6.741,0,0,0,6.219-1.433c.057-.029.086-.086.143-.115h.029c.057.057.029.115.029.2v5.7a.6.6,0,0,1-.258.545H58.4a4.214,4.214,0,0,0-.6,0C57.8,482.8,57.8,482.515,57.8,482.372ZM87,472h0v5.675c0,.315.029.344.344.344H89.1c.459,0,.459,0,.459-.43V466.351c0-.315-.029-.344-.344-.344h-1.72c-.459,0-.487.029-.487.487Z" fill="#363341"/>
    <path id="Path_1658" data-name="Path 1658" d="M571.957,508.4H571.9v-1.6h.057Z" transform="translate(-366.76 -40.735)" fill="#a49fa6"/>
    <path id="Path_1659" data-name="Path 1659" d="M571.868,543.4h.057v1.06h-.057C571.84,544.117,571.868,543.744,571.868,543.4Z" transform="translate(-366.728 -66.846)" fill="#a49fa6"/>
    <path id="Path_1660" data-name="Path 1660" d="M373.234,514.74c.373-.974.745-1.949,1.146-2.923.659-1.691,1.29-3.353,1.949-5.044.143-.344.143-.344.516-.344h2.321c.287,0,.287,0,.315.287v11.464c0,.287,0,.287-.287.287h-1.519c-.287,0-.315-.029-.315-.315v-8.8a.4.4,0,0,0-.143.258l-3.353,8.426c-.115.258-.229.43-.545.4h-.115c-.4,0-.43,0-.573-.373-1.146-2.837-2.264-5.675-3.411-8.512a.718.718,0,0,0-.115-.2c0,.086-.029.2-.029.287,0,2.78,0,5.56-.029,8.34,0,.487.086.459-.459.459h-1.4c-.258,0-.258-.029-.287-.258V506.744c0-.344,0-.344.344-.344h2.264c.4,0,.43,0,.573.373.573,1.462,1.146,2.952,1.72,4.414.43,1.089.86,2.178,1.29,3.3.029.086.086.172.115.258Z" transform="translate(-220.513 -40.45)" fill="#363341"/>
    <path id="Path_1661" data-name="Path 1661" d="M318.676,514.84c.115-.057.115-.172.143-.229.974-2.551,1.978-5.1,2.952-7.652l.086-.258a.31.31,0,0,1,.315-.2h2.579c.115,0,.172.029.172.172v11.55c0,.373.029.315-.344.344h-1.548c-.229,0-.229-.029-.229-.229v-8.8a.8.8,0,0,0-.2.373l-2.837,7.136c-.143.4-.315.774-.459,1.175-.143.344-.143.344-.545.373h-.373a.255.255,0,0,1-.229-.143,1.018,1.018,0,0,0-.115-.258l-3.353-8.426a.391.391,0,0,0-.172-.287v8.77c0,.4.029.344-.344.344h-1.548c-.229,0-.229,0-.229-.229V506.844c0-.287,0-.287.287-.287h2.35c.344,0,.373.029.487.344,1,2.579,2.035,5.187,3.038,7.767C318.591,514.668,318.619,514.754,318.676,514.84Z" transform="translate(-181.632 -40.521)" fill="#363341"/>
    <path id="Path_1662" data-name="Path 1662" d="M460.8,512.519v-5.789a.211.211,0,0,1,.229-.229h5.159a4.269,4.269,0,0,1,1.777.344,3.5,3.5,0,0,1,2.121,2.923,3.909,3.909,0,0,1-.287,2.064,3.246,3.246,0,0,1-1.949,1.834,1.618,1.618,0,0,0-.344.115c-.143.057-.172.143-.086.287.057.086.115.2.172.287l2.321,3.7c.029.057.086.115.115.172.086.2,0,.344-.2.344h-1.92a.275.275,0,0,1-.258-.172,2.864,2.864,0,0,1-.229-.4c-.716-1.2-1.433-2.407-2.121-3.611a.584.584,0,0,0-.573-.344c-.459.029-.917,0-1.347,0-.315,0-.344.029-.344.344v3.582c0,.573,0,.573-.573.573h-1.2c-.344,0-.373-.029-.373-.373-.086-1.863-.086-3.754-.086-5.646Zm2.149-2.235h0v1.576c0,.258.029.315.287.315.974,0,1.949.057,2.952-.029a1.872,1.872,0,0,0,1.6-2.551,1.828,1.828,0,0,0-1.806-1.2c-.888-.029-1.777,0-2.665,0-.315,0-.344.029-.344.373C462.949,509.251,462.949,509.767,462.949,510.283Z" transform="translate(-287.501 -40.521)" fill="#363341"/>
    <path id="Path_1663" data-name="Path 1663" d="M269.346,505.729a5.915,5.915,0,0,1,5.159,3.009,6.473,6.473,0,0,1-.487,7.394,5.665,5.665,0,0,1-3.181,1.92,6.065,6.065,0,0,1-3.9-.4,5.309,5.309,0,0,1-2.694-2.608,6.86,6.86,0,0,1-.029-6.162,5.461,5.461,0,0,1,4.27-3.124c.115-.029.2-.029.315-.057A3.3,3.3,0,0,0,269.346,505.729ZM269.26,516.3a3.7,3.7,0,0,0,3.554-2.064,5.11,5.11,0,0,0,.2-4.1,3.737,3.737,0,0,0-6.62-.86,4.97,4.97,0,0,0-.2,5.044A3.348,3.348,0,0,0,269.26,516.3Z" transform="translate(-146.746 -39.951)" fill="#363341"/>
    <path id="Path_1664" data-name="Path 1664" d="M421.4,512.49V506.7c.029-.143.086-.2.229-.2h7.8c.172.029.229.057.229.229v1.4a.2.2,0,0,1-.2.229h-5.675c-.172.029-.229.086-.229.287v2.436c0,.315.057.344.373.344h5.1a1.763,1.763,0,0,1,.4.029c.115.029.172.086.143.2v1.4a.189.189,0,0,1-.172.2,1.894,1.894,0,0,1-.4.029h-5.187c-.2,0-.258.057-.258.258v2.78c0,.229.057.287.373.287h5.187c.716,0,.573.057.6.6v.946c0,.315-.029.344-.373.344H421.8c-.344,0-.373-.029-.373-.4,0-1.834,0-3.726-.029-5.617Z" transform="translate(-259.393 -40.521)" fill="#363341"/>
    <path id="Path_1665" data-name="Path 1665" d="M551.354,517.07a6.558,6.558,0,0,0,0,1.06c0,.43,0,.43-.43.43h-7.509c-.287,0-.315-.029-.315-.344V506.695a.243.243,0,0,1,.2-.2h7.624c.143,0,.315-.029.43.115v1.6a.251.251,0,0,1-.258.172h-5.474c-.373,0-.4.029-.4.4v2.379c.029.258.057.287.315.287h5.417c.229.029.287.057.287.315v1.29c0,.229-.057.258-.287.287h-5.474c-.2.029-.258.086-.258.287v2.751c0,.229.057.258.287.287h5.417C551.325,516.668,551.354,516.668,551.354,517.07Z" transform="translate(-346.214 -40.515)" fill="#363341"/>
    <path id="Path_1666" data-name="Path 1666" d="M228.279,505.7a5.121,5.121,0,0,1,4.471,2.293.718.718,0,0,1,.115.2c.086.172.086.258-.086.373-.43.229-.86.459-1.29.716a.222.222,0,0,1-.344-.086c-.057-.086-.115-.143-.143-.2a3.31,3.31,0,0,0-2.981-1.318,3.643,3.643,0,0,0-3.3,2.493,4.724,4.724,0,0,0,.573,4.672,3.712,3.712,0,0,0,4.184,1.29,3.3,3.3,0,0,0,1.548-1.175c.287-.373.287-.373.716-.172.344.172.659.344,1,.516.287.143.315.229.115.516a5.1,5.1,0,0,1-3.812,2.379,6.008,6.008,0,0,1-5.1-1.748,5.838,5.838,0,0,1-1.576-3.1,6.931,6.931,0,0,1,.43-4.1,5.806,5.806,0,0,1,4.528-3.439A5.657,5.657,0,0,1,228.279,505.7Z" transform="translate(-117.315 -39.951)" fill="#363341"/>
    <path id="Path_1667" data-name="Path 1667" d="M498.5,512a6.248,6.248,0,0,1,1.376-4.184,5.672,5.672,0,0,1,3.783-2.092,5.966,5.966,0,0,1,3.009.287,5.178,5.178,0,0,1,2.465,2.092c.115.172.115.287-.086.4-.43.229-.831.459-1.261.688-.2.115-.229.086-.373-.115a3.523,3.523,0,0,0-5.159-.716,4.148,4.148,0,0,0-1.576,2.895,4.926,4.926,0,0,0,.4,2.723,3.771,3.771,0,0,0,3.382,2.264,3.281,3.281,0,0,0,2.78-1.29c.057-.086.143-.172.2-.258a.222.222,0,0,1,.344-.086c.373.2.745.4,1.118.573a.629.629,0,0,1,.143.086c.172.115.2.2.086.4a4.1,4.1,0,0,1-.315.43,5.027,5.027,0,0,1-3.21,1.978,5.983,5.983,0,0,1-6.936-4.385,4.864,4.864,0,0,1-.172-.888A3.66,3.66,0,0,0,498.5,512Z" transform="translate(-314.396 -39.913)" fill="#363341"/>
    <path id="Path_1668" data-name="Path 1668" d="M194.485,514.212v2.579c0,.115-.029.172-.143.143H189.5c-.2.029-.287.086-.287.287v1.662c0,.172.086.229.229.258h2.579c.315,0,.344.029.344.344v.888a.423.423,0,0,1-.229.43,4.057,4.057,0,0,1-2.35.716,3.978,3.978,0,0,1-1.634-.344,3.577,3.577,0,0,1-1.777-1.777,4.364,4.364,0,0,1-.029-3.64,3.634,3.634,0,0,1,5.245-1.634,4.079,4.079,0,0,1,.831.745c.229.258.229.258.545.086.4-.2.8-.43,1.175-.63C194.256,514.3,194.342,514.241,194.485,514.212Z" transform="translate(-91.431 -45.568)" fill="#363341"/>
    <path id="Path_1669" data-name="Path 1669" d="M126.82,533.88H125.3c-.344,0-.373-.057-.4-.373V531.5a.488.488,0,0,1,.029-.2.221.221,0,0,1,.229-.2h3.1a1.928,1.928,0,0,1,.688.115,1.329,1.329,0,0,1,.888,1.4,1.279,1.279,0,0,1-1.032,1.2,2.046,2.046,0,0,1-.573.057h-1.4Z" transform="translate(-47.869 -58.071)" fill="#363341"/>
    <path id="Path_1670" data-name="Path 1670" d="M126.634,516.879H125.2c-.315,0-.373-.057-.4-.373v-1.92c0-.229,0-.229.229-.258a1.177,1.177,0,0,1,.315-.029h2.579a1.9,1.9,0,0,1,.8.143,1.191,1.191,0,0,1,.716,1.29,1.152,1.152,0,0,1-.917,1.06,1.764,1.764,0,0,1-.545.057C127.551,516.879,127.093,516.879,126.634,516.879Z" transform="translate(-47.798 -46.086)" fill="#363341"/>
  </g>
</svg>
