<svg xmlns="http://www.w3.org/2000/svg" width="98.662" height="41.006" viewBox="0 0 98.662 41.006">
  <g id="CSS" transform="translate(-32.775 -79.781)">
    <path id="Path_1313" data-name="Path 1313" d="M50.9,79.788h17.44c.636,0,.636,0,.6.6-.337,3.78-.674,7.56-1.01,11.3-.262,2.994-.524,5.951-.786,8.945l-.9,9.993c-.15,1.871-.337,3.743-.487,5.614-.037.337-.112.487-.449.6-4.716,1.272-9.394,2.582-14.109,3.892a.929.929,0,0,1-.636,0c-4.678-1.31-9.356-2.62-14.072-3.892a.537.537,0,0,1-.487-.561c-.412-4.9-.861-9.768-1.31-14.671-.374-4.416-.786-8.832-1.16-13.249-.225-2.62-.487-5.24-.711-7.859a1.4,1.4,0,0,0-.037-.412c-.037-.225.037-.337.262-.3H50.9Zm-.037,16.654c-.187,0-.374.037-.561.037H40.831c-.374,0-.524.075-.487.487q.225,1.8.337,3.593c.037.449.187.487.561.487h6.886c.9,0,1.8,0,2.732.037v7.148c-1.609-.412-3.219-.861-4.865-1.272-.187-.037-.225-.187-.225-.337-.075-.973-.187-1.946-.262-2.882-.037-.374-.15-.412-.487-.412-1.235,0-2.433.037-3.668,0-.374,0-.449.112-.412.449.187,2.021.374,4.079.524,6.1a.667.667,0,0,0,.6.711c2.919.786,5.838,1.609,8.758,2.433v4.229c0,.337.037.449.449.337,1.909-.561,3.817-1.048,5.726-1.572,1.834-.487,3.63-1.01,5.464-1.534a.518.518,0,0,0,.449-.6c.037-.823.112-1.647.187-2.47.112-1.31.262-2.582.374-3.892.075-.823.15-1.684.225-2.507.112-1.235.225-2.507.374-3.743.075-.823.112-1.684.187-2.507.112-1.31.225-2.62.374-3.93.075-.786.15-1.572.187-2.358.112-1.272.225-2.545.374-3.817.075-.823.15-1.684.225-2.507.075-.936.15-1.871.262-2.844.037-.374-.112-.449-.449-.449H51.348c-.337,0-.449.112-.449.449.037,1.347,0,2.695,0,4.042-.187,0-.374.037-.561.037H39.97c-.3,0-.412.037-.374.412.15,1.235.225,2.47.337,3.705.037.337.112.449.487.449,1.572-.037,3.181,0,4.753,0,1.909,0,3.855,0,5.763.037C50.861,93.411,50.861,94.908,50.861,96.442Z" transform="translate(0)" fill="#264de3"/>
    <path id="Path_1314" data-name="Path 1314" d="M261.021,126.834h-7.71c-.337,0-.412-.075-.412-.412v-5.389c0-.337.075-.412.412-.412,2.844,0,5.689,0,8.57.037.449,0,.561-.15.524-.561v-.3c.037-.337-.112-.374-.412-.374h-8.683c-.337,0-.412-.075-.412-.412v-12.5c0-.337.112-.412.412-.412h15.419c.337,0,.449.037.449.412-.037,1.684-.037,3.368,0,5.09,0,.374-.075.449-.449.449-2.844,0-5.689,0-8.57-.037-.561,0-.487.3-.487.636-.037.374,0,.561.487.561,2.844-.037,5.689,0,8.5-.037.337,0,.487.075.487.449v12.725c0,.374-.112.412-.449.412C266.186,126.8,263.6,126.834,261.021,126.834Z" transform="translate(-137.742 -16.469)"/>
    <path id="Path_1315" data-name="Path 1315" d="M208.884,126.9h-7.672c-.337,0-.412-.075-.412-.412V121.1c0-.337.075-.412.412-.412h8.608c.374,0,.487-.112.449-.449V119.9c.037-.337-.112-.412-.412-.412h-8.57c-.412,0-.487-.112-.487-.487v-12.35c0-.374.075-.449.449-.449h15.382c.337,0,.449.075.449.412-.037,1.684-.037,3.368,0,5.09,0,.374-.112.412-.449.412h-8.5c-.412,0-.6.075-.486.487v.3c-.037.337.075.412.412.412h7.747c.412,0,.936-.187,1.235.075.225.262.075.786.075,1.2v11.9c0,.337-.075.449-.412.449C214.049,126.859,211.466,126.9,208.884,126.9Z" transform="translate(-105.141 -16.532)"/>
    <path id="Path_1316" data-name="Path 1316" d="M148.7,116.442v-9.656c0-.374.037-.487.487-.487h15.382c.337,0,.449.037.449.412-.037,1.984-.037,3.93,0,5.913,0,.337-.075.449-.449.449H156c-.374,0-.486.075-.486.449.037,1.946.037,3.93,0,5.876,0,.374.075.487.486.487h8.57c.337,0,.449.075.449.412-.037,1.984,0,3.967,0,5.951,0,.337-.075.412-.412.412H149.149c-.337,0-.412-.112-.412-.412C148.7,122.992,148.7,119.7,148.7,116.442Z" transform="translate(-72.54 -16.594)"/>
    <path id="Path_1317" data-name="Path 1317" d="M80.912,92.391V88.349c0-.337.112-.449.449-.449H95.246c.337,0,.487.075.449.449-.112.936-.187,1.871-.262,2.844-.075.823-.15,1.684-.225,2.507-.112,1.272-.225,2.545-.374,3.817-.075.786-.15,1.572-.187,2.358-.112,1.31-.262,2.62-.374,3.93-.075.823-.112,1.684-.187,2.507-.112,1.235-.225,2.507-.374,3.743-.075.823-.15,1.684-.225,2.507-.112,1.31-.262,2.582-.374,3.892-.075.823-.15,1.647-.187,2.47a.538.538,0,0,1-.449.6c-1.834.487-3.63,1.01-5.464,1.534l-5.726,1.572c-.412.112-.449,0-.449-.337v-4.229c.037-.037.075-.037.112-.075,2.994-.823,5.951-1.647,8.945-2.47.187-.037.225-.187.225-.337.337-3.743.674-7.522,1.01-11.265.337-3.705.636-7.448,1.01-11.153.037-.3-.037-.374-.337-.374H80.912Z" transform="translate(-30.051 -5.08)" fill="#2a65f0"/>
    <path id="Path_1318" data-name="Path 1318" d="M64.678,152.218c-.037.037-.075.037-.112.075-2.919-.823-5.838-1.647-8.757-2.433a.667.667,0,0,1-.6-.711c-.15-2.058-.337-4.079-.524-6.1-.037-.337.037-.449.412-.449,1.235.037,2.433.037,3.668,0,.337,0,.449.037.487.412.037.973.187,1.946.262,2.882,0,.15.037.3.225.337,1.609.412,3.219.823,4.865,1.272v4.192C64.566,151.881,64.491,152.069,64.678,152.218Z" transform="translate(-13.705 -39.309)" fill="#e9e9ea"/>
    <path id="Path_1319" data-name="Path 1319" d="M62.128,104.341c-1.909,0-3.855,0-5.763-.037H51.612c-.337,0-.449-.112-.487-.449q-.112-1.853-.337-3.705c-.037-.374.075-.412.374-.412H61.529a2.832,2.832,0,0,0,.561-.037v4.528Z" transform="translate(-11.267 -12.464)" fill="#e9e9ea"/>
    <path id="Path_1320" data-name="Path 1320" d="M63.505,128.841c-.9,0-1.8-.037-2.732-.037H53.887c-.374,0-.524-.037-.561-.487q-.112-1.8-.337-3.593c-.037-.412.075-.487.487-.487h9.469a2.833,2.833,0,0,0,.561-.037v4.641Z" transform="translate(-12.644 -27.795)" fill="#e5e6ea"/>
    <path id="Path_1321" data-name="Path 1321" d="M81.1,143.76V136.5c1.722,0,3.406.037,5.127,0,.374,0,.487.112.449.487-.15,1.609-.337,3.219-.449,4.865a.667.667,0,0,1-.6.711C84.094,142.937,82.6,143.349,81.1,143.76Z" transform="translate(-30.239 -35.492)" fill="#2a65f0"/>
    <path id="Path_1322" data-name="Path 1322" d="M81.1,116.6V112h6.025c.3,0,.374.075.374.412q-.225,1.909-.337,3.817c-.037.337-.112.412-.449.412H83.2a18.893,18.893,0,0,0-2.058.037C81.1,116.641,81.1,116.641,81.1,116.6Z" transform="translate(-30.239 -20.161)" fill="#2a65f0"/>
    <path id="Path_1323" data-name="Path 1323" d="M81.037,109.169a18.893,18.893,0,0,1,2.058-.037h3.518c.337,0,.412-.112.449-.412L87.4,104.9c.037-.3-.037-.412-.374-.412H81V100H92c.3,0,.374.037.337.374-.337,3.705-.674,7.448-1.01,11.153-.337,3.743-.674,7.522-1.01,11.265,0,.15-.037.3-.225.337-2.994.823-5.988,1.647-8.945,2.47-.187-.15-.112-.337-.112-.524v-4.117c1.5-.412,2.994-.823,4.528-1.235a.667.667,0,0,0,.6-.711c.112-1.609.262-3.256.449-4.865.037-.374-.075-.487-.449-.487H81.037Z" transform="translate(-30.176 -12.652)" fill="#fefefe"/>
  </g>
</svg>
