<svg xmlns="http://www.w3.org/2000/svg" width="147.397" height="44.828" viewBox="0 0 147.397 44.828">
  <g id="Gitlab" transform="translate(-21.063 -166.596)">
    <path id="Path_1978" data-name="Path 1978" d="M533.368,222.874c-.32.373-.267.853-.373,1.28-.933,4.079-3.465,6.291-7.624,6.558a17.167,17.167,0,0,1-5.918-.693.992.992,0,0,1-.853-1.093c.027-7.091.027-14.208,0-21.3,0-.666.213-.826.826-.826,2.293,0,2.293-.027,2.293,2.213v4.478c.213.133.32-.027.427-.107a6.737,6.737,0,0,1,10.8,3.865c.133.453.08.96.4,1.359C533.368,220.075,533.368,221.488,533.368,222.874Zm-11.622-.853v3.119c0,2.559,0,2.612,2.559,2.8,2.079.16,3.812-.48,4.772-2.426a10.515,10.515,0,0,0,.427-8.184,3.185,3.185,0,0,0-2.426-2.159,5.855,5.855,0,0,0-4.638.906,1.278,1.278,0,0,0-.693,1.253C521.8,218.9,521.746,220.448,521.746,222.021Z" transform="translate(-364.908 -29.486)" fill="#8e939e"/>
    <path id="Path_1979" data-name="Path 1979" d="M79.1,231.5c5.945,0,11.916.027,17.86.027-.107.4-.213.826-.347,1.226q-4,12.236-7.97,24.445a4.262,4.262,0,0,0-.373,1.413c-.64.187-.427-.4-.48-.613-1.493-4.532-2.959-9.063-4.452-13.622q-2.039-6.2-4.052-12.4a.719.719,0,0,0-.187-.213Z" transform="translate(-42.566 -47.602)" fill="#e2452a"/>
    <path id="Path_1980" data-name="Path 1980" d="M256.449,222.328v5.331c0,.32.053.666-.373.826-3.972,1.333-7.944,1.893-11.889.053a8.38,8.38,0,0,1-4.4-4.612,15.93,15.93,0,0,1,.107-12.742c1.466-3.359,4.238-5.118,7.811-5.7a11.435,11.435,0,0,1,8.37,1.6c.746.48.986.853.427,1.679-.826,1.253-.773,1.28-2.079.586a9.177,9.177,0,0,0-9.73.693,6.954,6.954,0,0,0-2.186,3.439,13.855,13.855,0,0,0-.107,7.864c1.173,4.185,4.505,5.731,8.4,5.331,2.559-.24,2.559-.347,2.532-2.906,0-1.253-.053-2.506,0-3.759.027-.746-.16-1.04-.96-.986-1.28.08-2.586,0-3.865.027-.56.027-.72-.187-.72-.746-.027-2.213-.053-2.213,2.106-2.213,1.866,0,3.759.053,5.625-.027.8-.027.986.267.96.986-.053,1.733-.027,3.492-.027,5.225C256.422,222.328,256.422,222.328,256.449,222.328Z" transform="translate(-159.483 -28.38)" fill="#8e949e"/>
    <path id="Path_1981" data-name="Path 1981" d="M113.5,258.464a4.262,4.262,0,0,1,.373-1.413q4-12.236,7.97-24.445c.133-.4.24-.826.347-1.226.053-.027.133-.053.187-.08h.16c.293.32.693.16,1.04.187,3.705.027,7.411.027,11.116.027-.187.267-.373.56-.586.826q-4.8,6.118-9.57,12.236c-2.719,3.492-5.491,6.931-8.184,10.45a15.214,15.214,0,0,0-2.479,3.465h0a1.759,1.759,0,0,0-.373.027Z" transform="translate(-67.796 -47.456)" fill="#f36f2d"/>
    <path id="Path_1982" data-name="Path 1982" d="M45.069,231.427v.267a.719.719,0,0,0,.187.213q2.039,6.2,4.052,12.4c1.493,4.532,2.959,9.09,4.452,13.622.08.213-.133.8.48.613l.053.053c0,.08-.027.187-.027.293a.4.4,0,0,1-.56-.107,1.479,1.479,0,0,1-.213-.16v.027c.053-.32-.187-.48-.347-.693-3.385-4.318-6.744-8.637-10.13-12.955-2.506-3.2-5.012-6.371-7.491-9.57A32.486,32.486,0,0,1,32.7,231.64c3.652,0,7.3-.027,10.956-.027.347,0,.746.133,1.04-.187a1.093,1.093,0,0,0,.293-.027h.053Z" transform="translate(-8.535 -47.529)" fill="#f36f2d"/>
    <path id="Path_1983" data-name="Path 1983" d="M24.165,231.88a32.486,32.486,0,0,0,2.826,3.785q3.719,4.8,7.491,9.57c3.385,4.318,6.744,8.637,10.13,12.955.16.213.427.373.347.693-2.106-1.306-4.052-2.852-6.051-4.292-5.571-4-11.116-8.05-16.661-12.076-1.253-.906-1.413-1.439-.933-2.906.853-2.612,1.733-5.225,2.586-7.811C23.978,231.827,24.085,231.853,24.165,231.88Z" transform="translate(0 -47.822)" fill="#faa42a"/>
    <path id="Path_1984" data-name="Path 1984" d="M115,259a16.077,16.077,0,0,1,2.479-3.465c2.692-3.519,5.438-6.958,8.184-10.45q4.8-6.118,9.57-12.236c.213-.267.373-.56.586-.826a.52.52,0,0,0,.187-.027c1.066,2.719,1.866,5.545,2.746,8.317a1.992,1.992,0,0,1-1.04,2.319c-4.852,3.492-9.677,7.011-14.5,10.5l-7.517,5.438A1.272,1.272,0,0,1,115,259Z" transform="translate(-68.896 -47.969)" fill="#faa42a"/>
    <path id="Path_1985" data-name="Path 1985" d="M462.948,242.3c-1.839,2.719-5.6,3.039-7.891,2.106a5.652,5.652,0,0,1,1.413-10.5,16.263,16.263,0,0,1,5.2-.373c.693.027.96-.08.96-.853-.027-2.8-1.733-4.159-4.718-3.705a9.37,9.37,0,0,0-3.572,1.146c-.507.32-.72.16-.96-.32-.8-1.413-.8-1.413.56-2.239a10.408,10.408,0,0,1,7.171-1.36c2.879.453,4.532,2.372,4.612,5.438.08,4.079.027,8.13.053,12.209,0,.56-.213.64-.72.666-1.519.027-1.519.053-1.893-1.413A5.232,5.232,0,0,0,462.948,242.3Zm-.293-4.052V236.52c0-.293,0-.56-.4-.586a10.232,10.232,0,0,0-5.145.453,2.931,2.931,0,0,0-1.679,3.252,2.457,2.457,0,0,0,2.186,2.239,5.5,5.5,0,0,0,4.772-1.306c.586-.613.133-1.466.267-2.213Z" transform="translate(-316.107 -43.612)" fill="#8e949e"/>
    <path id="Path_1986" data-name="Path 1986" d="M147.06,183.845h-.16c1.12-3.545,2.266-7.091,3.385-10.61.586-1.866,1.2-3.705,1.813-5.571.187-.533.373-1.093,1.066-1.066.64.027.826.533.986,1.04,1.733,5.385,3.492,10.8,5.225,16.181C155.27,183.845,151.165,183.845,147.06,183.845Z" transform="translate(-92.293 0)" fill="#e2472b"/>
    <path id="Path_1987" data-name="Path 1987" d="M44.476,183.818a1.093,1.093,0,0,0-.293.027H32c.48-2.026,1.226-3.945,1.866-5.918,1.093-3.439,2.213-6.851,3.332-10.263.187-.56.373-1.093,1.066-1.066.64.027.826.533.986,1.04C40.957,173.048,42.716,178.433,44.476,183.818Z" transform="translate(-8.022)" fill="#e2472a"/>
    <path id="Path_1988" data-name="Path 1988" d="M401.226,217.134c0,3.066.027,6.131-.027,9.17-.027.933.267,1.12,1.146,1.093,2.559-.053,5.091,0,7.651-.027.72,0,.88.213.853.88-.027,2.053,0,2.053-2.079,2.053-3.226,0-6.451-.027-9.677.027-.773,0-1.066-.133-1.066-.986.027-7.331,0-14.688-.027-22.019,0-.453.133-.613.56-.586h.187c2.452-.08,2.452-.08,2.452,2.346.027,2.666.027,5.358.027,8.05Z" transform="translate(-276.457 -29.424)" fill="#8e949f"/>
    <path id="Path_1989" data-name="Path 1989" d="M352.727,216.143c0-2.879.027-5.758-.027-8.637,0-.666.133-.906.853-.906,2.266.027,2.266-.027,2.266,2.239,0,.826.053,1.653,0,2.479-.053.693.133.986.906.933,1.2-.08,2.4,0,3.6-.027.506,0,.693.133.693.666.053,1.919.08,1.919-1.813,1.919-.88,0-1.786.027-2.666,0-.507-.027-.693.133-.693.666.027,3.039,0,6.051.027,9.09a3.032,3.032,0,0,0,3.119,3.146h.267c.56.107,1.439-.32,1.626.16a6.335,6.335,0,0,1,.107,2.266c0,.293-.24.32-.453.347-3.732.533-7.7-.507-7.811-5.811-.027-2.852.027-5.7,0-8.53Z" transform="translate(-243.232 -29.34)" fill="#8e949e"/>
    <path id="Path_1990" data-name="Path 1990" d="M326.319,236.657c0,2.719-.027,5.438.027,8.157,0,.666-.133.906-.853.906-2.266,0-2.266.027-2.266-2.266,0-4.932.027-9.836-.027-14.768,0-.746.187-.986.96-.986,2.159.053,2.159,0,2.159,2.159Z" transform="translate(-221.596 -44.815)" fill="#8f95a0"/>
    <path id="Path_1991" data-name="Path 1991" d="M326.358,208.326c0,1.519,0,1.519-1.573,1.519-1.733,0-1.519.16-1.519-1.519,0-1.893-.267-1.653,1.653-1.653h.267c1.173,0,1.173,0,1.173,1.2Z" transform="translate(-221.635 -29.386)" fill="#8f959f"/>
    <path id="Path_1992" data-name="Path 1992" d="M147.5,231.227c4.105,0,8.21,0,12.316-.027,0,.053.027.133.027.187a.52.52,0,0,0-.187.027c-3.705,0-7.411,0-11.116-.027C148.193,231.413,147.793,231.547,147.5,231.227Z" transform="translate(-92.733 -47.382)" fill="#f5874f"/>
    <path id="Path_1993" data-name="Path 1993" d="M31.68,231.3H43.862c-.293.32-.693.187-1.04.187-3.652.027-7.3.027-10.956.027-.08-.027-.187-.053-.267-.08A.147.147,0,0,1,31.68,231.3Z" transform="translate(-7.728 -47.455)" fill="#ed7f53"/>
    <path id="Path_1994" data-name="Path 1994" d="M113.6,333.52c0-.107.027-.187.027-.293A1.759,1.759,0,0,0,114,333.2.451.451,0,0,1,113.6,333.52Z" transform="translate(-67.869 -122.192)" fill="#faa42a"/>
    <path id="Path_1995" data-name="Path 1995" d="M110.7,333.4a1.479,1.479,0,0,1,.213.16A.2.2,0,0,1,110.7,333.4Z" transform="translate(-65.742 -122.339)" fill="#faa42a"/>
    <path id="Path_1996" data-name="Path 1996" d="M79.187,232.813A.719.719,0,0,0,79,232.6.719.719,0,0,1,79.187,232.813Z" transform="translate(-42.493 -48.409)" fill="#ed7f53"/>
  </g>
</svg>
