<svg xmlns="http://www.w3.org/2000/svg" width="146.029" height="33.029" viewBox="0 0 146.029 33.029">
  <g id="Google_AI" data-name="Google AI" transform="translate(-68.8 -101.8)">
    <path id="Path_2192" data-name="Path 2192" d="M205.767,131.365c1.357,0,2.713.032,4.038,0,.5,0,.662.189.694.631.631,6.972-4.574,11.136-10.757,10.316a10.1,10.1,0,0,1-8.9-8.991,10.244,10.244,0,0,1,8.612-11.073,9.947,9.947,0,0,1,8.107,2.24c.347.315.5.536.063.852l-.126.126c-.442.41-.789,1.041-1.293,1.2-.568.189-.978-.568-1.483-.82a7.056,7.056,0,0,0-7.855.442,7.36,7.36,0,1,0,9.212,11.451,5.448,5.448,0,0,0,1.546-2.9c.126-.5,0-.694-.568-.694-1.7.032-3.375,0-5.079.032-.6,0-.852-.095-.852-.789.032-1.987,0-1.987,2.019-1.987C204,131.365,204.884,131.365,205.767,131.365Z" transform="translate(-83.495 -13.918)" fill="#62646a"/>
    <path id="Path_2193" data-name="Path 2193" d="M357.191,156.707a5.625,5.625,0,0,1-8.013-.631,6.666,6.666,0,0,1,0-8.928,5.644,5.644,0,0,1,7.918-.789c.347-.189-.126-.852.379-.883a14.036,14.036,0,0,1,2.3.032c.221.032.158.347.158.5,0,4.006.063,8.013-.032,12.019a5.7,5.7,0,0,1-4.322,5.71,6.459,6.459,0,0,1-7.287-2.9c-.347-.568-.315-.883.347-1.041.063,0,.095-.032.158-.063a5.345,5.345,0,0,1,1.42-.568c.568-.032.6.726.946,1.073a3.528,3.528,0,0,0,3.88.915,3.059,3.059,0,0,0,2.114-2.934A7.782,7.782,0,0,0,357.191,156.707Zm.252-5.047c0-2.366-1.672-4.164-3.723-4.006a3.9,3.9,0,0,0-3.407,4.227,3.728,3.728,0,0,0,3.754,3.691A3.662,3.662,0,0,0,357.443,151.659Z" transform="translate(-190.754 -29.638)" fill="#62656b"/>
    <path id="Path_2194" data-name="Path 2194" d="M473.536,126.907c1.861.063,1.451-.284,2.051,1.293,2.051,5.394,4.07,10.789,6.152,16.183.252.631.315.946-.568.915-1.735-.063-1.735,0-2.3-1.609-.347-.946-.694-1.893-1.01-2.839-.126-.442-.347-.568-.82-.568q-3.265.047-6.53,0a.706.706,0,0,0-.789.568c-.442,1.262-.946,2.524-1.356,3.786-.158.5-.41.631-.915.631-1.956,0-1.956,0-1.262-1.83l5.773-15.332C472.274,127.286,472.589,126.56,473.536,126.907ZM470.7,138.169h5.584c.5,0,.473-.221.347-.568-.536-1.451-1.041-2.9-1.577-4.353-.41-1.136-.82-2.24-1.293-3.533C472.684,132.617,471.706,135.33,470.7,138.169Z" transform="translate(-271.735 -17.126)" fill="#62646a"/>
    <path id="Path_2195" data-name="Path 2195" d="M269.791,151.53a6.546,6.546,0,0,1-13.092.063A6.485,6.485,0,0,1,263.261,145,6.406,6.406,0,0,1,269.791,151.53Zm-10.19,0a3.708,3.708,0,0,0,3.628,3.943,3.816,3.816,0,0,0,3.754-3.975,3.863,3.863,0,0,0-3.722-3.943A3.761,3.761,0,0,0,259.6,151.53Z" transform="translate(-128.623 -29.572)" fill="#62656b"/>
    <path id="Path_2196" data-name="Path 2196" d="M315.11,151.71a6.565,6.565,0,1,1-6.341-6.719A6.477,6.477,0,0,1,315.11,151.71Zm-6.593,3.754a3.792,3.792,0,0,0,3.754-3.88,3.865,3.865,0,0,0-3.723-4.038,3.973,3.973,0,0,0-.031,7.918Z" transform="translate(-159.62 -29.563)" fill="#62646a"/>
    <path id="Path_2197" data-name="Path 2197" d="M413.326,158.088a6.367,6.367,0,0,1-6.467-6.152,6.233,6.233,0,0,1,5.458-6.846c3.218-.41,5.489,1.735,6.467,4.543.158.5-.315.473-.536.568-2.429,1.009-4.858,2.051-7.287,3-.789.315-.726.568-.284,1.1a3.559,3.559,0,0,0,5.363,0c.473-.536.757-.536,1.23-.126a3.3,3.3,0,0,0,.347.252c1.325.883,1.325.883.158,1.956A6.325,6.325,0,0,1,413.326,158.088Zm-3.6-6.719c1.7-.726,3.344-1.388,4.984-2.082.284-.126.757-.126.757-.442.032-.347-.347-.631-.694-.82a3.008,3.008,0,0,0-3.312.032A3.622,3.622,0,0,0,409.73,151.368Z" transform="translate(-231.4 -29.599)" fill="#62656b"/>
    <path id="Path_2198" data-name="Path 2198" d="M396.339,134.279v8.675c0,.568-.126.789-.757.789-2.082,0-2.082.032-2.082-2.082V125.415c0-.6.095-.852.789-.82,2.051.032,2.051,0,2.051,2.051Z" transform="translate(-222.268 -15.602)" fill="#606369"/>
    <path id="Path_2199" data-name="Path 2199" d="M526.5,136.338c0,2.776-.032,5.552,0,8.328,0,.6-.158.789-.757.757-1.64-.032-1.64,0-1.64-1.609V127.82c0-.631.158-.82.82-.82,1.577.032,1.577,0,1.577,1.546C526.5,131.2,526.5,133.783,526.5,136.338Z" transform="translate(-311.668 -17.25)" fill="#63666b"/>
    <path id="Path_2200" data-name="Path 2200" d="M144.2,148.375a2.741,2.741,0,0,1,2.681-2.776,2.782,2.782,0,0,1,2.745,2.713,2.7,2.7,0,0,1-2.745,2.713A2.672,2.672,0,0,1,144.2,148.375Z" transform="translate(-51.614 -29.981)" fill="#577fc0"/>
    <path id="Path_2201" data-name="Path 2201" d="M144.2,125.181a2.713,2.713,0,1,1,2.681,2.745A2.655,2.655,0,0,1,144.2,125.181Z" transform="translate(-51.613 -14.17)" fill="#577fc0"/>
    <path id="Path_2202" data-name="Path 2202" d="M146.88,174.194a2.61,2.61,0,0,1-2.681-2.713,2.7,2.7,0,1,1,2.681,2.713Z" transform="translate(-51.612 -45.864)" fill="#577fc0"/>
    <path id="Path_2203" data-name="Path 2203" d="M130.3,183.828A2.351,2.351,0,1,1,128,181.4,2.384,2.384,0,0,1,130.3,183.828Z" transform="translate(-38.88 -54.487)" fill="#38a953"/>
    <path id="Path_2204" data-name="Path 2204" d="M125.6,114.365A2.31,2.31,0,0,1,127.9,112a2.357,2.357,0,0,1,2.4,2.4,2.317,2.317,0,0,1-2.366,2.334A2.377,2.377,0,0,1,125.6,114.365Z" transform="translate(-38.882 -6.981)" fill="#38a953"/>
    <path id="Path_2205" data-name="Path 2205" d="M130.3,160.927a2.291,2.291,0,0,1-2.4,2.271,2.352,2.352,0,1,1,2.4-2.271Z" transform="translate(-38.88 -38.811)" fill="#38a953"/>
    <path id="Path_2206" data-name="Path 2206" d="M127.934,139.7a2.29,2.29,0,0,1-2.334-2.334,2.35,2.35,0,1,1,2.334,2.334Z" transform="translate(-38.882 -22.727)" fill="#38a953"/>
    <path id="Path_2207" data-name="Path 2207" d="M107,149.686a2.012,2.012,0,0,1,2.051-1.987,2.054,2.054,0,0,1,1.987,2.051,2.019,2.019,0,1,1-4.038-.063Z" transform="translate(-26.147 -31.418)" fill="#f8bd1d"/>
    <path id="Path_2208" data-name="Path 2208" d="M110.938,172.749a2.019,2.019,0,1,1-4.038-.063,2.033,2.033,0,0,1,2.051-1.987A2.012,2.012,0,0,1,110.938,172.749Z" transform="translate(-26.081 -47.163)" fill="#f8bc1c"/>
    <path id="Path_2209" data-name="Path 2209" d="M110.938,126.78a2.033,2.033,0,0,1-2.051,1.987,2.054,2.054,0,0,1-1.987-2.051,1.989,1.989,0,0,1,2.082-2.019A2.013,2.013,0,0,1,110.938,126.78Z" transform="translate(-26.081 -15.674)" fill="#f8bc1c"/>
    <path id="Path_2210" data-name="Path 2210" d="M108.987,101.8a1.923,1.923,0,0,1,2.019,1.956,1.989,1.989,0,0,1-2.019,2.082,2.019,2.019,0,0,1,0-4.038Z" transform="translate(-26.149)" fill="#f8bc1b"/>
    <path id="Path_2211" data-name="Path 2211" d="M109.087,197.736a1.941,1.941,0,0,1-1.987-1.987,2,2,0,1,1,4.006,0A1.967,1.967,0,0,1,109.087,197.736Z" transform="translate(-26.218 -62.907)" fill="#f8bc1b"/>
    <path id="Path_2212" data-name="Path 2212" d="M89.67,163.839A1.685,1.685,0,0,1,88,162.072a1.732,1.732,0,0,1,1.7-1.672,1.75,1.75,0,0,1,1.735,1.735A1.731,1.731,0,0,1,89.67,163.839Z" transform="translate(-13.141 -40.114)" fill="#ea4838"/>
    <path id="Path_2213" data-name="Path 2213" d="M89.67,140.53a1.732,1.732,0,0,1-1.672-1.8,1.667,1.667,0,0,1,1.8-1.64,1.711,1.711,0,0,1,1.64,1.735A1.73,1.73,0,0,1,89.67,140.53Z" transform="translate(-13.141 -24.156)" fill="#ea4838"/>
    <path id="Path_2214" data-name="Path 2214" d="M89.667,186.67a1.692,1.692,0,0,1-1.767-1.7,1.736,1.736,0,0,1,3.47-.095A1.737,1.737,0,0,1,89.667,186.67Z" transform="translate(-13.075 -55.721)" fill="#ea4838"/>
    <path id="Path_2215" data-name="Path 2215" d="M89.67,114.1a1.711,1.711,0,0,1,1.767,1.7,1.75,1.75,0,0,1-1.735,1.735,1.732,1.732,0,0,1-1.7-1.672A1.7,1.7,0,0,1,89.67,114.1Z" transform="translate(-13.141 -8.418)" fill="#ea4838"/>
    <path id="Path_2216" data-name="Path 2216" d="M71.8,174.18a1.484,1.484,0,0,1-1.451,1.42,1.452,1.452,0,1,1,.063-2.9A1.531,1.531,0,0,1,71.8,174.18Z" transform="translate(-0.066 -48.531)" fill="#5980c1"/>
    <path id="Path_2217" data-name="Path 2217" d="M71.734,127.849a1.467,1.467,0,0,1-2.934,0,1.435,1.435,0,0,1,1.388-1.451A1.509,1.509,0,0,1,71.734,127.849Z" transform="translate(0 -16.837)" fill="#5980c1"/>
    <path id="Path_2218" data-name="Path 2218" d="M71.8,151.049a1.483,1.483,0,0,1-1.42,1.451,1.435,1.435,0,0,1-1.483-1.451,1.451,1.451,0,1,1,2.9,0Z" transform="translate(-0.068 -32.718)" fill="#5980c1"/>
  </g>
</svg>
