<svg xmlns="http://www.w3.org/2000/svg" width="147.922" height="63.363" viewBox="0 0 147.922 63.363">
  <g id="Group_211" data-name="Group 211" transform="translate(-1079.046 -5036.501)">
    <g id="Group_210" data-name="Group 210" transform="translate(1079.546 5037.001)">
      <path id="Path_1596" data-name="Path 1596" d="M268.2,186.186V161.412a4.172,4.172,0,0,1,4.517-4.517h4.448a.743.743,0,0,0,.821-.479A3.049,3.049,0,0,1,281,154.5h15.261a3.11,3.11,0,0,1,3.011,1.916.69.69,0,0,0,.753.479h4.722A4.066,4.066,0,0,1,308.988,161c.069,6.159,0,12.318,0,18.478,0,.616-.205,1.1-.89,1.1s-.89-.479-.89-1.1V161.617c0-2.053-.821-2.874-2.874-2.874H300.16c-.479,0-.684.068-.684.616.068,1.027,0,2.053,0,3.148a2.578,2.578,0,0,1-2.806,2.874H280.519a2.568,2.568,0,0,1-2.874-2.874V159.5c0-.479-.068-.684-.616-.684h-4.654a2.3,2.3,0,0,0-2.4,2.4V210.96c0,1.916.89,2.806,2.806,2.806H300.57a.929.929,0,0,1,1.027.821c0,.616-.411.89-1.027.958H272.785a4.21,4.21,0,0,1-4.585-4.585V186.186Zm28.2-29.906c-.205-.274-.411-.274-.684,0-.547,0-1.026.068-1.574.068-4.243,0-8.486,0-12.729-.068-.068-.137-.137-.137-.137,0-1.437.137-1.848.547-1.848,1.985v4.106c0,.753.205,1.095,1.027,1.095h16.219c.821,0,1.027-.342,1.027-1.095V158.2C297.7,157.032,297.491,156.69,296.4,156.279Z" transform="translate(-268.2 -154.5)" stroke="#000" stroke-width="1"/>
      <path id="Path_1597" data-name="Path 1597" d="M299.157,209.351h-3.285c-.684-.479.684-.479,0,0-1.437,0-4.859.068-6.365-.068-.89-.068-1.848.068-2.806.068h-5.543a.881.881,0,0,1-.958-.89c0-.616.274-.616.821-.616a24.158,24.158,0,0,1,3.148,0c.068.205-.205,0,0,0h5.612c.205,0,.713.205.782,0h-3.5l3.821.2c.137.274.269-.2.474-.2h8.828c.205,0,.479.068.616-.274a3.6,3.6,0,0,1,2.806-1.027c.205,0,.479.068.548-.205.137-.274-.069-.411-.274-.547a3.123,3.123,0,0,1-1.232-2.669c0-.342-.137-.411-.411-.411H281.021a.774.774,0,0,1-.753-.821.886.886,0,0,1,.684-.89,2.759,2.759,0,0,1,.753,0h21.078a1.661,1.661,0,0,0,1.437-.616c.684-.753,1.437-1.506,2.19-2.19a3.2,3.2,0,0,1,4.79,0c.205.205.342.684.753.479.342-.137.205-.547.205-.821a3.18,3.18,0,0,1,3.422-3.353h3.832a3.18,3.18,0,0,1,3.353,3.285v.547c.068.411.274.479.547.274.068,0,.068-.068.137-.137,2.4-1.848,3.422-1.779,5.612.342.684.684,1.369,1.369,2.053,2.122a3.2,3.2,0,0,1,0,4.791c-.205.205-.616.342-.411.753.137.342.547.137.821.137a3.235,3.235,0,0,1,3.353,3.353V213.8a3.126,3.126,0,0,1-3.353,3.353h-.274c-.205,0-.547-.068-.684.205s.137.411.274.616a3.148,3.148,0,0,1,1.163,2.121,2.963,2.963,0,0,1-.821,2.6c-1.027,1.026-1.985,2.053-3.011,3.011a3.222,3.222,0,0,1-4.517,0l-.274-.274c-.205-.137-.342-.411-.616-.274s-.205.411-.137.616a3.442,3.442,0,0,1-1.779,3.285.519.519,0,0,1-.274.137,14.51,14.51,0,0,1-6.638-.137c-1.369-.411-1.848-1.642-1.916-3.08,0-.274.137-.684-.205-.821s-.547.205-.684.411a3.205,3.205,0,0,1-4.927-.068l-2.6-2.6a3.228,3.228,0,0,1,0-4.722c.205-.205.616-.342.479-.753-.137-.342-.547-.205-.821-.205a3.145,3.145,0,0,1-3.353-3.422c0-1.369-.069-2.737.068-4.106.274-.137.342-.411.137-.547C299.841,209.008,299.431,208.8,299.157,209.351Zm34.013,2.532h0V209.9a1.369,1.369,0,0,0-1.506-1.506h-1.3a1.024,1.024,0,0,1-1.027-.684c-.821-2.121-1.095-1.642.547-3.285l.205-.205a1.272,1.272,0,0,0-.068-1.916c-.958-1.027-1.916-1.985-2.943-2.943a1.3,1.3,0,0,0-1.985,0l-1.027,1.027a.947.947,0,0,1-1.163.205c-2.122-.958-1.916-.411-1.916-2.737v-.411a1.283,1.283,0,0,0-1.3-1.232h-4.243a1.313,1.313,0,0,0-1.369,1.437v1.506a.917.917,0,0,1-.548.89c-2.19.821-1.711,1.163-3.353-.479l-.137-.137a1.425,1.425,0,0,0-2.19,0c-.89.89-1.779,1.711-2.6,2.6-.89.958-.958,1.643.069,2.464,1.026.89,1.3,1.711.547,2.874,0,.068-.068.068-.068.137a1.031,1.031,0,0,1-1.232.821h-.89c-1.3,0-1.779.479-1.848,1.779,0,1.232,0,2.532.068,3.764a1.42,1.42,0,0,0,1.437,1.506,11.037,11.037,0,0,0,1.506,0,.928.928,0,0,1,.89.479c.958,1.711.958,1.985-.411,3.353l-.205.205a1.4,1.4,0,0,0,0,2.121c.958.958,1.916,1.985,2.874,2.874a1.4,1.4,0,0,0,1.985,0,3.244,3.244,0,0,0,.684-.684c.547-.684,1.1-.684,1.916-.411,1.163.411,1.711,1.026,1.506,2.258v.411c.068.958.548,1.506,1.506,1.506h2.6c2.19.068,3.011.137,2.874-2.737a1.057,1.057,0,0,1,.616-1.1c2.121-.753,1.711-1.163,3.285.479l.205.205a1.4,1.4,0,0,0,2.122,0c.958-.89,1.848-1.848,2.806-2.806a1.452,1.452,0,0,0,0-2.258l-.616-.616c-.616-.479-.616-1.027-.342-1.779a1.937,1.937,0,0,1,2.4-1.574h.342a1.421,1.421,0,0,0,1.505-1.574A5.287,5.287,0,0,1,333.169,211.883Z" transform="translate(-271.988 -167.126)" stroke="#000" stroke-width="1"/>
      <path id="Path_1598" data-name="Path 1598" d="M281.216,196.079c-.616,0-.89-.342-.821-.958s.479-.821,1.027-.821h22.173c.958,0,1.369.274,1.369.89s-.547.958-1.506.821c-.137-.342.342,0,.137,0-6.98,0-14.616.068-21.6.068C281.793,196.148,281.353,195.737,281.216,196.079Z" transform="translate(-272.047 -167.062)" stroke="#000" stroke-width="1"/>
      <path id="Path_1656" data-name="Path 1656" d="M281.216,196.079c-.616,0-.89-.342-.821-.958s.479-.821,1.027-.821h22.173c.958,0,1.369.274,1.369.89s-.547.958-1.506.821c-.137-.342.342,0,.137,0-6.98,0-14.616.068-21.6.068C281.793,196.148,281.353,195.737,281.216,196.079Z" transform="translate(-272.047 -173.564)" stroke="#000" stroke-width="1"/>
      <path id="Path_1613" data-name="Path 1613" d="M281.6,196.793c.137-.342.479-.205.684-.205h20.873c.274,0,.548-.137.685.205-.137,0-.342.068-.479.068H282.079C281.942,196.861,281.737,196.793,281.6,196.793Z" transform="translate(-272.431 -167.776)"/>
      <path id="Path_1614" data-name="Path 1614" d="M280.7,186.8a8.365,8.365,0,0,0,2.258.137h19.915c.342,0,.684-.137.89.205H281.795C281.384,187.142,280.974,187.279,280.7,186.8Z" transform="translate(-272.147 -164.695)"/>
      <path id="Path_1615" data-name="Path 1615" d="M305.692,213.7c-.068.342-.342.274-.616.274h-8.828c-.205,0-.479.068-.547-.205,2.4-.068,4.79-.068,7.254,0h.137C303.981,213.7,304.8,213.7,305.692,213.7Z" transform="translate(-276.881 -173.186)"/>
      <path id="Path_1616" data-name="Path 1616" d="M291.97,213.764c-.068.205-.274.205-.479.205h-5.612c-.205,0-.411,0-.479-.205C287.59,213.7,289.78,213.627,291.97,213.764Z" transform="translate(-273.63 -173.181)"/>
      <path id="Path_1617" data-name="Path 1617" d="M300.3,216.034a1.55,1.55,0,0,1,1.985,0Z" transform="translate(-278.333 -173.809)"/>
      <path id="Path_1618" data-name="Path 1618" d="M307.9,216.034c.205-.548.684-.342,1.027-.205.205.137.205.411-.137.547C308.653,215.829,308.242,216.171,307.9,216.034Z" transform="translate(-280.732 -173.809)"/>
      <path id="Path_1619" data-name="Path 1619" d="M314.679,184.8c-.137.137-.342.479-.479,0Z" transform="translate(-282.72 -164.064)"/>
      <path id="Path_1620" data-name="Path 1620" d="M281.537,184.8c-.068.137-.068.137-.137,0Z" transform="translate(-272.366 -164.064)"/>
      <path id="Path_1621" data-name="Path 1621" d="M306.437,213.768H306.3l.068-.068Z" transform="translate(-280.227 -173.186)"/>
      <path id="Path_1622" data-name="Path 1622" d="M309.084,157.005H308.4A.388.388,0,0,1,309.084,157.005Z" transform="translate(-280.888 -155.226)"/>
      <path id="Path_1623" data-name="Path 1623" d="M287.537,157.053H287.4C287.4,156.916,287.468,156.916,287.537,157.053Z" transform="translate(-274.26 -155.273)"/>
      <path id="Path_1624" data-name="Path 1624" d="M339.457,216.038c.205,3.285-2.464,6.98-5.817,8.212a9.008,9.008,0,1,1,5.817-8.828c-.274.068-.616.205-1.027.342A10.609,10.609,0,0,1,339.457,216.038Zm-12.25-6.707h0c-.137,0-.274,0-.342.205a7.629,7.629,0,0,0-3.422,5,7.181,7.181,0,1,0,5.2-5.749c-.479-.137-1.027-.342-1.232.479h-.068C327.275,209.194,327.207,209.263,327.207,209.331Zm11.36,4.654c0,.068-.068.068-.068.137h.068c.068,0,.068-.068.137-.068-.068,0-.068-.068-.205.068l-.068.068h0C338.43,214.122,338.5,214.053,338.567,213.985Zm-.342,1.437c0-.274.205-.616-.274-1.095C338.019,214.806,337.883,215.148,338.225,215.422Z" transform="translate(-285.051 -171.007)" stroke="#000" stroke-width="1"/>
      <path id="Path_1625" data-name="Path 1625" d="M347.227,219.984c-.274-.068-.616-.205-1.027-.342a8.966,8.966,0,0,0,1.027-.342Z" transform="translate(-292.821 -174.953)"/>
      <path id="Path_1626" data-name="Path 1626" d="M331.332,209.641a9.131,9.131,0,0,0-1.232.479C330.305,209.3,330.784,209.5,331.332,209.641Z" transform="translate(-287.739 -171.864)"/>
      <path id="Path_1627" data-name="Path 1627" d="M345.774,218.895c-.342-.274-.205-.616-.274-1.095C345.979,218.279,345.774,218.553,345.774,218.895Z" transform="translate(-292.6 -174.48)"/>
      <path id="Path_1628" data-name="Path 1628" d="M346.368,217.3c.068,0,.068.068.137.068-.068,0-.068.068-.137.068H346.3A.239.239,0,0,1,346.368,217.3Z" transform="translate(-292.853 -174.322)"/>
      <path id="Path_1629" data-name="Path 1629" d="M329.642,210.5c-.137.068-.205.137-.342.205C329.368,210.5,329.505,210.5,329.642,210.5Z" transform="translate(-287.487 -172.176)"/>
      <path id="Path_1630" data-name="Path 1630" d="M346.268,217.4l-.068.068h0Z" transform="translate(-292.821 -174.354)"/>
      <path id="Path_1631" data-name="Path 1631" d="M330.005,210.3c-.068.068-.137.068-.205.137C329.8,210.368,329.868,210.3,330.005,210.3Z" transform="translate(-287.644 -172.113)"/>
    </g>
    <path id="Path_2378" data-name="Path 2378" d="M5.573-2a1.025,1.025,0,0,0-.361-.819A3.651,3.651,0,0,0,3.948-3.4a7.2,7.2,0,0,1-2.383-1.08,2.045,2.045,0,0,1-.807-1.71,2.119,2.119,0,0,1,.925-1.774,3.851,3.851,0,0,1,2.362-.688,3.55,3.55,0,0,1,2.371.773A2.315,2.315,0,0,1,7.3-5.974l-.012.036H5.573a1.288,1.288,0,0,0-.409-.992,1.628,1.628,0,0,0-1.149-.379,1.7,1.7,0,0,0-1.1.315.994.994,0,0,0-.388.807.866.866,0,0,0,.415.737,5.746,5.746,0,0,0,1.434.61A5.567,5.567,0,0,1,6.592-3.766a2.23,2.23,0,0,1,.752,1.753A2.1,2.1,0,0,1,6.45-.224,3.907,3.907,0,0,1,4.087.431,4.312,4.312,0,0,1,1.571-.312,2.32,2.32,0,0,1,.527-2.4L.54-2.432H2.262a1.359,1.359,0,0,0,.482,1.155A2.174,2.174,0,0,0,4.087-.91a1.768,1.768,0,0,0,1.1-.3A.955.955,0,0,0,5.573-2Zm4.609-4.257.073.867a2.2,2.2,0,0,1,.791-.731,2.276,2.276,0,0,1,1.1-.258,2,2,0,0,1,1.08.279,1.721,1.721,0,0,1,.679.843,2.274,2.274,0,0,1,.788-.825,2.139,2.139,0,0,1,1.14-.3,1.891,1.891,0,0,1,1.531.67,3.128,3.128,0,0,1,.561,2.041V.3H16.156V-3.684a1.666,1.666,0,0,0-.243-1.039.885.885,0,0,0-.722-.292,1.234,1.234,0,0,0-.652.167,1.217,1.217,0,0,0-.44.465q0,.116.006.2t.006.167V.3H12.348V-3.684a1.671,1.671,0,0,0-.243-1.03.879.879,0,0,0-.728-.3,1.371,1.371,0,0,0-.628.137,1.2,1.2,0,0,0-.446.386V.3H8.539V-6.259ZM23.137.3A3.725,3.725,0,0,1,22.97-.17a3.291,3.291,0,0,1-.1-.509,2.441,2.441,0,0,1-.719.794,1.8,1.8,0,0,1-1.064.315A2.216,2.216,0,0,1,19.5-.1a1.9,1.9,0,0,1-.558-1.446,1.73,1.73,0,0,1,.743-1.495,3.71,3.71,0,0,1,2.168-.531h.989v-.522a1.021,1.021,0,0,0-.249-.734.967.967,0,0,0-.734-.261.962.962,0,0,0-.664.209.738.738,0,0,0-.233.579l-1.71-.006-.006-.036a1.666,1.666,0,0,1,.722-1.434,3.145,3.145,0,0,1,2.007-.6,2.93,2.93,0,0,1,1.91.6,2.068,2.068,0,0,1,.734,1.7V-1.37a5.127,5.127,0,0,0,.07.867A4.352,4.352,0,0,0,24.908.3ZM21.518-.879a1.52,1.52,0,0,0,.831-.23,1.2,1.2,0,0,0,.491-.534v-.928h-.989A1.182,1.182,0,0,0,21-2.289a.915.915,0,0,0-.291.682.682.682,0,0,0,.218.528A.846.846,0,0,0,21.518-.879Zm7.89-3.857-.649-.018a1.18,1.18,0,0,0-.649.164,1.038,1.038,0,0,0-.388.461V.3H25.957V-6.259H27.6l.079.97a2.07,2.07,0,0,1,.6-.8,1.332,1.332,0,0,1,.846-.288,1.324,1.324,0,0,1,.246.021q.112.021.227.052Zm3.166-3.129v1.607h1.1v1.243h-1.1v3.342a.772.772,0,0,0,.158.546.562.562,0,0,0,.425.164,1.627,1.627,0,0,0,.24-.015,2.1,2.1,0,0,0,.233-.052l.152,1.28a3.554,3.554,0,0,1-.522.136,3.143,3.143,0,0,1-.552.045,1.887,1.887,0,0,1-1.41-.5,2.207,2.207,0,0,1-.494-1.6V-5.015h-.958V-6.259H30.8V-7.866ZM44.709-2.7l.012.036a2.877,2.877,0,0,1-.87,2.262,3.493,3.493,0,0,1-2.484.837,3.447,3.447,0,0,1-2.59-1.025,3.63,3.63,0,0,1-.995-2.638V-4.985a3.7,3.7,0,0,1,.97-2.638,3.307,3.307,0,0,1,2.523-1.031,3.66,3.66,0,0,1,2.559.84,2.873,2.873,0,0,1,.9,2.289l-.012.036H43a1.931,1.931,0,0,0-.418-1.337,1.672,1.672,0,0,0-1.3-.464,1.478,1.478,0,0,0-1.261.645A2.736,2.736,0,0,0,39.548-5v1.763a2.66,2.66,0,0,0,.491,1.657,1.582,1.582,0,0,0,1.328.645A1.563,1.563,0,0,0,42.6-1.38a1.937,1.937,0,0,0,.4-1.325Zm.855-.334a3.522,3.522,0,0,1,.819-2.4,2.854,2.854,0,0,1,2.268-.937,2.884,2.884,0,0,1,2.28.934,3.5,3.5,0,0,1,.825,2.408v.127A3.508,3.508,0,0,1,50.935-.5a2.872,2.872,0,0,1-2.271.931A2.88,2.88,0,0,1,46.386-.5a3.508,3.508,0,0,1-.822-2.411Zm1.765.124a2.847,2.847,0,0,0,.315,1.438,1.089,1.089,0,0,0,1.019.542,1.078,1.078,0,0,0,1-.545,2.828,2.828,0,0,0,.318-1.435v-.127a2.8,2.8,0,0,0-.321-1.423,1.088,1.088,0,0,0-1.013-.551,1.075,1.075,0,0,0-1,.554,2.825,2.825,0,0,0-.318,1.42Zm7.138-3.345.079.94a2.4,2.4,0,0,1,.807-.782,2.094,2.094,0,0,1,1.073-.279,1.974,1.974,0,0,1,1.553.625A2.884,2.884,0,0,1,58.537-3.8V.3H56.76V-3.8a1.332,1.332,0,0,0-.267-.939,1.073,1.073,0,0,0-.807-.277,1.364,1.364,0,0,0-.631.143,1.3,1.3,0,0,0-.467.4V.3H52.818V-6.259Zm7.5-1.607v1.607h1.1v1.243h-1.1v3.342a.772.772,0,0,0,.158.546.562.562,0,0,0,.425.164,1.627,1.627,0,0,0,.24-.015,2.1,2.1,0,0,0,.233-.052l.152,1.28a3.554,3.554,0,0,1-.522.136A3.143,3.143,0,0,1,62.1.431a1.887,1.887,0,0,1-1.41-.5,2.207,2.207,0,0,1-.494-1.6V-5.015h-.958V-6.259h.958V-7.866ZM68.047.3A3.725,3.725,0,0,1,67.88-.17a3.29,3.29,0,0,1-.1-.509,2.441,2.441,0,0,1-.719.794A1.8,1.8,0,0,1,66,.431,2.216,2.216,0,0,1,64.408-.1a1.9,1.9,0,0,1-.558-1.446,1.73,1.73,0,0,1,.743-1.495,3.71,3.71,0,0,1,2.168-.531h.989v-.522a1.021,1.021,0,0,0-.249-.734.967.967,0,0,0-.734-.261.962.962,0,0,0-.664.209.738.738,0,0,0-.233.579l-1.71-.006-.006-.036a1.666,1.666,0,0,1,.722-1.434,3.145,3.145,0,0,1,2.007-.6,2.93,2.93,0,0,1,1.91.6,2.068,2.068,0,0,1,.734,1.7V-1.37A5.127,5.127,0,0,0,69.6-.5,4.352,4.352,0,0,0,69.818.3ZM66.427-.879a1.52,1.52,0,0,0,.831-.23,1.2,1.2,0,0,0,.491-.534v-.928h-.989a1.182,1.182,0,0,0-.855.282.915.915,0,0,0-.291.682.682.682,0,0,0,.218.528A.846.846,0,0,0,66.427-.879ZM73.62-.934a1.047,1.047,0,0,0,.758-.274.969.969,0,0,0,.285-.732H76.27l.018.036A2.044,2.044,0,0,1,75.54-.239a2.827,2.827,0,0,1-1.92.67A2.815,2.815,0,0,1,71.358-.5a3.536,3.536,0,0,1-.794-2.383v-.182a3.559,3.559,0,0,1,.791-2.383,2.8,2.8,0,0,1,2.259-.934,2.756,2.756,0,0,1,1.956.691,2.3,2.3,0,0,1,.719,1.819l-.012.036H74.663a1.281,1.281,0,0,0-.279-.846.946.946,0,0,0-.77-.337,1.028,1.028,0,0,0-.992.545,3,3,0,0,0-.288,1.4v.182a2.987,2.987,0,0,0,.288,1.414A1.037,1.037,0,0,0,73.62-.934ZM79.4-7.866v1.607h1.1v1.243H79.4v3.342a.772.772,0,0,0,.158.546.562.562,0,0,0,.425.164,1.627,1.627,0,0,0,.24-.015,2.1,2.1,0,0,0,.233-.052l.152,1.28a3.554,3.554,0,0,1-.522.136,3.143,3.143,0,0,1-.552.045,1.887,1.887,0,0,1-1.41-.5,2.207,2.207,0,0,1-.494-1.6V-5.015h-.958V-6.259h.958V-7.866Z" transform="translate(1146.361 5071.573)"/>
  </g>
</svg>
