<svg xmlns="http://www.w3.org/2000/svg" width="121.262" height="40.323" viewBox="0 0 121.262 40.323">
  <g id="html" transform="translate(-18.3 -101.8)">
    <path id="Path_1339" data-name="Path 1339" d="M232.7,101.8h17.285c.479,0,.61.087.566.566-.348,3.657-.653,7.314-1,10.972-.348,4.006-.74,8.011-1.088,11.973-.261,3.135-.566,6.226-.827,9.361-.087,1-.174,1.959-.261,2.961-.044.392-.218.522-.566.653l-13.715,3.788a1.771,1.771,0,0,1-.827,0c-4.572-1.263-9.1-2.525-13.671-3.788a.7.7,0,0,1-.566-.7c-.3-3.657-.653-7.271-.958-10.928-.261-3.135-.566-6.269-.827-9.4-.3-3.614-.653-7.227-.958-10.8-.131-1.35-.218-2.743-.392-4.093-.044-.479.087-.566.566-.566Zm0,28.039-4.441-1.176c-.435-.087-.566-.3-.61-.74-.044-.871-.174-1.7-.218-2.569,0-.348-.131-.435-.479-.435-1.219,0-2.395.044-3.614,0-.435,0-.479.174-.435.522.174,1.959.392,3.918.522,5.878a.727.727,0,0,0,.653.784c2.874.784,5.747,1.567,8.621,2.395v4.18c0,.3,0,.435.392.348,3.44-.958,6.879-1.959,10.319-2.874.827-.218,1.176-.479,1.176-1.393,0-1.524.261-3.048.392-4.572l.261-3c.131-1.48.3-2.961.435-4.441.087-1,.131-2.046.261-3.048.131-1.437.3-2.83.435-4.267.131-1.48.218-2.961.348-4.441.174-1.872.348-3.744.566-5.616.044-.392-.087-.566-.522-.566h-13.54c-.392,0-.522.131-.522.522v3.962c-.218,0-.435.044-.653.044h-9.97c-.479,0-.566.131-.522.566.087.522.087,1.045.131,1.567.3,3.57.653,7.184.958,10.754.044.522.218.61.653.61,2.525-.044,5.094,0,7.619,0a12.074,12.074,0,0,1,1.785.044Z" transform="translate(-110.994)" fill="#e34d27"/>
    <path id="Path_1340" data-name="Path 1340" d="M125.885,132.892c1.306-2.133,2.569-4.223,3.831-6.313a.8.8,0,0,1,.784-.435c1.916,0,3.788.044,5.7,0,.392,0,.479.087.479.479v18.242c0,.348-.044.479-.435.479-1.829-.044-3.7-.044-5.529,0-.392,0-.435-.131-.435-.479v-8.838c-.218.044-.261.218-.348.348-1.263,1.916-2.525,3.875-3.744,5.791-.392.566-.392.566-.74,0-1.263-1.959-2.482-3.875-3.744-5.834l-.348-.522v8.969c0,.392-.044.566-.522.522-1.785-.044-3.527-.044-5.312,0-.348,0-.522-.044-.522-.479V126.579c0-.392.131-.479.522-.479,1.916,0,3.831.044,5.747,0a.728.728,0,0,1,.74.435c1.132,1.916,2.308,3.831,3.483,5.7A3.686,3.686,0,0,0,125.885,132.892Z" transform="translate(-54.599 -13.72)" fill="#010101"/>
    <path id="Path_1341" data-name="Path 1341" d="M18.3,135.665v-9.143c0-.392.087-.479.479-.479,1.829.044,3.7,0,5.529,0,.348,0,.435.087.435.435v5.442c0,.392.131.435.479.435h4.963c.348,0,.479-.087.479-.479v-5.4c0-.392.131-.479.522-.479,1.829,0,3.657.044,5.486,0,.435,0,.479.131.479.522v18.2c0,.392-.087.522-.522.522q-2.743-.065-5.486,0c-.392,0-.479-.087-.479-.479v-5.4c0-.479-.131-.566-.61-.566-1.567.044-3.178.044-4.746,0-.479,0-.566.131-.566.61.044,1.785,0,3.614,0,5.4,0,.348-.044.435-.435.435-1.872,0-3.744-.044-5.573,0-.392,0-.435-.131-.435-.479C18.3,141.761,18.3,138.713,18.3,135.665Z" transform="translate(0 -13.664)"/>
    <path id="Path_1342" data-name="Path 1342" d="M76.725,126.2h8.359c.392,0,.479.087.479.479q-.065,2.678,0,5.355c0,.479-.174.522-.566.522-1.524-.044-3.091,0-4.615,0-.392,0-.479.131-.479.522v11.842c0,.392-.087.522-.522.522q-2.678-.065-5.355,0c-.435,0-.61-.087-.61-.566.044-3.918,0-7.793.044-11.712,0-.479-.131-.61-.566-.566-1.524.044-3.091,0-4.615,0-.348,0-.479-.087-.479-.479v-5.442c0-.392.131-.435.479-.435C71.065,126.2,73.9,126.2,76.725,126.2Z" transform="translate(-27.949 -13.777)"/>
    <path id="Path_1343" data-name="Path 1343" d="M172.144,135.778v-9.056c0-.435.131-.522.522-.522q2.678.065,5.355,0c.435,0,.566.087.566.566,0,3.918,0,7.793-.044,11.712,0,.522.174.61.653.61,2.612-.044,5.268,0,7.88,0,.392,0,.522.087.522.522-.044,1.785-.044,3.527,0,5.312,0,.392-.044.566-.522.566h-14.5c-.392,0-.479-.131-.479-.522C172.144,141.874,172.144,138.826,172.144,135.778Z" transform="translate(-86.838 -13.777)" fill="#010101"/>
    <path id="Path_1344" data-name="Path 1344" d="M255.744,112.984v-3.962c0-.392.131-.522.522-.522h13.54c.435,0,.566.174.522.566-.174,1.872-.392,3.744-.566,5.616-.131,1.48-.218,2.961-.348,4.441-.131,1.437-.3,2.874-.435,4.267-.087,1-.174,2.046-.261,3.048-.131,1.48-.3,2.961-.435,4.441l-.261,3c-.131,1.524-.392,3.048-.392,4.572,0,.914-.348,1.176-1.176,1.393q-5.159,1.371-10.319,2.874c-.392.131-.392-.044-.392-.348v-4.223c2.917-.784,5.878-1.611,8.795-2.395a.431.431,0,0,0,.348-.479c.131-1.393.261-2.743.392-4.136.261-2.961.522-5.921.784-8.838.044-.261-.087-.3-.3-.3-3.352,0-6.7,0-10.057.044v-4.615c3.483,0,6.966,0,10.449.044.348,0,.392-.174.392-.435.087-1.176.174-2.308.3-3.483.044-.435-.044-.522-.479-.522h-8.011c-.871,0-1.785,0-2.656.044Z" transform="translate(-134.04 -3.783)" fill="#f0662b"/>
    <path id="Path_1345" data-name="Path 1345" d="M241.333,132.384a12.37,12.37,0,0,0-1.785-.044h-7.619c-.479,0-.61-.087-.653-.61-.3-3.57-.653-7.184-.958-10.754l-.131-1.567c-.044-.435.044-.566.522-.566h9.97a3.3,3.3,0,0,0,.653-.044v4.484c-2,0-3.962,0-5.965-.044-.3,0-.392.131-.348.392.131,1.306.218,2.569.348,3.875,0,.218.087.348.348.348,1.872,0,3.744-.044,5.616-.044v4.441Q241.333,132.319,241.333,132.384Z" transform="translate(-119.63 -9.599)" fill="#eaeaea"/>
    <path id="Path_1346" data-name="Path 1346" d="M243.079,164.428v.044c-2.874-.784-5.747-1.611-8.621-2.395a.727.727,0,0,1-.653-.784c-.131-1.959-.348-3.918-.522-5.878-.044-.348,0-.566.435-.522,1.219.044,2.395,0,3.614,0,.348,0,.435.087.479.435.044.871.174,1.7.218,2.569a.741.741,0,0,0,.61.74c1.48.348,2.961.784,4.441,1.176v4.615Z" transform="translate(-121.376 -29.974)" fill="#eaeaea"/>
    <path id="Path_1347" data-name="Path 1347" d="M255.8,156.927v-.087c0-2.351,0-4.7.044-7.053V149.7c1.654,0,3.309.044,4.963,0,.392,0,.522.087.479.522q-.261,2.351-.392,4.7c-.044.522-.261.653-.7.784C258.674,156.1,257.237,156.535,255.8,156.927Z" transform="translate(-134.097 -27.045)" fill="#f0662b"/>
    <path id="Path_1348" data-name="Path 1348" d="M255.744,151.168c1.437-.392,2.874-.827,4.31-1.219.479-.131.653-.3.7-.784.087-1.567.261-3.135.392-4.7.044-.392-.087-.522-.479-.522H255.7v-4.4c3.352,0,6.7,0,10.057-.044.218,0,.348.044.3.3-.261,2.961-.522,5.921-.784,8.838-.131,1.393-.261,2.743-.392,4.136a.431.431,0,0,1-.348.479c-2.917.784-5.878,1.611-8.795,2.395C255.744,154.216,255.744,152.692,255.744,151.168Z" transform="translate(-134.04 -21.286)" fill="#fefefe"/>
    <path id="Path_1349" data-name="Path 1349" d="M255.8,123.241v-4.4c.871,0,1.785-.044,2.656-.044h8.011c.435,0,.522.131.479.522-.131,1.176-.218,2.308-.3,3.483-.044.261-.044.435-.392.435Q261.025,123.306,255.8,123.241Z" transform="translate(-134.097 -9.599)" fill="#fefefe"/>
    <path id="Path_1350" data-name="Path 1350" d="M247.6,133.672c-1.872,0-3.744,0-5.616.044-.261,0-.3-.087-.348-.348-.087-1.306-.218-2.569-.348-3.875-.044-.261.044-.392.348-.392,2,0,3.962.044,5.965.044Z" transform="translate(-125.896 -15.414)" fill="#e34d27"/>
  </g>
</svg>
