<svg xmlns="http://www.w3.org/2000/svg" width="42.013" height="42.012" viewBox="0 0 42.013 42.012">
  <g id="Java_Script" data-name="Java Script" transform="translate(-38.683 -31.284)">
    <path id="Path_1324" data-name="Path 1324" d="M80.7,73.3H38.686V31.588c0-.354-.053-.3.283-.3H80.536c.124-.018.159.053.159.159V73C80.7,73.084,80.7,73.19,80.7,73.3Zm-9.835-3.343a8.936,8.936,0,0,0,2.795-.425,5.21,5.21,0,0,0,3.219-2.671,5.844,5.844,0,0,0,.513-2.9,5.1,5.1,0,0,0-1.769-3.715A11.635,11.635,0,0,0,72.7,58.491c-.831-.389-1.7-.708-2.512-1.114a3.367,3.367,0,0,1-.973-.69,1.717,1.717,0,0,1,.637-2.795,2.456,2.456,0,0,1,2.582.531,3.255,3.255,0,0,1,.672.884c.053.088.088.124.195.053.937-.619,1.893-1.22,2.83-1.822.088-.053.106-.088.053-.195a5.7,5.7,0,0,0-3.467-2.795,7.9,7.9,0,0,0-3.909-.035,5.028,5.028,0,0,0-3.944,4.917,5.361,5.361,0,0,0,2.476,4.811,13.2,13.2,0,0,0,1.769.973c.92.425,1.857.778,2.759,1.238a3.649,3.649,0,0,1,1.061.725,1.775,1.775,0,0,1,.46,1.7,1.74,1.74,0,0,1-1.22,1.291A4.112,4.112,0,0,1,68.7,65.9a4.612,4.612,0,0,1-1.716-1.733c-.071-.124-.124-.159-.265-.071-.955.566-1.928,1.132-2.9,1.68-.124.071-.141.124-.071.265a7.074,7.074,0,0,0,2.406,2.6A8.168,8.168,0,0,0,70.861,69.953Zm-9.339-12.24h0c.018-2.317.018-4.634.018-6.951,0-.159-.035-.212-.212-.212-1.167,0-2.317.018-3.485,0-.212,0-.265.053-.265.265V63.886a6,6,0,0,1-.071.973,1.686,1.686,0,0,1-.9,1.38,2.441,2.441,0,0,1-2.865-.584,6.544,6.544,0,0,1-.725-1.1c-.071-.124-.106-.124-.23-.053-.973.6-1.963,1.185-2.936,1.787-.088.053-.124.106-.071.212a5.933,5.933,0,0,0,2.919,2.883,7.536,7.536,0,0,0,4.581.425,4.844,4.844,0,0,0,3.06-1.787,5.608,5.608,0,0,0,1.15-3.432C61.539,62.294,61.521,59.995,61.521,57.713Z" transform="translate(0)" fill="#efda4f"/>
    <path id="Path_1325" data-name="Path 1325" d="M187.318,158.481a8.56,8.56,0,0,1-4.705-1.274,7.073,7.073,0,0,1-2.406-2.6c-.071-.124-.053-.177.071-.265.973-.548,1.946-1.114,2.9-1.68.142-.088.195-.035.265.071a4.742,4.742,0,0,0,1.716,1.733,4.112,4.112,0,0,0,3.467.265,1.739,1.739,0,0,0,1.221-1.291,1.775,1.775,0,0,0-.46-1.7,3.648,3.648,0,0,0-1.061-.725c-.9-.46-1.857-.814-2.759-1.238a13.2,13.2,0,0,1-1.769-.973,5.361,5.361,0,0,1-2.476-4.811,5.01,5.01,0,0,1,3.944-4.917,7.512,7.512,0,0,1,3.909.035,5.539,5.539,0,0,1,3.467,2.795c.053.088.035.124-.053.195-.955.6-1.893,1.22-2.83,1.822-.106.071-.141.035-.195-.053a3.254,3.254,0,0,0-.672-.884,2.456,2.456,0,0,0-2.582-.531,1.726,1.726,0,0,0-.637,2.795,4.213,4.213,0,0,0,.973.69c.814.425,1.68.743,2.512,1.114a11.634,11.634,0,0,1,2.919,1.751,5.1,5.1,0,0,1,1.769,3.715,5.655,5.655,0,0,1-.513,2.9,5.266,5.266,0,0,1-3.219,2.671A9.439,9.439,0,0,1,187.318,158.481Z" transform="translate(-116.457 -88.527)" fill="#323330"/>
    <path id="Path_1326" data-name="Path 1326" d="M113.111,147.364c0,2.3.018,4.581-.018,6.881a5.535,5.535,0,0,1-1.15,3.432,4.844,4.844,0,0,1-3.06,1.786,7.548,7.548,0,0,1-4.581-.425,5.934,5.934,0,0,1-2.919-2.883c-.053-.124-.018-.159.071-.212.973-.584,1.963-1.185,2.936-1.786.106-.071.159-.053.23.053a6.543,6.543,0,0,0,.725,1.1,2.468,2.468,0,0,0,2.865.584,1.686,1.686,0,0,0,.9-1.38,6,6,0,0,0,.071-.973V140.465c0-.212.053-.265.265-.265,1.167.018,2.317,0,3.485,0,.159,0,.212.035.212.212-.035,2.3-.035,4.617-.035,6.951Z" transform="translate(-51.59 -89.651)" fill="#323330"/>
  </g>
</svg>
