<svg xmlns="http://www.w3.org/2000/svg" width="146.9" height="44.833" viewBox="0 0 146.9 44.833">
  <g id="Jenkins" transform="translate(-4.36 -117.743)">
    <path id="Path_1997" data-name="Path 1997" d="M22.9,162.576a15.11,15.11,0,0,1-4.308-.465.563.563,0,0,1-.416-.392c-.514-1.346-.881-2.717-1.273-4.088a.292.292,0,0,0-.343-.269,6.418,6.418,0,0,1-3.084-.71c-.881-.392-1.713-.881-2.619-1.2a1.01,1.01,0,0,1-.685-1.053c0-.71-.049-1.42-.1-2.13a.6.6,0,0,0-.2-.392,15.927,15.927,0,0,1-5.312-9.816,16.4,16.4,0,0,1,5.14-14.931,1.939,1.939,0,0,0,.636-1.3,3.691,3.691,0,0,1,.71-2.007,1.369,1.369,0,0,1,.563-.49.721.721,0,0,0,.392-.49,3.584,3.584,0,0,1,1.444-1.934,17.068,17.068,0,0,1,5.973-2.864,10.98,10.98,0,0,1,6.854.539,9.306,9.306,0,0,1,2.888,2.252,8.118,8.118,0,0,1,2.227,4.749c.073.514.147,1.028.171,1.542,0,.147.1.22.171.318a16.336,16.336,0,0,1,4.6,8.347,16.66,16.66,0,0,1-1.689,11.749c-.122.22-.147.343.1.465a1.349,1.349,0,0,1,.587.734,11.277,11.277,0,0,1,.906,2.79,4.068,4.068,0,0,1-.71,2.986,1.9,1.9,0,0,1-1.4.661,7.21,7.21,0,0,1-2.179-.049.687.687,0,0,1-.539-.416.3.3,0,0,0-.294-.171,4.428,4.428,0,0,0-1.787.294c-.122.049-.22.1-.22.269a.529.529,0,0,1-.441.538c-.294.073-.343.269-.343.514a6.212,6.212,0,0,0,.269,1.64,5.112,5.112,0,0,1,.2,1.224,1.015,1.015,0,0,1-.734,1.077,2.83,2.83,0,0,1-.783.2c-.2.024-.22.122-.22.294a4,4,0,0,0,.049.539.794.794,0,0,1-.343.832,2.305,2.305,0,0,1-1.175.441C24.71,162.5,23.8,162.551,22.9,162.576Zm1.591-20.953c-.392.1-.441.122-.392.514.024.147.049.269.073.416.049.122,0,.294.171.343a.654.654,0,0,0,.832-.465.632.632,0,0,0-.514-.832h-.122C24.564,141.6,24.515,141.6,24.49,141.623Zm-7.808-.93a4.351,4.351,0,0,0,1.616.71c.245.073.343.024.294-.245a.147.147,0,0,1,.024-.1c.22-.441.2-.49-.294-.539a5.508,5.508,0,0,1-1.664-.269c-.049-.024-.122-.122-.2-.049a.192.192,0,0,0,0,.269C16.535,140.57,16.584,140.668,16.682,140.693Zm-2.888-18.064a3.936,3.936,0,0,1,.759-.024.691.691,0,0,0,.783-.343,6.11,6.11,0,0,1,1.493-1.86v-.024c.245-.122.416-.343.71-.416a.179.179,0,0,0,.147-.269.207.207,0,0,0-.294-.1,9.2,9.2,0,0,0-4.137,2.472,2.8,2.8,0,0,0-.612.93A4.54,4.54,0,0,0,13.793,122.628ZM26.3,147.938a17.753,17.753,0,0,0,.294-3.4c.024-.147.024-.294.049-.441,0-.073,0-.147-.1-.147a1.959,1.959,0,0,1-.881-.416.662.662,0,0,0-.808-.049,1.021,1.021,0,0,1-.661.147c-.2-.024-.269.171-.367.294-.1.1.049.171.1.245a8.468,8.468,0,0,1,.881,1.518c.343.759.685,1.542,1.028,2.325a1.74,1.74,0,0,0,.318.587C26.228,148.305,26.277,148.109,26.3,147.938Zm3.721,5.091a7.561,7.561,0,0,0-.416-2.448c-.2-.563-.22-.563-.832-.563-.269,0-.392.049-.318.343a2.937,2.937,0,0,1,.073.49c.122.857.269,1.738.416,2.595a6.45,6.45,0,0,1,.049.685c0,.122.073.122.171.122a1.632,1.632,0,0,0,.857-.294c.147-.122.049-.416.024-.636C30.047,153.225,30.022,153.127,30.022,153.029Zm-3.99-9.938a10.409,10.409,0,0,0,2.13.318c.392.049.465,0,.539-.416a4.69,4.69,0,0,0-.147-2.179c-.171-.685-.49-.832-1.15-.612a4.178,4.178,0,0,0-.661.343c-.318.22-.636.416-.955.636-.073.049-.269.049-.171.22.1.147,0,.416.343.392a.933.933,0,0,1,.71.147c-.881.1-.857.1-.857.857C25.787,143.018,25.836,143.091,26.032,143.091Zm1.616,8.151a3.687,3.687,0,0,0-.147-.906.162.162,0,0,0-.171-.147,3.31,3.31,0,0,0-.979.073.216.216,0,0,0-.2.22,6.3,6.3,0,0,0,.049,1.175,17.688,17.688,0,0,0,.073,2.276,5.187,5.187,0,0,0,.1,1.077c.024.122.073.2.2.171l1.248-.22c.147-.024.2-.1.171-.22-.1-.661-.1-1.346-.171-2.007A9.6,9.6,0,0,0,27.648,151.242ZM25.371,148.7a.085.085,0,0,1,.049.024v-.073c-.318-.734-.636-1.493-.955-2.227a9.726,9.726,0,0,0-1.1-1.885c-.073-.073-.1-.171-.245-.073a9.919,9.919,0,0,0-1.4,1.053,2.816,2.816,0,0,0-.636.979c-.073.2-.049.294.147.392.465.22.906.49,1.4.71A13.375,13.375,0,0,0,25.371,148.7Zm-1.664-5.9c.024-.147-.122-.147-.22-.2a3.9,3.9,0,0,0-.955-.245A2.017,2.017,0,0,1,23,142.21c.147-.049.318-.1.465-.147a.179.179,0,0,0,.147-.22c0-.122-.122-.1-.2-.122a1.615,1.615,0,0,1-.661-.294,8.543,8.543,0,0,0-2.5-1.028c-.587-.147-.906.049-1,.661a5.673,5.673,0,0,0,.465,3.427c.024.1.073.2.1.294.122.392.171.416.563.343a4.731,4.731,0,0,0,2.032-.881c.318-.245.587-.514.93-.734A.568.568,0,0,0,23.707,142.8ZM11.541,128.136a2.917,2.917,0,0,1,1.224-.171,2.085,2.085,0,0,1,1.86,1.664c0,.073-.049.22.1.245s.22-.073.269-.22a.594.594,0,0,0,0-.294,8.985,8.985,0,0,1-.318-1.616,14.659,14.659,0,0,1,.22-2.056,4.8,4.8,0,0,0,.049-1.958c-.073-.514-.1-.539-.539-.465a4.546,4.546,0,0,0-2.2,1,2.538,2.538,0,0,0-.881,1.591,9.646,9.646,0,0,0,.024,2.374A.223.223,0,0,0,11.541,128.136Zm18.946,21.589c-.147.1-.392.147-.318.392a23.434,23.434,0,0,1,.49,3.451c.024.22.073.294.294.269.612-.049,1.224-.073,1.86-.073a2.6,2.6,0,0,1,1.2.171,14.443,14.443,0,0,0-1.958.514,4.311,4.311,0,0,0,1.934.049,1.745,1.745,0,0,0,1.469-1.371,3.467,3.467,0,0,0-.171-2.056.221.221,0,0,0-.024-.122c0-.024-.024-.049-.024-.073a5.365,5.365,0,0,0-.49-1.616,1.446,1.446,0,0,0-.808-.71.751.751,0,0,0-.685.024,7.677,7.677,0,0,1-1.4.587A5.357,5.357,0,0,0,30.487,149.725Zm-1.469-9.816a2.561,2.561,0,0,0,.1.416,5.442,5.442,0,0,1,.024,2.937.636.636,0,0,0,.171.783.509.509,0,0,1,.122.734c-.661,1.053-1.273,2.105-1.909,3.158l-.734,1.248a4.754,4.754,0,0,1,1.542-.122,1.324,1.324,0,0,0,1.4-.857,34.549,34.549,0,0,0,2.007-6.389,1.1,1.1,0,0,0-.465-1.248,21.849,21.849,0,0,1-2.081-1.909c-.343-.318-.343-.318-.661,0-.2.2-.49.318-.636.612a.852.852,0,0,1,.881.343A.979.979,0,0,1,29.018,139.909Zm1.371,8.739a2.72,2.72,0,0,0,.392-.171,7.48,7.48,0,0,1,2.374-.759.548.548,0,0,0,.465-.294,15.832,15.832,0,0,0,2.032-9.987A15.46,15.46,0,0,0,32.4,129.6a4.889,4.889,0,0,0-.759-.857,4.12,4.12,0,0,0-.049.49,17.113,17.113,0,0,1-.318,2.937,12.661,12.661,0,0,1-1.444,4.381c-.465.759-.416.906.245,1.493.71.636,1.42,1.273,2.154,1.909a1.39,1.39,0,0,1,.416,1.444c-.049.171-.073.343-.122.514-.416,1.3-.808,2.619-1.224,3.916-.294.955-.636,1.885-.955,2.815a.024.024,0,0,1-.024.024C30.365,148.7,30.365,148.672,30.389,148.648ZM5.471,141.5v.049a15.785,15.785,0,0,0,3.06,7.417,15.978,15.978,0,0,0,1.346,1.542.441.441,0,0,0,.024-.245c0-.073-.024-.147-.024-.22A16.762,16.762,0,0,0,9,146.249,26.437,26.437,0,0,1,7.772,142.7a1,1,0,0,1,.563-1.248,5.67,5.67,0,0,0,.93-.514c1.2-.832,2.5-1.542,3.77-2.276.2-.122.416-.245.612-.392a.5.5,0,0,0,.2-.587,2.444,2.444,0,0,0-.367-.71,4.027,4.027,0,0,1-.636-1.811c-.024-.147-.049-.2-.2-.22a3.283,3.283,0,0,1-2.276-1.885,5.875,5.875,0,0,1-.563-2.888,2.932,2.932,0,0,1,.563-1.469.484.484,0,0,0,.073-.416c-.024-.122.024-.294-.1-.343s-.2.122-.269.2A15.58,15.58,0,0,0,5.471,141.5Zm17.55,20.1a10.547,10.547,0,0,0,3.158-.392c.147-.049.122-.122.122-.245a9.372,9.372,0,0,1-.2-1.664c-.073-2.815-.318-5.605-.465-8.4-.049-.685-.049-.685-.759-.734a6.8,6.8,0,0,0-1.567-.147,31.73,31.73,0,0,0-6.462.563c-.171.024-.171.1-.147.245.171,1.64.416,3.256.734,4.871a41.673,41.673,0,0,0,1.322,5.14.26.26,0,0,0,.2.22A11.826,11.826,0,0,0,23.021,161.6Zm-6.756-10.183c0-.1-.024-.22-.024-.318-.073-.465-.1-.49-.563-.49a7.231,7.231,0,0,0-1.028.049c-.171.024-.367.073-.514-.073a.471.471,0,0,1,.441-.416c.073-.024.171-.024.245-.049.294-.1.343-.294.147-.539a1.315,1.315,0,0,1-.245-.392.153.153,0,0,1,.049-.2c.073-.073.122-.024.171.024.22.147.441.294.661.416.294.171.367.171.441-.171a8.573,8.573,0,0,0-.024-2.374,2.588,2.588,0,0,1,.1-1.3.291.291,0,0,1,.245-.2c.147,0,.147.122.171.22a1.476,1.476,0,0,1,.024.563,18.675,18.675,0,0,0-.1,2.864,1.7,1.7,0,0,0,.122.612c.024.073.049.171.171.147.147-.049.343,0,.49-.073.661-.073,1.3-.122,1.958-.2.832-.1,1.689-.171,2.521-.22.612-.024,1.224-.1,1.836-.073a.593.593,0,0,0,.318-.1,1.2,1.2,0,0,1-.171-.073,23.866,23.866,0,0,1-3.084-1.493.62.62,0,0,1-.22-.979c.049-.1.147-.171.2-.269.1-.147.22-.245.22-.416l.024-.024-.024.024h-.1c-.71.171-1,.024-1.248-.661a13.855,13.855,0,0,1-.734-2.668.343.343,0,0,0-.22-.294c-.416-.2-.808-.392-1.224-.587a6.526,6.526,0,0,1-1.909-1.224c-.22-.269-.441-.563-.685-.808-.49-.514-.294-.465-.955-.171A23.906,23.906,0,0,0,8.9,142.577c-.147.1-.122.2-.073.343a15.006,15.006,0,0,1,.71,1.836,31.937,31.937,0,0,1,1.493,9.106c.024.49.024.514.514.661a16.5,16.5,0,0,0,3.721,1.713,5.569,5.569,0,0,0,1.42.245c.171,0,.269,0,.22-.22-.073-.367-.073-.734-.147-1.077C16.559,153.862,16.412,152.638,16.266,151.414ZM11.419,133.08c0,.024.024.024.024.049l.1.1a.988.988,0,0,0,.318.318,1.271,1.271,0,0,0,1.787,0,1.693,1.693,0,0,1,.465-.245c.122-.049.2.024.245.122a.694.694,0,0,1-.318.71.908.908,0,0,0-.294,1.028,13.614,13.614,0,0,0,1.053,2.888,3.04,3.04,0,0,0,2.448,1.836c.49.1.979.122,1.469.171.122,0,.22.024.294-.1a.988.988,0,0,1,.759-.367c.294-.024.563,0,.93,0a8.626,8.626,0,0,1-2.3-2.105,4.535,4.535,0,0,1-.906-1.42,2.153,2.153,0,0,1-.147-.71c.392.538.759,1.028,1.15,1.518a8.011,8.011,0,0,0,3.035,2.448,4.612,4.612,0,0,0,3.378.22,5.984,5.984,0,0,0,3.256-1.909,12.846,12.846,0,0,0,2.5-5.361,19.861,19.861,0,0,0,.2-5.9,4.93,4.93,0,0,0-.318-1.444,2.054,2.054,0,0,0-2.815-1.126c-.122.073-.073-.049-.122-.1a.963.963,0,0,1,.587-.906,1.814,1.814,0,0,1,1.2-.049c-.269-.318-.465-.587-.685-.832a6.243,6.243,0,0,0-1.64-1.664c-.122-.073-.245-.171-.367-.245a10.194,10.194,0,0,0-4.284-1.248,4.887,4.887,0,0,0-2.57.416,15.557,15.557,0,0,0-2.595,1.567,6.423,6.423,0,0,0-1.86,2.032c-.049.1-.122.171-.073.294a4.171,4.171,0,0,1,.171,2.056c-.049.269-.122.539-.171.808a6.514,6.514,0,0,0-.245,2.276c.1.514.245,1.028.343,1.542.122.636.024.759-.636.881a.832.832,0,0,1-.245.024c-.49.024-.49.024-.612-.416a.348.348,0,0,1-.049-.147,1.711,1.711,0,0,0-.22-.587,1.238,1.238,0,0,0-1.224-.71,1.979,1.979,0,0,0-1.811,1.493A3.517,3.517,0,0,0,11.419,133.08ZM26.546,148.6a.67.67,0,0,0,.122-.1,36.75,36.75,0,0,0,2.325-3.745.149.149,0,0,0,0-.2,1.539,1.539,0,0,0-1.64-.636.315.315,0,0,0-.245.294,28.136,28.136,0,0,1-.269,2.888C26.767,147.6,26.644,148.06,26.546,148.6Zm-.1,8.127c.049.759.1,1.616.122,2.472,0,.2.073.269.269.245a3.431,3.431,0,0,0,.685-.147c.514-.2.441-.024.441-.612a24.369,24.369,0,0,0-.441-2.619c-.024-.269-.147-.269-.343-.245a.454.454,0,0,0-.171.049C26.424,156.065,26.424,156.065,26.448,156.725Zm-3.574-16.253a2.057,2.057,0,0,0,1.224.587,1.356,1.356,0,0,0,.881-.049,9.873,9.873,0,0,0,1.077-.832C24.931,140.3,23.952,140.815,22.875,140.472Z" transform="translate(0 0)" fill="#272223"/>
    <path id="Path_1998" data-name="Path 1998" d="M378.846,180.581c1.811-1.64,3.6-3.231,5.41-4.871h-1.371c-.2,0-.245-.049-.245-.245.024-.367,0-.71,0-1.077,0-.122,0-.2.171-.2h5.8c.147,0,.2.049.2.2,0,.367-.024.759,0,1.126,0,.171-.049.2-.2.2h-2.081a.515.515,0,0,0-.367.122l-3.133,2.839c-.147.122-.171.2-.049.367,1.811,2.3,3.6,4.6,5.385,6.927a.46.46,0,0,0,.416.2c.318-.024.636,0,.955,0,.171,0,.245.024.245.22a6.537,6.537,0,0,0,0,.979c.024.245-.049.294-.294.294h-7.245c-.171,0-.22-.049-.22-.22a6.865,6.865,0,0,0,0-1c0-.22.024-.294.269-.269.416.024.857,0,1.322,0-.171-.22-.294-.392-.441-.563-1.053-1.346-2.081-2.668-3.109-4.014-.122-.147-.2-.22-.367-.049-.269.269-.587.538-.881.783a.412.412,0,0,0-.171.367v3.231c0,.2.049.245.245.245.416-.024.857,0,1.273,0,.147,0,.171.024.171.171,0,.367-.024.71,0,1.077,0,.22-.049.269-.269.269h-7.613c-.147,0-.171-.024-.171-.171v-1.126c0-.171.049-.22.2-.2h1.444c.22,0,.269-.049.269-.269V169.762c0-.22-.049-.269-.269-.269-.49.024-.955,0-1.444,0-.171,0-.22-.049-.2-.2v-1.126c0-.147.049-.171.171-.171h6.022c.171,0,.171.073.171.22v12.361Z" transform="translate(-278.01 -37.955)" fill="#020202"/>
    <path id="Path_1999" data-name="Path 1999" d="M492.746,194.065a7.433,7.433,0,0,1,.881-1.028,4.638,4.638,0,0,1,2.986-1.2,6.012,6.012,0,0,1,2.374.245,3.965,3.965,0,0,1,2.619,3.109,6.87,6.87,0,0,1,.171,1.738v6.878c0,.22.049.269.269.269.49-.024.955,0,1.444,0,.171,0,.22.024.22.2a7.56,7.56,0,0,0,0,1.053c0,.22-.049.269-.269.269h-7.515c-.171,0-.22-.024-.22-.2.024-.367,0-.734,0-1.1,0-.171.049-.22.2-.22h1.248c.147,0,.171-.024.171-.171,0-2.472,0-4.969-.024-7.441a5.871,5.871,0,0,0-.122-1.126,1.694,1.694,0,0,0-2.13-1.444,2.3,2.3,0,0,0-2.13,2.2,9.321,9.321,0,0,0-.171,1.836v5.85c0,.22.049.269.269.269.392-.024.783,0,1.2,0,.147,0,.171.024.171.171,0,.367-.024.71,0,1.077,0,.22-.049.269-.269.269h-7.564c-.147,0-.171-.024-.171-.171v-1.126c0-.171.049-.22.2-.2H488.1c.171,0,.2-.049.2-.2V193.869c0-.171-.049-.22-.2-.22h-1.518c-.171,0-.22-.049-.2-.2v-1.126c0-.147.049-.171.171-.171h6.022c.171,0,.171.073.171.2C492.746,192.914,492.746,193.453,492.746,194.065Z" transform="translate(-364.03 -55.942)" fill="#020202"/>
    <path id="Path_2000" data-name="Path 2000" d="M301.84,194.13a4.569,4.569,0,0,1,3.231-2.154,6.018,6.018,0,0,1,3.353.294,3.931,3.931,0,0,1,2.276,2.986,8.221,8.221,0,0,1,.2,1.738v6.854c0,.22.024.318.294.294.465-.024.955,0,1.42,0,.147,0,.22.024.22.2-.024.367,0,.734,0,1.1,0,.147-.024.22-.2.22h-7.588c-.2,0-.22-.073-.22-.22,0-.343.024-.685,0-1.053,0-.171.024-.245.22-.245.367.024.734,0,1.1,0,.245.024.294-.049.294-.294v-5.826a18.868,18.868,0,0,0-.1-2.35c-.2-1.811-1.591-1.958-2.766-1.591a2.313,2.313,0,0,0-1.493,1.836,7.888,7.888,0,0,0-.22,2.007V203.9c0,.171.024.245.22.245.392-.024.783,0,1.2,0,.147,0,.22.024.22.2a7.551,7.551,0,0,0,0,1.053c0,.22-.049.269-.269.269H295.72c-.147,0-.22-.024-.22-.2a7.908,7.908,0,0,0,0-1.077c0-.171.049-.245.245-.245.49.024.979,0,1.469,0,.171,0,.22-.049.22-.2V193.934c0-.2-.073-.22-.245-.22H295.72c-.171,0-.22-.024-.22-.2.024-.367,0-.759,0-1.126,0-.147.024-.171.171-.171h6.021c.171,0,.171.073.171.2C301.84,192.955,301.84,193.494,301.84,194.13Z" transform="translate(-219.876 -55.983)" fill="#020202"/>
    <path id="Path_2001" data-name="Path 2001" d="M172.2,181.719v-8.983c0-.245-.049-.294-.294-.294-.734.024-1.469,0-2.2,0-.2,0-.245-.049-.245-.245a7.551,7.551,0,0,0,0-1.053c0-.2.049-.245.245-.245h9.546c.22,0,.269.049.269.269a7.551,7.551,0,0,0,0,1.053c0,.171-.049.2-.22.2h-1.934c-.245,0-.294.073-.294.294v16.645a7.514,7.514,0,0,1-.514,2.937,4.417,4.417,0,0,1-3.231,2.595,11.326,11.326,0,0,1-6.854-.49.213.213,0,0,1-.171-.245v-2.57c0-.147.024-.2.2-.2h1.248c.147,0,.2.024.22.171a3.74,3.74,0,0,0,.171.881,1.832,1.832,0,0,0,2.154,1.248c1-.122,1.493-.636,1.713-1.738a12.713,12.713,0,0,0,.22-2.57c-.024-2.546-.024-5.116-.024-7.662Z" transform="translate(-122.301 -40.145)" fill="#020202"/>
    <path id="Path_2002" data-name="Path 2002" d="M242.369,201.513a5.057,5.057,0,0,1-3.549,4.039,10.185,10.185,0,0,1-6.046.024,5.7,5.7,0,0,1-4.137-4.651,9.155,9.155,0,0,1,.147-4.528,5.827,5.827,0,0,1,4.063-4.137,9.148,9.148,0,0,1,5.067-.147,5.845,5.845,0,0,1,4.259,4.112,11.415,11.415,0,0,1,.514,3.011c.024.245-.024.318-.294.318-2.888-.024-5.777,0-8.665-.024-.269,0-.318.073-.318.343a12.856,12.856,0,0,0,.294,2.35,2.883,2.883,0,0,0,3.427,2.276,3.158,3.158,0,0,0,2.668-1.64,3.957,3.957,0,0,0,.416-1.175c.024-.1.024-.2.2-.2C241.048,201.513,241.708,201.513,242.369,201.513Zm-6.78-3.476H237.6c.147,0,.2-.049.2-.2-.024-.465-.024-.955-.073-1.42a6.205,6.205,0,0,0-.392-1.983,1.651,1.651,0,0,0-1.077-1.053,1.845,1.845,0,0,0-2.472,1.346,10.515,10.515,0,0,0-.343,3.158c0,.171.073.171.2.171C234.292,198.037,234.953,198.037,235.589,198.037Z" transform="translate(-169.218 -55.949)" fill="#050505"/>
    <path id="Path_2003" data-name="Path 2003" d="M574,194.528a2.724,2.724,0,0,0-1.738-1.224,5.352,5.352,0,0,0-2.913.073,1.5,1.5,0,0,0-1.1,1.885,1.329,1.329,0,0,0,.808.955,8.555,8.555,0,0,0,1.86.563,20.194,20.194,0,0,1,2.864.857c.171.073.2.147.2.318v7.025a.277.277,0,0,1-.22.318,11.207,11.207,0,0,1-2.986.49,23.286,23.286,0,0,1-6.364-.685c-.147-.024-.171-.1-.171-.245V201.48c0-.147.024-.2.2-.2a6.865,6.865,0,0,0,1,0c.22-.024.269.073.294.269a3.169,3.169,0,0,0,.661,1.591A3.005,3.005,0,0,0,568.1,204.2a5.234,5.234,0,0,0,2.815-.073,1.666,1.666,0,0,0,1.126-2.252,1.588,1.588,0,0,0-.808-.881,9.79,9.79,0,0,0-2.032-.636,17.049,17.049,0,0,1-2.693-.808,3.406,3.406,0,0,1-2.227-2.35,4.078,4.078,0,0,1,1.15-4.308,5.425,5.425,0,0,1,2.57-1.053,16.483,16.483,0,0,1,5.8.171c.122.024.171.049.171.171C574,192.986,574,193.72,574,194.528Z" transform="translate(-422.739 -55.818)" fill="#050505"/>
    <path id="Path_2004" data-name="Path 2004" d="M452.264,199.273v5.7c0,.22.049.269.269.269.49-.024.955,0,1.444,0,.122,0,.22,0,.2.171-.024.392,0,.783,0,1.15,0,.147-.049.171-.171.171h-7.931c-.147,0-.171-.049-.171-.171v-1.15c0-.147.049-.171.171-.171h1.518c.171,0,.245-.024.245-.22V195.013c0-.171-.049-.2-.22-.2h-1.469c-.2,0-.245-.049-.22-.245a7.551,7.551,0,0,0,0-1.053c0-.2.073-.22.245-.22h5.9c.2,0,.22.049.22.245C452.264,195.454,452.264,197.363,452.264,199.273Z" transform="translate(-333.462 -57.062)" fill="#020202"/>
    <path id="Path_2005" data-name="Path 2005" d="M454.248,172.722a2.411,2.411,0,1,1,2.423-2.4A2.374,2.374,0,0,1,454.248,172.722Z" transform="translate(-337.918 -37.88)" fill="#050505"/>
    <path id="Path_2006" data-name="Path 2006" d="M35.227,136.607a.348.348,0,0,1,.049.147c.122.441.122.441.612.416.1,0,.171-.024.245-.024.636-.122.734-.245.636-.881-.1-.514-.245-1.028-.343-1.542a6.514,6.514,0,0,1,.245-2.276c.049-.269.122-.539.171-.808.1,0,.1-.073.122-.147a8.952,8.952,0,0,1,2.325-3.231,7.343,7.343,0,0,1,2.913-1.493,16.4,16.4,0,0,1,2.448-.367,11.145,11.145,0,0,1,2.986.171,4.489,4.489,0,0,0,.783.171,6.624,6.624,0,0,1,1.64,1.664,1.517,1.517,0,0,0-.734.22,1.364,1.364,0,0,0-.71,1.42c.049.22.1.318.318.147.024.024-.024.147.122.1a2.047,2.047,0,0,1,2.815,1.126,4.931,4.931,0,0,1,.318,1.444,20.714,20.714,0,0,1-.2,5.9,12.846,12.846,0,0,1-2.5,5.361,6.324,6.324,0,0,1-3.256,1.909,4.738,4.738,0,0,1-3.378-.22,8.2,8.2,0,0,1-3.035-2.448c-.392-.49-.734-.979-1.15-1.518a1.274,1.274,0,0,0,.147.71,4.535,4.535,0,0,0,.906,1.42,9.479,9.479,0,0,0,2.3,2.105H41.1a.917.917,0,0,0-.759.367c-.1.122-.2.1-.294.1-.49-.049-.979-.073-1.469-.171-.1-.294-.343-.441-.539-.661a8.7,8.7,0,0,1-1.885-4.5c-.049-.367-.1-.71-.171-1.077-.024-.122-.073-.343-.318-.22a.2.2,0,0,0-.245-.122,1.693,1.693,0,0,0-.465.245,1.271,1.271,0,0,1-1.787,0,.988.988,0,0,1-.318-.318.09.09,0,0,0-.1-.1c0-.024-.024-.024-.024-.049a.539.539,0,0,0-.024-.2,3.058,3.058,0,0,1-.1-1.248A5.7,5.7,0,0,0,32.8,137l.049-.049a.633.633,0,0,1,.343-.269.192.192,0,0,1,.2.024c.1.049,0,.122,0,.171a2.288,2.288,0,0,0-.1,1.077,1.44,1.44,0,0,0,.343.906v-.734a3.041,3.041,0,0,1,.1-.808.416.416,0,0,1,.343-.343c.2-.024.294.1.392.245.1.171.171.343.269.514.073.122.122.294.294.367a1.811,1.811,0,0,0-.685-1.836A3.869,3.869,0,0,1,35.227,136.607Zm15.788-2.741c.049.122.1.22.147.343.122.22.024.318-.2.343-.318.024-.636.073-.955.1-.122.024-.294,0-.343.122a.59.59,0,0,0,.1.441.606.606,0,0,0,.392.245,1.877,1.877,0,0,0,1.713-.612c.073-.073.122-.171.024-.269a17.888,17.888,0,0,1-.979-1.934c-.024-.073-.024-.171-.147-.2a2.517,2.517,0,0,0-.024.416,1.244,1.244,0,0,0-1.028,1.077.338.338,0,0,0,.245.343A1.348,1.348,0,0,0,51.015,133.866ZM39.56,131.981c0,.049.024.073.024.122.049.1.1.2.22.22.122,0,.122-.122.171-.2a2.023,2.023,0,0,0,.171-.318,2.224,2.224,0,0,1,2.5-1.248.192.192,0,0,0,.245-.171c.049-.343-.171-.514-.416-.661a.916.916,0,0,0-1.248-.514,2.527,2.527,0,0,0-1.86,2.007A.659.659,0,0,0,39.56,131.981Zm4.528,2.374c.1.171.343.367.245.538-.122.22-.441.22-.71.22-.073,0-.122-.024-.2-.024-.269-.049-.539-.073-.808-.147a.231.231,0,0,0-.318.22.458.458,0,0,0,.343.563,2.381,2.381,0,0,0,1.787.073c.759-.294.906-.955.294-1.469a2.622,2.622,0,0,1-.685-1l-.367-.881c-.122.122-.073.269-.1.367a2.552,2.552,0,0,0-.832.269.89.89,0,0,0-.49.783.73.73,0,0,0,.636.563A1.568,1.568,0,0,0,44.088,134.355Zm1.934,4.626c.318-.024.465-.343.734-.465a.274.274,0,0,0,.171-.343.52.52,0,0,0-.441-.392c-.171-.024-.245.1-.318.22a6.013,6.013,0,0,0-.22.71c-.147-.024-.147.1-.171.171a1.354,1.354,0,0,0,.1,1.224.486.486,0,0,0,.392.245,6.3,6.3,0,0,0,1.175-.049,7.8,7.8,0,0,0,2.888-1.248c.049-.024.122-.073.122-.147a3.643,3.643,0,0,1,.22-.734.617.617,0,0,0-.22-.734,8.165,8.165,0,0,1-1.1-1.15,12.375,12.375,0,0,1-1.616-2.276,6.5,6.5,0,0,1-.269-.734.179.179,0,0,0-.22-.147c-.147.024-.1.122-.122.22a3.779,3.779,0,0,0,.1.734,6.805,6.805,0,0,0,1.469,2.546c.318.392.661.734.955,1.126a.747.747,0,0,1-.318,1.224,3.683,3.683,0,0,0-.539.269,5.271,5.271,0,0,1-1.713.587C46.389,139.887,46.144,139.691,46.022,138.981Zm2.472,3.941h-.343a20.025,20.025,0,0,1-2.423-.049,2.685,2.685,0,0,1-2.35-1.371c-.1-.2-.294-.1-.392-.024-.147.073-.049.22.024.294A11.913,11.913,0,0,1,43.99,143a2,2,0,0,0,1.2.734,5.914,5.914,0,0,0,2.619-.122A1.064,1.064,0,0,0,48.494,142.922Zm-4.944-2.5a1.961,1.961,0,0,0,.93.955,6.075,6.075,0,0,0,2.717.636c.759.024.734.024.685-.734-.024-.245-.073-.318-.343-.318A10.634,10.634,0,0,1,43.549,140.426Zm7.564-.685c-.245.122-.514.269-.759.392a8.016,8.016,0,0,1-1.42.612c-.22.073-.563-.049-.661.22a2.438,2.438,0,0,0-.024.734v.024c0,.122.049.171.171.147a3.361,3.361,0,0,0,.685-.122A3.208,3.208,0,0,0,51.113,139.74Zm-8.151,1.126a1.245,1.245,0,0,0-.832-.147c-.147.024-.245.073-.245.269a3.271,3.271,0,0,0,.147.979.2.2,0,0,0,.245.171c.122-.024.073-.122.1-.22A1.167,1.167,0,0,1,42.962,140.866Z" transform="translate(-21.311 -6.513)" fill="#f0d6b7"/>
    <path id="Path_2007" data-name="Path 2007" d="M39.221,215.759a1.128,1.128,0,0,1-.22.416,1.869,1.869,0,0,0-.2.269.62.62,0,0,0,.22.979,25.522,25.522,0,0,0,3.084,1.493,1.192,1.192,0,0,0,.171.073.593.593,0,0,1-.318.1,15.351,15.351,0,0,0-1.836.073c-.832.049-1.689.1-2.521.22-.636.073-1.3.122-1.958.2,0-1-.024-2.007,0-3.011,0-.538-.367-.783-.685-1.1-.024-.1-.024-.22-.171-.22a.258.258,0,0,0-.245.2,2.34,2.34,0,0,0-.1,1.3,8.573,8.573,0,0,1,.024,2.374c-.073.343-.147.367-.441.171-.22-.122-.441-.269-.661-.416-.049-.024-.122-.073-.171-.024a.264.264,0,0,0-.049.2.958.958,0,0,0,.245.392c.2.22.122.441-.147.538a.869.869,0,0,1-.245.049c-.245.049-.416.171-.441.416-.073,0-.171-.024-.22.049a.186.186,0,0,0,.049.1c.245.147.416.392.734.441.539.073,1.077.171,1.616.269.147,1.224.269,2.448.465,3.672.049.367.073.734.147,1.077.049.22-.049.245-.22.22a6.893,6.893,0,0,1-1.42-.245,18.966,18.966,0,0,1-3.721-1.713c.049-.539.147-1.077.171-1.591.024-.734-.049-1.469-.1-2.227-.073-1-.22-1.983-.367-2.962-.269-1.567-.563-3.109-.955-4.651a.272.272,0,0,1,.171-.367c1.15-.514,2.3-1,3.427-1.518a11.706,11.706,0,0,0,1.493-.685,6.526,6.526,0,0,0,1.909,1.224c.416.2.808.416,1.224.587a.375.375,0,0,1,.22.294,14.9,14.9,0,0,0,.734,2.668c.245.685.539.832,1.248.661-.024.024,0,.024.049.024Z" transform="translate(-18.402 -69.901)" fill="#345162"/>
    <path id="Path_2008" data-name="Path 2008" d="M60.928,261.141a13.763,13.763,0,0,1-4.112-.539c-.122-.024-.147-.122-.2-.22a46.559,46.559,0,0,1-1.322-5.14c-.318-1.616-.539-3.256-.734-4.871-.024-.147-.024-.22.147-.245a31.728,31.728,0,0,1,6.462-.563,8.289,8.289,0,0,1,1.567.147c.024,1.591-.049,3.207.049,4.8.049.661.073,1.3.122,1.958a28.862,28.862,0,0,0,.416,3.256c.049.245-.049.343-.245.441a14.687,14.687,0,0,1-1.934.808C61.1,261.018,60.928,260.994,60.928,261.141Z" transform="translate(-37.907 -99.544)" fill="#fff"/>
    <path id="Path_2009" data-name="Path 2009" d="M13.233,168.5a5.875,5.875,0,0,0,.563,2.888,3.225,3.225,0,0,0,2.276,1.885c.147.024.171.1.2.22A4.027,4.027,0,0,0,16.9,175.3a2.8,2.8,0,0,1,.367.71.471.471,0,0,1-.2.587,5.212,5.212,0,0,1-.612.392c-1.273.734-2.546,1.444-3.77,2.276-.294.2-.636.343-.93.514a1,1,0,0,0-.563,1.248,23.4,23.4,0,0,0,1.224,3.549,14.5,14.5,0,0,1,.881,3.794c0,.073.024.147.024.22s.049.147-.024.245A15.978,15.978,0,0,1,11.96,187.3a15.539,15.539,0,0,1-3.06-7.417v-.049a4.5,4.5,0,0,0,.1-1,23.159,23.159,0,0,1,.441-2.864,16.666,16.666,0,0,1,2.179-5.434A8.561,8.561,0,0,1,13.233,168.5Z" transform="translate(-3.429 -38.333)" fill="#d33a33"/>
    <path id="Path_2010" data-name="Path 2010" d="M108.067,182.5c.318-.93.661-1.86.955-2.815.416-1.3.808-2.619,1.224-3.916a3.912,3.912,0,0,0,.122-.514,1.39,1.39,0,0,0-.416-1.444c-.71-.636-1.42-1.273-2.154-1.909-.661-.587-.71-.734-.245-1.493A12.661,12.661,0,0,0,109,166.027a16.6,16.6,0,0,0,.318-2.937,4.12,4.12,0,0,1,.049-.49,6.143,6.143,0,0,1,.759.857,15.373,15.373,0,0,1,3.256,7.833,15.832,15.832,0,0,1-2.032,9.987.519.519,0,0,1-.465.294,8.153,8.153,0,0,0-2.374.759c-.122.049-.269.122-.392.171A.034.034,0,0,1,108.067,182.5Z" transform="translate(-77.702 -33.877)" fill="#d33a33"/>
    <path id="Path_2011" data-name="Path 2011" d="M28.911,206.478a10.338,10.338,0,0,1-1.493.685c-1.15.514-2.276,1.028-3.427,1.518a.272.272,0,0,0-.171.367c.367,1.542.685,3.084.955,4.651.171.979.294,1.983.367,2.962a16.774,16.774,0,0,1,.1,2.227c-.024.538-.1,1.077-.171,1.591-.49-.147-.49-.171-.514-.661a31.937,31.937,0,0,0-1.493-9.106,18.865,18.865,0,0,0-.71-1.836c-.073-.147-.073-.245.073-.343a23.906,23.906,0,0,1,4.847-3.084c.661-.294.465-.318.955.171C28.471,205.915,28.691,206.209,28.911,206.478Z" transform="translate(-13.551 -66.079)" fill="#49728b"/>
    <path id="Path_2012" data-name="Path 2012" d="M101.044,210.109a33.978,33.978,0,0,1-2.007,6.389,1.342,1.342,0,0,1-1.4.857,5.476,5.476,0,0,0-1.542.122l.734-1.248,1.909-3.158a.509.509,0,0,0-.122-.734.636.636,0,0,1-.171-.783,5.215,5.215,0,0,0-.024-2.937,1.287,1.287,0,0,1-.1-.416.492.492,0,0,1,.2.1l2.276,1.689A.229.229,0,0,0,101.044,210.109Z" transform="translate(-69.285 -68.315)" fill="#345162"/>
    <path id="Path_2013" data-name="Path 2013" d="M115.9,245.781a.221.221,0,0,0,.024.122c-.122.024-.1.122-.1.2a5.531,5.531,0,0,1-.416,1.542.33.33,0,0,1-.367.22c-.294,0-.587-.049-.857-.049-.759-.024-1.518-.073-2.276-.122-.245-.024-.294-.122-.318-.318-.049-.343-.122-.71-.147-1.053-.049-.587-.22-1.175-.245-1.762a4.893,4.893,0,0,1,1.322-.563,7.013,7.013,0,0,0,1.4-.587.753.753,0,0,1,.685-.024,1.53,1.53,0,0,1,.808.71,6.167,6.167,0,0,1,.49,1.616Q115.9,245.744,115.9,245.781Zm-4.186-.171c.93-.049,1.518-.734,2.276-1A2.82,2.82,0,0,0,111.714,245.61Zm3.035,1.664c-.636-.416-2.227-.465-2.521-.049C113.085,247.25,113.917,247.3,114.749,247.274Zm-.294-1.248c-.93-.343-1.958-.269-2.179.147A10.753,10.753,0,0,0,114.456,246.026Z" transform="translate(-80.688 -94.832)" fill="#f9f9f8"/>
    <path id="Path_2014" data-name="Path 2014" d="M61.1,123.427a4.489,4.489,0,0,1-.783-.171,9.406,9.406,0,0,0-2.986-.171,16.4,16.4,0,0,0-2.448.367,7.343,7.343,0,0,0-2.913,1.493,8.749,8.749,0,0,0-2.325,3.231c-.024.073-.024.122-.122.147a3.69,3.69,0,0,0-.171-2.056c-.049-.122.024-.2.073-.294a6.151,6.151,0,0,1,1.86-2.032,15.558,15.558,0,0,1,2.595-1.567,5.143,5.143,0,0,1,2.57-.416,10.452,10.452,0,0,1,4.284,1.248Z" transform="translate(-33.966 -3.174)" fill="#f4e2cc"/>
    <path id="Path_2015" data-name="Path 2015" d="M36.728,142.2a5.259,5.259,0,0,1-.049,1.958,14.659,14.659,0,0,0-.22,2.056,8.985,8.985,0,0,0,.318,1.616.6.6,0,0,1,0,.294c-.049.122-.122.245-.269.22s-.1-.147-.1-.245a2.06,2.06,0,0,0-1.86-1.664,3.449,3.449,0,0,0-1.224.171,3.3,3.3,0,0,1-.049-1.3,3.216,3.216,0,0,1,1.224-2.276A5.371,5.371,0,0,1,36.728,142.2Z" transform="translate(-21.808 -18.47)" fill="#6e6c6e"/>
    <path id="Path_2016" data-name="Path 2016" d="M80.6,261.631c.024-.171.171-.147.269-.171a13.426,13.426,0,0,0,1.934-.808c.2-.1.294-.2.245-.441a24.162,24.162,0,0,1-.416-3.256c-.049-.661-.073-1.3-.122-1.958-.1-1.591-.024-3.207-.049-4.8.685.024.71.049.759.734.147,2.79.392,5.605.465,8.4a9.371,9.371,0,0,0,.2,1.664c.024.122.049.2-.122.245A9.815,9.815,0,0,1,80.6,261.631Z" transform="translate(-57.579 -100.035)" fill="#d8d5d4"/>
    <path id="Path_2017" data-name="Path 2017" d="M70.851,215.475a.689.689,0,0,1-.318.759c-.318.22-.612.49-.93.734a4.863,4.863,0,0,1-2.032.881c-.392.073-.441.049-.563-.343-.024-.1-.073-.2-.1-.294a4.454,4.454,0,0,0-.049-1.4c0-.392-.1-.783-.073-1.175.024-.441.2-.636.587-.661a5.457,5.457,0,0,1,1.885.22c.367.122.441.294.294.661-.073.171-.024.245.122.367A1.837,1.837,0,0,0,70.851,215.475Z" transform="translate(-47.144 -72.678)" fill="#d33a33"/>
    <path id="Path_2018" data-name="Path 2018" d="M12.85,161.676a8.82,8.82,0,0,0-1.616,2.056,17.7,17.7,0,0,0-2.179,5.434,18.368,18.368,0,0,0-.441,2.864,3.58,3.58,0,0,1-.1,1,15.611,15.611,0,0,1,4.577-13.365c.073-.073.171-.245.269-.2.122.049.049.22.1.343a.417.417,0,0,1-.073.416A2.961,2.961,0,0,0,12.85,161.676Z" transform="translate(-3.046 -31.509)" fill="#ec3f3b"/>
    <path id="Path_2019" data-name="Path 2019" d="M76.749,231.008a16.134,16.134,0,0,1-2.79-1.1c-.465-.22-.93-.49-1.4-.71-.2-.1-.2-.2-.147-.392a3.214,3.214,0,0,1,.636-.979,9.477,9.477,0,0,1,1.4-1.053c.147-.1.171,0,.245.073a11.158,11.158,0,0,1,1.1,1.885c.343.734.636,1.469.955,2.227C76.8,230.983,76.773,231.008,76.749,231.008Z" transform="translate(-51.377 -82.311)" fill="#82b0c3"/>
    <path id="Path_2020" data-name="Path 2020" d="M109.892,248.4c.024.587.2,1.175.245,1.762.024.343.1.71.147,1.053.024.2.073.318.318.318.759.049,1.518.1,2.276.122.294,0,.563.049.857.049a.347.347,0,0,0,.367-.22,5.767,5.767,0,0,0,.416-1.542c0-.073-.024-.171.1-.2a3.483,3.483,0,0,1,.171,2.056,1.745,1.745,0,0,1-1.469,1.371,3.994,3.994,0,0,1-1.934-.049,10.47,10.47,0,0,1,1.958-.514,2.973,2.973,0,0,0-1.2-.171l-1.86.073c-.22.024-.269-.049-.294-.269a20.565,20.565,0,0,0-.49-3.451C109.5,248.547,109.745,248.5,109.892,248.4Z" transform="translate(-79.405 -98.675)" fill="#d8d5d4"/>
    <path id="Path_2021" data-name="Path 2021" d="M43.25,181.689c.245-.122.269.1.318.22.073.343.122.71.171,1.077a8.785,8.785,0,0,0,1.885,4.5c.171.22.441.367.539.661a3.04,3.04,0,0,1-2.448-1.836,13.614,13.614,0,0,1-1.053-2.888.908.908,0,0,1,.294-1.028A.662.662,0,0,0,43.25,181.689Z" transform="translate(-28.894 -48.267)" fill="#f4e2cc"/>
    <path id="Path_2022" data-name="Path 2022" d="M94.994,254.6a9.955,9.955,0,0,1,.171,1.493c.073.661.073,1.346.171,2.007.024.147-.024.22-.171.22l-1.248.22c-.122.025-.171-.049-.2-.171a8.382,8.382,0,0,1-.1-1.077,17.688,17.688,0,0,1-.073-2.276A3.77,3.77,0,0,0,94.994,254.6Z" transform="translate(-67.347 -103.358)" fill="#345162"/>
    <path id="Path_2023" data-name="Path 2023" d="M95.253,212a4.69,4.69,0,0,1,.147,2.179c-.073.416-.147.441-.539.416a10.41,10.41,0,0,1-2.13-.318.678.678,0,0,0-.024-.22c-.073-.294-.024-.367.294-.416a.454.454,0,0,0,.171-.049c.441-.1.539-.245.441-.71a.6.6,0,0,1,.441-.759A3.923,3.923,0,0,1,95.253,212Z" transform="translate(-66.7 -71.185)" fill="#d33a33"/>
    <path id="Path_2024" data-name="Path 2024" d="M95,229.224c.122-.538.22-1,.294-1.493a28.79,28.79,0,0,0,.269-2.888c0-.171.073-.245.245-.294a1.539,1.539,0,0,1,1.64.636.149.149,0,0,1,0,.2,36.75,36.75,0,0,1-2.325,3.745C95.1,229.151,95.049,229.175,95,229.224Z" transform="translate(-68.454 -80.625)" fill="#82b0c3"/>
    <path id="Path_2025" data-name="Path 2025" d="M69.549,212.631a1.657,1.657,0,0,1-1.175-.269.259.259,0,0,1-.122-.367c.147-.367.073-.538-.294-.661a4.492,4.492,0,0,0-1.885-.22c-.392.024-.563.22-.587.661-.024.392.073.783.073,1.175a5.334,5.334,0,0,1,.049,1.4,5.723,5.723,0,0,1-.465-3.427c.1-.612.392-.808,1-.661a8.277,8.277,0,0,1,2.5,1.028,2.02,2.02,0,0,0,.661.294c.073.024.171-.024.2.122a.214.214,0,0,1-.147.22c-.147.049-.318.1-.465.147a2.017,2.017,0,0,0-.465.147,3.9,3.9,0,0,1,.955.245C69.426,212.484,69.573,212.46,69.549,212.631Z" transform="translate(-45.842 -69.833)" fill="#ec3f3b"/>
    <path id="Path_2026" data-name="Path 2026" d="M94.6,274.294c0-.661,0-.661.563-.808.049-.024.122-.024.171-.049.2-.049.294-.024.343.245a23.388,23.388,0,0,1,.441,2.619c.024.563.073.416-.441.612a3.1,3.1,0,0,1-.685.147c-.2.024-.269-.049-.269-.245C94.673,275.934,94.624,275.077,94.6,274.294Z" transform="translate(-68.152 -117.569)" fill="#d8d5d4"/>
    <path id="Path_2027" data-name="Path 2027" d="M33.111,164.192a2.014,2.014,0,0,0-.906-.318c-.122-.049-.269-.122-.392-.171a.878.878,0,0,0-1.15.832h-.049c0,.024,0,.049.049.049h0a5.7,5.7,0,0,1-.2,1.126,3.058,3.058,0,0,0,.1,1.248.539.539,0,0,1,.024.2,3.2,3.2,0,0,1-.734-2.766,1.956,1.956,0,0,1,1.811-1.493,1.2,1.2,0,0,1,1.224.71A1.92,1.92,0,0,1,33.111,164.192Z" transform="translate(-19.195 -34.098)" fill="#f3e0cb"/>
    <path id="Path_2028" data-name="Path 2028" d="M104.443,205.521c-.122.024-.171-.049-.245-.1l-2.276-1.689a.733.733,0,0,0-.2-.1,3.6,3.6,0,0,1-.245-.318.9.9,0,0,0-.881-.343c.147-.294.441-.416.636-.612.343-.318.343-.318.661,0a21.849,21.849,0,0,0,2.081,1.909A1.179,1.179,0,0,1,104.443,205.521Z" transform="translate(-72.683 -63.727)" fill="#49728b"/>
    <path id="Path_2029" data-name="Path 2029" d="M103.131,253.026c-.147-.857-.269-1.738-.416-2.595a3.378,3.378,0,0,0-.073-.49c-.073-.294.073-.343.318-.343.612,0,.612-.024.832.563a6.956,6.956,0,0,1,.416,2.448C103.841,252.708,103.5,252.9,103.131,253.026Z" transform="translate(-74.21 -99.581)" fill="#f9f9f8"/>
    <path id="Path_2030" data-name="Path 2030" d="M89.386,225.479a17.585,17.585,0,0,1-.294,3.4c-.073,0-.1-.049-.122-.1-.294-.612-.612-1.2-.906-1.811a12.055,12.055,0,0,1-.538-1.3c-.1-.294.122-.465.294-.636a.371.371,0,0,1,.49-.049C88.676,225.161,89.043,225.308,89.386,225.479Zm-.416,1.616a.315.315,0,0,0-.343-.318.29.29,0,0,0-.318.294.315.315,0,0,0,.318.343C88.823,227.437,88.945,227.29,88.97,227.095Zm-.661-1.2c.2-.024.318-.122.318-.318a.3.3,0,0,0-.343-.318.323.323,0,0,0-.318.318A.346.346,0,0,0,88.309,225.9Z" transform="translate(-62.791 -80.943)" fill="#f9f9f8"/>
    <path id="Path_2031" data-name="Path 2031" d="M39.5,128.262a6.456,6.456,0,0,1-1.1.367,2.8,2.8,0,0,1,.612-.93,9.2,9.2,0,0,1,4.137-2.472.207.207,0,0,1,.294.1.184.184,0,0,1-.147.269c-.294.073-.465.318-.71.416A6.758,6.758,0,0,0,39.5,128.262Z" transform="translate(-25.708 -5.634)" fill="#d8d5d4"/>
    <path id="Path_2032" data-name="Path 2032" d="M86.6,223.428c-.367-.171-.71-.318-1.077-.49a.371.371,0,0,0-.49.049c-.171.171-.392.343-.294.636a12.055,12.055,0,0,0,.539,1.3c.294.612.587,1.2.906,1.811.024.049.049.1.122.1-.049.171-.073.367-.147.587a1.74,1.74,0,0,1-.318-.587c-.343-.759-.685-1.542-1.028-2.325a8.468,8.468,0,0,0-.881-1.518c-.049-.073-.171-.147-.1-.245.1-.122.147-.318.367-.294a1.021,1.021,0,0,0,.661-.147.744.744,0,0,1,.808.049,1.734,1.734,0,0,0,.881.416c.122,0,.122.073.1.147C86.62,223.135,86.62,223.282,86.6,223.428Z" transform="translate(-60 -78.893)" fill="#d8d5d4"/>
    <path id="Path_2033" data-name="Path 2033" d="M36.154,140.76a4.44,4.44,0,0,0-2.2.857,3.01,3.01,0,0,0-1.224,2.276,3.855,3.855,0,0,0,.049,1.3.33.33,0,0,1-.22.122,11.016,11.016,0,0,1-.024-2.374,2.538,2.538,0,0,1,.881-1.591,4.546,4.546,0,0,1,2.2-1C36.08,140.246,36.08,140.246,36.154,140.76Z" transform="translate(-21.234 -17.031)" fill="#d8d5d4"/>
    <path id="Path_2034" data-name="Path 2034" d="M93.979,209.813a4,4,0,0,0-1.2.122.594.594,0,0,0-.441.759c.073.465-.024.612-.441.71-.049.024-.122.024-.171.049-.294.049-.343.122-.294.416a.678.678,0,0,1,.024.22c-.2,0-.245-.073-.245-.269,0-.783,0-.783.857-.857-.171-.147-.318-.2-.71-.147-.343.024-.245-.245-.343-.392-.1-.171.1-.171.171-.22.318-.22.636-.416.955-.636a2.842,2.842,0,0,1,.661-.343C93.489,208.956,93.808,209.128,93.979,209.813Z" transform="translate(-65.426 -68.998)" fill="#ec3f3b"/>
    <path id="Path_2035" data-name="Path 2035" d="M53.8,231.4c.318.318.71.563.685,1.1-.024,1,0,2.007,0,3.011-.147.1-.318.024-.49.073-.122.049-.147-.049-.171-.147a2.713,2.713,0,0,1-.122-.612,27.991,27.991,0,0,1,.1-2.864A1.1,1.1,0,0,0,53.8,231.4Z" transform="translate(-37.263 -85.836)" fill="#49728b"/>
    <path id="Path_2036" data-name="Path 2036" d="M42.9,130.752a6.47,6.47,0,0,1,3.084-2.252v.024a5.766,5.766,0,0,0-1.493,1.86.7.7,0,0,1-.783.343A4.39,4.39,0,0,0,42.9,130.752Z" transform="translate(-29.107 -8.124)" fill="#6e6c6e"/>
    <path id="Path_2037" data-name="Path 2037" d="M94.882,251.344a3.289,3.289,0,0,1-1.444.416,6.3,6.3,0,0,1-.049-1.175c0-.147.073-.171.2-.22a3.249,3.249,0,0,1,.979-.073.162.162,0,0,1,.171.147C94.784,250.732,94.857,251.026,94.882,251.344Z" transform="translate(-67.234 -100.102)" fill="#49728b"/>
    <path id="Path_2038" data-name="Path 2038" d="M98.357,136.687c-.2.147-.269.049-.318-.147a1.364,1.364,0,0,1,.71-1.42,1.517,1.517,0,0,1,.734-.22c.22.269.416.514.685.832a1.973,1.973,0,0,0-1.2.049A1.011,1.011,0,0,0,98.357,136.687Z" transform="translate(-70.734 -12.957)" fill="#f3e0cb"/>
    <path id="Path_2039" data-name="Path 2039" d="M45.6,252.589c-.539-.1-1.077-.2-1.616-.269-.294-.049-.49-.294-.734-.441a.186.186,0,0,1-.049-.1c.049-.1.147-.073.22-.049.147.171.343.1.514.073a7.231,7.231,0,0,1,1.028-.049c.465,0,.514.024.563.49A.583.583,0,0,1,45.6,252.589Z" transform="translate(-29.333 -101.175)" fill="#49728b"/>
    <path id="Path_2040" data-name="Path 2040" d="M80,209.694c1.077.367,2.081-.171,3.158-.294-.392.318-.71.587-1.077.832a1.356,1.356,0,0,1-.881.049A2.14,2.14,0,0,1,80,209.694Z" transform="translate(-57.125 -69.221)" fill="#f0d6b7"/>
    <path id="Path_2041" data-name="Path 2041" d="M53.907,209.907a.48.48,0,0,1-.22-.22.264.264,0,0,1,0-.269c.073-.073.147.024.2.049a6.393,6.393,0,0,0,1.664.269c.465.049.49.1.294.538a.147.147,0,0,0-.024.1,3.706,3.706,0,0,1-.906-.171A9.79,9.79,0,0,0,53.907,209.907Z" transform="translate(-37.225 -69.214)" fill="#f9f9f8"/>
    <path id="Path_2042" data-name="Path 2042" d="M104.7,262.316c.367-.122.71-.318,1.1-.416,0,.1.024.2.024.294,0,.22.122.514-.024.636a1.632,1.632,0,0,1-.857.294c-.1,0-.171,0-.171-.122C104.749,262.757,104.724,262.536,104.7,262.316Z" transform="translate(-75.779 -108.871)" fill="#d8d5d4"/>
    <path id="Path_2043" data-name="Path 2043" d="M85.89,215.2a.666.666,0,0,1,.514.832.654.654,0,0,1-.832.465c-.2-.049-.147-.22-.171-.343A1.023,1.023,0,0,0,85.89,215.2Z" transform="translate(-61.204 -73.602)" fill="#d33a33"/>
    <path id="Path_2044" data-name="Path 2044" d="M54.7,211.5a6.776,6.776,0,0,1,1,.294,3.707,3.707,0,0,0,.906.171c.049.269-.049.318-.294.245A4.139,4.139,0,0,1,54.7,211.5Z" transform="translate(-38.018 -70.807)" fill="#d8d5d4"/>
    <path id="Path_2045" data-name="Path 2045" d="M85.539,215.2a1.02,1.02,0,0,1-.514.955,2.473,2.473,0,0,1-.073-.416c-.049-.392,0-.416.392-.514.024,0,.049-.024.073-.024Z" transform="translate(-60.853 -73.602)" fill="#ec3f3b"/>
    <path id="Path_2046" data-name="Path 2046" d="M33.3,180.6c.073,0,.073.049.1.1Z" transform="translate(-21.856 -47.471)" fill="#f3e0cb"/>
    <path id="Path_2047" data-name="Path 2047" d="M71.6,232.524l.024-.024a.024.024,0,0,0-.024.024Z" transform="translate(-50.782 -86.667)" fill="#345162"/>
    <path id="Path_2048" data-name="Path 2048" d="M110.549,243.924c-.024.024-.024.049-.049,0l.024-.024Z" transform="translate(-80.16 -95.277)" fill="#d33a33"/>
    <path id="Path_2049" data-name="Path 2049" d="M90.249,244.1v.073a.085.085,0,0,1-.049-.024Z" transform="translate(-64.829 -95.428)" fill="#82b0c3"/>
    <path id="Path_2050" data-name="Path 2050" d="M130.324,253.173c0-.024-.024-.049-.024-.073A.09.09,0,0,1,130.324,253.173Z" transform="translate(-95.113 -102.225)" fill="#d8d5d4"/>
    <path id="Path_2051" data-name="Path 2051" d="M86.773,215.2c-.024,0-.049.024-.073.024C86.7,215.2,86.749,215.2,86.773,215.2Z" transform="translate(-62.185 -73.602)" fill="#d33a33"/>
    <path id="Path_2052" data-name="Path 2052" d="M86.545,159.612c.122.71.392.881,1.1.783a5.271,5.271,0,0,0,1.713-.587c.171-.1.367-.171.539-.269a.747.747,0,0,0,.318-1.224c-.294-.392-.636-.734-.955-1.126a6.669,6.669,0,0,1-1.469-2.546,2.527,2.527,0,0,1-.1-.734c0-.1-.049-.2.122-.22.122-.024.171.073.22.147a4.444,4.444,0,0,0,.269.734,13.663,13.663,0,0,0,1.616,2.276,6.982,6.982,0,0,0,1.1,1.15.626.626,0,0,1,.22.734,4.187,4.187,0,0,0-.22.734c0,.073-.073.1-.122.147a7.419,7.419,0,0,1-2.888,1.248,6.3,6.3,0,0,1-1.175.049.436.436,0,0,1-.392-.245,1.279,1.279,0,0,1-.1-1.224c.024-.073.024-.2.171-.171A.687.687,0,0,0,86.545,159.612Z" transform="translate(-61.835 -27.144)" fill="#292525"/>
    <path id="Path_2053" data-name="Path 2053" d="M80.448,189.114a.954.954,0,0,1-.661.636,5.576,5.576,0,0,1-2.619.122,2,2,0,0,1-1.2-.734,11.287,11.287,0,0,0-.979-1.224c-.073-.073-.171-.22-.024-.294.122-.073.294-.171.392.024a2.657,2.657,0,0,0,2.35,1.371,20.022,20.022,0,0,0,2.423.049A.672.672,0,0,0,80.448,189.114Z" transform="translate(-53.265 -52.705)" fill="#292525"/>
    <path id="Path_2054" data-name="Path 2054" d="M77.4,183.8a10.634,10.634,0,0,0,3.99.539c.269,0,.318.073.343.318.049.759.049.759-.685.734a5.907,5.907,0,0,1-2.717-.636A1.961,1.961,0,0,1,77.4,183.8Z" transform="translate(-55.162 -49.888)" fill="#292525"/>
    <path id="Path_2055" data-name="Path 2055" d="M73.544,151.767c.024-.122-.024-.245.1-.367l.367.881a2.822,2.822,0,0,0,.685,1,.8.8,0,0,1-.294,1.469,2.381,2.381,0,0,1-1.787-.073.477.477,0,0,1-.343-.563c.049-.171.122-.269.318-.22l.808.147c.073,0,.122.024.2.024.269.024.587.024.71-.22.1-.171-.147-.367-.245-.538A5.445,5.445,0,0,1,73.544,151.767Z" transform="translate(-51.281 -25.418)" fill="#292525"/>
    <path id="Path_2056" data-name="Path 2056" d="M64.013,139.615c.245.147.465.318.416.661-.024.122-.073.2-.245.171a2.224,2.224,0,0,0-2.5,1.248,2.023,2.023,0,0,0-.171.318c-.049.073-.049.22-.171.2-.1,0-.171-.122-.22-.22a.183.183,0,0,1-.024-.122,2.76,2.76,0,0,1,1.616-2.2A1.506,1.506,0,0,1,64.013,139.615Z" transform="translate(-42.852 -16.424)" fill="#292525"/>
    <path id="Path_2057" data-name="Path 2057" d="M99.382,181a3.535,3.535,0,0,1-2.007,2.056,3.087,3.087,0,0,1-.685.122c-.122.024-.171-.024-.171-.147v-.024a1.841,1.841,0,0,1,.024-.734c.1-.269.441-.147.661-.22a10.345,10.345,0,0,0,1.42-.612C98.893,181.269,99.138,181.147,99.382,181Z" transform="translate(-69.581 -47.773)" fill="#292525"/>
    <path id="Path_2058" data-name="Path 2058" d="M103.385,151.616c.024-.147-.024-.294.024-.416.122.024.122.122.147.2a17.888,17.888,0,0,0,.979,1.934.189.189,0,0,1-.024.269,1.9,1.9,0,0,1-1.713.612.673.673,0,0,1-.392-.245.426.426,0,0,1-.1-.441c.049-.122.22-.122.343-.122.318-.024.636-.073.955-.1.22-.024.318-.122.2-.343-.049-.1-.1-.22-.147-.343A6.721,6.721,0,0,1,103.385,151.616Z" transform="translate(-73.95 -25.267)" fill="#292525"/>
    <path id="Path_2059" data-name="Path 2059" d="M33.4,167.008a.87.87,0,0,1,1.15-.832,1.9,1.9,0,0,1,.392.171,1.726,1.726,0,0,1,.685,1.836c-.2-.073-.22-.22-.294-.367-.1-.171-.171-.343-.269-.514a.378.378,0,0,0-.392-.245c-.22.024-.294.171-.343.343a2.288,2.288,0,0,0-.1.808v.734a1.357,1.357,0,0,1-.343-.906,2.288,2.288,0,0,1,.1-1.077c.024-.049.1-.122,0-.171a.26.26,0,0,0-.2-.024.736.736,0,0,0-.343.269C33.449,167.008,33.424,167.008,33.4,167.008Z" transform="translate(-21.932 -36.547)" fill="#292525"/>
    <path id="Path_2060" data-name="Path 2060" d="M73.476,152.9a5.18,5.18,0,0,0,.539,1.493,2.016,2.016,0,0,1-1.2.122.7.7,0,0,1-.636-.563.846.846,0,0,1,.49-.783A1.969,1.969,0,0,1,73.476,152.9Z" transform="translate(-51.214 -26.551)" fill="#f4e2cc"/>
    <path id="Path_2061" data-name="Path 2061" d="M63.332,138.221a1.452,1.452,0,0,0-1.273.1,2.724,2.724,0,0,0-1.616,2.2.75.75,0,0,1-.22-.783,2.527,2.527,0,0,1,1.86-2.007A.9.9,0,0,1,63.332,138.221Z" transform="translate(-42.171 -15.03)" fill="#f3e0cb"/>
    <path id="Path_2062" data-name="Path 2062" d="M103.626,152.9a5.223,5.223,0,0,0,.245,1.028,1.385,1.385,0,0,1-1.028.416A.338.338,0,0,1,102.6,154,1.222,1.222,0,0,1,103.626,152.9Z" transform="translate(-74.191 -26.551)" fill="#f4e2cc"/>
    <path id="Path_2063" data-name="Path 2063" d="M71.59,185.169c-.465.22-.539.636-.612,1.077,0,.073.049.2-.1.22a.219.219,0,0,1-.245-.171,3.271,3.271,0,0,1-.147-.979.288.288,0,0,1,.245-.269A1.281,1.281,0,0,1,71.59,185.169Z" transform="translate(-49.939 -50.816)" fill="#f4e2cc"/>
    <path id="Path_2064" data-name="Path 2064" d="M87.273,174.188c-.024-.1-.049-.2-.073-.269a3.419,3.419,0,0,1,.22-.71c.073-.147.147-.245.318-.22a.6.6,0,0,1,.441.392.265.265,0,0,1-.171.343C87.739,173.87,87.592,174.163,87.273,174.188Z" transform="translate(-62.563 -41.72)" fill="#f4e2cc"/>
    <path id="Path_2065" data-name="Path 2065" d="M33.4,169.7h.073l-.049.049h0c0-.024,0-.049-.024-.049Z" transform="translate(-21.932 -39.239)" fill="#f3e0cb"/>
    <path id="Path_2066" data-name="Path 2066" d="M113.3,249.6a2.789,2.789,0,0,1,2.276-1C114.818,248.869,114.23,249.555,113.3,249.6Z" transform="translate(-82.274 -98.826)" fill="#292525"/>
    <path id="Path_2067" data-name="Path 2067" d="M117.921,258.458c-.832.024-1.689-.024-2.521-.049C115.718,257.993,117.285,258.042,117.921,258.458Z" transform="translate(-83.86 -106.016)" fill="#292525"/>
    <path id="Path_2068" data-name="Path 2068" d="M117.779,253.73a10.874,10.874,0,0,1-2.179.147C115.82,253.461,116.848,253.388,117.779,253.73Z" transform="translate(-84.011 -102.537)" fill="#292525"/>
    <path id="Path_2069" data-name="Path 2069" d="M33.349,169.7v.073a.053.053,0,0,1-.049-.049C33.3,169.7,33.324,169.7,33.349,169.7Z" transform="translate(-21.856 -39.239)" fill="#292525"/>
    <path id="Path_2070" data-name="Path 2070" d="M91.461,232.818c-.024.2-.147.343-.343.318a.315.315,0,0,1-.318-.343.29.29,0,0,1,.318-.294A.315.315,0,0,1,91.461,232.818Z" transform="translate(-65.282 -86.667)" fill="#292525"/>
    <path id="Path_2071" data-name="Path 2071" d="M89.818,226.861c-.22-.024-.318-.122-.318-.343a.3.3,0,0,1,.318-.318.329.329,0,0,1,.343.318C90.161,226.738,90.014,226.836,89.818,226.861Z" transform="translate(-64.3 -81.909)" fill="#272223"/>
  </g>
</svg>
