<svg xmlns="http://www.w3.org/2000/svg" width="149.603" height="29.796" viewBox="0 0 149.603 29.796">
  <g id="Joomla" transform="translate(-164.746 -260.111)">
    <path id="Path_1701" data-name="Path 1701" d="M205.461,298.024A6.769,6.769,0,0,1,198.7,296.2l2.936-2.936c.133.044.267.222.4.356a2.448,2.448,0,0,0,3.247-.178,2.4,2.4,0,0,0,.178-3.247,5.331,5.331,0,0,0-.489-.534l-5.916-5.916c-.4-.4-.445-.311,0-.8l2.135-2.135c.133-.133.222-.267.4-.311.222.089.311.267.489.4,1.913,1.868,3.736,3.825,5.693,5.649A6.92,6.92,0,0,1,210,293.221c2.535.934,3.558,2.313,3.38,4.4a4.026,4.026,0,0,1-7.917.4Z" transform="translate(-18.852 -11.32)" fill="#ef4525"/>
    <path id="Path_1702" data-name="Path 1702" d="M184.3,271.873a3.868,3.868,0,0,1,.4-.489l5.96-5.96A6.662,6.662,0,0,1,196,263.378a3.916,3.916,0,0,1,.756.089c.534.089.534.089.712-.445a3.638,3.638,0,0,1,.934-1.6,3.919,3.919,0,0,1,4.448-.934,4.034,4.034,0,0,1,2.4,4,3.93,3.93,0,0,1-2.891,3.469c-.534.133-.534.133-.445.667a6.553,6.553,0,0,1-1.69,5.782c-.311.356-.356.356-.712,0-.712-.756-1.468-1.468-2.179-2.224-.311-.356-.311-.356-.044-.712a2.483,2.483,0,0,0,.178-3.069,2.429,2.429,0,0,0-3.558-.445,5.327,5.327,0,0,0-.534.489l-5.871,5.871c-.4.4-.356.4-.8,0-.756-.756-1.512-1.468-2.268-2.224C184.478,272.1,184.344,272.006,184.3,271.873Z" transform="translate(-10.857 -0.025)" fill="#faa643"/>
    <path id="Path_1703" data-name="Path 1703" d="M178.958,278.164c-.044.222-.222.311-.311.445l-2.135,2.135c-.445.445-.4.4-.8,0l-2.936-2.936c-1.067-1.067-2.09-2.135-3.158-3.158a6.661,6.661,0,0,1-1.913-6.182c.089-.489.089-.489-.311-.623a3.914,3.914,0,0,1-2.624-4.092,3.965,3.965,0,0,1,7.695-.979c.222.623.222.623.934.578a6.443,6.443,0,0,1,5.293,1.735c.4.356.4.356,0,.756-.712.756-1.468,1.468-2.179,2.179-.356.356-.356.356-.756,0a2.442,2.442,0,0,0-3.291,3.6c.623.623,1.2,1.245,1.824,1.824l4.27,4.27A4.012,4.012,0,0,0,178.958,278.164Z" fill="#7cc245"/>
    <path id="Path_1704" data-name="Path 1704" d="M182.662,294.7c.89.934,1.735,1.779,2.58,2.624.222.222.267.4,0,.578l-.133.133c-2.09,2.09-4.136,4.181-6.227,6.227a6.5,6.5,0,0,1-5.649,1.824c-.489-.044-.489-.089-.667.4a4.021,4.021,0,0,1-3.87,2.624,4.069,4.069,0,0,1-3.781-3.247,4.013,4.013,0,0,1,2.357-4.4c.133-.044.222-.089.356-.133.178-.044.222-.178.222-.356a2.536,2.536,0,0,1-.044-.578,6.393,6.393,0,0,1,1.735-5.337c.356-.356.356-.356.712-.044.756.712,1.468,1.468,2.179,2.179.356.4.356.4,0,.8a2.445,2.445,0,0,0,3.558,3.336c.222-.222.445-.445.712-.667l5.471-5.471A2.361,2.361,0,0,1,182.662,294.7Z" transform="translate(-0.056 -19.204)" fill="#5292ce"/>
    <path id="Path_1705" data-name="Path 1705" d="M377.777,298.2h-1.735c-.267,0-.356-.089-.356-.356V290.6a2.791,2.791,0,0,0-1.646-2.713,6.643,6.643,0,0,0-6-.044,3.639,3.639,0,0,0-1.112.89,2.3,2.3,0,0,0-.489,1.423v7.383c0,.578,0,.578-.578.578h-1.245c-.222,0-.311-.089-.311-.311V286.238c0-.578,0-.578.578-.578H365.9c.623,0,.578,0,.534.578v.267h0c3.6-1.468,7.027-1.6,10.23,1.067.089,0,.178-.133.267-.222a7.337,7.337,0,0,1,4.715-1.824,10.123,10.123,0,0,1,3.647.4c.356.133.756.267,1.067.4a4.668,4.668,0,0,1,2.8,4.314c.044,2.313,0,4.67,0,6.983,0,.311-.089.489-.445.445-.489-.044-.934,0-1.423,0-.222,0-.311-.089-.311-.311v-.445c0-2.268-.044-4.581,0-6.85a2.784,2.784,0,0,0-1.69-2.758,6.7,6.7,0,0,0-6.227.133,2.621,2.621,0,0,0-1.468,2.491V297.4A1.257,1.257,0,0,1,377.777,298.2Z" transform="translate(-110.797 -14.078)" fill="#413f44"/>
    <path id="Path_1706" data-name="Path 1706" d="M448.895,287.838v-1.6c0-.267.044-.4.356-.4h1.423c.222,0,.311.089.311.311v11.431c0,.756.089.712-.667.712h-1.112c-.267,0-.356-.089-.356-.356a7.034,7.034,0,0,0-.044-1.379c-.133-.044-.222.044-.311.089a11.617,11.617,0,0,1-6.049,1.824,14.992,14.992,0,0,1-5.426-.756,8.928,8.928,0,0,1-2.313-1.245,5.508,5.508,0,0,1-.4-8.406,8.421,8.421,0,0,1,3.825-1.913,14.039,14.039,0,0,1,7.784.222,8.832,8.832,0,0,1,2.4,1.245C448.495,287.66,448.584,287.793,448.895,287.838ZM442,296.956a9.2,9.2,0,0,0,2.046-.222,10.05,10.05,0,0,0,4.27-1.913,1.323,1.323,0,0,0,.623-1.334,7.854,7.854,0,0,1,0-1.023,4.722,4.722,0,0,0-1.468-3.336,6.208,6.208,0,0,0-2.58-1.468,11.617,11.617,0,0,0-5.248-.178,7.458,7.458,0,0,0-3.024,1.2,4.225,4.225,0,0,0-.044,6.85,5.173,5.173,0,0,0,1.557.8A11.573,11.573,0,0,0,442,296.956Z" transform="translate(-148.69 -14.21)" fill="#3f3e43"/>
    <path id="Path_1707" data-name="Path 1707" d="M329.361,285.7a12.429,12.429,0,0,1,5.738,1.2,7.076,7.076,0,0,1,2.09,1.468,5.433,5.433,0,0,1,0,7.428,8.081,8.081,0,0,1-3.736,2.135,13.634,13.634,0,0,1-9.474-.534,6.723,6.723,0,0,1-2-1.29,5.368,5.368,0,0,1,.178-8.139,9.464,9.464,0,0,1,4.359-1.957A13.551,13.551,0,0,1,329.361,285.7Zm.222,11.253c.311,0,.8-.044,1.29-.089a7.75,7.75,0,0,0,3.914-1.423,4.118,4.118,0,0,0,.044-6.716,5.117,5.117,0,0,0-1.913-.934,11.764,11.764,0,0,0-5.693-.311,7.075,7.075,0,0,0-3.247,1.379,4.148,4.148,0,0,0,.267,6.672,6.71,6.71,0,0,0,1.245.667A10.166,10.166,0,0,0,329.583,296.953Z" transform="translate(-86.31 -14.207)" fill="#403e43"/>
    <path id="Path_1708" data-name="Path 1708" d="M285.4,285.689a12.868,12.868,0,0,1,5.738,1.156,8.817,8.817,0,0,1,1.379.845,5.435,5.435,0,0,1,0,8.762,10.084,10.084,0,0,1-4,1.735,13.586,13.586,0,0,1-8.184-.712,7.562,7.562,0,0,1-2.4-1.512,5.367,5.367,0,0,1,.222-7.962,9.773,9.773,0,0,1,4.4-2.046A13.3,13.3,0,0,1,285.4,285.689Zm.222,11.253c.311,0,.8-.044,1.29-.089a7.959,7.959,0,0,0,3.959-1.468,4.125,4.125,0,0,0,0-6.627,5.993,5.993,0,0,0-1.913-.979,11.247,11.247,0,0,0-5.693-.311,6.663,6.663,0,0,0-3.336,1.468,4.135,4.135,0,0,0,.311,6.583,7.3,7.3,0,0,0,1.29.712A11.313,11.313,0,0,0,285.623,296.942Z" transform="translate(-61.92 -14.197)" fill="#403e43"/>
    <path id="Path_1709" data-name="Path 1709" d="M255.321,280.327v-6.494c0-.534,0-.534.534-.534h1.379c.267,0,.4.089.4.356V285.8a10.152,10.152,0,0,1-.178,2,4.245,4.245,0,0,1-2.357,2.936,8.756,8.756,0,0,1-3.514.756,25.67,25.67,0,0,1-4.893-.445c-.623-.089-1.29-.222-1.913-.311-.222-.044-.311-.133-.222-.356.133-.356.267-.667.4-1.023.089-.267.222-.267.489-.222a26.726,26.726,0,0,0,4.225.489,10.784,10.784,0,0,0,3.38-.311,5.945,5.945,0,0,0,.8-.311,2.439,2.439,0,0,0,1.468-2.313c-.044-2.09-.044-4.225,0-6.36Z" transform="translate(-44.294 -7.323)" fill="#424045"/>
    <path id="Path_1710" data-name="Path 1710" d="M426.226,282.429v8.807c0,.178-.089.222-.267.222h-1.6a.236.236,0,0,1-.267-.267V273.756c-.044-.311.133-.356.4-.356h1.379c.356,0,.4.133.4.445v2.535C426.226,278.382,426.226,280.383,426.226,282.429Z" transform="translate(-143.991 -7.378)" fill="#3e3c42"/>
    <path id="Path_1711" data-name="Path 1711" d="M483.834,287.418h-1.913c-.178,0-.222-.089-.222-.222V274.208c0-.8-.044-.712.756-.712h1.023c.267,0,.4.133.356.4v13.521Z" transform="translate(-175.979 -7.43)" fill="#3e3c42"/>
    <path id="Path_1712" data-name="Path 1712" d="M482,308.7a2.692,2.692,0,0,1,1.068.178,1.116,1.116,0,0,1,.667,1.067,1.093,1.093,0,0,1-.756,1.067,2.456,2.456,0,0,1-1.779,0,1.07,1.07,0,0,1-.8-1.156,1.086,1.086,0,0,1,.845-1.068A2.2,2.2,0,0,1,482,308.7Z" transform="translate(-175.253 -26.977)" fill="#413f44"/>
    <path id="Path_1713" data-name="Path 1713" d="M495.548,275.513a2.079,2.079,0,0,1-2.179,2.268,2.125,2.125,0,0,1-2.268-2.268,2.226,2.226,0,1,1,4.448,0Zm-.489,0a1.736,1.736,0,1,0-3.469-.089,1.686,1.686,0,0,0,1.69,1.868A1.657,1.657,0,0,0,495.059,275.513Z" transform="translate(-181.199 -7.267)" fill="#4c484d"/>
    <path id="Path_1714" data-name="Path 1714" d="M495.52,277.1c.178.311.445.445.534.712-.311.178-.489.044-.667-.178a2.331,2.331,0,0,0-.445-.489c-.133-.089-.356-.089-.356.178v.311c0,.133-.044.222-.222.222a.282.282,0,0,1-.267-.222v-1.379c0-.8-.089-.756.8-.756h.044c.445,0,.845.044,1.023.534A.8.8,0,0,1,495.52,277.1Zm-.489-1.067c-.178,0-.445-.089-.445.311,0,.222.044.4.356.4.4,0,.667-.089.667-.356C495.565,276.078,495.342,275.989,495.031,276.033Z" transform="translate(-182.862 -8.544)" fill="#565155"/>
  </g>
</svg>
