<svg xmlns="http://www.w3.org/2000/svg" xmlns:xlink="http://www.w3.org/1999/xlink" width="148.397" height="49.563" viewBox="0 0 148.397 49.563">
  <defs>
    <linearGradient id="linear-gradient" x1="-0.168" y1="0.92" x2="0.762" y2="-0.011" gradientUnits="objectBoundingBox">
      <stop offset="0.108" stop-color="#c757bc"/>
      <stop offset="0.173" stop-color="#cd5ca9"/>
      <stop offset="0.492" stop-color="#e8744f"/>
      <stop offset="0.716" stop-color="#f88316"/>
      <stop offset="0.823" stop-color="#ff8900"/>
    </linearGradient>
    <linearGradient id="linear-gradient-2" x1="0.319" y1="1.359" x2="0.773" y2="0.456" gradientUnits="objectBoundingBox">
      <stop offset="0.296" stop-color="#00afff"/>
      <stop offset="0.694" stop-color="#5282ff"/>
      <stop offset="1" stop-color="#945dff"/>
    </linearGradient>
    <linearGradient id="linear-gradient-3" x1="-0.024" y1="0.523" x2="0.61" y2="-0.08" xlink:href="#linear-gradient-2"/>
  </defs>
  <g id="kotlinlang-ar21" transform="translate(-3.34 -3.841)">
    <g id="Group_236" data-name="Group 236" transform="translate(61.023 14.665)">
      <path id="Path_2372" data-name="Path 2372" d="M13.236,5.892H19.03V17.41L29.72,5.892h6.995L25.99,17.013,37.2,32.18H30.239l-8.16-11.215L19.03,24.125V32.18H13.236ZM34.127,22.259v-.076c0-5.794,4.663-10.492,10.958-10.492A10.5,10.5,0,0,1,55.962,22.184v.076c0,5.794-4.663,10.492-10.958,10.492A10.5,10.5,0,0,1,34.127,22.259Zm16.181,0v-.076a5.386,5.386,0,0,0-5.246-5.572,5.171,5.171,0,0,0-5.234,5.5v.076a5.386,5.386,0,0,0,5.246,5.572,5.167,5.167,0,0,0,5.228-5.5Z" transform="translate(-13.236 -4.761)" fill="#000400"/>
      <path id="Path_2373" data-name="Path 2373" d="M22.83,27.451v-9.5H20.423v-4.9H22.83V7.9h5.712v5.159h4.745v4.9H28.543v8.627c0,1.317.565,1.959,1.842,1.959a5.817,5.817,0,0,0,2.821-.717v4.593a8.416,8.416,0,0,1-4.517,1.166c-3.5,0-5.87-1.4-5.87-6.062ZM34.937,5.7h5.712V33.169H34.937Zm7.787,0h6.021v5.083H42.73Zm.152,7.3h5.712V33.169H42.876Zm7.9,0h5.712v2.856a7.148,7.148,0,0,1,5.91-3.235c4.331,0,6.849,2.856,6.849,7.49V33.169H63.533V21.914c0-2.71-1.282-4.1-3.462-4.1s-3.573,1.4-3.573,4.1v11.25H50.786Z" transform="translate(21.469 -5.698)" fill="#000400"/>
    </g>
    <path id="Path_2374" data-name="Path 2374" d="M28.229,3.853,3.34,30.007V53.4L28.183,28.509,52.9,3.841Z" transform="translate(0 0)" fill="url(#linear-gradient)"/>
    <path id="Path_2375" data-name="Path 2375" d="M3.34,32.963,28.183,8.074,52.9,32.963Z" transform="translate(0 20.441)" fill="url(#linear-gradient-2)"/>
    <path id="Path_2376" data-name="Path 2376" d="M3.34,3.843H28.229L3.34,30Z" transform="translate(0 0.01)" fill="url(#linear-gradient-3)"/>
  </g>
</svg>
