<svg xmlns="http://www.w3.org/2000/svg" width="146.031" height="40.316" viewBox="0 0 146.031 40.316">
  <g id="Kubernets" transform="translate(-30.497 -198.249)">
    <path id="Path_2072" data-name="Path 2072" d="M51.263,238.565H43.437a2.97,2.97,0,0,1-2.455-1.176c-3.273-4.066-6.572-8.158-9.846-12.224a2.691,2.691,0,0,1-.563-2.4q1.765-7.672,3.478-15.318a2.866,2.866,0,0,1,1.637-2.071q7.135-3.376,14.27-6.8a2.872,2.872,0,0,1,2.583-.026q7.173,3.414,14.321,6.828a2.865,2.865,0,0,1,1.611,2.046q1.726,7.6,3.5,15.19a2.827,2.827,0,0,1-.511,2.532c-3.324,4.117-6.649,8.26-9.948,12.377a2.744,2.744,0,0,1-2.3,1.048Zm.946-33.756c-.026-.332.051-.614-.128-.844-.256-.332-.537-.588-1-.435a1.049,1.049,0,0,0-.69,1.2,17.431,17.431,0,0,1,.23,2.02,1.088,1.088,0,0,1-.972,1.228,10.859,10.859,0,0,0-6.035,2.941A.985.985,0,0,1,42.21,211a5.565,5.565,0,0,1-1.2-1.125,2.242,2.242,0,0,0-.742-.639c-.435-.2-.869-.256-1.176.153a.86.86,0,0,0,.1,1.227,7.833,7.833,0,0,0,.742.537c.409.256.818.486,1.2.767a1.052,1.052,0,0,1,.332,1.637,10.5,10.5,0,0,0-1.381,6.547c.077.69-.46.818-.844,1.048a3.276,3.276,0,0,1-.9.153,12.733,12.733,0,0,0-1.688.23.839.839,0,0,0-.639,1,.82.82,0,0,0,.921.742,2.836,2.836,0,0,0,1.023-.23,13.355,13.355,0,0,1,1.432-.46,1.048,1.048,0,0,1,1.407.742A10.755,10.755,0,0,0,45,228.463c.588.384.486.844.332,1.3a6.147,6.147,0,0,1-.844,1.483,3.532,3.532,0,0,0-.435.742.9.9,0,0,0,.409,1.227.859.859,0,0,0,1.2-.435,4.152,4.152,0,0,0,.281-.716c.179-.46.307-.946.511-1.406a1.076,1.076,0,0,1,1.534-.716,11.371,11.371,0,0,0,6.6-.026,1.008,1.008,0,0,1,1.33.588,14.308,14.308,0,0,1,.563,1.458,4.824,4.824,0,0,0,.332.844.9.9,0,1,0,1.611-.818,9.053,9.053,0,0,0-.486-.844,12.942,12.942,0,0,1-.665-1.125,1.073,1.073,0,0,1,.409-1.586A11.258,11.258,0,0,0,61.8,223.2a.947.947,0,0,1,1.253-.639c.537.153,1.074.332,1.611.511a2.835,2.835,0,0,0,1.023.23.88.88,0,0,0,.46-1.611,1.436,1.436,0,0,0-.793-.23c-.639-.077-1.3-.153-1.944-.256-.46-.077-.946-.332-.9-.818a11.438,11.438,0,0,0-1.637-7.084.591.591,0,0,1-.026-.588c.307-.818,1.048-1.074,1.662-1.483a4.052,4.052,0,0,0,1-.742.8.8,0,0,0,0-1.125.813.813,0,0,0-1.125-.2,2.9,2.9,0,0,0-.844.742,5.093,5.093,0,0,1-1.125,1.1,1.052,1.052,0,0,1-1.483-.051,10.936,10.936,0,0,0-5.907-2.89c-.767-.128-1-.435-1.023-1.279C52.03,206.062,52.158,205.4,52.209,204.809Z" transform="translate(0)" fill="#496cb3"/>
    <path id="Path_2073" data-name="Path 2073" d="M301.4,256.073v-6.291c0-.358.077-.486.435-.537.639-.077,1.253-.2,1.867-.307.358-.077.46.051.46.409-.026,1.279,0,2.532-.026,3.81,0,.358,0,.537.486.384,3.2-.946,5.652.869,5.754,4.194a7.281,7.281,0,0,1-.179,2.225,4.524,4.524,0,0,1-4.143,3.427,14.613,14.613,0,0,1-4.22-.409c-.332-.077-.435-.23-.435-.588C301.426,260.292,301.4,258.169,301.4,256.073Zm2.762,2.327v2.174c0,.153-.051.332.179.435a2.374,2.374,0,0,0,2.941-1.176,4.168,4.168,0,0,0,.2-2.557,2.044,2.044,0,0,0-3.146-1.381c-.23.128-.2.307-.2.486C304.162,257.044,304.162,257.709,304.162,258.4Z" transform="translate(-201.626 -37.71)" fill="#0b0c0c"/>
    <path id="Path_2074" data-name="Path 2074" d="M220.609,256.8c.844-.972,1.713-1.969,2.557-2.966a.88.88,0,0,1,.767-.384c.9.026,1.79,0,2.787,0a43.357,43.357,0,0,1-3.4,3.708c-.384.384-.46.563-.026,1a20.031,20.031,0,0,1,3.58,4.936h-2.89c-.307,0-.384-.2-.511-.409a20.159,20.159,0,0,0-2.353-3.145c-.179-.179-.332-.384-.511-.588-.051.026-.128.051-.179.077,0,1.151-.026,2.3,0,3.427.026.511-.1.69-.639.665-.665-.051-1.586.23-1.969-.1-.435-.384-.128-1.3-.128-1.995-.026-3.708,0-7.391-.026-11.1,0-.486.153-.69.614-.742.537-.051,1.074-.153,1.611-.256.409-.077.537,0,.537.435-.026,2.25,0,4.5,0,6.777v.588A1.247,1.247,0,0,1,220.609,256.8Z" transform="translate(-139.247 -37.696)" fill="#0b0c0c"/>
    <path id="Path_2075" data-name="Path 2075" d="M536.366,271.771c-.869,0-1.765.026-2.634,0-.486-.026-.511.153-.332.537a2.152,2.152,0,0,0,1.918,1.253,6.816,6.816,0,0,0,2.864-.281c.332-.1.46-.128.511.281a12.5,12.5,0,0,0,.23,1.355c.077.332,0,.537-.358.639a9.29,9.29,0,0,1-4.731.23c-2.046-.511-3.171-2.02-3.4-4.45a4.8,4.8,0,0,1,3.759-5.421c2.659-.486,4.961.844,5.268,3.861.077.639.307,1.458-.1,1.892-.333.358-1.151.077-1.765.1C537.21,271.8,536.8,271.771,536.366,271.771Zm-1.253-1.867c.435,0,.869-.026,1.3,0,.486.051.486-.2.409-.537a1.69,1.69,0,0,0-1.586-1.3,1.762,1.762,0,0,0-1.841,1.33c-.128.384-.128.563.358.511C534.192,269.879,534.652,269.9,535.113,269.9Z" transform="translate(-372.071 -50.289)" fill="#090909"/>
    <path id="Path_2076" data-name="Path 2076" d="M351.259,272.9c.1.69.2,1.279.307,1.892.026.2.026.409-.23.46-2.2.563-4.373.921-6.419-.486a4.1,4.1,0,0,1-1.713-2.915c-.409-2.557.409-4.833,2.532-5.856,3.2-1.534,6.291.486,6.444,4.168.051,1.381.051,1.381-1.33,1.381H346.5c-.665,0-.742.1-.409.69a2.2,2.2,0,0,0,1.841,1.074A7.075,7.075,0,0,0,351.259,272.9Zm-1.764-3.273c-.1-1.151-.665-1.79-1.637-1.816-1.074-.026-1.688.563-1.892,1.816Z" transform="translate(-232.663 -50.035)" fill="#090909"/>
    <path id="Path_2077" data-name="Path 2077" d="M463.778,271.752c-.869,0-1.765.026-2.634,0-.435-.026-.486.179-.332.511a2.121,2.121,0,0,0,1.918,1.279,6.05,6.05,0,0,0,2.787-.256c.46-.179.588-.026.614.409a3.068,3.068,0,0,0,.077.511c.179,1.279.2,1.3-1.049,1.534a9.262,9.262,0,0,1-3.657.051,4.369,4.369,0,0,1-3.58-4.194,6.573,6.573,0,0,1,.384-2.966,4.569,4.569,0,0,1,4.961-2.839,4.012,4.012,0,0,1,3.631,3.785c.332,2.2.332,2.2-1.841,2.2C464.6,271.752,464.188,271.752,463.778,271.752Zm-1.3-1.892h1.432c.281,0,.435-.026.332-.384a1.7,1.7,0,0,0-1.662-1.458,1.765,1.765,0,0,0-1.816,1.381c-.1.358-.026.511.384.46C461.6,269.834,462.039,269.86,462.474,269.86Z" transform="translate(-318.101 -50.244)" fill="#090909"/>
    <path id="Path_2078" data-name="Path 2078" d="M417.235,271.017v-4.194c0-.179-.128-.435.23-.511a12.134,12.134,0,0,1,5.5-.307A3.209,3.209,0,0,1,425.5,269a58.787,58.787,0,0,1,.1,6.368c0,.332-.179.332-.409.332-.639,0-1.279-.026-1.892,0-.358.026-.435-.1-.435-.435.026-1.458.026-2.941,0-4.4a8.033,8.033,0,0,0-.128-1.56c-.153-.793-.588-1.1-1.432-1.125-1.279-.026-1.279-.026-1.279,1.227,0,1.918-.026,3.862,0,5.779,0,.435-.128.563-.537.537a12.779,12.779,0,0,0-1.713,0c-.46.026-.537-.153-.537-.563Z" transform="translate(-287.822 -50.276)" fill="#090909"/>
    <path id="Path_2079" data-name="Path 2079" d="M266.977,271.453V275.6c0,.2.1.409-.256.486a11.453,11.453,0,0,1-5.5.281,3.25,3.25,0,0,1-2.506-3.145c-.179-2.046-.051-4.117-.077-6.163,0-.307.1-.384.384-.358.639.026,1.279.026,1.892,0,.409-.026.46.153.46.486.026,1.79-.1,3.58.077,5.37a1.779,1.779,0,0,0,2.557,1.611c.307-.1.2-.358.2-.537,0-2.071.026-4.168-.026-6.24-.026-.639.2-.767.767-.716a9.9,9.9,0,0,0,1.509,0c.409-.026.511.1.511.511C266.951,268.589,266.977,270.021,266.977,271.453Z" transform="translate(-169.785 -50.917)" fill="#090909"/>
    <path id="Path_2080" data-name="Path 2080" d="M575.811,275.957a8.794,8.794,0,0,1-2.966-.384c-.384-.128-.537-.256-.435-.665.154-.512.077-1.228.409-1.56.358-.358.946.179,1.483.256a9.536,9.536,0,0,0,2.1.077.63.63,0,0,0,.639-.46.6.6,0,0,0-.384-.742c-.767-.358-1.56-.665-2.327-1.023a2.876,2.876,0,0,1-1.611-3.58,3.1,3.1,0,0,1,2.89-2.02,8.72,8.72,0,0,1,3.248.281c.358.1.588.179.435.665-.179.486-.1,1.151-.409,1.483-.332.332-.9-.153-1.381-.179a13.358,13.358,0,0,0-1.432,0,.711.711,0,0,0-.716.563c-.077.384.154.614.486.767.742.332,1.509.639,2.25,1.023a2.728,2.728,0,0,1,1.713,3.12,2.8,2.8,0,0,1-2.4,2.276A9.692,9.692,0,0,1,575.811,275.957Z" transform="translate(-403.308 -50.281)" fill="#090909"/>
    <path id="Path_2081" data-name="Path 2081" d="M503.962,262.927a12.513,12.513,0,0,0,.077,1.918c.23.946.537,1.2,1.483,1.2a4.13,4.13,0,0,0,.793-.051c.972-.179.972-.179,1.151.793.23,1.2.2,1.253-1,1.458a6.229,6.229,0,0,1-2.481.026,3.083,3.083,0,0,1-2.685-2.864,17.814,17.814,0,0,1-.1-2.02v-6.751c0-.384.026-.588.511-.614a9.18,9.18,0,0,0,1.867-.307c.384-.1.384.077.384.358,0,.665.026,1.3,0,1.969-.026.384.128.486.486.486.793-.026,1.586,0,2.353,0,.332,0,.486.077.46.435-.051.588.256,1.381-.128,1.765-.307.281-1.074.1-1.637.1-1.534,0-1.534,0-1.534,1.509Z" transform="translate(-350.331 -42.749)" fill="#0b0c0c"/>
    <path id="Path_2082" data-name="Path 2082" d="M386.9,271.16v-4.143a.5.5,0,0,1,.435-.588,10.339,10.339,0,0,1,5.294-.384c.511.1.588.307.46.742a10.285,10.285,0,0,0-.256,1.279c-.051.358-.179.409-.537.332a5.655,5.655,0,0,0-2.071-.179c-.409.026-.563.2-.563.639.026,2.1,0,4.194.026,6.316,0,.435-.128.563-.537.537a12.769,12.769,0,0,0-1.713,0c-.46.026-.537-.153-.537-.563C386.926,273.845,386.9,272.516,386.9,271.16Z" transform="translate(-265.261 -50.317)" fill="#090909"/>
    <path id="Path_2083" data-name="Path 2083" d="M68.317,219.971c-.051.588-.179,1.253-.179,1.944.026.844.23,1.151,1.023,1.279a10.761,10.761,0,0,1,5.907,2.89,1.076,1.076,0,0,0,1.483.051,4.6,4.6,0,0,0,1.125-1.1,3.384,3.384,0,0,1,.844-.742.837.837,0,0,1,1.125.2.78.78,0,0,1,0,1.125,4.052,4.052,0,0,1-1,.742c-.614.409-1.355.665-1.662,1.483a.6.6,0,0,0,.026.588,11.478,11.478,0,0,1,1.637,7.084c-.051.486.46.742.9.818a16.847,16.847,0,0,0,1.944.256,1.683,1.683,0,0,1,.793.23.862.862,0,0,1,.358.972.8.8,0,0,1-.818.639,2.388,2.388,0,0,1-1.023-.23c-.537-.179-1.074-.384-1.611-.511a.964.964,0,0,0-1.253.639,11.224,11.224,0,0,1-4.117,5.242,1.1,1.1,0,0,0-.409,1.586c.2.384.435.742.665,1.125a7.136,7.136,0,0,1,.486.844.881.881,0,0,1-.384,1.227.9.9,0,0,1-1.228-.409,4.826,4.826,0,0,1-.332-.844,14.305,14.305,0,0,0-.563-1.458,1.02,1.02,0,0,0-1.33-.588,11.815,11.815,0,0,1-6.6.026,1.09,1.09,0,0,0-1.534.716c-.2.46-.332.946-.511,1.407a2.986,2.986,0,0,1-.281.716.847.847,0,0,1-1.2.435.883.883,0,0,1-.409-1.227,5.588,5.588,0,0,1,.435-.742,5.7,5.7,0,0,0,.844-1.483c.153-.46.256-.921-.332-1.3a10.875,10.875,0,0,1-4.194-5.14,1.074,1.074,0,0,0-1.407-.742,9.345,9.345,0,0,0-1.432.46,3.5,3.5,0,0,1-1.023.23.886.886,0,0,1-.281-1.739,12.185,12.185,0,0,1,1.688-.23,3.275,3.275,0,0,0,.9-.153c.409-.23.946-.358.844-1.048a10.853,10.853,0,0,1,1.381-6.547,1.083,1.083,0,0,0-.332-1.637c-.384-.281-.818-.511-1.2-.767a7.837,7.837,0,0,1-.742-.537.86.86,0,0,1-.1-1.228.846.846,0,0,1,1.176-.153,2.242,2.242,0,0,1,.742.639,5.565,5.565,0,0,0,1.2,1.125.963.963,0,0,0,1.407-.077,10.946,10.946,0,0,1,6.035-2.941,1.061,1.061,0,0,0,.972-1.227,17.432,17.432,0,0,0-.23-2.02,1.049,1.049,0,0,1,.69-1.2c.435-.153.742.1,1,.435C68.368,219.358,68.291,219.639,68.317,219.971ZM58.471,234.5c0,.716,0,.716.946.435,1.074-.307,2.148-.588,3.2-.921.869-.256,1-.869.332-1.509-.921-.844-1.867-1.662-2.787-2.506-.332-.307-.486-.23-.665.128A10.2,10.2,0,0,0,58.471,234.5Zm12.07,2.941a.72.72,0,0,0,.026.2c.537,1.279,1.074,2.583,1.586,3.862.153.358.332.179.486.051a9.088,9.088,0,0,0,2.992-3.734c.128-.307.077-.46-.256-.537-1.3-.2-2.608-.46-3.938-.665A.754.754,0,0,0,70.541,237.438ZM61.207,227.9c1.176.844,2.3,1.637,3.452,2.455.767.537,1.33.281,1.406-.614.1-1.279.128-2.583.179-3.861.026-.281-.051-.384-.358-.332A8.536,8.536,0,0,0,61.207,227.9Zm12.428,0a9.164,9.164,0,0,0-4.475-2.353c-.486-.1-.639-.026-.614.511.1,1.279.179,2.583.256,3.862.051.614.563.921,1.074.588C71.155,229.689,72.357,228.794,73.636,227.9Zm2.685,7.263a8.943,8.943,0,0,0-1.049-5.089c-.128-.256-.23-.384-.511-.128-.972.9-1.995,1.765-2.966,2.685a.716.716,0,0,0,.307,1.3C73.457,234.369,74.863,234.752,76.321,235.162Zm-12.812,1.458c-1.33.23-2.736.486-4.143.716-.281.051-.281.153-.179.384a8.855,8.855,0,0,0,3.069,3.836c.179.128.281.179.384-.077.537-1.3,1.1-2.608,1.586-3.938C64.455,237.08,64.1,236.645,63.509,236.619Zm3.938,6.572a7.093,7.093,0,0,0,2.327-.281c.281-.077.486-.128.281-.511-.665-1.125-1.253-2.3-1.918-3.427-.409-.69-1.023-.69-1.407,0-.665,1.125-1.253,2.3-1.918,3.427-.23.384,0,.435.256.511A7.4,7.4,0,0,0,67.447,243.192Zm.026-10.28c-.69,0-1.509.614-1.534,1.176-.026.818.793,1.765,1.509,1.713a1.734,1.734,0,0,0,1.407-1.662A1.5,1.5,0,0,0,67.473,232.911Z" transform="translate(-16.108 -15.163)" fill="#f9fafd"/>
    <path id="Path_2084" data-name="Path 2084" d="M76.9,267.119a10,10,0,0,1,1.023-4.347c.179-.358.332-.435.665-.128.921.844,1.867,1.662,2.787,2.506.69.639.537,1.227-.332,1.509-1.048.332-2.123.614-3.2.921C76.9,267.809,76.9,267.809,76.9,267.119Z" transform="translate(-34.537 -47.785)" fill="#4a6cb4"/>
    <path id="Path_2085" data-name="Path 2085" d="M124.1,289.768a.752.752,0,0,1,.921-.818c1.3.2,2.608.435,3.938.665.358.051.409.2.256.537a9.089,9.089,0,0,1-2.992,3.734c-.179.128-.358.307-.486-.051-.537-1.279-1.074-2.583-1.586-3.861A.387.387,0,0,1,124.1,289.768Z" transform="translate(-69.666 -67.493)" fill="#4a6cb4"/>
    <path id="Path_2086" data-name="Path 2086" d="M87.6,248.01a8.622,8.622,0,0,1,4.68-2.353c.307-.051.384.026.358.332-.077,1.279-.077,2.583-.179,3.862-.077.921-.639,1.151-1.407.614C89.9,249.647,88.776,248.829,87.6,248.01Z" transform="translate(-42.5 -35.274)" fill="#4a6cb4"/>
    <path id="Path_2087" data-name="Path 2087" d="M121.439,247.94c-1.279.9-2.481,1.79-3.734,2.608a.679.679,0,0,1-1.074-.588c-.1-1.279-.153-2.583-.256-3.861-.051-.537.128-.614.614-.511A9.535,9.535,0,0,1,121.439,247.94Z" transform="translate(-63.911 -35.204)" fill="#4a6cb4"/>
    <path id="Path_2088" data-name="Path 2088" d="M132.544,267.711c-1.432-.409-2.839-.793-4.245-1.227a.716.716,0,0,1-.307-1.3c.972-.9,1.995-1.764,2.966-2.685.281-.256.384-.128.511.128A8.959,8.959,0,0,1,132.544,267.711Z" transform="translate(-72.331 -47.712)" fill="#4a6cb4"/>
    <path id="Path_2089" data-name="Path 2089" d="M83.933,289c.563.026.921.435.742.946-.486,1.33-1.048,2.634-1.586,3.938-.1.256-.23.179-.384.077a8.855,8.855,0,0,1-3.069-3.836c-.1-.256-.077-.358.179-.384C81.2,289.486,82.6,289.256,83.933,289Z" transform="translate(-36.532 -67.544)" fill="#4a6cb4"/>
    <path id="Path_2090" data-name="Path 2090" d="M104.058,300.912a7.488,7.488,0,0,1-2.378-.281c-.256-.051-.486-.128-.256-.511.665-1.125,1.253-2.276,1.918-3.427.409-.69,1.023-.69,1.406,0,.665,1.125,1.253,2.3,1.918,3.427.23.384,0,.46-.281.511A7.953,7.953,0,0,1,104.058,300.912Z" transform="translate(-52.719 -72.884)" fill="#4a6cb4"/>
    <path id="Path_2091" data-name="Path 2091" d="M107.633,274.5a1.5,1.5,0,0,1,1.381,1.228,1.734,1.734,0,0,1-1.407,1.662,1.787,1.787,0,0,1-1.509-1.713C106.124,275.139,106.942,274.5,107.633,274.5Z" transform="translate(-56.268 -56.752)" fill="#4a6cb4"/>
  </g>
</svg>
