<svg xmlns="http://www.w3.org/2000/svg" width="146.398" height="51.071" viewBox="0 0 146.398 51.071">
  <g id="NumPy" transform="translate(-50.9 -88.676)">
    <path id="Path_2219" data-name="Path 2219" d="M66.426,143.988c2.258,1.129,4.375,2.2,6.521,3.275.2.113.311.226.282.452v25.914c-.226.113-.339-.028-.452-.085-1.807-1.1-3.613-2.23-5.448-3.331a5.543,5.543,0,0,1-2-2.484c-2.315-4.4-4.6-8.836-6.916-13.267a25.275,25.275,0,0,0-1.468-2.512V165.1c-.226.113-.367-.028-.508-.113-1.694-.9-3.416-1.835-5.109-2.71a.611.611,0,0,1-.423-.621V136.282c0-.056.028-.085.028-.141.226-.085.367.085.536.141,1.694.847,3.359,1.722,5.053,2.569a2.263,2.263,0,0,1,1.157,1.186c2.766,5.928,5.561,11.828,8.356,17.756a1.551,1.551,0,0,0,.423.593C66.426,153.614,66.426,148.872,66.426,143.988Z" transform="translate(0 -34.049)" fill="#5376ba"/>
    <path id="Path_2220" data-name="Path 2220" d="M253.457,156.081c.141,4.093.028,8.017.085,11.941,0,.677-.169.875-.819.819-.875-.056-1.778-.028-2.682,0-.508.028-.677-.113-.649-.649.028-2.089,0-4.178,0-6.239v-12.7c0-.508.141-.649.649-.649,3.275.028,2.541-.254,4.488,2.174,2.738,3.416,5.42,6.831,8.13,10.247.056.085.141.169.2.254.2-.056.113-.226.113-.339-.2-3.924-.028-7.848-.113-11.771,0-.423.141-.565.565-.565q1.567.042,3.133,0c.367,0,.48.113.48.48v19.2c0,.367-.085.536-.48.48h-.141c-3.246-.028-2.569.367-4.6-2.174-2.569-3.246-5.166-6.493-7.735-9.739C253.909,156.645,253.74,156.419,253.457,156.081Z" transform="translate(-142.458 -43.008)" fill="#5476ba"/>
    <path id="Path_2221" data-name="Path 2221" d="M380.408,170.091c2.936-2.71,6.069-1.835,7.142.762a4.774,4.774,0,0,1,3.218-2.23,6.437,6.437,0,0,1,3.275.113,4.615,4.615,0,0,1,3.218,4.63c.056,3.049,0,6.126.028,9.174,0,.423-.169.508-.536.48-1.073-.028-2.174-.028-3.246,0-.452,0-.536-.169-.536-.565v-8.666c-.028-1.411-.677-2.117-1.92-2.117a1.985,1.985,0,0,0-1.976,2.174c-.028,1.27,0,2.512,0,3.783,0,1.609-.028,3.218,0,4.827,0,.452-.141.593-.593.565q-1.567-.042-3.133,0c-.508.028-.593-.169-.593-.621.028-2.682,0-5.335,0-8.017,0-.282,0-.565-.028-.847a1.788,1.788,0,0,0-2.456-1.778c-1.157.282-1.553.762-1.553,1.92V182.4c0,.508-.113.677-.649.649-1.073-.056-2.117-.056-3.19-.028-.367,0-.48-.141-.48-.48V169.131c0-.4.169-.48.508-.452.508.028,1.044,0,1.553,0C379.9,168.651,379.957,168.708,380.408,170.091Z" transform="translate(-233.616 -57.244)" fill="#5476ba"/>
    <path id="Path_2222" data-name="Path 2222" d="M459.128,158.6v-9.428c0-.339-.056-.649.48-.621,2.738.056,5.476-.141,8.186.113,2.258.2,4.319.932,5.618,2.936a6.676,6.676,0,0,1-4.686,10.191,21.032,21.032,0,0,1-4.206.226c-.536,0-.706.113-.706.678.028,1.807,0,3.641.028,5.476,0,.452-.113.593-.593.593-1.157-.028-2.343-.028-3.529,0-.508.028-.621-.141-.621-.621C459.128,164.949,459.128,161.759,459.128,158.6Zm4.686-3.359v2.738c0,.367.085.508.48.508.875-.028,1.778,0,2.654-.056a2.757,2.757,0,0,0,2.738-2.879c.085-1.948-.762-3.105-2.456-3.387a25.034,25.034,0,0,0-2.908-.113c-.423-.028-.508.169-.508.536C463.814,153.46,463.814,154.335,463.814,155.238Z" transform="translate(-292.97 -42.956)" fill="#5476ba"/>
    <path id="Path_2223" data-name="Path 2223" d="M329.49,182.035a6.161,6.161,0,0,1-3.162,1.666,4.741,4.741,0,0,1-5.787-4.121,17.074,17.074,0,0,1-.113-2.4c0-2.428.028-4.855-.028-7.283,0-.593.169-.734.734-.706a26.459,26.459,0,0,0,2.992,0c.508-.028.593.169.593.621-.028,2.738,0,5.476,0,8.186,0,.9.056,1.835.988,2.315a2.72,2.72,0,0,0,2.654-.282,1.381,1.381,0,0,0,.819-1.383c-.056-2.936,0-5.843-.028-8.779,0-.565.169-.677.706-.677q1.524.042,3.049,0c.48-.028.565.141.565.593-.028,4.375-.028,8.751,0,13.155,0,.452-.085.678-.593.621-.565-.056-1.129,0-1.694,0-1.073,0-1.214-.085-1.553-1.1A.936.936,0,0,0,329.49,182.035Z" transform="translate(-193.424 -57.785)" fill="#5476ba"/>
    <path id="Path_2224" data-name="Path 2224" d="M524.246,177.81c.875-2.512,1.694-4.884,2.541-7.283.4-1.157.621-1.327,1.835-1.327h2.2c.762,0,.762,0,.48.677-1.186,2.795-2.371,5.589-3.557,8.356-1.214,2.879-2.484,5.759-3.67,8.666a1.581,1.581,0,0,1-1.75,1.186,22.681,22.681,0,0,0-2.4,0c-.48,0-.508-.141-.31-.536.79-1.609,1.524-3.218,2.315-4.8a.97.97,0,0,0,0-.96c-1.75-3.952-3.472-7.932-5.222-11.884-.31-.706-.31-.706.48-.706h2.795c.9,0,1.186.2,1.5,1.044C522.355,172.729,523.371,175.184,524.246,177.81Z" transform="translate(-334.178 -57.793)" fill="#5476ba"/>
    <path id="Path_2225" data-name="Path 2225" d="M152.778,218.275v5.081a.742.742,0,0,1-.48.79c-2.992,1.468-5.984,2.964-8.977,4.46-.452.226-.621.226-.621-.367.028-3.416.028-6.8,0-10.219a.683.683,0,0,1,.423-.706c3.02-1.5,6.069-2.992,9.09-4.517.508-.254.565-.085.565.367Z" transform="translate(-65.886 -89)" fill="#4fabcf"/>
    <path id="Path_2226" data-name="Path 2226" d="M142.8,174.762V164.12a.645.645,0,0,1,.367-.678c3.105-1.524,6.21-3.077,9.315-4.629a1.927,1.927,0,0,1,.367-.113v10.586c0,.339,0,.593-.4.79-3.133,1.524-6.267,3.077-9.4,4.63C143.026,174.706,142.941,174.734,142.8,174.762Z" transform="translate(-65.958 -50.257)" fill="#4fabcf"/>
    <path id="Path_2227" data-name="Path 2227" d="M190.8,206.454V195.727a.759.759,0,0,1,.423-.79c2.625-1.3,5.222-2.625,7.848-3.952a1.942,1.942,0,0,0,.226-.085c.2.169.113.367.113.536V201.6a.743.743,0,0,1-.452.819c-2.6,1.27-5.166,2.569-7.763,3.839C191.111,206.369,191,206.4,190.8,206.454Z" transform="translate(-100.408 -73.367)" fill="#4fabcf"/>
    <path id="Path_2228" data-name="Path 2228" d="M190.8,147.341v-5a.742.742,0,0,1,.48-.79c2.541-1.242,5.053-2.484,7.565-3.754.48-.226.565-.141.565.367-.028,3.331-.028,6.662,0,10.021a.78.78,0,0,1-.452.762c-2.541,1.27-5.081,2.541-7.594,3.867-.48.254-.565.141-.565-.367v-5.109Z" transform="translate(-100.408 -35.172)" fill="#4fabcf"/>
    <path id="Path_2229" data-name="Path 2229" d="M123.369,137.221c-3.02,1.524-6.013,2.992-8.977,4.488a.485.485,0,0,1-.48,0c-2.766-1.383-5.533-2.795-8.3-4.178a.39.39,0,0,0-.113-.085c.113-.282.4-.339.593-.452,2.682-1.383,5.335-2.795,8.017-4.178.226-.113.4-.226.649-.085,2.823,1.44,5.646,2.851,8.469,4.291C123.256,137.023,123.256,137.08,123.369,137.221Z" transform="translate(-39.187 -31.573)" fill="#4fabcf"/>
    <path id="Path_2230" data-name="Path 2230" d="M60.1,114.965a1.474,1.474,0,0,1,.565-.4l8.215-4.065c.226-.113.423-.282.706-.141,2.738,1.383,5.448,2.738,8.243,4.15a8.632,8.632,0,0,1-1.524.9c-2.343,1.242-4.686,2.456-7.029,3.67a.871.871,0,0,1-.9.085c-2.682-1.355-5.392-2.71-8.073-4.065C60.241,115.078,60.185,115.021,60.1,114.965Z" transform="translate(-6.603 -15.527)" fill="#4fabcf"/>
    <path id="Path_2231" data-name="Path 2231" d="M168.722,115.238c-.113.226-.311.254-.48.339-2.371,1.186-4.742,2.371-7.085,3.557a.938.938,0,0,1-.9.085c-2.766-1.411-5.533-2.795-8.3-4.206-.085-.028-.141-.113-.254-.2,1.411-.734,2.766-1.468,4.121-2.174l3.387-1.778a.827.827,0,0,1,.847-.028c2.823,1.44,5.646,2.851,8.5,4.263A.748.748,0,0,1,168.722,115.238Z" transform="translate(-72.345 -15.828)" fill="#4fabcf"/>
    <path id="Path_2232" data-name="Path 2232" d="M107.3,92.719q4.023-1.99,7.96-3.98a.516.516,0,0,1,.536.028c2.569,1.27,5.109,2.569,7.678,3.839a1.025,1.025,0,0,1,.254.2c-1.129.621-2.23,1.186-3.3,1.778-1.355.734-2.71,1.44-4.065,2.174a.9.9,0,0,1-.96.056c-2.6-1.327-5.194-2.625-7.791-3.924C107.526,92.889,107.441,92.8,107.3,92.719Z" transform="translate(-40.479)" fill="#4fabcf"/>
  </g>
</svg>
