<svg xmlns="http://www.w3.org/2000/svg" width="147.397" height="19.175" viewBox="0 0 147.397 19.175">
  <g id="Oracle" transform="translate(-10.305 -130.425)">
    <path id="Path_1879" data-name="Path 1879" d="M25.344,130.7h5.4a9.469,9.469,0,1,1,.049,18.936h-10.9a9.462,9.462,0,0,1-1.7-18.79,10.643,10.643,0,0,1,1.752-.146ZM25.3,146.277H30.31a7.864,7.864,0,0,0,1.509-.1,6.119,6.119,0,0,0-1.266-12.121c-3.456-.049-6.961-.049-10.417,0a6.135,6.135,0,1,0,.049,12.267C21.888,146.326,23.592,146.277,25.3,146.277Z" transform="translate(0 -0.141)" fill="#f9080a"/>
    <path id="Path_1880" data-name="Path 1880" d="M288.971,146.149c-.73,1.12-1.363,2.093-1.947,3.067-.195.292-.389.292-.681.292-3.7,0-7.4.049-11.05-.049a9.454,9.454,0,0,1-9.2-9.2,9.354,9.354,0,0,1,8.519-9.638c4.625-.341,9.3-.049,14.117-.146-.73,1.12-1.363,2.142-2,3.164-.195.341-.535.195-.828.195-3.359,0-6.669-.049-10.028,0a6.1,6.1,0,0,0-5.7,3.7c-.292.584-.243.828.535.828,5.306-.049,10.612,0,15.918,0h1.071c-.73,1.12-1.363,2.142-2.044,3.115-.243.341-.584.195-.876.195H270.912c-.974,0-1.022.049-.584.925a5.921,5.921,0,0,0,5.549,3.5h12.364A3.008,3.008,0,0,0,288.971,146.149Z" transform="translate(-131.269 -0.013)" fill="#f9080a"/>
    <path id="Path_1881" data-name="Path 1881" d="M90.212,143.5c2.531,2.093,4.819,4.04,7.3,6.134H92.4a.928.928,0,0,1-.487-.243l-10.223-8.908a2.916,2.916,0,0,1-.292-.341h9.93a3.088,3.088,0,0,0,3.31-3.067,3.131,3.131,0,0,0-3.359-3.067h-11c-.73,0-.828.243-.828.876.049,4.673,0,9.3.049,13.971,0,.73-.195.925-.876.876a13.653,13.653,0,0,0-2,0c-.633.049-.73-.146-.73-.779v-16.6c0-1.655,0-1.655,1.655-1.655H91.526a6.409,6.409,0,1,1,.633,12.8C91.623,143.551,91.039,143.5,90.212,143.5Z" transform="translate(-33.664 -0.141)" fill="#f9080a"/>
    <path id="Path_1882" data-name="Path 1882" d="M149.83,149.544h-3.992c-.341,0-.438-.243-.584-.438-.438-.73-.876-1.412-1.266-2.142a1.277,1.277,0,0,0-1.314-.779c-2.726.049-5.5,0-8.227.049a1.249,1.249,0,0,1-1.217-.682c-.487-.876-1.071-1.7-1.655-2.58a1.56,1.56,0,0,1,.925-.1h7.983c.438,0,.779,0,.389-.584-1.606-2.531-3.164-5.063-4.722-7.594-.341.146-.438.438-.584.682-2.872,4.527-5.744,9.054-8.616,13.63a1.093,1.093,0,0,1-1.022.584c-1.168-.049-2.288,0-3.456,0-.1-.292.1-.438.195-.633,3.6-5.7,7.253-11.342,10.9-17.038a2.767,2.767,0,0,1,4.917,0c3.651,5.7,7.253,11.342,10.9,17.038C149.586,149.057,149.684,149.2,149.83,149.544Z" transform="translate(-57.552)" fill="#f9080a"/>
    <path id="Path_1883" data-name="Path 1883" d="M197.59,130.752c-.681,1.071-1.314,2.045-1.947,3.018-.195.341-.535.243-.779.243h-9.93a6.114,6.114,0,0,0-.487,12.218c4.138.1,8.275.049,12.462.049h1.071c-.73,1.12-1.412,2.142-2.045,3.164-.146.243-.389.195-.584.195-3.748,0-7.5.049-11.245-.049a9.476,9.476,0,0,1,.195-18.936c4.284-.1,8.616,0,12.949,0A1.519,1.519,0,0,0,197.59,130.752Z" transform="translate(-84.575 -0.095)" fill="#f9080a"/>
    <path id="Path_1884" data-name="Path 1884" d="M246.14,146.37c-.73,1.168-1.412,2.142-2.045,3.164-.146.243-.438.195-.633.195H227.5a1.819,1.819,0,0,1-2-2V131.474c0-.535.1-.73.682-.682a17.187,17.187,0,0,0,2.239,0c.584-.049.73.195.681.73,0,4.673,0,9.346-.049,14.02,0,.682.146.876.876.876,5.063-.049,10.125,0,15.188,0A6.224,6.224,0,0,1,246.14,146.37Z" transform="translate(-110.441 -0.185)" fill="#f9080a"/>
  </g>
</svg>
