<svg xmlns="http://www.w3.org/2000/svg" width="146.397" height="36.034" viewBox="0 0 146.397 36.034">
  <g id="PyTorch" transform="translate(-43.616 -143.401)">
    <path id="Path_2240" data-name="Path 2240" d="M531.43,157.436h0a3.931,3.931,0,0,1,.028.558v12.221a.1.1,0,0,1-.056-.028h-2.176c-.251,0-.335-.056-.335-.335V158.105a5.185,5.185,0,0,0-.391-2.037,2.922,2.922,0,0,0-2.651-1.925,7.412,7.412,0,0,0-5.608,1.925,1.477,1.477,0,0,0-.614,1.283c.028,4.157,0,8.315.028,12.472,0,.251-.056.307-.307.307-.614-.028-1.228-.028-1.869,0-.223,0-.279-.056-.279-.279V144.21c0-.251.056-.363.335-.391.614-.112,1.2-.251,1.814-.391.307-.084.307.028.307.279v10.938c.363-.335.67-.614,1-.893a8.776,8.776,0,0,1,5.441-1.9,5.142,5.142,0,0,1,5.19,4.492,3.42,3.42,0,0,1,.056.53C531.374,157.1,531.4,157.268,531.43,157.436Z" transform="translate(-341.444)" fill="#040404"/>
    <path id="Path_2241" data-name="Path 2241" d="M54.633,145.3v3.711c0,.14-.112.223-.2.307-1.925,1.925-3.878,3.823-5.748,5.776a7.784,7.784,0,0,0-1.953,8.147,7.919,7.919,0,0,0,6.306,5.664,8.264,8.264,0,0,0,9.738-7.031,7.992,7.992,0,0,0-2.176-6.669c-.167-.167-.14-.251,0-.419.558-.53,1.088-1.06,1.618-1.618.112-.112.2-.14.307,0a11.021,11.021,0,0,1-4.1,18,10.625,10.625,0,0,1-10.854-1.925,10.944,10.944,0,0,1-1.032-15.848c2.595-2.734,5.329-5.357,7.98-8.036C54.577,145.356,54.577,145.356,54.633,145.3Z" transform="translate(0 -1.369)" fill="#ef4f2b"/>
    <path id="Path_2242" data-name="Path 2242" d="M161.656,163.982V152.124c0-.279.084-.335.335-.335,2.26.028,4.548-.056,6.808.056a10.184,10.184,0,0,1,5.664,1.73,6.388,6.388,0,0,1,2.679,4.436,9.229,9.229,0,0,1-.419,4.688,7,7,0,0,1-4.325,4.1,13.329,13.329,0,0,1-4.8.781h-3.125c-.223,0-.307.056-.307.279v7.952c0,.279-.084.335-.335.335-.642-.028-1.283-.028-1.953,0-.223,0-.279-.056-.279-.279C161.656,171.906,161.656,167.944,161.656,163.982Zm2.623-4.185v5.357c0,.2.028.251.251.251,1.228-.056,2.455-.056,3.683-.112a11.73,11.73,0,0,0,2.986-.5,4.878,4.878,0,0,0,3.237-2.9,6.344,6.344,0,0,0,.307-3.153,4.448,4.448,0,0,0-1.7-3.069,7.2,7.2,0,0,0-4.157-1.367c-1.451-.112-2.874-.028-4.325-.056-.223,0-.279.056-.279.279Z" transform="translate(-85.064 -6.044)" fill="#080707"/>
    <path id="Path_2243" data-name="Path 2243" d="M346.492,173.682a8.059,8.059,0,0,1,6.111,2.455,8.885,8.885,0,0,1,2.26,4.576,10.905,10.905,0,0,1-.781,6.78,8.475,8.475,0,0,1-16.016-1.4,10.92,10.92,0,0,1,.419-7.115,8.194,8.194,0,0,1,6.473-5.162,7.518,7.518,0,0,1,.781-.112A3.408,3.408,0,0,1,346.492,173.682Zm6.138,9.515a11.7,11.7,0,0,0-.084-1.4c-.056-.307-.112-.614-.167-.893a5.956,5.956,0,0,0-5.5-4.967,5.767,5.767,0,0,0-5.943,3.376,9.062,9.062,0,0,0-.558,6A6.01,6.01,0,0,0,346.8,190.4a5.57,5.57,0,0,0,4.548-2.539A8.177,8.177,0,0,0,352.63,183.2Z" transform="translate(-212.003 -21.827)" fill="#070606"/>
    <path id="Path_2244" data-name="Path 2244" d="M229.719,189.932q1.256-3.39,2.511-6.7c.949-2.567,1.925-5.134,2.874-7.729a.37.37,0,0,1,.419-.279c.642.028,1.284.028,1.953,0,.251,0,.279.056.2.279-1.423,3.627-2.846,7.255-4.3,10.91s-2.846,7.31-4.241,10.966a10.764,10.764,0,0,1-1.758,3.181,4.769,4.769,0,0,1-4.52,1.758,8.682,8.682,0,0,1-2.483-.7c-.167-.084-.2-.139-.139-.307.2-.586.391-1.172.558-1.758.056-.223.14-.279.363-.14a4.974,4.974,0,0,0,2.679.67,2.555,2.555,0,0,0,1.925-1.144,13.255,13.255,0,0,0,1.674-3.32c.335-.865.642-1.73.977-2.595a.615.615,0,0,0,0-.446c-2.26-5.692-4.492-11.412-6.752-17.1-.084-.2-.084-.279.167-.279.7.028,1.423.028,2.121,0a.309.309,0,0,1,.335.251q2.679,7.031,5.357,14.091A.53.53,0,0,0,229.719,189.932Z" transform="translate(-127.318 -22.926)" fill="#080707"/>
    <path id="Path_2245" data-name="Path 2245" d="M281.194,165.437V154.779c0-.251-.028-.307-.307-.307h-7.98c-.251,0-.307-.056-.307-.307.028-.586,0-1.2,0-1.814,0-.2.028-.251.251-.251h19.113c.2,0,.251.056.251.251,0,.614-.028,1.228,0,1.842,0,.251-.084.279-.279.279h-7.924c-.251,0-.307.056-.307.307v21.373c0,.251-.056.335-.335.335q-.963-.042-1.925,0c-.223,0-.307-.056-.307-.279C281.194,172.58,281.194,169.009,281.194,165.437Z" transform="translate(-165.093 -6.271)" fill="#040404"/>
    <path id="Path_2246" data-name="Path 2246" d="M468.034,188.716c.167.725.335,1.423.53,2.121.028.167-.084.2-.2.251a10.749,10.749,0,0,1-3.292,1.144,10.111,10.111,0,0,1-4.994-.251,7.725,7.725,0,0,1-5.162-4.967,10.956,10.956,0,0,1,.223-8.4,8.008,8.008,0,0,1,6.7-4.939,10.021,10.021,0,0,1,6.445,1.283.34.34,0,0,1,.2.474c-.2.558-.335,1.116-.5,1.674-.056.167-.084.223-.251.112a8.9,8.9,0,0,0-4.52-1.339,5.876,5.876,0,0,0-6.25,4.967,9.178,9.178,0,0,0,.586,5.915,5.717,5.717,0,0,0,5.3,3.4A9.652,9.652,0,0,0,468.034,188.716Z" transform="translate(-296.017 -21.766)" fill="#070606"/>
    <path id="Path_2247" data-name="Path 2247" d="M415.355,177.111a11.683,11.683,0,0,1,1.172-1.646,5.2,5.2,0,0,1,4.325-1.981,7.8,7.8,0,0,1,2.734.725c.084.028.139.056.112.2-.2.7-.391,1.423-.614,2.148a6.216,6.216,0,0,0-1.925-.725,3.883,3.883,0,0,0-3.544,1.116,10.5,10.5,0,0,0-2.2,3.292.8.8,0,0,0-.028.363v10.965c0,.279-.084.335-.335.335q-.921-.042-1.842,0c-.223,0-.307-.028-.307-.279V174.349c0-.223.056-.335.279-.363.642-.112,1.311-.251,1.953-.419.2-.056.223,0,.223.167v3.376Z" transform="translate(-266.246 -21.684)" fill="#080707"/>
    <path id="Path_2248" data-name="Path 2248" d="M93.423,160.9A1.437,1.437,0,1,1,92,162.323,1.429,1.429,0,0,1,93.423,160.9Z" transform="translate(-34.884 -12.616)" fill="#ef4f2b"/>
  </g>
</svg>
