<svg xmlns="http://www.w3.org/2000/svg" width="148.398" height="72.834" viewBox="0 0 148.398 72.834">
  <g id="React_Native" data-name="React Native" transform="translate(16.462 -107.335)">
    <path id="Path_2309" data-name="Path 2309" d="M65.7,115.779a17.248,17.248,0,0,1-.546,5.327c-.2.888.068,1.161.819,1.366a20.937,20.937,0,0,1,7.307,3.619,6.907,6.907,0,0,1,2.663,3.824c.683,2.868-.819,4.849-2.936,6.488a21.213,21.213,0,0,1-6.829,3.346c-.956.273-1.3.615-1.024,1.707a21.92,21.92,0,0,1,.546,7.307c-.341,5.122-4.234,7.512-9.014,5.6a24.315,24.315,0,0,1-6.692-4.439c-.683-.546-1.024-.478-1.639.068a22.029,22.029,0,0,1-6.556,4.371c-4.985,1.98-8.809-.546-9.083-5.873a22.6,22.6,0,0,1,.615-7.1c.2-.82.137-1.229-.819-1.5a20.223,20.223,0,0,1-6.9-3.346c-4.3-3.278-4.3-7.649.137-10.79a22.283,22.283,0,0,1,6.829-3.21c.819-.273.956-.615.751-1.366a19.708,19.708,0,0,1-.478-8.468c.683-4.3,4.1-6.351,8.263-4.917a19.558,19.558,0,0,1,7.1,4.575c.751.751,1.229.683,1.98,0a19.006,19.006,0,0,1,6.9-4.439c4.507-1.571,8.058.615,8.536,5.395A14.793,14.793,0,0,1,65.7,115.779ZM49.17,139.749H53.2a1.517,1.517,0,0,0,1.366-.683,63.928,63.928,0,0,0,4.166-7.239,1.044,1.044,0,0,0,.068-1.093c-1.3-2.458-2.663-4.917-4.166-7.239a1.691,1.691,0,0,0-1.434-.751,48.519,48.519,0,0,0-7.717,0,2.069,2.069,0,0,0-1.844,1.024c-1.366,2.117-2.6,4.234-3.756,6.488a1.88,1.88,0,0,0,0,1.98c1.161,2.254,2.39,4.371,3.688,6.488a2.11,2.11,0,0,0,2.185,1.161A27.993,27.993,0,0,1,49.17,139.749Zm-14.2-24.175a28.445,28.445,0,0,0,.683,5.395c.068.546.341.751.888.615a35.435,35.435,0,0,1,6.01-.888c.41,0,.615-.273.819-.546,1.229-1.571,2.458-3.141,3.756-4.644.273-.341.41-.615.068-.956-2.322-2.049-4.644-4.029-7.785-4.712a3.336,3.336,0,0,0-3.824,2.049A8.24,8.24,0,0,0,34.965,115.574Zm28.477.068a13.125,13.125,0,0,0,0-1.639c-.273-3.278-1.912-5.463-5.8-3.893-2.527.956-4.439,2.732-6.419,4.439-.41.341-.137.615.137.888a45.46,45.46,0,0,1,3.619,4.507,1.408,1.408,0,0,0,1.229.751,39.079,39.079,0,0,1,5.668.819c.546.137.819,0,.956-.615A26.984,26.984,0,0,0,63.442,115.642Zm-38.721,15.5a3.1,3.1,0,0,0,.751,2.117c2.185,2.6,5.258,3.551,8.263,4.575.478.137.615-.273.683-.546a55.88,55.88,0,0,1,2.185-5.6,1.227,1.227,0,0,0,0-1.093c-.683-1.844-1.434-3.619-2.117-5.463-.137-.41-.341-.683-.819-.546-2.936.956-5.736,1.98-7.922,4.3A2.918,2.918,0,0,0,24.722,131.144Zm49.1.068a4.231,4.231,0,0,0-.956-2.185c-2.185-2.39-5.122-3.483-8.058-4.439-.546-.2-.615.2-.751.615-.683,1.776-1.366,3.551-2.117,5.327a1.516,1.516,0,0,0-.068,1.093c.751,1.912,1.5,3.824,2.185,5.8.137.41.341.546.751.41a20.625,20.625,0,0,0,7.239-3.619A4.613,4.613,0,0,0,73.823,131.213Zm-38.857,15.57a11.031,11.031,0,0,0,0,1.5c.41,3.483,2.049,5.6,6.214,3.824a23.07,23.07,0,0,0,6.01-4.166c.41-.341.2-.683-.068-.956a41.325,41.325,0,0,1-3.756-4.644,1.12,1.12,0,0,0-.751-.478,57.882,57.882,0,0,1-6.01-.888c-.478-.137-.819,0-.956.615A26.356,26.356,0,0,0,34.965,146.783Zm28.477,0a25.986,25.986,0,0,0-.546-5.053c-.137-.683-.41-.956-1.161-.819-1.5.273-3,.615-4.575.751-.615.068-1.434-.137-1.912.546-1.229,1.639-2.527,3.278-3.893,4.849-.273.273-.41.546,0,.888a19.8,19.8,0,0,0,7.307,4.712,3.31,3.31,0,0,0,4.439-2.185A13.267,13.267,0,0,0,63.442,146.783Zm-6.283-7.444a24.416,24.416,0,0,0,4.1-.683c.615-.137.615-.546.478-.956-.341-1.024-.751-1.98-1.093-3-.2-.615-.478-.615-.819-.068C59,136.13,58.184,137.632,57.16,139.339Zm3.21-10.79c.546-1.571,1.024-2.8,1.434-3.961.137-.478.068-.819-.546-.888a35.87,35.87,0,0,0-4.029-.546C58.184,124.862,59.14,126.5,60.369,128.549Zm-22.194-.2c.956-1.639,1.844-3.073,2.663-4.575.273-.546,0-.683-.478-.683a29.577,29.577,0,0,0-3.415.546.443.443,0,0,0-.341.683A24.534,24.534,0,0,0,38.175,128.344Zm3,10.926c-.888-1.639-1.776-3.141-2.6-4.644-.341-.615-.615-.478-.819.068-.41,1.024-.751,2.049-1.093,3-.137.341-.2.751.273.819A14.5,14.5,0,0,0,41.18,139.271Zm11.131,2.8H46.916c-.41,0-.751.068-.41.546.751.956,1.571,1.912,2.39,2.8.2.273.41.273.683,0A23.98,23.98,0,0,0,52.311,142.071Zm.2-21.648c-1.093-1.3-1.912-2.322-2.8-3.346-.273-.341-.546-.478-.956,0l-2.254,2.663c-.137.137-.273.273-.2.478s.341.2.478.2A20.138,20.138,0,0,1,52.516,120.423Z" transform="translate(8.483 0)" fill="#65dafa"/>
    <g id="Group_242" data-name="Group 242" transform="translate(-16.462 160.671)">
      <path id="Path_2310" data-name="Path 2310" d="M217.952,145.517V132.552c0-.908-.083-1.652,1.321-1.652,1.321,0,1.239.743,1.239,1.569v15.69c0,.5.413,1.4-.413,1.569-.908.083-1.982.5-2.725-.661-2.23-3.468-4.625-6.854-6.937-10.24a13.988,13.988,0,0,0-2.312-2.725V148.49c0,.991-.248,1.4-1.321,1.4-1.156,0-1.4-.33-1.4-1.4.083-5.285,0-10.57.083-15.856,0-.578-.413-1.486.578-1.569.908-.083,1.9-.413,2.643.661,1.9,2.89,3.8,5.7,5.781,8.506C215.474,141.883,216.63,143.535,217.952,145.517Z" transform="translate(-129.013 -130.834)" fill="#68dafa"/>
      <path id="Path_2311" data-name="Path 2311" d="M123.223,141.291c2.808,2.065,4.129,5.037,5.946,7.68.165.248.33.5,0,.743-.5.413-2.808-.083-3.221-.743-1.239-1.817-2.477-3.716-3.716-5.533a5.723,5.723,0,0,0-6.111-1.817c-.661.248-.5.743-.5,1.156,0,1.982-.083,3.881,0,5.863.083,1.074-.5,1.156-1.321,1.156s-1.4,0-1.4-1.156c.083-5.533,0-11.148,0-16.681,0-.5,0-1.074.743-1.074,3.468.083,6.854-.33,10.323.248a4.878,4.878,0,0,1,4.212,4.707,5.087,5.087,0,0,1-3.386,4.955A11.966,11.966,0,0,1,123.223,141.291Zm-4.046-2.065c.991,0,1.982.083,2.89,0,2.147-.083,3.468-1.321,3.386-3.221,0-1.652-1.321-2.808-3.468-2.89-1.4-.083-2.808,0-4.212,0-2.643,0-2.395-.33-2.395,2.477C115.46,139.227,115.46,139.227,119.176,139.227Z" transform="translate(-112.9 -130.82)" fill="#68dafa"/>
      <path id="Path_2312" data-name="Path 2312" d="M239.878,150.859c-1.074-.083-2.312.661-2.725-1.074-.165-.578-.578,0-.826.165a7.155,7.155,0,0,1-5.45,1.156,3.967,3.967,0,0,1-3.386-3.055,4.1,4.1,0,0,1,2.23-4.294c1.734-.908,3.634-.743,5.45-1.156.743-.165,1.817.165,1.817-1.156a2.165,2.165,0,0,0-1.817-2.312c-2.23-.578-3.386-.165-4.79,1.817-.578.826-1.4.5-2.065.33-.743-.165-.33-.826-.165-1.321a4.09,4.09,0,0,1,2.477-2.477,10.2,10.2,0,0,1,5.2-.413,3.789,3.789,0,0,1,3.468,4.046V145c0,.991.083,1.982,0,2.89A20.909,20.909,0,0,0,239.878,150.859Zm-2.973-5.368c-.165-.33.413-1.321-.578-1.156a35.39,35.39,0,0,0-5.12,1.156,1.823,1.823,0,0,0-1.321,1.9,1.964,1.964,0,0,0,1.321,1.817A4.214,4.214,0,0,0,236.905,145.491Z" transform="translate(-132.853 -131.882)" fill="#68dafa"/>
      <path id="Path_2313" data-name="Path 2313" d="M159.281,136.983a8.428,8.428,0,0,1,2.477.248,3.649,3.649,0,0,1,2.725,3.634c.083,2.312,0,4.625.083,6.937a14.832,14.832,0,0,0,.165,1.817c.083.413.743,1.074-.083,1.239-.661.165-1.734.5-2.065-.413-.413-.991-.743-.743-1.321-.33a7.234,7.234,0,0,1-5.368.991,3.862,3.862,0,0,1-1.074-7.35c1.817-.908,3.8-.743,5.7-1.239.578-.165,1.321,0,1.486-.743a2.113,2.113,0,0,0-.661-2.147c-1.569-1.4-4.872-.991-5.7.826-.578,1.239-1.4.908-2.147.743-.661-.083-.413-.743-.248-1.156.578-1.817,2.312-2.973,4.707-3.138A7.1,7.1,0,0,0,159.281,136.983Zm2.808,8.506c-.165-.33.413-1.239-.578-1.156a49.391,49.391,0,0,0-5.037.991,1.958,1.958,0,0,0-1.4,1.9,1.891,1.891,0,0,0,1.239,1.817C158.62,150.03,162.171,148.709,162.088,145.488Z" transform="translate(-119.808 -131.879)" fill="#68dafa"/>
      <path id="Path_2314" data-name="Path 2314" d="M284.7,144.742h-4.212c-.661,0-.908.165-.743.908a4.144,4.144,0,0,0,3.221,3.551c1.734.33,2.973-.248,3.964-2.065.661-1.239,1.652-.578,2.312-.33.826.33.165,1.074-.083,1.486a6.536,6.536,0,0,1-11.974-3.138c-.33-3.634,1.074-6.689,3.881-7.763,4.294-1.652,8.836.743,8.836,6.524,0,.743-.5.743-.991.743C287.513,144.742,286.109,144.742,284.7,144.742Zm-1.239-1.982c.908,0,1.734-.083,2.643,0,1.239.083,1.321-.578.991-1.486a3.771,3.771,0,0,0-7.185.5c-.165.743.083,1.074.826.991Z" transform="translate(-141.51 -131.875)" fill="#68dafa"/>
      <path id="Path_2315" data-name="Path 2315" d="M142.31,144.726h-4.046c-.743,0-.908.33-.908.991a4.279,4.279,0,0,0,3.055,3.386,3.71,3.71,0,0,0,4.046-1.817,1.988,1.988,0,0,1,2.56-.661c.33.248.165.5.083.743a5.228,5.228,0,0,1-1.817,2.56,6.88,6.88,0,0,1-6.772.661,5.656,5.656,0,0,1-3.634-5.037,9.152,9.152,0,0,1,.826-5.533,6.2,6.2,0,0,1,7.515-2.89,6.736,6.736,0,0,1,4.212,6.854c-.083.661-.5.661-.991.661-1.321.083-2.725.083-4.129.083Zm-1.156-1.982h2.89c.743,0,.991-.248.826-.991a3.576,3.576,0,0,0-3.634-2.89,3.757,3.757,0,0,0-3.8,2.89c-.165.743.083.991.826.991Z" transform="translate(-116.711 -131.86)" fill="#68dafa"/>
      <path id="Path_2316" data-name="Path 2316" d="M170.5,144c0-3.716,1.486-6.028,4.459-6.854,3.056-.826,5.946.413,7.019,2.973.165.413.578.991-.248,1.239-.661.165-1.486.743-1.9-.33a3.131,3.131,0,0,0-3.634-2.147c-1.486.165-2.56,1.4-2.973,3.221a9.372,9.372,0,0,0,.165,4.542,3.52,3.52,0,0,0,3.3,2.56,3.054,3.054,0,0,0,3.221-2.312c.33-1.4,1.239-1.074,1.982-.826,1.156.33.413,1.156.165,1.734-1.156,2.725-3.551,3.881-6.607,3.386a6.045,6.045,0,0,1-4.872-5.863A7.559,7.559,0,0,1,170.5,144Z" transform="translate(-122.935 -131.878)" fill="#68dafa"/>
      <path id="Path_2317" data-name="Path 2317" d="M266.8,147.753c1.239-3.386,2.312-6.441,3.468-9.414a1.8,1.8,0,0,1,2.395-1.074c.743.33.165.826.083,1.156-1.239,3.3-2.477,6.607-3.8,9.91-.165.5-.413.908-.578,1.4-.248.743-.5,1.239-1.4,1.239s-1.4-.165-1.734-1.156c-1.4-3.716-2.808-7.35-4.212-11.066-.165-.413-.743-.991-.083-1.486a1.938,1.938,0,0,1,2.395.743c.661,1.9,1.321,3.716,2.065,5.616A40.88,40.88,0,0,0,266.8,147.753Z" transform="translate(-138.633 -131.914)" fill="#68dafa"/>
      <path id="Path_2318" data-name="Path 2318" d="M189.928,133.948v1.074c-.165.991.248,1.321,1.239,1.239.661-.083,1.239-.083,1.156.908,0,.908-.5,1.074-1.239.991-.908-.083-1.239.248-1.239,1.156.083,2.312,0,4.542,0,6.854,0,.991.248,1.734,1.486,1.652s.991.826,1.074,1.486c.165.908-.661.743-1.074.826-2.643.33-3.8-.743-3.881-3.551-.083-2.395-.083-4.707,0-7.1,0-.908-.083-1.4-1.156-1.4-.578,0-.5-.5-.5-.908s-.083-.991.578-.908c1.239.083,1.239-.743,1.156-1.486a2.314,2.314,0,0,1,1.569-2.808c.908-.33.908-.165.908.578A8.493,8.493,0,0,0,189.928,133.948Z" transform="translate(-125.599 -130.991)" fill="#68dafa"/>
      <path id="Path_2319" data-name="Path 2319" d="M246.234,143.287v-3.3c0-.826.248-1.817-1.239-1.734-.578.083-.413-.578-.5-.991,0-.33,0-.908.5-.826,1.486.165,1.321-.908,1.156-1.734-.248-1.486.578-2.147,1.734-2.725.578-.248.743-.165.743.5,0,.908.083,1.9,0,2.808s.248,1.321,1.156,1.239c.661-.083,1.156,0,1.156.908,0,.826-.413,1.074-1.074.991-.908-.083-1.239.248-1.239,1.156.083,2.395,0,4.707,0,7.1,0,.991.413,1.652,1.486,1.486,1.239-.248.826.743.991,1.239.33.661-.248.826-.826.991-2.395.5-4.046-.743-4.129-3.138a32.707,32.707,0,0,0,.083-3.964Z" transform="translate(-135.824 -130.999)" fill="#65dafa"/>
      <path id="Path_2320" data-name="Path 2320" d="M257.412,144.172v5.863c0,.826-.33.991-1.073.991s-1.239,0-1.239-.991c.083-3.881,0-7.763,0-11.644,0-.991.5-.991,1.239-.991s1.073.165,1.073.991C257.33,140.29,257.412,142.19,257.412,144.172Z" transform="translate(-137.672 -131.966)" fill="#65dafa"/>
      <path id="Path_2321" data-name="Path 2321" d="M255.1,132.3c-.083-.826,0-1.4,1.074-1.4s1.239.413,1.156,1.321c0,.826,0,1.486-1.156,1.486C255.1,133.708,255.012,133.13,255.1,132.3Z" transform="translate(-137.666 -130.834)" fill="#65dafa"/>
    </g>
    <path id="Path_2322" data-name="Path 2322" d="M59.48,144.761a4.612,4.612,0,0,1-4.78-4.712,4.867,4.867,0,0,1,4.849-4.849,5,5,0,0,1,4.849,4.78C64.261,142.439,62.212,144.966,59.48,144.761Z" transform="translate(-1.76 -8.836)" fill="#65dafa"/>
  </g>
</svg>
