<svg id="Ruby_Rails" data-name="Ruby Rails" xmlns="http://www.w3.org/2000/svg" width="147.866" height="52.067" viewBox="0 0 147.866 52.067">
  <path id="Path_1400" data-name="Path 1400" d="M102.264,94.494c-.352.3-.7.553-1.056.855-.2.2-.352,0-.5-.1q-1.66-1.207-3.32-2.263A49.325,49.325,0,0,0,85.464,87.2,31.234,31.234,0,0,0,74.5,85.742a26.843,26.843,0,0,0-9.708,2.465c-7.293,3.269-11.82,8.953-14.184,16.5a37.861,37.861,0,0,0-1.459,7.847,53.244,53.244,0,0,0-.05,7.494,29.775,29.775,0,0,0,.6,4.678,1.711,1.711,0,0,1,.05.5c-.151.151-.3.1-.5.1H20.63c-.4,0-.4,0-.352-.4.2-1.308.453-2.666.754-3.923A67.609,67.609,0,0,1,31.393,97.864,54.754,54.754,0,0,1,48.143,82.02,32.816,32.816,0,0,1,58.2,77.745a28.244,28.244,0,0,1,7.092-.654,44.259,44.259,0,0,1,17,3.974,71.679,71.679,0,0,1,19.566,12.977C102.012,94.142,102.213,94.243,102.264,94.494Z" transform="translate(-17.723 -73.268)" fill="#cc2227"/>
  <path id="Path_1401" data-name="Path 1401" d="M116.783,140.258v5.633c0,.754.05.654-.654.654h-5.885c-.654,0-.654.1-.654-.654V120.34c-.05-.3.1-.4.352-.352h13.178a8.676,8.676,0,0,1,8.249,6.287,11.841,11.841,0,0,1-.252,6.991,7.256,7.256,0,0,1-5.382,4.879,3.208,3.208,0,0,1-.453.1c2.766,2.766,5.482,5.533,8.2,8.249-.1.2-.251.1-.4.1h-9.607a.938.938,0,0,1-.8-.352c-1.71-1.811-3.471-3.571-5.181-5.382A2.914,2.914,0,0,0,116.783,140.258Zm2.968-13.631h-2.515c-.453,0-.453,0-.453.453v5.181c0,.453,0,.453.5.453h4.778a1.266,1.266,0,0,0,1.006-.453,3.359,3.359,0,0,0,1.006-2.163,3.7,3.7,0,0,0-.905-3.018,1.354,1.354,0,0,0-1.207-.5A15.684,15.684,0,0,1,119.751,126.627Z" transform="translate(-62.12 -94.587)" fill="#cc2227"/>
  <path id="Path_1402" data-name="Path 1402" d="M181.776,136.465v9.808c0,.252-.05.4-.352.352h-6.237c-.5,0-.5,0-.5-.5V142.45c0-.5,0-.553-.553-.553h-5.784c-.553,0-.553,0-.553.5v3.672c0,.5,0,.5-.5.5H161c-.5,0-.5,0-.5-.553V127.31a7.631,7.631,0,0,1,1.157-4.024,6.373,6.373,0,0,1,5.181-3.169c1.861-.1,3.772-.05,5.633-.05a18.837,18.837,0,0,1,2.917.05,6.886,6.886,0,0,1,5.835,4.275,7.014,7.014,0,0,1,.453,2.716C181.776,130.278,181.776,133.346,181.776,136.465ZM171.264,134.4h2.817c.6,0,.6,0,.6-.654v-5.533a1.526,1.526,0,0,0-1.257-1.61,1.711,1.711,0,0,0-.5-.05H169.7a2.37,2.37,0,0,0-.855.2,1.465,1.465,0,0,0-1.006,1.459v5.734c0,.453,0,.453.453.453Z" transform="translate(-87.427 -94.617)" fill="#cc2227"/>
  <path id="Path_1403" data-name="Path 1403" d="M276.821,146.906h-5.935c-.5,0-.5,0-.5-.5v-5.684c0-.6,0-.553.553-.553h11.015c.855,0,.8.1.8-.754V137.5c0-.6,0-.6-.6-.6h-5.181a7.315,7.315,0,0,1-5.231-2.314,6.21,6.21,0,0,1-1.71-3.974,19.42,19.42,0,0,1,.05-3.823,7.029,7.029,0,0,1,5.432-5.986,6.623,6.623,0,0,1,1.71-.2h11.015c.252,0,.352.05.352.3v5.935c0,.5,0,.5-.5.5H277.274c-.8,0-.7-.05-.7.7v1.962c0,.352.1.4.453.4,1.962,0,3.873-.1,5.835,0a6.849,6.849,0,0,1,6.237,4.175,6.491,6.491,0,0,1,.553,2.364,23.617,23.617,0,0,1-.05,3.772,6.892,6.892,0,0,1-5.784,6.086,7.118,7.118,0,0,1-1.459.1Z" transform="translate(-141.831 -94.898)" fill="#cc2227"/>
  <path id="Path_1404" data-name="Path 1404" d="M230.55,133.578V120.953c0-.553,0-.553.553-.553h6.388c.654,0,.6,0,.6.6v18.208c0,.8-.1.754.754.754h8.8c.6,0,.6,0,.6.6v5.684c0,.5,0,.5-.553.5H231c-.5,0-.5,0-.5-.553C230.55,142.028,230.55,137.8,230.55,133.578Z" transform="translate(-122.219 -94.798)" fill="#cc2227"/>
  <path id="Path_1405" data-name="Path 1405" d="M209.4,133.528V120.853c0-.553,0-.553.553-.553h6.488c.553,0,.553,0,.553.553V146.4c0,.2-.1.251-.251.251h-6.79c-.5,0-.5,0-.5-.553C209.4,141.979,209.4,137.754,209.4,133.528Z" transform="translate(-111.731 -94.748)" fill="#cc2227"/>
  <path id="Path_1406" data-name="Path 1406" d="M17.021,134c1.459.553,2.867,1.056,4.225,1.559a1.459,1.459,0,0,1-.151.553c-.5,1.207-1.006,2.414-1.509,3.571-.1.251-.2.352-.453.251-1.207-.453-2.414-.905-3.672-1.358-.2-.1-.3-.151-.2-.4C15.814,136.817,16.418,135.408,17.021,134Z" transform="translate(-15.222 -101.558)" fill="#cc2728"/>
  <path id="Path_1407" data-name="Path 1407" d="M81.2,158.1a5.879,5.879,0,0,1,1.006.3l2.565.905c.2.05.4.151.4.4.2,1.459.453,2.867.754,4.275v.2c-.2.1-.3-.05-.453-.1-1.157-.4-2.364-.855-3.521-1.257-.251-.1-.4-.151-.453-.453-.2-1.408-.3-2.817-.4-4.175C81.15,158.2,81.15,158.2,81.2,158.1Z" transform="translate(-47.964 -113.536)" fill="#cc2728"/>
  <path id="Path_1408" data-name="Path 1408" d="M41.766,99.3l2.414,2.113c.151.151.2.251.05.4-.8.855-1.559,1.76-2.364,2.716-.956-.8-1.911-1.61-2.867-2.465Z" transform="translate(-27.04 -84.311)" fill="#cc2728"/>
  <path id="Path_1409" data-name="Path 1409" d="M85.208,137.388a9.251,9.251,0,0,1-1.107-.855c-.5-.4-1.056-.8-1.559-1.207a.44.44,0,0,1-.251-.453c.3-1.257.6-2.565,1.056-3.873.855.7,1.66,1.358,2.515,1.962a.315.315,0,0,1,.1.4,25,25,0,0,0-.7,3.873C85.308,137.287,85.258,137.338,85.208,137.388Z" transform="translate(-48.551 -100.066)" fill="#cc2728"/>
  <path id="Path_1410" data-name="Path 1410" d="M94.891,115.568c-.553-.855-1.107-1.66-1.66-2.465a.266.266,0,0,1,.05-.4,19.51,19.51,0,0,1,1.962-2.113c.151-.151.251-.151.352,0,.453.7.956,1.408,1.408,2.113.1.151.05.252-.05.4A19.815,19.815,0,0,0,94.891,115.568Z" transform="translate(-53.959 -89.865)" fill="#cc2728"/>
  <path id="Path_1411" data-name="Path 1411" d="M73.352,79.463c-.905.5-1.76,1.006-2.616,1.509-.2.1-.3.1-.4-.1-.453-.7-.905-1.408-1.408-2.113-.151-.2-.05-.3.1-.4.8-.453,1.61-.855,2.414-1.308a.263.263,0,0,1,.4.1C72.347,77.9,72.85,78.658,73.352,79.463Z" transform="translate(-41.877 -73.226)" fill="#cc2728"/>
  <path id="Path_1412" data-name="Path 1412" d="M138.871,77.822c-.956-.352-1.911-.7-2.817-1.056-.754-.251-.754-.251-.754-1.107a13.289,13.289,0,0,1,.1-1.459c.1-.1.151-.1.2-.1a17.025,17.025,0,0,1,3.068,1.056.451.451,0,0,1,.352.5C138.972,76.363,138.921,77.068,138.871,77.822Z" transform="translate(-74.903 -71.786)" fill="#cc2728"/>
  <path id="Path_1413" data-name="Path 1413" d="M112.437,102.8c-.251-.8-.5-1.559-.754-2.314-.05-.2,0-.3.2-.4.905-.352,1.811-.7,2.766-1.006.2-.05.3,0,.352.151.2.654.453,1.308.654,1.962.05.2,0,.3-.2.4A31.44,31.44,0,0,0,112.437,102.8Z" transform="translate(-63.155 -84.193)" fill="#cc2728"/>
  <path id="Path_1414" data-name="Path 1414" d="M138.722,100.066a19.277,19.277,0,0,0-3.32-.4c-.3,0-.4-.1-.4-.4.05-.553.1-1.107.1-1.66,0-.251.1-.3.3-.3,1.056.05,2.113.251,3.169.4.251.05.251.2.251.4C138.823,98.708,138.772,99.362,138.722,100.066Z" transform="translate(-74.753 -83.317)" fill="#cc2728"/>
  <path id="Path_1415" data-name="Path 1415" d="M104.376,71.814c-1.157,0-2.263,0-3.37.1-.151,0-.3,0-.352-.2-.2-.654-.4-1.257-.654-1.962a25.21,25.21,0,0,1,3.32-.251c.2,0,.3.05.352.251C103.923,70.456,104.124,71.11,104.376,71.814Z" transform="translate(-57.358 -69.5)" fill="#cc2728"/>
</svg>
