<svg xmlns="http://www.w3.org/2000/svg" width="146.901" height="44.819" viewBox="0 0 146.901 44.819">
  <g id="Sentry" transform="translate(-30.928 -252.481)">
    <path id="Path_2107" data-name="Path 2107" d="M42.511,297.3H36.586a6.5,6.5,0,0,1-1.985-.288,4.894,4.894,0,0,1-3.25-6.788,49.8,49.8,0,0,1,3.02-5.408c.115-.2.23-.2.431-.115a15.8,15.8,0,0,1,3.567,2.761c.23.23.086.4-.029.6-.374.662-.777,1.323-1.151,1.985-.719,1.208-.2,2.157,1.208,2.157,1.783,0,3.567-.029,5.321.029.6,0,.6-.2.518-.662a15.714,15.714,0,0,0-3.912-7.335,15.147,15.147,0,0,0-3.365-2.675c-.4-.23-.489-.374-.23-.805,2.157-3.71,4.315-7.421,6.414-11.131.23-.4.374-.431.748-.2a29.315,29.315,0,0,1,14.152,20.278c.115.662.2,1.323.288,1.985.029.374.173.547.6.518.892-.029,1.812-.029,2.7,0,.431,0,.518-.115.489-.547a32.433,32.433,0,0,0-4.4-13.576,32.671,32.671,0,0,0-11.908-11.85c-.4-.23-.489-.4-.23-.863,1.9-3.221,3.739-6.5,5.609-9.751a5.787,5.787,0,0,1,3.509-2.963,4.8,4.8,0,0,1,4.717,1.294,7.75,7.75,0,0,1,1.381,1.812Q70.3,272.29,79.846,288.843a6.2,6.2,0,0,1,.978,4.315,5.055,5.055,0,0,1-4.947,4.084c-1.467.086-2.963,0-4.458.029-.316,0-.431-.115-.4-.431a40.342,40.342,0,0,0,0-4.171c-.029-.374.115-.46.46-.46.662.029,1.294,0,1.956-.029,1.467,0,1.985-.92,1.266-2.157-3.567-6.213-7.162-12.454-10.729-18.667-2.215-3.883-4.458-7.737-6.673-11.62-.777-1.352-1.812-1.352-2.589-.029-.777,1.352-1.524,2.7-2.33,4.027-.259.431-.2.6.173.92a37.926,37.926,0,0,1,12.6,17.459,37.686,37.686,0,0,1,2.157,14.612c-.029.46-.173.547-.575.547-4.257,0-8.514-.029-12.742,0-.46,0-.547-.115-.518-.575a24.227,24.227,0,0,0-7.881-19.847c-.4-.374-.575-.374-.834.115-.431.805-.892,1.611-1.381,2.387a.51.51,0,0,0,.115.777,20.547,20.547,0,0,1,6.155,16.338c-.058.662-.259.777-.863.777C46.6,297.271,44.554,297.3,42.511,297.3Z" fill="#485465"/>
    <path id="Path_2108" data-name="Path 2108" d="M491.857,320.713c.719-2.272,1.381-4.43,2.071-6.587.46-1.5.949-2.991,1.409-4.487.086-.259.115-.489.518-.489,1.467.029,2.905,0,4.372,0,.115.259-.029.431-.115.6l-6.3,17.431c-.92,2.5-2.445,4.372-5.177,4.947a10.75,10.75,0,0,1-4.286,0c-.345-.058-.489-.2-.46-.575.029-.863.029-1.7,0-2.56,0-.374.086-.46.46-.374a6.953,6.953,0,0,0,1.323.173,3.7,3.7,0,0,0,3.826-2.848,1.207,1.207,0,0,0-.115-.777c-1.9-5.091-3.768-10.211-5.666-15.3-.259-.748-.259-.748.518-.748,1.093,0,2.215.029,3.308-.029.518-.029.719.144.892.633,1.064,3.423,2.157,6.846,3.221,10.269A3.082,3.082,0,0,0,491.857,320.713Z" transform="translate(-322.441 -40.326)" fill="#485465"/>
    <path id="Path_2109" data-name="Path 2109" d="M237.052,312.722a15.287,15.287,0,0,1-6.644-1.524c-.374-.173-.431-.345-.288-.719.316-.863.6-1.755.834-2.617.115-.46.259-.489.69-.288a12.33,12.33,0,0,0,6.213,1.5c1.381-.086,2.359-.69,2.56-1.668a2.453,2.453,0,0,0-1.582-2.7c-1.381-.719-2.819-1.409-4.2-2.129a6.239,6.239,0,0,1-3.365-3.826c-.863-3.48.719-6.673,4.919-7.45a14.426,14.426,0,0,1,8.284,1.151c.374.144.316.345.23.633-.288.892-.6,1.783-.863,2.675-.115.431-.288.4-.633.259a14.237,14.237,0,0,0-4.2-1.151,5.779,5.779,0,0,0-1.409.029,2.187,2.187,0,0,0-2.013,1.611,2.152,2.152,0,0,0,1.237,2.445c.949.518,1.927.949,2.905,1.438a21.446,21.446,0,0,1,2.646,1.467,5.788,5.788,0,0,1-1.438,10.384A14.67,14.67,0,0,1,237.052,312.722Z" transform="translate(-141.847 -27.503)" fill="#485466"/>
    <path id="Path_2110" data-name="Path 2110" d="M346.784,310.568c2.013-2.445,4.631-2.589,7.335-2.071a4.657,4.657,0,0,1,3.826,4.487c.23,3.768.058,7.536.086,11.333,0,.288-.086.4-.374.4-1.266,0-2.531-.029-3.768,0-.518,0-.374-.345-.374-.6v-8.687a8.532,8.532,0,0,0-.086-1.208c-.316-2.186-1.582-2.675-3.6-2.3a2.721,2.721,0,0,0-2.128,1.87,9.756,9.756,0,0,0-.46,3.509q-.043,3.365,0,6.731c0,.575-.173.719-.719.69-1.064-.029-2.128-.029-3.164,0-.46,0-.662-.058-.662-.6.029-4.976.029-9.981,0-14.957,0-.431.086-.575.547-.575q1.208.043,2.416,0c.4-.029.547.144.633.489C346.439,309.532,346.583,309.992,346.784,310.568Z" transform="translate(-222.096 -39.73)" fill="#485465"/>
    <path id="Path_2111" data-name="Path 2111" d="M295.218,317.822h-4.8c-.431,0-.575.086-.547.547a3.67,3.67,0,0,0,3.365,3.394,11.578,11.578,0,0,0,5.839-.978c.489-.2.547-.086.547.374-.029.777-.029,1.524,0,2.3a.643.643,0,0,1-.431.719,13.1,13.1,0,0,1-9.233.259c-3.049-1.093-4.43-3.509-4.66-6.644a12.193,12.193,0,0,1,.374-4.2,6.936,6.936,0,0,1,6.357-5.177,10.913,10.913,0,0,1,4.2.431,6.5,6.5,0,0,1,4.314,5.9c.058.863,0,1.755.029,2.617.029.4-.144.489-.518.489C298.468,317.822,296.828,317.822,295.218,317.822Zm-2.1-2.934h2.848c.259,0,.4,0,.4-.345a3.168,3.168,0,0,0-6.328-.058c-.029.374.115.4.4.4Z" transform="translate(-181.172 -39.822)" fill="#485466"/>
    <path id="Path_2112" data-name="Path 2112" d="M401.926,306.352c0-1.323-.029-2.646,0-3.969,0-.518-.086-.748-.662-.69-.6.058-1.208,0-1.812.029-.345,0-.46-.115-.46-.46.029-.777.029-1.582,0-2.359-.029-.4.144-.489.518-.489.662.029,1.294,0,1.956,0,.345,0,.489-.115.46-.46-.029-.748.029-1.5,0-2.215,0-.345.086-.518.431-.6,1.208-.345,2.416-.69,3.6-1.064.345-.115.489-.058.46.345-.029,1.093.029,2.215-.029,3.308-.029.662.2.777.777.748.863-.058,1.755,0,2.617-.029.345,0,.489.086.46.46-.029.777-.029,1.582,0,2.359.029.4-.173.489-.518.489-.949-.029-1.9,0-2.819-.029-.431,0-.547.115-.518.547.029,2.387,0,4.775,0,7.133a1.8,1.8,0,0,0,2.071,1.985,5.06,5.06,0,0,0,1.323-.173c.4-.115.46.058.46.374,0,.834-.029,1.668,0,2.5a.418.418,0,0,1-.4.489,10.288,10.288,0,0,1-4.861.029,4.16,4.16,0,0,1-3.049-4.2c0-1.352.029-2.7,0-4.056Z" transform="translate(-262.195 -29.589)" fill="#485465"/>
    <path id="Path_2113" data-name="Path 2113" d="M447.4,311.1a5.872,5.872,0,0,1,5.868-2.79c.2.029.46-.058.46.316v3.854a9.534,9.534,0,0,0-2.56,0,3.794,3.794,0,0,0-3.48,4.142c-.029,2.416-.029,4.861.029,7.277.029.719-.2.863-.863.834-1.064-.058-2.129-.029-3.164,0-.374,0-.489-.115-.489-.489V309.085c0-.4.144-.489.518-.46q1.208.043,2.416,0a.567.567,0,0,1,.662.489A14.94,14.94,0,0,0,447.4,311.1Z" transform="translate(-293.689 -39.743)" fill="#485465"/>
  </g>
</svg>
