<svg xmlns="http://www.w3.org/2000/svg" width="117.366" height="52.067" viewBox="0 0 117.366 52.067">
  <g id="SQLite" transform="translate(-8.6 -64.281)">
    <path id="Path_1923" data-name="Path 1923" d="M75.811,92.375a31.189,31.189,0,0,1,5.948-1.733c.039.079,0,.118-.039.158-1.457,2.206-2.994,4.333-4.648,6.381a.858.858,0,0,1-.355.276A11.312,11.312,0,0,0,71.4,102.38c-.118.236-.2.433-.315.67-.039.079-.039.158-.158.158.079-.512.2-.985.276-1.457a79.016,79.016,0,0,1,4.648-14.93,101.511,101.511,0,0,1,6.578-13.078,32.552,32.552,0,0,1,3.663-5.082.122.122,0,0,1,.039-.079.668.668,0,0,0-.315.236,35.5,35.5,0,0,0-5.318,6.3A65.832,65.832,0,0,0,73.29,89.3,66.466,66.466,0,0,0,69.9,104.271a39.2,39.2,0,0,0-.118,7.13,17.294,17.294,0,0,0,.748,3.979c.079.236-.079.236-.2.315-.158.079-.158-.118-.158-.2a13.741,13.741,0,0,1-.709-3.112c-.118-.788-.2-1.576-.276-2.364a10.407,10.407,0,0,0-.079-1.142c-.039-.473-.039-.945-.039-1.418a18.515,18.515,0,0,1,0-2.56,8.067,8.067,0,0,0-.039-1.379,45.364,45.364,0,0,0-.906-4.609,18.933,18.933,0,0,0-.63-2.127,1.18,1.18,0,0,0-.158-.394,1.912,1.912,0,0,1-.236-1.536,11.928,11.928,0,0,0,.236-1.261c.079-.276.118-.551.236-.867a30.029,30.029,0,0,1,1.812,3.545c0-.079.039-.079,0-.118a21.1,21.1,0,0,0-1.418-4.294.5.5,0,0,1-.039-.473c.079-.236.118-.433.2-.67.158-.512.355-1.024.551-1.615a32.672,32.672,0,0,1,1.694,3.309v-.2a27.014,27.014,0,0,0-1.1-3.585,1.124,1.124,0,0,1-.158-.867c.2-.945.473-1.891.709-2.836l.236-.827c.236-.67.473-1.339.67-2.048.2-.512.433-1.024.63-1.576.158-.433.394-.867.551-1.339.473-.985.945-2.009,1.418-2.994a1.18,1.18,0,0,1,.158-.315c.473-.827.906-1.654,1.379-2.442q.827-1.359,1.773-2.718c.276-.394.591-.788.867-1.142.473-.63,1.024-1.221,1.536-1.812.394-.394.788-.748,1.182-1.142.512-.394.985-.788,1.5-1.142a6.12,6.12,0,0,1,2.718-1.1,4.064,4.064,0,0,1,3.427,1.1,6.658,6.658,0,0,1,2.088,4.1,14.976,14.976,0,0,1-.551,5.909,41.149,41.149,0,0,1-3.427,8.272c-.906,1.694-1.891,3.348-2.915,5a.65.65,0,0,1-.394.315,41.388,41.388,0,0,0-6.815,3.191.039.039,0,0,0-.039.039c-.039,0-.039.039-.079.039C75.733,92.414,75.772,92.414,75.811,92.375Zm-5.357.2v-.079l-.039.039c0,.039,0,.039.039.039C70.415,92.611,70.454,92.611,70.454,92.572Zm-.985,3.86Z" transform="translate(-35.422 0)" fill="#013b57"/>
    <path id="Path_1924" data-name="Path 1924" d="M44.762,70.3c-.394.394-.788.748-1.182,1.142h-31a2.793,2.793,0,0,0-2.836,2.915V100.08c0,.394.039.433.433.433H31.644a1.34,1.34,0,0,0,.394-.039,18.934,18.934,0,0,1,.63,2.127c.394,1.536.67,3.073.906,4.609a7.951,7.951,0,0,1,.039,1.379c-.039.867-.039,1.694,0,2.56.039.473,0,.945.039,1.418.039.394.039.788.079,1.142H12.618a3.941,3.941,0,0,1-3.9-2.954,4.207,4.207,0,0,1-.118-.985V74.239A3.951,3.951,0,0,1,12.539,70.3H44.762Z" transform="translate(0 -3.648)" fill="#1080cb"/>
    <path id="Path_1925" data-name="Path 1925" d="M156.355,149.582a48.186,48.186,0,0,0,3.27,3.663,6.628,6.628,0,0,0,1.812,1.3,4.32,4.32,0,0,0,3.427.2c.355-.118.236.2.355.315.118.158-.039.2-.118.236a8.981,8.981,0,0,1-8.39-1.221,16.18,16.18,0,0,1-2.442-2.482,14.052,14.052,0,0,0-1.694-1.733,2.561,2.561,0,0,0-.867-.433,10,10,0,0,1-5.751-3.939,9.656,9.656,0,0,1-1.93-6.894,10.122,10.122,0,0,1,8.469-9.021,10.537,10.537,0,0,1,7.524,1.457,9.749,9.749,0,0,1,4.53,6.539,10.172,10.172,0,0,1-7.878,11.9C156.474,149.542,156.434,149.582,156.355,149.582Zm-9.533-9.927a11.94,11.94,0,0,0,.906,4.963c1.142,2.521,2.954,4.254,5.869,4.451a6.85,6.85,0,0,0,4.688-1.261,8.2,8.2,0,0,0,3.073-5.16,14.8,14.8,0,0,0,.2-4.569,11.615,11.615,0,0,0-1.182-4.136,6.806,6.806,0,0,0-8.981-3.073,7.167,7.167,0,0,0-3.624,3.821A12.643,12.643,0,0,0,146.823,139.655Z" transform="translate(-82.05 -39.481)" fill="#023c58"/>
    <path id="Path_1926" data-name="Path 1926" d="M108.13,147.119v-2.4c0-.2.039-.236.236-.236.355,0,.355,0,.355.355a4.629,4.629,0,0,0,5.2,4.412,3.947,3.947,0,0,0,2.088-.748,3.342,3.342,0,0,0,.709-4.451,6.594,6.594,0,0,0-1.733-1.733c-.827-.63-1.733-1.182-2.6-1.733a20.183,20.183,0,0,1-2.206-1.536,5.4,5.4,0,0,1-1.93-4.451,4.835,4.835,0,0,1,4.491-4.845,8.4,8.4,0,0,1,3.427.433,5.291,5.291,0,0,0,1.064.276c.315.039.394-.039.512-.315a.414.414,0,0,1,.551-.2c.079.039.039.079.039.158v4.215c0,.118-.039.158-.158.158h-.039c-.394,0-.394,0-.473-.355a3.958,3.958,0,0,0-1.891-2.994,4.414,4.414,0,0,0-4.136-.276,2.836,2.836,0,0,0-1.379,4.057,5.547,5.547,0,0,0,1.773,1.93c1.1.827,2.285,1.457,3.427,2.206a16.162,16.162,0,0,1,2.285,1.773,5.331,5.331,0,0,1-.079,7.721,5.5,5.5,0,0,1-5.082,1.418,20.182,20.182,0,0,1-2.639-.748.355.355,0,0,0-.2-.039.69.69,0,0,0-.985.433.526.526,0,0,1-.591.236c-.118-.039-.079-.118-.079-.2C108.13,148.734,108.13,147.907,108.13,147.119Z" transform="translate(-60.295 -39.657)" fill="#023c58"/>
    <path id="Path_1927" data-name="Path 1927" d="M206.418,149.611h-6.066c-.2,0-.276-.039-.236-.236v-.039c-.039-.276.079-.394.355-.394a.237.237,0,0,0,.158-.039,1.479,1.479,0,0,0,1.339-1.536,6.975,6.975,0,0,0,.039-.906V132.515c0-.315-.039-.63-.039-.945a1.271,1.271,0,0,0-.867-1.142,3.418,3.418,0,0,0-1.1-.2c-.158,0-.2-.039-.2-.2,0-.433,0-.433.394-.433h5.791c.355,0,.355,0,.394.394v.079c0,.079,0,.158-.118.158H206.1a1.48,1.48,0,0,0-1.5,1.615,7.589,7.589,0,0,0-.039.945c0,4.569-.039,9.1-.039,13.669a2.95,2.95,0,0,0,.079.827,1.728,1.728,0,0,0,1.694,1.418,12.987,12.987,0,0,0,4.451-.2,2.268,2.268,0,0,0,1.773-1.851c0-.079,0-.2.118-.2h.473c.039,0,.039.079,0,.118-.079.945-.2,1.891-.276,2.836a.1.1,0,0,1-.118.118h-.158C210.436,149.611,208.427,149.611,206.418,149.611Z" transform="translate(-115.883 -39.589)" fill="#013b57"/>
    <path id="Path_1928" data-name="Path 1928" d="M282,157.272a7,7,0,0,1,2.718-5.554,4.434,4.434,0,0,1,3.348-.867,5.113,5.113,0,0,1,1.3.276,2.11,2.11,0,0,1,1.379,1.694,1.488,1.488,0,0,1-.158.827,5.241,5.241,0,0,1-.551.748,9.066,9.066,0,0,1-4.609,2.639c-.473.118-.945.2-1.379.276-.118,0-.2.039-.158.158a5.761,5.761,0,0,0,.709,2.245,3.006,3.006,0,0,0,3.073,1.379,4.519,4.519,0,0,0,3.545-2.245c.079-.118.118-.118.2-.039.315.315.315.315.118.748a9.235,9.235,0,0,1-1.024,1.694,3.189,3.189,0,0,1-1.694,1.142,6.743,6.743,0,0,1-3.309.158,4.176,4.176,0,0,1-3.112-3.112,5.523,5.523,0,0,1-.236-1.1A3.164,3.164,0,0,1,282,157.272Zm1.812-.551a10.146,10.146,0,0,0,3.033-.985,2.8,2.8,0,0,0,.906-.748,1.806,1.806,0,1,0-2.876-2.167A5.773,5.773,0,0,0,283.812,156.721Z" transform="translate(-165.703 -52.45)" fill="#023c58"/>
    <path id="Path_1929" data-name="Path 1929" d="M258.688,152.33v-3.979c0-.2-.039-.236-.236-.236h-1.615c-.158,0-.236-.039-.236-.236v-.236a.1.1,0,0,1,.118-.118,3.811,3.811,0,0,0,3.23-2.994c.039-.079,0-.236.118-.276a.96.96,0,0,1,.473,0c.079,0,.039.158.039.2v2.482c0,.2.039.236.236.236h2.6c.2,0,.276.039.236.236v.236c.039.473.039.473-.433.473h-2.442c-.158,0-.236.039-.236.2v7.563a1.917,1.917,0,0,0,.039.473,1.065,1.065,0,0,0,1.418.945,4.194,4.194,0,0,0,1.97-1.064,5.07,5.07,0,0,0,.67-.63.148.148,0,0,1,.236,0c.394.315.394.315.039.709a9.007,9.007,0,0,1-2.8,2.048,3.841,3.841,0,0,1-1.773.315,1.636,1.636,0,0,1-1.654-1.5,15.839,15.839,0,0,1-.118-2.363c.079-.788.079-1.615.118-2.482Z" transform="translate(-150.308 -48.453)" fill="#023c58"/>
    <path id="Path_1930" data-name="Path 1930" d="M242.571,155.785v4.53a2.474,2.474,0,0,0,.118.748.906.906,0,0,0,.67.63,3.645,3.645,0,0,0,1.142.079q.3,0,.236.236v.236a.1.1,0,0,1-.118.118h-5.554c-.118,0-.276.039-.236-.158.039-.158-.158-.433.236-.433a3.272,3.272,0,0,0,1.064-.118.5.5,0,0,0,.394-.394,4.206,4.206,0,0,0,.118-.985c.039-2.088.039-4.215.039-6.3a2.68,2.68,0,0,0-.079-.788,1.007,1.007,0,0,0-1.182-.867l-1.064.118c-.118.039-.158,0-.158-.158,0-.512-.039-.512.473-.63,1.064-.236,2.088-.473,3.151-.709a4.281,4.281,0,0,1,.709-.039c.158,0,.118.118.118.2v2.915a6.838,6.838,0,0,0-.079,1.773Z" transform="translate(-139.155 -52.498)" fill="#023c58"/>
    <path id="Path_1931" data-name="Path 1931" d="M242.674,139a1.435,1.435,0,0,1,1.339,1.3.842.842,0,0,1-.985.867,1.52,1.52,0,0,1-1.261-1.1A.875.875,0,0,1,242.674,139Z" transform="translate(-141.306 -45.286)" fill="#023c58"/>
    <path id="Path_1932" data-name="Path 1932" d="M11.589,76.115A2.793,2.793,0,0,1,14.425,73.2h31c-.512.591-1.064,1.182-1.536,1.812-.276.394-.63.748-.867,1.142-.079-.158-.236-.079-.355-.079Q27.129,76.135,11.589,76.115Z" transform="translate(-1.807 -5.406)" fill="#93d6f4"/>
    <path id="Path_1933" data-name="Path 1933" d="M11.6,80.57H42.68c.118,0,.276-.079.355.079l-1.773,2.718H11.6Z" transform="translate(-1.818 -9.86)" fill="#86cef0"/>
    <path id="Path_1934" data-name="Path 1934" d="M11.6,87.7H41.262c-.473.827-.906,1.654-1.379,2.442a2.338,2.338,0,0,0-.158.315c-.118,0-.276.039-.394.039H11.6Z" transform="translate(-1.818 -14.194)" fill="#7ac5ec"/>
    <path id="Path_1935" data-name="Path 1935" d="M11.6,94.739H39.332c.158,0,.276-.039.394-.039-.473.985-.945,2.009-1.418,2.994H11.6Z" transform="translate(-1.818 -18.436)" fill="#6dbde8"/>
    <path id="Path_1936" data-name="Path 1936" d="M11.539,102.3H38.247a7.977,7.977,0,0,1-.551,1.339c-.2.512-.394,1.064-.63,1.576H11.5C11.539,104.23,11.539,103.245,11.539,102.3Z" transform="translate(-1.758 -23.043)" fill="#60b5e4"/>
    <path id="Path_1937" data-name="Path 1937" d="M11.6,109.7H37.165c-.236.67-.473,1.339-.67,2.048l-.236.827H11.639C11.6,111.591,11.6,110.645,11.6,109.7Z" transform="translate(-1.818 -27.528)" fill="#53ace0"/>
    <path id="Path_1938" data-name="Path 1938" d="M33.9,141.891a1.214,1.214,0,0,1-.394.039H12.033c-.394,0-.433-.039-.433-.433v-2.8H33.778c-.079.433-.158.827-.236,1.261a1.77,1.77,0,0,0,.236,1.536C33.817,141.654,33.856,141.773,33.9,141.891Z" transform="translate(-1.818 -45.104)" fill="#208bd1"/>
    <path id="Path_1939" data-name="Path 1939" d="M11.6,127.094v-2.954H34.8a4.282,4.282,0,0,0,.709-.039,1.124,1.124,0,0,0,.158.867,18.872,18.872,0,0,1,1.1,3.585v.2a21.846,21.846,0,0,0-1.694-3.309c-.2.591-.355,1.1-.551,1.615-.158,0-.355.039-.512.039C26.569,127.133,19.084,127.094,11.6,127.094Z" transform="translate(-1.818 -36.255)" fill="#399bd8"/>
    <path id="Path_1940" data-name="Path 1940" d="M35.511,119.676a4.282,4.282,0,0,1-.709.039H11.6V116.8H36.22C35.984,117.785,35.708,118.73,35.511,119.676Z" transform="translate(-1.818 -31.831)" fill="#47a4dc"/>
    <path id="Path_1941" data-name="Path 1941" d="M11.6,131.639H34.053c.158,0,.355-.039.512-.039-.079.236-.118.433-.2.67a.507.507,0,0,0,.039.473,21.1,21.1,0,0,1,1.418,4.294v.118a25.055,25.055,0,0,0-1.812-3.545,4.1,4.1,0,0,0-.236.867H11.6C11.6,133.491,11.6,132.585,11.6,131.639Z" transform="translate(-1.818 -40.801)" fill="#2d93d4"/>
    <path id="Path_1942" data-name="Path 1942" d="M75.639,135.979c0,.039-.039.039,0,0-.039,0-.039,0-.039-.039l.039-.039Z" transform="translate(-40.607 -43.407)" fill="#399bd8"/>
    <path id="Path_1943" data-name="Path 1943" d="M73.2,145.873Z" transform="translate(-39.153 -49.441)" fill="#2d93d4"/>
  </g>
</svg>
