<svg xmlns="http://www.w3.org/2000/svg" width="96.988" height="41.488" viewBox="0 0 96.988 41.488">
  <g id="Svelte" transform="translate(-61.6 -259.8)">
    <path id="Path_1330" data-name="Path 1330" d="M84.4,259.8c.327.289.731.192,1.1.25A12.6,12.6,0,0,1,96.155,272.4a10.835,10.835,0,0,1-1.539,5.541.941.941,0,0,0-.038,1,11.25,11.25,0,0,1-4.483,14.6c-3.021,1.885-6.022,3.81-9.023,5.714A12.692,12.692,0,0,1,61.6,290.18v-2.366a10.444,10.444,0,0,1,1.443-4.444,1.137,1.137,0,0,0,.038-1.251,11.208,11.208,0,0,1,4.252-14.276c2.828-1.809,5.676-3.559,8.485-5.406a13.955,13.955,0,0,1,6.118-2.463c.115-.019.231-.019.269-.173ZM74.067,296.587a6.87,6.87,0,0,0,3.771-1.02c3.348-2.1,6.7-4.194,10-6.349a6.228,6.228,0,0,0,2.924-5.233,7.093,7.093,0,0,0-3.829-6.734,7.236,7.236,0,0,0-7.773.135c-1.231.75-2.4,1.558-3.636,2.29a2.29,2.29,0,0,1-3.155-.77,2.054,2.054,0,0,1,.789-2.924c3.117-1.982,6.253-3.963,9.37-5.945a2.262,2.262,0,0,1,2.424-.154,2.1,2.1,0,0,1,1.193,2.1c-.019.346.115.443.385.539A12.653,12.653,0,0,1,90.4,274.48c.289.212.4.173.519-.154a7.133,7.133,0,0,0,.385-2.443,7.635,7.635,0,0,0-11.544-6.176c-3.328,2.039-6.618,4.156-9.889,6.272a6.725,6.725,0,0,0-2.559,8,7.678,7.678,0,0,0,11.351,3.771c1.193-.75,2.367-1.539,3.579-2.251a2.253,2.253,0,0,1,3.078.847,2.006,2.006,0,0,1-.712,2.828c-3.175,2.02-6.368,4.04-9.543,6.061a2.237,2.237,0,0,1-2.367.1,2.078,2.078,0,0,1-1.174-2.039.471.471,0,0,0-.4-.577,11.9,11.9,0,0,1-3.809-1.943c-.289-.212-.462-.269-.558.154a10.972,10.972,0,0,0-.327,1.424A7.53,7.53,0,0,0,74.067,296.587Z" transform="translate(0)" fill="#ef4724"/>
    <path id="Path_1331" data-name="Path 1331" d="M382.5,356.657c0-1.5.019-3,0-4.5,0-.423.1-.558.539-.558,1.732.019,3.482.038,5.214,0,.635-.019.577.327.577.731-.019.366.135.789-.558.75-1.231-.058-2.463,0-3.675-.019-.4,0-.6.1-.558.539.058.712-.289,1.616.135,2.078s1.347.135,2.059.154c.943.019.923,0,.923.924,0,.462-.173.539-.577.519-.693-.019-1.385.019-2.078-.019-.385-.019-.462.115-.462.462.019.712.019,1.424,0,2.155-.019.385.135.462.481.462,1.347-.019,2.694.019,4.021-.019.616-.019.616.289.6.712-.019.385.1.75-.558.731q-2.742-.058-5.483,0c-.52,0-.6-.192-.6-.635C382.519,359.6,382.5,358.119,382.5,356.657Z" transform="translate(-259.159 -74.135)" fill="#504f5a"/>
    <path id="Path_1332" data-name="Path 1332" d="M531.019,356.672c0-1.5.019-3-.019-4.5,0-.462.135-.6.577-.577,1.732.019,3.463.038,5.214,0,.673-.019.519.385.539.75.019.423.039.75-.577.731-1.231-.058-2.443,0-3.675-.019-.423,0-.577.115-.539.539a12.99,12.99,0,0,1,0,1.732c-.019.4.135.519.519.5.693-.019,1.385.019,2.078-.019.654-.038.481.4.481.731.019.346.135.75-.5.712-.693-.058-1.385.019-2.078-.019-.4-.019-.52.135-.5.52.019.673.039,1.347,0,2-.019.423.135.558.558.539,1.328-.019,2.636.019,3.963-.019.6-.019.616.25.616.693-.019.443.039.77-.616.75-1.828-.058-3.655-.038-5.483,0-.423,0-.558-.115-.539-.539C531.039,359.673,531.019,358.173,531.019,356.672Z" transform="translate(-379.088 -74.13)" fill="#504f5a"/>
    <path id="Path_1333" data-name="Path 1333" d="M277.145,361.194a3.968,3.968,0,0,1-3.559-1.982c-.192-.346-.192-.519.25-.693.635-.269,1.02-.308,1.462.346a2.286,2.286,0,0,0,2.443.789,1.429,1.429,0,0,0,1.212-1.174,1.446,1.446,0,0,0-.75-1.578,13.3,13.3,0,0,0-2.232-.923,6.046,6.046,0,0,1-1.116-.558,2.424,2.424,0,0,1-.789-3.29,3.033,3.033,0,0,1,2.886-1.443,3.121,3.121,0,0,1,2.924,1.5c.212.385.192.539-.25.673-.539.173-.962.366-1.424-.25a2.017,2.017,0,0,0-2.27-.289,1.046,1.046,0,0,0-.25,1.77,3.573,3.573,0,0,0,1.481.731,11.178,11.178,0,0,1,1.9.827,2.789,2.789,0,0,1,1.424,2.982,2.712,2.712,0,0,1-2,2.309A3.632,3.632,0,0,1,277.145,361.194Z" transform="translate(-171.101 -73.401)" fill="#504f5a"/>
    <path id="Path_1334" data-name="Path 1334" d="M327.129,359.413c.558-1.712,1.058-3.29,1.558-4.868.289-.924.6-1.847.885-2.771.115-.366,1.4-.673,1.674-.4.135.135,0,.269-.038.385-1.058,3.078-2.136,6.137-3.155,9.235-.192.558-.539.443-.923.462-.4,0-.77.1-.962-.5-.885-2.713-1.847-5.406-2.771-8.119-.038-.135-.1-.25-.135-.385-.077-.346-.462-.789-.212-1.02.308-.269.847-.1,1.27-.077.308,0,.308.308.366.519.789,2.386,1.558,4.771,2.328,7.176A2.063,2.063,0,0,1,327.129,359.413Z" transform="translate(-211.08 -73.87)" fill="#504f5a"/>
    <path id="Path_1335" data-name="Path 1335" d="M481.634,357.284c0,1.251-.039,2.5.019,3.733.038.693-.4.52-.77.52s-.77.154-.77-.52c.038-2.5,0-4.983.019-7.484,0-.5-.115-.712-.654-.654-.577.058-1.154,0-1.732.019-.327.019-.5-.038-.5-.443-.039-1.039-.058-1.039,1.02-1.039,1.9,0,3.79.019,5.695-.019.577-.019.6.269.539.673-.039.346.25.885-.52.827-.558-.038-1.116.019-1.674-.019-.519-.039-.731.1-.712.673C481.653,354.8,481.634,356.052,481.634,357.284Z" transform="translate(-335.667 -73.973)" fill="#504f5a"/>
    <path id="Path_1336" data-name="Path 1336" d="M436.809,356.706c0-1.481.039-2.963-.019-4.425-.038-.75.4-.577.827-.616.481-.038.75.038.731.635-.038,2.424.019,4.848-.038,7.273-.019.654.212.808.808.77,1.193-.038,2.4.019,3.617-.019.673-.019.52.4.539.77s.077.712-.519.693c-1.809-.039-3.617-.039-5.406,0-.443,0-.539-.154-.539-.558C436.809,359.707,436.809,358.207,436.809,356.706Z" transform="translate(-303.002 -74.184)" fill="#4b4b57"/>
  </g>
</svg>
