<svg xmlns="http://www.w3.org/2000/svg" width="146.398" height="40.339" viewBox="0 0 146.398 40.339">
  <g id="TensorFlow" transform="translate(-5.2 -114.349)">
    <path id="Path_2249" data-name="Path 2249" d="M5.3,126.762c.05-.249.274-.274.448-.349q10.421-5.939,20.866-11.877a.818.818,0,0,1,.971-.05c5.154,2.938,10.333,5.876,15.488,8.815.125.075.3.1.324.3-1.892.9-3.635,2.067-5.478,3.088-1.17-.672-2.316-1.369-3.486-2.017-2.44-1.394-4.855-2.764-7.3-4.133-1.643.921-3.312,1.793-4.93,2.739q-5.752,3.249-11.5,6.549C8.91,128.754,7.143,127.683,5.3,126.762Z" transform="translate(-0.075)" fill="#f4bc3a"/>
    <path id="Path_2250" data-name="Path 2250" d="M54.483,201.65c-1.718-1.021-3.411-2.042-5.129-3.063-.349-.2-.274-.473-.274-.747V180.012a13.956,13.956,0,0,1,2.341-1.419c.971-.6,1.967-1.1,3.063-1.693v1c.025,1.668-.075,3.312.05,4.98-.025.324.274.324.448.423,1.668.946,3.337,1.867,5.03,2.789,0,2.067.025,4.133.025,6.2h0a18.988,18.988,0,0,1-2.266-1.1c-1.046-.548-2.092-1.071-3.137-1.594-.025,0-.05-.025-.075-.025a.087.087,0,0,0-.05.025,4.8,4.8,0,0,0-.025.6C54.483,193.981,54.483,197.816,54.483,201.65Z" transform="translate(-32.949 -46.976)" fill="#e25c2a"/>
    <path id="Path_2251" data-name="Path 2251" d="M37.956,154.313c-.125-1.668-.025-3.312-.05-4.98v-1c-1.1.6-2.092,1.12-3.063,1.693A12.483,12.483,0,0,0,32.5,151.45c-1.469.647-2.789,1.519-4.208,2.266a4.15,4.15,0,0,1-1.295.622v-6.15q5.752-3.287,11.5-6.549c1.643-.921,3.287-1.818,4.93-2.739v6.2c0,2.067-.025,4.108-.025,6.175-.647.349-1.295.722-1.942,1.071A24.309,24.309,0,0,1,37.956,154.313Z" transform="translate(-16.372 -18.438)" fill="#eb8d24"/>
    <path id="Path_2252" data-name="Path 2252" d="M538.3,182.964c-.722,2.764-1.419,5.428-2.117,8.117a.83.83,0,0,1-.946.747c-1.32-.05-1.345,0-1.668-1.245-.971-3.561-1.942-7.121-2.938-10.682-.149-.523,0-.622.473-.622,1.743-.025,1.743-.025,2.166,1.643.548,2.266,1.1,4.507,1.668,6.8.274-.2.249-.5.324-.747.622-2.341,1.27-4.656,1.867-7,.125-.5.3-.747.9-.722,1.594.075,1.22-.249,1.668,1.295.672,2.415,1.394,4.806,2.042,7.271l.672-2.839c.4-1.693.822-3.386,1.22-5.08.1-.448.274-.722.8-.647.548.075,1.32-.224,1.618.124.324.374-.149,1.046-.3,1.569-.921,3.436-1.892,6.847-2.814,10.284a.658.658,0,0,1-.747.573c-1.469,0-1.494.025-1.867-1.345-.622-2.291-1.22-4.582-1.818-6.872C538.426,183.387,538.376,183.213,538.3,182.964Z" transform="translate(-394.558 -48.707)" fill="#a8a8aa"/>
    <path id="Path_2253" data-name="Path 2253" d="M347.115,178.4a5.465,5.465,0,0,1,5.578,3.859,8.318,8.318,0,0,1-.149,5.652,5.358,5.358,0,0,1-9.96.249,7.9,7.9,0,0,1,.149-6.823A4.791,4.791,0,0,1,347.115,178.4Zm3.486,6.723a5.457,5.457,0,0,0-.6-2.888,2.86,2.86,0,0,0-2.714-1.519,2.539,2.539,0,0,0-2.341,1.544,6.049,6.049,0,0,0-.025,5.2,2.656,2.656,0,0,0,2.365,1.618,2.7,2.7,0,0,0,2.615-1.444A4.6,4.6,0,0,0,350.6,185.123Z" transform="translate(-252.849 -48.102)" fill="#ee683b"/>
    <path id="Path_2254" data-name="Path 2254" d="M497.044,184.774a7.16,7.16,0,0,1-.921,3.835,5.371,5.371,0,0,1-9.163.1,8.293,8.293,0,0,1,.349-8.516,5.4,5.4,0,0,1,7.42-.971C496.272,180.441,497.044,182.184,497.044,184.774Zm-2.44-.3a4.835,4.835,0,0,0-.647-2.49,2.856,2.856,0,0,0-4.781-.274,6.266,6.266,0,0,0-.149,5.827,2.774,2.774,0,0,0,4.831,0A5.293,5.293,0,0,0,494.6,184.475Z" transform="translate(-361.045 -47.927)" fill="#a7a8aa"/>
    <path id="Path_2255" data-name="Path 2255" d="M211.7,183.952a7.659,7.659,0,0,1,1.2-4.084,5.3,5.3,0,0,1,5.727-1.992,5.08,5.08,0,0,1,3.685,4.357c.149,1.22.149,1.22-1.046,1.569-2.141.622-4.283,1.27-6.449,1.892-.523.149-.573.374-.373.822.9,2.092,2.963,2.689,5.03,1.394.473-.3.722-.274,1.021.149a2.982,2.982,0,0,0,.274.3c.8.847.8.847-.224,1.494a5.611,5.611,0,0,1-8.74-4.382C211.75,184.973,211.725,184.475,211.7,183.952Zm2.615-1c.174.174-.4.921.448.7,1.569-.423,3.112-.921,4.681-1.369.423-.124.4-.324.274-.647a2.483,2.483,0,0,0-2.166-1.643,2.622,2.622,0,0,0-3.187,2.515C214.339,182.632,214.339,182.757,214.314,182.956Z" transform="translate(-155.082 -47.579)" fill="#ee683b"/>
    <path id="Path_2256" data-name="Path 2256" d="M425.4,171.091v-7.744c0-.5.124-.647.647-.647q4.781.037,9.562,0c.473,0,.6.174.6.622,0,1.818.025,1.818-1.793,1.818h-5.926c-.448,0-.622.124-.622.6.025,1.046.025,2.116,0,3.162-.025.5.174.6.622.6,1.22-.025,2.415,0,3.635-.025.423,0,.573.1.6.548.025,1.967.05,1.967-1.942,1.967-.7,0-1.394.05-2.092,0-.622-.05-.847.124-.847.8.05,1.967,0,3.934.025,5.926,0,.548-.149.722-.722.722-1.743-.025-1.743,0-1.743-1.743Z" transform="translate(-315.571 -36.312)" fill="#a7a8aa"/>
    <path id="Path_2257" data-name="Path 2257" d="M262.045,179.149a3.846,3.846,0,0,1,2.664-1.295c2.714-.174,4.457,1.17,4.781,3.884.349,2.839.075,5.677.149,8.541,0,.274-.1.373-.349.349h-.124c-.622-.025-1.444.2-1.818-.1-.423-.324-.125-1.17-.125-1.793-.05-2.092.1-4.158-.1-6.25a2.331,2.331,0,0,0-2.465-2.39,2.393,2.393,0,0,0-2.54,2.341,33.126,33.126,0,0,0-.1,4.158c-.025,1.2-.025,2.365,0,3.561,0,.324-.075.523-.448.473h-.125c-.6-.025-1.37.249-1.768-.1-.374-.374-.125-1.145-.125-1.743,0-3.361,0-6.723-.025-10.084,0-.448.075-.672.573-.6a6.055,6.055,0,0,0,.672,0C261.92,178.079,261.92,178.079,262.045,179.149Z" transform="translate(-190.96 -47.682)" fill="#ee683a"/>
    <path id="Path_2258" data-name="Path 2258" d="M93.1,145.3v-6.2c2.44,1.369,4.88,2.764,7.3,4.133,1.17.672,2.316,1.345,3.486,2.017v6.1c-2.938-1.668-5.851-3.312-8.79-4.98C94.42,146.022,93.747,145.674,93.1,145.3Z" transform="translate(-66.013 -18.588)" fill="#e35d2a"/>
    <path id="Path_2259" data-name="Path 2259" d="M178.5,172.161v6.524c0,.423-.1.622-.548.573a5.415,5.415,0,0,0-1.27,0c-.548.05-.672-.174-.672-.672.025-4.283,0-8.566.025-12.848,0-.622-.174-.8-.772-.772-1.22.05-2.415,0-3.635.025-.373,0-.5-.1-.5-.5-.075-1.967-.075-1.967,1.917-1.967,3.237,0,6.474.025,9.711-.025.523,0,.722.149.672.672-.075.573.224,1.32-.124,1.693-.349.349-1.1.1-1.693.1-.822.025-1.668.025-2.49,0-.473-.025-.6.124-.6.6C178.528,167.779,178.5,169.97,178.5,172.161Z" transform="translate(-124.599 -36.161)" fill="#ee683a"/>
    <path id="Path_2260" data-name="Path 2260" d="M307.966,178.5a6.942,6.942,0,0,1,3.76,1.071c.349.2.423.373.2.722-.274.4-.4,1.021-.772,1.245-.423.249-.822-.349-1.27-.5a5.446,5.446,0,0,0-2.44-.349,1.237,1.237,0,0,0-1.27.9c-.149.647.249,1.021.747,1.295.573.3,1.17.573,1.768.847.523.249,1.071.448,1.618.7,1.843.847,2.639,2.141,2.39,3.909a3.559,3.559,0,0,1-3.386,3.112,8.354,8.354,0,0,1-5.6-1.17c-.4-.224-.473-.448-.2-.822.3-.4.448-1.021.822-1.2.349-.174.8.349,1.22.548a5.873,5.873,0,0,0,3.685.4,1.241,1.241,0,0,0,1.046-1.071,1.207,1.207,0,0,0-.772-1.295c-1.245-.573-2.515-1.1-3.735-1.693a3.258,3.258,0,0,1-2.067-2.839c-.1-2.191,1.22-3.61,3.561-3.76A3.062,3.062,0,0,1,307.966,178.5Z" transform="translate(-223.908 -48.174)" fill="#ee683b"/>
    <path id="Path_2261" data-name="Path 2261" d="M71.289,227.7c1.046.523,2.092,1.046,3.137,1.594a15.81,15.81,0,0,0,2.266,1.1c0,1.892-.05,3.76-.025,5.652a.954.954,0,0,1-.6.971c-1.569.871-3.112,1.768-4.656,2.664-.224-.174-.149-.4-.149-.622C71.289,235.294,71.289,231.51,71.289,227.7Z" transform="translate(-49.605 -85.127)" fill="#eb8d24"/>
    <path id="Path_2262" data-name="Path 2262" d="M393.915,179.568a3.912,3.912,0,0,1,4.183-1.17c.6.149.871.4.573,1.021a.271.271,0,0,0-.025.124c-.125.448-.125,1.021-.423,1.32-.349.349-.822-.149-1.27-.2-1.793-.2-2.888.6-3.013,2.39-.174,2.39-.05,4.806-.05,7.2,0,.622-.149.8-.772.772-1.693-.05-1.718,0-1.718-1.718V179.07c0-.5.124-.7.647-.622.249.025.5,0,.747,0C393.79,178.472,393.79,178.472,393.915,179.568Z" transform="translate(-290.037 -47.976)" fill="#ee6a3c"/>
    <path id="Path_2263" data-name="Path 2263" d="M472.815,159.8v.747c0,5.329,0,10.632.025,15.961,0,.6-.174.747-.747.747-1.693-.025-1.693,0-1.693-1.668V161.792a.925.925,0,0,1,.6-1C471.545,160.522,472.093,160.173,472.815,159.8Z" transform="translate(-349.366 -34.134)" fill="#a7a8aa"/>
    <path id="Path_2264" data-name="Path 2264" d="M136.3,160.688v-6.1c1.843-1.021,3.561-2.191,5.478-3.088.025,1.917.05,3.859.075,5.777a.506.506,0,0,1-.249.5c-1.718.971-3.411,1.967-5.129,2.963A.462.462,0,0,1,136.3,160.688Z" transform="translate(-98.456 -27.9)" fill="#eb8d24"/>
    <path id="Path_2265" data-name="Path 2265" d="M71,191.713a28.778,28.778,0,0,0,3.536-1.942c.647-.349,1.295-.722,1.942-1.071,1.643.971,3.312,1.942,4.955,2.913.149.075.324.124.4.324-1.793,1-3.586,1.992-5.353,2.963-1.668-.921-3.361-1.867-5.03-2.789C71.269,192.037,70.971,192.037,71,191.713Z" transform="translate(-49.411 -55.838)" fill="#f4bc3b"/>
    <path id="Path_2266" data-name="Path 2266" d="M93,204.763c1.793-1,3.586-1.992,5.353-2.963,0,1.942.025,3.884.05,5.827a.4.4,0,0,1-.249.423c-1.718.971-3.411,1.942-5.129,2.913C93,208.9,93,206.83,93,204.763Z" transform="translate(-65.938 -65.676)" fill="#eb8d24"/>
    <path id="Path_2267" data-name="Path 2267" d="M10.628,167.138v6.15c-1.718-1-3.436-2.017-5.129-3.013a.488.488,0,0,1-.3-.473c.025-1.892.025-3.785.05-5.7C7.067,165.046,8.835,166.117,10.628,167.138Z" transform="translate(0 -37.363)" fill="#e35d2a"/>
    <path id="Path_2268" data-name="Path 2268" d="M70.949,227.667v11.379c0,.224-.075.448.149.622-.075.124-.174.124-.3.1V228.289c0-.2.025-.4.025-.6a.087.087,0,0,1,.05-.025C70.9,227.642,70.924,227.667,70.949,227.667Z" transform="translate(-49.266 -85.093)" fill="#eb8d24"/>
  </g>
</svg>
