<svg xmlns="http://www.w3.org/2000/svg" width="147.397" height="29.711" viewBox="0 0 147.397 29.711">
  <g id="Woo_Commerce" data-name="Woo Commerce" transform="translate(-58 -280.56)">
    <path id="Path_1800" data-name="Path 1800" d="M90.521,310.271c-1.158-.624-2.257-1.247-3.356-1.841-1.693-.95-3.386-1.9-5.049-2.851a1.545,1.545,0,0,0-.8-.148H62.93a4.763,4.763,0,0,1-3.564-1.366A4.571,4.571,0,0,1,58,300.708V285.176a4.619,4.619,0,0,1,3.891-4.514,20.937,20.937,0,0,1,3.059-.089h38.1a4.727,4.727,0,0,1,4.752,3.534,3.289,3.289,0,0,1,.119,1.069v15.562a4.617,4.617,0,0,1-3.386,4.485,4.559,4.559,0,0,1-1.277.148H89.155c-.356,0-.416.148-.267.475.5,1.218,1.01,2.406,1.515,3.623C90.4,309.737,90.521,309.945,90.521,310.271ZM65.633,296.313c-.148-.03-.148-.148-.148-.238-.238-1.039-.5-2.109-.713-3.178-.475-2.406-.891-4.841-1.247-7.276a1.71,1.71,0,0,0-2.7-1.188,1.847,1.847,0,0,0-.683,2.049c.624,4.039,1.336,8.078,2.346,12.058a14.847,14.847,0,0,0,1.277,3.712c.535.98,1.247,1.129,2.138.327a8.226,8.226,0,0,0,1.663-2.257c1.069-2.079,2.109-4.158,3.148-6.237.03-.089.03-.208.178-.208.119,0,.148.119.178.208a23.393,23.393,0,0,0,2.227,5.346,12.246,12.246,0,0,0,2.317,3.029,1.657,1.657,0,0,0,1.693.564,1.637,1.637,0,0,0,1.1-1.426,6.953,6.953,0,0,0-.03-1.366,46.606,46.606,0,0,1,.594-6.742,26.445,26.445,0,0,1,2.079-7.811,1.7,1.7,0,0,0-.772-2.2,1.749,1.749,0,0,0-2.227.475,9.349,9.349,0,0,0-.921,1.9,31.446,31.446,0,0,0-1.485,6.148c-.148,1.01-.3,2.049-.445,3.208-.416-1.01-.683-1.93-.98-2.851-.445-1.455-.683-2.94-1.039-4.4a1.452,1.452,0,0,0-.98-1.188,1.686,1.686,0,0,0-2.049,1.01c-.861,1.663-1.723,3.326-2.584,4.96C66.88,294,66.256,295.155,65.633,296.313Zm26.908-3.861a8.767,8.767,0,0,0-.891-4.217,5.073,5.073,0,0,0-7.573-1.633,8.107,8.107,0,0,0-2.346,3.208,10.368,10.368,0,0,0-.445,7.662,5.087,5.087,0,0,0,8.435,1.96A10.252,10.252,0,0,0,92.54,292.452Zm12.741-.267a7.454,7.454,0,0,0-1.039-4.277,4.913,4.913,0,0,0-4.4-2.376,5.144,5.144,0,0,0-4.158,2.227,10.287,10.287,0,0,0-2.049,4.989,9.356,9.356,0,0,0,.772,5.524,5.077,5.077,0,0,0,8.2,1.039A10.254,10.254,0,0,0,105.281,292.185Z" fill="#9a5e8f"/>
    <path id="Path_1801" data-name="Path 1801" d="M324.793,304.141a2.348,2.348,0,0,0-.386,1.069c-.653,2.584-1.277,5.2-1.9,7.781-.059.208-.148.3-.356.3h-1.96c-.3,0-.356-.148-.416-.386l-2.138-8.553a.405.405,0,0,0-.178-.3,25.487,25.487,0,0,0-.3,2.584l-.624,6.326c-.03.3-.148.3-.386.3-.95,0-1.871-.03-2.821,0-.386,0-.386-.148-.356-.445.119-.921.238-1.812.356-2.732.3-2.257.564-4.485.861-6.742.148-1.247.327-2.465.475-3.712.03-.238.148-.3.356-.3h4.128c.3,0,.356.178.386.386.445,2.079.921,4.128,1.277,6.207a1.024,1.024,0,0,0,.267.713c.178-.861.327-1.693.5-2.495.327-1.515.683-3,1.039-4.514.059-.267.178-.327.445-.327H327.2c.3,0,.386.089.445.386.5,3.861,1.039,7.752,1.544,11.612.059.5.148,1.039.238,1.544.059.3-.03.386-.327.356-.98-.03-1.96-.03-2.97,0-.3,0-.416-.059-.445-.386-.238-2.346-.475-4.693-.742-7.039C324.912,305.329,324.852,304.765,324.793,304.141Z" transform="translate(-179.24 -13.174)" fill="#0e0e0e"/>
    <path id="Path_1802" data-name="Path 1802" d="M378.521,306.847c.148-.713.267-1.4.416-2.109.356-1.6.742-3.237,1.1-4.841a.358.358,0,0,1,.386-.3h4.247c.356,0,.356.238.386.445.178,1.277.327,2.524.5,3.8.356,2.584.683,5.138,1.039,7.722.059.564.148,1.1.208,1.663.03.208-.03.3-.267.3h-3.148c-.3,0-.3-.178-.327-.386-.3-2.821-.594-5.643-.861-8.464a.241.241,0,0,0-.148-.267c-.208.891-.416,1.752-.653,2.614-.5,2.049-.98,4.069-1.455,6.118-.089.327-.208.416-.535.416-.594-.03-1.188,0-1.782,0-.238,0-.386-.03-.445-.327-.683-2.792-1.4-5.583-2.109-8.4a.479.479,0,0,0-.238-.416c-.089.98-.208,1.93-.3,2.881-.208,1.93-.386,3.861-.564,5.791-.03.356-.119.475-.5.475q-1.381-.045-2.762,0c-.3,0-.356-.059-.327-.356.564-4.366,1.129-8.761,1.663-13.157.03-.3.148-.416.475-.416,1.307.03,2.643.03,3.95,0a.432.432,0,0,1,.5.416l1.336,6.5c.03.119.059.208.089.3Z" transform="translate(-219.603 -13.385)" fill="#0b0c0c"/>
    <path id="Path_1803" data-name="Path 1803" d="M270.977,305.519a8.8,8.8,0,0,1,.594-3.712,5.208,5.208,0,0,1,4.514-3.445,5.856,5.856,0,0,1,5.643,2.049,7.2,7.2,0,0,1,1.366,3.8,10.13,10.13,0,0,1-.98,6.059,5.014,5.014,0,0,1-4.217,2.643,6.477,6.477,0,0,1-3.95-.713,6.034,6.034,0,0,1-2.762-4.366A7.663,7.663,0,0,1,270.977,305.519Zm3.95.238c.03.445.03.891.059,1.336a6.314,6.314,0,0,0,.208,1.307,1.786,1.786,0,0,0,1.633,1.4,1.75,1.75,0,0,0,1.841-1.247,9.717,9.717,0,0,0,.089-5.524,1.844,1.844,0,0,0-1.871-1.515c-.861.03-1.455.594-1.723,1.663A10.878,10.878,0,0,0,274.927,305.756Z" transform="translate(-149.717 -12.473)" fill="#0b0c0c"/>
    <path id="Path_1804" data-name="Path 1804" d="M462.4,307.541c0,1.871-.03,3.712,0,5.554,0,.475-.119.594-.594.594-.921-.03-1.871-.03-2.821,0-.327,0-.386-.089-.386-.386v-13.1c0-.238,0-.416.327-.416,1.723.03,3.445-.059,5.168.059a5.832,5.832,0,0,1,3.237,1.188,3.788,3.788,0,0,1-.3,6.088c-.564.356-.535.356-.238,1.01.832,1.723,1.633,3.445,2.495,5.138.208.386.089.445-.3.445-1.01-.03-2.049-.03-3.059,0a.6.6,0,0,1-.624-.386c-.861-1.812-1.723-3.623-2.584-5.405C462.639,307.749,462.609,307.6,462.4,307.541Zm-.03-3.445v.594c0,1.1,0,1.1,1.1.921a1.411,1.411,0,0,0,1.366-1.277,1.51,1.51,0,0,0-1.277-1.752c-.267-.059-.535-.089-.832-.148-.267-.059-.386.059-.386.356C462.372,303.234,462.372,303.65,462.372,304.1Z" transform="translate(-281.625 -13.515)" fill="#0b0c0c"/>
    <path id="Path_1805" data-name="Path 1805" d="M429.4,306.65v-6.5c0-.327.089-.445.445-.445h6.742c.356,0,.445.119.445.445-.03.713-.03,1.426,0,2.109,0,.327-.089.445-.416.416-.98-.03-1.96,0-2.97-.03-.416,0-.5.119-.475.5a12.888,12.888,0,0,1,0,1.515c-.03.445.148.564.564.535.772-.03,1.544,0,2.317-.03.327,0,.475.059.445.445-.03.683-.03,1.336,0,2.02,0,.327-.089.475-.445.445-.832-.03-1.633,0-2.465,0-.327,0-.445.119-.416.416a14.987,14.987,0,0,1,0,1.633c-.03.356.089.475.475.475,1.01-.03,2.02,0,3-.03.327,0,.445.089.416.416q-.045,1.114,0,2.227c0,.3-.119.386-.416.386h-6.861c-.356,0-.386-.148-.386-.445C429.4,311.015,429.4,308.818,429.4,306.65Z" transform="translate(-261.097 -13.455)" fill="#0e0e0e"/>
    <path id="Path_1806" data-name="Path 1806" d="M528.5,306.65V300.2c0-.386.089-.5.475-.5,2.227.03,4.455.03,6.712,0,.327,0,.475.089.445.445-.03.713-.03,1.426,0,2.109.03.356-.119.445-.445.416-.98-.03-1.96,0-2.97,0-.327,0-.475.059-.445.445a15.518,15.518,0,0,1,0,1.663c0,.327.059.445.416.416.832-.03,1.633,0,2.465,0,.356,0,.445.119.445.445-.03.683-.03,1.336,0,2.02,0,.356-.149.445-.475.445-.832-.03-1.633,0-2.465,0-.3,0-.416.089-.386.386.03.594.03,1.218,0,1.812,0,.3.119.356.386.356h3.059c.356,0,.445.119.445.445-.03.713-.03,1.455,0,2.168,0,.267-.059.356-.356.356h-6.861c-.356,0-.445-.119-.445-.445Z" transform="translate(-330.765 -13.455)" fill="#0e0e0e"/>
    <path id="Path_1807" data-name="Path 1807" d="M502.462,300.241c0,.416-.03.832,0,1.218.03.327-.089.416-.386.327a8.185,8.185,0,0,0-1.455-.208,3.241,3.241,0,0,0-3.356,2.465,4.8,4.8,0,0,0,.327,3.831,3.212,3.212,0,0,0,3.148,1.693,3.733,3.733,0,0,0,1.4-.238c.238-.089.327,0,.327.238v2.7a.392.392,0,0,1-.327.416c-3.415.772-7.276-.416-8.643-4.336a7.4,7.4,0,0,1,1.307-7.811,6.892,6.892,0,0,1,5.7-2.257c.5.03,1.01.089,1.515.148.327.03.475.178.445.564C502.432,299.439,502.462,299.855,502.462,300.241Z" transform="translate(-305.766 -12.452)" fill="#0e0e0e"/>
    <path id="Path_1808" data-name="Path 1808" d="M245.656,300.251c0,.416-.03.861,0,1.277,0,.3-.089.386-.386.3a8.013,8.013,0,0,0-1.218-.208,3.324,3.324,0,0,0-3.712,2.614,4.853,4.853,0,0,0,.148,3.178c.742,1.841,2.435,2.554,4.574,2.02.564-.148.564-.148.564.416v2.376a.432.432,0,0,1-.416.5c-3.267.713-6.831-.356-8.4-3.831a7.744,7.744,0,0,1,1.247-8.464,7.12,7.12,0,0,1,5.524-2.138,9.82,9.82,0,0,1,1.6.178c.3.059.445.178.416.535.03.416.059.832.059,1.247Z" transform="translate(-125.199 -12.462)" fill="#0e0e0e"/>
    <path id="Path_1809" data-name="Path 1809" d="M70.36,302.834c.624-1.158,1.247-2.317,1.841-3.5.861-1.663,1.723-3.326,2.584-4.96a1.7,1.7,0,0,1,2.049-1.01,1.493,1.493,0,0,1,.98,1.188c.356,1.455.594,2.97,1.039,4.4a27.175,27.175,0,0,0,.98,2.851c.148-1.158.3-2.2.445-3.207a31.446,31.446,0,0,1,1.485-6.148,6.623,6.623,0,0,1,.921-1.9,1.744,1.744,0,0,1,3,1.723,27.383,27.383,0,0,0-2.079,7.811,46.605,46.605,0,0,0-.594,6.742,5.233,5.233,0,0,1,.03,1.366,1.637,1.637,0,0,1-1.1,1.426,1.677,1.677,0,0,1-1.693-.564,13.451,13.451,0,0,1-2.317-3.029,24.8,24.8,0,0,1-2.227-5.346c-.03-.089-.059-.208-.178-.208-.148-.03-.119.119-.178.208-1.039,2.079-2.079,4.158-3.148,6.237a7.664,7.664,0,0,1-1.663,2.257c-.891.832-1.6.653-2.138-.327a14.847,14.847,0,0,1-1.277-3.712c-1.01-3.98-1.723-8.019-2.346-12.058a1.847,1.847,0,0,1,.683-2.049,1.7,1.7,0,0,1,2.7,1.188c.356,2.435.772,4.841,1.247,7.276.208,1.069.475,2.109.713,3.178C70.212,302.685,70.212,302.8,70.36,302.834Z" transform="translate(-4.727 -6.521)" fill="#fbf8fa"/>
    <path id="Path_1810" data-name="Path 1810" d="M146.356,304.242a10.307,10.307,0,0,1-2.821,6.979,5.087,5.087,0,0,1-8.435-1.96,10.225,10.225,0,0,1,.445-7.662,7.9,7.9,0,0,1,2.346-3.208,5.068,5.068,0,0,1,7.573,1.633A8.846,8.846,0,0,1,146.356,304.242Zm-8.375,1.574a5.155,5.155,0,0,0,.594,2.495,1.39,1.39,0,0,0,2.257.475,4.607,4.607,0,0,0,1.455-1.9,6.01,6.01,0,0,0-.03-5.286,1.347,1.347,0,0,0-1.871-.683,2.345,2.345,0,0,0-.8.624A7.111,7.111,0,0,0,137.981,305.816Z" transform="translate(-53.816 -11.79)" fill="#fbf8fa"/>
    <path id="Path_1811" data-name="Path 1811" d="M189.371,303.882a10.267,10.267,0,0,1-2.673,7.1,5.073,5.073,0,0,1-8.2-1.039,9.324,9.324,0,0,1-.772-5.524,10.579,10.579,0,0,1,2.049-4.989,5.1,5.1,0,0,1,4.158-2.227,4.826,4.826,0,0,1,4.4,2.376A7.375,7.375,0,0,1,189.371,303.882Zm-3.415-.238a5.134,5.134,0,0,0-.445-1.782,1.482,1.482,0,0,0-2.584-.624,4.224,4.224,0,0,0-.95,1.247,5.794,5.794,0,0,0-.3,5.762,1.349,1.349,0,0,0,1.99.624,3.17,3.17,0,0,0,.921-.742A6.8,6.8,0,0,0,185.956,303.645Z" transform="translate(-84.09 -11.698)" fill="#fbf8fa"/>
    <path id="Path_1812" data-name="Path 1812" d="M146.1,313.989a6.783,6.783,0,0,1,1.6-4.247,2.345,2.345,0,0,1,.8-.624,1.326,1.326,0,0,1,1.871.683,6.009,6.009,0,0,1,.03,5.286,4.16,4.16,0,0,1-1.455,1.9,1.385,1.385,0,0,1-2.257-.475A5.353,5.353,0,0,1,146.1,313.989Z" transform="translate(-61.935 -19.963)" fill="#9a5e8f"/>
    <path id="Path_1813" data-name="Path 1813" d="M194,311.964a6.809,6.809,0,0,1-1.4,4.485,3.17,3.17,0,0,1-.921.742,1.331,1.331,0,0,1-1.99-.624,5.79,5.79,0,0,1,.3-5.762,5.549,5.549,0,0,1,.95-1.247,1.482,1.482,0,0,1,2.584.624A3.787,3.787,0,0,1,194,311.964Z" transform="translate(-92.139 -20.017)" fill="#9a5e8f"/>
  </g>
</svg>
