<svg xmlns="http://www.w3.org/2000/svg" width="148.397" height="33.834" viewBox="0 0 148.397 33.834">
  <g id="Xamarin" transform="translate(-23.375 -106.6)">
    <path id="Path_2362" data-name="Path 2362" d="M42.351,106.6h7.74a3.09,3.09,0,0,1,2.875,1.659c2.6,4.589,5.252,9.122,7.906,13.711a2.855,2.855,0,0,1,0,3.1c-2.654,4.589-5.307,9.233-7.906,13.821a2.9,2.9,0,0,1-2.709,1.548H34.5a3.032,3.032,0,0,1-2.764-1.6c-2.654-4.589-5.252-9.177-7.906-13.766a2.95,2.95,0,0,1,0-3.151c2.654-4.589,5.252-9.122,7.906-13.711a3.032,3.032,0,0,1,2.764-1.6Zm0,17.028a5.461,5.461,0,0,0,.5.829c1.382,2.488,2.764,4.92,4.146,7.408.111.166.221.387.442.387h2.654c.332,0,.5-.276.332-.608l-.166-.332c-1.382-2.488-2.764-4.976-4.2-7.463a.583.583,0,0,1,0-.663c1.437-2.543,2.875-5.086,4.257-7.685.276-.5.166-.774-.442-.774H47.6a.75.75,0,0,0-.719.387c-1.437,2.654-2.93,5.252-4.367,7.85-.055.111-.055.276-.221.276-.111,0-.166-.166-.221-.276-1.493-2.654-2.985-5.307-4.423-7.906a.645.645,0,0,0-.608-.387H34.722c-.608,0-.719.221-.442.719,1.437,2.543,2.875,5.141,4.312,7.685a.7.7,0,0,1,0,.663c-1.437,2.543-2.875,5.141-4.312,7.685-.276.5-.166.719.387.719h2.377a.645.645,0,0,0,.608-.387c.885-1.6,1.769-3.151,2.654-4.754A32.018,32.018,0,0,0,42.351,123.628Z" transform="translate(0 0)" fill="#3498da"/>
    <path id="Path_2363" data-name="Path 2363" d="M169.771,129.349a5.109,5.109,0,0,1,4.589-2.6,4.417,4.417,0,0,1,4.367,2.875,7.181,7.181,0,0,1,1.437-1.714,5.66,5.66,0,0,1,6.634-.276,5.064,5.064,0,0,1,1.659,2.93,11.015,11.015,0,0,1,.221,2.322v8.79c0,.276-.111.387-.387.387h-2.654c-.276,0-.387-.055-.387-.387v-7.906a11.015,11.015,0,0,0-.221-2.322,2.29,2.29,0,0,0-1.88-1.88,2.829,2.829,0,0,0-2.875.885,4.356,4.356,0,0,0-1.106,2.875v8.293c0,.332-.055.442-.387.387h-2.6c-.276,0-.387-.055-.387-.387v-8.237a7.894,7.894,0,0,0-.166-1.6,2.648,2.648,0,0,0-2.156-2.322,2.861,2.861,0,0,0-3.151,1.437,3.847,3.847,0,0,0-.608,2.046c-.055,2.156,0,4.257-.055,6.413v2.377c0,.221-.055.276-.276.276H166.51c-.166,0-.276-.055-.221-.221V127.469c0-.332.055-.442.387-.387h2.709c.221,0,.276.055.276.276v1.935A.171.171,0,0,0,169.771,129.349Z" transform="translate(-63.898 -8.983)" fill="#3598da"/>
    <path id="Path_2364" data-name="Path 2364" d="M109.3,139.141c.111-.166.221-.387.332-.553,1.769-2.875,3.593-5.694,5.418-8.569a.5.5,0,0,0,0-.663c-1.659-2.875-3.317-5.8-4.976-8.735a1.208,1.208,0,0,0-.166-.276c.111-.111.221-.055.332-.055h3.593a.484.484,0,0,1,.5.332c1.05,2.156,2.1,4.312,3.151,6.413a3.169,3.169,0,0,0,.221.387c.166-.332.332-.663.5-.94,1.05-1.935,2.046-3.925,3.1-5.86a.49.49,0,0,1,.553-.332h3.428a.312.312,0,0,1-.111.332c-1.714,2.93-3.428,5.8-5.141,8.68a.5.5,0,0,0,0,.608l5.141,8.79c.055.111.276.276.166.442-.055.111-.276.055-.442.055h-3.317a.414.414,0,0,1-.442-.276c-1.161-2.211-2.322-4.478-3.483-6.689-.055-.111-.055-.276-.221-.276-.111,0-.166.166-.166.276-1.216,2.211-2.377,4.478-3.538,6.689-.111.221-.221.276-.5.276h-3.538C109.521,139.2,109.466,139.251,109.3,139.141Z" transform="translate(-38.422 -6.115)" fill="#3498da"/>
    <path id="Path_2365" data-name="Path 2365" d="M211.728,130.979v-2.82c0-.221.166-.276.276-.332a11.627,11.627,0,0,1,3.815-1.106,8.3,8.3,0,0,1,3.1.111,4.58,4.58,0,0,1,3.759,4.091,9.221,9.221,0,0,1,.111,1.769v8.9c0,.332-.111.442-.442.442h-2.6c-.276,0-.332-.055-.332-.332v-1.769c-.221.276-.442.553-.608.774a4.761,4.761,0,0,1-3.483,1.659,5.594,5.594,0,0,1-2.322-.276,3.922,3.922,0,0,1-2.764-3.317,5.128,5.128,0,0,1,.885-3.98,4.9,4.9,0,0,1,2.93-1.659c1.437-.332,2.875-.442,4.312-.663.111,0,.221-.055.332-.055.719-.111.719-.111.663-.829a2.385,2.385,0,0,0-2.433-2.267A7.856,7.856,0,0,0,212,130.7C212,130.813,211.894,130.868,211.728,130.979Zm7.8,4.81v-.608c.055-.332-.111-.387-.387-.332-.719.111-1.437.166-2.156.276a9.969,9.969,0,0,0-2.156.442,2.193,2.193,0,0,0,0,3.98,3.361,3.361,0,0,0,3.815-.94A4.27,4.27,0,0,0,219.523,135.789Z" transform="translate(-83.52 -8.955)" fill="#3598da"/>
    <path id="Path_2366" data-name="Path 2366" d="M148.118,140.018c-.387.387-.663.774-1.05,1.106a4.529,4.529,0,0,1-2.985,1.216,6.642,6.642,0,0,1-2.322-.221,4.081,4.081,0,0,1-2.875-3.649,5.64,5.64,0,0,1,.442-2.875,4.622,4.622,0,0,1,3.372-2.433c1.437-.332,2.875-.442,4.312-.663.111,0,.276-.055.387-.055.719-.111.719-.111.608-.829a2.423,2.423,0,0,0-2.543-2.322,8.449,8.449,0,0,0-4.865,1.382c-.111.055-.166.221-.276.111-.055-.055-.055-.221-.055-.276v-2.267a.483.483,0,0,1,.332-.5,13.972,13.972,0,0,1,4.7-1.161,6.335,6.335,0,0,1,2.267.221,4.526,4.526,0,0,1,3.593,3.759,8.523,8.523,0,0,1,.166,2.046v8.9c0,.332-.055.387-.387.387h-2.654c-.221,0-.276-.055-.276-.276A5.116,5.116,0,0,0,148.118,140.018Zm.055-4.2V135.1c.055-.276-.111-.332-.387-.332-.719.111-1.493.166-2.211.276a8.877,8.877,0,0,0-2.1.442,2.193,2.193,0,0,0,0,3.98,3.172,3.172,0,0,0,3.262-.442A3.5,3.5,0,0,0,148.173,135.816Z" transform="translate(-51.643 -8.927)" fill="#3598da"/>
    <path id="Path_2367" data-name="Path 2367" d="M271.117,129.548c.276-.332.5-.663.719-.94a5.011,5.011,0,0,1,3.7-1.824,6.642,6.642,0,0,1,2.322.221,4.356,4.356,0,0,1,2.93,3.372,10.124,10.124,0,0,1,.276,2.6v8.735c0,.276-.055.387-.387.387h-2.654c-.276,0-.332-.055-.332-.332V133.86a10.8,10.8,0,0,0-.166-1.88,2.722,2.722,0,0,0-1.99-2.322,3.152,3.152,0,0,0-3.317,1,4.13,4.13,0,0,0-1.05,2.985v8.127c0,.332-.111.387-.387.387h-2.709c-.221,0-.276-.055-.276-.276V127.447c0-.221.055-.276.276-.276h2.82c.221,0,.276.055.276.276C271.117,128.111,271.117,128.774,271.117,129.548Z" transform="translate(-109.296 -9.016)" fill="#3498da"/>
    <path id="Path_2368" data-name="Path 2368" d="M241.272,130c.276-.442.442-.885.663-1.272a3.744,3.744,0,0,1,4.257-1.714c.221.055.332.166.276.387v2.764c0,.276-.055.276-.276.166a3.4,3.4,0,0,0-2.211-.276,3.07,3.07,0,0,0-2.267,1.99,5.5,5.5,0,0,0-.442,2.1v7.629c0,.332-.111.387-.387.387h-2.654c-.221,0-.332-.055-.332-.276V127.454c0-.221.055-.276.276-.276H241c.221,0,.276.111.276.332Q241.272,128.753,241.272,130Z" transform="translate(-95.926 -9.079)" fill="#3598da"/>
    <path id="Path_2369" data-name="Path 2369" d="M259.771,134.919V142c0,.276-.111.387-.387.387h-2.543c-.5,0-.442.055-.442-.442V127.787c0-.332.111-.387.387-.387h2.6c.332,0,.442.111.387.442Z" transform="translate(-104.197 -9.301)" fill="#3598da"/>
    <path id="Path_2370" data-name="Path 2370" d="M255.8,116.29a2,2,0,0,1,2.046-1.99,2.079,2.079,0,0,1,2.1,1.99,2.078,2.078,0,0,1-4.146,0Z" transform="translate(-103.93 -3.443)" fill="#3598da"/>
  </g>
</svg>
